<?xml version="1.0" encoding="UTF-8"?>
<svg version="1.1" xmlns="http://www.w3.org/2000/svg" width="522" height="946">
<path d="M0 0 C4.62 0 9.24 0 14 0 C14 1.32 14 2.64 14 4 C14.99 4 15.98 4 17 4 C17 7.3 17 10.6 17 14 C16.01 14 15.02 14 14 14 C14 18.62 14 23.24 14 28 C14.99 28 15.98 28 17 28 C17 33.94 17 39.88 17 46 C18.32 46 19.64 46 21 46 C21 51.61 21 57.22 21 63 C21.99 63 22.98 63 24 63 C24 70.92 24 78.84 24 87 C25.32 87 26.64 87 28 87 C28 93.93 28 100.86 28 108 C28.99 108 29.98 108 31 108 C31 116.25 31 124.5 31 133 C32.32 133 33.64 133 35 133 C35 139.93 35 146.86 35 154 C35.99 154 36.98 154 38 154 C38 160.93 38 167.86 38 175 C39.32 175 40.64 175 42 175 C42 177.31 42 179.62 42 182 C42.99 182 43.98 182 45 182 C45 188.93 45 195.86 45 203 C46.32 203 47.64 203 49 203 C49 207.62 49 212.24 49 217 C49.99 217 50.98 217 52 217 C52 220.3 52 223.6 52 227 C53.32 227 54.64 227 56 227 C56 235.25 56 243.5 56 252 C56.99 252 57.98 252 59 252 C59 255.3 59 258.6 59 262 C60.32 262 61.64 262 63 262 C63 270.25 63 278.5 63 287 C63.99 287 64.98 287 66 287 C66 296.24 66 305.48 66 315 C67.32 315 68.64 315 70 315 C70 319.62 70 324.24 70 329 C70.99 329 71.98 329 73 329 C73 368.27 73 407.54 73 448 C72.01 448 71.02 448 70 448 C70 457.24 70 466.48 70 476 C68.68 476 67.36 476 66 476 C66 479.3 66 482.6 66 486 C65.01 486 64.02 486 63 486 C63 495.24 63 504.48 63 514 C61.68 514 60.36 514 59 514 C59 523.24 59 532.48 59 542 C58.01 542 57.02 542 56 542 C56 557.18 56 572.36 56 588 C54.68 588 53.36 588 52 588 C52 622.65 52 657.3 52 693 C53.32 693 54.64 693 56 693 C56 700.92 56 708.84 56 717 C56.99 717 57.98 717 59 717 C59 719.31 59 721.62 59 724 C60.32 724 61.64 724 63 724 C63 730.93 63 737.86 63 745 C63.99 745 64.98 745 66 745 C66 751.93 66 758.86 66 766 C67.32 766 68.64 766 70 766 C70 770.62 70 775.24 70 780 C70.99 780 71.98 780 73 780 C73 786.93 73 793.86 73 801 C74.32 801 75.64 801 77 801 C77 803.31 77 805.62 77 808 C77.99 808 78.98 808 80 808 C80 813.94 80 819.88 80 826 C81.32 826 82.64 826 84 826 C84 831.61 84 837.22 84 843 C84.99 843 85.98 843 87 843 C87 869.73 87 896.46 87 924 C86.01 924 85.02 924 84 924 C84 924.99 84 925.98 84 927 C78.06 927 72.12 927 66 927 C66 928.32 66 929.64 66 931 C56.76 931 47.52 931 38 931 C38 931.99 38 932.98 38 934 C12.59 934 -12.82 934 -39 934 C-39 933.01 -39 932.02 -39 931 C-44.61 931 -50.22 931 -56 931 C-56 929.68 -56 928.36 -56 927 C-105.83 927 -155.66 927 -207 927 C-207 928.32 -207 929.64 -207 931 C-237.03 931 -267.06 931 -298 931 C-298 931.99 -298 932.98 -298 934 C-301.3 934 -304.6 934 -308 934 C-308 935.32 -308 936.64 -308 938 C-310.31 938 -312.62 938 -315 938 C-315 938.99 -315 939.98 -315 941 C-330.18 941 -345.36 941 -361 941 C-361 940.01 -361 939.02 -361 938 C-363.31 938 -365.62 938 -368 938 C-368 936.68 -368 935.36 -368 934 C-372.62 934 -377.24 934 -382 934 C-382 933.01 -382 932.02 -382 931 C-386.62 931 -391.24 931 -396 931 C-396 929.68 -396 928.36 -396 927 C-398.31 927 -400.62 927 -403 927 C-403 926.01 -403 925.02 -403 924 C-403.99 924 -404.98 924 -406 924 C-406 922.68 -406 921.36 -406 920 C-407.32 920 -408.64 920 -410 920 C-410 916.7 -410 913.4 -410 910 C-410.99 910 -411.98 910 -413 910 C-413 903.07 -413 896.14 -413 889 C-414.32 889 -415.64 889 -417 889 C-417 873.82 -417 858.64 -417 843 C-417.99 843 -418.98 843 -420 843 C-420 806.04 -420 769.08 -420 731 C-419.01 731 -418.02 731 -417 731 C-417 696.35 -417 661.7 -417 626 C-417.99 626 -418.98 626 -420 626 C-420 609.83 -420 593.66 -420 577 C-421.32 577 -422.64 577 -424 577 C-424 566.77 -424 556.54 -424 546 C-422.68 546 -421.36 546 -420 546 C-420 530.82 -420 515.64 -420 500 C-419.01 500 -418.02 500 -417 500 C-417 429.71 -417 359.42 -417 287 C-415.68 287 -414.36 287 -413 287 C-413 277.76 -413 268.52 -413 259 C-412.01 259 -411.02 259 -410 259 C-410 254.38 -410 249.76 -410 245 C-410.99 245 -411.98 245 -413 245 C-413 240.38 -413 235.76 -413 231 C-414.32 231 -415.64 231 -417 231 C-417 221.76 -417 212.52 -417 203 C-417.99 203 -418.98 203 -420 203 C-420 189.14 -420 175.28 -420 161 C-421.32 161 -422.64 161 -424 161 C-424 148.13 -424 135.26 -424 122 C-422.68 122 -421.36 122 -420 122 C-420 116.39 -420 110.78 -420 105 C-419.01 105 -418.02 105 -417 105 C-417 100.38 -417 95.76 -417 91 C-417.99 91 -418.98 91 -420 91 C-420 87.37 -420 83.74 -420 80 C-421.32 80 -422.64 80 -424 80 C-424 77.69 -424 75.38 -424 73 C-424.99 73 -425.98 73 -427 73 C-427 69.7 -427 66.4 -427 63 C-426.01 63 -425.02 63 -424 63 C-424 61.68 -424 60.36 -424 59 C-419.38 59 -414.76 59 -410 59 C-410 58.01 -410 57.02 -410 56 C-408.68 56 -407.36 56 -406 56 C-406 55.01 -406 54.02 -406 53 C-400.39 53 -394.78 53 -389 53 C-389 53.99 -389 54.98 -389 56 C-384.38 56 -379.76 56 -375 56 C-375 55.01 -375 54.02 -375 53 C-371.37 53 -367.74 53 -364 53 C-364 51.68 -364 50.36 -364 49 C-360.7 49 -357.4 49 -354 49 C-354 48.01 -354 47.02 -354 46 C-345.75 46 -337.5 46 -329 46 C-329 44.68 -329 43.36 -329 42 C-321.08 42 -313.16 42 -305 42 C-305 41.01 -305 40.02 -305 39 C-300.38 39 -295.76 39 -291 39 C-291 37.68 -291 36.36 -291 35 C-281.76 35 -272.52 35 -263 35 C-263 34.01 -263 33.02 -263 32 C-258.38 32 -253.76 32 -249 32 C-249 30.68 -249 29.36 -249 28 C-235.14 28 -221.28 28 -207 28 C-207 27.01 -207 26.02 -207 25 C-198.75 25 -190.5 25 -182 25 C-182 23.68 -182 22.36 -182 21 C-169.46 21 -156.92 21 -144 21 C-144 20.01 -144 19.02 -144 18 C-134.76 18 -125.52 18 -116 18 C-116 16.68 -116 15.36 -116 14 C-105.44 14 -94.88 14 -84 14 C-84 13.01 -84 12.02 -84 11 C-71.46 11 -58.92 11 -46 11 C-46 9.68 -46 8.36 -46 7 C-39.07 7 -32.14 7 -25 7 C-25 6.01 -25 5.02 -25 4 C-16.75 4 -8.5 4 0 4 C0 2.68 0 1.36 0 0 Z " fill="#EDE5AD" transform="translate(430,3)"/>
<path d="M0 0 C16.17 0 32.34 0 49 0 C49 1.32 49 2.64 49 4 C54.94 4 60.88 4 67 4 C67 4.99 67 5.98 67 7 C72.61 7 78.22 7 84 7 C84 6.01 84 5.02 84 4 C103.8 4 123.6 4 144 4 C144 4.99 144 5.98 144 7 C146.31 7 148.62 7 151 7 C151 10.63 151 14.26 151 18 C151.99 18 152.98 18 154 18 C154 21.3 154 24.6 154 28 C155.32 28 156.64 28 158 28 C158 44.17 158 60.34 158 77 C158.99 77 159.98 77 161 77 C161 87.56 161 98.12 161 109 C162.32 109 163.64 109 165 109 C165 115.93 165 122.86 165 130 C165.99 130 166.98 130 168 130 C168 142.54 168 155.08 168 168 C169.32 168 170.64 168 172 168 C172 176.25 172 184.5 172 193 C170.68 193 169.36 193 168 193 C168 197.62 168 202.24 168 207 C167.01 207 166.02 207 165 207 C165 211.62 165 216.24 165 221 C156.75 221 148.5 221 140 221 C140 221.99 140 222.98 140 224 C136.7 224 133.4 224 130 224 C130 225.32 130 226.64 130 228 C124.06 228 118.12 228 112 228 C112 228.99 112 229.98 112 231 C99.46 231 86.92 231 74 231 C74 230.01 74 229.02 74 228 C64.76 228 55.52 228 46 228 C46 228.99 46 229.98 46 231 C39.07 231 32.14 231 25 231 C25 232.32 25 233.64 25 235 C14.44 235 3.88 235 -7 235 C-7 235.99 -7 236.98 -7 238 C-28.78 238 -50.56 238 -73 238 C-73 237.01 -73 236.02 -73 235 C-91.48 235 -109.96 235 -129 235 C-129 233.68 -129 232.36 -129 231 C-132.63 231 -136.26 231 -140 231 C-140 230.01 -140 229.02 -140 228 C-142.31 228 -144.62 228 -147 228 C-147 222.06 -147 216.12 -147 210 C-147.99 210 -148.98 210 -150 210 C-150 202.08 -150 194.16 -150 186 C-151.32 186 -152.64 186 -154 186 C-154 176.76 -154 167.52 -154 158 C-154.99 158 -155.98 158 -157 158 C-157 148.76 -157 139.52 -157 130 C-158.32 130 -159.64 130 -161 130 C-161 107.89 -161 85.78 -161 63 C-161.99 63 -162.98 63 -164 63 C-164 57.39 -164 51.78 -164 46 C-165.32 46 -166.64 46 -168 46 C-168 36.76 -168 27.52 -168 18 C-159.75 18 -151.5 18 -143 18 C-143 16.68 -143 15.36 -143 14 C-137.39 14 -131.78 14 -126 14 C-126 13.01 -126 12.02 -126 11 C-94.65 11 -63.3 11 -31 11 C-31 9.68 -31 8.36 -31 7 C-23.08 7 -15.16 7 -7 7 C-7 6.01 -7 5.02 -7 4 C-4.69 4 -2.38 4 0 4 C0 2.68 0 1.36 0 0 Z " fill="#EEE6AE" transform="translate(251,622)"/>
<path d="M0 0 C8.25 0 16.5 0 25 0 C25 1.32 25 2.64 25 4 C25.99 4 26.98 4 28 4 C28 4.99 28 5.98 28 7 C29.32 7 30.64 7 32 7 C32 9.31 32 11.62 32 14 C32.99 14 33.98 14 35 14 C35 16.31 35 18.62 35 21 C36.32 21 37.64 21 39 21 C39 25.62 39 30.24 39 35 C39.99 35 40.98 35 42 35 C42 39.62 42 44.24 42 49 C43.32 49 44.64 49 46 49 C46 54.94 46 60.88 46 67 C46.99 67 47.98 67 49 67 C49 70.3 49 73.6 49 77 C50.32 77 51.64 77 53 77 C53 82.94 53 88.88 53 95 C53.99 95 54.98 95 56 95 C56 99.62 56 104.24 56 109 C57.32 109 58.64 109 60 109 C60 113.62 60 118.24 60 123 C60.99 123 61.98 123 63 123 C63 129.93 63 136.86 63 144 C64.32 144 65.64 144 67 144 C67 150.93 67 157.86 67 165 C67.99 165 68.98 165 70 165 C70 171.93 70 178.86 70 186 C71.32 186 72.64 186 74 186 C74 192.93 74 199.86 74 207 C72.68 207 71.36 207 70 207 C70 216.24 70 225.48 70 235 C71.32 235 72.64 235 74 235 C74 247.54 74 260.08 74 273 C74.99 273 75.98 273 77 273 C77 279.93 77 286.86 77 294 C78.32 294 79.64 294 81 294 C81 320.73 81 347.46 81 375 C79.68 375 78.36 375 77 375 C77 375.99 77 376.98 77 378 C76.01 378 75.02 378 74 378 C74 379.32 74 380.64 74 382 C70.37 382 66.74 382 63 382 C63 382.99 63 383.98 63 385 C60.69 385 58.38 385 56 385 C56 386.32 56 387.64 56 389 C24.98 389 -6.04 389 -38 389 C-38 386.69 -38 384.38 -38 382 C-39.32 382 -40.64 382 -42 382 C-42 375.07 -42 368.14 -42 361 C-42.99 361 -43.98 361 -45 361 C-45 354.07 -45 347.14 -45 340 C-46.32 340 -47.64 340 -49 340 C-49 330.76 -49 321.52 -49 312 C-49.99 312 -50.98 312 -52 312 C-52 306.06 -52 300.12 -52 294 C-53.32 294 -54.64 294 -56 294 C-56 288.39 -56 282.78 -56 277 C-56.99 277 -57.98 277 -59 277 C-59 265.45 -59 253.9 -59 242 C-60.32 242 -61.64 242 -63 242 C-63 191.18 -63 140.36 -63 88 C-63.99 88 -64.98 88 -66 88 C-66 68.2 -66 48.4 -66 28 C-65.01 28 -64.02 28 -63 28 C-63 27.01 -63 26.02 -63 25 C-61.68 25 -60.36 25 -59 25 C-59 23.68 -59 22.36 -59 21 C-55.7 21 -52.4 21 -49 21 C-49 20.01 -49 19.02 -49 18 C-47.68 18 -46.36 18 -45 18 C-45 16.68 -45 15.36 -45 14 C-42.69 14 -40.38 14 -38 14 C-38 13.01 -38 12.02 -38 11 C-34.7 11 -31.4 11 -28 11 C-28 9.68 -28 8.36 -28 7 C-23.38 7 -18.76 7 -14 7 C-14 6.01 -14 5.02 -14 4 C-9.38 4 -4.76 4 0 4 C0 2.68 0 1.36 0 0 Z " fill="#EEE6AE" transform="translate(328,83)"/>
<path d="M0 0 C1.32 0 2.64 0 4 0 C4 2.31 4 4.62 4 7 C4.99 7 5.98 7 7 7 C7 23.17 7 39.34 7 56 C8.32 56 9.64 56 11 56 C11 66.56 11 77.12 11 88 C11.99 88 12.98 88 14 88 C14 95.92 14 103.84 14 112 C15.32 112 16.64 112 18 112 C18 183.61 18 255.22 18 329 C18.99 329 19.98 329 21 329 C21 337.25 21 345.5 21 354 C22.32 354 23.64 354 25 354 C25 361.92 25 369.84 25 378 C22.69 378 20.38 378 18 378 C18 379.32 18 380.64 18 382 C13.38 382 8.76 382 4 382 C4 382.99 4 383.98 4 385 C-1.94 385 -7.88 385 -14 385 C-14 386.32 -14 387.64 -14 389 C-30.17 389 -46.34 389 -63 389 C-63 389.99 -63 390.98 -63 392 C-69.93 392 -76.86 392 -84 392 C-84 393.32 -84 394.64 -84 396 C-88.62 396 -93.24 396 -98 396 C-98 393.69 -98 391.38 -98 389 C-98.99 389 -99.98 389 -101 389 C-101 383.06 -101 377.12 -101 371 C-102.32 371 -103.64 371 -105 371 C-105 323.81 -105 276.62 -105 228 C-103.68 228 -102.36 228 -101 228 C-101 207.21 -101 186.42 -101 165 C-100.01 165 -99.02 165 -98 165 C-98 155.76 -98 146.52 -98 137 C-96.68 137 -95.36 137 -94 137 C-94 112.58 -94 88.16 -94 63 C-95.32 63 -96.64 63 -98 63 C-98 49.14 -98 35.28 -98 21 C-98.99 21 -99.98 21 -101 21 C-101 18.69 -101 16.38 -101 14 C-95.39 14 -89.78 14 -84 14 C-84 11.69 -84 9.38 -84 7 C-64.2 7 -44.4 7 -24 7 C-24 6.01 -24 5.02 -24 4 C-16.08 4 -8.16 4 0 4 C0 2.68 0 1.36 0 0 Z " fill="#EEE6AE" transform="translate(181,111)"/>
<path d="M0 0 C4.62 0 9.24 0 14 0 C14 1.32 14 2.64 14 4 C14.99 4 15.98 4 17 4 C17 7.3 17 10.6 17 14 C16.01 14 15.02 14 14 14 C14 18.62 14 23.24 14 28 C14.99 28 15.98 28 17 28 C17 33.94 17 39.88 17 46 C18.32 46 19.64 46 21 46 C21 51.61 21 57.22 21 63 C21.99 63 22.98 63 24 63 C24 70.92 24 78.84 24 87 C25.32 87 26.64 87 28 87 C28 93.93 28 100.86 28 108 C28.99 108 29.98 108 31 108 C31 116.25 31 124.5 31 133 C32.32 133 33.64 133 35 133 C35 139.93 35 146.86 35 154 C35.99 154 36.98 154 38 154 C38 160.93 38 167.86 38 175 C39.32 175 40.64 175 42 175 C42 177.31 42 179.62 42 182 C42.99 182 43.98 182 45 182 C45 188.93 45 195.86 45 203 C46.32 203 47.64 203 49 203 C49 207.62 49 212.24 49 217 C49.99 217 50.98 217 52 217 C52 220.3 52 223.6 52 227 C53.32 227 54.64 227 56 227 C56 235.25 56 243.5 56 252 C56.99 252 57.98 252 59 252 C59 255.3 59 258.6 59 262 C60.32 262 61.64 262 63 262 C63 270.25 63 278.5 63 287 C63.99 287 64.98 287 66 287 C66 296.24 66 305.48 66 315 C67.32 315 68.64 315 70 315 C70 319.62 70 324.24 70 329 C70.99 329 71.98 329 73 329 C73 368.27 73 407.54 73 448 C72.01 448 71.02 448 70 448 C70 457.24 70 466.48 70 476 C68.68 476 67.36 476 66 476 C66 479.3 66 482.6 66 486 C65.01 486 64.02 486 63 486 C63 495.24 63 504.48 63 514 C61.68 514 60.36 514 59 514 C59 523.24 59 532.48 59 542 C58.01 542 57.02 542 56 542 C56 557.18 56 572.36 56 588 C54.68 588 53.36 588 52 588 C52 622.65 52 657.3 52 693 C53.32 693 54.64 693 56 693 C56 700.92 56 708.84 56 717 C56.99 717 57.98 717 59 717 C59 719.31 59 721.62 59 724 C60.32 724 61.64 724 63 724 C63 730.93 63 737.86 63 745 C63.99 745 64.98 745 66 745 C66 751.93 66 758.86 66 766 C67.32 766 68.64 766 70 766 C70 770.62 70 775.24 70 780 C70.99 780 71.98 780 73 780 C73 786.93 73 793.86 73 801 C74.32 801 75.64 801 77 801 C77 803.31 77 805.62 77 808 C77.99 808 78.98 808 80 808 C80 813.94 80 819.88 80 826 C81.32 826 82.64 826 84 826 C84 831.61 84 837.22 84 843 C84.99 843 85.98 843 87 843 C87 869.73 87 896.46 87 924 C86.01 924 85.02 924 84 924 C84 924.99 84 925.98 84 927 C78.06 927 72.12 927 66 927 C66 928.32 66 929.64 66 931 C56.76 931 47.52 931 38 931 C38 931.99 38 932.98 38 934 C12.59 934 -12.82 934 -39 934 C-39 933.01 -39 932.02 -39 931 C-44.61 931 -50.22 931 -56 931 C-56 929.68 -56 928.36 -56 927 C-105.83 927 -155.66 927 -207 927 C-207 928.32 -207 929.64 -207 931 C-237.03 931 -267.06 931 -298 931 C-298 931.99 -298 932.98 -298 934 C-301.3 934 -304.6 934 -308 934 C-308 935.32 -308 936.64 -308 938 C-310.31 938 -312.62 938 -315 938 C-315 938.99 -315 939.98 -315 941 C-330.18 941 -345.36 941 -361 941 C-361 940.01 -361 939.02 -361 938 C-363.31 938 -365.62 938 -368 938 C-368 936.68 -368 935.36 -368 934 C-372.62 934 -377.24 934 -382 934 C-382 933.01 -382 932.02 -382 931 C-386.62 931 -391.24 931 -396 931 C-396 929.68 -396 928.36 -396 927 C-398.31 927 -400.62 927 -403 927 C-403 926.01 -403 925.02 -403 924 C-403.99 924 -404.98 924 -406 924 C-406 922.68 -406 921.36 -406 920 C-407.32 920 -408.64 920 -410 920 C-410 916.7 -410 913.4 -410 910 C-410.99 910 -411.98 910 -413 910 C-413 903.07 -413 896.14 -413 889 C-414.32 889 -415.64 889 -417 889 C-417 873.82 -417 858.64 -417 843 C-417.99 843 -418.98 843 -420 843 C-420 806.04 -420 769.08 -420 731 C-419.01 731 -418.02 731 -417 731 C-417 696.35 -417 661.7 -417 626 C-417.99 626 -418.98 626 -420 626 C-420 609.83 -420 593.66 -420 577 C-421.32 577 -422.64 577 -424 577 C-424 566.77 -424 556.54 -424 546 C-422.68 546 -421.36 546 -420 546 C-420 530.82 -420 515.64 -420 500 C-419.01 500 -418.02 500 -417 500 C-417 429.71 -417 359.42 -417 287 C-415.68 287 -414.36 287 -413 287 C-413 277.76 -413 268.52 -413 259 C-412.01 259 -411.02 259 -410 259 C-410 254.38 -410 249.76 -410 245 C-410.99 245 -411.98 245 -413 245 C-413 240.38 -413 235.76 -413 231 C-414.32 231 -415.64 231 -417 231 C-417 221.76 -417 212.52 -417 203 C-417.99 203 -418.98 203 -420 203 C-420 189.14 -420 175.28 -420 161 C-421.32 161 -422.64 161 -424 161 C-424 148.13 -424 135.26 -424 122 C-422.68 122 -421.36 122 -420 122 C-420 116.39 -420 110.78 -420 105 C-419.01 105 -418.02 105 -417 105 C-417 100.38 -417 95.76 -417 91 C-417.99 91 -418.98 91 -420 91 C-420 87.37 -420 83.74 -420 80 C-421.32 80 -422.64 80 -424 80 C-424 77.69 -424 75.38 -424 73 C-424.99 73 -425.98 73 -427 73 C-427 69.7 -427 66.4 -427 63 C-426.01 63 -425.02 63 -424 63 C-424 61.68 -424 60.36 -424 59 C-419.38 59 -414.76 59 -410 59 C-410 58.01 -410 57.02 -410 56 C-408.68 56 -407.36 56 -406 56 C-406 55.01 -406 54.02 -406 53 C-400.39 53 -394.78 53 -389 53 C-389 53.99 -389 54.98 -389 56 C-384.38 56 -379.76 56 -375 56 C-375 55.01 -375 54.02 -375 53 C-371.37 53 -367.74 53 -364 53 C-364 51.68 -364 50.36 -364 49 C-360.7 49 -357.4 49 -354 49 C-354 48.01 -354 47.02 -354 46 C-345.75 46 -337.5 46 -329 46 C-329 44.68 -329 43.36 -329 42 C-321.08 42 -313.16 42 -305 42 C-305 41.01 -305 40.02 -305 39 C-300.38 39 -295.76 39 -291 39 C-291 37.68 -291 36.36 -291 35 C-281.76 35 -272.52 35 -263 35 C-263 34.01 -263 33.02 -263 32 C-258.38 32 -253.76 32 -249 32 C-249 30.68 -249 29.36 -249 28 C-235.14 28 -221.28 28 -207 28 C-207 27.01 -207 26.02 -207 25 C-198.75 25 -190.5 25 -182 25 C-182 23.68 -182 22.36 -182 21 C-169.46 21 -156.92 21 -144 21 C-144 20.01 -144 19.02 -144 18 C-134.76 18 -125.52 18 -116 18 C-116 16.68 -116 15.36 -116 14 C-105.44 14 -94.88 14 -84 14 C-84 13.01 -84 12.02 -84 11 C-71.46 11 -58.92 11 -46 11 C-46 9.68 -46 8.36 -46 7 C-39.07 7 -32.14 7 -25 7 C-25 6.01 -25 5.02 -25 4 C-16.75 4 -8.5 4 0 4 C0 2.68 0 1.36 0 0 Z M-21 18 C-21 18.99 -21 19.98 -21 21 C-27.93 21 -34.86 21 -42 21 C-42 22.32 -42 23.64 -42 25 C-54.87 25 -67.74 25 -81 25 C-81 25.99 -81 26.98 -81 28 C-91.23 28 -101.46 28 -112 28 C-112 29.32 -112 30.64 -112 32 C-121.24 32 -130.48 32 -140 32 C-140 32.99 -140 33.98 -140 35 C-152.87 35 -165.74 35 -179 35 C-179 36.32 -179 37.64 -179 39 C-186.92 39 -194.84 39 -203 39 C-203 39.99 -203 40.98 -203 42 C-216.86 42 -230.72 42 -245 42 C-245 43.32 -245 44.64 -245 46 C-249.62 46 -254.24 46 -259 46 C-259 46.99 -259 47.98 -259 49 C-268.24 49 -277.48 49 -287 49 C-287 50.32 -287 51.64 -287 53 C-291.62 53 -296.24 53 -301 53 C-301 53.99 -301 54.98 -301 56 C-309.25 56 -317.5 56 -326 56 C-326 56.99 -326 57.98 -326 59 C-333.92 59 -341.84 59 -350 59 C-350 60.32 -350 61.64 -350 63 C-353.63 63 -357.26 63 -361 63 C-361 63.99 -361 64.98 -361 66 C-364.3 66 -367.6 66 -371 66 C-371 67.32 -371 68.64 -371 70 C-377.93 70 -384.86 70 -392 70 C-392 68.68 -392 67.36 -392 66 C-395.63 66 -399.26 66 -403 66 C-403 67.32 -403 68.64 -403 70 C-403.99 70 -404.98 70 -406 70 C-406 70.99 -406 71.98 -406 73 C-407.32 73 -408.64 73 -410 73 C-410 74.32 -410 75.64 -410 77 C-408.68 77 -407.36 77 -406 77 C-406 80.3 -406 83.6 -406 87 C-405.01 87 -404.02 87 -403 87 C-403 95.25 -403 103.5 -403 112 C-403.99 112 -404.98 112 -406 112 C-406 116.62 -406 121.24 -406 126 C-407.32 126 -408.64 126 -410 126 C-410 136.23 -410 146.46 -410 157 C-408.68 157 -407.36 157 -406 157 C-406 170.86 -406 184.72 -406 199 C-405.01 199 -404.02 199 -403 199 C-403 208.24 -403 217.48 -403 227 C-401.68 227 -400.36 227 -399 227 C-399 231.62 -399 236.24 -399 241 C-398.01 241 -397.02 241 -396 241 C-396 247.93 -396 254.86 -396 262 C-396.99 262 -397.98 262 -399 262 C-399 271.24 -399 280.48 -399 290 C-400.32 290 -401.64 290 -403 290 C-403 360.62 -403 431.24 -403 504 C-403.99 504 -404.98 504 -406 504 C-406 518.85 -406 533.7 -406 549 C-407.32 549 -408.64 549 -410 549 C-410 557.25 -410 565.5 -410 574 C-408.68 574 -407.36 574 -406 574 C-406 590.17 -406 606.34 -406 623 C-405.01 623 -404.02 623 -403 623 C-403 660.95 -403 698.9 -403 738 C-403.99 738 -404.98 738 -406 738 C-406 771.66 -406 805.32 -406 840 C-405.01 840 -404.02 840 -403 840 C-403 854.85 -403 869.7 -403 885 C-401.68 885 -400.36 885 -399 885 C-399 891.93 -399 898.86 -399 906 C-398.01 906 -397.02 906 -396 906 C-396 908.31 -396 910.62 -396 913 C-393.69 913 -391.38 913 -389 913 C-389 914.32 -389 915.64 -389 917 C-385.37 917 -381.74 917 -378 917 C-378 917.99 -378 918.98 -378 920 C-373.38 920 -368.76 920 -364 920 C-364 921.32 -364 922.64 -364 924 C-361.69 924 -359.38 924 -357 924 C-357 924.99 -357 925.98 -357 927 C-344.46 927 -331.92 927 -319 927 C-319 926.01 -319 925.02 -319 924 C-316.69 924 -314.38 924 -312 924 C-312 922.68 -312 921.36 -312 920 C-308.37 920 -304.74 920 -301 920 C-301 919.01 -301 918.02 -301 917 C-270.97 917 -240.94 917 -210 917 C-210 915.68 -210 914.36 -210 913 C-158.19 913 -106.38 913 -53 913 C-53 914.32 -53 915.64 -53 917 C-47.06 917 -41.12 917 -35 917 C-35 917.99 -35 918.98 -35 920 C-13.22 920 8.56 920 31 920 C31 919.01 31 918.02 31 917 C41.56 917 52.12 917 63 917 C63 915.68 63 914.36 63 913 C66.3 913 69.6 913 73 913 C73 891.22 73 869.44 73 847 C72.01 847 71.02 847 70 847 C70 841.06 70 835.12 70 829 C68.68 829 67.36 829 66 829 C66 823.39 66 817.78 66 812 C65.01 812 64.02 812 63 812 C63 809.69 63 807.38 63 805 C61.68 805 60.36 805 59 805 C59 798.07 59 791.14 59 784 C58.01 784 57.02 784 56 784 C56 779.38 56 774.76 56 770 C54.68 770 53.36 770 52 770 C52 763.07 52 756.14 52 749 C51.01 749 50.02 749 49 749 C49 742.07 49 735.14 49 728 C47.68 728 46.36 728 45 728 C45 725.69 45 723.38 45 721 C44.01 721 43.02 721 42 721 C42 712.75 42 704.5 42 696 C40.68 696 39.36 696 38 696 C38 659.04 38 622.08 38 584 C39.32 584 40.64 584 42 584 C42 569.15 42 554.3 42 539 C42.99 539 43.98 539 45 539 C45 529.76 45 520.52 45 511 C46.32 511 47.64 511 49 511 C49 501.76 49 492.52 49 483 C49.99 483 50.98 483 52 483 C52 479.37 52 475.74 52 472 C53.32 472 54.64 472 56 472 C56 462.76 56 453.52 56 444 C56.99 444 57.98 444 59 444 C59 407.04 59 370.08 59 332 C58.01 332 57.02 332 56 332 C56 327.38 56 322.76 56 318 C54.68 318 53.36 318 52 318 C52 308.76 52 299.52 52 290 C51.01 290 50.02 290 49 290 C49 282.08 49 274.16 49 266 C47.68 266 46.36 266 45 266 C45 262.37 45 258.74 45 255 C44.01 255 43.02 255 42 255 C42 247.08 42 239.16 42 231 C40.68 231 39.36 231 38 231 C38 227.37 38 223.74 38 220 C37.01 220 36.02 220 35 220 C35 215.38 35 210.76 35 206 C33.68 206 32.36 206 31 206 C31 199.07 31 192.14 31 185 C30.01 185 29.02 185 28 185 C28 182.69 28 180.38 28 178 C26.68 178 25.36 178 24 178 C24 171.07 24 164.14 24 157 C23.01 157 22.02 157 21 157 C21 150.07 21 143.14 21 136 C19.68 136 18.36 136 17 136 C17 128.08 17 120.16 17 112 C16.01 112 15.02 112 14 112 C14 105.07 14 98.14 14 91 C12.68 91 11.36 91 10 91 C10 82.75 10 74.5 10 66 C9.01 66 8.02 66 7 66 C7 60.39 7 54.78 7 49 C5.68 49 4.36 49 3 49 C3 43.39 3 37.78 3 32 C2.01 32 1.02 32 0 32 C0 27.38 0 22.76 0 18 C-6.93 18 -13.86 18 -21 18 Z " fill="#000000" transform="translate(430,3)"/>
<path d="M0 0 C11.55 0 23.1 0 35 0 C35 0.99 35 1.98 35 3 C38.63 3 42.26 3 46 3 C46 4.32 46 5.64 46 7 C46.99 7 47.98 7 49 7 C49 7.99 49 8.98 49 10 C50.32 10 51.64 10 53 10 C53 11.32 53 12.64 53 14 C53.99 14 54.98 14 56 14 C56 23.24 56 32.48 56 42 C55.01 42 54.02 42 53 42 C53 45.3 53 48.6 53 52 C51.68 52 50.36 52 49 52 C49 53.32 49 54.64 49 56 C46.69 56 44.38 56 42 56 C42 56.99 42 57.98 42 59 C41.01 59 40.02 59 39 59 C39 60.32 39 61.64 39 63 C28.44 63 17.88 63 7 63 C7 61.68 7 60.36 7 59 C6.01 59 5.02 59 4 59 C4 56.69 4 54.38 4 52 C2.68 52 1.36 52 0 52 C0 51.01 0 50.02 0 49 C-0.99 49 -1.98 49 -3 49 C-3 47.68 -3 46.36 -3 45 C-4.32 45 -5.64 45 -7 45 C-7 42.69 -7 40.38 -7 38 C-7.99 38 -8.98 38 -10 38 C-10 31.07 -10 24.14 -10 17 C-9.01 17 -8.02 17 -7 17 C-7 13.7 -7 10.4 -7 7 C-5.68 7 -4.36 7 -3 7 C-3 5.68 -3 4.36 -3 3 C-2.01 3 -1.02 3 0 3 C0 2.01 0 1.02 0 0 Z " fill="#000000" transform="translate(398,493)"/>
<path d="M0 0 C3.3 0 6.6 0 10 0 C10 0.99 10 1.98 10 3 C13.63 3 17.26 3 21 3 C21 4.32 21 5.64 21 7 C21.99 7 22.98 7 24 7 C24 12.61 24 18.22 24 24 C23.01 24 22.02 24 21 24 C21 26.31 21 28.62 21 31 C18.69 31 16.38 31 14 31 C14 32.32 14 33.64 14 35 C8.06 35 2.12 35 -4 35 C-4 33.68 -4 32.36 -4 31 C-4.99 31 -5.98 31 -7 31 C-7 30.01 -7 29.02 -7 28 C-8.32 28 -9.64 28 -11 28 C-11 25.69 -11 23.38 -11 21 C-11.99 21 -12.98 21 -14 21 C-14 16.38 -14 11.76 -14 7 C-13.01 7 -12.02 7 -11 7 C-11 5.68 -11 4.36 -11 3 C-7.37 3 -3.74 3 0 3 C0 2.01 0 1.02 0 0 Z " fill="#EACC07" transform="translate(416,507)"/>
<path d="M0 0 C0.99 0 1.98 0 3 0 C3 71.61 3 143.22 3 217 C2.01 217 1.02 217 0 217 C0 145.39 0 73.78 0 0 Z " fill="#000000" transform="translate(199,223)"/>
<path d="M0 0 C0.99 0 1.98 0 3 0 C3 47.19 3 94.38 3 143 C4.32 143 5.64 143 7 143 C7 148.94 7 154.88 7 161 C5.68 161 4.36 161 3 161 C3 156.38 3 151.76 3 147 C2.01 147 1.02 147 0 147 C0 98.49 0 49.98 0 0 Z " fill="#000000" transform="translate(73,339)"/>
<path d="M0 0 C0.99 0 1.98 0 3 0 C3 50.82 3 101.64 3 154 C2.01 154 1.02 154 0 154 C0 103.18 0 52.36 0 0 Z " fill="#000000" transform="translate(262,171)"/>
<path d="M0 0 C0.99 0 1.98 0 3 0 C3 6.93 3 13.86 3 21 C4.32 21 5.64 21 7 21 C7 23.31 7 25.62 7 28 C38.02 28 69.04 28 101 28 C101 28.99 101 29.98 101 31 C68.66 31 36.32 31 3 31 C3 28.69 3 26.38 3 24 C2.01 24 1.02 24 0 24 C0 16.08 0 8.16 0 0 Z " fill="#000000" transform="translate(283,444)"/>
<path d="M0 0 C31.35 0 62.7 0 95 0 C95 1.32 95 2.64 95 4 C63.65 4 32.3 4 0 4 C0 2.68 0 1.36 0 0 Z " fill="#000000" transform="translate(125,629)"/>
<path d="M0 0 C0.99 0 1.98 0 3 0 C3 27.72 3 55.44 3 84 C2.01 84 1.02 84 0 84 C0 85.32 0 86.64 0 88 C-1.32 88 -2.64 88 -4 88 C-4 88.99 -4 89.98 -4 91 C-7.3 91 -10.6 91 -14 91 C-14 92.32 -14 93.64 -14 95 C-17.63 95 -21.26 95 -25 95 C-25 93.68 -25 92.36 -25 91 C-22.69 91 -20.38 91 -18 91 C-18 90.01 -18 89.02 -18 88 C-14.37 88 -10.74 88 -7 88 C-7 86.68 -7 85.36 -7 84 C-6.01 84 -5.02 84 -4 84 C-4 83.01 -4 82.02 -4 81 C-2.68 81 -1.36 81 0 81 C0 54.27 0 27.54 0 0 Z " fill="#000000" transform="translate(409,377)"/>
<path d="M0 0 C0.99 0 1.98 0 3 0 C3 9.24 3 18.48 3 28 C4.32 28 5.64 28 7 28 C7 35.92 7 43.84 7 52 C7.99 52 8.98 52 10 52 C10 57.94 10 63.88 10 70 C12.31 70 14.62 70 17 70 C17 70.99 17 71.98 17 73 C20.63 73 24.26 73 28 73 C28 74.32 28 75.64 28 77 C23.38 77 18.76 77 14 77 C14 75.68 14 74.36 14 73 C11.69 73 9.38 73 7 73 C7 67.39 7 61.78 7 56 C5.68 56 4.36 56 3 56 C3 47.75 3 39.5 3 31 C2.01 31 1.02 31 0 31 C0 20.77 0 10.54 0 0 Z " fill="#000000" transform="translate(94,780)"/>
<path d="M0 0 C20.79 0 41.58 0 63 0 C63 1.32 63 2.64 63 4 C65.31 4 67.62 4 70 4 C70 8.62 70 13.24 70 18 C69.01 18 68.02 18 67 18 C67 14.37 67 10.74 67 7 C64.69 7 62.38 7 60 7 C60 6.01 60 5.02 60 4 C40.2 4 20.4 4 0 4 C0 2.68 0 1.36 0 0 Z " fill="#000000" transform="translate(335,622)"/>
<path d="M0 0 C0.99 0 1.98 0 3 0 C3 0.99 3 1.98 3 3 C4.32 3 5.64 3 7 3 C7 4.32 7 5.64 7 7 C5.68 7 4.36 7 3 7 C3 7.99 3 8.98 3 10 C2.01 10 1.02 10 0 10 C0 29.8 0 49.6 0 70 C-1.32 70 -2.64 70 -4 70 C-4 47.89 -4 25.78 -4 3 C-2.68 3 -1.36 3 0 3 C0 2.01 0 1.02 0 0 Z " fill="#000000" transform="translate(262,101)"/>
<path d="M0 0 C1.32 0 2.64 0 4 0 C4 24.42 4 48.84 4 74 C2.68 74 1.36 74 0 74 C0 49.58 0 25.16 0 0 Z " fill="#000000" transform="translate(83,174)"/>
<path d="M0 0 C0.99 0 1.98 0 3 0 C3 2.31 3 4.62 3 7 C-2.61 7 -8.22 7 -14 7 C-14 9.31 -14 11.62 -14 14 C-13.01 14 -12.02 14 -11 14 C-11 27.86 -11 41.72 -11 56 C-11.99 56 -12.98 56 -14 56 C-14 45.77 -14 35.54 -14 25 C-15.32 25 -16.64 25 -18 25 C-18 18.07 -18 11.14 -18 4 C-12.06 4 -6.12 4 0 4 C0 2.68 0 1.36 0 0 Z " fill="#000000" transform="translate(94,118)"/>
<path d="M0 0 C21.78 0 43.56 0 66 0 C66 1.32 66 2.64 66 4 C44.22 4 22.44 4 0 4 C0 2.68 0 1.36 0 0 Z " fill="#000000" transform="translate(178,860)"/>
<path d="M0 0 C1.32 0 2.64 0 4 0 C4 20.79 4 41.58 4 63 C2.68 63 1.36 63 0 63 C0 42.21 0 21.42 0 0 Z " fill="#000000" transform="translate(76,276)"/>
<path d="M0 0 C0.99 0 1.98 0 3 0 C3 22.11 3 44.22 3 67 C2.01 67 1.02 67 0 67 C0 44.89 0 22.78 0 0 Z " fill="#000000" transform="translate(87,685)"/>
<path d="M0 0 C9.24 0 18.48 0 28 0 C28 1.32 28 2.64 28 4 C19.75 4 11.5 4 3 4 C3 13.24 3 22.48 3 32 C2.01 32 1.02 32 0 32 C0 21.44 0 10.88 0 0 Z " fill="#000000" transform="translate(80,636)"/>
<path d="M0 0 C1.32 0 2.64 0 4 0 C4 16.17 4 32.34 4 49 C2.68 49 1.36 49 0 49 C0 32.83 0 16.66 0 0 Z " fill="#000000" transform="translate(188,118)"/>
<path d="M0 0 C19.8 0 39.6 0 60 0 C60 0.99 60 1.98 60 3 C40.2 3 20.4 3 0 3 C0 2.01 0 1.02 0 0 Z " fill="#000000" transform="translate(97,115)"/>
<path d="M0 0 C18.48 0 36.96 0 56 0 C56 0.99 56 1.98 56 3 C37.52 3 19.04 3 0 3 C0 2.01 0 1.02 0 0 Z " fill="#000000" transform="translate(122,857)"/>
<path d="M0 0 C12.54 0 25.08 0 38 0 C38 1.32 38 2.64 38 4 C25.46 4 12.92 4 0 4 C0 2.68 0 1.36 0 0 Z " fill="#000000" transform="translate(325,853)"/>
<path d="M0 0 C1.32 0 2.64 0 4 0 C4 12.54 4 25.08 4 38 C2.68 38 1.36 38 0 38 C0 25.46 0 12.92 0 0 Z " fill="#000000" transform="translate(419,752)"/>
<path d="M0 0 C0.99 0 1.98 0 3 0 C3 16.17 3 32.34 3 49 C2.01 49 1.02 49 0 49 C0 32.83 0 16.66 0 0 Z " fill="#000000" transform="translate(409,650)"/>
<path d="M0 0 C16.17 0 32.34 0 49 0 C49 0.99 49 1.98 49 3 C32.83 3 16.66 3 0 3 C0 2.01 0 1.02 0 0 Z " fill="#000000" transform="translate(251,619)"/>
<path d="M0 0 C16.17 0 32.34 0 49 0 C49 0.99 49 1.98 49 3 C32.83 3 16.66 3 0 3 C0 2.01 0 1.02 0 0 Z " fill="#000000" transform="translate(118,500)"/>
<path d="M0 0 C1.32 0 2.64 0 4 0 C4 11.55 4 23.1 4 35 C2.68 35 1.36 35 0 35 C0 23.45 0 11.9 0 0 Z " fill="#000000" transform="translate(265,325)"/>
<path d="M0 0 C1.32 0 2.64 0 4 0 C4 10.56 4 21.12 4 32 C2.68 32 1.36 32 0 32 C0 21.44 0 10.88 0 0 Z " fill="#000000" transform="translate(412,699)"/>
<path d="M0 0 C0.99 0 1.98 0 3 0 C3 5.61 3 11.22 3 17 C-6.24 17 -15.48 17 -25 17 C-25 16.01 -25 15.02 -25 14 C-16.75 14 -8.5 14 0 14 C0 9.38 0 4.76 0 0 Z " fill="#000000" transform="translate(416,829)"/>
<path d="M0 0 C0.99 0 1.98 0 3 0 C3 12.54 3 25.08 3 38 C2.01 38 1.02 38 0 38 C0 25.46 0 12.92 0 0 Z " fill="#000000" transform="translate(402,318)"/>
<path d="M0 0 C1.32 0 2.64 0 4 0 C4 9.24 4 18.48 4 28 C2.68 28 1.36 28 0 28 C0 18.76 0 9.52 0 0 Z " fill="#000000" transform="translate(90,752)"/>
<path d="M0 0 C1.32 0 2.64 0 4 0 C4 9.24 4 18.48 4 28 C2.68 28 1.36 28 0 28 C0 18.76 0 9.52 0 0 Z " fill="#000000" transform="translate(398,290)"/>
<path d="M0 0 C1.32 0 2.64 0 4 0 C4 8.25 4 16.5 4 25 C2.68 25 1.36 25 0 25 C0 16.75 0 8.5 0 0 Z " fill="#000000" transform="translate(202,440)"/>
<path d="M0 0 C10.56 0 21.12 0 32 0 C32 0.99 32 1.98 32 3 C21.44 3 10.88 3 0 3 C0 2.01 0 1.02 0 0 Z " fill="#000000" transform="translate(244,857)"/>
<path d="M0 0 C1.32 0 2.64 0 4 0 C4 7.92 4 15.84 4 24 C2.68 24 1.36 24 0 24 C0 16.08 0 8.16 0 0 Z " fill="#000000" transform="translate(195,199)"/>
<path d="M0 0 C0.99 0 1.98 0 3 0 C3 10.56 3 21.12 3 32 C2.01 32 1.02 32 0 32 C0 21.44 0 10.88 0 0 Z " fill="#000000" transform="translate(192,167)"/>
<path d="M0 0 C7.92 0 15.84 0 24 0 C24 1.32 24 2.64 24 4 C16.08 4 8.16 4 0 4 C0 2.68 0 1.36 0 0 Z " fill="#000000" transform="translate(157,111)"/>
<path d="M0 0 C9.24 0 18.48 0 28 0 C28 2.31 28 4.62 28 7 C27.01 7 26.02 7 25 7 C25 5.68 25 4.36 25 3 C16.75 3 8.5 3 0 3 C0 2.01 0 1.02 0 0 Z " fill="#000000" transform="translate(328,80)"/>
<path d="M0 0 C6.93 0 13.86 0 21 0 C21 1.32 21 2.64 21 4 C14.07 4 7.14 4 0 4 C0 2.68 0 1.36 0 0 Z " fill="#000000" transform="translate(276,853)"/>
<path d="M0 0 C9.24 0 18.48 0 28 0 C28 0.99 28 1.98 28 3 C18.76 3 9.52 3 0 3 C0 2.01 0 1.02 0 0 Z " fill="#000000" transform="translate(297,850)"/>
<path d="M0 0 C6.93 0 13.86 0 21 0 C21 1.32 21 2.64 21 4 C14.07 4 7.14 4 0 4 C0 2.68 0 1.36 0 0 Z " fill="#000000" transform="translate(97,503)"/>
<path d="M0 0 C1.32 0 2.64 0 4 0 C4 6.93 4 13.86 4 21 C2.68 21 1.36 21 0 21 C0 14.07 0 7.14 0 0 Z " fill="#000000" transform="translate(279,423)"/>
<path d="M0 0 C0.99 0 1.98 0 3 0 C3 9.24 3 18.48 3 28 C2.01 28 1.02 28 0 28 C0 18.76 0 9.52 0 0 Z " fill="#000000" transform="translate(276,395)"/>
<path d="M0 0 C1.32 0 2.64 0 4 0 C4 6.93 4 13.86 4 21 C2.68 21 1.36 21 0 21 C0 14.07 0 7.14 0 0 Z " fill="#000000" transform="translate(405,356)"/>
<path d="M0 0 C1.32 0 2.64 0 4 0 C4 6.93 4 13.86 4 21 C2.68 21 1.36 21 0 21 C0 14.07 0 7.14 0 0 Z " fill="#000000" transform="translate(398,248)"/>
<path d="M0 0 C0.99 0 1.98 0 3 0 C3 9.24 3 18.48 3 28 C2.01 28 1.02 28 0 28 C0 18.76 0 9.52 0 0 Z " fill="#000000" transform="translate(80,248)"/>
<path d="M0 0 C1.32 0 2.64 0 4 0 C4 6.93 4 13.86 4 21 C2.68 21 1.36 21 0 21 C0 14.07 0 7.14 0 0 Z " fill="#000000" transform="translate(391,206)"/>
<path d="M0 0 C2.31 0 4.62 0 7 0 C7 1.32 7 2.64 7 4 C5.68 4 4.36 4 3 4 C3 4.99 3 5.98 3 7 C-2.61 7 -8.22 7 -14 7 C-14 6.01 -14 5.02 -14 4 C-9.38 4 -4.76 4 0 4 C0 2.68 0 1.36 0 0 Z " fill="#000000" transform="translate(199,489)"/>
<path d="M0 0 C0.99 0 1.98 0 3 0 C3 8.25 3 16.5 3 25 C2.01 25 1.02 25 0 25 C0 16.75 0 8.5 0 0 Z " fill="#000000" transform="translate(423,790)"/>
<path d="M0 0 C7.92 0 15.84 0 24 0 C24 0.99 24 1.98 24 3 C16.08 3 8.16 3 0 3 C0 2.01 0 1.02 0 0 Z " fill="#000000" transform="translate(220,626)"/>
<path d="M0 0 C5.94 0 11.88 0 18 0 C18 1.32 18 2.64 18 4 C12.06 4 6.12 4 0 4 C0 2.68 0 1.36 0 0 Z " fill="#000000" transform="translate(300,622)"/>
<path d="M0 0 C0.99 0 1.98 0 3 0 C3 2.31 3 4.62 3 7 C7.62 7 12.24 7 17 7 C17 7.99 17 8.98 17 10 C11.39 10 5.78 10 0 10 C0 6.7 0 3.4 0 0 Z " fill="#000000" transform="translate(80,500)"/>
<path d="M0 0 C5.94 0 11.88 0 18 0 C18 1.32 18 2.64 18 4 C12.06 4 6.12 4 0 4 C0 2.68 0 1.36 0 0 Z " fill="#000000" transform="translate(167,496)"/>
<path d="M0 0 C0.99 0 1.98 0 3 0 C3 7.92 3 15.84 3 24 C2.01 24 1.02 24 0 24 C0 16.08 0 8.16 0 0 Z " fill="#000000" transform="translate(206,465)"/>
<path d="M0 0 C1.32 0 2.64 0 4 0 C4 5.94 4 11.88 4 18 C2.68 18 1.36 18 0 18 C0 12.06 0 6.12 0 0 Z " fill="#000000" transform="translate(272,377)"/>
<path d="M0 0 C1.32 0 2.64 0 4 0 C4 5.61 4 11.22 4 17 C2.68 17 1.36 17 0 17 C0 11.39 0 5.78 0 0 Z " fill="#000000" transform="translate(83,668)"/>
<path d="M0 0 C0.99 0 1.98 0 3 0 C3 6.93 3 13.86 3 21 C2.01 21 1.02 21 0 21 C0 14.07 0 7.14 0 0 Z " fill="#000000" transform="translate(416,731)"/>
<path d="M0 0 C0.99 0 1.98 0 3 0 C3 6.93 3 13.86 3 21 C2.01 21 1.02 21 0 21 C0 14.07 0 7.14 0 0 Z " fill="#000000" transform="translate(402,269)"/>
<path d="M0 0 C0.99 0 1.98 0 3 0 C3 6.93 3 13.86 3 21 C2.01 21 1.02 21 0 21 C0 14.07 0 7.14 0 0 Z " fill="#000000" transform="translate(395,227)"/>
<path d="M0 0 C0.99 0 1.98 0 3 0 C3 5.61 3 11.22 3 17 C2.01 17 1.02 17 0 17 C0 14.69 0 12.38 0 10 C-1.32 10 -2.64 10 -4 10 C-4 9.01 -4 8.02 -4 7 C-2.68 7 -1.36 7 0 7 C0 4.69 0 2.38 0 0 Z " fill="#000000" transform="translate(185,101)"/>
<path d="M0 0 C1.32 0 2.64 0 4 0 C4 4.62 4 9.24 4 14 C2.68 14 1.36 14 0 14 C0 9.38 0 4.76 0 0 Z " fill="#000000" transform="translate(419,815)"/>
<path d="M0 0 C1.32 0 2.64 0 4 0 C4 4.62 4 9.24 4 14 C2.68 14 1.36 14 0 14 C0 9.38 0 4.76 0 0 Z " fill="#000000" transform="translate(384,178)"/>
<path d="M0 0 C1.32 0 2.64 0 4 0 C4 4.62 4 9.24 4 14 C2.68 14 1.36 14 0 14 C0 9.38 0 4.76 0 0 Z " fill="#000000" transform="translate(370,118)"/>
<path d="M0 0 C4.62 0 9.24 0 14 0 C14 1.32 14 2.64 14 4 C9.38 4 4.76 4 0 4 C0 2.68 0 1.36 0 0 Z " fill="#000000" transform="translate(314,83)"/>
<path d="M0 0 C5.94 0 11.88 0 18 0 C18 0.99 18 1.98 18 3 C12.06 3 6.12 3 0 3 C0 2.01 0 1.02 0 0 Z " fill="#000000" transform="translate(363,850)"/>
<path d="M0 0 C0.99 0 1.98 0 3 0 C3 5.94 3 11.88 3 18 C2.01 18 1.02 18 0 18 C0 12.06 0 6.12 0 0 Z " fill="#000000" transform="translate(381,160)"/>
<path d="M0 0 C0.99 0 1.98 0 3 0 C3 5.94 3 11.88 3 18 C2.01 18 1.02 18 0 18 C0 12.06 0 6.12 0 0 Z " fill="#000000" transform="translate(374,132)"/>
<path d="M0 0 C5.61 0 11.22 0 17 0 C17 0.99 17 1.98 17 3 C11.39 3 5.78 3 0 3 C0 2.01 0 1.02 0 0 Z " fill="#000000" transform="translate(108,633)"/>
<path d="M0 0 C5.61 0 11.22 0 17 0 C17 0.99 17 1.98 17 3 C11.39 3 5.78 3 0 3 C0 2.01 0 1.02 0 0 Z " fill="#000000" transform="translate(318,626)"/>
<path d="M0 0 C0.99 0 1.98 0 3 0 C3 5.61 3 11.22 3 17 C2.01 17 1.02 17 0 17 C0 11.39 0 5.78 0 0 Z " fill="#000000" transform="translate(269,360)"/>
<path d="M0 0 C0.99 0 1.98 0 3 0 C3 4.62 3 9.24 3 14 C2.01 14 1.02 14 0 14 C0 9.38 0 4.76 0 0 Z " fill="#000000" transform="translate(388,192)"/>
<path d="M0 0 C0.99 0 1.98 0 3 0 C3 4.62 3 9.24 3 14 C2.01 14 1.02 14 0 14 C0 9.38 0 4.76 0 0 Z " fill="#000000" transform="translate(367,104)"/>
<path d="M0 0 C2.31 0 4.62 0 7 0 C7 3.3 7 6.6 7 10 C6.01 10 5.02 10 4 10 C4 7.69 4 5.38 4 3 C2.68 3 1.36 3 0 3 C0 2.01 0 1.02 0 0 Z " fill="#000000" transform="translate(356,87)"/>
<path d="M0 0 C4.62 0 9.24 0 14 0 C14 0.99 14 1.98 14 3 C9.38 3 4.76 3 0 3 C0 2.01 0 1.02 0 0 Z " fill="#000000" transform="translate(300,87)"/>
<path d="M0 0 C3.3 0 6.6 0 10 0 C10 1.32 10 2.64 10 4 C6.7 4 3.4 4 0 4 C0 2.68 0 1.36 0 0 Z " fill="#000000" transform="translate(381,846)"/>
<path d="M0 0 C1.32 0 2.64 0 4 0 C4 3.3 4 6.6 4 10 C2.68 10 1.36 10 0 10 C0 6.7 0 3.4 0 0 Z " fill="#000000" transform="translate(405,640)"/>
<path d="M0 0 C1.32 0 2.64 0 4 0 C4 3.3 4 6.6 4 10 C2.68 10 1.36 10 0 10 C0 6.7 0 3.4 0 0 Z " fill="#000000" transform="translate(377,150)"/>
<path d="M0 0 C3.3 0 6.6 0 10 0 C10 1.32 10 2.64 10 4 C6.7 4 3.4 4 0 4 C0 2.68 0 1.36 0 0 Z " fill="#000000" transform="translate(290,90)"/>
<path d="M0 0 C3.3 0 6.6 0 10 0 C10 0.99 10 1.98 10 3 C6.7 3 3.4 3 0 3 C0 2.01 0 1.02 0 0 Z " fill="#000000" transform="translate(269,101)"/>
<path d="M0 0 C2.31 0 4.62 0 7 0 C7 1.32 7 2.64 7 4 C4.69 4 2.38 4 0 4 C0 2.68 0 1.36 0 0 Z " fill="#000000" transform="translate(244,622)"/>
<path d="M0 0 C1.32 0 2.64 0 4 0 C4 2.31 4 4.62 4 7 C2.68 7 1.36 7 0 7 C0 4.69 0 2.38 0 0 Z " fill="#000000" transform="translate(363,97)"/>
<path d="M0 0 C2.31 0 4.62 0 7 0 C7 0.99 7 1.98 7 3 C4.69 3 2.38 3 0 3 C0 2.01 0 1.02 0 0 Z " fill="#000000" transform="translate(283,94)"/>
</svg>
