<?xml version="1.0" encoding="UTF-8"?>
<svg version="1.1" xmlns="http://www.w3.org/2000/svg" width="540" height="500">
<path d="M0 0 C26.4 0 52.8 0 80 0 C80 2.64 80 5.28 80 8 C82.64 8 85.28 8 88 8 C88 10.64 88 13.28 88 16 C85.36 16 82.72 16 80 16 C80 18.64 80 21.28 80 24 C72.08 24 64.16 24 56 24 C56 34.56 56 45.12 56 56 C69.2 56 82.4 56 96 56 C96 79.76 96 103.52 96 128 C111.84 128 127.68 128 144 128 C144 125.36 144 122.72 144 120 C146.64 120 149.28 120 152 120 C152 117.36 152 114.72 152 112 C154.64 112 157.28 112 160 112 C160 109.36 160 106.72 160 104 C162.64 104 165.28 104 168 104 C168 101.36 168 98.72 168 96 C173.28 96 178.56 96 184 96 C184 98.64 184 101.28 184 104 C191.92 104 199.84 104 208 104 C208 106.64 208 109.28 208 112 C210.64 112 213.28 112 216 112 C216 119.92 216 127.84 216 136 C218.64 136 221.28 136 224 136 C224 146.56 224 157.12 224 168 C221.36 168 218.72 168 216 168 C216 170.64 216 173.28 216 176 C213.36 176 210.72 176 208 176 C208 178.64 208 181.28 208 184 C205.36 184 202.72 184 200 184 C200 186.64 200 189.28 200 192 C197.36 192 194.72 192 192 192 C192 194.64 192 197.28 192 200 C189.36 200 186.72 200 184 200 C184 202.64 184 205.28 184 208 C181.36 208 178.72 208 176 208 C176 210.64 176 213.28 176 216 C173.36 216 170.72 216 168 216 C168 218.64 168 221.28 168 224 C165.36 224 162.72 224 160 224 C160 226.64 160 229.28 160 232 C157.36 232 154.72 232 152 232 C152 234.64 152 237.28 152 240 C149.36 240 146.72 240 144 240 C144 242.64 144 245.28 144 248 C133.44 248 122.88 248 112 248 C112 245.36 112 242.72 112 240 C104.08 240 96.16 240 88 240 C88 242.64 88 245.28 88 248 C82.72 248 77.44 248 72 248 C72 250.64 72 253.28 72 256 C64.08 256 56.16 256 48 256 C48 253.36 48 250.72 48 248 C40.08 248 32.16 248 24 248 C24 245.36 24 242.72 24 240 C18.72 240 13.44 240 8 240 C8 237.36 8 234.72 8 232 C5.36 232 2.72 232 0 232 C0 224.08 0 216.16 0 208 C-2.64 208 -5.28 208 -8 208 C-8 197.44 -8 186.88 -8 176 C-5.36 176 -2.72 176 0 176 C0 170.72 0 165.44 0 160 C-7.92 160 -15.84 160 -24 160 C-24 133.6 -24 107.2 -24 80 C-21.36 80 -18.72 80 -16 80 C-16 77.36 -16 74.72 -16 72 C-13.36 72 -10.72 72 -8 72 C-8 69.36 -8 66.72 -8 64 C-5.36 64 -2.72 64 0 64 C0 61.36 0 58.72 0 56 C7.92 56 15.84 56 24 56 C24 45.44 24 34.88 24 24 C16.08 24 8.16 24 0 24 C0 21.36 0 18.72 0 16 C-2.64 16 -5.28 16 -8 16 C-8 13.36 -8 10.72 -8 8 C-5.36 8 -2.72 8 0 8 C0 5.36 0 2.72 0 0 Z M16 160 C16 162.64 16 165.28 16 168 C18.64 168 21.28 168 24 168 C24 170.64 24 173.28 24 176 C26.64 176 29.28 176 32 176 C32 181.28 32 186.56 32 192 C24.08 192 16.16 192 8 192 C8 194.64 8 197.28 8 200 C13.28 200 18.56 200 24 200 C24 202.64 24 205.28 24 208 C26.64 208 29.28 208 32 208 C32 210.64 32 213.28 32 216 C29.36 216 26.72 216 24 216 C24 221.28 24 226.56 24 232 C26.64 232 29.28 232 32 232 C32 229.36 32 226.72 32 224 C34.64 224 37.28 224 40 224 C40 221.36 40 218.72 40 216 C42.64 216 45.28 216 48 216 C48 218.64 48 221.28 48 224 C50.64 224 53.28 224 56 224 C56 229.28 56 234.56 56 240 C61.28 240 66.56 240 72 240 C72 237.36 72 234.72 72 232 C74.64 232 77.28 232 80 232 C80 224.08 80 216.16 80 208 C77.36 208 74.72 208 72 208 C72 202.72 72 197.44 72 192 C74.64 192 77.28 192 80 192 C80 189.36 80 186.72 80 184 C82.64 184 85.28 184 88 184 C88 181.36 88 178.72 88 176 C90.64 176 93.28 176 96 176 C96 173.36 96 170.72 96 168 C98.64 168 101.28 168 104 168 C104 165.36 104 162.72 104 160 C74.96 160 45.92 160 16 160 Z M8 176 C8 178.64 8 181.28 8 184 C10.64 184 13.28 184 16 184 C16 181.36 16 178.72 16 176 C13.36 176 10.72 176 8 176 Z M8 208 C8 210.64 8 213.28 8 216 C10.64 216 13.28 216 16 216 C16 213.36 16 210.72 16 208 C13.36 208 10.72 208 8 208 Z M40 232 C40 234.64 40 237.28 40 240 C42.64 240 45.28 240 48 240 C48 237.36 48 234.72 48 232 C45.36 232 42.72 232 40 232 Z " fill="#808000" transform="translate(166,122)"/>
<path d="M0 0 C2.64 0 5.28 0 8 0 C8 5.28 8 10.56 8 16 C26.48 16 44.96 16 64 16 C64 18.64 64 21.28 64 24 C45.52 24 27.04 24 8 24 C8 26.64 8 29.28 8 32 C10.64 32 13.28 32 16 32 C16 34.64 16 37.28 16 40 C18.64 40 21.28 40 24 40 C24 45.28 24 50.56 24 56 C16.08 56 8.16 56 0 56 C0 58.64 0 61.28 0 64 C5.28 64 10.56 64 16 64 C16 66.64 16 69.28 16 72 C18.64 72 21.28 72 24 72 C24 74.64 24 77.28 24 80 C21.36 80 18.72 80 16 80 C16 85.28 16 90.56 16 96 C18.64 96 21.28 96 24 96 C24 93.36 24 90.72 24 88 C26.64 88 29.28 88 32 88 C32 85.36 32 82.72 32 80 C34.64 80 37.28 80 40 80 C40 82.64 40 85.28 40 88 C42.64 88 45.28 88 48 88 C48 93.28 48 98.56 48 104 C53.28 104 58.56 104 64 104 C64 101.36 64 98.72 64 96 C66.64 96 69.28 96 72 96 C72 88.08 72 80.16 72 72 C69.36 72 66.72 72 64 72 C64 66.72 64 61.44 64 56 C66.64 56 69.28 56 72 56 C72 53.36 72 50.72 72 48 C74.64 48 77.28 48 80 48 C80 45.36 80 42.72 80 40 C82.64 40 85.28 40 88 40 C88 37.36 88 34.72 88 32 C90.64 32 93.28 32 96 32 C96 29.36 96 26.72 96 24 C98.64 24 101.28 24 104 24 C104 21.36 104 18.72 104 16 C117.2 16 130.4 16 144 16 C144 18.64 144 21.28 144 24 C146.64 24 149.28 24 152 24 C152 26.64 152 29.28 152 32 C154.64 32 157.28 32 160 32 C160 39.92 160 47.84 160 56 C162.64 56 165.28 56 168 56 C168 58.64 168 61.28 168 64 C165.36 64 162.72 64 160 64 C160 66.64 160 69.28 160 72 C157.36 72 154.72 72 152 72 C152 74.64 152 77.28 152 80 C149.36 80 146.72 80 144 80 C144 82.64 144 85.28 144 88 C141.36 88 138.72 88 136 88 C136 90.64 136 93.28 136 96 C133.36 96 130.72 96 128 96 C128 98.64 128 101.28 128 104 C125.36 104 122.72 104 120 104 C120 106.64 120 109.28 120 112 C114.72 112 109.44 112 104 112 C104 109.36 104 106.72 104 104 C96.08 104 88.16 104 80 104 C80 106.64 80 109.28 80 112 C74.72 112 69.44 112 64 112 C64 114.64 64 117.28 64 120 C56.08 120 48.16 120 40 120 C40 117.36 40 114.72 40 112 C32.08 112 24.16 112 16 112 C16 109.36 16 106.72 16 104 C10.72 104 5.44 104 0 104 C0 101.36 0 98.72 0 96 C-2.64 96 -5.28 96 -8 96 C-8 88.08 -8 80.16 -8 72 C-10.64 72 -13.28 72 -16 72 C-16 61.44 -16 50.88 -16 40 C-13.36 40 -10.72 40 -8 40 C-8 34.72 -8 29.44 -8 24 C-15.92 24 -23.84 24 -32 24 C-32 21.36 -32 18.72 -32 16 C-21.44 16 -10.88 16 0 16 C0 10.72 0 5.44 0 0 Z M0 40 C0 42.64 0 45.28 0 48 C2.64 48 5.28 48 8 48 C8 45.36 8 42.72 8 40 C5.36 40 2.72 40 0 40 Z M0 72 C0 74.64 0 77.28 0 80 C2.64 80 5.28 80 8 80 C8 77.36 8 74.72 8 72 C5.36 72 2.72 72 0 72 Z M32 96 C32 98.64 32 101.28 32 104 C34.64 104 37.28 104 40 104 C40 101.36 40 98.72 40 96 C37.36 96 34.72 96 32 96 Z " fill="#000000" transform="translate(174,258)"/>
<path d="M0 0 C5.28 0 10.56 0 16 0 C16 2.64 16 5.28 16 8 C23.92 8 31.84 8 40 8 C40 10.64 40 13.28 40 16 C42.64 16 45.28 16 48 16 C48 23.92 48 31.84 48 40 C50.64 40 53.28 40 56 40 C56 50.56 56 61.12 56 72 C53.36 72 50.72 72 48 72 C48 74.64 48 77.28 48 80 C45.36 80 42.72 80 40 80 C40 82.64 40 85.28 40 88 C37.36 88 34.72 88 32 88 C32 90.64 32 93.28 32 96 C29.36 96 26.72 96 24 96 C24 98.64 24 101.28 24 104 C21.36 104 18.72 104 16 104 C16 106.64 16 109.28 16 112 C13.36 112 10.72 112 8 112 C8 114.64 8 117.28 8 120 C5.36 120 2.72 120 0 120 C0 122.64 0 125.28 0 128 C-2.64 128 -5.28 128 -8 128 C-8 130.64 -8 133.28 -8 136 C-10.64 136 -13.28 136 -16 136 C-16 138.64 -16 141.28 -16 144 C-18.64 144 -21.28 144 -24 144 C-24 146.64 -24 149.28 -24 152 C-29.28 152 -34.56 152 -40 152 C-40 149.36 -40 146.72 -40 144 C-37.36 144 -34.72 144 -32 144 C-32 141.36 -32 138.72 -32 136 C-29.36 136 -26.72 136 -24 136 C-24 133.36 -24 130.72 -24 128 C-21.36 128 -18.72 128 -16 128 C-16 125.36 -16 122.72 -16 120 C-13.36 120 -10.72 120 -8 120 C-8 117.36 -8 114.72 -8 112 C-5.36 112 -2.72 112 0 112 C0 109.36 0 106.72 0 104 C2.64 104 5.28 104 8 104 C8 101.36 8 98.72 8 96 C5.36 96 2.72 96 0 96 C0 88.08 0 80.16 0 72 C-2.64 72 -5.28 72 -8 72 C-8 69.36 -8 66.72 -8 64 C-10.64 64 -13.28 64 -16 64 C-16 61.36 -16 58.72 -16 56 C-29.2 56 -42.4 56 -56 56 C-56 58.64 -56 61.28 -56 64 C-69.2 64 -82.4 64 -96 64 C-96 61.36 -96 58.72 -96 56 C-93.36 56 -90.72 56 -88 56 C-88 53.36 -88 50.72 -88 48 C-85.36 48 -82.72 48 -80 48 C-80 45.36 -80 42.72 -80 40 C-77.36 40 -74.72 40 -72 40 C-72 37.36 -72 34.72 -72 32 C-56.16 32 -40.32 32 -24 32 C-24 29.36 -24 26.72 -24 24 C-21.36 24 -18.72 24 -16 24 C-16 21.36 -16 18.72 -16 16 C-13.36 16 -10.72 16 -8 16 C-8 13.36 -8 10.72 -8 8 C-5.36 8 -2.72 8 0 8 C0 5.36 0 2.72 0 0 Z " fill="#C0C0C0" transform="translate(334,218)"/>
<path d="M0 0 C10.56 0 21.12 0 32 0 C32 2.64 32 5.28 32 8 C50.48 8 68.96 8 88 8 C88 10.64 88 13.28 88 16 C85.36 16 82.72 16 80 16 C80 18.64 80 21.28 80 24 C77.36 24 74.72 24 72 24 C72 42.48 72 60.96 72 80 C56.16 80 40.32 80 24 80 C24 77.36 24 74.72 24 72 C21.36 72 18.72 72 16 72 C16 77.28 16 82.56 16 88 C5.44 88 -5.12 88 -16 88 C-16 64.24 -16 40.48 -16 16 C-13.36 16 -10.72 16 -8 16 C-8 13.36 -8 10.72 -8 8 C-5.36 8 -2.72 8 0 8 C0 5.36 0 2.72 0 0 Z " fill="#C0C0C0" transform="translate(158,186)"/>
<path d="M0 0 C2.64 0 5.28 0 8 0 C8 5.28 8 10.56 8 16 C26.48 16 44.96 16 64 16 C64 18.64 64 21.28 64 24 C45.52 24 27.04 24 8 24 C8 26.64 8 29.28 8 32 C10.64 32 13.28 32 16 32 C16 34.64 16 37.28 16 40 C18.64 40 21.28 40 24 40 C24 45.28 24 50.56 24 56 C16.08 56 8.16 56 0 56 C0 58.64 0 61.28 0 64 C5.28 64 10.56 64 16 64 C16 66.64 16 69.28 16 72 C18.64 72 21.28 72 24 72 C24 74.64 24 77.28 24 80 C21.36 80 18.72 80 16 80 C16 85.28 16 90.56 16 96 C18.64 96 21.28 96 24 96 C24 93.36 24 90.72 24 88 C26.64 88 29.28 88 32 88 C32 85.36 32 82.72 32 80 C34.64 80 37.28 80 40 80 C40 82.64 40 85.28 40 88 C42.64 88 45.28 88 48 88 C48 93.28 48 98.56 48 104 C53.28 104 58.56 104 64 104 C64 101.36 64 98.72 64 96 C66.64 96 69.28 96 72 96 C72 90.72 72 85.44 72 80 C79.92 80 87.84 80 96 80 C96 85.28 96 90.56 96 96 C90.72 96 85.44 96 80 96 C80 101.28 80 106.56 80 112 C74.72 112 69.44 112 64 112 C64 114.64 64 117.28 64 120 C56.08 120 48.16 120 40 120 C40 117.36 40 114.72 40 112 C32.08 112 24.16 112 16 112 C16 109.36 16 106.72 16 104 C10.72 104 5.44 104 0 104 C0 101.36 0 98.72 0 96 C-2.64 96 -5.28 96 -8 96 C-8 88.08 -8 80.16 -8 72 C-10.64 72 -13.28 72 -16 72 C-16 61.44 -16 50.88 -16 40 C-13.36 40 -10.72 40 -8 40 C-8 34.72 -8 29.44 -8 24 C-15.92 24 -23.84 24 -32 24 C-32 21.36 -32 18.72 -32 16 C-21.44 16 -10.88 16 0 16 C0 10.72 0 5.44 0 0 Z M0 40 C0 42.64 0 45.28 0 48 C2.64 48 5.28 48 8 48 C8 45.36 8 42.72 8 40 C5.36 40 2.72 40 0 40 Z M0 72 C0 74.64 0 77.28 0 80 C2.64 80 5.28 80 8 80 C8 77.36 8 74.72 8 72 C5.36 72 2.72 72 0 72 Z M32 96 C32 98.64 32 101.28 32 104 C34.64 104 37.28 104 40 104 C40 101.36 40 98.72 40 96 C37.36 96 34.72 96 32 96 Z " fill="#000000" transform="translate(174,258)"/>
<path d="M0 0 C5.28 0 10.56 0 16 0 C16 2.64 16 5.28 16 8 C23.92 8 31.84 8 40 8 C40 10.64 40 13.28 40 16 C42.64 16 45.28 16 48 16 C48 23.92 48 31.84 48 40 C50.64 40 53.28 40 56 40 C56 45.28 56 50.56 56 56 C53.36 56 50.72 56 48 56 C48 58.64 48 61.28 48 64 C45.36 64 42.72 64 40 64 C40 66.64 40 69.28 40 72 C37.36 72 34.72 72 32 72 C32 74.64 32 77.28 32 80 C29.36 80 26.72 80 24 80 C24 82.64 24 85.28 24 88 C21.36 88 18.72 88 16 88 C16 82.72 16 77.44 16 72 C13.36 72 10.72 72 8 72 C8 66.72 8 61.44 8 56 C5.36 56 2.72 56 0 56 C0 53.36 0 50.72 0 48 C-5.28 48 -10.56 48 -16 48 C-16 45.36 -16 42.72 -16 40 C-18.64 40 -21.28 40 -24 40 C-24 34.72 -24 29.44 -24 24 C-21.36 24 -18.72 24 -16 24 C-16 21.36 -16 18.72 -16 16 C-13.36 16 -10.72 16 -8 16 C-8 13.36 -8 10.72 -8 8 C-5.36 8 -2.72 8 0 8 C0 5.36 0 2.72 0 0 Z " fill="#FF0000" transform="translate(334,218)"/>
<path d="M0 0 C13.2 0 26.4 0 40 0 C40 26.4 40 52.8 40 80 C37.36 80 34.72 80 32 80 C32 82.64 32 85.28 32 88 C29.36 88 26.72 88 24 88 C24 90.64 24 93.28 24 96 C2.88 96 -18.24 96 -40 96 C-40 93.36 -40 90.72 -40 88 C-24.16 88 -8.32 88 8 88 C8 69.52 8 51.04 8 32 C10.64 32 13.28 32 16 32 C16 29.36 16 26.72 16 24 C18.64 24 21.28 24 24 24 C24 21.36 24 18.72 24 16 C16.08 16 8.16 16 0 16 C0 10.72 0 5.44 0 0 Z " fill="#808080" transform="translate(222,178)"/>
<path d="M0 0 C13.2 0 26.4 0 40 0 C40 10.56 40 21.12 40 32 C34.72 32 29.44 32 24 32 C24 26.72 24 21.44 24 16 C21.36 16 18.72 16 16 16 C16 18.64 16 21.28 16 24 C10.72 24 5.44 24 0 24 C0 29.28 0 34.56 0 40 C-5.28 40 -10.56 40 -16 40 C-16 45.28 -16 50.56 -16 56 C-23.92 56 -31.84 56 -40 56 C-40 50.72 -40 45.44 -40 40 C-37.36 40 -34.72 40 -32 40 C-32 37.36 -32 34.72 -32 32 C-29.36 32 -26.72 32 -24 32 C-24 29.36 -24 26.72 -24 24 C-21.36 24 -18.72 24 -16 24 C-16 21.36 -16 18.72 -16 16 C-13.36 16 -10.72 16 -8 16 C-8 13.36 -8 10.72 -8 8 C-5.36 8 -2.72 8 0 8 C0 5.36 0 2.72 0 0 Z " fill="#FF0000" transform="translate(278,274)"/>
<path d="M0 0 C2.64 0 5.28 0 8 0 C8 7.92 8 15.84 8 24 C10.64 24 13.28 24 16 24 C16 29.28 16 34.56 16 40 C13.36 40 10.72 40 8 40 C8 42.64 8 45.28 8 48 C5.36 48 2.72 48 0 48 C0 50.64 0 53.28 0 56 C-2.64 56 -5.28 56 -8 56 C-8 58.64 -8 61.28 -8 64 C-10.64 64 -13.28 64 -16 64 C-16 66.64 -16 69.28 -16 72 C-18.64 72 -21.28 72 -24 72 C-24 66.72 -24 61.44 -24 56 C-26.64 56 -29.28 56 -32 56 C-32 50.72 -32 45.44 -32 40 C-34.64 40 -37.28 40 -40 40 C-40 37.36 -40 34.72 -40 32 C-32.08 32 -24.16 32 -16 32 C-16 26.72 -16 21.44 -16 16 C-13.36 16 -10.72 16 -8 16 C-8 13.36 -8 10.72 -8 8 C-5.36 8 -2.72 8 0 8 C0 5.36 0 2.72 0 0 Z " fill="#FF0000" transform="translate(374,234)"/>
<path d="M0 0 C2.64 0 5.28 0 8 0 C8 5.28 8 10.56 8 16 C26.48 16 44.96 16 64 16 C64 18.64 64 21.28 64 24 C45.52 24 27.04 24 8 24 C8 26.64 8 29.28 8 32 C10.64 32 13.28 32 16 32 C16 34.64 16 37.28 16 40 C18.64 40 21.28 40 24 40 C24 45.28 24 50.56 24 56 C16.08 56 8.16 56 0 56 C0 53.36 0 50.72 0 48 C-2.64 48 -5.28 48 -8 48 C-8 55.92 -8 63.84 -8 72 C-10.64 72 -13.28 72 -16 72 C-16 61.44 -16 50.88 -16 40 C-13.36 40 -10.72 40 -8 40 C-8 34.72 -8 29.44 -8 24 C-15.92 24 -23.84 24 -32 24 C-32 21.36 -32 18.72 -32 16 C-21.44 16 -10.88 16 0 16 C0 10.72 0 5.44 0 0 Z M0 40 C0 42.64 0 45.28 0 48 C2.64 48 5.28 48 8 48 C8 45.36 8 42.72 8 40 C5.36 40 2.72 40 0 40 Z " fill="#000000" transform="translate(174,258)"/>
<path d="M0 0 C10.56 0 21.12 0 32 0 C32 2.64 32 5.28 32 8 C50.48 8 68.96 8 88 8 C88 10.64 88 13.28 88 16 C85.36 16 82.72 16 80 16 C80 18.64 80 21.28 80 24 C50.96 24 21.92 24 -8 24 C-8 18.72 -8 13.44 -8 8 C-5.36 8 -2.72 8 0 8 C0 5.36 0 2.72 0 0 Z " fill="#C0C0C0" transform="translate(158,186)"/>
<path d="M0 0 C2.64 0 5.28 0 8 0 C8 5.28 8 10.56 8 16 C5.36 16 2.72 16 0 16 C0 18.64 0 21.28 0 24 C-2.64 24 -5.28 24 -8 24 C-8 26.64 -8 29.28 -8 32 C-10.64 32 -13.28 32 -16 32 C-16 34.64 -16 37.28 -16 40 C-18.64 40 -21.28 40 -24 40 C-24 42.64 -24 45.28 -24 48 C-26.64 48 -29.28 48 -32 48 C-32 50.64 -32 53.28 -32 56 C-34.64 56 -37.28 56 -40 56 C-40 58.64 -40 61.28 -40 64 C-42.64 64 -45.28 64 -48 64 C-48 66.64 -48 69.28 -48 72 C-50.64 72 -53.28 72 -56 72 C-56 74.64 -56 77.28 -56 80 C-58.64 80 -61.28 80 -64 80 C-64 82.64 -64 85.28 -64 88 C-66.64 88 -69.28 88 -72 88 C-72 90.64 -72 93.28 -72 96 C-77.28 96 -82.56 96 -88 96 C-88 93.36 -88 90.72 -88 88 C-85.36 88 -82.72 88 -80 88 C-80 85.36 -80 82.72 -80 80 C-77.36 80 -74.72 80 -72 80 C-72 77.36 -72 74.72 -72 72 C-69.36 72 -66.72 72 -64 72 C-64 69.36 -64 66.72 -64 64 C-61.36 64 -58.72 64 -56 64 C-56 61.36 -56 58.72 -56 56 C-53.36 56 -50.72 56 -48 56 C-48 53.36 -48 50.72 -48 48 C-45.36 48 -42.72 48 -40 48 C-40 45.36 -40 42.72 -40 40 C-37.36 40 -34.72 40 -32 40 C-32 37.36 -32 34.72 -32 32 C-29.36 32 -26.72 32 -24 32 C-24 29.36 -24 26.72 -24 24 C-21.36 24 -18.72 24 -16 24 C-16 21.36 -16 18.72 -16 16 C-13.36 16 -10.72 16 -8 16 C-8 13.36 -8 10.72 -8 8 C-5.36 8 -2.72 8 0 8 C0 5.36 0 2.72 0 0 Z " fill="#C0C0C0" transform="translate(382,274)"/>
<path d="M0 0 C21.12 0 42.24 0 64 0 C64 2.64 64 5.28 64 8 C56.08 8 48.16 8 40 8 C40 23.84 40 39.68 40 56 C34.72 56 29.44 56 24 56 C24 40.16 24 24.32 24 8 C16.08 8 8.16 8 0 8 C0 5.36 0 2.72 0 0 Z " fill="#FFFF00" transform="translate(174,130)"/>
<path d="M0 0 C7.92 0 15.84 0 24 0 C24 5.28 24 10.56 24 16 C18.72 16 13.44 16 8 16 C8 21.28 8 26.56 8 32 C2.72 32 -2.56 32 -8 32 C-8 34.64 -8 37.28 -8 40 C-15.92 40 -23.84 40 -32 40 C-32 34.72 -32 29.44 -32 24 C-24.08 24 -16.16 24 -8 24 C-8 21.36 -8 18.72 -8 16 C-5.36 16 -2.72 16 0 16 C0 10.72 0 5.44 0 0 Z " fill="#800000" transform="translate(246,338)"/>
<path d="M0 0 C10.56 0 21.12 0 32 0 C32 2.64 32 5.28 32 8 C29.36 8 26.72 8 24 8 C24 10.64 24 13.28 24 16 C21.36 16 18.72 16 16 16 C16 18.64 16 21.28 16 24 C13.36 24 10.72 24 8 24 C8 26.64 8 29.28 8 32 C0.08 32 -7.84 32 -16 32 C-16 26.72 -16 21.44 -16 16 C-10.72 16 -5.44 16 0 16 C0 10.72 0 5.44 0 0 Z " fill="#FF0000" transform="translate(310,314)"/>
<path d="M0 0 C7.92 0 15.84 0 24 0 C24 5.28 24 10.56 24 16 C18.72 16 13.44 16 8 16 C8 21.28 8 26.56 8 32 C0.08 32 -7.84 32 -16 32 C-16 26.72 -16 21.44 -16 16 C-13.36 16 -10.72 16 -8 16 C-8 13.36 -8 10.72 -8 8 C-5.36 8 -2.72 8 0 8 C0 5.36 0 2.72 0 0 Z " fill="#FF0000" transform="translate(254,298)"/>
<path d="M0 0 C10.56 0 21.12 0 32 0 C32 2.64 32 5.28 32 8 C24.08 8 16.16 8 8 8 C8 23.84 8 39.68 8 56 C-2.56 56 -13.12 56 -24 56 C-24 53.36 -24 50.72 -24 48 C-16.08 48 -8.16 48 0 48 C0 32.16 0 16.32 0 0 Z " fill="#000000" transform="translate(214,138)"/>
<path d="M0 0 C2.64 0 5.28 0 8 0 C8 2.64 8 5.28 8 8 C10.64 8 13.28 8 16 8 C16 13.28 16 18.56 16 24 C13.36 24 10.72 24 8 24 C8 26.64 8 29.28 8 32 C0.08 32 -7.84 32 -16 32 C-16 29.36 -16 26.72 -16 24 C-21.28 24 -26.56 24 -32 24 C-32 21.36 -32 18.72 -32 16 C-24.08 16 -16.16 16 -8 16 C-8 13.36 -8 10.72 -8 8 C-5.36 8 -2.72 8 0 8 C0 5.36 0 2.72 0 0 Z M0 16 C0 18.64 0 21.28 0 24 C2.64 24 5.28 24 8 24 C8 21.36 8 18.72 8 16 C5.36 16 2.72 16 0 16 Z " fill="#000000" transform="translate(206,338)"/>
<path d="M0 0 C2.64 0 5.28 0 8 0 C8 5.28 8 10.56 8 16 C2.72 16 -2.56 16 -8 16 C-8 21.28 -8 26.56 -8 32 C-13.28 32 -18.56 32 -24 32 C-24 37.28 -24 42.56 -24 48 C-31.92 48 -39.84 48 -48 48 C-48 45.36 -48 42.72 -48 40 C-42.72 40 -37.44 40 -32 40 C-32 34.72 -32 29.44 -32 24 C-26.72 24 -21.44 24 -16 24 C-16 18.72 -16 13.44 -16 8 C-10.72 8 -5.44 8 0 8 C0 5.36 0 2.72 0 0 Z " fill="#000000" transform="translate(294,290)"/>
<path d="M0 0 C2.64 0 5.28 0 8 0 C8 2.64 8 5.28 8 8 C10.64 8 13.28 8 16 8 C16 13.28 16 18.56 16 24 C18.64 24 21.28 24 24 24 C24 31.92 24 39.84 24 48 C18.72 48 13.44 48 8 48 C8 40.08 8 32.16 8 24 C5.36 24 2.72 24 0 24 C0 21.36 0 18.72 0 16 C-2.64 16 -5.28 16 -8 16 C-8 13.36 -8 10.72 -8 8 C-5.36 8 -2.72 8 0 8 C0 5.36 0 2.72 0 0 Z " fill="#808080" transform="translate(326,266)"/>
<path d="M0 0 C2.64 0 5.28 0 8 0 C8 21.12 8 42.24 8 64 C15.92 64 23.84 64 32 64 C32 66.64 32 69.28 32 72 C21.44 72 10.88 72 0 72 C0 48.24 0 24.48 0 0 Z " fill="#808080" transform="translate(142,202)"/>
<path d="M0 0 C29.04 0 58.08 0 88 0 C88 2.64 88 5.28 88 8 C58.96 8 29.92 8 0 8 C0 5.36 0 2.72 0 0 Z " fill="#FFFFFF" transform="translate(150,202)"/>
<path d="M0 0 C10.56 0 21.12 0 32 0 C32 2.64 32 5.28 32 8 C29.36 8 26.72 8 24 8 C24 10.64 24 13.28 24 16 C21.36 16 18.72 16 16 16 C16 18.64 16 21.28 16 24 C10.72 24 5.44 24 0 24 C0 16.08 0 8.16 0 0 Z " fill="#800000" transform="translate(278,346)"/>
<path d="M0 0 C5.28 0 10.56 0 16 0 C16 2.64 16 5.28 16 8 C13.36 8 10.72 8 8 8 C8 10.64 8 13.28 8 16 C5.36 16 2.72 16 0 16 C0 21.28 0 26.56 0 32 C-7.92 32 -15.84 32 -24 32 C-24 29.36 -24 26.72 -24 24 C-21.36 24 -18.72 24 -16 24 C-16 21.36 -16 18.72 -16 16 C-13.36 16 -10.72 16 -8 16 C-8 13.36 -8 10.72 -8 8 C-5.36 8 -2.72 8 0 8 C0 5.36 0 2.72 0 0 Z " fill="#FF0000" transform="translate(358,234)"/>
<path d="M0 0 C2.64 0 5.28 0 8 0 C8 23.76 8 47.52 8 72 C5.36 72 2.72 72 0 72 C0 48.24 0 24.48 0 0 Z " fill="#000000" transform="translate(254,186)"/>
<path d="M0 0 C13.2 0 26.4 0 40 0 C40 2.64 40 5.28 40 8 C37.36 8 34.72 8 32 8 C32 10.64 32 13.28 32 16 C21.44 16 10.88 16 0 16 C0 10.72 0 5.44 0 0 Z " fill="#808080" transform="translate(222,178)"/>
<path d="M0 0 C2.64 0 5.28 0 8 0 C8 13.2 8 26.4 8 40 C-2.56 40 -13.12 40 -24 40 C-24 37.36 -24 34.72 -24 32 C-16.08 32 -8.16 32 0 32 C0 21.44 0 10.88 0 0 Z " fill="#808000" transform="translate(190,146)"/>
<path d="M0 0 C2.64 0 5.28 0 8 0 C8 7.92 8 15.84 8 24 C2.72 24 -2.56 24 -8 24 C-8 26.64 -8 29.28 -8 32 C-10.64 32 -13.28 32 -16 32 C-16 26.72 -16 21.44 -16 16 C-13.36 16 -10.72 16 -8 16 C-8 13.36 -8 10.72 -8 8 C-5.36 8 -2.72 8 0 8 C0 5.36 0 2.72 0 0 Z " fill="#800000" transform="translate(374,234)"/>
<path d="M0 0 C2.64 0 5.28 0 8 0 C8 15.84 8 31.68 8 48 C5.36 48 2.72 48 0 48 C0 32.16 0 16.32 0 0 Z " fill="#808000" transform="translate(206,138)"/>
<path d="M0 0 C2.64 0 5.28 0 8 0 C8 7.92 8 15.84 8 24 C2.72 24 -2.56 24 -8 24 C-8 18.72 -8 13.44 -8 8 C-5.36 8 -2.72 8 0 8 C0 5.36 0 2.72 0 0 Z " fill="#FF0000" transform="translate(310,282)"/>
<path d="M0 0 C7.92 0 15.84 0 24 0 C24 2.64 24 5.28 24 8 C21.36 8 18.72 8 16 8 C16 13.28 16 18.56 16 24 C13.36 24 10.72 24 8 24 C8 18.72 8 13.44 8 8 C5.36 8 2.72 8 0 8 C0 5.36 0 2.72 0 0 Z " fill="#800000" transform="translate(334,266)"/>
<path d="M0 0 C5.28 0 10.56 0 16 0 C16 5.28 16 10.56 16 16 C13.36 16 10.72 16 8 16 C8 18.64 8 21.28 8 24 C5.36 24 2.72 24 0 24 C0 16.08 0 8.16 0 0 Z " fill="#808080" transform="translate(182,234)"/>
<path d="M0 0 C5.28 0 10.56 0 16 0 C16 5.28 16 10.56 16 16 C10.72 16 5.44 16 0 16 C0 10.72 0 5.44 0 0 Z " fill="#800000" transform="translate(294,330)"/>
<path d="M0 0 C5.28 0 10.56 0 16 0 C16 5.28 16 10.56 16 16 C10.72 16 5.44 16 0 16 C0 10.72 0 5.44 0 0 Z " fill="#800000" transform="translate(270,322)"/>
<path d="M0 0 C5.28 0 10.56 0 16 0 C16 2.64 16 5.28 16 8 C18.64 8 21.28 8 24 8 C24 10.64 24 13.28 24 16 C18.72 16 13.44 16 8 16 C8 13.36 8 10.72 8 8 C5.36 8 2.72 8 0 8 C0 5.36 0 2.72 0 0 Z " fill="#000000" transform="translate(174,322)"/>
<path d="M0 0 C5.28 0 10.56 0 16 0 C16 5.28 16 10.56 16 16 C10.72 16 5.44 16 0 16 C0 10.72 0 5.44 0 0 Z " fill="#FF0000" transform="translate(286,306)"/>
<path d="M0 0 C5.28 0 10.56 0 16 0 C16 5.28 16 10.56 16 16 C10.72 16 5.44 16 0 16 C0 10.72 0 5.44 0 0 Z " fill="#FF0000" transform="translate(262,298)"/>
<path d="M0 0 C7.92 0 15.84 0 24 0 C24 2.64 24 5.28 24 8 C21.36 8 18.72 8 16 8 C16 10.64 16 13.28 16 16 C13.36 16 10.72 16 8 16 C8 13.36 8 10.72 8 8 C5.36 8 2.72 8 0 8 C0 5.36 0 2.72 0 0 Z " fill="#000000" transform="translate(294,274)"/>
<path d="M0 0 C2.64 0 5.28 0 8 0 C8 2.64 8 5.28 8 8 C10.64 8 13.28 8 16 8 C16 10.64 16 13.28 16 16 C8.08 16 0.16 16 -8 16 C-8 13.36 -8 10.72 -8 8 C-5.36 8 -2.72 8 0 8 C0 5.36 0 2.72 0 0 Z " fill="#C0C0C0" transform="translate(310,258)"/>
<path d="M0 0 C7.92 0 15.84 0 24 0 C24 2.64 24 5.28 24 8 C18.72 8 13.44 8 8 8 C8 10.64 8 13.28 8 16 C5.36 16 2.72 16 0 16 C0 10.72 0 5.44 0 0 Z " fill="#800000" transform="translate(350,226)"/>
<path d="M0 0 C10.56 0 21.12 0 32 0 C32 2.64 32 5.28 32 8 C21.44 8 10.88 8 0 8 C0 5.36 0 2.72 0 0 Z " fill="#000000" transform="translate(166,138)"/>
<path d="M0 0 C7.92 0 15.84 0 24 0 C24 2.64 24 5.28 24 8 C16.08 8 8.16 8 0 8 C0 5.36 0 2.72 0 0 Z " fill="#000000" transform="translate(214,370)"/>
<path d="M0 0 C7.92 0 15.84 0 24 0 C24 2.64 24 5.28 24 8 C16.08 8 8.16 8 0 8 C0 5.36 0 2.72 0 0 Z " fill="#C0C0C0" transform="translate(214,362)"/>
<path d="M0 0 C5.28 0 10.56 0 16 0 C16 2.64 16 5.28 16 8 C13.36 8 10.72 8 8 8 C8 10.64 8 13.28 8 16 C5.36 16 2.72 16 0 16 C0 10.72 0 5.44 0 0 Z " fill="#000000" transform="translate(294,346)"/>
<path d="M0 0 C5.28 0 10.56 0 16 0 C16 2.64 16 5.28 16 8 C13.36 8 10.72 8 8 8 C8 10.64 8 13.28 8 16 C5.36 16 2.72 16 0 16 C0 10.72 0 5.44 0 0 Z " fill="#000000" transform="translate(310,330)"/>
<path d="M0 0 C7.92 0 15.84 0 24 0 C24 2.64 24 5.28 24 8 C16.08 8 8.16 8 0 8 C0 5.36 0 2.72 0 0 Z " fill="#800000" transform="translate(310,322)"/>
<path d="M0 0 C2.64 0 5.28 0 8 0 C8 7.92 8 15.84 8 24 C5.36 24 2.72 24 0 24 C0 16.08 0 8.16 0 0 Z " fill="#C0C0C0" transform="translate(166,306)"/>
<path d="M0 0 C2.64 0 5.28 0 8 0 C8 5.28 8 10.56 8 16 C2.72 16 -2.56 16 -8 16 C-8 13.36 -8 10.72 -8 8 C-5.36 8 -2.72 8 0 8 C0 5.36 0 2.72 0 0 Z " fill="#800000" transform="translate(254,298)"/>
<path d="M0 0 C5.28 0 10.56 0 16 0 C16 2.64 16 5.28 16 8 C13.36 8 10.72 8 8 8 C8 10.64 8 13.28 8 16 C5.36 16 2.72 16 0 16 C0 10.72 0 5.44 0 0 Z " fill="#000000" transform="translate(350,290)"/>
<path d="M0 0 C2.64 0 5.28 0 8 0 C8 5.28 8 10.56 8 16 C2.72 16 -2.56 16 -8 16 C-8 13.36 -8 10.72 -8 8 C-5.36 8 -2.72 8 0 8 C0 5.36 0 2.72 0 0 Z " fill="#800000" transform="translate(270,282)"/>
<path d="M0 0 C7.92 0 15.84 0 24 0 C24 2.64 24 5.28 24 8 C16.08 8 8.16 8 0 8 C0 5.36 0 2.72 0 0 Z " fill="#808080" transform="translate(166,178)"/>
<path d="M0 0 C5.28 0 10.56 0 16 0 C16 2.64 16 5.28 16 8 C10.72 8 5.44 8 0 8 C0 5.36 0 2.72 0 0 Z " fill="#000000" transform="translate(278,362)"/>
<path d="M0 0 C5.28 0 10.56 0 16 0 C16 2.64 16 5.28 16 8 C10.72 8 5.44 8 0 8 C0 5.36 0 2.72 0 0 Z " fill="#000000" transform="translate(238,362)"/>
<path d="M0 0 C5.28 0 10.56 0 16 0 C16 2.64 16 5.28 16 8 C10.72 8 5.44 8 0 8 C0 5.36 0 2.72 0 0 Z " fill="#808080" transform="translate(238,354)"/>
<path d="M0 0 C5.28 0 10.56 0 16 0 C16 2.64 16 5.28 16 8 C10.72 8 5.44 8 0 8 C0 5.36 0 2.72 0 0 Z " fill="#000000" transform="translate(174,354)"/>
<path d="M0 0 C5.28 0 10.56 0 16 0 C16 2.64 16 5.28 16 8 C10.72 8 5.44 8 0 8 C0 5.36 0 2.72 0 0 Z " fill="#FF0000" transform="translate(278,346)"/>
<path d="M0 0 C2.64 0 5.28 0 8 0 C8 5.28 8 10.56 8 16 C5.36 16 2.72 16 0 16 C0 10.72 0 5.44 0 0 Z " fill="#000000" transform="translate(214,346)"/>
<path d="M0 0 C2.64 0 5.28 0 8 0 C8 5.28 8 10.56 8 16 C5.36 16 2.72 16 0 16 C0 10.72 0 5.44 0 0 Z " fill="#808080" transform="translate(206,338)"/>
<path d="M0 0 C5.28 0 10.56 0 16 0 C16 2.64 16 5.28 16 8 C10.72 8 5.44 8 0 8 C0 5.36 0 2.72 0 0 Z " fill="#C0C0C0" transform="translate(174,346)"/>
<path d="M0 0 C5.28 0 10.56 0 16 0 C16 2.64 16 5.28 16 8 C10.72 8 5.44 8 0 8 C0 5.36 0 2.72 0 0 Z " fill="#FF0000" transform="translate(254,338)"/>
<path d="M0 0 C5.28 0 10.56 0 16 0 C16 2.64 16 5.28 16 8 C10.72 8 5.44 8 0 8 C0 5.36 0 2.72 0 0 Z " fill="#FF0000" transform="translate(294,330)"/>
<path d="M0 0 C5.28 0 10.56 0 16 0 C16 2.64 16 5.28 16 8 C10.72 8 5.44 8 0 8 C0 5.36 0 2.72 0 0 Z " fill="#FF0000" transform="translate(270,322)"/>
<path d="M0 0 C2.64 0 5.28 0 8 0 C8 5.28 8 10.56 8 16 C5.36 16 2.72 16 0 16 C0 10.72 0 5.44 0 0 Z " fill="#800000" transform="translate(238,314)"/>
<path d="M0 0 C5.28 0 10.56 0 16 0 C16 2.64 16 5.28 16 8 C10.72 8 5.44 8 0 8 C0 5.36 0 2.72 0 0 Z " fill="#000000" transform="translate(174,306)"/>
<path d="M0 0 C2.64 0 5.28 0 8 0 C8 5.28 8 10.56 8 16 C5.36 16 2.72 16 0 16 C0 10.72 0 5.44 0 0 Z " fill="#800000" transform="translate(318,282)"/>
<path d="M0 0 C2.64 0 5.28 0 8 0 C8 5.28 8 10.56 8 16 C5.36 16 2.72 16 0 16 C0 10.72 0 5.44 0 0 Z " fill="#000000" transform="translate(342,274)"/>
<path d="M0 0 C5.28 0 10.56 0 16 0 C16 2.64 16 5.28 16 8 C10.72 8 5.44 8 0 8 C0 5.36 0 2.72 0 0 Z " fill="#800000" transform="translate(278,274)"/>
<path d="M0 0 C2.64 0 5.28 0 8 0 C8 5.28 8 10.56 8 16 C5.36 16 2.72 16 0 16 C0 10.72 0 5.44 0 0 Z " fill="#000000" transform="translate(382,258)"/>
<path d="M0 0 C5.28 0 10.56 0 16 0 C16 2.64 16 5.28 16 8 C10.72 8 5.44 8 0 8 C0 5.36 0 2.72 0 0 Z " fill="#000000" transform="translate(318,258)"/>
<path d="M0 0 C2.64 0 5.28 0 8 0 C8 5.28 8 10.56 8 16 C5.36 16 2.72 16 0 16 C0 10.72 0 5.44 0 0 Z " fill="#000000" transform="translate(182,242)"/>
<path d="M0 0 C2.64 0 5.28 0 8 0 C8 5.28 8 10.56 8 16 C5.36 16 2.72 16 0 16 C0 10.72 0 5.44 0 0 Z " fill="#000000" transform="translate(374,234)"/>
<path d="M0 0 C2.64 0 5.28 0 8 0 C8 5.28 8 10.56 8 16 C5.36 16 2.72 16 0 16 C0 10.72 0 5.44 0 0 Z " fill="#000000" transform="translate(350,226)"/>
<path d="M0 0 C5.28 0 10.56 0 16 0 C16 2.64 16 5.28 16 8 C10.72 8 5.44 8 0 8 C0 5.36 0 2.72 0 0 Z " fill="#800000" transform="translate(334,218)"/>
<path d="M0 0 C2.64 0 5.28 0 8 0 C8 2.64 8 5.28 8 8 C5.36 8 2.72 8 0 8 C0 5.36 0 2.72 0 0 Z " fill="#808080" transform="translate(230,362)"/>
<path d="M0 0 C2.64 0 5.28 0 8 0 C8 2.64 8 5.28 8 8 C5.36 8 2.72 8 0 8 C0 5.36 0 2.72 0 0 Z " fill="#808080" transform="translate(214,362)"/>
<path d="M0 0 C2.64 0 5.28 0 8 0 C8 2.64 8 5.28 8 8 C5.36 8 2.72 8 0 8 C0 5.36 0 2.72 0 0 Z " fill="#C0C0C0" transform="translate(238,354)"/>
<path d="M0 0 C2.64 0 5.28 0 8 0 C8 2.64 8 5.28 8 8 C5.36 8 2.72 8 0 8 C0 5.36 0 2.72 0 0 Z " fill="#C0C0C0" transform="translate(190,354)"/>
<path d="M0 0 C2.64 0 5.28 0 8 0 C8 2.64 8 5.28 8 8 C5.36 8 2.72 8 0 8 C0 5.36 0 2.72 0 0 Z " fill="#808080" transform="translate(174,346)"/>
<path d="M0 0 C2.64 0 5.28 0 8 0 C8 2.64 8 5.28 8 8 C5.36 8 2.72 8 0 8 C0 5.36 0 2.72 0 0 Z " fill="#000000" transform="translate(206,338)"/>
<path d="M0 0 C2.64 0 5.28 0 8 0 C8 2.64 8 5.28 8 8 C5.36 8 2.72 8 0 8 C0 5.36 0 2.72 0 0 Z " fill="#000000" transform="translate(190,330)"/>
<path d="M0 0 C2.64 0 5.28 0 8 0 C8 2.64 8 5.28 8 8 C5.36 8 2.72 8 0 8 C0 5.36 0 2.72 0 0 Z " fill="#808080" transform="translate(182,330)"/>
<path d="M0 0 C2.64 0 5.28 0 8 0 C8 2.64 8 5.28 8 8 C5.36 8 2.72 8 0 8 C0 5.36 0 2.72 0 0 Z " fill="#000000" transform="translate(326,322)"/>
<path d="M0 0 C2.64 0 5.28 0 8 0 C8 2.64 8 5.28 8 8 C5.36 8 2.72 8 0 8 C0 5.36 0 2.72 0 0 Z " fill="#800000" transform="translate(254,322)"/>
<path d="M0 0 C2.64 0 5.28 0 8 0 C8 2.64 8 5.28 8 8 C5.36 8 2.72 8 0 8 C0 5.36 0 2.72 0 0 Z " fill="#808080" transform="translate(166,322)"/>
<path d="M0 0 C2.64 0 5.28 0 8 0 C8 2.64 8 5.28 8 8 C5.36 8 2.72 8 0 8 C0 5.36 0 2.72 0 0 Z " fill="#000000" transform="translate(334,314)"/>
<path d="M0 0 C2.64 0 5.28 0 8 0 C8 2.64 8 5.28 8 8 C5.36 8 2.72 8 0 8 C0 5.36 0 2.72 0 0 Z " fill="#800000" transform="translate(326,314)"/>
<path d="M0 0 C2.64 0 5.28 0 8 0 C8 2.64 8 5.28 8 8 C5.36 8 2.72 8 0 8 C0 5.36 0 2.72 0 0 Z " fill="#800000" transform="translate(294,314)"/>
<path d="M0 0 C2.64 0 5.28 0 8 0 C8 2.64 8 5.28 8 8 C5.36 8 2.72 8 0 8 C0 5.36 0 2.72 0 0 Z " fill="#000000" transform="translate(342,306)"/>
<path d="M0 0 C2.64 0 5.28 0 8 0 C8 2.64 8 5.28 8 8 C5.36 8 2.72 8 0 8 C0 5.36 0 2.72 0 0 Z " fill="#800000" transform="translate(270,306)"/>
<path d="M0 0 C2.64 0 5.28 0 8 0 C8 2.64 8 5.28 8 8 C5.36 8 2.72 8 0 8 C0 5.36 0 2.72 0 0 Z " fill="#C0C0C0" transform="translate(190,306)"/>
<path d="M0 0 C2.64 0 5.28 0 8 0 C8 2.64 8 5.28 8 8 C5.36 8 2.72 8 0 8 C0 5.36 0 2.72 0 0 Z " fill="#808080" transform="translate(166,306)"/>
<path d="M0 0 C2.64 0 5.28 0 8 0 C8 2.64 8 5.28 8 8 C5.36 8 2.72 8 0 8 C0 5.36 0 2.72 0 0 Z " fill="#800000" transform="translate(310,298)"/>
<path d="M0 0 C2.64 0 5.28 0 8 0 C8 2.64 8 5.28 8 8 C5.36 8 2.72 8 0 8 C0 5.36 0 2.72 0 0 Z " fill="#000000" transform="translate(190,298)"/>
<path d="M0 0 C2.64 0 5.28 0 8 0 C8 2.64 8 5.28 8 8 C5.36 8 2.72 8 0 8 C0 5.36 0 2.72 0 0 Z " fill="#808080" transform="translate(182,298)"/>
<path d="M0 0 C2.64 0 5.28 0 8 0 C8 2.64 8 5.28 8 8 C5.36 8 2.72 8 0 8 C0 5.36 0 2.72 0 0 Z " fill="#800000" transform="translate(286,290)"/>
<path d="M0 0 C2.64 0 5.28 0 8 0 C8 2.64 8 5.28 8 8 C5.36 8 2.72 8 0 8 C0 5.36 0 2.72 0 0 Z " fill="#000000" transform="translate(366,282)"/>
<path d="M0 0 C2.64 0 5.28 0 8 0 C8 2.64 8 5.28 8 8 C5.36 8 2.72 8 0 8 C0 5.36 0 2.72 0 0 Z " fill="#800000" transform="translate(358,282)"/>
<path d="M0 0 C2.64 0 5.28 0 8 0 C8 2.64 8 5.28 8 8 C5.36 8 2.72 8 0 8 C0 5.36 0 2.72 0 0 Z " fill="#000000" transform="translate(318,282)"/>
<path d="M0 0 C2.64 0 5.28 0 8 0 C8 2.64 8 5.28 8 8 C5.36 8 2.72 8 0 8 C0 5.36 0 2.72 0 0 Z " fill="#808080" transform="translate(174,282)"/>
<path d="M0 0 C2.64 0 5.28 0 8 0 C8 2.64 8 5.28 8 8 C5.36 8 2.72 8 0 8 C0 5.36 0 2.72 0 0 Z " fill="#000000" transform="translate(374,274)"/>
<path d="M0 0 C2.64 0 5.28 0 8 0 C8 2.64 8 5.28 8 8 C5.36 8 2.72 8 0 8 C0 5.36 0 2.72 0 0 Z " fill="#800000" transform="translate(366,274)"/>
<path d="M0 0 C2.64 0 5.28 0 8 0 C8 2.64 8 5.28 8 8 C5.36 8 2.72 8 0 8 C0 5.36 0 2.72 0 0 Z " fill="#800000" transform="translate(374,266)"/>
<path d="M0 0 C2.64 0 5.28 0 8 0 C8 2.64 8 5.28 8 8 C5.36 8 2.72 8 0 8 C0 5.36 0 2.72 0 0 Z " fill="#000000" transform="translate(350,266)"/>
<path d="M0 0 C2.64 0 5.28 0 8 0 C8 2.64 8 5.28 8 8 C5.36 8 2.72 8 0 8 C0 5.36 0 2.72 0 0 Z " fill="#000000" transform="translate(334,266)"/>
<path d="M0 0 C2.64 0 5.28 0 8 0 C8 2.64 8 5.28 8 8 C5.36 8 2.72 8 0 8 C0 5.36 0 2.72 0 0 Z " fill="#FFFFFF" transform="translate(302,266)"/>
<path d="M0 0 C2.64 0 5.28 0 8 0 C8 2.64 8 5.28 8 8 C5.36 8 2.72 8 0 8 C0 5.36 0 2.72 0 0 Z " fill="#C0C0C0" transform="translate(294,266)"/>
<path d="M0 0 C2.64 0 5.28 0 8 0 C8 2.64 8 5.28 8 8 C5.36 8 2.72 8 0 8 C0 5.36 0 2.72 0 0 Z " fill="#808080" transform="translate(286,266)"/>
<path d="M0 0 C2.64 0 5.28 0 8 0 C8 2.64 8 5.28 8 8 C5.36 8 2.72 8 0 8 C0 5.36 0 2.72 0 0 Z " fill="#000000" transform="translate(238,266)"/>
<path d="M0 0 C2.64 0 5.28 0 8 0 C8 2.64 8 5.28 8 8 C5.36 8 2.72 8 0 8 C0 5.36 0 2.72 0 0 Z " fill="#000000" transform="translate(358,258)"/>
<path d="M0 0 C2.64 0 5.28 0 8 0 C8 2.64 8 5.28 8 8 C5.36 8 2.72 8 0 8 C0 5.36 0 2.72 0 0 Z " fill="#800000" transform="translate(350,258)"/>
<path d="M0 0 C2.64 0 5.28 0 8 0 C8 2.64 8 5.28 8 8 C5.36 8 2.72 8 0 8 C0 5.36 0 2.72 0 0 Z " fill="#FFFFFF" transform="translate(310,258)"/>
<path d="M0 0 C2.64 0 5.28 0 8 0 C8 2.64 8 5.28 8 8 C5.36 8 2.72 8 0 8 C0 5.36 0 2.72 0 0 Z " fill="#C0C0C0" transform="translate(302,258)"/>
<path d="M0 0 C2.64 0 5.28 0 8 0 C8 2.64 8 5.28 8 8 C5.36 8 2.72 8 0 8 C0 5.36 0 2.72 0 0 Z " fill="#808080" transform="translate(294,258)"/>
<path d="M0 0 C2.64 0 5.28 0 8 0 C8 2.64 8 5.28 8 8 C5.36 8 2.72 8 0 8 C0 5.36 0 2.72 0 0 Z " fill="#000000" transform="translate(246,258)"/>
<path d="M0 0 C2.64 0 5.28 0 8 0 C8 2.64 8 5.28 8 8 C5.36 8 2.72 8 0 8 C0 5.36 0 2.72 0 0 Z " fill="#000000" transform="translate(334,250)"/>
<path d="M0 0 C2.64 0 5.28 0 8 0 C8 2.64 8 5.28 8 8 C5.36 8 2.72 8 0 8 C0 5.36 0 2.72 0 0 Z " fill="#800000" transform="translate(326,250)"/>
<path d="M0 0 C2.64 0 5.28 0 8 0 C8 2.64 8 5.28 8 8 C5.36 8 2.72 8 0 8 C0 5.36 0 2.72 0 0 Z " fill="#000000" transform="translate(310,250)"/>
<path d="M0 0 C2.64 0 5.28 0 8 0 C8 2.64 8 5.28 8 8 C5.36 8 2.72 8 0 8 C0 5.36 0 2.72 0 0 Z " fill="#808080" transform="translate(302,250)"/>
<path d="M0 0 C2.64 0 5.28 0 8 0 C8 2.64 8 5.28 8 8 C5.36 8 2.72 8 0 8 C0 5.36 0 2.72 0 0 Z " fill="#000000" transform="translate(342,242)"/>
<path d="M0 0 C2.64 0 5.28 0 8 0 C8 2.64 8 5.28 8 8 C5.36 8 2.72 8 0 8 C0 5.36 0 2.72 0 0 Z " fill="#800000" transform="translate(334,242)"/>
<path d="M0 0 C2.64 0 5.28 0 8 0 C8 2.64 8 5.28 8 8 C5.36 8 2.72 8 0 8 C0 5.36 0 2.72 0 0 Z " fill="#800000" transform="translate(310,242)"/>
<path d="M0 0 C2.64 0 5.28 0 8 0 C8 2.64 8 5.28 8 8 C5.36 8 2.72 8 0 8 C0 5.36 0 2.72 0 0 Z " fill="#800000" transform="translate(342,234)"/>
<path d="M0 0 C2.64 0 5.28 0 8 0 C8 2.64 8 5.28 8 8 C5.36 8 2.72 8 0 8 C0 5.36 0 2.72 0 0 Z " fill="#800000" transform="translate(318,234)"/>
<path d="M0 0 C2.64 0 5.28 0 8 0 C8 2.64 8 5.28 8 8 C5.36 8 2.72 8 0 8 C0 5.36 0 2.72 0 0 Z " fill="#800000" transform="translate(326,226)"/>
<path d="M0 0 C2.64 0 5.28 0 8 0 C8 2.64 8 5.28 8 8 C5.36 8 2.72 8 0 8 C0 5.36 0 2.72 0 0 Z " fill="#FFFFFF" transform="translate(238,194)"/>
<path d="M0 0 C2.64 0 5.28 0 8 0 C8 2.64 8 5.28 8 8 C5.36 8 2.72 8 0 8 C0 5.36 0 2.72 0 0 Z " fill="#808080" transform="translate(150,194)"/>
<path d="M0 0 C2.64 0 5.28 0 8 0 C8 2.64 8 5.28 8 8 C5.36 8 2.72 8 0 8 C0 5.36 0 2.72 0 0 Z " fill="#FFFFFF" transform="translate(246,186)"/>
<path d="M0 0 C2.64 0 5.28 0 8 0 C8 2.64 8 5.28 8 8 C5.36 8 2.72 8 0 8 C0 5.36 0 2.72 0 0 Z " fill="#808080" transform="translate(158,186)"/>
<path d="M0 0 C2.64 0 5.28 0 8 0 C8 2.64 8 5.28 8 8 C5.36 8 2.72 8 0 8 C0 5.36 0 2.72 0 0 Z " fill="#000000" transform="translate(246,130)"/>
</svg>
