<?xml version="1.0" encoding="UTF-8"?>
<svg version="1.1" xmlns="http://www.w3.org/2000/svg" width="540" height="500">
<path d="M0 0 C15.84 0 31.68 0 48 0 C48 2.64 48 5.28 48 8 C55.92 8 63.84 8 72 8 C72 10.64 72 13.28 72 16 C77.28 16 82.56 16 88 16 C88 18.64 88 21.28 88 24 C90.64 24 93.28 24 96 24 C96 26.64 96 29.28 96 32 C98.64 32 101.28 32 104 32 C104 34.64 104 37.28 104 40 C106.64 40 109.28 40 112 40 C112 45.28 112 50.56 112 56 C114.64 56 117.28 56 120 56 C120 61.28 120 66.56 120 72 C122.64 72 125.28 72 128 72 C128 93.12 128 114.24 128 136 C125.36 136 122.72 136 120 136 C120 141.28 120 146.56 120 152 C117.36 152 114.72 152 112 152 C112 157.28 112 162.56 112 168 C109.36 168 106.72 168 104 168 C104 170.64 104 173.28 104 176 C101.36 176 98.72 176 96 176 C96 178.64 96 181.28 96 184 C93.36 184 90.72 184 88 184 C88 186.64 88 189.28 88 192 C85.36 192 82.72 192 80 192 C80 194.64 80 197.28 80 200 C77.36 200 74.72 200 72 200 C72 202.64 72 205.28 72 208 C69.36 208 66.72 208 64 208 C64 210.64 64 213.28 64 216 C61.36 216 58.72 216 56 216 C56 218.64 56 221.28 56 224 C50.72 224 45.44 224 40 224 C40 226.64 40 229.28 40 232 C32.08 232 24.16 232 16 232 C16 234.64 16 237.28 16 240 C0.16 240 -15.68 240 -32 240 C-32 237.36 -32 234.72 -32 232 C-39.92 232 -47.84 232 -56 232 C-56 229.36 -56 226.72 -56 224 C-61.28 224 -66.56 224 -72 224 C-72 221.36 -72 218.72 -72 216 C-74.64 216 -77.28 216 -80 216 C-80 213.36 -80 210.72 -80 208 C-82.64 208 -85.28 208 -88 208 C-88 205.36 -88 202.72 -88 200 C-90.64 200 -93.28 200 -96 200 C-96 194.72 -96 189.44 -96 184 C-98.64 184 -101.28 184 -104 184 C-104 178.72 -104 173.44 -104 168 C-106.64 168 -109.28 168 -112 168 C-112 146.88 -112 125.76 -112 104 C-109.36 104 -106.72 104 -104 104 C-104 98.72 -104 93.44 -104 88 C-101.36 88 -98.72 88 -96 88 C-96 82.72 -96 77.44 -96 72 C-93.36 72 -90.72 72 -88 72 C-88 69.36 -88 66.72 -88 64 C-85.36 64 -82.72 64 -80 64 C-80 61.36 -80 58.72 -80 56 C-77.36 56 -74.72 56 -72 56 C-72 53.36 -72 50.72 -72 48 C-69.36 48 -66.72 48 -64 48 C-64 45.36 -64 42.72 -64 40 C-61.36 40 -58.72 40 -56 40 C-56 37.36 -56 34.72 -56 32 C-53.36 32 -50.72 32 -48 32 C-48 29.36 -48 26.72 -48 24 C-45.36 24 -42.72 24 -40 24 C-40 21.36 -40 18.72 -40 16 C-34.72 16 -29.44 16 -24 16 C-24 13.36 -24 10.72 -24 8 C-16.08 8 -8.16 8 0 8 C0 5.36 0 2.72 0 0 Z M-24 120 C-24 130.56 -24 141.12 -24 152 C-13.44 152 -2.88 152 8 152 C8 141.44 8 130.88 8 120 C-2.56 120 -13.12 120 -24 120 Z " fill="#C0C0C0" transform="translate(262,130)"/>
<path d="M0 0 C21.12 0 42.24 0 64 0 C64 2.64 64 5.28 64 8 C69.28 8 74.56 8 80 8 C80 10.64 80 13.28 80 16 C82.64 16 85.28 16 88 16 C88 26.56 88 37.12 88 48 C85.36 48 82.72 48 80 48 C80 50.64 80 53.28 80 56 C72.08 56 64.16 56 56 56 C56 58.64 56 61.28 56 64 C58.64 64 61.28 64 64 64 C64 69.28 64 74.56 64 80 C66.64 80 69.28 80 72 80 C72 85.28 72 90.56 72 96 C74.64 96 77.28 96 80 96 C80 111.84 80 127.68 80 144 C72.08 144 64.16 144 56 144 C56 141.36 56 138.72 56 136 C42.8 136 29.6 136 16 136 C16 130.72 16 125.44 16 120 C18.64 120 21.28 120 24 120 C24 117.36 24 114.72 24 112 C16.08 112 8.16 112 0 112 C0 106.72 0 101.44 0 96 C-5.28 96 -10.56 96 -16 96 C-16 93.36 -16 90.72 -16 88 C-13.36 88 -10.72 88 -8 88 C-8 85.36 -8 82.72 -8 80 C-10.64 80 -13.28 80 -16 80 C-16 77.36 -16 74.72 -16 72 C-13.36 72 -10.72 72 -8 72 C-8 69.36 -8 66.72 -8 64 C-10.64 64 -13.28 64 -16 64 C-16 61.36 -16 58.72 -16 56 C-13.36 56 -10.72 56 -8 56 C-8 53.36 -8 50.72 -8 48 C-10.64 48 -13.28 48 -16 48 C-16 45.36 -16 42.72 -16 40 C-13.36 40 -10.72 40 -8 40 C-8 37.36 -8 34.72 -8 32 C-2.72 32 2.56 32 8 32 C8 29.36 8 26.72 8 24 C5.36 24 2.72 24 0 24 C0 16.08 0 8.16 0 0 Z " fill="#FFFFFF" transform="translate(270,138)"/>
<path d="M0 0 C15.84 0 31.68 0 48 0 C48 2.64 48 5.28 48 8 C34.8 8 21.6 8 8 8 C8 15.92 8 23.84 8 32 C10.64 32 13.28 32 16 32 C16 34.64 16 37.28 16 40 C10.72 40 5.44 40 0 40 C0 42.64 0 45.28 0 48 C-2.64 48 -5.28 48 -8 48 C-8 50.64 -8 53.28 -8 56 C-5.36 56 -2.72 56 0 56 C0 58.64 0 61.28 0 64 C-2.64 64 -5.28 64 -8 64 C-8 66.64 -8 69.28 -8 72 C-5.36 72 -2.72 72 0 72 C0 74.64 0 77.28 0 80 C-2.64 80 -5.28 80 -8 80 C-8 82.64 -8 85.28 -8 88 C-5.36 88 -2.72 88 0 88 C0 90.64 0 93.28 0 96 C-2.64 96 -5.28 96 -8 96 C-8 98.64 -8 101.28 -8 104 C-2.72 104 2.56 104 8 104 C8 109.28 8 114.56 8 120 C-7.84 120 -23.68 120 -40 120 C-40 122.64 -40 125.28 -40 128 C-53.2 128 -66.4 128 -80 128 C-80 125.36 -80 122.72 -80 120 C-87.92 120 -95.84 120 -104 120 C-104 135.84 -104 151.68 -104 168 C-106.64 168 -109.28 168 -112 168 C-112 146.88 -112 125.76 -112 104 C-109.36 104 -106.72 104 -104 104 C-104 98.72 -104 93.44 -104 88 C-101.36 88 -98.72 88 -96 88 C-96 82.72 -96 77.44 -96 72 C-93.36 72 -90.72 72 -88 72 C-88 69.36 -88 66.72 -88 64 C-85.36 64 -82.72 64 -80 64 C-80 61.36 -80 58.72 -80 56 C-77.36 56 -74.72 56 -72 56 C-72 53.36 -72 50.72 -72 48 C-69.36 48 -66.72 48 -64 48 C-64 45.36 -64 42.72 -64 40 C-61.36 40 -58.72 40 -56 40 C-56 37.36 -56 34.72 -56 32 C-53.36 32 -50.72 32 -48 32 C-48 29.36 -48 26.72 -48 24 C-45.36 24 -42.72 24 -40 24 C-40 21.36 -40 18.72 -40 16 C-34.72 16 -29.44 16 -24 16 C-24 13.36 -24 10.72 -24 8 C-16.08 8 -8.16 8 0 8 C0 5.36 0 2.72 0 0 Z " fill="#C0C0C0" transform="translate(262,130)"/>
<path d="M0 0 C7.92 0 15.84 0 24 0 C24 2.64 24 5.28 24 8 C37.2 8 50.4 8 64 8 C64 13.28 64 18.56 64 24 C61.36 24 58.72 24 56 24 C56 26.64 56 29.28 56 32 C61.28 32 66.56 32 72 32 C72 37.28 72 42.56 72 48 C82.56 48 93.12 48 104 48 C104 61.2 104 74.4 104 88 C106.64 88 109.28 88 112 88 C112 95.92 112 103.84 112 112 C90.88 112 69.76 112 48 112 C48 109.36 48 106.72 48 104 C42.72 104 37.44 104 32 104 C32 101.36 32 98.72 32 96 C29.36 96 26.72 96 24 96 C24 93.36 24 90.72 24 88 C21.36 88 18.72 88 16 88 C16 85.36 16 82.72 16 80 C13.36 80 10.72 80 8 80 C8 74.72 8 69.44 8 64 C5.36 64 2.72 64 0 64 C0 42.88 0 21.76 0 0 Z " fill="#FFFFFF" transform="translate(158,250)"/>
<path d="M0 0 C5.28 0 10.56 0 16 0 C16 10.56 16 21.12 16 32 C26.56 32 37.12 32 48 32 C48 34.64 48 37.28 48 40 C53.28 40 58.56 40 64 40 C64 42.64 64 45.28 64 48 C66.64 48 69.28 48 72 48 C72 50.64 72 53.28 72 56 C74.64 56 77.28 56 80 56 C80 58.64 80 61.28 80 64 C82.64 64 85.28 64 88 64 C88 66.64 88 69.28 88 72 C90.64 72 93.28 72 96 72 C96 74.64 96 77.28 96 80 C101.28 80 106.56 80 112 80 C112 82.64 112 85.28 112 88 C109.36 88 106.72 88 104 88 C104 90.64 104 93.28 104 96 C101.36 96 98.72 96 96 96 C96 98.64 96 101.28 96 104 C90.72 104 85.44 104 80 104 C80 106.64 80 109.28 80 112 C72.08 112 64.16 112 56 112 C56 114.64 56 117.28 56 120 C40.16 120 24.32 120 8 120 C8 117.36 8 114.72 8 112 C21.2 112 34.4 112 48 112 C48 104.08 48 96.16 48 88 C45.36 88 42.72 88 40 88 C40 74.8 40 61.6 40 48 C29.44 48 18.88 48 8 48 C8 42.72 8 37.44 8 32 C2.72 32 -2.56 32 -8 32 C-8 29.36 -8 26.72 -8 24 C-5.36 24 -2.72 24 0 24 C0 16.08 0 8.16 0 0 Z " fill="#808080" transform="translate(222,250)"/>
<path d="M0 0 C15.84 0 31.68 0 48 0 C48 2.64 48 5.28 48 8 C34.8 8 21.6 8 8 8 C8 15.92 8 23.84 8 32 C10.64 32 13.28 32 16 32 C16 34.64 16 37.28 16 40 C0.16 40 -15.68 40 -32 40 C-32 42.64 -32 45.28 -32 48 C-39.92 48 -47.84 48 -56 48 C-56 50.64 -56 53.28 -56 56 C-53.36 56 -50.72 56 -48 56 C-48 61.28 -48 66.56 -48 72 C-45.36 72 -42.72 72 -40 72 C-40 77.28 -40 82.56 -40 88 C-37.36 88 -34.72 88 -32 88 C-32 93.28 -32 98.56 -32 104 C-29.36 104 -26.72 104 -24 104 C-24 106.64 -24 109.28 -24 112 C-29.28 112 -34.56 112 -40 112 C-40 109.36 -40 106.72 -40 104 C-42.64 104 -45.28 104 -48 104 C-48 101.36 -48 98.72 -48 96 C-50.64 96 -53.28 96 -56 96 C-56 93.36 -56 90.72 -56 88 C-58.64 88 -61.28 88 -64 88 C-64 85.36 -64 82.72 -64 80 C-66.64 80 -69.28 80 -72 80 C-72 77.36 -72 74.72 -72 72 C-77.28 72 -82.56 72 -88 72 C-88 69.36 -88 66.72 -88 64 C-85.36 64 -82.72 64 -80 64 C-80 61.36 -80 58.72 -80 56 C-77.36 56 -74.72 56 -72 56 C-72 53.36 -72 50.72 -72 48 C-69.36 48 -66.72 48 -64 48 C-64 45.36 -64 42.72 -64 40 C-61.36 40 -58.72 40 -56 40 C-56 37.36 -56 34.72 -56 32 C-53.36 32 -50.72 32 -48 32 C-48 29.36 -48 26.72 -48 24 C-45.36 24 -42.72 24 -40 24 C-40 21.36 -40 18.72 -40 16 C-34.72 16 -29.44 16 -24 16 C-24 13.36 -24 10.72 -24 8 C-16.08 8 -8.16 8 0 8 C0 5.36 0 2.72 0 0 Z " fill="#008080" transform="translate(262,130)"/>
<path d="M0 0 C7.92 0 15.84 0 24 0 C24 2.64 24 5.28 24 8 C37.2 8 50.4 8 64 8 C64 13.28 64 18.56 64 24 C61.36 24 58.72 24 56 24 C56 26.64 56 29.28 56 32 C58.64 32 61.28 32 64 32 C64 34.64 64 37.28 64 40 C61.36 40 58.72 40 56 40 C56 42.64 56 45.28 56 48 C53.36 48 50.72 48 48 48 C48 50.64 48 53.28 48 56 C45.36 56 42.72 56 40 56 C40 58.64 40 61.28 40 64 C37.36 64 34.72 64 32 64 C32 66.64 32 69.28 32 72 C29.36 72 26.72 72 24 72 C24 77.28 24 82.56 24 88 C21.36 88 18.72 88 16 88 C16 85.36 16 82.72 16 80 C13.36 80 10.72 80 8 80 C8 74.72 8 69.44 8 64 C5.36 64 2.72 64 0 64 C0 42.88 0 21.76 0 0 Z " fill="#C0C0C0" transform="translate(158,250)"/>
<path d="M0 0 C7.92 0 15.84 0 24 0 C24 2.64 24 5.28 24 8 C21.36 8 18.72 8 16 8 C16 13.28 16 18.56 16 24 C29.2 24 42.4 24 56 24 C56 26.64 56 29.28 56 32 C63.92 32 71.84 32 80 32 C80 37.28 80 42.56 80 48 C77.36 48 74.72 48 72 48 C72 53.28 72 58.56 72 64 C69.36 64 66.72 64 64 64 C64 69.28 64 74.56 64 80 C58.72 80 53.44 80 48 80 C48 77.36 48 74.72 48 72 C45.36 72 42.72 72 40 72 C40 69.36 40 66.72 40 64 C37.36 64 34.72 64 32 64 C32 61.36 32 58.72 32 56 C29.36 56 26.72 56 24 56 C24 53.36 24 50.72 24 48 C21.36 48 18.72 48 16 48 C16 45.36 16 42.72 16 40 C10.72 40 5.44 40 0 40 C0 26.8 0 13.6 0 0 Z " fill="#C0C0C0" transform="translate(270,250)"/>
<path d="M0 0 C2.64 0 5.28 0 8 0 C8 2.64 8 5.28 8 8 C10.64 8 13.28 8 16 8 C16 13.28 16 18.56 16 24 C18.64 24 21.28 24 24 24 C24 39.84 24 55.68 24 72 C16.08 72 8.16 72 0 72 C0 69.36 0 66.72 0 64 C-13.2 64 -26.4 64 -40 64 C-40 58.72 -40 53.44 -40 48 C-37.36 48 -34.72 48 -32 48 C-32 42.72 -32 37.44 -32 32 C-29.36 32 -26.72 32 -24 32 C-24 29.36 -24 26.72 -24 24 C-21.36 24 -18.72 24 -16 24 C-16 21.36 -16 18.72 -16 16 C-13.36 16 -10.72 16 -8 16 C-8 13.36 -8 10.72 -8 8 C-5.36 8 -2.72 8 0 8 C0 5.36 0 2.72 0 0 Z " fill="#C0C0C0" transform="translate(326,210)"/>
<path d="M0 0 C21.12 0 42.24 0 64 0 C64 2.64 64 5.28 64 8 C69.28 8 74.56 8 80 8 C80 10.64 80 13.28 80 16 C77.36 16 74.72 16 72 16 C72 18.64 72 21.28 72 24 C69.36 24 66.72 24 64 24 C64 26.64 64 29.28 64 32 C61.36 32 58.72 32 56 32 C56 34.64 56 37.28 56 40 C53.36 40 50.72 40 48 40 C48 42.64 48 45.28 48 48 C42.72 48 37.44 48 32 48 C32 45.36 32 42.72 32 40 C24.08 40 16.16 40 8 40 C8 34.72 8 29.44 8 24 C5.36 24 2.72 24 0 24 C0 16.08 0 8.16 0 0 Z " fill="#C0C0C0" transform="translate(270,138)"/>
<path d="M0 0 C2.64 0 5.28 0 8 0 C8 21.12 8 42.24 8 64 C5.36 64 2.72 64 0 64 C0 69.28 0 74.56 0 80 C-2.64 80 -5.28 80 -8 80 C-8 85.28 -8 90.56 -8 96 C-10.64 96 -13.28 96 -16 96 C-16 98.64 -16 101.28 -16 104 C-18.64 104 -21.28 104 -24 104 C-24 106.64 -24 109.28 -24 112 C-26.64 112 -29.28 112 -32 112 C-32 114.64 -32 117.28 -32 120 C-34.64 120 -37.28 120 -40 120 C-40 122.64 -40 125.28 -40 128 C-42.64 128 -45.28 128 -48 128 C-48 122.72 -48 117.44 -48 112 C-45.36 112 -42.72 112 -40 112 C-40 106.72 -40 101.44 -40 96 C-37.36 96 -34.72 96 -32 96 C-32 74.88 -32 53.76 -32 32 C-29.36 32 -26.72 32 -24 32 C-24 37.28 -24 42.56 -24 48 C-16.08 48 -8.16 48 0 48 C0 32.16 0 16.32 0 0 Z " fill="#00FF00" transform="translate(382,202)"/>
<path d="M0 0 C7.92 0 15.84 0 24 0 C24 13.2 24 26.4 24 40 C26.64 40 29.28 40 32 40 C32 47.92 32 55.84 32 64 C10.88 64 -10.24 64 -32 64 C-32 61.36 -32 58.72 -32 56 C-26.72 56 -21.44 56 -16 56 C-16 53.36 -16 50.72 -16 48 C-13.36 48 -10.72 48 -8 48 C-8 45.36 -8 42.72 -8 40 C-5.36 40 -2.72 40 0 40 C0 37.36 0 34.72 0 32 C-2.64 32 -5.28 32 -8 32 C-8 29.36 -8 26.72 -8 24 C-5.36 24 -2.72 24 0 24 C0 21.36 0 18.72 0 16 C-2.64 16 -5.28 16 -8 16 C-8 13.36 -8 10.72 -8 8 C-5.36 8 -2.72 8 0 8 C0 5.36 0 2.72 0 0 Z " fill="#C0C0C0" transform="translate(238,298)"/>
<path d="M0 0 C5.28 0 10.56 0 16 0 C16 2.64 16 5.28 16 8 C23.92 8 31.84 8 40 8 C40 10.64 40 13.28 40 16 C42.64 16 45.28 16 48 16 C48 18.64 48 21.28 48 24 C45.36 24 42.72 24 40 24 C40 26.64 40 29.28 40 32 C37.36 32 34.72 32 32 32 C32 34.64 32 37.28 32 40 C29.36 40 26.72 40 24 40 C24 42.64 24 45.28 24 48 C21.36 48 18.72 48 16 48 C16 50.64 16 53.28 16 56 C13.36 56 10.72 56 8 56 C8 58.64 8 61.28 8 64 C2.72 64 -2.56 64 -8 64 C-8 61.36 -8 58.72 -8 56 C-5.36 56 -2.72 56 0 56 C0 53.36 0 50.72 0 48 C-2.64 48 -5.28 48 -8 48 C-8 45.36 -8 42.72 -8 40 C-5.36 40 -2.72 40 0 40 C0 37.36 0 34.72 0 32 C-2.64 32 -5.28 32 -8 32 C-8 29.36 -8 26.72 -8 24 C-5.36 24 -2.72 24 0 24 C0 21.36 0 18.72 0 16 C-2.64 16 -5.28 16 -8 16 C-8 13.36 -8 10.72 -8 8 C-5.36 8 -2.72 8 0 8 C0 5.36 0 2.72 0 0 Z " fill="#C0C0C0" transform="translate(262,170)"/>
<path d="M0 0 C2.64 0 5.28 0 8 0 C8 2.64 8 5.28 8 8 C13.28 8 18.56 8 24 8 C24 10.64 24 13.28 24 16 C29.28 16 34.56 16 40 16 C40 18.64 40 21.28 40 24 C42.64 24 45.28 24 48 24 C48 26.64 48 29.28 48 32 C50.64 32 53.28 32 56 32 C56 34.64 56 37.28 56 40 C45.44 40 34.88 40 24 40 C24 37.36 24 34.72 24 32 C16.08 32 8.16 32 0 32 C0 47.84 0 63.68 0 80 C-2.64 80 -5.28 80 -8 80 C-8 58.88 -8 37.76 -8 16 C-5.36 16 -2.72 16 0 16 C0 10.72 0 5.44 0 0 Z " fill="#00FF00" transform="translate(158,218)"/>
<path d="M0 0 C10.56 0 21.12 0 32 0 C32 2.64 32 5.28 32 8 C29.36 8 26.72 8 24 8 C24 10.64 24 13.28 24 16 C26.64 16 29.28 16 32 16 C32 18.64 32 21.28 32 24 C29.36 24 26.72 24 24 24 C24 26.64 24 29.28 24 32 C26.64 32 29.28 32 32 32 C32 34.64 32 37.28 32 40 C29.36 40 26.72 40 24 40 C24 42.64 24 45.28 24 48 C26.64 48 29.28 48 32 48 C32 50.64 32 53.28 32 56 C29.36 56 26.72 56 24 56 C24 58.64 24 61.28 24 64 C21.36 64 18.72 64 16 64 C16 61.36 16 58.72 16 56 C13.36 56 10.72 56 8 56 C8 50.72 8 45.44 8 40 C5.36 40 2.72 40 0 40 C0 34.72 0 29.44 0 24 C-2.64 24 -5.28 24 -8 24 C-8 18.72 -8 13.44 -8 8 C-5.36 8 -2.72 8 0 8 C0 5.36 0 2.72 0 0 Z " fill="#FFFF00" transform="translate(230,170)"/>
<path d="M0 0 C5.28 0 10.56 0 16 0 C16 2.64 16 5.28 16 8 C18.64 8 21.28 8 24 8 C24 10.64 24 13.28 24 16 C26.64 16 29.28 16 32 16 C32 18.64 32 21.28 32 24 C34.64 24 37.28 24 40 24 C40 26.64 40 29.28 40 32 C42.64 32 45.28 32 48 32 C48 34.64 48 37.28 48 40 C53.28 40 58.56 40 64 40 C64 42.64 64 45.28 64 48 C61.36 48 58.72 48 56 48 C56 50.64 56 53.28 56 56 C53.36 56 50.72 56 48 56 C48 58.64 48 61.28 48 64 C42.72 64 37.44 64 32 64 C32 61.36 32 58.72 32 56 C29.36 56 26.72 56 24 56 C24 50.72 24 45.44 24 40 C21.36 40 18.72 40 16 40 C16 34.72 16 29.44 16 24 C13.36 24 10.72 24 8 24 C8 18.72 8 13.44 8 8 C5.36 8 2.72 8 0 8 C0 5.36 0 2.72 0 0 Z " fill="#008080" transform="translate(270,290)"/>
<path d="M0 0 C2.64 0 5.28 0 8 0 C8 2.64 8 5.28 8 8 C10.64 8 13.28 8 16 8 C16 5.36 16 2.72 16 0 C18.64 0 21.28 0 24 0 C24 2.64 24 5.28 24 8 C26.64 8 29.28 8 32 8 C32 5.36 32 2.72 32 0 C34.64 0 37.28 0 40 0 C40 2.64 40 5.28 40 8 C42.64 8 45.28 8 48 8 C48 5.36 48 2.72 48 0 C50.64 0 53.28 0 56 0 C56 10.56 56 21.12 56 32 C48.08 32 40.16 32 32 32 C32 29.36 32 26.72 32 24 C18.8 24 5.6 24 -8 24 C-8 18.72 -8 13.44 -8 8 C-5.36 8 -2.72 8 0 8 C0 5.36 0 2.72 0 0 Z " fill="#C0C0C0" transform="translate(294,250)"/>
<path d="M0 0 C10.56 0 21.12 0 32 0 C32 5.28 32 10.56 32 16 C34.64 16 37.28 16 40 16 C40 21.28 40 26.56 40 32 C42.64 32 45.28 32 48 32 C48 37.28 48 42.56 48 48 C50.64 48 53.28 48 56 48 C56 50.64 56 53.28 56 56 C50.72 56 45.44 56 40 56 C40 53.36 40 50.72 40 48 C37.36 48 34.72 48 32 48 C32 45.36 32 42.72 32 40 C29.36 40 26.72 40 24 40 C24 37.36 24 34.72 24 32 C21.36 32 18.72 32 16 32 C16 29.36 16 26.72 16 24 C13.36 24 10.72 24 8 24 C8 21.36 8 18.72 8 16 C2.72 16 -2.56 16 -8 16 C-8 13.36 -8 10.72 -8 8 C-5.36 8 -2.72 8 0 8 C0 5.36 0 2.72 0 0 Z " fill="#008080" transform="translate(182,186)"/>
<path d="M0 0 C2.64 0 5.28 0 8 0 C8 5.28 8 10.56 8 16 C10.64 16 13.28 16 16 16 C16 21.28 16 26.56 16 32 C18.64 32 21.28 32 24 32 C24 37.28 24 42.56 24 48 C29.28 48 34.56 48 40 48 C40 50.64 40 53.28 40 56 C32.08 56 24.16 56 16 56 C16 58.64 16 61.28 16 64 C0.16 64 -15.68 64 -32 64 C-32 61.36 -32 58.72 -32 56 C-18.8 56 -5.6 56 8 56 C8 48.08 8 40.16 8 32 C5.36 32 2.72 32 0 32 C0 21.44 0 10.88 0 0 Z " fill="#00FF00" transform="translate(262,306)"/>
<path d="M0 0 C5.28 0 10.56 0 16 0 C16 5.28 16 10.56 16 16 C18.64 16 21.28 16 24 16 C24 21.28 24 26.56 24 32 C26.64 32 29.28 32 32 32 C32 37.28 32 42.56 32 48 C34.64 48 37.28 48 40 48 C40 50.64 40 53.28 40 56 C47.92 56 55.84 56 64 56 C64 61.28 64 66.56 64 72 C53.44 72 42.88 72 32 72 C32 66.72 32 61.44 32 56 C29.36 56 26.72 56 24 56 C24 50.72 24 45.44 24 40 C21.36 40 18.72 40 16 40 C16 34.72 16 29.44 16 24 C13.36 24 10.72 24 8 24 C8 18.72 8 13.44 8 8 C5.36 8 2.72 8 0 8 C0 5.36 0 2.72 0 0 Z " fill="#C0C0C0" transform="translate(206,178)"/>
<path d="M0 0 C10.56 0 21.12 0 32 0 C32 2.64 32 5.28 32 8 C39.92 8 47.84 8 56 8 C56 13.28 56 18.56 56 24 C53.36 24 50.72 24 48 24 C48 26.64 48 29.28 48 32 C42.72 32 37.44 32 32 32 C32 29.36 32 26.72 32 24 C26.72 24 21.44 24 16 24 C16 21.36 16 18.72 16 16 C10.72 16 5.44 16 0 16 C0 10.72 0 5.44 0 0 Z " fill="#00FF00" transform="translate(294,274)"/>
<path d="M0 0 C5.28 0 10.56 0 16 0 C16 10.56 16 21.12 16 32 C13.36 32 10.72 32 8 32 C8 34.64 8 37.28 8 40 C-2.56 40 -13.12 40 -24 40 C-24 34.72 -24 29.44 -24 24 C-21.36 24 -18.72 24 -16 24 C-16 21.36 -16 18.72 -16 16 C-13.36 16 -10.72 16 -8 16 C-8 13.36 -8 10.72 -8 8 C-5.36 8 -2.72 8 0 8 C0 5.36 0 2.72 0 0 Z " fill="#FFFFFF" transform="translate(342,154)"/>
<path d="M0 0 C15.84 0 31.68 0 48 0 C48 2.64 48 5.28 48 8 C34.8 8 21.6 8 8 8 C8 15.92 8 23.84 8 32 C0.08 32 -7.84 32 -16 32 C-16 29.36 -16 26.72 -16 24 C-18.64 24 -21.28 24 -24 24 C-24 18.72 -24 13.44 -24 8 C-16.08 8 -8.16 8 0 8 C0 5.36 0 2.72 0 0 Z " fill="#00FF00" transform="translate(262,130)"/>
<path d="M0 0 C2.64 0 5.28 0 8 0 C8 21.12 8 42.24 8 64 C10.64 64 13.28 64 16 64 C16 66.64 16 69.28 16 72 C13.36 72 10.72 72 8 72 C8 74.64 8 77.28 8 80 C5.36 80 2.72 80 0 80 C0 82.64 0 85.28 0 88 C-2.64 88 -5.28 88 -8 88 C-8 90.64 -8 93.28 -8 96 C-10.64 96 -13.28 96 -16 96 C-16 90.72 -16 85.44 -16 80 C-13.36 80 -10.72 80 -8 80 C-8 74.72 -8 69.44 -8 64 C-5.36 64 -2.72 64 0 64 C0 42.88 0 21.76 0 0 Z " fill="#000000" transform="translate(350,234)"/>
<path d="M0 0 C2.64 0 5.28 0 8 0 C8 13.2 8 26.4 8 40 C10.64 40 13.28 40 16 40 C16 47.92 16 55.84 16 64 C8.08 64 0.16 64 -8 64 C-8 61.36 -8 58.72 -8 56 C-5.36 56 -2.72 56 0 56 C0 53.36 0 50.72 0 48 C-2.64 48 -5.28 48 -8 48 C-8 45.36 -8 42.72 -8 40 C-5.36 40 -2.72 40 0 40 C0 37.36 0 34.72 0 32 C-2.64 32 -5.28 32 -8 32 C-8 29.36 -8 26.72 -8 24 C-5.36 24 -2.72 24 0 24 C0 21.36 0 18.72 0 16 C-2.64 16 -5.28 16 -8 16 C-8 13.36 -8 10.72 -8 8 C-5.36 8 -2.72 8 0 8 C0 5.36 0 2.72 0 0 Z " fill="#FFFF00" transform="translate(254,298)"/>
<path d="M0 0 C7.92 0 15.84 0 24 0 C24 2.64 24 5.28 24 8 C26.64 8 29.28 8 32 8 C32 10.64 32 13.28 32 16 C34.64 16 37.28 16 40 16 C40 18.64 40 21.28 40 24 C37.36 24 34.72 24 32 24 C32 26.64 32 29.28 32 32 C29.36 32 26.72 32 24 32 C24 34.64 24 37.28 24 40 C21.36 40 18.72 40 16 40 C16 34.72 16 29.44 16 24 C13.36 24 10.72 24 8 24 C8 18.72 8 13.44 8 8 C5.36 8 2.72 8 0 8 C0 5.36 0 2.72 0 0 Z " fill="#808080" transform="translate(326,194)"/>
<path d="M0 0 C21.12 0 42.24 0 64 0 C64 5.28 64 10.56 64 16 C56.08 16 48.16 16 40 16 C40 13.36 40 10.72 40 8 C26.8 8 13.6 8 0 8 C0 5.36 0 2.72 0 0 Z " fill="#FF00FF" transform="translate(286,266)"/>
<path d="M0 0 C7.92 0 15.84 0 24 0 C24 2.64 24 5.28 24 8 C37.2 8 50.4 8 64 8 C64 10.64 64 13.28 64 16 C42.88 16 21.76 16 0 16 C0 10.72 0 5.44 0 0 Z " fill="#FF00FF" transform="translate(158,250)"/>
<path d="M0 0 C2.64 0 5.28 0 8 0 C8 7.92 8 15.84 8 24 C10.64 24 13.28 24 16 24 C16 34.56 16 45.12 16 56 C13.36 56 10.72 56 8 56 C8 50.72 8 45.44 8 40 C5.36 40 2.72 40 0 40 C0 34.72 0 29.44 0 24 C-2.64 24 -5.28 24 -8 24 C-8 18.72 -8 13.44 -8 8 C-5.36 8 -2.72 8 0 8 C0 5.36 0 2.72 0 0 Z " fill="#00FF00" transform="translate(230,170)"/>
<path d="M0 0 C2.64 0 5.28 0 8 0 C8 2.64 8 5.28 8 8 C10.64 8 13.28 8 16 8 C16 13.28 16 18.56 16 24 C18.64 24 21.28 24 24 24 C24 29.28 24 34.56 24 40 C26.64 40 29.28 40 32 40 C32 42.64 32 45.28 32 48 C26.72 48 21.44 48 16 48 C16 42.72 16 37.44 16 32 C13.36 32 10.72 32 8 32 C8 26.72 8 21.44 8 16 C5.36 16 2.72 16 0 16 C0 10.72 0 5.44 0 0 Z " fill="#C0C0C0" transform="translate(270,306)"/>
<path d="M0 0 C7.92 0 15.84 0 24 0 C24 2.64 24 5.28 24 8 C21.36 8 18.72 8 16 8 C16 15.92 16 23.84 16 32 C10.72 32 5.44 32 0 32 C0 21.44 0 10.88 0 0 Z " fill="#808080" transform="translate(270,250)"/>
<path d="M0 0 C5.28 0 10.56 0 16 0 C16 10.56 16 21.12 16 32 C8.08 32 0.16 32 -8 32 C-8 29.36 -8 26.72 -8 24 C-5.36 24 -2.72 24 0 24 C0 16.08 0 8.16 0 0 Z " fill="#808080" transform="translate(222,250)"/>
<path d="M0 0 C7.92 0 15.84 0 24 0 C24 2.64 24 5.28 24 8 C21.36 8 18.72 8 16 8 C16 10.64 16 13.28 16 16 C18.64 16 21.28 16 24 16 C24 18.64 24 21.28 24 24 C21.36 24 18.72 24 16 24 C16 26.64 16 29.28 16 32 C13.36 32 10.72 32 8 32 C8 29.36 8 26.72 8 24 C5.36 24 2.72 24 0 24 C0 16.08 0 8.16 0 0 Z " fill="#FFFF00" transform="translate(270,138)"/>
<path d="M0 0 C2.64 0 5.28 0 8 0 C8 21.12 8 42.24 8 64 C5.36 64 2.72 64 0 64 C0 42.88 0 21.76 0 0 Z " fill="#000000" transform="translate(150,234)"/>
<path d="M0 0 C2.64 0 5.28 0 8 0 C8 2.64 8 5.28 8 8 C10.64 8 13.28 8 16 8 C16 10.64 16 13.28 16 16 C18.64 16 21.28 16 24 16 C24 18.64 24 21.28 24 24 C26.64 24 29.28 24 32 24 C32 26.64 32 29.28 32 32 C26.72 32 21.44 32 16 32 C16 29.36 16 26.72 16 24 C10.72 24 5.44 24 0 24 C0 16.08 0 8.16 0 0 Z " fill="#00FFFF" transform="translate(166,202)"/>
<path d="M0 0 C2.64 0 5.28 0 8 0 C8 21.12 8 42.24 8 64 C5.36 64 2.72 64 0 64 C0 42.88 0 21.76 0 0 Z " fill="#000000" transform="translate(382,202)"/>
<path d="M0 0 C5.28 0 10.56 0 16 0 C16 2.64 16 5.28 16 8 C21.28 8 26.56 8 32 8 C32 10.64 32 13.28 32 16 C34.64 16 37.28 16 40 16 C40 18.64 40 21.28 40 24 C34.72 24 29.44 24 24 24 C24 21.36 24 18.72 24 16 C18.72 16 13.44 16 8 16 C8 13.36 8 10.72 8 8 C5.36 8 2.72 8 0 8 C0 5.36 0 2.72 0 0 Z " fill="#FFFF00" transform="translate(302,282)"/>
<path d="M0 0 C5.28 0 10.56 0 16 0 C16 2.64 16 5.28 16 8 C21.28 8 26.56 8 32 8 C32 10.64 32 13.28 32 16 C34.64 16 37.28 16 40 16 C40 18.64 40 21.28 40 24 C34.72 24 29.44 24 24 24 C24 21.36 24 18.72 24 16 C18.72 16 13.44 16 8 16 C8 13.36 8 10.72 8 8 C5.36 8 2.72 8 0 8 C0 5.36 0 2.72 0 0 Z " fill="#FFFF00" transform="translate(166,226)"/>
<path d="M0 0 C2.64 0 5.28 0 8 0 C8 2.64 8 5.28 8 8 C13.28 8 18.56 8 24 8 C24 10.64 24 13.28 24 16 C16.08 16 8.16 16 0 16 C0 18.64 0 21.28 0 24 C-5.28 24 -10.56 24 -16 24 C-16 21.36 -16 18.72 -16 16 C-13.36 16 -10.72 16 -8 16 C-8 13.36 -8 10.72 -8 8 C-5.36 8 -2.72 8 0 8 C0 5.36 0 2.72 0 0 Z " fill="#000000" transform="translate(206,162)"/>
<path d="M0 0 C15.84 0 31.68 0 48 0 C48 2.64 48 5.28 48 8 C32.16 8 16.32 8 0 8 C0 5.36 0 2.72 0 0 Z " fill="#000000" transform="translate(230,362)"/>
<path d="M0 0 C2.64 0 5.28 0 8 0 C8 2.64 8 5.28 8 8 C10.64 8 13.28 8 16 8 C16 10.64 16 13.28 16 16 C13.36 16 10.72 16 8 16 C8 18.64 8 21.28 8 24 C5.36 24 2.72 24 0 24 C0 26.64 0 29.28 0 32 C-2.64 32 -5.28 32 -8 32 C-8 26.72 -8 21.44 -8 16 C-5.36 16 -2.72 16 0 16 C0 10.72 0 5.44 0 0 Z " fill="#000000" transform="translate(342,298)"/>
<path d="M0 0 C5.28 0 10.56 0 16 0 C16 2.64 16 5.28 16 8 C21.28 8 26.56 8 32 8 C32 10.64 32 13.28 32 16 C29.36 16 26.72 16 24 16 C24 18.64 24 21.28 24 24 C21.36 24 18.72 24 16 24 C16 21.36 16 18.72 16 16 C13.36 16 10.72 16 8 16 C8 13.36 8 10.72 8 8 C5.36 8 2.72 8 0 8 C0 5.36 0 2.72 0 0 Z " fill="#00FFFF" transform="translate(310,298)"/>
<path d="M0 0 C5.28 0 10.56 0 16 0 C16 7.92 16 15.84 16 24 C10.72 24 5.44 24 0 24 C0 16.08 0 8.16 0 0 Z " fill="#00FFFF" transform="translate(358,274)"/>
<path d="M0 0 C7.92 0 15.84 0 24 0 C24 5.28 24 10.56 24 16 C16.08 16 8.16 16 0 16 C0 10.72 0 5.44 0 0 Z " fill="#FF00FF" transform="translate(358,234)"/>
<path d="M0 0 C2.64 0 5.28 0 8 0 C8 2.64 8 5.28 8 8 C10.64 8 13.28 8 16 8 C16 5.36 16 2.72 16 0 C18.64 0 21.28 0 24 0 C24 5.28 24 10.56 24 16 C13.44 16 2.88 16 -8 16 C-8 13.36 -8 10.72 -8 8 C-5.36 8 -2.72 8 0 8 C0 5.36 0 2.72 0 0 Z " fill="#C0C0C0" transform="translate(358,218)"/>
<path d="M0 0 C15.84 0 31.68 0 48 0 C48 2.64 48 5.28 48 8 C32.16 8 16.32 8 0 8 C0 5.36 0 2.72 0 0 Z " fill="#000000" transform="translate(230,162)"/>
<path d="M0 0 C15.84 0 31.68 0 48 0 C48 2.64 48 5.28 48 8 C32.16 8 16.32 8 0 8 C0 5.36 0 2.72 0 0 Z " fill="#000000" transform="translate(262,130)"/>
<path d="M0 0 C7.92 0 15.84 0 24 0 C24 2.64 24 5.28 24 8 C21.36 8 18.72 8 16 8 C16 13.28 16 18.56 16 24 C13.36 24 10.72 24 8 24 C8 18.72 8 13.44 8 8 C5.36 8 2.72 8 0 8 C0 5.36 0 2.72 0 0 Z " fill="#C0C0C0" transform="translate(326,194)"/>
<path d="M0 0 C2.64 0 5.28 0 8 0 C8 2.64 8 5.28 8 8 C10.64 8 13.28 8 16 8 C16 13.28 16 18.56 16 24 C10.72 24 5.44 24 0 24 C0 16.08 0 8.16 0 0 Z " fill="#C0C0C0" transform="translate(358,162)"/>
<path d="M0 0 C5.28 0 10.56 0 16 0 C16 7.92 16 15.84 16 24 C13.36 24 10.72 24 8 24 C8 18.72 8 13.44 8 8 C5.36 8 2.72 8 0 8 C0 5.36 0 2.72 0 0 Z " fill="#0000FF" transform="translate(270,290)"/>
<path d="M0 0 C10.56 0 21.12 0 32 0 C32 2.64 32 5.28 32 8 C21.44 8 10.88 8 0 8 C0 5.36 0 2.72 0 0 Z " fill="#000000" transform="translate(238,282)"/>
<path d="M0 0 C2.64 0 5.28 0 8 0 C8 10.56 8 21.12 8 32 C5.36 32 2.72 32 0 32 C0 21.44 0 10.88 0 0 Z " fill="#000000" transform="translate(270,250)"/>
<path d="M0 0 C2.64 0 5.28 0 8 0 C8 10.56 8 21.12 8 32 C5.36 32 2.72 32 0 32 C0 21.44 0 10.88 0 0 Z " fill="#000000" transform="translate(230,250)"/>
<path d="M0 0 C10.56 0 21.12 0 32 0 C32 2.64 32 5.28 32 8 C21.44 8 10.88 8 0 8 C0 5.36 0 2.72 0 0 Z " fill="#000000" transform="translate(238,242)"/>
<path d="M0 0 C10.56 0 21.12 0 32 0 C32 2.64 32 5.28 32 8 C21.44 8 10.88 8 0 8 C0 5.36 0 2.72 0 0 Z " fill="#808080" transform="translate(238,234)"/>
<path d="M0 0 C2.64 0 5.28 0 8 0 C8 5.28 8 10.56 8 16 C10.64 16 13.28 16 16 16 C16 18.64 16 21.28 16 24 C10.72 24 5.44 24 0 24 C0 16.08 0 8.16 0 0 Z " fill="#0000FF" transform="translate(222,218)"/>
<path d="M0 0 C5.28 0 10.56 0 16 0 C16 7.92 16 15.84 16 24 C13.36 24 10.72 24 8 24 C8 18.72 8 13.44 8 8 C5.36 8 2.72 8 0 8 C0 5.36 0 2.72 0 0 Z " fill="#C0C0C0" transform="translate(206,178)"/>
<path d="M0 0 C7.92 0 15.84 0 24 0 C24 2.64 24 5.28 24 8 C16.08 8 8.16 8 0 8 C0 5.36 0 2.72 0 0 Z " fill="#000000" transform="translate(278,354)"/>
<path d="M0 0 C7.92 0 15.84 0 24 0 C24 2.64 24 5.28 24 8 C16.08 8 8.16 8 0 8 C0 5.36 0 2.72 0 0 Z " fill="#000000" transform="translate(206,354)"/>
<path d="M0 0 C2.64 0 5.28 0 8 0 C8 2.64 8 5.28 8 8 C10.64 8 13.28 8 16 8 C16 10.64 16 13.28 16 16 C10.72 16 5.44 16 0 16 C0 10.72 0 5.44 0 0 Z " fill="#FFFF00" transform="translate(358,258)"/>
<path d="M0 0 C2.64 0 5.28 0 8 0 C8 7.92 8 15.84 8 24 C5.36 24 2.72 24 0 24 C0 16.08 0 8.16 0 0 Z " fill="#C0C0C0" transform="translate(222,194)"/>
<path d="M0 0 C7.92 0 15.84 0 24 0 C24 2.64 24 5.28 24 8 C16.08 8 8.16 8 0 8 C0 5.36 0 2.72 0 0 Z " fill="#000000" transform="translate(278,170)"/>
<path d="M0 0 C5.28 0 10.56 0 16 0 C16 5.28 16 10.56 16 16 C13.36 16 10.72 16 8 16 C8 13.36 8 10.72 8 8 C5.36 8 2.72 8 0 8 C0 5.36 0 2.72 0 0 Z " fill="#C0C0C0" transform="translate(238,146)"/>
<path d="M0 0 C7.92 0 15.84 0 24 0 C24 2.64 24 5.28 24 8 C16.08 8 8.16 8 0 8 C0 5.36 0 2.72 0 0 Z " fill="#000000" transform="translate(310,138)"/>
<path d="M0 0 C7.92 0 15.84 0 24 0 C24 2.64 24 5.28 24 8 C16.08 8 8.16 8 0 8 C0 5.36 0 2.72 0 0 Z " fill="#000000" transform="translate(238,138)"/>
<path d="M0 0 C5.28 0 10.56 0 16 0 C16 2.64 16 5.28 16 8 C10.72 8 5.44 8 0 8 C0 5.36 0 2.72 0 0 Z " fill="#000000" transform="translate(302,346)"/>
<path d="M0 0 C5.28 0 10.56 0 16 0 C16 2.64 16 5.28 16 8 C10.72 8 5.44 8 0 8 C0 5.36 0 2.72 0 0 Z " fill="#000000" transform="translate(190,346)"/>
<path d="M0 0 C2.64 0 5.28 0 8 0 C8 5.28 8 10.56 8 16 C5.36 16 2.72 16 0 16 C0 10.72 0 5.44 0 0 Z " fill="#0000FF" transform="translate(294,330)"/>
<path d="M0 0 C2.64 0 5.28 0 8 0 C8 5.28 8 10.56 8 16 C5.36 16 2.72 16 0 16 C0 10.72 0 5.44 0 0 Z " fill="#0000FF" transform="translate(286,314)"/>
<path d="M0 0 C2.64 0 5.28 0 8 0 C8 5.28 8 10.56 8 16 C5.36 16 2.72 16 0 16 C0 10.72 0 5.44 0 0 Z " fill="#000000" transform="translate(166,314)"/>
<path d="M0 0 C2.64 0 5.28 0 8 0 C8 5.28 8 10.56 8 16 C5.36 16 2.72 16 0 16 C0 10.72 0 5.44 0 0 Z " fill="#000000" transform="translate(158,298)"/>
<path d="M0 0 C5.28 0 10.56 0 16 0 C16 2.64 16 5.28 16 8 C10.72 8 5.44 8 0 8 C0 5.36 0 2.72 0 0 Z " fill="#008080" transform="translate(270,290)"/>
<path d="M0 0 C2.64 0 5.28 0 8 0 C8 5.28 8 10.56 8 16 C5.36 16 2.72 16 0 16 C0 10.72 0 5.44 0 0 Z " fill="#C0C0C0" transform="translate(230,282)"/>
<path d="M0 0 C2.64 0 5.28 0 8 0 C8 5.28 8 10.56 8 16 C5.36 16 2.72 16 0 16 C0 10.72 0 5.44 0 0 Z " fill="#000000" transform="translate(366,282)"/>
<path d="M0 0 C2.64 0 5.28 0 8 0 C8 5.28 8 10.56 8 16 C5.36 16 2.72 16 0 16 C0 10.72 0 5.44 0 0 Z " fill="#000000" transform="translate(374,266)"/>
<path d="M0 0 C2.64 0 5.28 0 8 0 C8 5.28 8 10.56 8 16 C5.36 16 2.72 16 0 16 C0 10.72 0 5.44 0 0 Z " fill="#000000" transform="translate(342,218)"/>
<path d="M0 0 C2.64 0 5.28 0 8 0 C8 5.28 8 10.56 8 16 C5.36 16 2.72 16 0 16 C0 10.72 0 5.44 0 0 Z " fill="#000000" transform="translate(158,218)"/>
<path d="M0 0 C2.64 0 5.28 0 8 0 C8 5.28 8 10.56 8 16 C5.36 16 2.72 16 0 16 C0 10.72 0 5.44 0 0 Z " fill="#000000" transform="translate(334,202)"/>
<path d="M0 0 C2.64 0 5.28 0 8 0 C8 5.28 8 10.56 8 16 C5.36 16 2.72 16 0 16 C0 10.72 0 5.44 0 0 Z " fill="#0000FF" transform="translate(214,202)"/>
<path d="M0 0 C2.64 0 5.28 0 8 0 C8 5.28 8 10.56 8 16 C5.36 16 2.72 16 0 16 C0 10.72 0 5.44 0 0 Z " fill="#000000" transform="translate(166,202)"/>
<path d="M0 0 C2.64 0 5.28 0 8 0 C8 5.28 8 10.56 8 16 C5.36 16 2.72 16 0 16 C0 10.72 0 5.44 0 0 Z " fill="#000000" transform="translate(374,186)"/>
<path d="M0 0 C2.64 0 5.28 0 8 0 C8 5.28 8 10.56 8 16 C5.36 16 2.72 16 0 16 C0 10.72 0 5.44 0 0 Z " fill="#0000FF" transform="translate(206,186)"/>
<path d="M0 0 C5.28 0 10.56 0 16 0 C16 2.64 16 5.28 16 8 C10.72 8 5.44 8 0 8 C0 5.36 0 2.72 0 0 Z " fill="#000000" transform="translate(302,178)"/>
<path d="M0 0 C2.64 0 5.28 0 8 0 C8 5.28 8 10.56 8 16 C5.36 16 2.72 16 0 16 C0 10.72 0 5.44 0 0 Z " fill="#000000" transform="translate(366,170)"/>
<path d="M0 0 C5.28 0 10.56 0 16 0 C16 2.64 16 5.28 16 8 C10.72 8 5.44 8 0 8 C0 5.36 0 2.72 0 0 Z " fill="#000000" transform="translate(334,146)"/>
<path d="M0 0 C5.28 0 10.56 0 16 0 C16 2.64 16 5.28 16 8 C10.72 8 5.44 8 0 8 C0 5.36 0 2.72 0 0 Z " fill="#000000" transform="translate(222,146)"/>
<path d="M0 0 C2.64 0 5.28 0 8 0 C8 2.64 8 5.28 8 8 C5.36 8 2.72 8 0 8 C0 5.36 0 2.72 0 0 Z " fill="#808080" transform="translate(294,346)"/>
<path d="M0 0 C2.64 0 5.28 0 8 0 C8 2.64 8 5.28 8 8 C5.36 8 2.72 8 0 8 C0 5.36 0 2.72 0 0 Z " fill="#FFFFFF" transform="translate(214,346)"/>
<path d="M0 0 C2.64 0 5.28 0 8 0 C8 2.64 8 5.28 8 8 C5.36 8 2.72 8 0 8 C0 5.36 0 2.72 0 0 Z " fill="#C0C0C0" transform="translate(206,346)"/>
<path d="M0 0 C2.64 0 5.28 0 8 0 C8 2.64 8 5.28 8 8 C5.36 8 2.72 8 0 8 C0 5.36 0 2.72 0 0 Z " fill="#000000" transform="translate(318,338)"/>
<path d="M0 0 C2.64 0 5.28 0 8 0 C8 2.64 8 5.28 8 8 C5.36 8 2.72 8 0 8 C0 5.36 0 2.72 0 0 Z " fill="#FFFFFF" transform="translate(222,338)"/>
<path d="M0 0 C2.64 0 5.28 0 8 0 C8 2.64 8 5.28 8 8 C5.36 8 2.72 8 0 8 C0 5.36 0 2.72 0 0 Z " fill="#C0C0C0" transform="translate(214,338)"/>
<path d="M0 0 C2.64 0 5.28 0 8 0 C8 2.64 8 5.28 8 8 C5.36 8 2.72 8 0 8 C0 5.36 0 2.72 0 0 Z " fill="#FFFFFF" transform="translate(206,338)"/>
<path d="M0 0 C2.64 0 5.28 0 8 0 C8 2.64 8 5.28 8 8 C5.36 8 2.72 8 0 8 C0 5.36 0 2.72 0 0 Z " fill="#C0C0C0" transform="translate(198,338)"/>
<path d="M0 0 C2.64 0 5.28 0 8 0 C8 2.64 8 5.28 8 8 C5.36 8 2.72 8 0 8 C0 5.36 0 2.72 0 0 Z " fill="#000000" transform="translate(182,338)"/>
<path d="M0 0 C2.64 0 5.28 0 8 0 C8 2.64 8 5.28 8 8 C5.36 8 2.72 8 0 8 C0 5.36 0 2.72 0 0 Z " fill="#000000" transform="translate(326,330)"/>
<path d="M0 0 C2.64 0 5.28 0 8 0 C8 2.64 8 5.28 8 8 C5.36 8 2.72 8 0 8 C0 5.36 0 2.72 0 0 Z " fill="#808080" transform="translate(286,330)"/>
<path d="M0 0 C2.64 0 5.28 0 8 0 C8 2.64 8 5.28 8 8 C5.36 8 2.72 8 0 8 C0 5.36 0 2.72 0 0 Z " fill="#FFFFFF" transform="translate(230,330)"/>
<path d="M0 0 C2.64 0 5.28 0 8 0 C8 2.64 8 5.28 8 8 C5.36 8 2.72 8 0 8 C0 5.36 0 2.72 0 0 Z " fill="#C0C0C0" transform="translate(222,330)"/>
<path d="M0 0 C2.64 0 5.28 0 8 0 C8 2.64 8 5.28 8 8 C5.36 8 2.72 8 0 8 C0 5.36 0 2.72 0 0 Z " fill="#FFFFFF" transform="translate(214,330)"/>
<path d="M0 0 C2.64 0 5.28 0 8 0 C8 2.64 8 5.28 8 8 C5.36 8 2.72 8 0 8 C0 5.36 0 2.72 0 0 Z " fill="#C0C0C0" transform="translate(206,330)"/>
<path d="M0 0 C2.64 0 5.28 0 8 0 C8 2.64 8 5.28 8 8 C5.36 8 2.72 8 0 8 C0 5.36 0 2.72 0 0 Z " fill="#000000" transform="translate(174,330)"/>
<path d="M0 0 C2.64 0 5.28 0 8 0 C8 2.64 8 5.28 8 8 C5.36 8 2.72 8 0 8 C0 5.36 0 2.72 0 0 Z " fill="#C0C0C0" transform="translate(214,322)"/>
<path d="M0 0 C2.64 0 5.28 0 8 0 C8 2.64 8 5.28 8 8 C5.36 8 2.72 8 0 8 C0 5.36 0 2.72 0 0 Z " fill="#C0C0C0" transform="translate(174,322)"/>
<path d="M0 0 C2.64 0 5.28 0 8 0 C8 2.64 8 5.28 8 8 C5.36 8 2.72 8 0 8 C0 5.36 0 2.72 0 0 Z " fill="#808080" transform="translate(278,314)"/>
<path d="M0 0 C2.64 0 5.28 0 8 0 C8 2.64 8 5.28 8 8 C5.36 8 2.72 8 0 8 C0 5.36 0 2.72 0 0 Z " fill="#C0C0C0" transform="translate(222,314)"/>
<path d="M0 0 C2.64 0 5.28 0 8 0 C8 2.64 8 5.28 8 8 C5.36 8 2.72 8 0 8 C0 5.36 0 2.72 0 0 Z " fill="#C0C0C0" transform="translate(182,314)"/>
<path d="M0 0 C2.64 0 5.28 0 8 0 C8 2.64 8 5.28 8 8 C5.36 8 2.72 8 0 8 C0 5.36 0 2.72 0 0 Z " fill="#808080" transform="translate(174,314)"/>
<path d="M0 0 C2.64 0 5.28 0 8 0 C8 2.64 8 5.28 8 8 C5.36 8 2.72 8 0 8 C0 5.36 0 2.72 0 0 Z " fill="#C0C0C0" transform="translate(190,306)"/>
<path d="M0 0 C2.64 0 5.28 0 8 0 C8 2.64 8 5.28 8 8 C5.36 8 2.72 8 0 8 C0 5.36 0 2.72 0 0 Z " fill="#808080" transform="translate(182,306)"/>
<path d="M0 0 C2.64 0 5.28 0 8 0 C8 2.64 8 5.28 8 8 C5.36 8 2.72 8 0 8 C0 5.36 0 2.72 0 0 Z " fill="#C0C0C0" transform="translate(174,306)"/>
<path d="M0 0 C2.64 0 5.28 0 8 0 C8 2.64 8 5.28 8 8 C5.36 8 2.72 8 0 8 C0 5.36 0 2.72 0 0 Z " fill="#808080" transform="translate(166,306)"/>
<path d="M0 0 C2.64 0 5.28 0 8 0 C8 2.64 8 5.28 8 8 C5.36 8 2.72 8 0 8 C0 5.36 0 2.72 0 0 Z " fill="#000000" transform="translate(358,298)"/>
<path d="M0 0 C2.64 0 5.28 0 8 0 C8 2.64 8 5.28 8 8 C5.36 8 2.72 8 0 8 C0 5.36 0 2.72 0 0 Z " fill="#008080" transform="translate(350,298)"/>
<path d="M0 0 C2.64 0 5.28 0 8 0 C8 2.64 8 5.28 8 8 C5.36 8 2.72 8 0 8 C0 5.36 0 2.72 0 0 Z " fill="#808080" transform="translate(270,298)"/>
<path d="M0 0 C2.64 0 5.28 0 8 0 C8 2.64 8 5.28 8 8 C5.36 8 2.72 8 0 8 C0 5.36 0 2.72 0 0 Z " fill="#C0C0C0" transform="translate(262,298)"/>
<path d="M0 0 C2.64 0 5.28 0 8 0 C8 2.64 8 5.28 8 8 C5.36 8 2.72 8 0 8 C0 5.36 0 2.72 0 0 Z " fill="#C0C0C0" transform="translate(198,298)"/>
<path d="M0 0 C2.64 0 5.28 0 8 0 C8 2.64 8 5.28 8 8 C5.36 8 2.72 8 0 8 C0 5.36 0 2.72 0 0 Z " fill="#808080" transform="translate(190,298)"/>
<path d="M0 0 C2.64 0 5.28 0 8 0 C8 2.64 8 5.28 8 8 C5.36 8 2.72 8 0 8 C0 5.36 0 2.72 0 0 Z " fill="#C0C0C0" transform="translate(182,298)"/>
<path d="M0 0 C2.64 0 5.28 0 8 0 C8 2.64 8 5.28 8 8 C5.36 8 2.72 8 0 8 C0 5.36 0 2.72 0 0 Z " fill="#808080" transform="translate(174,298)"/>
<path d="M0 0 C2.64 0 5.28 0 8 0 C8 2.64 8 5.28 8 8 C5.36 8 2.72 8 0 8 C0 5.36 0 2.72 0 0 Z " fill="#C0C0C0" transform="translate(166,298)"/>
<path d="M0 0 C2.64 0 5.28 0 8 0 C8 2.64 8 5.28 8 8 C5.36 8 2.72 8 0 8 C0 5.36 0 2.72 0 0 Z " fill="#C0C0C0" transform="translate(358,290)"/>
<path d="M0 0 C2.64 0 5.28 0 8 0 C8 2.64 8 5.28 8 8 C5.36 8 2.72 8 0 8 C0 5.36 0 2.72 0 0 Z " fill="#00FFFF" transform="translate(302,290)"/>
<path d="M0 0 C2.64 0 5.28 0 8 0 C8 2.64 8 5.28 8 8 C5.36 8 2.72 8 0 8 C0 5.36 0 2.72 0 0 Z " fill="#0000FF" transform="translate(270,290)"/>
<path d="M0 0 C2.64 0 5.28 0 8 0 C8 2.64 8 5.28 8 8 C5.36 8 2.72 8 0 8 C0 5.36 0 2.72 0 0 Z " fill="#C0C0C0" transform="translate(206,290)"/>
<path d="M0 0 C2.64 0 5.28 0 8 0 C8 2.64 8 5.28 8 8 C5.36 8 2.72 8 0 8 C0 5.36 0 2.72 0 0 Z " fill="#808080" transform="translate(198,290)"/>
<path d="M0 0 C2.64 0 5.28 0 8 0 C8 2.64 8 5.28 8 8 C5.36 8 2.72 8 0 8 C0 5.36 0 2.72 0 0 Z " fill="#C0C0C0" transform="translate(190,290)"/>
<path d="M0 0 C2.64 0 5.28 0 8 0 C8 2.64 8 5.28 8 8 C5.36 8 2.72 8 0 8 C0 5.36 0 2.72 0 0 Z " fill="#808080" transform="translate(182,290)"/>
<path d="M0 0 C2.64 0 5.28 0 8 0 C8 2.64 8 5.28 8 8 C5.36 8 2.72 8 0 8 C0 5.36 0 2.72 0 0 Z " fill="#C0C0C0" transform="translate(174,290)"/>
<path d="M0 0 C2.64 0 5.28 0 8 0 C8 2.64 8 5.28 8 8 C5.36 8 2.72 8 0 8 C0 5.36 0 2.72 0 0 Z " fill="#808080" transform="translate(166,290)"/>
<path d="M0 0 C2.64 0 5.28 0 8 0 C8 2.64 8 5.28 8 8 C5.36 8 2.72 8 0 8 C0 5.36 0 2.72 0 0 Z " fill="#C0C0C0" transform="translate(158,290)"/>
<path d="M0 0 C2.64 0 5.28 0 8 0 C8 2.64 8 5.28 8 8 C5.36 8 2.72 8 0 8 C0 5.36 0 2.72 0 0 Z " fill="#00FFFF" transform="translate(294,282)"/>
<path d="M0 0 C2.64 0 5.28 0 8 0 C8 2.64 8 5.28 8 8 C5.36 8 2.72 8 0 8 C0 5.36 0 2.72 0 0 Z " fill="#808080" transform="translate(270,282)"/>
<path d="M0 0 C2.64 0 5.28 0 8 0 C8 2.64 8 5.28 8 8 C5.36 8 2.72 8 0 8 C0 5.36 0 2.72 0 0 Z " fill="#808080" transform="translate(230,282)"/>
<path d="M0 0 C2.64 0 5.28 0 8 0 C8 2.64 8 5.28 8 8 C5.36 8 2.72 8 0 8 C0 5.36 0 2.72 0 0 Z " fill="#C0C0C0" transform="translate(214,282)"/>
<path d="M0 0 C2.64 0 5.28 0 8 0 C8 2.64 8 5.28 8 8 C5.36 8 2.72 8 0 8 C0 5.36 0 2.72 0 0 Z " fill="#808080" transform="translate(206,282)"/>
<path d="M0 0 C2.64 0 5.28 0 8 0 C8 2.64 8 5.28 8 8 C5.36 8 2.72 8 0 8 C0 5.36 0 2.72 0 0 Z " fill="#C0C0C0" transform="translate(198,282)"/>
<path d="M0 0 C2.64 0 5.28 0 8 0 C8 2.64 8 5.28 8 8 C5.36 8 2.72 8 0 8 C0 5.36 0 2.72 0 0 Z " fill="#808080" transform="translate(190,282)"/>
<path d="M0 0 C2.64 0 5.28 0 8 0 C8 2.64 8 5.28 8 8 C5.36 8 2.72 8 0 8 C0 5.36 0 2.72 0 0 Z " fill="#C0C0C0" transform="translate(182,282)"/>
<path d="M0 0 C2.64 0 5.28 0 8 0 C8 2.64 8 5.28 8 8 C5.36 8 2.72 8 0 8 C0 5.36 0 2.72 0 0 Z " fill="#808080" transform="translate(174,282)"/>
<path d="M0 0 C2.64 0 5.28 0 8 0 C8 2.64 8 5.28 8 8 C5.36 8 2.72 8 0 8 C0 5.36 0 2.72 0 0 Z " fill="#C0C0C0" transform="translate(166,282)"/>
<path d="M0 0 C2.64 0 5.28 0 8 0 C8 2.64 8 5.28 8 8 C5.36 8 2.72 8 0 8 C0 5.36 0 2.72 0 0 Z " fill="#808080" transform="translate(158,282)"/>
<path d="M0 0 C2.64 0 5.28 0 8 0 C8 2.64 8 5.28 8 8 C5.36 8 2.72 8 0 8 C0 5.36 0 2.72 0 0 Z " fill="#FFFF00" transform="translate(294,274)"/>
<path d="M0 0 C2.64 0 5.28 0 8 0 C8 2.64 8 5.28 8 8 C5.36 8 2.72 8 0 8 C0 5.36 0 2.72 0 0 Z " fill="#00FFFF" transform="translate(286,274)"/>
<path d="M0 0 C2.64 0 5.28 0 8 0 C8 2.64 8 5.28 8 8 C5.36 8 2.72 8 0 8 C0 5.36 0 2.72 0 0 Z " fill="#808080" transform="translate(198,274)"/>
<path d="M0 0 C2.64 0 5.28 0 8 0 C8 2.64 8 5.28 8 8 C5.36 8 2.72 8 0 8 C0 5.36 0 2.72 0 0 Z " fill="#808080" transform="translate(182,274)"/>
<path d="M0 0 C2.64 0 5.28 0 8 0 C8 2.64 8 5.28 8 8 C5.36 8 2.72 8 0 8 C0 5.36 0 2.72 0 0 Z " fill="#808080" transform="translate(166,274)"/>
<path d="M0 0 C2.64 0 5.28 0 8 0 C8 2.64 8 5.28 8 8 C5.36 8 2.72 8 0 8 C0 5.36 0 2.72 0 0 Z " fill="#808080" transform="translate(334,250)"/>
<path d="M0 0 C2.64 0 5.28 0 8 0 C8 2.64 8 5.28 8 8 C5.36 8 2.72 8 0 8 C0 5.36 0 2.72 0 0 Z " fill="#808080" transform="translate(318,250)"/>
<path d="M0 0 C2.64 0 5.28 0 8 0 C8 2.64 8 5.28 8 8 C5.36 8 2.72 8 0 8 C0 5.36 0 2.72 0 0 Z " fill="#808080" transform="translate(302,250)"/>
<path d="M0 0 C2.64 0 5.28 0 8 0 C8 2.64 8 5.28 8 8 C5.36 8 2.72 8 0 8 C0 5.36 0 2.72 0 0 Z " fill="#00FFFF" transform="translate(214,250)"/>
<path d="M0 0 C2.64 0 5.28 0 8 0 C8 2.64 8 5.28 8 8 C5.36 8 2.72 8 0 8 C0 5.36 0 2.72 0 0 Z " fill="#FFFF00" transform="translate(206,250)"/>
<path d="M0 0 C2.64 0 5.28 0 8 0 C8 2.64 8 5.28 8 8 C5.36 8 2.72 8 0 8 C0 5.36 0 2.72 0 0 Z " fill="#808080" transform="translate(342,242)"/>
<path d="M0 0 C2.64 0 5.28 0 8 0 C8 2.64 8 5.28 8 8 C5.36 8 2.72 8 0 8 C0 5.36 0 2.72 0 0 Z " fill="#C0C0C0" transform="translate(334,242)"/>
<path d="M0 0 C2.64 0 5.28 0 8 0 C8 2.64 8 5.28 8 8 C5.36 8 2.72 8 0 8 C0 5.36 0 2.72 0 0 Z " fill="#808080" transform="translate(326,242)"/>
<path d="M0 0 C2.64 0 5.28 0 8 0 C8 2.64 8 5.28 8 8 C5.36 8 2.72 8 0 8 C0 5.36 0 2.72 0 0 Z " fill="#C0C0C0" transform="translate(318,242)"/>
<path d="M0 0 C2.64 0 5.28 0 8 0 C8 2.64 8 5.28 8 8 C5.36 8 2.72 8 0 8 C0 5.36 0 2.72 0 0 Z " fill="#808080" transform="translate(310,242)"/>
<path d="M0 0 C2.64 0 5.28 0 8 0 C8 2.64 8 5.28 8 8 C5.36 8 2.72 8 0 8 C0 5.36 0 2.72 0 0 Z " fill="#808080" transform="translate(294,242)"/>
<path d="M0 0 C2.64 0 5.28 0 8 0 C8 2.64 8 5.28 8 8 C5.36 8 2.72 8 0 8 C0 5.36 0 2.72 0 0 Z " fill="#C0C0C0" transform="translate(286,242)"/>
<path d="M0 0 C2.64 0 5.28 0 8 0 C8 2.64 8 5.28 8 8 C5.36 8 2.72 8 0 8 C0 5.36 0 2.72 0 0 Z " fill="#808080" transform="translate(270,242)"/>
<path d="M0 0 C2.64 0 5.28 0 8 0 C8 2.64 8 5.28 8 8 C5.36 8 2.72 8 0 8 C0 5.36 0 2.72 0 0 Z " fill="#808080" transform="translate(230,242)"/>
<path d="M0 0 C2.64 0 5.28 0 8 0 C8 2.64 8 5.28 8 8 C5.36 8 2.72 8 0 8 C0 5.36 0 2.72 0 0 Z " fill="#00FFFF" transform="translate(206,242)"/>
<path d="M0 0 C2.64 0 5.28 0 8 0 C8 2.64 8 5.28 8 8 C5.36 8 2.72 8 0 8 C0 5.36 0 2.72 0 0 Z " fill="#C0C0C0" transform="translate(342,234)"/>
<path d="M0 0 C2.64 0 5.28 0 8 0 C8 2.64 8 5.28 8 8 C5.36 8 2.72 8 0 8 C0 5.36 0 2.72 0 0 Z " fill="#808080" transform="translate(334,234)"/>
<path d="M0 0 C2.64 0 5.28 0 8 0 C8 2.64 8 5.28 8 8 C5.36 8 2.72 8 0 8 C0 5.36 0 2.72 0 0 Z " fill="#C0C0C0" transform="translate(326,234)"/>
<path d="M0 0 C2.64 0 5.28 0 8 0 C8 2.64 8 5.28 8 8 C5.36 8 2.72 8 0 8 C0 5.36 0 2.72 0 0 Z " fill="#808080" transform="translate(318,234)"/>
<path d="M0 0 C2.64 0 5.28 0 8 0 C8 2.64 8 5.28 8 8 C5.36 8 2.72 8 0 8 C0 5.36 0 2.72 0 0 Z " fill="#808080" transform="translate(302,234)"/>
<path d="M0 0 C2.64 0 5.28 0 8 0 C8 2.64 8 5.28 8 8 C5.36 8 2.72 8 0 8 C0 5.36 0 2.72 0 0 Z " fill="#C0C0C0" transform="translate(294,234)"/>
<path d="M0 0 C2.64 0 5.28 0 8 0 C8 2.64 8 5.28 8 8 C5.36 8 2.72 8 0 8 C0 5.36 0 2.72 0 0 Z " fill="#C0C0C0" transform="translate(270,234)"/>
<path d="M0 0 C2.64 0 5.28 0 8 0 C8 2.64 8 5.28 8 8 C5.36 8 2.72 8 0 8 C0 5.36 0 2.72 0 0 Z " fill="#0000FF" transform="translate(230,234)"/>
<path d="M0 0 C2.64 0 5.28 0 8 0 C8 2.64 8 5.28 8 8 C5.36 8 2.72 8 0 8 C0 5.36 0 2.72 0 0 Z " fill="#008080" transform="translate(222,234)"/>
<path d="M0 0 C2.64 0 5.28 0 8 0 C8 2.64 8 5.28 8 8 C5.36 8 2.72 8 0 8 C0 5.36 0 2.72 0 0 Z " fill="#00FFFF" transform="translate(198,234)"/>
<path d="M0 0 C2.64 0 5.28 0 8 0 C8 2.64 8 5.28 8 8 C5.36 8 2.72 8 0 8 C0 5.36 0 2.72 0 0 Z " fill="#C0C0C0" transform="translate(334,226)"/>
<path d="M0 0 C2.64 0 5.28 0 8 0 C8 2.64 8 5.28 8 8 C5.36 8 2.72 8 0 8 C0 5.36 0 2.72 0 0 Z " fill="#808080" transform="translate(326,226)"/>
<path d="M0 0 C2.64 0 5.28 0 8 0 C8 2.64 8 5.28 8 8 C5.36 8 2.72 8 0 8 C0 5.36 0 2.72 0 0 Z " fill="#808080" transform="translate(310,226)"/>
<path d="M0 0 C2.64 0 5.28 0 8 0 C8 2.64 8 5.28 8 8 C5.36 8 2.72 8 0 8 C0 5.36 0 2.72 0 0 Z " fill="#C0C0C0" transform="translate(302,226)"/>
<path d="M0 0 C2.64 0 5.28 0 8 0 C8 2.64 8 5.28 8 8 C5.36 8 2.72 8 0 8 C0 5.36 0 2.72 0 0 Z " fill="#C0C0C0" transform="translate(238,226)"/>
<path d="M0 0 C2.64 0 5.28 0 8 0 C8 2.64 8 5.28 8 8 C5.36 8 2.72 8 0 8 C0 5.36 0 2.72 0 0 Z " fill="#808080" transform="translate(230,226)"/>
<path d="M0 0 C2.64 0 5.28 0 8 0 C8 2.64 8 5.28 8 8 C5.36 8 2.72 8 0 8 C0 5.36 0 2.72 0 0 Z " fill="#808080" transform="translate(366,218)"/>
<path d="M0 0 C2.64 0 5.28 0 8 0 C8 2.64 8 5.28 8 8 C5.36 8 2.72 8 0 8 C0 5.36 0 2.72 0 0 Z " fill="#808080" transform="translate(350,218)"/>
<path d="M0 0 C2.64 0 5.28 0 8 0 C8 2.64 8 5.28 8 8 C5.36 8 2.72 8 0 8 C0 5.36 0 2.72 0 0 Z " fill="#808080" transform="translate(334,218)"/>
<path d="M0 0 C2.64 0 5.28 0 8 0 C8 2.64 8 5.28 8 8 C5.36 8 2.72 8 0 8 C0 5.36 0 2.72 0 0 Z " fill="#808080" transform="translate(318,218)"/>
<path d="M0 0 C2.64 0 5.28 0 8 0 C8 2.64 8 5.28 8 8 C5.36 8 2.72 8 0 8 C0 5.36 0 2.72 0 0 Z " fill="#C0C0C0" transform="translate(310,218)"/>
<path d="M0 0 C2.64 0 5.28 0 8 0 C8 2.64 8 5.28 8 8 C5.36 8 2.72 8 0 8 C0 5.36 0 2.72 0 0 Z " fill="#808080" transform="translate(374,210)"/>
<path d="M0 0 C2.64 0 5.28 0 8 0 C8 2.64 8 5.28 8 8 C5.36 8 2.72 8 0 8 C0 5.36 0 2.72 0 0 Z " fill="#C0C0C0" transform="translate(366,210)"/>
<path d="M0 0 C2.64 0 5.28 0 8 0 C8 2.64 8 5.28 8 8 C5.36 8 2.72 8 0 8 C0 5.36 0 2.72 0 0 Z " fill="#808080" transform="translate(358,210)"/>
<path d="M0 0 C2.64 0 5.28 0 8 0 C8 2.64 8 5.28 8 8 C5.36 8 2.72 8 0 8 C0 5.36 0 2.72 0 0 Z " fill="#C0C0C0" transform="translate(350,210)"/>
<path d="M0 0 C2.64 0 5.28 0 8 0 C8 2.64 8 5.28 8 8 C5.36 8 2.72 8 0 8 C0 5.36 0 2.72 0 0 Z " fill="#808080" transform="translate(342,210)"/>
<path d="M0 0 C2.64 0 5.28 0 8 0 C8 2.64 8 5.28 8 8 C5.36 8 2.72 8 0 8 C0 5.36 0 2.72 0 0 Z " fill="#808080" transform="translate(326,210)"/>
<path d="M0 0 C2.64 0 5.28 0 8 0 C8 2.64 8 5.28 8 8 C5.36 8 2.72 8 0 8 C0 5.36 0 2.72 0 0 Z " fill="#C0C0C0" transform="translate(318,210)"/>
<path d="M0 0 C2.64 0 5.28 0 8 0 C8 2.64 8 5.28 8 8 C5.36 8 2.72 8 0 8 C0 5.36 0 2.72 0 0 Z " fill="#C0C0C0" transform="translate(278,210)"/>
<path d="M0 0 C2.64 0 5.28 0 8 0 C8 2.64 8 5.28 8 8 C5.36 8 2.72 8 0 8 C0 5.36 0 2.72 0 0 Z " fill="#FFFFFF" transform="translate(270,210)"/>
<path d="M0 0 C2.64 0 5.28 0 8 0 C8 2.64 8 5.28 8 8 C5.36 8 2.72 8 0 8 C0 5.36 0 2.72 0 0 Z " fill="#808080" transform="translate(222,210)"/>
<path d="M0 0 C2.64 0 5.28 0 8 0 C8 2.64 8 5.28 8 8 C5.36 8 2.72 8 0 8 C0 5.36 0 2.72 0 0 Z " fill="#C0C0C0" transform="translate(374,202)"/>
<path d="M0 0 C2.64 0 5.28 0 8 0 C8 2.64 8 5.28 8 8 C5.36 8 2.72 8 0 8 C0 5.36 0 2.72 0 0 Z " fill="#808080" transform="translate(366,202)"/>
<path d="M0 0 C2.64 0 5.28 0 8 0 C8 2.64 8 5.28 8 8 C5.36 8 2.72 8 0 8 C0 5.36 0 2.72 0 0 Z " fill="#C0C0C0" transform="translate(358,202)"/>
<path d="M0 0 C2.64 0 5.28 0 8 0 C8 2.64 8 5.28 8 8 C5.36 8 2.72 8 0 8 C0 5.36 0 2.72 0 0 Z " fill="#C0C0C0" transform="translate(342,202)"/>
<path d="M0 0 C2.64 0 5.28 0 8 0 C8 2.64 8 5.28 8 8 C5.36 8 2.72 8 0 8 C0 5.36 0 2.72 0 0 Z " fill="#C0C0C0" transform="translate(326,202)"/>
<path d="M0 0 C2.64 0 5.28 0 8 0 C8 2.64 8 5.28 8 8 C5.36 8 2.72 8 0 8 C0 5.36 0 2.72 0 0 Z " fill="#C0C0C0" transform="translate(286,202)"/>
<path d="M0 0 C2.64 0 5.28 0 8 0 C8 2.64 8 5.28 8 8 C5.36 8 2.72 8 0 8 C0 5.36 0 2.72 0 0 Z " fill="#FFFFFF" transform="translate(278,202)"/>
<path d="M0 0 C2.64 0 5.28 0 8 0 C8 2.64 8 5.28 8 8 C5.36 8 2.72 8 0 8 C0 5.36 0 2.72 0 0 Z " fill="#C0C0C0" transform="translate(366,194)"/>
<path d="M0 0 C2.64 0 5.28 0 8 0 C8 2.64 8 5.28 8 8 C5.36 8 2.72 8 0 8 C0 5.36 0 2.72 0 0 Z " fill="#808080" transform="translate(358,194)"/>
<path d="M0 0 C2.64 0 5.28 0 8 0 C8 2.64 8 5.28 8 8 C5.36 8 2.72 8 0 8 C0 5.36 0 2.72 0 0 Z " fill="#C0C0C0" transform="translate(350,194)"/>
<path d="M0 0 C2.64 0 5.28 0 8 0 C8 2.64 8 5.28 8 8 C5.36 8 2.72 8 0 8 C0 5.36 0 2.72 0 0 Z " fill="#808080" transform="translate(342,194)"/>
<path d="M0 0 C2.64 0 5.28 0 8 0 C8 2.64 8 5.28 8 8 C5.36 8 2.72 8 0 8 C0 5.36 0 2.72 0 0 Z " fill="#000000" transform="translate(326,194)"/>
<path d="M0 0 C2.64 0 5.28 0 8 0 C8 2.64 8 5.28 8 8 C5.36 8 2.72 8 0 8 C0 5.36 0 2.72 0 0 Z " fill="#C0C0C0" transform="translate(294,194)"/>
<path d="M0 0 C2.64 0 5.28 0 8 0 C8 2.64 8 5.28 8 8 C5.36 8 2.72 8 0 8 C0 5.36 0 2.72 0 0 Z " fill="#FFFFFF" transform="translate(286,194)"/>
<path d="M0 0 C2.64 0 5.28 0 8 0 C8 2.64 8 5.28 8 8 C5.36 8 2.72 8 0 8 C0 5.36 0 2.72 0 0 Z " fill="#C0C0C0" transform="translate(278,194)"/>
<path d="M0 0 C2.64 0 5.28 0 8 0 C8 2.64 8 5.28 8 8 C5.36 8 2.72 8 0 8 C0 5.36 0 2.72 0 0 Z " fill="#FFFFFF" transform="translate(270,194)"/>
<path d="M0 0 C2.64 0 5.28 0 8 0 C8 2.64 8 5.28 8 8 C5.36 8 2.72 8 0 8 C0 5.36 0 2.72 0 0 Z " fill="#808080" transform="translate(214,194)"/>
<path d="M0 0 C2.64 0 5.28 0 8 0 C8 2.64 8 5.28 8 8 C5.36 8 2.72 8 0 8 C0 5.36 0 2.72 0 0 Z " fill="#000000" transform="translate(174,194)"/>
<path d="M0 0 C2.64 0 5.28 0 8 0 C8 2.64 8 5.28 8 8 C5.36 8 2.72 8 0 8 C0 5.36 0 2.72 0 0 Z " fill="#808080" transform="translate(366,186)"/>
<path d="M0 0 C2.64 0 5.28 0 8 0 C8 2.64 8 5.28 8 8 C5.36 8 2.72 8 0 8 C0 5.36 0 2.72 0 0 Z " fill="#808080" transform="translate(350,186)"/>
<path d="M0 0 C2.64 0 5.28 0 8 0 C8 2.64 8 5.28 8 8 C5.36 8 2.72 8 0 8 C0 5.36 0 2.72 0 0 Z " fill="#C0C0C0" transform="translate(342,186)"/>
<path d="M0 0 C2.64 0 5.28 0 8 0 C8 2.64 8 5.28 8 8 C5.36 8 2.72 8 0 8 C0 5.36 0 2.72 0 0 Z " fill="#000000" transform="translate(318,186)"/>
<path d="M0 0 C2.64 0 5.28 0 8 0 C8 2.64 8 5.28 8 8 C5.36 8 2.72 8 0 8 C0 5.36 0 2.72 0 0 Z " fill="#C0C0C0" transform="translate(302,186)"/>
<path d="M0 0 C2.64 0 5.28 0 8 0 C8 2.64 8 5.28 8 8 C5.36 8 2.72 8 0 8 C0 5.36 0 2.72 0 0 Z " fill="#FFFFFF" transform="translate(294,186)"/>
<path d="M0 0 C2.64 0 5.28 0 8 0 C8 2.64 8 5.28 8 8 C5.36 8 2.72 8 0 8 C0 5.36 0 2.72 0 0 Z " fill="#C0C0C0" transform="translate(286,186)"/>
<path d="M0 0 C2.64 0 5.28 0 8 0 C8 2.64 8 5.28 8 8 C5.36 8 2.72 8 0 8 C0 5.36 0 2.72 0 0 Z " fill="#FFFFFF" transform="translate(278,186)"/>
<path d="M0 0 C2.64 0 5.28 0 8 0 C8 2.64 8 5.28 8 8 C5.36 8 2.72 8 0 8 C0 5.36 0 2.72 0 0 Z " fill="#000000" transform="translate(182,186)"/>
<path d="M0 0 C2.64 0 5.28 0 8 0 C8 2.64 8 5.28 8 8 C5.36 8 2.72 8 0 8 C0 5.36 0 2.72 0 0 Z " fill="#808080" transform="translate(358,178)"/>
<path d="M0 0 C2.64 0 5.28 0 8 0 C8 2.64 8 5.28 8 8 C5.36 8 2.72 8 0 8 C0 5.36 0 2.72 0 0 Z " fill="#C0C0C0" transform="translate(350,178)"/>
<path d="M0 0 C2.64 0 5.28 0 8 0 C8 2.64 8 5.28 8 8 C5.36 8 2.72 8 0 8 C0 5.36 0 2.72 0 0 Z " fill="#FFFFFF" transform="translate(286,178)"/>
<path d="M0 0 C2.64 0 5.28 0 8 0 C8 2.64 8 5.28 8 8 C5.36 8 2.72 8 0 8 C0 5.36 0 2.72 0 0 Z " fill="#808080" transform="translate(206,178)"/>
<path d="M0 0 C2.64 0 5.28 0 8 0 C8 2.64 8 5.28 8 8 C5.36 8 2.72 8 0 8 C0 5.36 0 2.72 0 0 Z " fill="#C0C0C0" transform="translate(318,170)"/>
<path d="M0 0 C2.64 0 5.28 0 8 0 C8 2.64 8 5.28 8 8 C5.36 8 2.72 8 0 8 C0 5.36 0 2.72 0 0 Z " fill="#FFFFFF" transform="translate(310,170)"/>
<path d="M0 0 C2.64 0 5.28 0 8 0 C8 2.64 8 5.28 8 8 C5.36 8 2.72 8 0 8 C0 5.36 0 2.72 0 0 Z " fill="#C0C0C0" transform="translate(302,170)"/>
<path d="M0 0 C2.64 0 5.28 0 8 0 C8 2.64 8 5.28 8 8 C5.36 8 2.72 8 0 8 C0 5.36 0 2.72 0 0 Z " fill="#000000" transform="translate(358,162)"/>
<path d="M0 0 C2.64 0 5.28 0 8 0 C8 2.64 8 5.28 8 8 C5.36 8 2.72 8 0 8 C0 5.36 0 2.72 0 0 Z " fill="#C0C0C0" transform="translate(326,162)"/>
<path d="M0 0 C2.64 0 5.28 0 8 0 C8 2.64 8 5.28 8 8 C5.36 8 2.72 8 0 8 C0 5.36 0 2.72 0 0 Z " fill="#FFFFFF" transform="translate(318,162)"/>
<path d="M0 0 C2.64 0 5.28 0 8 0 C8 2.64 8 5.28 8 8 C5.36 8 2.72 8 0 8 C0 5.36 0 2.72 0 0 Z " fill="#C0C0C0" transform="translate(310,162)"/>
<path d="M0 0 C2.64 0 5.28 0 8 0 C8 2.64 8 5.28 8 8 C5.36 8 2.72 8 0 8 C0 5.36 0 2.72 0 0 Z " fill="#FFFFFF" transform="translate(302,162)"/>
<path d="M0 0 C2.64 0 5.28 0 8 0 C8 2.64 8 5.28 8 8 C5.36 8 2.72 8 0 8 C0 5.36 0 2.72 0 0 Z " fill="#000000" transform="translate(350,154)"/>
<path d="M0 0 C2.64 0 5.28 0 8 0 C8 2.64 8 5.28 8 8 C5.36 8 2.72 8 0 8 C0 5.36 0 2.72 0 0 Z " fill="#C0C0C0" transform="translate(334,154)"/>
<path d="M0 0 C2.64 0 5.28 0 8 0 C8 2.64 8 5.28 8 8 C5.36 8 2.72 8 0 8 C0 5.36 0 2.72 0 0 Z " fill="#FFFFFF" transform="translate(326,154)"/>
<path d="M0 0 C2.64 0 5.28 0 8 0 C8 2.64 8 5.28 8 8 C5.36 8 2.72 8 0 8 C0 5.36 0 2.72 0 0 Z " fill="#C0C0C0" transform="translate(318,154)"/>
<path d="M0 0 C2.64 0 5.28 0 8 0 C8 2.64 8 5.28 8 8 C5.36 8 2.72 8 0 8 C0 5.36 0 2.72 0 0 Z " fill="#FFFFFF" transform="translate(310,154)"/>
<path d="M0 0 C2.64 0 5.28 0 8 0 C8 2.64 8 5.28 8 8 C5.36 8 2.72 8 0 8 C0 5.36 0 2.72 0 0 Z " fill="#0000FF" transform="translate(238,154)"/>
<path d="M0 0 C2.64 0 5.28 0 8 0 C8 2.64 8 5.28 8 8 C5.36 8 2.72 8 0 8 C0 5.36 0 2.72 0 0 Z " fill="#000000" transform="translate(214,154)"/>
<path d="M0 0 C2.64 0 5.28 0 8 0 C8 2.64 8 5.28 8 8 C5.36 8 2.72 8 0 8 C0 5.36 0 2.72 0 0 Z " fill="#FFFFFF" transform="translate(318,146)"/>
<path d="M0 0 C2.64 0 5.28 0 8 0 C8 2.64 8 5.28 8 8 C5.36 8 2.72 8 0 8 C0 5.36 0 2.72 0 0 Z " fill="#808080" transform="translate(238,146)"/>
</svg>
