<?xml version="1.0" encoding="UTF-8"?>
<svg version="1.1" xmlns="http://www.w3.org/2000/svg" width="717" height="1381">
<path d="M0 0 C10.23 0 20.46 0 31 0 C31 0.99 31 1.98 31 3 C34.3 3 37.6 3 41 3 C41 3.66 41 4.32 41 5 C42.65 5 44.3 5 46 5 C46 5.99 46 6.98 46 8 C46.66 8 47.32 8 48 8 C48 8.66 48 9.32 48 10 C49.65 10 51.3 10 53 10 C53 10.99 53 11.98 53 13 C53.66 13 54.32 13 55 13 C55 13.66 55 14.32 55 15 C55.99 15 56.98 15 58 15 C58 15.66 58 16.32 58 17 C58.66 17 59.32 17 60 17 C60 17.99 60 18.98 60 20 C60.66 20 61.32 20 62 20 C62 21.65 62 23.3 62 25 C64.64 25 67.28 25 70 25 C70 24.01 70 23.02 70 22 C72.97 22 75.94 22 79 22 C79 21.34 79 20.68 79 20 C83.95 20 88.9 20 94 20 C94 19.01 94 18.02 94 17 C96.31 17 98.62 17 101 17 C101 17.99 101 18.98 101 20 C103.31 20 105.62 20 108 20 C108 20.66 108 21.32 108 22 C109.65 22 111.3 22 113 22 C113 22.99 113 23.98 113 25 C115.31 25 117.62 25 120 25 C120 25.66 120 26.32 120 27 C120.99 27 121.98 27 123 27 C123 27.66 123 28.32 123 29 C123.66 29 124.32 29 125 29 C125 29.99 125 30.98 125 32 C125.99 32 126.98 32 128 32 C128 33.65 128 35.3 128 37 C128.66 37 129.32 37 130 37 C130 37.66 130 38.32 130 39 C130.66 39 131.32 39 132 39 C132 39.66 132 40.32 132 41 C132.99 41 133.98 41 135 41 C135 41.99 135 42.98 135 44 C135.66 44 136.32 44 137 44 C137 44.66 137 45.32 137 46 C137.99 46 138.98 46 140 46 C140 47.65 140 49.3 140 51 C140.66 51 141.32 51 142 51 C142 51.99 142 52.98 142 54 C142.66 54 143.32 54 144 54 C144 54.66 144 55.32 144 56 C144.99 56 145.98 56 147 56 C147 57.65 147 59.3 147 61 C147.66 61 148.32 61 149 61 C149 61.66 149 62.32 149 63 C149.99 63 150.98 63 152 63 C152 64.65 152 66.3 152 68 C152.66 68 153.32 68 154 68 C154 67.34 154 66.68 154 66 C154.99 66 155.98 66 157 66 C157 65.01 157 64.02 157 63 C157.66 63 158.32 63 159 63 C159 62.34 159 61.68 159 61 C160.65 61 162.3 61 164 61 C164 60.01 164 59.02 164 58 C167.96 58 171.92 58 176 58 C176 58.99 176 59.98 176 61 C177.65 61 179.3 61 181 61 C181 61.66 181 62.32 181 63 C181.66 63 182.32 63 183 63 C183 63.99 183 64.98 183 66 C183.66 66 184.32 66 185 66 C185 66.66 185 67.32 185 68 C185.99 68 186.98 68 188 68 C188 69.65 188 71.3 188 73 C188.66 73 189.32 73 190 73 C190 73.66 190 74.32 190 75 C190.99 75 191.98 75 193 75 C193 82.26 193 89.52 193 97 C193.66 97 194.32 97 195 97 C195 104.26 195 111.52 195 119 C195.99 119 196.98 119 198 119 C198 128.57 198 138.14 198 148 C198.66 148 199.32 148 200 148 C200 162.19 200 176.38 200 191 C199.34 191 198.68 191 198 191 C198 198.92 198 206.84 198 215 C197.01 215 196.02 215 195 215 C195 223.91 195 232.82 195 242 C194.34 242 193.68 242 193 242 C193 244.97 193 247.94 193 251 C192.01 251 191.02 251 190 251 C190 253.64 190 256.28 190 259 C189.34 259 188.68 259 188 259 C188 261.97 188 264.94 188 268 C187.01 268 186.02 268 185 268 C185 269.65 185 271.3 185 273 C184.34 273 183.68 273 183 273 C183 274.65 183 276.3 183 278 C182.34 278 181.68 278 181 278 C181 279.65 181 281.3 181 283 C180.01 283 179.02 283 178 283 C178 283.66 178 284.32 178 285 C177.34 285 176.68 285 176 285 C176 286.65 176 288.3 176 290 C175.01 290 174.02 290 173 290 C173 291.65 173 293.3 173 295 C172.34 295 171.68 295 171 295 C171 295.66 171 296.32 171 297 C170.34 297 169.68 297 169 297 C169 297.99 169 298.98 169 300 C168.01 300 167.02 300 166 300 C166 300.66 166 301.32 166 302 C165.34 302 164.68 302 164 302 C164 302.66 164 303.32 164 304 C163.01 304 162.02 304 161 304 C161 304.99 161 305.98 161 307 C160.34 307 159.68 307 159 307 C159 307.66 159 308.32 159 309 C158.34 309 157.68 309 157 309 C157 309.99 157 310.98 157 312 C156.01 312 155.02 312 154 312 C154 313.65 154 315.3 154 317 C153.34 317 152.68 317 152 317 C152 317.66 152 318.32 152 319 C151.01 319 150.02 319 149 319 C149 319.66 149 320.32 149 321 C148.34 321 147.68 321 147 321 C147 322.65 147 324.3 147 326 C146.01 326 145.02 326 144 326 C144 328.31 144 330.62 144 333 C143.34 333 142.68 333 142 333 C142 334.65 142 336.3 142 338 C141.34 338 140.68 338 140 338 C140 339.65 140 341.3 140 343 C139.01 343 138.02 343 137 343 C137 343.66 137 344.32 137 345 C136.34 345 135.68 345 135 345 C135 345.99 135 346.98 135 348 C134.01 348 133.02 348 132 348 C132 350.31 132 352.62 132 355 C131.34 355 130.68 355 130 355 C130 355.99 130 356.98 130 358 C129.34 358 128.68 358 128 358 C128 358.66 128 359.32 128 360 C127.01 360 126.02 360 125 360 C125 360.66 125 361.32 125 362 C124.34 362 123.68 362 123 362 C123 362.99 123 363.98 123 365 C122.01 365 121.02 365 120 365 C120 365.66 120 366.32 120 367 C119.34 367 118.68 367 118 367 C118 367.99 118 368.98 118 370 C117.01 370 116.02 370 115 370 C115 370.66 115 371.32 115 372 C114.34 372 113.68 372 113 372 C113 372.66 113 373.32 113 374 C112.34 374 111.68 374 111 374 C111 375.65 111 377.3 111 379 C110.01 379 109.02 379 108 379 C108 379.99 108 380.98 108 382 C107.34 382 106.68 382 106 382 C106 383.32 106 384.64 106 386 C105.01 386 104.02 386 103 386 C103 386.99 103 387.98 103 389 C102.34 389 101.68 389 101 389 C101 389.66 101 390.32 101 391 C100.34 391 99.68 391 99 391 C99 392.65 99 394.3 99 396 C98.01 396 97.02 396 96 396 C96 396.99 96 397.98 96 399 C95.34 399 94.68 399 94 399 C94 399.66 94 400.32 94 401 C91.69 401 89.38 401 87 401 C87 401.66 87 402.32 87 403 C83.7 403 80.4 403 77 403 C77 403.99 77 404.98 77 406 C66.77 406 56.54 406 46 406 C46 405.01 46 404.02 46 403 C39.4 403 32.8 403 26 403 C26 404.65 26 406.3 26 408 C25.34 408 24.68 408 24 408 C24 408.99 24 409.98 24 411 C24.66 411 25.32 411 26 411 C26 411.66 26 412.32 26 413 C26.99 413 27.98 413 29 413 C29 414.65 29 416.3 29 418 C29.66 418 30.32 418 31 418 C31 419.65 31 421.3 31 423 C31.66 423 32.32 423 33 423 C33 425.31 33 427.62 33 430 C33.99 430 34.98 430 36 430 C36 431.65 36 433.3 36 435 C36.66 435 37.32 435 38 435 C38 436.65 38 438.3 38 440 C38.99 440 39.98 440 41 440 C41 442.97 41 445.94 41 449 C41.66 449 42.32 449 43 449 C43 450.65 43 452.3 43 454 C43.99 454 44.98 454 46 454 C46 454.66 46 455.32 46 456 C46.66 456 47.32 456 48 456 C48 457.65 48 459.3 48 461 C48.66 461 49.32 461 50 461 C50 463.64 50 466.28 50 469 C50.99 469 51.98 469 53 469 C53 470.32 53 471.64 53 473 C53.66 473 54.32 473 55 473 C55 475.64 55 478.28 55 481 C55.99 481 56.98 481 58 481 C58 483.31 58 485.62 58 488 C58.66 488 59.32 488 60 488 C60 489.65 60 491.3 60 493 C60.66 493 61.32 493 62 493 C62 494.32 62 495.64 62 497 C62.99 497 63.98 497 65 497 C65 500.3 65 503.6 65 507 C65.66 507 66.32 507 67 507 C67 507.99 67 508.98 67 510 C68.65 510 70.3 510 72 510 C72 510.66 72 511.32 72 512 C72.66 512 73.32 512 74 512 C74 514.31 74 516.62 74 519 C74.99 519 75.98 519 77 519 C77 520.65 77 522.3 77 524 C77.66 524 78.32 524 79 524 C79 525.65 79 527.3 79 529 C79.99 529 80.98 529 82 529 C82 530.65 82 532.3 82 534 C82.66 534 83.32 534 84 534 C84 535.32 84 536.64 84 538 C84.99 538 85.98 538 87 538 C87 540.64 87 543.28 87 546 C87.66 546 88.32 546 89 546 C89 546.66 89 547.32 89 548 C89.66 548 90.32 548 91 548 C91 548.99 91 549.98 91 551 C91.99 551 92.98 551 94 551 C94 553.97 94 556.94 94 560 C94.66 560 95.32 560 96 560 C96 562.31 96 564.62 96 567 C96.99 567 97.98 567 99 567 C99 568.65 99 570.3 99 572 C99.66 572 100.32 572 101 572 C101 572.99 101 573.98 101 575 C101.66 575 102.32 575 103 575 C103 576.32 103 577.64 103 579 C103.99 579 104.98 579 106 579 C106 580.65 106 582.3 106 584 C106.66 584 107.32 584 108 584 C108 586.64 108 589.28 108 592 C108.99 592 109.98 592 111 592 C111 593.32 111 594.64 111 596 C111.66 596 112.32 596 113 596 C113 599.3 113 602.6 113 606 C113.66 606 114.32 606 115 606 C115 606.66 115 607.32 115 608 C115.99 608 116.98 608 118 608 C118 608.99 118 609.98 118 611 C118.66 611 119.32 611 120 611 C120 612.65 120 614.3 120 616 C120.99 616 121.98 616 123 616 C123 616.66 123 617.32 123 618 C123.66 618 124.32 618 125 618 C125 620.31 125 622.62 125 625 C125.99 625 126.98 625 128 625 C128 626.65 128 628.3 128 630 C128.66 630 129.32 630 130 630 C130 631.65 130 633.3 130 635 C130.66 635 131.32 635 132 635 C132 636.65 132 638.3 132 640 C132.99 640 133.98 640 135 640 C135 642.31 135 644.62 135 647 C135.66 647 136.32 647 137 647 C137 648.65 137 650.3 137 652 C137.99 652 138.98 652 140 652 C140 652.66 140 653.32 140 654 C140.66 654 141.32 654 142 654 C142 657.3 142 660.6 142 664 C142.66 664 143.32 664 144 664 C144 665.65 144 667.3 144 669 C144.99 669 145.98 669 147 669 C147 670.65 147 672.3 147 674 C147.66 674 148.32 674 149 674 C149 675.32 149 676.64 149 678 C149.99 678 150.98 678 152 678 C152 679.65 152 681.3 152 683 C152.66 683 153.32 683 154 683 C154 685.31 154 687.62 154 690 C154.99 690 155.98 690 157 690 C157 691.65 157 693.3 157 695 C157.66 695 158.32 695 159 695 C159 696.65 159 698.3 159 700 C159.66 700 160.32 700 161 700 C161 701.65 161 703.3 161 705 C161.99 705 162.98 705 164 705 C164 705.66 164 706.32 164 707 C164.66 707 165.32 707 166 707 C166 708.65 166 710.3 166 712 C166.99 712 167.98 712 169 712 C169 713.65 169 715.3 169 717 C169.66 717 170.32 717 171 717 C171 720.3 171 723.6 171 727 C171.66 727 172.32 727 173 727 C173 727.66 173 728.32 173 729 C173.99 729 174.98 729 176 729 C176 730.65 176 732.3 176 734 C176.66 734 177.32 734 178 734 C178 734.66 178 735.32 178 736 C178.99 736 179.98 736 181 736 C181 736.99 181 737.98 181 739 C181.66 739 182.32 739 183 739 C183 740.65 183 742.3 183 744 C183.66 744 184.32 744 185 744 C185 744.66 185 745.32 185 746 C185.99 746 186.98 746 188 746 C188 747.65 188 749.3 188 751 C188.66 751 189.32 751 190 751 C190 752.65 190 754.3 190 756 C190.99 756 191.98 756 193 756 C193 757.32 193 758.64 193 760 C193.66 760 194.32 760 195 760 C195 761.65 195 763.3 195 765 C195.99 765 196.98 765 198 765 C198 766.65 198 768.3 198 770 C198.66 770 199.32 770 200 770 C200 770.99 200 771.98 200 773 C200.66 773 201.32 773 202 773 C202 774.32 202 775.64 202 777 C202.99 777 203.98 777 205 777 C205 778.65 205 780.3 205 782 C205.66 782 206.32 782 207 782 C207 782.99 207 783.98 207 785 C207.99 785 208.98 785 210 785 C210 786.32 210 787.64 210 789 C210.66 789 211.32 789 212 789 C212 789.99 212 790.98 212 792 C212.66 792 213.32 792 214 792 C214 792.66 214 793.32 214 794 C214.99 794 215.98 794 217 794 C217 794.99 217 795.98 217 797 C217.66 797 218.32 797 219 797 C219 797.66 219 798.32 219 799 C219.99 799 220.98 799 222 799 C222 800.65 222 802.3 222 804 C222.66 804 223.32 804 224 804 C224 804.66 224 805.32 224 806 C224.66 806 225.32 806 226 806 C226 807.65 226 809.3 226 811 C226.99 811 227.98 811 229 811 C229 812.65 229 814.3 229 816 C229.66 816 230.32 816 231 816 C231 817.65 231 819.3 231 821 C231.99 821 232.98 821 234 821 C234 821.66 234 822.32 234 823 C234.66 823 235.32 823 236 823 C236 824.65 236 826.3 236 828 C236.99 828 237.98 828 239 828 C239 829.65 239 831.3 239 833 C239.66 833 240.32 833 241 833 C241 833.66 241 834.32 241 835 C241.66 835 242.32 835 243 835 C243 836.65 243 838.3 243 840 C243.99 840 244.98 840 246 840 C246 841.65 246 843.3 246 845 C246.66 845 247.32 845 248 845 C248 847.31 248 849.62 248 852 C248.99 852 249.98 852 251 852 C251 854.31 251 856.62 251 859 C251.66 859 252.32 859 253 859 C253 860.65 253 862.3 253 864 C253.66 864 254.32 864 255 864 C255 864.99 255 865.98 255 867 C255.99 867 256.98 867 258 867 C258 867.66 258 868.32 258 869 C258.66 869 259.32 869 260 869 C260 869.66 260 870.32 260 871 C260.99 871 261.98 871 263 871 C263 871.99 263 872.98 263 874 C263.66 874 264.32 874 265 874 C265 874.66 265 875.32 265 876 C265.66 876 266.32 876 267 876 C267 878.31 267 880.62 267 883 C267.99 883 268.98 883 270 883 C270 883.99 270 884.98 270 886 C270.66 886 271.32 886 272 886 C272 887.65 272 889.3 272 891 C272.99 891 273.98 891 275 891 C275 892.65 275 894.3 275 896 C275.66 896 276.32 896 277 896 C277 897.32 277 898.64 277 900 C277.99 900 278.98 900 280 900 C280 900.99 280 901.98 280 903 C280.66 903 281.32 903 282 903 C282 904.65 282 906.3 282 908 C282.66 908 283.32 908 284 908 C284 909.32 284 910.64 284 912 C284.99 912 285.98 912 287 912 C287 913.65 287 915.3 287 917 C287.66 917 288.32 917 289 917 C289 919.64 289 922.28 289 925 C289.99 925 290.98 925 292 925 C292 926.32 292 927.64 292 929 C292.66 929 293.32 929 294 929 C294 929.99 294 930.98 294 932 C294.66 932 295.32 932 296 932 C296 933.65 296 935.3 296 937 C296.99 937 297.98 937 299 937 C299 937.66 299 938.32 299 939 C299.66 939 300.32 939 301 939 C301 939.66 301 940.32 301 941 C301.99 941 302.98 941 304 941 C304 942.65 304 944.3 304 946 C304.66 946 305.32 946 306 946 C306 946.99 306 947.98 306 949 C306.99 949 307.98 949 309 949 C309 949.66 309 950.32 309 951 C309.66 951 310.32 951 311 951 C311 952.65 311 954.3 311 956 C311.66 956 312.32 956 313 956 C313 956.66 313 957.32 313 958 C313.99 958 314.98 958 316 958 C316 958.99 316 959.98 316 961 C316.66 961 317.32 961 318 961 C318 962.65 318 964.3 318 966 C318.99 966 319.98 966 321 966 C321 966.66 321 967.32 321 968 C321.66 968 322.32 968 323 968 C323 969.65 323 971.3 323 973 C323.66 973 324.32 973 325 973 C325 973.66 325 974.32 325 975 C325.99 975 326.98 975 328 975 C328 976.65 328 978.3 328 980 C328.66 980 329.32 980 330 980 C330 980.66 330 981.32 330 982 C330.99 982 331.98 982 333 982 C333 983.65 333 985.3 333 987 C333.66 987 334.32 987 335 987 C335 987.99 335 988.98 335 990 C335.66 990 336.32 990 337 990 C337 991.32 337 992.64 337 994 C337.99 994 338.98 994 340 994 C340 994.99 340 995.98 340 997 C340.66 997 341.32 997 342 997 C342 998.65 342 1000.3 342 1002 C342.99 1002 343.98 1002 345 1002 C345 1002.66 345 1003.32 345 1004 C345.66 1004 346.32 1004 347 1004 C347 1005.65 347 1007.3 347 1009 C347.99 1009 348.98 1009 350 1009 C350 1009.66 350 1010.32 350 1011 C350.66 1011 351.32 1011 352 1011 C352 1012.65 352 1014.3 352 1016 C352.66 1016 353.32 1016 354 1016 C354 1016.99 354 1017.98 354 1019 C354.99 1019 355.98 1019 357 1019 C357 1019.66 357 1020.32 357 1021 C357.66 1021 358.32 1021 359 1021 C359 1021.66 359 1022.32 359 1023 C359.99 1023 360.98 1023 362 1023 C362 1024.65 362 1026.3 362 1028 C362.66 1028 363.32 1028 364 1028 C364 1029.65 364 1031.3 364 1033 C364.66 1033 365.32 1033 366 1033 C366 1034.65 366 1036.3 366 1038 C366.99 1038 367.98 1038 369 1038 C369 1039.65 369 1041.3 369 1043 C369.66 1043 370.32 1043 371 1043 C371 1044.65 371 1046.3 371 1048 C371.99 1048 372.98 1048 374 1048 C374 1048.66 374 1049.32 374 1050 C374.66 1050 375.32 1050 376 1050 C376 1051.65 376 1053.3 376 1055 C377.65 1055 379.3 1055 381 1055 C381 1055.66 381 1056.32 381 1057 C381.66 1057 382.32 1057 383 1057 C383 1058.65 383 1060.3 383 1062 C383.99 1062 384.98 1062 386 1062 C386 1062.66 386 1063.32 386 1064 C386.66 1064 387.32 1064 388 1064 C388 1065.65 388 1067.3 388 1069 C388.99 1069 389.98 1069 391 1069 C391 1069.99 391 1070.98 391 1072 C391.66 1072 392.32 1072 393 1072 C393 1072.66 393 1073.32 393 1074 C393.66 1074 394.32 1074 395 1074 C395 1074.99 395 1075.98 395 1077 C395.99 1077 396.98 1077 398 1077 C398 1077.66 398 1078.32 398 1079 C398.66 1079 399.32 1079 400 1079 C400 1080.65 400 1082.3 400 1084 C400.99 1084 401.98 1084 403 1084 C403 1084.66 403 1085.32 403 1086 C403.66 1086 404.32 1086 405 1086 C405 1087.65 405 1089.3 405 1091 C405.66 1091 406.32 1091 407 1091 C407 1092.65 407 1094.3 407 1096 C407.99 1096 408.98 1096 410 1096 C410 1097.65 410 1099.3 410 1101 C410.66 1101 411.32 1101 412 1101 C412 1101.66 412 1102.32 412 1103 C412.99 1103 413.98 1103 415 1103 C415 1104.65 415 1106.3 415 1108 C415.66 1108 416.32 1108 417 1108 C417 1108.66 417 1109.32 417 1110 C417.66 1110 418.32 1110 419 1110 C419 1111.65 419 1113.3 419 1115 C419.99 1115 420.98 1115 422 1115 C422 1115.99 422 1116.98 422 1118 C422.66 1118 423.32 1118 424 1118 C424 1119.32 424 1120.64 424 1122 C424.99 1122 425.98 1122 427 1122 C427 1122.99 427 1123.98 427 1125 C427.66 1125 428.32 1125 429 1125 C429 1126.65 429 1128.3 429 1130 C429.99 1130 430.98 1130 432 1130 C432 1130.66 432 1131.32 432 1132 C432.66 1132 433.32 1132 434 1132 C434 1133.65 434 1135.3 434 1137 C434.66 1137 435.32 1137 436 1137 C436 1137.66 436 1138.32 436 1139 C436.99 1139 437.98 1139 439 1139 C439 1139.99 439 1140.98 439 1142 C439.66 1142 440.32 1142 441 1142 C441 1142.66 441 1143.32 441 1144 C441.99 1144 442.98 1144 444 1144 C444 1144.66 444 1145.32 444 1146 C444.66 1146 445.32 1146 446 1146 C446 1147.65 446 1149.3 446 1151 C446.66 1151 447.32 1151 448 1151 C448 1152.65 448 1154.3 448 1156 C448.99 1156 449.98 1156 451 1156 C451 1156.99 451 1157.98 451 1159 C451.66 1159 452.32 1159 453 1159 C453 1160.32 453 1161.64 453 1163 C453.99 1163 454.98 1163 456 1163 C456 1163.99 456 1164.98 456 1166 C456.66 1166 457.32 1166 458 1166 C458 1166.66 458 1167.32 458 1168 C458.99 1168 459.98 1168 461 1168 C461 1168.99 461 1169.98 461 1171 C461.66 1171 462.32 1171 463 1171 C463 1172.32 463 1173.64 463 1175 C463.66 1175 464.32 1175 465 1175 C465 1175.99 465 1176.98 465 1178 C465.99 1178 466.98 1178 468 1178 C468 1179.65 468 1181.3 468 1183 C468.66 1183 469.32 1183 470 1183 C470 1183.66 470 1184.32 470 1185 C470.99 1185 471.98 1185 473 1185 C473 1185.66 473 1186.32 473 1187 C473.66 1187 474.32 1187 475 1187 C475 1187.99 475 1188.98 475 1190 C475.66 1190 476.32 1190 477 1190 C477 1190.66 477 1191.32 477 1192 C477.99 1192 478.98 1192 480 1192 C480 1192.99 480 1193.98 480 1195 C480.66 1195 481.32 1195 482 1195 C482 1196.65 482 1198.3 482 1200 C482.99 1200 483.98 1200 485 1200 C485 1200.66 485 1201.32 485 1202 C485.66 1202 486.32 1202 487 1202 C487 1203.65 487 1205.3 487 1207 C487.66 1207 488.32 1207 489 1207 C489 1207.66 489 1208.32 489 1209 C489.99 1209 490.98 1209 492 1209 C492 1210.65 492 1212.3 492 1214 C492.66 1214 493.32 1214 494 1214 C494 1215.65 494 1217.3 494 1219 C494.99 1219 495.98 1219 497 1219 C497 1220.65 497 1222.3 497 1224 C497.66 1224 498.32 1224 499 1224 C499 1224.66 499 1225.32 499 1226 C499.99 1226 500.98 1226 502 1226 C502 1226.99 502 1227.98 502 1229 C502.66 1229 503.32 1229 504 1229 C504 1229.66 504 1230.32 504 1231 C504.66 1231 505.32 1231 506 1231 C506 1232.65 506 1234.3 506 1236 C506.99 1236 507.98 1236 509 1236 C509 1237.65 509 1239.3 509 1241 C510.65 1241 512.3 1241 514 1241 C514 1241.66 514 1242.32 514 1243 C514.66 1243 515.32 1243 516 1243 C516 1243.66 516 1244.32 516 1245 C516.66 1245 517.32 1245 518 1245 C518 1246.65 518 1248.3 518 1250 C519.65 1250 521.3 1250 523 1250 C523 1250.99 523 1251.98 523 1253 C523.99 1253 524.98 1253 526 1253 C526 1253.66 526 1254.32 526 1255 C526.66 1255 527.32 1255 528 1255 C528 1255.66 528 1256.32 528 1257 C528.66 1257 529.32 1257 530 1257 C530 1258.65 530 1260.3 530 1262 C530.99 1262 531.98 1262 533 1262 C533 1262.99 533 1263.98 533 1265 C533.66 1265 534.32 1265 535 1265 C535 1266.65 535 1268.3 535 1270 C535.99 1270 536.98 1270 538 1270 C538 1271.32 538 1272.64 538 1274 C538.66 1274 539.32 1274 540 1274 C540 1275.65 540 1277.3 540 1279 C540.99 1279 541.98 1279 543 1279 C543 1280.65 543 1282.3 543 1284 C543.66 1284 544.32 1284 545 1284 C545 1284.66 545 1285.32 545 1286 C545.66 1286 546.32 1286 547 1286 C547 1286.99 547 1287.98 547 1289 C547.99 1289 548.98 1289 550 1289 C550 1289.66 550 1290.32 550 1291 C550.66 1291 551.32 1291 552 1291 C552 1291.99 552 1292.98 552 1294 C552.99 1294 553.98 1294 555 1294 C555 1294.66 555 1295.32 555 1296 C555.66 1296 556.32 1296 557 1296 C557 1296.66 557 1297.32 557 1298 C557.66 1298 558.32 1298 559 1298 C559 1298.99 559 1299.98 559 1301 C560.65 1301 562.3 1301 564 1301 C564 1301.66 564 1302.32 564 1303 C564.99 1303 565.98 1303 567 1303 C567 1303.99 567 1304.98 567 1306 C567.66 1306 568.32 1306 569 1306 C569 1307.65 569 1309.3 569 1311 C569.66 1311 570.32 1311 571 1311 C571 1311.66 571 1312.32 571 1313 C571.99 1313 572.98 1313 574 1313 C574 1314.65 574 1316.3 574 1318 C574.66 1318 575.32 1318 576 1318 C576 1319.65 576 1321.3 576 1323 C576.99 1323 577.98 1323 579 1323 C579 1323.66 579 1324.32 579 1325 C579.66 1325 580.32 1325 581 1325 C581 1326.65 581 1328.3 581 1330 C581.99 1330 582.98 1330 584 1330 C584 1330.66 584 1331.32 584 1332 C584.66 1332 585.32 1332 586 1332 C586 1333.65 586 1335.3 586 1337 C586.66 1337 587.32 1337 588 1337 C588 1338.65 588 1340.3 588 1342 C588.99 1342 589.98 1342 591 1342 C591 1342.66 591 1343.32 591 1344 C591.66 1344 592.32 1344 593 1344 C593 1344.99 593 1345.98 593 1347 C593.99 1347 594.98 1347 596 1347 C596 1348.65 596 1350.3 596 1352 C595.01 1352 594.02 1352 593 1352 C593 1352.66 593 1353.32 593 1354 C590.69 1354 588.38 1354 586 1354 C586 1354.66 586 1355.32 586 1356 C585.34 1356 584.68 1356 584 1356 C584 1356.99 584 1357.98 584 1359 C580.7 1359 577.4 1359 574 1359 C574 1359.66 574 1360.32 574 1361 C571.69 1361 569.38 1361 567 1361 C567 1360.34 567 1359.68 567 1359 C566.01 1359 565.02 1359 564 1359 C564 1359.66 564 1360.32 564 1361 C561.03 1361 558.06 1361 555 1361 C555 1360.34 555 1359.68 555 1359 C551.7 1359 548.4 1359 545 1359 C545 1359.66 545 1360.32 545 1361 C543.35 1361 541.7 1361 540 1361 C540 1360.34 540 1359.68 540 1359 C539.34 1359 538.68 1359 538 1359 C538 1359.66 538 1360.32 538 1361 C536.35 1361 534.7 1361 533 1361 C533 1360.34 533 1359.68 533 1359 C532.01 1359 531.02 1359 530 1359 C530 1358.01 530 1357.02 530 1356 C529.34 1356 528.68 1356 528 1356 C528 1355.34 528 1354.68 528 1354 C527.34 1354 526.68 1354 526 1354 C526 1352.35 526 1350.7 526 1349 C525.01 1349 524.02 1349 523 1349 C523 1348.34 523 1347.68 523 1347 C522.34 1347 521.68 1347 521 1347 C521 1346.01 521 1345.02 521 1344 C520.01 1344 519.02 1344 518 1344 C518 1342.68 518 1341.36 518 1340 C517.34 1340 516.68 1340 516 1340 C516 1338.35 516 1336.7 516 1335 C515.34 1335 514.68 1335 514 1335 C514 1333.35 514 1331.7 514 1330 C513.01 1330 512.02 1330 511 1330 C511 1329.01 511 1328.02 511 1327 C510.34 1327 509.68 1327 509 1327 C509 1325.68 509 1324.36 509 1323 C508.01 1323 507.02 1323 506 1323 C506 1322.01 506 1321.02 506 1320 C505.34 1320 504.68 1320 504 1320 C504 1319.34 504 1318.68 504 1318 C503.34 1318 502.68 1318 502 1318 C502 1317.01 502 1316.02 502 1315 C501.01 1315 500.02 1315 499 1315 C499 1312.69 499 1310.38 499 1308 C498.34 1308 497.68 1308 497 1308 C497 1307.34 497 1306.68 497 1306 C496.01 1306 495.02 1306 494 1306 C494 1305.01 494 1304.02 494 1303 C493.34 1303 492.68 1303 492 1303 C492 1301.35 492 1299.7 492 1298 C491.01 1298 490.02 1298 489 1298 C489 1297.34 489 1296.68 489 1296 C488.34 1296 487.68 1296 487 1296 C487 1294.35 487 1292.7 487 1291 C486.34 1291 485.68 1291 485 1291 C485 1290.34 485 1289.68 485 1289 C484.01 1289 483.02 1289 482 1289 C482 1288.01 482 1287.02 482 1286 C481.34 1286 480.68 1286 480 1286 C480 1284.68 480 1283.36 480 1282 C479.01 1282 478.02 1282 477 1282 C477 1281.01 477 1280.02 477 1279 C476.34 1279 475.68 1279 475 1279 C475 1278.34 475 1277.68 475 1277 C474.34 1277 473.68 1277 473 1277 C473 1276.01 473 1275.02 473 1274 C472.01 1274 471.02 1274 470 1274 C470 1272.68 470 1271.36 470 1270 C469.34 1270 468.68 1270 468 1270 C468 1268.35 468 1266.7 468 1265 C467.01 1265 466.02 1265 465 1265 C465 1264.01 465 1263.02 465 1262 C464.34 1262 463.68 1262 463 1262 C463 1261.34 463 1260.68 463 1260 C462.34 1260 461.68 1260 461 1260 C461 1258.35 461 1256.7 461 1255 C460.01 1255 459.02 1255 458 1255 C458 1254.34 458 1253.68 458 1253 C457.34 1253 456.68 1253 456 1253 C456 1252.01 456 1251.02 456 1250 C454.35 1250 452.7 1250 451 1250 C451 1249.34 451 1248.68 451 1248 C450.01 1248 449.02 1248 448 1248 C448 1247.01 448 1246.02 448 1245 C447.34 1245 446.68 1245 446 1245 C446 1243.68 446 1242.36 446 1241 C445.34 1241 444.68 1241 444 1241 C444 1240.01 444 1239.02 444 1238 C443.01 1238 442.02 1238 441 1238 C441 1236.35 441 1234.7 441 1233 C440.34 1233 439.68 1233 439 1233 C439 1232.34 439 1231.68 439 1231 C438.01 1231 437.02 1231 436 1231 C436 1229.35 436 1227.7 436 1226 C435.34 1226 434.68 1226 434 1226 C434 1225.34 434 1224.68 434 1224 C433.34 1224 432.68 1224 432 1224 C432 1222.35 432 1220.7 432 1219 C431.01 1219 430.02 1219 429 1219 C429 1217.35 429 1215.7 429 1214 C428.34 1214 427.68 1214 427 1214 C427 1212.35 427 1210.7 427 1209 C426.01 1209 425.02 1209 424 1209 C424 1208.34 424 1207.68 424 1207 C423.34 1207 422.68 1207 422 1207 C422 1205.35 422 1203.7 422 1202 C421.01 1202 420.02 1202 419 1202 C419 1201.34 419 1200.68 419 1200 C418.34 1200 417.68 1200 417 1200 C417 1198.35 417 1196.7 417 1195 C416.34 1195 415.68 1195 415 1195 C415 1194.01 415 1193.02 415 1192 C414.01 1192 413.02 1192 412 1192 C412 1190.35 412 1188.7 412 1187 C411.34 1187 410.68 1187 410 1187 C410 1186.34 410 1185.68 410 1185 C409.01 1185 408.02 1185 407 1185 C407 1184.34 407 1183.68 407 1183 C406.34 1183 405.68 1183 405 1183 C405 1181.35 405 1179.7 405 1178 C404.34 1178 403.68 1178 403 1178 C403 1177.01 403 1176.02 403 1175 C402.01 1175 401.02 1175 400 1175 C400 1174.34 400 1173.68 400 1173 C399.34 1173 398.68 1173 398 1173 C398 1171.35 398 1169.7 398 1168 C397.01 1168 396.02 1168 395 1168 C395 1166.35 395 1164.7 395 1163 C394.34 1163 393.68 1163 393 1163 C393 1161.68 393 1160.36 393 1159 C392.34 1159 391.68 1159 391 1159 C391 1158.01 391 1157.02 391 1156 C390.01 1156 389.02 1156 388 1156 C388 1154.35 388 1152.7 388 1151 C387.34 1151 386.68 1151 386 1151 C386 1150.34 386 1149.68 386 1149 C385.01 1149 384.02 1149 383 1149 C383 1148.01 383 1147.02 383 1146 C382.34 1146 381.68 1146 381 1146 C381 1145.34 381 1144.68 381 1144 C380.01 1144 379.02 1144 378 1144 C378 1142.35 378 1140.7 378 1139 C377.34 1139 376.68 1139 376 1139 C376 1138.34 376 1137.68 376 1137 C375.34 1137 374.68 1137 374 1137 C374 1136.01 374 1135.02 374 1134 C373.01 1134 372.02 1134 371 1134 C371 1133.34 371 1132.68 371 1132 C370.34 1132 369.68 1132 369 1132 C369 1131.34 369 1130.68 369 1130 C368.01 1130 367.02 1130 366 1130 C366 1129.01 366 1128.02 366 1127 C365.34 1127 364.68 1127 364 1127 C364 1126.34 364 1125.68 364 1125 C363.34 1125 362.68 1125 362 1125 C362 1124.01 362 1123.02 362 1122 C361.01 1122 360.02 1122 359 1122 C359 1120.68 359 1119.36 359 1118 C358.34 1118 357.68 1118 357 1118 C357 1117.01 357 1116.02 357 1115 C356.01 1115 355.02 1115 354 1115 C354 1113.35 354 1111.7 354 1110 C353.34 1110 352.68 1110 352 1110 C352 1109.34 352 1108.68 352 1108 C351.34 1108 350.68 1108 350 1108 C350 1106.35 350 1104.7 350 1103 C349.01 1103 348.02 1103 347 1103 C347 1101.35 347 1099.7 347 1098 C346.34 1098 345.68 1098 345 1098 C345 1095.69 345 1093.38 345 1091 C344.01 1091 343.02 1091 342 1091 C342 1090.34 342 1089.68 342 1089 C341.34 1089 340.68 1089 340 1089 C340 1088.01 340 1087.02 340 1086 C339.01 1086 338.02 1086 337 1086 C337 1085.34 337 1084.68 337 1084 C336.34 1084 335.68 1084 335 1084 C335 1083.01 335 1082.02 335 1081 C334.34 1081 333.68 1081 333 1081 C333 1079.68 333 1078.36 333 1077 C332.01 1077 331.02 1077 330 1077 C330 1076.01 330 1075.02 330 1074 C329.34 1074 328.68 1074 328 1074 C328 1073.34 328 1072.68 328 1072 C327.01 1072 326.02 1072 325 1072 C325 1071.01 325 1070.02 325 1069 C324.34 1069 323.68 1069 323 1069 C323 1068.34 323 1067.68 323 1067 C322.34 1067 321.68 1067 321 1067 C321 1065.35 321 1063.7 321 1062 C320.01 1062 319.02 1062 318 1062 C318 1060.35 318 1058.7 318 1057 C317.34 1057 316.68 1057 316 1057 C316 1055.35 316 1053.7 316 1052 C315.01 1052 314.02 1052 313 1052 C313 1051.34 313 1050.68 313 1050 C312.34 1050 311.68 1050 311 1050 C311 1048.35 311 1046.7 311 1045 C310.34 1045 309.68 1045 309 1045 C309 1043.35 309 1041.7 309 1040 C308.01 1040 307.02 1040 306 1040 C306 1039.34 306 1038.68 306 1038 C305.34 1038 304.68 1038 304 1038 C304 1037.01 304 1036.02 304 1035 C303.01 1035 302.02 1035 301 1035 C301 1034.34 301 1033.68 301 1033 C300.34 1033 299.68 1033 299 1033 C299 1032.34 299 1031.68 299 1031 C298.01 1031 297.02 1031 296 1031 C296 1030.01 296 1029.02 296 1028 C295.34 1028 294.68 1028 294 1028 C294 1026.35 294 1024.7 294 1023 C293.34 1023 292.68 1023 292 1023 C292 1021.68 292 1020.36 292 1019 C291.01 1019 290.02 1019 289 1019 C289 1017.35 289 1015.7 289 1014 C288.34 1014 287.68 1014 287 1014 C287 1013.01 287 1012.02 287 1011 C286.01 1011 285.02 1011 284 1011 C284 1009.68 284 1008.36 284 1007 C283.34 1007 282.68 1007 282 1007 C282 1005.35 282 1003.7 282 1002 C281.34 1002 280.68 1002 280 1002 C280 999.36 280 996.72 280 994 C279.01 994 278.02 994 277 994 C277 992.68 277 991.36 277 990 C276.34 990 275.68 990 275 990 C275 989.01 275 988.02 275 987 C274.01 987 273.02 987 272 987 C272 985.35 272 983.7 272 982 C271.34 982 270.68 982 270 982 C270 981.34 270 980.68 270 980 C269.01 980 268.02 980 267 980 C267 978.35 267 976.7 267 975 C266.34 975 265.68 975 265 975 C265 973.35 265 971.7 265 970 C264.34 970 263.68 970 263 970 C263 969.34 263 968.68 263 968 C262.01 968 261.02 968 260 968 C260 967.34 260 966.68 260 966 C259.34 966 258.68 966 258 966 C258 964.35 258 962.7 258 961 C257.01 961 256.02 961 255 961 C255 959.35 255 957.7 255 956 C254.34 956 253.68 956 253 956 C253 955.01 253 954.02 253 953 C252.34 953 251.68 953 251 953 C251 952.34 251 951.68 251 951 C250.01 951 249.02 951 248 951 C248 950.34 248 949.68 248 949 C247.34 949 246.68 949 246 949 C246 948.01 246 947.02 246 946 C245.01 946 244.02 946 243 946 C243 945.34 243 944.68 243 944 C242.34 944 241.68 944 241 944 C241 942.35 241 940.7 241 939 C240.34 939 239.68 939 239 939 C239 937.35 239 935.7 239 934 C238.01 934 237.02 934 236 934 C236 932.35 236 930.7 236 929 C235.34 929 234.68 929 234 929 C234 927.68 234 926.36 234 925 C233.01 925 232.02 925 231 925 C231 923.35 231 921.7 231 920 C230.34 920 229.68 920 229 920 C229 918.35 229 916.7 229 915 C228.01 915 227.02 915 226 915 C226 913.35 226 911.7 226 910 C225.34 910 224.68 910 224 910 C224 908.35 224 906.7 224 905 C223.34 905 222.68 905 222 905 C222 903.35 222 901.7 222 900 C221.01 900 220.02 900 219 900 C219 898.68 219 897.36 219 896 C218.34 896 217.68 896 217 896 C217 894.35 217 892.7 217 891 C216.01 891 215.02 891 214 891 C214 890.01 214 889.02 214 888 C213.34 888 212.68 888 212 888 C212 887.34 212 886.68 212 886 C211.34 886 210.68 886 210 886 C210 885.01 210 884.02 210 883 C209.01 883 208.02 883 207 883 C207 881.68 207 880.36 207 879 C206.34 879 205.68 879 205 879 C205 878.01 205 877.02 205 876 C204.01 876 203.02 876 202 876 C202 874.35 202 872.7 202 871 C201.34 871 200.68 871 200 871 C200 869.68 200 868.36 200 867 C199.34 867 198.68 867 198 867 C198 866.01 198 865.02 198 864 C197.01 864 196.02 864 195 864 C195 862.35 195 860.7 195 859 C194.34 859 193.68 859 193 859 C193 857.68 193 856.36 193 855 C192.01 855 191.02 855 190 855 C190 854.01 190 853.02 190 852 C189.34 852 188.68 852 188 852 C188 850.35 188 848.7 188 847 C187.01 847 186.02 847 185 847 C185 845.35 185 843.7 185 842 C184.34 842 183.68 842 183 842 C183 840.68 183 839.36 183 838 C182.34 838 181.68 838 181 838 C181 837.01 181 836.02 181 835 C180.01 835 179.02 835 178 835 C178 833.35 178 831.7 178 830 C177.34 830 176.68 830 176 830 C176 829.34 176 828.68 176 828 C175.01 828 174.02 828 173 828 C173 827.34 173 826.68 173 826 C172.34 826 171.68 826 171 826 C171 824.35 171 822.7 171 821 C170.34 821 169.68 821 169 821 C169 820.01 169 819.02 169 818 C168.01 818 167.02 818 166 818 C166 817.34 166 816.68 166 816 C165.34 816 164.68 816 164 816 C164 814.35 164 812.7 164 811 C163.01 811 162.02 811 161 811 C161 809.35 161 807.7 161 806 C160.34 806 159.68 806 159 806 C159 804.35 159 802.7 159 801 C158.34 801 157.68 801 157 801 C157 799.68 157 798.36 157 797 C156.01 797 155.02 797 154 797 C154 796.01 154 795.02 154 794 C153.34 794 152.68 794 152 794 C152 792.35 152 790.7 152 789 C151.01 789 150.02 789 149 789 C149 786.03 149 783.06 149 780 C148.34 780 147.68 780 147 780 C147 778.35 147 776.7 147 775 C146.01 775 145.02 775 144 775 C144 773.35 144 771.7 144 770 C143.34 770 142.68 770 142 770 C142 768.35 142 766.7 142 765 C141.34 765 140.68 765 140 765 C140 762.69 140 760.38 140 758 C139.01 758 138.02 758 137 758 C137 756.35 137 754.7 137 753 C136.34 753 135.68 753 135 753 C135 752.34 135 751.68 135 751 C134.01 751 133.02 751 132 751 C132 750.01 132 749.02 132 748 C131.34 748 130.68 748 130 748 C130 747.34 130 746.68 130 746 C129.34 746 128.68 746 128 746 C128 744.35 128 742.7 128 741 C127.01 741 126.02 741 125 741 C125 740.34 125 739.68 125 739 C124.34 739 123.68 739 123 739 C123 737.35 123 735.7 123 734 C122.01 734 121.02 734 120 734 C120 732.35 120 730.7 120 729 C119.34 729 118.68 729 118 729 C118 727.35 118 725.7 118 724 C117.01 724 116.02 724 115 724 C115 721.69 115 719.38 115 717 C114.34 717 113.68 717 113 717 C113 715.35 113 713.7 113 712 C112.34 712 111.68 712 111 712 C111 710.35 111 708.7 111 707 C110.01 707 109.02 707 108 707 C108 705.68 108 704.36 108 703 C107.34 703 106.68 703 106 703 C106 701.35 106 699.7 106 698 C105.01 698 104.02 698 103 698 C103 693.05 103 688.1 103 683 C102.34 683 101.68 683 101 683 C101 681.35 101 679.7 101 678 C100.34 678 99.68 678 99 678 C99 676.68 99 675.36 99 674 C98.01 674 97.02 674 96 674 C96 671.36 96 668.72 96 666 C95.34 666 94.68 666 94 666 C94 665.34 94 664.68 94 664 C93.01 664 92.02 664 91 664 C91 660.7 91 657.4 91 654 C90.34 654 89.68 654 89 654 C89 652.35 89 650.7 89 649 C88.34 649 87.68 649 87 649 C87 647.68 87 646.36 87 645 C86.01 645 85.02 645 84 645 C84 642.36 84 639.72 84 637 C83.34 637 82.68 637 82 637 C82 635.68 82 634.36 82 633 C81.01 633 80.02 633 79 633 C79 630.36 79 627.72 79 625 C78.34 625 77.68 625 77 625 C77 623.68 77 622.36 77 621 C76.01 621 75.02 621 74 621 C74 619.35 74 617.7 74 616 C73.34 616 72.68 616 72 616 C72 615.01 72 614.02 72 613 C71.34 613 70.68 613 70 613 C70 610.69 70 608.38 70 606 C69.01 606 68.02 606 67 606 C67 604.35 67 602.7 67 601 C66.34 601 65.68 601 65 601 C65 599.35 65 597.7 65 596 C64.01 596 63.02 596 62 596 C62 594.68 62 593.36 62 592 C61.34 592 60.68 592 60 592 C60 589.36 60 586.72 60 584 C59.34 584 58.68 584 58 584 C58 582.35 58 580.7 58 579 C57.01 579 56.02 579 55 579 C55 577.68 55 576.36 55 575 C54.34 575 53.68 575 53 575 C53 573.35 53 571.7 53 570 C52.01 570 51.02 570 50 570 C50 568.35 50 566.7 50 565 C49.34 565 48.68 565 48 565 C48 563.35 48 561.7 48 560 C47.34 560 46.68 560 46 560 C46 557.03 46 554.06 46 551 C45.01 551 44.02 551 43 551 C43 547.7 43 544.4 43 541 C42.34 541 41.68 541 41 541 C41 539.35 41 537.7 41 536 C40.01 536 39.02 536 38 536 C38 534.35 38 532.7 38 531 C37.34 531 36.68 531 36 531 C36 529.35 36 527.7 36 526 C35.01 526 34.02 526 33 526 C33 523.69 33 521.38 33 519 C32.34 519 31.68 519 31 519 C31 517.35 31 515.7 31 514 C30.34 514 29.68 514 29 514 C29 512.68 29 511.36 29 510 C28.01 510 27.02 510 26 510 C26 509.01 26 508.02 26 507 C25.34 507 24.68 507 24 507 C24 503.7 24 500.4 24 497 C23.01 497 22.02 497 21 497 C21 496.34 21 495.68 21 495 C20.34 495 19.68 495 19 495 C19 493.35 19 491.7 19 490 C18.34 490 17.68 490 17 490 C17 487.69 17 485.38 17 483 C16.01 483 15.02 483 14 483 C14 482.34 14 481.68 14 481 C13.34 481 12.68 481 12 481 C12 479.35 12 477.7 12 476 C11.01 476 10.02 476 9 476 C9 475.01 9 474.02 9 473 C8.34 473 7.68 473 7 473 C7 470.69 7 468.38 7 466 C6.34 466 5.68 466 5 466 C5 464.35 5 462.7 5 461 C4.01 461 3.02 461 2 461 C2 460.34 2 459.68 2 459 C1.34 459 0.68 459 0 459 C0 457.35 0 455.7 0 454 C-0.99 454 -1.98 454 -3 454 C-3 452.35 -3 450.7 -3 449 C-3.66 449 -4.32 449 -5 449 C-5 447.35 -5 445.7 -5 444 C-5.99 444 -6.98 444 -8 444 C-8 442.68 -8 441.36 -8 440 C-8.66 440 -9.32 440 -10 440 C-10 438.35 -10 436.7 -10 435 C-10.66 435 -11.32 435 -12 435 C-12 433.35 -12 431.7 -12 430 C-12.99 430 -13.98 430 -15 430 C-15 427.69 -15 425.38 -15 423 C-15.66 423 -16.32 423 -17 423 C-17 422.01 -17 421.02 -17 420 C-17.99 420 -18.98 420 -20 420 C-20 418.35 -20 416.7 -20 415 C-20.66 415 -21.32 415 -22 415 C-22 412.69 -22 410.38 -22 408 C-22.66 408 -23.32 408 -24 408 C-24 405.69 -24 403.38 -24 401 C-24.99 401 -25.98 401 -27 401 C-27 400.34 -27 399.68 -27 399 C-27.66 399 -28.32 399 -29 399 C-29 398.01 -29 397.02 -29 396 C-30.65 396 -32.3 396 -34 396 C-34 395.34 -34 394.68 -34 394 C-34.99 394 -35.98 394 -37 394 C-37 393.01 -37 392.02 -37 391 C-37.66 391 -38.32 391 -39 391 C-39 390.34 -39 389.68 -39 389 C-40.65 389 -42.3 389 -44 389 C-44 388.01 -44 387.02 -44 386 C-44.66 386 -45.32 386 -46 386 C-46 385.34 -46 384.68 -46 384 C-47.65 384 -49.3 384 -51 384 C-51 383.34 -51 382.68 -51 382 C-51.66 382 -52.32 382 -53 382 C-53 381.01 -53 380.02 -53 379 C-53.99 379 -54.98 379 -56 379 C-56 377.35 -56 375.7 -56 374 C-56.66 374 -57.32 374 -58 374 C-58 373.34 -58 372.68 -58 372 C-58.99 372 -59.98 372 -61 372 C-61 371.34 -61 370.68 -61 370 C-62.32 370 -63.64 370 -65 370 C-65 369.01 -65 368.02 -65 367 C-65.99 367 -66.98 367 -68 367 C-68 366.34 -68 365.68 -68 365 C-69.65 365 -71.3 365 -73 365 C-73 364.01 -73 363.02 -73 362 C-73.66 362 -74.32 362 -75 362 C-75 361.34 -75 360.68 -75 360 C-75.99 360 -76.98 360 -78 360 C-78 359.34 -78 358.68 -78 358 C-78.66 358 -79.32 358 -80 358 C-80 357.01 -80 356.02 -80 355 C-80.66 355 -81.32 355 -82 355 C-82 354.34 -82 353.68 -82 353 C-82.99 353 -83.98 353 -85 353 C-85 351.35 -85 349.7 -85 348 C-85.66 348 -86.32 348 -87 348 C-87 344.7 -87 341.4 -87 338 C-87.99 338 -88.98 338 -90 338 C-90 336.35 -90 334.7 -90 333 C-90.66 333 -91.32 333 -92 333 C-92 330.69 -92 328.38 -92 326 C-92.66 326 -93.32 326 -94 326 C-94 323.03 -94 320.06 -94 317 C-94.99 317 -95.98 317 -97 317 C-97 312.05 -97 307.1 -97 302 C-97.66 302 -98.32 302 -99 302 C-99 294.74 -99 287.48 -99 280 C-99.99 280 -100.98 280 -102 280 C-102 271.42 -102 262.84 -102 254 C-102.66 254 -103.32 254 -104 254 C-104 245.09 -104 236.18 -104 227 C-104.66 227 -105.32 227 -106 227 C-106 223.04 -106 219.08 -106 215 C-106.99 215 -107.98 215 -109 215 C-109 180.02 -109 145.04 -109 109 C-108.01 109 -107.02 109 -106 109 C-106 105.7 -106 102.4 -106 99 C-105.34 99 -104.68 99 -104 99 C-104 94.38 -104 89.76 -104 85 C-103.34 85 -102.68 85 -102 85 C-102 81.04 -102 77.08 -102 73 C-101.01 73 -100.02 73 -99 73 C-99 70.69 -99 68.38 -99 66 C-98.34 66 -97.68 66 -97 66 C-97 63.36 -97 60.72 -97 58 C-96.01 58 -95.02 58 -94 58 C-94 55.03 -94 52.06 -94 49 C-93.34 49 -92.68 49 -92 49 C-92 48.01 -92 47.02 -92 46 C-91.34 46 -90.68 46 -90 46 C-90 44.35 -90 42.7 -90 41 C-89.01 41 -88.02 41 -87 41 C-87 40.34 -87 39.68 -87 39 C-86.34 39 -85.68 39 -85 39 C-85 38.34 -85 37.68 -85 37 C-84.01 37 -83.02 37 -82 37 C-82 36.01 -82 35.02 -82 34 C-81.34 34 -80.68 34 -80 34 C-80 33.34 -80 32.68 -80 32 C-79.34 32 -78.68 32 -78 32 C-78 31.01 -78 30.02 -78 29 C-77.01 29 -76.02 29 -75 29 C-75 28.34 -75 27.68 -75 27 C-74.34 27 -73.68 27 -73 27 C-73 26.34 -73 25.68 -73 25 C-72.01 25 -71.02 25 -70 25 C-70 24.01 -70 23.02 -70 22 C-69.34 22 -68.68 22 -68 22 C-68 21.34 -68 20.68 -68 20 C-65.69 20 -63.38 20 -61 20 C-61 19.01 -61 18.02 -61 17 C-56.05 17 -51.1 17 -46 17 C-46 17.99 -46 18.98 -46 20 C-42.04 20 -38.08 20 -34 20 C-34 20.66 -34 21.32 -34 22 C-33.34 22 -32.68 22 -32 22 C-32 22.99 -32 23.98 -32 25 C-30.35 25 -28.7 25 -27 25 C-27 23.35 -27 21.7 -27 20 C-26.01 20 -25.02 20 -24 20 C-24 19.01 -24 18.02 -24 17 C-23.34 17 -22.68 17 -22 17 C-22 16.34 -22 15.68 -22 15 C-21.34 15 -20.68 15 -20 15 C-20 14.34 -20 13.68 -20 13 C-19.01 13 -18.02 13 -17 13 C-17 12.01 -17 11.02 -17 10 C-15.35 10 -13.7 10 -12 10 C-12 9.34 -12 8.68 -12 8 C-11.34 8 -10.68 8 -10 8 C-10 7.01 -10 6.02 -10 5 C-9.34 5 -8.68 5 -8 5 C-8 4.34 -8 3.68 -8 3 C-5.36 3 -2.72 3 0 3 C0 2.01 0 1.02 0 0 Z " fill="#000000" transform="translate(114,5)"/>
<path d="M0 0 C6.93 0 13.86 0 21 0 C21 0.99 21 1.98 21 3 C23.64 3 26.28 3 29 3 C29 3.66 29 4.32 29 5 C30.32 5 31.64 5 33 5 C33 5.99 33 6.98 33 8 C33.99 8 34.98 8 36 8 C36 8.66 36 9.32 36 10 C36.66 10 37.32 10 38 10 C38 11.65 38 13.3 38 15 C38.99 15 39.98 15 41 15 C41 15.66 41 16.32 41 17 C42.65 17 44.3 17 46 17 C46 17.99 46 18.98 46 20 C46.66 20 47.32 20 48 20 C48 21.65 48 23.3 48 25 C48.66 25 49.32 25 50 25 C50 25.66 50 26.32 50 27 C50.99 27 51.98 27 53 27 C53 27.66 53 28.32 53 29 C53.66 29 54.32 29 55 29 C55 30.65 55 32.3 55 34 C55.99 34 56.98 34 58 34 C58 34.99 58 35.98 58 37 C58.66 37 59.32 37 60 37 C60 38.32 60 39.64 60 41 C60.66 41 61.32 41 62 41 C62 41.99 62 42.98 62 44 C62.99 44 63.98 44 65 44 C65 46.31 65 48.62 65 51 C65.66 51 66.32 51 67 51 C67 54.3 67 57.6 67 61 C67.99 61 68.98 61 70 61 C70 62.65 70 64.3 70 66 C70.66 66 71.32 66 72 66 C72 68.97 72 71.94 72 75 C72.99 75 73.98 75 75 75 C75 79.95 75 84.9 75 90 C75.66 90 76.32 90 77 90 C77 92.97 77 95.94 77 99 C77.66 99 78.32 99 79 99 C79 103.95 79 108.9 79 114 C79.99 114 80.98 114 82 114 C82 131.49 82 148.98 82 167 C81.01 167 80.02 167 79 167 C79 177.23 79 187.46 79 198 C78.34 198 77.68 198 77 198 C77 204.6 77 211.2 77 218 C76.34 218 75.68 218 75 218 C75 223.28 75 228.56 75 234 C74.01 234 73.02 234 72 234 C72 238.95 72 243.9 72 249 C71.34 249 70.68 249 70 249 C70 253.62 70 258.24 70 263 C69.01 263 68.02 263 67 263 C67 265.64 67 268.28 67 271 C66.34 271 65.68 271 65 271 C65 272.32 65 273.64 65 275 C64.01 275 63.02 275 62 275 C62 277.64 62 280.28 62 283 C61.34 283 60.68 283 60 283 C60 284.65 60 286.3 60 288 C59.34 288 58.68 288 58 288 C58 288.66 58 289.32 58 290 C57.01 290 56.02 290 55 290 C55 291.65 55 293.3 55 295 C54.34 295 53.68 295 53 295 C53 297.31 53 299.62 53 302 C52.01 302 51.02 302 50 302 C50 303.65 50 305.3 50 307 C49.34 307 48.68 307 48 307 C48 307.66 48 308.32 48 309 C47.34 309 46.68 309 46 309 C46 309.99 46 310.98 46 312 C45.01 312 44.02 312 43 312 C43 313.32 43 314.64 43 316 C42.34 316 41.68 316 41 316 C41 318.64 41 321.28 41 324 C40.01 324 39.02 324 38 324 C38 324.66 38 325.32 38 326 C37.34 326 36.68 326 36 326 C36 326.99 36 327.98 36 329 C35.01 329 34.02 329 33 329 C33 329.66 33 330.32 33 331 C32.34 331 31.68 331 31 331 C31 331.66 31 332.32 31 333 C30.34 333 29.68 333 29 333 C29 333.99 29 334.98 29 336 C28.01 336 27.02 336 26 336 C26 336.66 26 337.32 26 338 C25.34 338 24.68 338 24 338 C24 338.99 24 339.98 24 341 C23.01 341 22.02 341 21 341 C21 341.66 21 342.32 21 343 C20.34 343 19.68 343 19 343 C19 344.65 19 346.3 19 348 C18.34 348 17.68 348 17 348 C17 348.66 17 349.32 17 350 C16.01 350 15.02 350 14 350 C14 351.65 14 353.3 14 355 C12.35 355 10.7 355 9 355 C9 355.66 9 356.32 9 357 C8.34 357 7.68 357 7 357 C7 357.99 7 358.98 7 360 C6.34 360 5.68 360 5 360 C5 360.66 5 361.32 5 362 C4.01 362 3.02 362 2 362 C2 362.99 2 363.98 2 365 C-1.96 365 -5.92 365 -10 365 C-10 365.66 -10 366.32 -10 367 C-13.96 367 -17.92 367 -22 367 C-22 366.34 -22 365.68 -22 365 C-22.66 365 -23.32 365 -24 365 C-24 364.01 -24 363.02 -24 362 C-27.3 362 -30.6 362 -34 362 C-34 362.99 -34 363.98 -34 365 C-42.91 365 -51.82 365 -61 365 C-61 364.01 -61 363.02 -61 362 C-61.66 362 -62.32 362 -63 362 C-63 361.34 -63 360.68 -63 360 C-64.65 360 -66.3 360 -68 360 C-68 359.01 -68 358.02 -68 357 C-68.66 357 -69.32 357 -70 357 C-70 356.34 -70 355.68 -70 355 C-71.65 355 -73.3 355 -75 355 C-75 354.34 -75 353.68 -75 353 C-75.66 353 -76.32 353 -77 353 C-77 352.01 -77 351.02 -77 350 C-77.99 350 -78.98 350 -80 350 C-80 349.34 -80 348.68 -80 348 C-80.66 348 -81.32 348 -82 348 C-82 347.01 -82 346.02 -82 345 C-82.99 345 -83.98 345 -85 345 C-85 344.34 -85 343.68 -85 343 C-85.66 343 -86.32 343 -87 343 C-87 342.34 -87 341.68 -87 341 C-87.99 341 -88.98 341 -90 341 C-90 339.35 -90 337.7 -90 336 C-90.66 336 -91.32 336 -92 336 C-92 334.35 -92 332.7 -92 331 C-92.66 331 -93.32 331 -94 331 C-94 330.34 -94 329.68 -94 329 C-94.99 329 -95.98 329 -97 329 C-97 327.35 -97 325.7 -97 324 C-97.66 324 -98.32 324 -99 324 C-99 323.01 -99 322.02 -99 321 C-99.99 321 -100.98 321 -102 321 C-102 320.34 -102 319.68 -102 319 C-102.66 319 -103.32 319 -104 319 C-104 318.01 -104 317.02 -104 316 C-104.66 316 -105.32 316 -106 316 C-106 313.03 -106 310.06 -106 307 C-106.99 307 -107.98 307 -109 307 C-109 305.35 -109 303.7 -109 302 C-109.66 302 -110.32 302 -111 302 C-111 300.35 -111 298.7 -111 297 C-111.99 297 -112.98 297 -114 297 C-114 295.35 -114 293.7 -114 292 C-114.66 292 -115.32 292 -116 292 C-116 289.69 -116 287.38 -116 285 C-116.99 285 -117.98 285 -119 285 C-119 280.38 -119 275.76 -119 271 C-119.66 271 -120.32 271 -121 271 C-121 266.05 -121 261.1 -121 256 C-121.66 256 -122.32 256 -123 256 C-123 224.98 -123 193.96 -123 162 C-122.34 162 -121.68 162 -121 162 C-121 157.38 -121 152.76 -121 148 C-120.34 148 -119.68 148 -119 148 C-119 143.05 -119 138.1 -119 133 C-118.01 133 -117.02 133 -116 133 C-116 131.35 -116 129.7 -116 128 C-115.34 128 -114.68 128 -114 128 C-114 126.35 -114 124.7 -114 123 C-113.01 123 -112.02 123 -111 123 C-111 121.68 -111 120.36 -111 119 C-110.34 119 -109.68 119 -109 119 C-109 117.35 -109 115.7 -109 114 C-108.01 114 -107.02 114 -106 114 C-106 112.35 -106 110.7 -106 109 C-105.34 109 -104.68 109 -104 109 C-104 106.69 -104 104.38 -104 102 C-103.34 102 -102.68 102 -102 102 C-102 99.36 -102 96.72 -102 94 C-101.01 94 -100.02 94 -99 94 C-99 92.68 -99 91.36 -99 90 C-98.34 90 -97.68 90 -97 90 C-97 88.35 -97 86.7 -97 85 C-96.01 85 -95.02 85 -94 85 C-94 84.01 -94 83.02 -94 82 C-93.34 82 -92.68 82 -92 82 C-92 80.68 -92 79.36 -92 78 C-91.34 78 -90.68 78 -90 78 C-90 77.01 -90 76.02 -90 75 C-89.01 75 -88.02 75 -87 75 C-87 74.34 -87 73.68 -87 73 C-86.34 73 -85.68 73 -85 73 C-85 72.01 -85 71.02 -85 70 C-84.01 70 -83.02 70 -82 70 C-82 69.34 -82 68.68 -82 68 C-81.34 68 -80.68 68 -80 68 C-80 66.35 -80 64.7 -80 63 C-79.01 63 -78.02 63 -77 63 C-77 62.34 -77 61.68 -77 61 C-76.34 61 -75.68 61 -75 61 C-75 60.01 -75 59.02 -75 58 C-74.34 58 -73.68 58 -73 58 C-73 57.34 -73 56.68 -73 56 C-72.01 56 -71.02 56 -70 56 C-70 55.01 -70 54.02 -70 53 C-69.34 53 -68.68 53 -68 53 C-68 51.68 -68 50.36 -68 49 C-67.01 49 -66.02 49 -65 49 C-65 48.01 -65 47.02 -65 46 C-64.34 46 -63.68 46 -63 46 C-63 45.34 -63 44.68 -63 44 C-62.34 44 -61.68 44 -61 44 C-61 43.01 -61 42.02 -61 41 C-60.01 41 -59.02 41 -58 41 C-58 40.34 -58 39.68 -58 39 C-57.34 39 -56.68 39 -56 39 C-56 38.34 -56 37.68 -56 37 C-55.01 37 -54.02 37 -53 37 C-53 36.01 -53 35.02 -53 34 C-52.34 34 -51.68 34 -51 34 C-51 33.34 -51 32.68 -51 32 C-50.34 32 -49.68 32 -49 32 C-49 31.01 -49 30.02 -49 29 C-48.01 29 -47.02 29 -46 29 C-46 28.34 -46 27.68 -46 27 C-45.34 27 -44.68 27 -44 27 C-44 26.34 -44 25.68 -44 25 C-41.36 25 -38.72 25 -36 25 C-36 24.01 -36 23.02 -36 22 C-35.34 22 -34.68 22 -34 22 C-34 21.34 -34 20.68 -34 20 C-33.34 20 -32.68 20 -32 20 C-32 19.01 -32 18.02 -32 17 C-31.01 17 -30.02 17 -29 17 C-29 16.34 -29 15.68 -29 15 C-28.34 15 -27.68 15 -27 15 C-27 14.01 -27 13.02 -27 12 C-25.35 12 -23.7 12 -22 12 C-22 11.34 -22 10.68 -22 10 C-20.35 10 -18.7 10 -17 10 C-17 9.34 -17 8.68 -17 8 C-16.34 8 -15.68 8 -15 8 C-15 7.01 -15 6.02 -15 5 C-13.35 5 -11.7 5 -10 5 C-10 4.34 -10 3.68 -10 3 C-6.7 3 -3.4 3 0 3 C0 2.01 0 1.02 0 0 Z " fill="#F1C954" transform="translate(196,34)"/>
<path d="M0 0 C2.31 0 4.62 0 7 0 C7 0.99 7 1.98 7 3 C13.6 3 20.2 3 27 3 C27 3.66 27 4.32 27 5 C27.66 5 28.32 5 29 5 C29 7.31 29 9.62 29 12 C29.99 12 30.98 12 32 12 C32 12.99 32 13.98 32 15 C32.66 15 33.32 15 34 15 C34 15.66 34 16.32 34 17 C34.66 17 35.32 17 36 17 C36 18.65 36 20.3 36 22 C36.99 22 37.98 22 39 22 C39 24.31 39 26.62 39 29 C39.66 29 40.32 29 41 29 C41 30.65 41 32.3 41 34 C41.99 34 42.98 34 44 34 C44 35.65 44 37.3 44 39 C44.66 39 45.32 39 46 39 C46 42.3 46 45.6 46 49 C46.66 49 47.32 49 48 49 C48 50.32 48 51.64 48 53 C48.99 53 49.98 53 51 53 C51 53.99 51 54.98 51 56 C51.66 56 52.32 56 53 56 C53 57.65 53 59.3 53 61 C53.99 61 54.98 61 56 61 C56 63.31 56 65.62 56 68 C56.66 68 57.32 68 58 68 C58 70.31 58 72.62 58 75 C58.99 75 59.98 75 61 75 C61 76.65 61 78.3 61 80 C61.66 80 62.32 80 63 80 C63 82.31 63 84.62 63 87 C63.66 87 64.32 87 65 87 C65 88.65 65 90.3 65 92 C65.99 92 66.98 92 68 92 C68 93.65 68 95.3 68 97 C68.66 97 69.32 97 70 97 C70 100.3 70 103.6 70 107 C70.99 107 71.98 107 73 107 C73 108.32 73 109.64 73 111 C73.66 111 74.32 111 75 111 C75 111.99 75 112.98 75 114 C76.65 114 78.3 114 80 114 C80 115.65 80 117.3 80 119 C80.66 119 81.32 119 82 119 C82 120.32 82 121.64 82 123 C82.99 123 83.98 123 85 123 C85 124.65 85 126.3 85 128 C85.66 128 86.32 128 87 128 C87 129.65 87 131.3 87 133 C87.66 133 88.32 133 89 133 C89 134.65 89 136.3 89 138 C89.99 138 90.98 138 92 138 C92 140.31 92 142.62 92 145 C92.66 145 93.32 145 94 145 C94 145.99 94 146.98 94 148 C94.99 148 95.98 148 97 148 C97 148.66 97 149.32 97 150 C97.66 150 98.32 150 99 150 C99 153.3 99 156.6 99 160 C99.99 160 100.98 160 102 160 C102 162.31 102 164.62 102 167 C102.66 167 103.32 167 104 167 C104 168.65 104 170.3 104 172 C104.66 172 105.32 172 106 172 C106 172.66 106 173.32 106 174 C106.99 174 107.98 174 109 174 C109 175.65 109 177.3 109 179 C109.66 179 110.32 179 111 179 C111 180.65 111 182.3 111 184 C111.99 184 112.98 184 114 184 C114 186.31 114 188.62 114 191 C114.66 191 115.32 191 116 191 C116 192.65 116 194.3 116 196 C116.66 196 117.32 196 118 196 C118 198.97 118 201.94 118 205 C118.99 205 119.98 205 121 205 C121 206.65 121 208.3 121 210 C121.66 210 122.32 210 123 210 C123 210.99 123 211.98 123 213 C123.99 213 124.98 213 126 213 C126 213.66 126 214.32 126 215 C126.66 215 127.32 215 128 215 C128 215.99 128 216.98 128 218 C128.66 218 129.32 218 130 218 C130 220.31 130 222.62 130 225 C130.99 225 131.98 225 133 225 C133 226.65 133 228.3 133 230 C133.66 230 134.32 230 135 230 C135 231.32 135 232.64 135 234 C135.99 234 136.98 234 138 234 C138 235.65 138 237.3 138 239 C138.66 239 139.32 239 140 239 C140 241.31 140 243.62 140 246 C140.99 246 141.98 246 143 246 C143 247.65 143 249.3 143 251 C143.66 251 144.32 251 145 251 C145 252.65 145 254.3 145 256 C145.66 256 146.32 256 147 256 C147 258.31 147 260.62 147 263 C147.99 263 148.98 263 150 263 C150 264.65 150 266.3 150 268 C150.66 268 151.32 268 152 268 C152 269.65 152 271.3 152 273 C152.99 273 153.98 273 155 273 C155 274.65 155 276.3 155 278 C155.66 278 156.32 278 157 278 C157 279.65 157 281.3 157 283 C157.66 283 158.32 283 159 283 C159 285.31 159 287.62 159 290 C159.99 290 160.98 290 162 290 C162 291.65 162 293.3 162 295 C162.66 295 163.32 295 164 295 C164 296.65 164 298.3 164 300 C164.99 300 165.98 300 167 300 C167 301.32 167 302.64 167 304 C167.66 304 168.32 304 169 304 C169 304.99 169 305.98 169 307 C169.99 307 170.98 307 172 307 C172 308.65 172 310.3 172 312 C172.66 312 173.32 312 174 312 C174 313.32 174 314.64 174 316 C174.66 316 175.32 316 176 316 C176 319.3 176 322.6 176 326 C176.99 326 177.98 326 179 326 C179 326.66 179 327.32 179 328 C179.66 328 180.32 328 181 328 C181 329.65 181 331.3 181 333 C181.99 333 182.98 333 184 333 C184 333.99 184 334.98 184 336 C184.66 336 185.32 336 186 336 C186 336.66 186 337.32 186 338 C186.66 338 187.32 338 188 338 C188 339.65 188 341.3 188 343 C188.99 343 189.98 343 191 343 C191 343.66 191 344.32 191 345 C191.66 345 192.32 345 193 345 C193 346.65 193 348.3 193 350 C193.99 350 194.98 350 196 350 C196 351.65 196 353.3 196 355 C196.66 355 197.32 355 198 355 C198 356.65 198 358.3 198 360 C198.66 360 199.32 360 200 360 C200 361.65 200 363.3 200 365 C200.99 365 201.98 365 203 365 C203 366.65 203 368.3 203 370 C203.66 370 204.32 370 205 370 C205 370.66 205 371.32 205 372 C205.99 372 206.98 372 208 372 C208 373.65 208 375.3 208 377 C208.66 377 209.32 377 210 377 C210 378.65 210 380.3 210 382 C210.99 382 211.98 382 213 382 C213 382.66 213 383.32 213 384 C213.66 384 214.32 384 215 384 C215 385.65 215 387.3 215 389 C215.66 389 216.32 389 217 389 C217 389.66 217 390.32 217 391 C217.99 391 218.98 391 220 391 C220 391.99 220 392.98 220 394 C220.66 394 221.32 394 222 394 C222 395.32 222 396.64 222 398 C222.99 398 223.98 398 225 398 C225 398.99 225 399.98 225 401 C225.66 401 226.32 401 227 401 C227 401.66 227 402.32 227 403 C227.66 403 228.32 403 229 403 C229 403.99 229 404.98 229 406 C229.99 406 230.98 406 232 406 C232 407.65 232 409.3 232 411 C232.66 411 233.32 411 234 411 C234 412.32 234 413.64 234 415 C234.99 415 235.98 415 237 415 C237 416.65 237 418.3 237 420 C237.66 420 238.32 420 239 420 C239 420.99 239 421.98 239 423 C239.66 423 240.32 423 241 423 C241 424.32 241 425.64 241 427 C241.99 427 242.98 427 244 427 C244 428.65 244 430.3 244 432 C244.66 432 245.32 432 246 432 C246 432.99 246 433.98 246 435 C246.99 435 247.98 435 249 435 C249 436.32 249 437.64 249 439 C249.66 439 250.32 439 251 439 C251 440.65 251 442.3 251 444 C251.99 444 252.98 444 254 444 C254 446.64 254 449.28 254 452 C254.66 452 255.32 452 256 452 C256 454.31 256 456.62 256 459 C256.66 459 257.32 459 258 459 C258 460.65 258 462.3 258 464 C258.99 464 259.98 464 261 464 C261 465.32 261 466.64 261 468 C261.66 468 262.32 468 263 468 C263 468.99 263 469.98 263 471 C263.99 471 264.98 471 266 471 C266 471.66 266 472.32 266 473 C266.66 473 267.32 473 268 473 C268 473.99 268 474.98 268 476 C268.66 476 269.32 476 270 476 C270 476.66 270 477.32 270 478 C270.99 478 271.98 478 273 478 C273 479.65 273 481.3 273 483 C273.66 483 274.32 483 275 483 C275 483.66 275 484.32 275 485 C275.99 485 276.98 485 278 485 C278 486.65 278 488.3 278 490 C278.66 490 279.32 490 280 490 C280 491.65 280 493.3 280 495 C280.66 495 281.32 495 282 495 C282 496.65 282 498.3 282 500 C282.99 500 283.98 500 285 500 C285 500.66 285 501.32 285 502 C285.66 502 286.32 502 287 502 C287 503.65 287 505.3 287 507 C287.99 507 288.98 507 290 507 C290 508.65 290 510.3 290 512 C290.66 512 291.32 512 292 512 C292 513.65 292 515.3 292 517 C292.99 517 293.98 517 295 517 C295 519.31 295 521.62 295 524 C295.66 524 296.32 524 297 524 C297 525.65 297 527.3 297 529 C297.66 529 298.32 529 299 529 C299 529.66 299 530.32 299 531 C299.99 531 300.98 531 302 531 C302 532.65 302 534.3 302 536 C302.66 536 303.32 536 304 536 C304 536.66 304 537.32 304 538 C304.99 538 305.98 538 307 538 C307 538.99 307 539.98 307 541 C307.66 541 308.32 541 309 541 C309 542.65 309 544.3 309 546 C309.66 546 310.32 546 311 546 C311 546.66 311 547.32 311 548 C311.99 548 312.98 548 314 548 C314 548.66 314 549.32 314 550 C314.66 550 315.32 550 316 550 C316 551.65 316 553.3 316 555 C316.99 555 317.98 555 319 555 C319 555.99 319 556.98 319 558 C319.66 558 320.32 558 321 558 C321 558.66 321 559.32 321 560 C321.99 560 322.98 560 324 560 C324 561.65 324 563.3 324 565 C324.66 565 325.32 565 326 565 C326 565.66 326 566.32 326 567 C326.66 567 327.32 567 328 567 C328 568.65 328 570.3 328 572 C328.99 572 329.98 572 331 572 C331 572.99 331 573.98 331 575 C331.66 575 332.32 575 333 575 C333 576.32 333 577.64 333 579 C333.99 579 334.98 579 336 579 C336 579.99 336 580.98 336 582 C336.66 582 337.32 582 338 582 C338 583.65 338 585.3 338 587 C338.66 587 339.32 587 340 587 C340 587.66 340 588.32 340 589 C340.99 589 341.98 589 343 589 C343 590.65 343 592.3 343 594 C343.66 594 344.32 594 345 594 C345 594.66 345 595.32 345 596 C345.99 596 346.98 596 348 596 C348 597.65 348 599.3 348 601 C348.66 601 349.32 601 350 601 C350 601.99 350 602.98 350 604 C350.66 604 351.32 604 352 604 C352 605.32 352 606.64 352 608 C352.99 608 353.98 608 355 608 C355 608.99 355 609.98 355 611 C355.66 611 356.32 611 357 611 C357 612.65 357 614.3 357 616 C357.99 616 358.98 616 360 616 C360 616.66 360 617.32 360 618 C360.66 618 361.32 618 362 618 C362 618.66 362 619.32 362 620 C362.99 620 363.98 620 365 620 C365 620.99 365 621.98 365 623 C365.66 623 366.32 623 367 623 C367 624.65 367 626.3 367 628 C367.66 628 368.32 628 369 628 C369 629.32 369 630.64 369 632 C369.99 632 370.98 632 372 632 C372 633.65 372 635.3 372 637 C372.66 637 373.32 637 374 637 C374 638.65 374 640.3 374 642 C374.99 642 375.98 642 377 642 C377 643.65 377 645.3 377 647 C377.66 647 378.32 647 379 647 C379 647.66 379 648.32 379 649 C379.66 649 380.32 649 381 649 C381 650.65 381 652.3 381 654 C381.99 654 382.98 654 384 654 C384 654.99 384 655.98 384 657 C384.66 657 385.32 657 386 657 C386 657.66 386 658.32 386 659 C386.99 659 387.98 659 389 659 C389 659.66 389 660.32 389 661 C389.66 661 390.32 661 391 661 C391 661.99 391 662.98 391 664 C391.66 664 392.32 664 393 664 C393 665.65 393 667.3 393 669 C393.99 669 394.98 669 396 669 C396 669.66 396 670.32 396 671 C396.66 671 397.32 671 398 671 C398 671.99 398 672.98 398 674 C398.99 674 399.98 674 401 674 C401 674.66 401 675.32 401 676 C401.66 676 402.32 676 403 676 C403 676.66 403 677.32 403 678 C403.99 678 404.98 678 406 678 C406 679.65 406 681.3 406 683 C406.66 683 407.32 683 408 683 C408 683.99 408 684.98 408 686 C408.66 686 409.32 686 410 686 C410 687.32 410 688.64 410 690 C410.99 690 411.98 690 413 690 C413 691.65 413 693.3 413 695 C413.66 695 414.32 695 415 695 C415 696.65 415 698.3 415 700 C415.99 700 416.98 700 418 700 C418 700.66 418 701.32 418 702 C418.66 702 419.32 702 420 702 C420 703.65 420 705.3 420 707 C420.66 707 421.32 707 422 707 C422 707.99 422 708.98 422 710 C422.99 710 423.98 710 425 710 C425 711.65 425 713.3 425 715 C425.66 715 426.32 715 427 715 C427 715.66 427 716.32 427 717 C427.99 717 428.98 717 430 717 C430 718.65 430 720.3 430 722 C430.66 722 431.32 722 432 722 C432 722.66 432 723.32 432 724 C432.66 724 433.32 724 434 724 C434 725.65 434 727.3 434 729 C434.99 729 435.98 729 437 729 C437 729.66 437 730.32 437 731 C437.66 731 438.32 731 439 731 C439 732.65 439 734.3 439 736 C439.99 736 440.98 736 442 736 C442 736.99 442 737.98 442 739 C442.66 739 443.32 739 444 739 C444 739.66 444 740.32 444 741 C444.99 741 445.98 741 447 741 C447 741.66 447 742.32 447 743 C447.66 743 448.32 743 449 743 C449 743.99 449 744.98 449 746 C449.66 746 450.32 746 451 746 C451 747.65 451 749.3 451 751 C451.99 751 452.98 751 454 751 C454 752.65 454 754.3 454 756 C454.66 756 455.32 756 456 756 C456 756.66 456 757.32 456 758 C456.99 758 457.98 758 459 758 C459 759.65 459 761.3 459 763 C459.66 763 460.32 763 461 763 C461 763.66 461 764.32 461 765 C461.66 765 462.32 765 463 765 C463 765.99 463 766.98 463 768 C463.99 768 464.98 768 466 768 C466 768.66 466 769.32 466 770 C466.66 770 467.32 770 468 770 C468 771.65 468 773.3 468 775 C468.99 775 469.98 775 471 775 C471 775.66 471 776.32 471 777 C471.66 777 472.32 777 473 777 C473 778.65 473 780.3 473 782 C473.99 782 474.98 782 476 782 C476 782.66 476 783.32 476 784 C476.66 784 477.32 784 478 784 C478 784.99 478 785.98 478 787 C478.66 787 479.32 787 480 787 C480 787.66 480 788.32 480 789 C480.99 789 481.98 789 483 789 C483 789.99 483 790.98 483 792 C483.66 792 484.32 792 485 792 C485 792.66 485 793.32 485 794 C485.99 794 486.98 794 488 794 C488 795.65 488 797.3 488 799 C488.66 799 489.32 799 490 799 C490 799.66 490 800.32 490 801 C490.66 801 491.32 801 492 801 C492 802.65 492 804.3 492 806 C492.99 806 493.98 806 495 806 C495 806.99 495 807.98 495 809 C495.66 809 496.32 809 497 809 C497 810.32 497 811.64 497 813 C497.99 813 498.98 813 500 813 C500 814.65 500 816.3 500 818 C500.66 818 501.32 818 502 818 C502 819.65 502 821.3 502 823 C502.66 823 503.32 823 504 823 C504 823.99 504 824.98 504 826 C504.99 826 505.98 826 507 826 C507 826.66 507 827.32 507 828 C507.66 828 508.32 828 509 828 C509 828.66 509 829.32 509 830 C509.99 830 510.98 830 512 830 C512 831.65 512 833.3 512 835 C512.66 835 513.32 835 514 835 C514 836.65 514 838.3 514 840 C514.99 840 515.98 840 517 840 C517 840.66 517 841.32 517 842 C517.66 842 518.32 842 519 842 C519 842.99 519 843.98 519 845 C519.66 845 520.32 845 521 845 C521 845.66 521 846.32 521 847 C521.99 847 522.98 847 524 847 C524 847.99 524 848.98 524 850 C524.66 850 525.32 850 526 850 C526 850.66 526 851.32 526 852 C526.99 852 527.98 852 529 852 C529 852.66 529 853.32 529 854 C529.66 854 530.32 854 531 854 C531 854.99 531 855.98 531 857 C532.65 857 534.3 857 536 857 C536 858.65 536 860.3 536 862 C536.66 862 537.32 862 538 862 C538 862.66 538 863.32 538 864 C538.99 864 539.98 864 541 864 C541 865.65 541 867.3 541 869 C541.66 869 542.32 869 543 869 C543 870.65 543 872.3 543 874 C543.66 874 544.32 874 545 874 C545 875.65 545 877.3 545 879 C545.99 879 546.98 879 548 879 C548 880.32 548 881.64 548 883 C548.66 883 549.32 883 550 883 C550 883.99 550 884.98 550 886 C550.99 886 551.98 886 553 886 C553 886.66 553 887.32 553 888 C553.66 888 554.32 888 555 888 C555 888.99 555 889.98 555 891 C555.99 891 556.98 891 558 891 C558 891.66 558 892.32 558 893 C558.66 893 559.32 893 560 893 C560 893.66 560 894.32 560 895 C560.66 895 561.32 895 562 895 C562 895.99 562 896.98 562 898 C562.99 898 563.98 898 565 898 C565 898.66 565 899.32 565 900 C565.66 900 566.32 900 567 900 C567 900.99 567 901.98 567 903 C567.99 903 568.98 903 570 903 C570 903.66 570 904.32 570 905 C570.66 905 571.32 905 572 905 C572 905.99 572 906.98 572 908 C572.66 908 573.32 908 574 908 C574 908.66 574 909.32 574 910 C574.99 910 575.98 910 577 910 C577 910.66 577 911.32 577 912 C577.66 912 578.32 912 579 912 C579 913.65 579 915.3 579 917 C579.99 917 580.98 917 582 917 C582 918.65 582 920.3 582 922 C582.66 922 583.32 922 584 922 C584 922.66 584 923.32 584 924 C584.66 924 585.32 924 586 924 C586 925.65 586 927.3 586 929 C586.99 929 587.98 929 589 929 C589 929.99 589 930.98 589 932 C589.66 932 590.32 932 591 932 C591 933.65 591 935.3 591 937 C591.99 937 592.98 937 594 937 C594 938.32 594 939.64 594 941 C594.66 941 595.32 941 596 941 C596 941.99 596 942.98 596 944 C596.99 944 597.98 944 599 944 C599 945.65 599 947.3 599 949 C599.66 949 600.32 949 601 949 C601 950.32 601 951.64 601 953 C600.34 953 599.68 953 599 953 C599 953.99 599 954.98 599 956 C595.7 956 592.4 956 589 956 C589 956.66 589 957.32 589 958 C586.69 958 584.38 958 582 958 C582 957.34 582 956.68 582 956 C581.01 956 580.02 956 579 956 C579 956.66 579 957.32 579 958 C576.03 958 573.06 958 570 958 C570 957.34 570 956.68 570 956 C566.7 956 563.4 956 560 956 C560 956.66 560 957.32 560 958 C558.35 958 556.7 958 555 958 C555 957.34 555 956.68 555 956 C554.34 956 553.68 956 553 956 C553 952.7 553 949.4 553 946 C552.01 946 551.02 946 550 946 C550 945.34 550 944.68 550 944 C549.34 944 548.68 944 548 944 C548 942.35 548 940.7 548 939 C547.01 939 546.02 939 545 939 C545 938.34 545 937.68 545 937 C544.34 937 543.68 937 543 937 C543 936.01 543 935.02 543 934 C542.34 934 541.68 934 541 934 C541 932.35 541 930.7 541 929 C540.01 929 539.02 929 538 929 C538 927.35 538 925.7 538 924 C537.34 924 536.68 924 536 924 C536 923.34 536 922.68 536 922 C535.01 922 534.02 922 533 922 C533 920.35 533 918.7 533 917 C532.34 917 531.68 917 531 917 C531 916.34 531 915.68 531 915 C530.34 915 529.68 915 529 915 C529 914.01 529 913.02 529 912 C528.01 912 527.02 912 526 912 C526 911.34 526 910.68 526 910 C525.34 910 524.68 910 524 910 C524 907.69 524 905.38 524 903 C523.01 903 522.02 903 521 903 C521 902.01 521 901.02 521 900 C520.34 900 519.68 900 519 900 C519 898.35 519 896.7 519 895 C518.34 895 517.68 895 517 895 C517 894.34 517 893.68 517 893 C516.01 893 515.02 893 514 893 C514 892.34 514 891.68 514 891 C513.34 891 512.68 891 512 891 C512 889.35 512 887.7 512 886 C511.01 886 510.02 886 509 886 C509 885.01 509 884.02 509 883 C508.34 883 507.68 883 507 883 C507 881.68 507 880.36 507 879 C506.01 879 505.02 879 504 879 C504 878.01 504 877.02 504 876 C503.34 876 502.68 876 502 876 C502 875.34 502 874.68 502 874 C501.34 874 500.68 874 500 874 C500 873.01 500 872.02 500 871 C499.01 871 498.02 871 497 871 C497 870.34 497 869.68 497 869 C496.34 869 495.68 869 495 869 C495 867.35 495 865.7 495 864 C494.01 864 493.02 864 492 864 C492 862.35 492 860.7 492 859 C491.34 859 490.68 859 490 859 C490 858.34 490 857.68 490 857 C489.34 857 488.68 857 488 857 C488 856.01 488 855.02 488 854 C487.01 854 486.02 854 485 854 C485 852.68 485 851.36 485 850 C484.34 850 483.68 850 483 850 C483 849.01 483 848.02 483 847 C482.01 847 481.02 847 480 847 C480 846.34 480 845.68 480 845 C479.34 845 478.68 845 478 845 C478 844.01 478 843.02 478 842 C477.34 842 476.68 842 476 842 C476 841.34 476 840.68 476 840 C475.01 840 474.02 840 473 840 C473 839.34 473 838.68 473 838 C472.34 838 471.68 838 471 838 C471 837.01 471 836.02 471 835 C470.01 835 469.02 835 468 835 C468 834.34 468 833.68 468 833 C467.34 833 466.68 833 466 833 C466 831.35 466 829.7 466 828 C465.01 828 464.02 828 463 828 C463 827.34 463 826.68 463 826 C462.34 826 461.68 826 461 826 C461 824.35 461 822.7 461 821 C460.34 821 459.68 821 459 821 C459 820.01 459 819.02 459 818 C458.01 818 457.02 818 456 818 C456 816.35 456 814.7 456 813 C455.34 813 454.68 813 454 813 C454 811.68 454 810.36 454 809 C453.01 809 452.02 809 451 809 C451 807.35 451 805.7 451 804 C450.34 804 449.68 804 449 804 C449 803.01 449 802.02 449 801 C448.34 801 447.68 801 447 801 C447 799.68 447 798.36 447 797 C446.01 797 445.02 797 444 797 C444 796.01 444 795.02 444 794 C443.34 794 442.68 794 442 794 C442 792.35 442 790.7 442 789 C441.01 789 440.02 789 439 789 C439 788.34 439 787.68 439 787 C438.34 787 437.68 787 437 787 C437 785.35 437 783.7 437 782 C436.01 782 435.02 782 434 782 C434 781.34 434 780.68 434 780 C433.34 780 432.68 780 432 780 C432 779.01 432 778.02 432 777 C431.34 777 430.68 777 430 777 C430 775.35 430 773.7 430 772 C429.01 772 428.02 772 427 772 C427 771.34 427 770.68 427 770 C426.34 770 425.68 770 425 770 C425 769.34 425 768.68 425 768 C424.01 768 423.02 768 422 768 C422 766.35 422 764.7 422 763 C421.34 763 420.68 763 420 763 C420 761.35 420 759.7 420 758 C419.34 758 418.68 758 418 758 C418 756.35 418 754.7 418 753 C417.01 753 416.02 753 415 753 C415 752.34 415 751.68 415 751 C414.34 751 413.68 751 413 751 C413 749.35 413 747.7 413 746 C412.01 746 411.02 746 410 746 C410 745.01 410 744.02 410 743 C409.34 743 408.68 743 408 743 C408 742.34 408 741.68 408 741 C407.34 741 406.68 741 406 741 C406 740.34 406 739.68 406 739 C405.01 739 404.02 739 403 739 C403 737.35 403 735.7 403 734 C402.34 734 401.68 734 401 734 C401 733.01 401 732.02 401 731 C400.01 731 399.02 731 398 731 C398 730.34 398 729.68 398 729 C397.34 729 396.68 729 396 729 C396 728.34 396 727.68 396 727 C395.01 727 394.02 727 393 727 C393 726.01 393 725.02 393 724 C392.34 724 391.68 724 391 724 C391 723.34 391 722.68 391 722 C390.34 722 389.68 722 389 722 C389 721.01 389 720.02 389 719 C388.01 719 387.02 719 386 719 C386 718.34 386 717.68 386 717 C385.34 717 384.68 717 384 717 C384 715.35 384 713.7 384 712 C383.01 712 382.02 712 381 712 C381 711.34 381 710.68 381 710 C380.34 710 379.68 710 379 710 C379 708.35 379 706.7 379 705 C378.34 705 377.68 705 377 705 C377 704.01 377 703.02 377 702 C376.01 702 375.02 702 374 702 C374 700.68 374 699.36 374 698 C373.34 698 372.68 698 372 698 C372 696.35 372 694.7 372 693 C371.01 693 370.02 693 369 693 C369 690.69 369 688.38 369 686 C368.34 686 367.68 686 367 686 C367 685.01 367 684.02 367 683 C366.34 683 365.68 683 365 683 C365 682.34 365 681.68 365 681 C364.01 681 363.02 681 362 681 C362 680.01 362 679.02 362 678 C361.34 678 360.68 678 360 678 C360 677.34 360 676.68 360 676 C359.01 676 358.02 676 357 676 C357 674.35 357 672.7 357 671 C356.34 671 355.68 671 355 671 C355 670.34 355 669.68 355 669 C354.01 669 353.02 669 352 669 C352 667.35 352 665.7 352 664 C351.34 664 350.68 664 350 664 C350 663.01 350 662.02 350 661 C348.35 661 346.7 661 345 661 C345 659.68 345 658.36 345 657 C344.34 657 343.68 657 343 657 C343 655.35 343 653.7 343 652 C342.01 652 341.02 652 340 652 C340 650.35 340 648.7 340 647 C339.34 647 338.68 647 338 647 C338 646.34 338 645.68 338 645 C337.34 645 336.68 645 336 645 C336 643.35 336 641.7 336 640 C335.01 640 334.02 640 333 640 C333 638.35 333 636.7 333 635 C332.34 635 331.68 635 331 635 C331 634.01 331 633.02 331 632 C330.01 632 329.02 632 328 632 C328 631.34 328 630.68 328 630 C327.34 630 326.68 630 326 630 C326 629.34 326 628.68 326 628 C325.34 628 324.68 628 324 628 C324 627.01 324 626.02 324 625 C323.01 625 322.02 625 321 625 C321 624.34 321 623.68 321 623 C320.34 623 319.68 623 319 623 C319 621.35 319 619.7 319 618 C318.01 618 317.02 618 316 618 C316 616.35 316 614.7 316 613 C315.34 613 314.68 613 314 613 C314 611.35 314 609.7 314 608 C313.01 608 312.02 608 311 608 C311 607.34 311 606.68 311 606 C310.34 606 309.68 606 309 606 C309 604.35 309 602.7 309 601 C308.34 601 307.68 601 307 601 C307 599.35 307 597.7 307 596 C306.01 596 305.02 596 304 596 C304 593.69 304 591.38 304 589 C303.34 589 302.68 589 302 589 C302 587.35 302 585.7 302 584 C301.01 584 300.02 584 299 584 C299 583.34 299 582.68 299 582 C298.34 582 297.68 582 297 582 C297 580.35 297 578.7 297 577 C296.34 577 295.68 577 295 577 C295 576.34 295 575.68 295 575 C294.01 575 293.02 575 292 575 C292 573.35 292 571.7 292 570 C291.34 570 290.68 570 290 570 C290 568.35 290 566.7 290 565 C289.01 565 288.02 565 287 565 C287 564.34 287 563.68 287 563 C286.34 563 285.68 563 285 563 C285 562.01 285 561.02 285 560 C284.01 560 283.02 560 282 560 C282 558.35 282 556.7 282 555 C281.34 555 280.68 555 280 555 C280 553.35 280 551.7 280 550 C279.34 550 278.68 550 278 550 C278 549.34 278 548.68 278 548 C277.01 548 276.02 548 275 548 C275 547.34 275 546.68 275 546 C274.34 546 273.68 546 273 546 C273 545.01 273 544.02 273 543 C272.01 543 271.02 543 270 543 C270 542.34 270 541.68 270 541 C269.34 541 268.68 541 268 541 C268 540.01 268 539.02 268 538 C267.34 538 266.68 538 266 538 C266 536.68 266 535.36 266 534 C265.01 534 264.02 534 263 534 C263 532.35 263 530.7 263 529 C262.34 529 261.68 529 261 529 C261 527.35 261 525.7 261 524 C260.01 524 259.02 524 258 524 C258 522.35 258 520.7 258 519 C257.34 519 256.68 519 256 519 C256 517.35 256 515.7 256 514 C255.34 514 254.68 514 254 514 C254 512.35 254 510.7 254 509 C253.01 509 252.02 509 251 509 C251 507.68 251 506.36 251 505 C250.34 505 249.68 505 249 505 C249 503.35 249 501.7 249 500 C248.01 500 247.02 500 246 500 C246 498.35 246 496.7 246 495 C245.34 495 244.68 495 244 495 C244 493.35 244 491.7 244 490 C243.01 490 242.02 490 241 490 C241 488.35 241 486.7 241 485 C240.34 485 239.68 485 239 485 C239 484.34 239 483.68 239 483 C238.34 483 237.68 483 237 483 C237 482.01 237 481.02 237 480 C236.01 480 235.02 480 234 480 C234 479.34 234 478.68 234 478 C233.34 478 232.68 478 232 478 C232 476.35 232 474.7 232 473 C231.01 473 230.02 473 229 473 C229 472.34 229 471.68 229 471 C228.34 471 227.68 471 227 471 C227 469.35 227 467.7 227 466 C226.34 466 225.68 466 225 466 C225 464.35 225 462.7 225 461 C224.01 461 223.02 461 222 461 C222 460.34 222 459.68 222 459 C221.34 459 220.68 459 220 459 C220 457.35 220 455.7 220 454 C219.01 454 218.02 454 217 454 C217 452.35 217 450.7 217 449 C216.34 449 215.68 449 215 449 C215 448.34 215 447.68 215 447 C214.34 447 213.68 447 213 447 C213 445.35 213 443.7 213 442 C212.01 442 211.02 442 210 442 C210 440.35 210 438.7 210 437 C209.34 437 208.68 437 208 437 C208 435.35 208 433.7 208 432 C207.01 432 206.02 432 205 432 C205 431.34 205 430.68 205 430 C204.34 430 203.68 430 203 430 C203 428.35 203 426.7 203 425 C202.01 425 201.02 425 200 425 C200 424.34 200 423.68 200 423 C199.34 423 198.68 423 198 423 C198 422.01 198 421.02 198 420 C197.34 420 196.68 420 196 420 C196 418.35 196 416.7 196 415 C195.01 415 194.02 415 193 415 C193 414.34 193 413.68 193 413 C192.34 413 191.68 413 191 413 C191 412.34 191 411.68 191 411 C190.01 411 189.02 411 188 411 C188 409.35 188 407.7 188 406 C187.34 406 186.68 406 186 406 C186 404.35 186 402.7 186 401 C185.34 401 184.68 401 184 401 C184 399.35 184 397.7 184 396 C183.01 396 182.02 396 181 396 C181 394.35 181 392.7 181 391 C180.34 391 179.68 391 179 391 C179 390.34 179 389.68 179 389 C178.01 389 177.02 389 176 389 C176 387.35 176 385.7 176 384 C175.34 384 174.68 384 174 384 C174 380.7 174 377.4 174 374 C173.34 374 172.68 374 172 374 C172 372.68 172 371.36 172 370 C171.01 370 170.02 370 169 370 C169 368.35 169 366.7 169 365 C168.34 365 167.68 365 167 365 C167 363.35 167 361.7 167 360 C166.01 360 165.02 360 164 360 C164 357.69 164 355.38 164 353 C163.34 353 162.68 353 162 353 C162 351.35 162 349.7 162 348 C161.01 348 160.02 348 159 348 C159 347.01 159 346.02 159 345 C158.34 345 157.68 345 157 345 C157 344.34 157 343.68 157 343 C156.34 343 155.68 343 155 343 C155 342.34 155 341.68 155 341 C154.01 341 153.02 341 152 341 C152 339.35 152 337.7 152 336 C151.34 336 150.68 336 150 336 C150 335.01 150 334.02 150 333 C149.01 333 148.02 333 147 333 C147 331.35 147 329.7 147 328 C146.34 328 145.68 328 145 328 C145 326.68 145 325.36 145 324 C144.34 324 143.68 324 143 324 C143 322.35 143 320.7 143 319 C142.01 319 141.02 319 140 319 C140 316.69 140 314.38 140 312 C139.34 312 138.68 312 138 312 C138 310.35 138 308.7 138 307 C137.01 307 136.02 307 135 307 C135 305.35 135 303.7 135 302 C134.34 302 133.68 302 133 302 C133 300.35 133 298.7 133 297 C132.01 297 131.02 297 130 297 C130 295.35 130 293.7 130 292 C129.34 292 128.68 292 128 292 C128 287.38 128 282.76 128 278 C127.34 278 126.68 278 126 278 C126 276.35 126 274.7 126 273 C125.01 273 124.02 273 123 273 C123 271.35 123 269.7 123 268 C122.34 268 121.68 268 121 268 C121 265.69 121 263.38 121 261 C120.01 261 119.02 261 118 261 C118 260.34 118 259.68 118 259 C117.34 259 116.68 259 116 259 C116 255.7 116 252.4 116 249 C115.34 249 114.68 249 114 249 C114 247.35 114 245.7 114 244 C113.01 244 112.02 244 111 244 C111 242.35 111 240.7 111 239 C110.34 239 109.68 239 109 239 C109 236.69 109 234.38 109 232 C108.01 232 107.02 232 106 232 C106 230.35 106 228.7 106 227 C105.34 227 104.68 227 104 227 C104 224.69 104 222.38 104 220 C103.34 220 102.68 220 102 220 C102 218.35 102 216.7 102 215 C101.01 215 100.02 215 99 215 C99 213.35 99 211.7 99 210 C98.34 210 97.68 210 97 210 C97 209.34 97 208.68 97 208 C96.01 208 95.02 208 94 208 C94 205.69 94 203.38 94 201 C93.34 201 92.68 201 92 201 C92 199.35 92 197.7 92 196 C91.01 196 90.02 196 89 196 C89 194.35 89 192.7 89 191 C88.34 191 87.68 191 87 191 C87 189.35 87 187.7 87 186 C86.34 186 85.68 186 85 186 C85 183.69 85 181.38 85 179 C84.01 179 83.02 179 82 179 C82 177.35 82 175.7 82 174 C81.34 174 80.68 174 80 174 C80 172.35 80 170.7 80 169 C79.01 169 78.02 169 77 169 C77 167.35 77 165.7 77 164 C76.34 164 75.68 164 75 164 C75 162.68 75 161.36 75 160 C74.34 160 73.68 160 73 160 C73 158.35 73 156.7 73 155 C72.01 155 71.02 155 70 155 C70 151.7 70 148.4 70 145 C69.34 145 68.68 145 68 145 C68 141.7 68 138.4 68 135 C67.01 135 66.02 135 65 135 C65 133.68 65 132.36 65 131 C64.34 131 63.68 131 63 131 C63 129.35 63 127.7 63 126 C62.34 126 61.68 126 61 126 C61 124.35 61 122.7 61 121 C60.01 121 59.02 121 58 121 C58 118.69 58 116.38 58 114 C57.34 114 56.68 114 56 114 C56 112.35 56 110.7 56 109 C55.01 109 54.02 109 53 109 C53 107.35 53 105.7 53 104 C52.34 104 51.68 104 51 104 C51 103.34 51 102.68 51 102 C50.01 102 49.02 102 48 102 C48 98.04 48 94.08 48 90 C47.34 90 46.68 90 46 90 C46 89.01 46 88.02 46 87 C45.34 87 44.68 87 44 87 C44 86.34 44 85.68 44 85 C43.01 85 42.02 85 41 85 C41 82.69 41 80.38 41 78 C40.34 78 39.68 78 39 78 C39 77.01 39 76.02 39 75 C38.01 75 37.02 75 36 75 C36 73.35 36 71.7 36 70 C35.34 70 34.68 70 34 70 C34 69.34 34 68.68 34 68 C33.34 68 32.68 68 32 68 C32 65.69 32 63.38 32 61 C31.01 61 30.02 61 29 61 C29 59.35 29 57.7 29 56 C28.34 56 27.68 56 27 56 C27 54.35 27 52.7 27 51 C26.01 51 25.02 51 24 51 C24 50.34 24 49.68 24 49 C23.34 49 22.68 49 22 49 C22 47.35 22 45.7 22 44 C21.34 44 20.68 44 20 44 C20 41.69 20 39.38 20 37 C19.01 37 18.02 37 17 37 C17 36.01 17 35.02 17 34 C16.34 34 15.68 34 15 34 C15 32.35 15 30.7 15 29 C14.01 29 13.02 29 12 29 C12 27.35 12 25.7 12 24 C11.34 24 10.68 24 10 24 C10 21.69 10 19.38 10 17 C9.01 17 8.02 17 7 17 C7 16.34 7 15.68 7 15 C6.34 15 5.68 15 5 15 C5 13.35 5 11.7 5 10 C4.34 10 3.68 10 3 10 C3 7.69 3 5.38 3 3 C2.01 3 1.02 3 0 3 C0 2.01 0 1.02 0 0 Z " fill="#79D76E" transform="translate(99,408)"/>
<path d="M0 0 C2.31 0 4.62 0 7 0 C7 0.66 7 1.32 7 2 C10.96 2 14.92 2 19 2 C19 3.65 19 5.3 19 7 C19.99 7 20.98 7 22 7 C22 7.99 22 8.98 22 10 C22.66 10 23.32 10 24 10 C24 10.66 24 11.32 24 12 C24.99 12 25.98 12 27 12 C27 13.65 27 15.3 27 17 C27.66 17 28.32 17 29 17 C29 18.65 29 20.3 29 22 C29.99 22 30.98 22 32 22 C32 24.31 32 26.62 32 29 C32.66 29 33.32 29 34 29 C34 32.3 34 35.6 34 39 C34.66 39 35.32 39 36 39 C36 41.97 36 44.94 36 48 C36.99 48 37.98 48 39 48 C39 51.3 39 54.6 39 58 C39.66 58 40.32 58 41 58 C41 62.62 41 67.24 41 72 C40.34 72 39.68 72 39 72 C39 73.65 39 75.3 39 77 C38.01 77 37.02 77 36 77 C36 78.65 36 80.3 36 82 C35.34 82 34.68 82 34 82 C34 82.66 34 83.32 34 84 C33.34 84 32.68 84 32 84 C32 85.65 32 87.3 32 89 C31.01 89 30.02 89 29 89 C29 90.65 29 92.3 29 94 C28.34 94 27.68 94 27 94 C27 96.31 27 98.62 27 101 C26.01 101 25.02 101 24 101 C24 103.64 24 106.28 24 109 C23.34 109 22.68 109 22 109 C22 110.32 22 111.64 22 113 C21.01 113 20.02 113 19 113 C19 114.65 19 116.3 19 118 C18.34 118 17.68 118 17 118 C17 119.65 17 121.3 17 123 C16.34 123 15.68 123 15 123 C15 124.65 15 126.3 15 128 C14.01 128 13.02 128 12 128 C12 129.65 12 131.3 12 133 C11.34 133 10.68 133 10 133 C10 137.62 10 142.24 10 147 C9.01 147 8.02 147 7 147 C7 151.95 7 156.9 7 162 C6.34 162 5.68 162 5 162 C5 194.67 5 227.34 5 261 C5.66 261 6.32 261 7 261 C7 265.62 7 270.24 7 275 C7.99 275 8.98 275 10 275 C10 279.95 10 284.9 10 290 C10.66 290 11.32 290 12 290 C12 292.31 12 294.62 12 297 C12.99 297 13.98 297 15 297 C15 298.65 15 300.3 15 302 C15.66 302 16.32 302 17 302 C17 303.32 17 304.64 17 306 C17.66 306 18.32 306 19 306 C19 307.65 19 309.3 19 311 C19.99 311 20.98 311 22 311 C22 314.3 22 317.6 22 321 C22.66 321 23.32 321 24 321 C24 321.66 24 322.32 24 323 C24.99 323 25.98 323 27 323 C27 323.99 27 324.98 27 326 C27.66 326 28.32 326 29 326 C29 326.66 29 327.32 29 328 C29.99 328 30.98 328 32 328 C32 331.3 32 334.6 32 338 C32.66 338 33.32 338 34 338 C34 338.66 34 339.32 34 340 C34.66 340 35.32 340 36 340 C36 340.99 36 341.98 36 343 C36.99 343 37.98 343 39 343 C39 343.66 39 344.32 39 345 C39.66 345 40.32 345 41 345 C41 345.66 41 346.32 41 347 C41.99 347 42.98 347 44 347 C44 347.99 44 348.98 44 350 C44.66 350 45.32 350 46 350 C46 351.65 46 353.3 46 355 C46.66 355 47.32 355 48 355 C48 355.66 48 356.32 48 357 C48.99 357 49.98 357 51 357 C51 357.66 51 358.32 51 359 C52.65 359 54.3 359 56 359 C56 359.99 56 360.98 56 362 C56.66 362 57.32 362 58 362 C58 362.66 58 363.32 58 364 C58.99 364 59.98 364 61 364 C61 364.99 61 365.98 61 367 C61.66 367 62.32 367 63 367 C63 367.66 63 368.32 63 369 C59.7 369 56.4 369 53 369 C53 368.34 53 367.68 53 367 C50.03 367 47.06 367 44 367 C44 366.01 44 365.02 44 364 C41.36 364 38.72 364 36 364 C36 363.34 36 362.68 36 362 C34.68 362 33.36 362 32 362 C32 361.01 32 360.02 32 359 C30.35 359 28.7 359 27 359 C27 358.34 27 357.68 27 357 C26.01 357 25.02 357 24 357 C24 356.34 24 355.68 24 355 C22.35 355 20.7 355 19 355 C19 354.01 19 353.02 19 352 C17.68 352 16.36 352 15 352 C15 351.34 15 350.68 15 350 C14.01 350 13.02 350 12 350 C12 349.01 12 348.02 12 347 C11.34 347 10.68 347 10 347 C10 346.34 10 345.68 10 345 C9.01 345 8.02 345 7 345 C7 344.34 7 343.68 7 343 C6.34 343 5.68 343 5 343 C5 342.01 5 341.02 5 340 C4.34 340 3.68 340 3 340 C3 339.34 3 338.68 3 338 C2.01 338 1.02 338 0 338 C0 337.01 0 336.02 0 335 C-0.66 335 -1.32 335 -2 335 C-2 334.34 -2 333.68 -2 333 C-2.99 333 -3.98 333 -5 333 C-5 332.34 -5 331.68 -5 331 C-6.32 331 -7.64 331 -9 331 C-9 330.01 -9 329.02 -9 328 C-9.99 328 -10.98 328 -12 328 C-12 327.34 -12 326.68 -12 326 C-12.66 326 -13.32 326 -14 326 C-14 325.01 -14 324.02 -14 323 C-14.99 323 -15.98 323 -17 323 C-17 322.34 -17 321.68 -17 321 C-17.66 321 -18.32 321 -19 321 C-19 320.01 -19 319.02 -19 318 C-19.99 318 -20.98 318 -22 318 C-22 315.03 -22 312.06 -22 309 C-22.66 309 -23.32 309 -24 309 C-24 307.35 -24 305.7 -24 304 C-24.66 304 -25.32 304 -26 304 C-26 301.69 -26 299.38 -26 297 C-26.99 297 -27.98 297 -29 297 C-29 293.7 -29 290.4 -29 287 C-29.66 287 -30.32 287 -31 287 C-31 282.38 -31 277.76 -31 273 C-31.99 273 -32.98 273 -34 273 C-34 265.74 -34 258.48 -34 251 C-34.66 251 -35.32 251 -36 251 C-36 242.09 -36 233.18 -36 224 C-36.66 224 -37.32 224 -38 224 C-38 215.42 -38 206.84 -38 198 C-38.99 198 -39.98 198 -41 198 C-41 194.04 -41 190.08 -41 186 C-41.66 186 -42.32 186 -43 186 C-43 152.34 -43 118.68 -43 84 C-42.34 84 -41.68 84 -41 84 C-41 81.03 -41 78.06 -41 75 C-40.01 75 -39.02 75 -38 75 C-38 70.05 -38 65.1 -38 60 C-37.34 60 -36.68 60 -36 60 C-36 56.04 -36 52.08 -36 48 C-35.34 48 -34.68 48 -34 48 C-34 45.69 -34 43.38 -34 41 C-33.01 41 -32.02 41 -31 41 C-31 38.69 -31 36.38 -31 34 C-30.34 34 -29.68 34 -29 34 C-29 30.7 -29 27.4 -29 24 C-28.01 24 -27.02 24 -26 24 C-26 23.34 -26 22.68 -26 22 C-25.34 22 -24.68 22 -24 22 C-24 21.01 -24 20.02 -24 19 C-23.34 19 -22.68 19 -22 19 C-22 18.34 -22 17.68 -22 17 C-21.01 17 -20.02 17 -19 17 C-19 15.35 -19 13.7 -19 12 C-18.34 12 -17.68 12 -17 12 C-17 11.34 -17 10.68 -17 10 C-16.01 10 -15.02 10 -14 10 C-14 9.01 -14 8.02 -14 7 C-13.34 7 -12.68 7 -12 7 C-12 6.34 -12 5.68 -12 5 C-11.01 5 -10.02 5 -9 5 C-9 4.01 -9 3.02 -9 2 C-6.03 2 -3.06 2 0 2 C0 1.34 0 0.68 0 0 Z " fill="#F1D654" transform="translate(58,32)"/>
<path d="M0 0 C2.31 0 4.62 0 7 0 C7 0.66 7 1.32 7 2 C7.99 2 8.98 2 10 2 C10 2.99 10 3.98 10 5 C10.66 5 11.32 5 12 5 C12 6.65 12 8.3 12 10 C12.99 10 13.98 10 15 10 C15 10.66 15 11.32 15 12 C15.66 12 16.32 12 17 12 C17 18.27 17 24.54 17 31 C17.66 31 18.32 31 19 31 C19 38.26 19 45.52 19 53 C19.99 53 20.98 53 22 53 C22 62.57 22 72.14 22 82 C22.66 82 23.32 82 24 82 C24 94.87 24 107.74 24 121 C23.34 121 22.68 121 22 121 C22 128.92 22 136.84 22 145 C21.01 145 20.02 145 19 145 C19 153.58 19 162.16 19 171 C18.34 171 17.68 171 17 171 C17 174.3 17 177.6 17 181 C16.34 181 15.68 181 15 181 C15 183.31 15 185.62 15 188 C14.01 188 13.02 188 12 188 C12 190.31 12 192.62 12 195 C11.34 195 10.68 195 10 195 C10 197.64 10 200.28 10 203 C9.01 203 8.02 203 7 203 C7 203.66 7 204.32 7 205 C6.34 205 5.68 205 5 205 C5 206.65 5 208.3 5 210 C4.34 210 3.68 210 3 210 C3 211.65 3 213.3 3 215 C2.01 215 1.02 215 0 215 C0 216.65 0 218.3 0 220 C-0.66 220 -1.32 220 -2 220 C-2 220.66 -2 221.32 -2 222 C-2.99 222 -3.98 222 -5 222 C-5 218.7 -5 215.4 -5 212 C-4.01 212 -3.02 212 -2 212 C-2 207.38 -2 202.76 -2 198 C-1.34 198 -0.68 198 0 198 C0 192.39 0 186.78 0 181 C0.99 181 1.98 181 3 181 C3 174.73 3 168.46 3 162 C3.66 162 4.32 162 5 162 C5 151.44 5 140.88 5 130 C5.66 130 6.32 130 7 130 C7 110.86 7 91.72 7 72 C6.34 72 5.68 72 5 72 C5 67.38 5 62.76 5 58 C4.34 58 3.68 58 3 58 C3 54.7 3 51.4 3 48 C2.01 48 1.02 48 0 48 C0 43.38 0 38.76 0 34 C-0.66 34 -1.32 34 -2 34 C-2 30.7 -2 27.4 -2 24 C-2.99 24 -3.98 24 -5 24 C-5 22.35 -5 20.7 -5 19 C-5.66 19 -6.32 19 -7 19 C-7 15.04 -7 11.08 -7 7 C-6.34 7 -5.68 7 -5 7 C-5 6.34 -5 5.68 -5 5 C-4.01 5 -3.02 5 -2 5 C-2 4.01 -2 3.02 -2 2 C-1.34 2 -0.68 2 0 2 C0 1.34 0 0.68 0 0 Z " fill="#F1D654" transform="translate(280,73)"/>
<path d="M0 0 C8.91 0 17.82 0 27 0 C27 0.99 27 1.98 27 3 C29.97 3 32.94 3 36 3 C36 3.66 36 4.32 36 5 C36.99 5 37.98 5 39 5 C39 5.66 39 6.32 39 7 C40.65 7 42.3 7 44 7 C44 7.99 44 8.98 44 10 C44.66 10 45.32 10 46 10 C46 10.66 46 11.32 46 12 C46.66 12 47.32 12 48 12 C48 12.99 48 13.98 48 15 C48.99 15 49.98 15 51 15 C51 15.66 51 16.32 51 17 C51.66 17 52.32 17 53 17 C53 18.65 53 20.3 53 22 C52.34 22 51.68 22 51 22 C51 22.66 51 23.32 51 24 C50.01 24 49.02 24 48 24 C48 24.99 48 25.98 48 27 C46.68 27 45.36 27 44 27 C44 27.66 44 28.32 44 29 C43.01 29 42.02 29 41 29 C41 29.66 41 30.32 41 31 C40.34 31 39.68 31 39 31 C39 31.99 39 32.98 39 34 C37.35 34 35.7 34 34 34 C34 34.66 34 35.32 34 36 C33.01 36 32.02 36 31 36 C31 36.99 31 37.98 31 39 C30.34 39 29.68 39 29 39 C29 39.66 29 40.32 29 41 C27.35 41 25.7 41 24 41 C24 41.99 24 42.98 24 44 C23.34 44 22.68 44 22 44 C22 44.66 22 45.32 22 46 C21.01 46 20.02 46 19 46 C19 47.65 19 49.3 19 51 C18.34 51 17.68 51 17 51 C17 51.66 17 52.32 17 53 C16.34 53 15.68 53 15 53 C15 53.99 15 54.98 15 56 C14.01 56 13.02 56 12 56 C12 56.66 12 57.32 12 58 C11.34 58 10.68 58 10 58 C10 58.66 10 59.32 10 60 C9.01 60 8.02 60 7 60 C7 60.99 7 61.98 7 63 C6.34 63 5.68 63 5 63 C5 63.66 5 64.32 5 65 C4.34 65 3.68 65 3 65 C3 65.99 3 66.98 3 68 C2.01 68 1.02 68 0 68 C0 68.66 0 69.32 0 70 C-0.66 70 -1.32 70 -2 70 C-2 71.65 -2 73.3 -2 75 C-2.99 75 -3.98 75 -5 75 C-5 75.66 -5 76.32 -5 77 C-5.66 77 -6.32 77 -7 77 C-7 75.35 -7 73.7 -7 72 C-7.99 72 -8.98 72 -10 72 C-10 68.04 -10 64.08 -10 60 C-10.66 60 -11.32 60 -12 60 C-12 57.03 -12 54.06 -12 51 C-12.66 51 -13.32 51 -14 51 C-14 48.69 -14 46.38 -14 44 C-14.99 44 -15.98 44 -17 44 C-17 41.36 -17 38.72 -17 36 C-17.66 36 -18.32 36 -19 36 C-19 33.69 -19 31.38 -19 29 C-19.99 29 -20.98 29 -22 29 C-22 28.34 -22 27.68 -22 27 C-22.66 27 -23.32 27 -24 27 C-24 25.35 -24 23.7 -24 22 C-23.34 22 -22.68 22 -22 22 C-22 20.35 -22 18.7 -22 17 C-21.01 17 -20.02 17 -19 17 C-19 15.35 -19 13.7 -19 12 C-18.34 12 -17.68 12 -17 12 C-17 11.34 -17 10.68 -17 10 C-15.35 10 -13.7 10 -12 10 C-12 9.01 -12 8.02 -12 7 C-11.34 7 -10.68 7 -10 7 C-10 6.34 -10 5.68 -10 5 C-8.35 5 -6.7 5 -5 5 C-5 4.34 -5 3.68 -5 3 C-3.35 3 -1.7 3 0 3 C0 2.01 0 1.02 0 0 Z " fill="#F1E854" transform="translate(116,15)"/>
</svg>
