<?xml version="1.0" encoding="UTF-8"?>
<svg version="1.1" xmlns="http://www.w3.org/2000/svg" width="1032" height="1263">
<path d="M0 0 C3.3 0 6.6 0 10 0 C10 1.65 10 3.3 10 5 C11.65 5 13.3 5 15 5 C15 11.6 15 18.2 15 25 C16.65 25 18.3 25 20 25 C20 29.95 20 34.9 20 40 C21.65 40 23.3 40 25 40 C25 51.88 25 63.76 25 76 C26.65 76 28.3 76 30 76 C30 80.95 30 85.9 30 91 C31.65 91 33.3 91 35 91 C35 94.3 35 97.6 35 101 C36.65 101 38.3 101 40 101 C40 105.95 40 110.9 40 116 C41.65 116 43.3 116 45 116 C45 119.3 45 122.6 45 126 C46.65 126 48.3 126 50 126 C50 130.95 50 135.9 50 141 C51.65 141 53.3 141 55 141 C55 145.95 55 150.9 55 156 C56.98 156 58.96 156 61 156 C61 159.3 61 162.6 61 166 C62.65 166 64.3 166 66 166 C66 171.28 66 176.56 66 182 C67.65 182 69.3 182 71 182 C71 188.6 71 195.2 71 202 C72.65 202 74.3 202 76 202 C76 208.6 76 215.2 76 222 C77.65 222 79.3 222 81 222 C81 228.6 81 235.2 81 242 C82.65 242 84.3 242 86 242 C86 248.6 86 255.2 86 262 C87.65 262 89.3 262 91 262 C91 265.3 91 268.6 91 272 C92.65 272 94.3 272 96 272 C96 275.3 96 278.6 96 282 C97.65 282 99.3 282 101 282 C101 285.3 101 288.6 101 292 C102.65 292 104.3 292 106 292 C106 295.63 106 299.26 106 303 C107.65 303 109.3 303 111 303 C111 306.3 111 309.6 111 313 C112.65 313 114.3 313 116 313 C116 314.65 116 316.3 116 318 C117.65 318 119.3 318 121 318 C121 321.3 121 324.6 121 328 C122.65 328 124.3 328 126 328 C126 329.65 126 331.3 126 333 C127.65 333 129.3 333 131 333 C131 334.65 131 336.3 131 338 C132.65 338 134.3 338 136 338 C136 341.3 136 344.6 136 348 C137.65 348 139.3 348 141 348 C141 349.65 141 351.3 141 353 C142.65 353 144.3 353 146 353 C146 354.65 146 356.3 146 358 C147.65 358 149.3 358 151 358 C151 361.3 151 364.6 151 368 C152.65 368 154.3 368 156 368 C156 369.65 156 371.3 156 373 C157.65 373 159.3 373 161 373 C161 374.65 161 376.3 161 378 C162.65 378 164.3 378 166 378 C166 381.3 166 384.6 166 388 C167.65 388 169.3 388 171 388 C171 389.65 171 391.3 171 393 C172.65 393 174.3 393 176 393 C176 394.65 176 396.3 176 398 C177.98 398 179.96 398 182 398 C182 399.65 182 401.3 182 403 C183.65 403 185.3 403 187 403 C187 404.65 187 406.3 187 408 C188.65 408 190.3 408 192 408 C192 409.65 192 411.3 192 413 C195.3 413 198.6 413 202 413 C202 414.65 202 416.3 202 418 C203.65 418 205.3 418 207 418 C207 419.98 207 421.96 207 424 C208.65 424 210.3 424 212 424 C212 425.65 212 427.3 212 429 C213.65 429 215.3 429 217 429 C217 430.65 217 432.3 217 434 C218.65 434 220.3 434 222 434 C222 435.65 222 437.3 222 439 C223.65 439 225.3 439 227 439 C227 440.65 227 442.3 227 444 C228.65 444 230.3 444 232 444 C232 445.65 232 447.3 232 449 C233.65 449 235.3 449 237 449 C237 450.65 237 452.3 237 454 C238.65 454 240.3 454 242 454 C242 455.65 242 457.3 242 459 C243.65 459 245.3 459 247 459 C247 460.65 247 462.3 247 464 C250.3 464 253.6 464 257 464 C257 465.65 257 467.3 257 469 C258.65 469 260.3 469 262 469 C262 470.65 262 472.3 262 474 C263.65 474 265.3 474 267 474 C267 475.65 267 477.3 267 479 C268.65 479 270.3 479 272 479 C272 480.65 272 482.3 272 484 C273.65 484 275.3 484 277 484 C277 485.65 277 487.3 277 489 C280.3 489 283.6 489 287 489 C287 490.65 287 492.3 287 494 C290.3 494 293.6 494 297 494 C297 495.65 297 497.3 297 499 C300.63 499 304.26 499 308 499 C308 500.65 308 502.3 308 504 C312.95 504 317.9 504 323 504 C323 505.65 323 507.3 323 509 C331.25 509 339.5 509 348 509 C348 510.65 348 512.3 348 514 C356.25 514 364.5 514 373 514 C373 515.65 373 517.3 373 519 C433.06 519 493.12 519 555 519 C555 520.65 555 522.3 555 524 C556.65 524 558.3 524 560 524 C560 528.95 560 533.9 560 539 C558.35 539 556.7 539 555 539 C555 540.98 555 542.96 555 545 C549.72 545 544.44 545 539 545 C539 546.65 539 548.3 539 550 C529.1 550 519.2 550 509 550 C509 551.65 509 553.3 509 555 C502.4 555 495.8 555 489 555 C489 556.65 489 558.3 489 560 C480.75 560 472.5 560 464 560 C464 561.65 464 563.3 464 565 C457.4 565 450.8 565 444 565 C444 566.65 444 568.3 444 570 C440.7 570 437.4 570 434 570 C434 571.65 434 573.3 434 575 C428.72 575 423.44 575 418 575 C418 576.65 418 578.3 418 580 C413.05 580 408.1 580 403 580 C403 581.65 403 583.3 403 585 C398.05 585 393.1 585 388 585 C388 586.65 388 588.3 388 590 C384.7 590 381.4 590 378 590 C378 591.65 378 593.3 378 595 C373.05 595 368.1 595 363 595 C363 596.65 363 598.3 363 600 C358.05 600 353.1 600 348 600 C348 601.65 348 603.3 348 605 C344.7 605 341.4 605 338 605 C338 606.65 338 608.3 338 610 C334.7 610 331.4 610 328 610 C328 611.65 328 613.3 328 615 C324.7 615 321.4 615 318 615 C318 616.65 318 618.3 318 620 C316.35 620 314.7 620 313 620 C313 621.65 313 623.3 313 625 C309.7 625 306.4 625 303 625 C303 626.65 303 628.3 303 630 C299.37 630 295.74 630 292 630 C292 631.65 292 633.3 292 635 C290.35 635 288.7 635 287 635 C287 636.65 287 638.3 287 640 C283.7 640 280.4 640 277 640 C277 641.65 277 643.3 277 645 C275.35 645 273.7 645 272 645 C272 646.65 272 648.3 272 650 C270.35 650 268.7 650 267 650 C267 651.65 267 653.3 267 655 C265.35 655 263.7 655 262 655 C262 656.65 262 658.3 262 660 C258.7 660 255.4 660 252 660 C252 661.98 252 663.96 252 666 C250.35 666 248.7 666 247 666 C247 667.65 247 669.3 247 671 C245.35 671 243.7 671 242 671 C242 672.65 242 674.3 242 676 C240.35 676 238.7 676 237 676 C237 677.65 237 679.3 237 681 C235.35 681 233.7 681 232 681 C232 682.65 232 684.3 232 686 C230.35 686 228.7 686 227 686 C227 687.65 227 689.3 227 691 C225.35 691 223.7 691 222 691 C222 692.65 222 694.3 222 696 C220.35 696 218.7 696 217 696 C217 697.65 217 699.3 217 701 C215.35 701 213.7 701 212 701 C212 702.65 212 704.3 212 706 C210.35 706 208.7 706 207 706 C207 709.3 207 712.6 207 716 C205.35 716 203.7 716 202 716 C202 717.65 202 719.3 202 721 C200.35 721 198.7 721 197 721 C197 724.3 197 727.6 197 731 C195.35 731 193.7 731 192 731 C192 734.3 192 737.6 192 741 C190.35 741 188.7 741 187 741 C187 745.95 187 750.9 187 756 C185.35 756 183.7 756 182 756 C182 760.95 182 765.9 182 771 C180.02 771 178.04 771 176 771 C176 774.3 176 777.6 176 781 C174.35 781 172.7 781 171 781 C171 787.93 171 794.86 171 802 C169.35 802 167.7 802 166 802 C166 810.25 166 818.5 166 827 C164.35 827 162.7 827 161 827 C161 836.9 161 846.8 161 857 C159.35 857 157.7 857 156 857 C156 875.48 156 893.96 156 913 C154.35 913 152.7 913 151 913 C151 966.13 151 1019.26 151 1074 C152.65 1074 154.3 1074 156 1074 C156 1088.85 156 1103.7 156 1119 C157.65 1119 159.3 1119 161 1119 C161 1128.9 161 1138.8 161 1149 C162.65 1149 164.3 1149 166 1149 C166 1157.58 166 1166.16 166 1175 C167.65 1175 169.3 1175 171 1175 C171 1181.6 171 1188.2 171 1195 C172.65 1195 174.3 1195 176 1195 C176 1203.25 176 1211.5 176 1220 C177.98 1220 179.96 1220 182 1220 C182 1221.65 182 1223.3 182 1225 C183.65 1225 185.3 1225 187 1225 C187 1233.25 187 1241.5 187 1250 C185.35 1250 183.7 1250 182 1250 C182 1251.65 182 1253.3 182 1255 C178.37 1255 174.74 1255 171 1255 C171 1253.35 171 1251.7 171 1250 C169.35 1250 167.7 1250 166 1250 C166 1245.05 166 1240.1 166 1235 C164.35 1235 162.7 1235 161 1235 C161 1231.7 161 1228.4 161 1225 C159.35 1225 157.7 1225 156 1225 C156 1216.75 156 1208.5 156 1200 C154.35 1200 152.7 1200 151 1200 C151 1193.4 151 1186.8 151 1180 C149.35 1180 147.7 1180 146 1180 C146 1173.4 146 1166.8 146 1160 C144.35 1160 142.7 1160 141 1160 C141 1153.07 141 1146.14 141 1139 C139.35 1139 137.7 1139 136 1139 C136 1135.7 136 1132.4 136 1129 C134.35 1129 132.7 1129 131 1129 C131 1122.4 131 1115.8 131 1109 C129.35 1109 127.7 1109 126 1109 C126 1104.05 126 1099.1 126 1094 C124.35 1094 122.7 1094 121 1094 C121 1090.7 121 1087.4 121 1084 C119.35 1084 117.7 1084 116 1084 C116 1079.05 116 1074.1 116 1069 C114.35 1069 112.7 1069 111 1069 C111 1064.05 111 1059.1 111 1054 C109.35 1054 107.7 1054 106 1054 C106 1047.4 106 1040.8 106 1034 C104.35 1034 102.7 1034 101 1034 C101 1027.07 101 1020.14 101 1013 C99.35 1013 97.7 1013 96 1013 C96 1009.7 96 1006.4 96 1003 C94.35 1003 92.7 1003 91 1003 C91 996.4 91 989.8 91 983 C89.35 983 87.7 983 86 983 C86 974.75 86 966.5 86 958 C84.35 958 82.7 958 81 958 C81 951.4 81 944.8 81 938 C79.35 938 77.7 938 76 938 C76 934.7 76 931.4 76 928 C74.35 928 72.7 928 71 928 C71 923.05 71 918.1 71 913 C69.35 913 67.7 913 66 913 C66 906.07 66 899.14 66 892 C64.35 892 62.7 892 61 892 C61 888.7 61 885.4 61 882 C59.02 882 57.04 882 55 882 C55 877.05 55 872.1 55 867 C53.35 867 51.7 867 50 867 C50 863.7 50 860.4 50 857 C48.35 857 46.7 857 45 857 C45 853.7 45 850.4 45 847 C43.35 847 41.7 847 40 847 C40 843.7 40 840.4 40 837 C38.35 837 36.7 837 35 837 C35 833.7 35 830.4 35 827 C33.35 827 31.7 827 30 827 C30 825.35 30 823.7 30 822 C28.35 822 26.7 822 25 822 C25 818.7 25 815.4 25 812 C23.35 812 21.7 812 20 812 C20 808.7 20 805.4 20 802 C18.35 802 16.7 802 15 802 C15 798.7 15 795.4 15 792 C13.35 792 11.7 792 10 792 C10 788.37 10 784.74 10 781 C8.35 781 6.7 781 5 781 C5 779.35 5 777.7 5 776 C3.35 776 1.7 776 0 776 C0 772.7 0 769.4 0 766 C-3.3 766 -6.6 766 -10 766 C-10 764.35 -10 762.7 -10 761 C-11.65 761 -13.3 761 -15 761 C-15 759.35 -15 757.7 -15 756 C-16.65 756 -18.3 756 -20 756 C-20 754.35 -20 752.7 -20 751 C-21.65 751 -23.3 751 -25 751 C-25 749.35 -25 747.7 -25 746 C-26.65 746 -28.3 746 -30 746 C-30 744.35 -30 742.7 -30 741 C-31.65 741 -33.3 741 -35 741 C-35 737.7 -35 734.4 -35 731 C-36.65 731 -38.3 731 -40 731 C-40 729.35 -40 727.7 -40 726 C-41.65 726 -43.3 726 -45 726 C-45 724.35 -45 722.7 -45 721 C-46.65 721 -48.3 721 -50 721 C-50 717.7 -50 714.4 -50 711 C-53.3 711 -56.6 711 -60 711 C-60 709.35 -60 707.7 -60 706 C-61.98 706 -63.96 706 -66 706 C-66 704.35 -66 702.7 -66 701 C-67.65 701 -69.3 701 -71 701 C-71 699.35 -71 697.7 -71 696 C-72.65 696 -74.3 696 -76 696 C-76 694.35 -76 692.7 -76 691 C-77.65 691 -79.3 691 -81 691 C-81 689.35 -81 687.7 -81 686 C-82.65 686 -84.3 686 -86 686 C-86 684.35 -86 682.7 -86 681 C-87.65 681 -89.3 681 -91 681 C-91 679.35 -91 677.7 -91 676 C-94.3 676 -97.6 676 -101 676 C-101 674.35 -101 672.7 -101 671 C-102.65 671 -104.3 671 -106 671 C-106 669.35 -106 667.7 -106 666 C-107.65 666 -109.3 666 -111 666 C-111 664.02 -111 662.04 -111 660 C-114.3 660 -117.6 660 -121 660 C-121 658.35 -121 656.7 -121 655 C-122.65 655 -124.3 655 -126 655 C-126 653.35 -126 651.7 -126 650 C-127.65 650 -129.3 650 -131 650 C-131 648.35 -131 646.7 -131 645 C-134.3 645 -137.6 645 -141 645 C-141 643.35 -141 641.7 -141 640 C-142.65 640 -144.3 640 -146 640 C-146 638.35 -146 636.7 -146 635 C-149.3 635 -152.6 635 -156 635 C-156 633.35 -156 631.7 -156 630 C-159.3 630 -162.6 630 -166 630 C-166 628.35 -166 626.7 -166 625 C-169.3 625 -172.6 625 -176 625 C-176 623.35 -176 621.7 -176 620 C-179.3 620 -182.6 620 -186 620 C-186 618.35 -186 616.7 -186 615 C-189.63 615 -193.26 615 -197 615 C-197 613.35 -197 611.7 -197 610 C-200.3 610 -203.6 610 -207 610 C-207 608.35 -207 606.7 -207 605 C-211.95 605 -216.9 605 -222 605 C-222 603.35 -222 601.7 -222 600 C-230.25 600 -238.5 600 -247 600 C-247 598.35 -247 596.7 -247 595 C-255.25 595 -263.5 595 -272 595 C-272 593.35 -272 591.7 -272 590 C-302.03 590 -332.06 590 -363 590 C-363 591.65 -363 593.3 -363 595 C-376.2 595 -389.4 595 -403 595 C-403 596.65 -403 598.3 -403 600 C-414.88 600 -426.76 600 -439 600 C-439 601.65 -439 603.3 -439 605 C-443.95 605 -448.9 605 -454 605 C-454 603.35 -454 601.7 -454 600 C-455.65 600 -457.3 600 -459 600 C-459 596.7 -459 593.4 -459 590 C-457.35 590 -455.7 590 -454 590 C-454 588.35 -454 586.7 -454 585 C-450.7 585 -447.4 585 -444 585 C-444 583.35 -444 581.7 -444 580 C-435.42 580 -426.84 580 -418 580 C-418 578.35 -418 576.7 -418 575 C-413.05 575 -408.1 575 -403 575 C-403 573.35 -403 571.7 -403 570 C-399.7 570 -396.4 570 -393 570 C-393 568.35 -393 566.7 -393 565 C-389.7 565 -386.4 565 -383 565 C-383 563.35 -383 561.7 -383 560 C-379.7 560 -376.4 560 -373 560 C-373 558.35 -373 556.7 -373 555 C-369.7 555 -366.4 555 -363 555 C-363 553.35 -363 551.7 -363 550 C-358.05 550 -353.1 550 -348 550 C-348 548.35 -348 546.7 -348 545 C-344.7 545 -341.4 545 -338 545 C-338 543.02 -338 541.04 -338 539 C-333.05 539 -328.1 539 -323 539 C-323 537.35 -323 535.7 -323 534 C-319.7 534 -316.4 534 -313 534 C-313 532.35 -313 530.7 -313 529 C-306.07 529 -299.14 529 -292 529 C-292 527.35 -292 525.7 -292 524 C-285.4 524 -278.8 524 -272 524 C-272 522.35 -272 520.7 -272 519 C-267.05 519 -262.1 519 -257 519 C-257 517.35 -257 515.7 -257 514 C-252.05 514 -247.1 514 -242 514 C-242 512.35 -242 510.7 -242 509 C-238.7 509 -235.4 509 -232 509 C-232 507.35 -232 505.7 -232 504 C-227.05 504 -222.1 504 -217 504 C-217 502.35 -217 500.7 -217 499 C-213.7 499 -210.4 499 -207 499 C-207 497.35 -207 495.7 -207 494 C-203.7 494 -200.4 494 -197 494 C-197 492.35 -197 490.7 -197 489 C-193.37 489 -189.74 489 -186 489 C-186 487.35 -186 485.7 -186 484 C-182.7 484 -179.4 484 -176 484 C-176 482.35 -176 480.7 -176 479 C-172.7 479 -169.4 479 -166 479 C-166 477.35 -166 475.7 -166 474 C-162.7 474 -159.4 474 -156 474 C-156 472.35 -156 470.7 -156 469 C-152.7 469 -149.4 469 -146 469 C-146 467.35 -146 465.7 -146 464 C-142.7 464 -139.4 464 -136 464 C-136 462.35 -136 460.7 -136 459 C-132.7 459 -129.4 459 -126 459 C-126 457.35 -126 455.7 -126 454 C-124.35 454 -122.7 454 -121 454 C-121 452.35 -121 450.7 -121 449 C-117.7 449 -114.4 449 -111 449 C-111 447.35 -111 445.7 -111 444 C-107.7 444 -104.4 444 -101 444 C-101 442.35 -101 440.7 -101 439 C-99.35 439 -97.7 439 -96 439 C-96 437.35 -96 435.7 -96 434 C-94.35 434 -92.7 434 -91 434 C-91 432.35 -91 430.7 -91 429 C-87.7 429 -84.4 429 -81 429 C-81 427.35 -81 425.7 -81 424 C-79.35 424 -77.7 424 -76 424 C-76 422.02 -76 420.04 -76 418 C-74.35 418 -72.7 418 -71 418 C-71 416.35 -71 414.7 -71 413 C-69.35 413 -67.7 413 -66 413 C-66 411.35 -66 409.7 -66 408 C-64.02 408 -62.04 408 -60 408 C-60 406.35 -60 404.7 -60 403 C-58.35 403 -56.7 403 -55 403 C-55 399.7 -55 396.4 -55 393 C-53.35 393 -51.7 393 -50 393 C-50 389.7 -50 386.4 -50 383 C-48.35 383 -46.7 383 -45 383 C-45 381.35 -45 379.7 -45 378 C-43.35 378 -41.7 378 -40 378 C-40 376.35 -40 374.7 -40 373 C-38.35 373 -36.7 373 -35 373 C-35 371.35 -35 369.7 -35 368 C-33.35 368 -31.7 368 -30 368 C-30 366.35 -30 364.7 -30 363 C-28.35 363 -26.7 363 -25 363 C-25 361.35 -25 359.7 -25 358 C-23.35 358 -21.7 358 -20 358 C-20 354.7 -20 351.4 -20 348 C-18.35 348 -16.7 348 -15 348 C-15 343.05 -15 338.1 -15 333 C-13.35 333 -11.7 333 -10 333 C-10 329.7 -10 326.4 -10 323 C-8.35 323 -6.7 323 -5 323 C-5 318.05 -5 313.1 -5 308 C-3.35 308 -1.7 308 0 308 C0 304.7 0 301.4 0 298 C1.65 298 3.3 298 5 298 C5 291.07 5 284.14 5 277 C6.65 277 8.3 277 10 277 C10 268.75 10 260.5 10 252 C11.65 252 13.3 252 15 252 C15 218.67 15 185.34 15 151 C13.35 151 11.7 151 10 151 C10 129.55 10 108.1 10 86 C8.35 86 6.7 86 5 86 C5 74.12 5 62.24 5 50 C3.35 50 1.7 50 0 50 C0 43.4 0 36.8 0 30 C-1.65 30 -3.3 30 -5 30 C-5 21.75 -5 13.5 -5 5 C-3.35 5 -1.7 5 0 5 C0 3.35 0 1.7 0 0 Z " fill="#8FF762" transform="translate(467,7)"/>
<path d="M0 0 C3.3 0 6.6 0 10 0 C10 1.65 10 3.3 10 5 C11.65 5 13.3 5 15 5 C15 11.6 15 18.2 15 25 C16.65 25 18.3 25 20 25 C20 29.95 20 34.9 20 40 C21.65 40 23.3 40 25 40 C25 51.88 25 63.76 25 76 C26.65 76 28.3 76 30 76 C30 80.95 30 85.9 30 91 C31.65 91 33.3 91 35 91 C35 94.3 35 97.6 35 101 C36.65 101 38.3 101 40 101 C40 105.95 40 110.9 40 116 C41.65 116 43.3 116 45 116 C45 119.3 45 122.6 45 126 C46.65 126 48.3 126 50 126 C50 130.95 50 135.9 50 141 C51.65 141 53.3 141 55 141 C55 145.95 55 150.9 55 156 C56.98 156 58.96 156 61 156 C61 159.3 61 162.6 61 166 C62.65 166 64.3 166 66 166 C66 171.28 66 176.56 66 182 C67.65 182 69.3 182 71 182 C71 188.6 71 195.2 71 202 C72.65 202 74.3 202 76 202 C76 208.6 76 215.2 76 222 C77.65 222 79.3 222 81 222 C81 228.6 81 235.2 81 242 C82.65 242 84.3 242 86 242 C86 248.6 86 255.2 86 262 C87.65 262 89.3 262 91 262 C91 265.3 91 268.6 91 272 C92.65 272 94.3 272 96 272 C96 275.3 96 278.6 96 282 C97.65 282 99.3 282 101 282 C101 285.3 101 288.6 101 292 C102.65 292 104.3 292 106 292 C106 295.63 106 299.26 106 303 C107.65 303 109.3 303 111 303 C111 306.3 111 309.6 111 313 C112.65 313 114.3 313 116 313 C116 314.65 116 316.3 116 318 C117.65 318 119.3 318 121 318 C121 321.3 121 324.6 121 328 C122.65 328 124.3 328 126 328 C126 329.65 126 331.3 126 333 C127.65 333 129.3 333 131 333 C131 334.65 131 336.3 131 338 C132.65 338 134.3 338 136 338 C136 341.3 136 344.6 136 348 C137.65 348 139.3 348 141 348 C141 349.65 141 351.3 141 353 C142.65 353 144.3 353 146 353 C146 354.65 146 356.3 146 358 C147.65 358 149.3 358 151 358 C151 361.3 151 364.6 151 368 C152.65 368 154.3 368 156 368 C156 369.65 156 371.3 156 373 C157.65 373 159.3 373 161 373 C161 374.65 161 376.3 161 378 C162.65 378 164.3 378 166 378 C166 381.3 166 384.6 166 388 C167.65 388 169.3 388 171 388 C171 389.65 171 391.3 171 393 C172.65 393 174.3 393 176 393 C176 394.65 176 396.3 176 398 C177.98 398 179.96 398 182 398 C182 399.65 182 401.3 182 403 C183.65 403 185.3 403 187 403 C187 404.65 187 406.3 187 408 C188.65 408 190.3 408 192 408 C192 409.65 192 411.3 192 413 C195.3 413 198.6 413 202 413 C202 414.65 202 416.3 202 418 C203.65 418 205.3 418 207 418 C207 419.98 207 421.96 207 424 C208.65 424 210.3 424 212 424 C212 425.65 212 427.3 212 429 C213.65 429 215.3 429 217 429 C217 430.65 217 432.3 217 434 C218.65 434 220.3 434 222 434 C222 435.65 222 437.3 222 439 C223.65 439 225.3 439 227 439 C227 440.65 227 442.3 227 444 C228.65 444 230.3 444 232 444 C232 445.65 232 447.3 232 449 C233.65 449 235.3 449 237 449 C237 450.65 237 452.3 237 454 C238.65 454 240.3 454 242 454 C242 455.65 242 457.3 242 459 C243.65 459 245.3 459 247 459 C247 460.65 247 462.3 247 464 C250.3 464 253.6 464 257 464 C257 465.65 257 467.3 257 469 C258.65 469 260.3 469 262 469 C262 470.65 262 472.3 262 474 C263.65 474 265.3 474 267 474 C267 475.65 267 477.3 267 479 C268.65 479 270.3 479 272 479 C272 480.65 272 482.3 272 484 C273.65 484 275.3 484 277 484 C277 485.65 277 487.3 277 489 C280.3 489 283.6 489 287 489 C287 490.65 287 492.3 287 494 C290.3 494 293.6 494 297 494 C297 495.65 297 497.3 297 499 C300.63 499 304.26 499 308 499 C308 500.65 308 502.3 308 504 C312.95 504 317.9 504 323 504 C323 505.65 323 507.3 323 509 C331.25 509 339.5 509 348 509 C348 510.65 348 512.3 348 514 C356.25 514 364.5 514 373 514 C373 515.65 373 517.3 373 519 C433.06 519 493.12 519 555 519 C555 520.65 555 522.3 555 524 C556.65 524 558.3 524 560 524 C560 528.95 560 533.9 560 539 C558.35 539 556.7 539 555 539 C555 540.98 555 542.96 555 545 C549.72 545 544.44 545 539 545 C539 546.65 539 548.3 539 550 C529.1 550 519.2 550 509 550 C509 551.65 509 553.3 509 555 C502.4 555 495.8 555 489 555 C489 556.65 489 558.3 489 560 C480.75 560 472.5 560 464 560 C464 561.65 464 563.3 464 565 C457.4 565 450.8 565 444 565 C444 566.65 444 568.3 444 570 C440.7 570 437.4 570 434 570 C434 571.65 434 573.3 434 575 C428.72 575 423.44 575 418 575 C418 576.65 418 578.3 418 580 C413.05 580 408.1 580 403 580 C403 581.65 403 583.3 403 585 C398.05 585 393.1 585 388 585 C388 586.65 388 588.3 388 590 C384.7 590 381.4 590 378 590 C378 591.65 378 593.3 378 595 C373.05 595 368.1 595 363 595 C363 596.65 363 598.3 363 600 C358.05 600 353.1 600 348 600 C348 601.65 348 603.3 348 605 C344.7 605 341.4 605 338 605 C338 606.65 338 608.3 338 610 C334.7 610 331.4 610 328 610 C328 611.65 328 613.3 328 615 C324.7 615 321.4 615 318 615 C318 616.65 318 618.3 318 620 C316.35 620 314.7 620 313 620 C313 621.65 313 623.3 313 625 C309.7 625 306.4 625 303 625 C303 626.65 303 628.3 303 630 C299.37 630 295.74 630 292 630 C292 631.65 292 633.3 292 635 C290.35 635 288.7 635 287 635 C287 636.65 287 638.3 287 640 C283.7 640 280.4 640 277 640 C277 641.65 277 643.3 277 645 C275.35 645 273.7 645 272 645 C272 646.65 272 648.3 272 650 C270.35 650 268.7 650 267 650 C267 651.65 267 653.3 267 655 C265.35 655 263.7 655 262 655 C262 656.65 262 658.3 262 660 C258.7 660 255.4 660 252 660 C252 661.98 252 663.96 252 666 C250.35 666 248.7 666 247 666 C247 667.65 247 669.3 247 671 C245.35 671 243.7 671 242 671 C242 672.65 242 674.3 242 676 C240.35 676 238.7 676 237 676 C237 677.65 237 679.3 237 681 C235.35 681 233.7 681 232 681 C232 682.65 232 684.3 232 686 C230.35 686 228.7 686 227 686 C227 687.65 227 689.3 227 691 C225.35 691 223.7 691 222 691 C222 692.65 222 694.3 222 696 C220.35 696 218.7 696 217 696 C217 697.65 217 699.3 217 701 C215.35 701 213.7 701 212 701 C212 702.65 212 704.3 212 706 C210.35 706 208.7 706 207 706 C207 709.3 207 712.6 207 716 C205.35 716 203.7 716 202 716 C202 717.65 202 719.3 202 721 C200.35 721 198.7 721 197 721 C197 724.3 197 727.6 197 731 C195.35 731 193.7 731 192 731 C192 734.3 192 737.6 192 741 C190.35 741 188.7 741 187 741 C187 745.95 187 750.9 187 756 C185.35 756 183.7 756 182 756 C182 760.95 182 765.9 182 771 C180.02 771 178.04 771 176 771 C176 774.3 176 777.6 176 781 C174.35 781 172.7 781 171 781 C171 787.93 171 794.86 171 802 C169.35 802 167.7 802 166 802 C166 810.25 166 818.5 166 827 C164.35 827 162.7 827 161 827 C161 836.9 161 846.8 161 857 C159.35 857 157.7 857 156 857 C156 875.48 156 893.96 156 913 C154.35 913 152.7 913 151 913 C151 966.13 151 1019.26 151 1074 C152.65 1074 154.3 1074 156 1074 C156 1088.85 156 1103.7 156 1119 C157.65 1119 159.3 1119 161 1119 C161 1128.9 161 1138.8 161 1149 C162.65 1149 164.3 1149 166 1149 C166 1157.58 166 1166.16 166 1175 C167.65 1175 169.3 1175 171 1175 C171 1181.6 171 1188.2 171 1195 C172.65 1195 174.3 1195 176 1195 C176 1203.25 176 1211.5 176 1220 C177.98 1220 179.96 1220 182 1220 C182 1221.65 182 1223.3 182 1225 C183.65 1225 185.3 1225 187 1225 C187 1233.25 187 1241.5 187 1250 C185.35 1250 183.7 1250 182 1250 C182 1251.65 182 1253.3 182 1255 C178.37 1255 174.74 1255 171 1255 C171 1253.35 171 1251.7 171 1250 C169.35 1250 167.7 1250 166 1250 C166 1245.05 166 1240.1 166 1235 C164.35 1235 162.7 1235 161 1235 C161 1231.7 161 1228.4 161 1225 C159.35 1225 157.7 1225 156 1225 C156 1216.75 156 1208.5 156 1200 C154.35 1200 152.7 1200 151 1200 C151 1193.4 151 1186.8 151 1180 C149.35 1180 147.7 1180 146 1180 C146 1173.4 146 1166.8 146 1160 C144.35 1160 142.7 1160 141 1160 C141 1153.07 141 1146.14 141 1139 C139.35 1139 137.7 1139 136 1139 C136 1135.7 136 1132.4 136 1129 C134.35 1129 132.7 1129 131 1129 C131 1122.4 131 1115.8 131 1109 C129.35 1109 127.7 1109 126 1109 C126 1104.05 126 1099.1 126 1094 C124.35 1094 122.7 1094 121 1094 C121 1090.7 121 1087.4 121 1084 C119.35 1084 117.7 1084 116 1084 C116 1079.05 116 1074.1 116 1069 C114.35 1069 112.7 1069 111 1069 C111 1064.05 111 1059.1 111 1054 C109.35 1054 107.7 1054 106 1054 C106 1047.4 106 1040.8 106 1034 C104.35 1034 102.7 1034 101 1034 C101 1027.07 101 1020.14 101 1013 C99.35 1013 97.7 1013 96 1013 C96 1009.7 96 1006.4 96 1003 C94.35 1003 92.7 1003 91 1003 C91 996.4 91 989.8 91 983 C89.35 983 87.7 983 86 983 C86 974.75 86 966.5 86 958 C84.35 958 82.7 958 81 958 C81 951.4 81 944.8 81 938 C79.35 938 77.7 938 76 938 C76 934.7 76 931.4 76 928 C74.35 928 72.7 928 71 928 C71 923.05 71 918.1 71 913 C69.35 913 67.7 913 66 913 C66 906.07 66 899.14 66 892 C64.35 892 62.7 892 61 892 C61 888.7 61 885.4 61 882 C59.02 882 57.04 882 55 882 C55 877.05 55 872.1 55 867 C53.35 867 51.7 867 50 867 C50 863.7 50 860.4 50 857 C48.35 857 46.7 857 45 857 C45 853.7 45 850.4 45 847 C43.35 847 41.7 847 40 847 C40 843.7 40 840.4 40 837 C38.35 837 36.7 837 35 837 C35 833.7 35 830.4 35 827 C33.35 827 31.7 827 30 827 C30 825.35 30 823.7 30 822 C28.35 822 26.7 822 25 822 C25 818.7 25 815.4 25 812 C23.35 812 21.7 812 20 812 C20 808.7 20 805.4 20 802 C18.35 802 16.7 802 15 802 C15 798.7 15 795.4 15 792 C13.35 792 11.7 792 10 792 C10 788.37 10 784.74 10 781 C8.35 781 6.7 781 5 781 C5 779.35 5 777.7 5 776 C3.35 776 1.7 776 0 776 C0 772.7 0 769.4 0 766 C-3.3 766 -6.6 766 -10 766 C-10 764.35 -10 762.7 -10 761 C-11.65 761 -13.3 761 -15 761 C-15 759.35 -15 757.7 -15 756 C-16.65 756 -18.3 756 -20 756 C-20 754.35 -20 752.7 -20 751 C-21.65 751 -23.3 751 -25 751 C-25 749.35 -25 747.7 -25 746 C-26.65 746 -28.3 746 -30 746 C-30 744.35 -30 742.7 -30 741 C-31.65 741 -33.3 741 -35 741 C-35 737.7 -35 734.4 -35 731 C-36.65 731 -38.3 731 -40 731 C-40 729.35 -40 727.7 -40 726 C-41.65 726 -43.3 726 -45 726 C-45 724.35 -45 722.7 -45 721 C-46.65 721 -48.3 721 -50 721 C-50 717.7 -50 714.4 -50 711 C-53.3 711 -56.6 711 -60 711 C-60 709.35 -60 707.7 -60 706 C-61.98 706 -63.96 706 -66 706 C-66 704.35 -66 702.7 -66 701 C-67.65 701 -69.3 701 -71 701 C-71 699.35 -71 697.7 -71 696 C-72.65 696 -74.3 696 -76 696 C-76 694.35 -76 692.7 -76 691 C-77.65 691 -79.3 691 -81 691 C-81 689.35 -81 687.7 -81 686 C-82.65 686 -84.3 686 -86 686 C-86 684.35 -86 682.7 -86 681 C-87.65 681 -89.3 681 -91 681 C-91 679.35 -91 677.7 -91 676 C-94.3 676 -97.6 676 -101 676 C-101 674.35 -101 672.7 -101 671 C-102.65 671 -104.3 671 -106 671 C-106 669.35 -106 667.7 -106 666 C-107.65 666 -109.3 666 -111 666 C-111 664.02 -111 662.04 -111 660 C-114.3 660 -117.6 660 -121 660 C-121 658.35 -121 656.7 -121 655 C-122.65 655 -124.3 655 -126 655 C-126 653.35 -126 651.7 -126 650 C-127.65 650 -129.3 650 -131 650 C-131 648.35 -131 646.7 -131 645 C-134.3 645 -137.6 645 -141 645 C-141 643.35 -141 641.7 -141 640 C-142.65 640 -144.3 640 -146 640 C-146 638.35 -146 636.7 -146 635 C-149.3 635 -152.6 635 -156 635 C-156 633.35 -156 631.7 -156 630 C-159.3 630 -162.6 630 -166 630 C-166 628.35 -166 626.7 -166 625 C-169.3 625 -172.6 625 -176 625 C-176 623.35 -176 621.7 -176 620 C-179.3 620 -182.6 620 -186 620 C-186 618.35 -186 616.7 -186 615 C-189.63 615 -193.26 615 -197 615 C-197 613.35 -197 611.7 -197 610 C-200.3 610 -203.6 610 -207 610 C-207 608.35 -207 606.7 -207 605 C-211.95 605 -216.9 605 -222 605 C-222 603.35 -222 601.7 -222 600 C-230.25 600 -238.5 600 -247 600 C-247 598.35 -247 596.7 -247 595 C-255.25 595 -263.5 595 -272 595 C-272 593.35 -272 591.7 -272 590 C-302.03 590 -332.06 590 -363 590 C-363 591.65 -363 593.3 -363 595 C-376.2 595 -389.4 595 -403 595 C-403 596.65 -403 598.3 -403 600 C-414.88 600 -426.76 600 -439 600 C-439 601.65 -439 603.3 -439 605 C-443.95 605 -448.9 605 -454 605 C-454 603.35 -454 601.7 -454 600 C-455.65 600 -457.3 600 -459 600 C-459 596.7 -459 593.4 -459 590 C-457.35 590 -455.7 590 -454 590 C-454 588.35 -454 586.7 -454 585 C-450.7 585 -447.4 585 -444 585 C-444 583.35 -444 581.7 -444 580 C-435.42 580 -426.84 580 -418 580 C-418 578.35 -418 576.7 -418 575 C-413.05 575 -408.1 575 -403 575 C-403 573.35 -403 571.7 -403 570 C-399.7 570 -396.4 570 -393 570 C-393 568.35 -393 566.7 -393 565 C-389.7 565 -386.4 565 -383 565 C-383 563.35 -383 561.7 -383 560 C-379.7 560 -376.4 560 -373 560 C-373 558.35 -373 556.7 -373 555 C-369.7 555 -366.4 555 -363 555 C-363 553.35 -363 551.7 -363 550 C-358.05 550 -353.1 550 -348 550 C-348 548.35 -348 546.7 -348 545 C-344.7 545 -341.4 545 -338 545 C-338 543.02 -338 541.04 -338 539 C-333.05 539 -328.1 539 -323 539 C-323 537.35 -323 535.7 -323 534 C-319.7 534 -316.4 534 -313 534 C-313 532.35 -313 530.7 -313 529 C-306.07 529 -299.14 529 -292 529 C-292 527.35 -292 525.7 -292 524 C-285.4 524 -278.8 524 -272 524 C-272 522.35 -272 520.7 -272 519 C-267.05 519 -262.1 519 -257 519 C-257 517.35 -257 515.7 -257 514 C-252.05 514 -247.1 514 -242 514 C-242 512.35 -242 510.7 -242 509 C-238.7 509 -235.4 509 -232 509 C-232 507.35 -232 505.7 -232 504 C-227.05 504 -222.1 504 -217 504 C-217 502.35 -217 500.7 -217 499 C-213.7 499 -210.4 499 -207 499 C-207 497.35 -207 495.7 -207 494 C-203.7 494 -200.4 494 -197 494 C-197 492.35 -197 490.7 -197 489 C-193.37 489 -189.74 489 -186 489 C-186 487.35 -186 485.7 -186 484 C-182.7 484 -179.4 484 -176 484 C-176 482.35 -176 480.7 -176 479 C-172.7 479 -169.4 479 -166 479 C-166 477.35 -166 475.7 -166 474 C-162.7 474 -159.4 474 -156 474 C-156 472.35 -156 470.7 -156 469 C-152.7 469 -149.4 469 -146 469 C-146 467.35 -146 465.7 -146 464 C-142.7 464 -139.4 464 -136 464 C-136 462.35 -136 460.7 -136 459 C-132.7 459 -129.4 459 -126 459 C-126 457.35 -126 455.7 -126 454 C-124.35 454 -122.7 454 -121 454 C-121 452.35 -121 450.7 -121 449 C-117.7 449 -114.4 449 -111 449 C-111 447.35 -111 445.7 -111 444 C-107.7 444 -104.4 444 -101 444 C-101 442.35 -101 440.7 -101 439 C-99.35 439 -97.7 439 -96 439 C-96 437.35 -96 435.7 -96 434 C-94.35 434 -92.7 434 -91 434 C-91 432.35 -91 430.7 -91 429 C-87.7 429 -84.4 429 -81 429 C-81 427.35 -81 425.7 -81 424 C-79.35 424 -77.7 424 -76 424 C-76 422.02 -76 420.04 -76 418 C-74.35 418 -72.7 418 -71 418 C-71 416.35 -71 414.7 -71 413 C-69.35 413 -67.7 413 -66 413 C-66 411.35 -66 409.7 -66 408 C-64.02 408 -62.04 408 -60 408 C-60 406.35 -60 404.7 -60 403 C-58.35 403 -56.7 403 -55 403 C-55 399.7 -55 396.4 -55 393 C-53.35 393 -51.7 393 -50 393 C-50 389.7 -50 386.4 -50 383 C-48.35 383 -46.7 383 -45 383 C-45 381.35 -45 379.7 -45 378 C-43.35 378 -41.7 378 -40 378 C-40 376.35 -40 374.7 -40 373 C-38.35 373 -36.7 373 -35 373 C-35 371.35 -35 369.7 -35 368 C-33.35 368 -31.7 368 -30 368 C-30 366.35 -30 364.7 -30 363 C-28.35 363 -26.7 363 -25 363 C-25 361.35 -25 359.7 -25 358 C-23.35 358 -21.7 358 -20 358 C-20 354.7 -20 351.4 -20 348 C-18.35 348 -16.7 348 -15 348 C-15 343.05 -15 338.1 -15 333 C-13.35 333 -11.7 333 -10 333 C-10 329.7 -10 326.4 -10 323 C-8.35 323 -6.7 323 -5 323 C-5 318.05 -5 313.1 -5 308 C-3.35 308 -1.7 308 0 308 C0 304.7 0 301.4 0 298 C1.65 298 3.3 298 5 298 C5 291.07 5 284.14 5 277 C6.65 277 8.3 277 10 277 C10 268.75 10 260.5 10 252 C11.65 252 13.3 252 15 252 C15 218.67 15 185.34 15 151 C13.35 151 11.7 151 10 151 C10 129.55 10 108.1 10 86 C8.35 86 6.7 86 5 86 C5 74.12 5 62.24 5 50 C3.35 50 1.7 50 0 50 C0 43.4 0 36.8 0 30 C-1.65 30 -3.3 30 -5 30 C-5 21.75 -5 13.5 -5 5 C-3.35 5 -1.7 5 0 5 C0 3.35 0 1.7 0 0 Z M35 161 C35 192.68 35 224.36 35 257 C33.35 257 31.7 257 30 257 C30 265.25 30 273.5 30 282 C28.35 282 26.7 282 25 282 C25 288.93 25 295.86 25 303 C23.35 303 21.7 303 20 303 C20 306.3 20 309.6 20 313 C18.35 313 16.7 313 15 313 C15 317.95 15 322.9 15 328 C13.35 328 11.7 328 10 328 C10 331.3 10 334.6 10 338 C8.35 338 6.7 338 5 338 C5 342.95 5 347.9 5 353 C3.35 353 1.7 353 0 353 C0 356.3 0 359.6 0 363 C-1.65 363 -3.3 363 -5 363 C-5 364.65 -5 366.3 -5 368 C-6.65 368 -8.3 368 -10 368 C-10 369.65 -10 371.3 -10 373 C-11.65 373 -13.3 373 -15 373 C-15 374.65 -15 376.3 -15 378 C-16.65 378 -18.3 378 -20 378 C-20 379.65 -20 381.3 -20 383 C-21.65 383 -23.3 383 -25 383 C-25 384.65 -25 386.3 -25 388 C-26.65 388 -28.3 388 -30 388 C-30 391.3 -30 394.6 -30 398 C-31.65 398 -33.3 398 -35 398 C-35 401.3 -35 404.6 -35 408 C-36.65 408 -38.3 408 -40 408 C-40 409.65 -40 411.3 -40 413 C-41.65 413 -43.3 413 -45 413 C-45 414.65 -45 416.3 -45 418 C-46.65 418 -48.3 418 -50 418 C-50 419.98 -50 421.96 -50 424 C-51.65 424 -53.3 424 -55 424 C-55 425.65 -55 427.3 -55 429 C-56.65 429 -58.3 429 -60 429 C-60 430.65 -60 432.3 -60 434 C-61.98 434 -63.96 434 -66 434 C-66 435.65 -66 437.3 -66 439 C-67.65 439 -69.3 439 -71 439 C-71 440.65 -71 442.3 -71 444 C-72.65 444 -74.3 444 -76 444 C-76 445.65 -76 447.3 -76 449 C-79.3 449 -82.6 449 -86 449 C-86 450.65 -86 452.3 -86 454 C-87.65 454 -89.3 454 -91 454 C-91 455.65 -91 457.3 -91 459 C-92.65 459 -94.3 459 -96 459 C-96 460.65 -96 462.3 -96 464 C-99.3 464 -102.6 464 -106 464 C-106 465.65 -106 467.3 -106 469 C-109.3 469 -112.6 469 -116 469 C-116 470.65 -116 472.3 -116 474 C-117.65 474 -119.3 474 -121 474 C-121 475.65 -121 477.3 -121 479 C-124.3 479 -127.6 479 -131 479 C-131 480.65 -131 482.3 -131 484 C-134.3 484 -137.6 484 -141 484 C-141 485.65 -141 487.3 -141 489 C-144.3 489 -147.6 489 -151 489 C-151 490.65 -151 492.3 -151 494 C-154.3 494 -157.6 494 -161 494 C-161 495.65 -161 497.3 -161 499 C-164.3 499 -167.6 499 -171 499 C-171 500.65 -171 502.3 -171 504 C-174.3 504 -177.6 504 -181 504 C-181 505.65 -181 507.3 -181 509 C-184.63 509 -188.26 509 -192 509 C-192 510.65 -192 512.3 -192 514 C-195.3 514 -198.6 514 -202 514 C-202 515.65 -202 517.3 -202 519 C-205.3 519 -208.6 519 -212 519 C-212 520.65 -212 522.3 -212 524 C-216.95 524 -221.9 524 -227 524 C-227 525.65 -227 527.3 -227 529 C-230.3 529 -233.6 529 -237 529 C-237 530.65 -237 532.3 -237 534 C-241.95 534 -246.9 534 -252 534 C-252 535.65 -252 537.3 -252 539 C-256.95 539 -261.9 539 -267 539 C-267 540.98 -267 542.96 -267 545 C-273.6 545 -280.2 545 -287 545 C-287 546.65 -287 548.3 -287 550 C-293.6 550 -300.2 550 -307 550 C-307 551.65 -307 553.3 -307 555 C-310.63 555 -314.26 555 -318 555 C-318 556.65 -318 558.3 -318 560 C-322.95 560 -327.9 560 -333 560 C-333 561.65 -333 563.3 -333 565 C-336.3 565 -339.6 565 -343 565 C-343 566.65 -343 568.3 -343 570 C-317.92 570 -292.84 570 -267 570 C-267 571.65 -267 573.3 -267 575 C-258.75 575 -250.5 575 -242 575 C-242 576.65 -242 578.3 -242 580 C-233.75 580 -225.5 580 -217 580 C-217 581.65 -217 583.3 -217 585 C-212.05 585 -207.1 585 -202 585 C-202 586.65 -202 588.3 -202 590 C-198.7 590 -195.4 590 -192 590 C-192 591.65 -192 593.3 -192 595 C-188.37 595 -184.74 595 -181 595 C-181 596.65 -181 598.3 -181 600 C-177.7 600 -174.4 600 -171 600 C-171 601.65 -171 603.3 -171 605 C-167.7 605 -164.4 605 -161 605 C-161 606.65 -161 608.3 -161 610 C-157.7 610 -154.4 610 -151 610 C-151 611.65 -151 613.3 -151 615 C-147.7 615 -144.4 615 -141 615 C-141 616.65 -141 618.3 -141 620 C-139.35 620 -137.7 620 -136 620 C-136 621.65 -136 623.3 -136 625 C-132.7 625 -129.4 625 -126 625 C-126 626.65 -126 628.3 -126 630 C-124.35 630 -122.7 630 -121 630 C-121 631.65 -121 633.3 -121 635 C-119.35 635 -117.7 635 -116 635 C-116 636.65 -116 638.3 -116 640 C-112.7 640 -109.4 640 -106 640 C-106 641.65 -106 643.3 -106 645 C-104.35 645 -102.7 645 -101 645 C-101 646.65 -101 648.3 -101 650 C-99.35 650 -97.7 650 -96 650 C-96 651.65 -96 653.3 -96 655 C-92.7 655 -89.4 655 -86 655 C-86 656.65 -86 658.3 -86 660 C-84.35 660 -82.7 660 -81 660 C-81 661.98 -81 663.96 -81 666 C-79.35 666 -77.7 666 -76 666 C-76 667.65 -76 669.3 -76 671 C-74.35 671 -72.7 671 -71 671 C-71 672.65 -71 674.3 -71 676 C-69.35 676 -67.7 676 -66 676 C-66 677.65 -66 679.3 -66 681 C-64.02 681 -62.04 681 -60 681 C-60 682.65 -60 684.3 -60 686 C-58.35 686 -56.7 686 -55 686 C-55 687.65 -55 689.3 -55 691 C-51.7 691 -48.4 691 -45 691 C-45 692.65 -45 694.3 -45 696 C-43.35 696 -41.7 696 -40 696 C-40 697.65 -40 699.3 -40 701 C-38.35 701 -36.7 701 -35 701 C-35 702.65 -35 704.3 -35 706 C-33.35 706 -31.7 706 -30 706 C-30 709.3 -30 712.6 -30 716 C-28.35 716 -26.7 716 -25 716 C-25 717.65 -25 719.3 -25 721 C-23.35 721 -21.7 721 -20 721 C-20 722.65 -20 724.3 -20 726 C-18.35 726 -16.7 726 -15 726 C-15 729.3 -15 732.6 -15 736 C-13.35 736 -11.7 736 -10 736 C-10 737.65 -10 739.3 -10 741 C-8.35 741 -6.7 741 -5 741 C-5 742.65 -5 744.3 -5 746 C-1.7 746 1.6 746 5 746 C5 747.65 5 749.3 5 751 C6.65 751 8.3 751 10 751 C10 752.65 10 754.3 10 756 C11.65 756 13.3 756 15 756 C15 757.65 15 759.3 15 761 C16.65 761 18.3 761 20 761 C20 764.3 20 767.6 20 771 C21.65 771 23.3 771 25 771 C25 772.65 25 774.3 25 776 C26.65 776 28.3 776 30 776 C30 779.3 30 782.6 30 786 C31.65 786 33.3 786 35 786 C35 789.63 35 793.26 35 797 C36.65 797 38.3 797 40 797 C40 800.3 40 803.6 40 807 C41.65 807 43.3 807 45 807 C45 810.3 45 813.6 45 817 C46.65 817 48.3 817 50 817 C50 818.65 50 820.3 50 822 C51.65 822 53.3 822 55 822 C55 825.3 55 828.6 55 832 C56.98 832 58.96 832 61 832 C61 835.3 61 838.6 61 842 C62.65 842 64.3 842 66 842 C66 845.3 66 848.6 66 852 C67.65 852 69.3 852 71 852 C71 855.3 71 858.6 71 862 C72.65 862 74.3 862 76 862 C76 866.95 76 871.9 76 877 C77.65 877 79.3 877 81 877 C81 880.3 81 883.6 81 887 C82.65 887 84.3 887 86 887 C86 893.6 86 900.2 86 907 C87.65 907 89.3 907 91 907 C91 912.28 91 917.56 91 923 C92.65 923 94.3 923 96 923 C96 926.3 96 929.6 96 933 C97.65 933 99.3 933 101 933 C101 939.6 101 946.2 101 953 C102.65 953 104.3 953 106 953 C106 961.25 106 969.5 106 978 C107.65 978 109.3 978 111 978 C111 984.6 111 991.2 111 998 C112.65 998 114.3 998 116 998 C116 1001.3 116 1004.6 116 1008 C117.65 1008 119.3 1008 121 1008 C121 1014.6 121 1021.2 121 1028 C122.65 1028 124.3 1028 126 1028 C126 1034.93 126 1041.86 126 1049 C127.65 1049 129.3 1049 131 1049 C131 1002.14 131 955.28 131 907 C132.65 907 134.3 907 136 907 C136 888.85 136 870.7 136 852 C137.65 852 139.3 852 141 852 C141 842.1 141 832.2 141 822 C142.65 822 144.3 822 146 822 C146 813.75 146 805.5 146 797 C147.65 797 149.3 797 151 797 C151 790.07 151 783.14 151 776 C152.65 776 154.3 776 156 776 C156 772.7 156 769.4 156 766 C157.65 766 159.3 766 161 766 C161 761.05 161 756.1 161 751 C162.65 751 164.3 751 166 751 C166 746.05 166 741.1 166 736 C167.65 736 169.3 736 171 736 C171 732.7 171 729.4 171 726 C172.65 726 174.3 726 176 726 C176 722.7 176 719.4 176 716 C177.98 716 179.96 716 182 716 C182 714.35 182 712.7 182 711 C183.65 711 185.3 711 187 711 C187 707.7 187 704.4 187 701 C188.65 701 190.3 701 192 701 C192 699.35 192 697.7 192 696 C193.65 696 195.3 696 197 696 C197 694.35 197 692.7 197 691 C198.65 691 200.3 691 202 691 C202 689.35 202 687.7 202 686 C203.65 686 205.3 686 207 686 C207 684.35 207 682.7 207 681 C208.65 681 210.3 681 212 681 C212 679.35 212 677.7 212 676 C213.65 676 215.3 676 217 676 C217 674.35 217 672.7 217 671 C218.65 671 220.3 671 222 671 C222 669.35 222 667.7 222 666 C223.65 666 225.3 666 227 666 C227 664.02 227 662.04 227 660 C228.65 660 230.3 660 232 660 C232 658.35 232 656.7 232 655 C233.65 655 235.3 655 237 655 C237 653.35 237 651.7 237 650 C238.65 650 240.3 650 242 650 C242 648.35 242 646.7 242 645 C243.65 645 245.3 645 247 645 C247 643.35 247 641.7 247 640 C250.3 640 253.6 640 257 640 C257 638.35 257 636.7 257 635 C258.65 635 260.3 635 262 635 C262 633.35 262 631.7 262 630 C263.65 630 265.3 630 267 630 C267 628.35 267 626.7 267 625 C268.65 625 270.3 625 272 625 C272 623.35 272 621.7 272 620 C275.3 620 278.6 620 282 620 C282 618.35 282 616.7 282 615 C283.65 615 285.3 615 287 615 C287 613.35 287 611.7 287 610 C290.3 610 293.6 610 297 610 C297 608.35 297 606.7 297 605 C300.63 605 304.26 605 308 605 C308 603.35 308 601.7 308 600 C309.65 600 311.3 600 313 600 C313 598.35 313 596.7 313 595 C316.3 595 319.6 595 323 595 C323 593.35 323 591.7 323 590 C326.3 590 329.6 590 333 590 C333 588.35 333 586.7 333 585 C336.3 585 339.6 585 343 585 C343 583.35 343 581.7 343 580 C347.95 580 352.9 580 358 580 C358 578.35 358 576.7 358 575 C362.95 575 367.9 575 373 575 C373 573.35 373 571.7 373 570 C376.3 570 379.6 570 383 570 C383 568.35 383 566.7 383 565 C387.95 565 392.9 565 398 565 C398 563.35 398 561.7 398 560 C402.95 560 407.9 560 413 560 C413 558.35 413 556.7 413 555 C418.28 555 423.56 555 429 555 C429 553.35 429 551.7 429 550 C432.3 550 435.6 550 439 550 C439 548.35 439 546.7 439 545 C445.6 545 452.2 545 459 545 C459 543.02 459 541.04 459 539 C428.97 539 398.94 539 368 539 C368 537.35 368 535.7 368 534 C359.75 534 351.5 534 343 534 C343 532.35 343 530.7 343 529 C334.75 529 326.5 529 318 529 C318 527.35 318 525.7 318 524 C313.05 524 308.1 524 303 524 C303 522.35 303 520.7 303 519 C299.37 519 295.74 519 292 519 C292 517.35 292 515.7 292 514 C288.7 514 285.4 514 282 514 C282 512.35 282 510.7 282 509 C278.7 509 275.4 509 272 509 C272 507.35 272 505.7 272 504 C270.35 504 268.7 504 267 504 C267 502.35 267 500.7 267 499 C265.35 499 263.7 499 262 499 C262 497.35 262 495.7 262 494 C260.35 494 258.7 494 257 494 C257 492.35 257 490.7 257 489 C255.35 489 253.7 489 252 489 C252 487.35 252 485.7 252 484 C248.7 484 245.4 484 242 484 C242 482.35 242 480.7 242 479 C240.35 479 238.7 479 237 479 C237 477.35 237 475.7 237 474 C235.35 474 233.7 474 232 474 C232 472.35 232 470.7 232 469 C230.35 469 228.7 469 227 469 C227 467.35 227 465.7 227 464 C225.35 464 223.7 464 222 464 C222 462.35 222 460.7 222 459 C220.35 459 218.7 459 217 459 C217 457.35 217 455.7 217 454 C215.35 454 213.7 454 212 454 C212 452.35 212 450.7 212 449 C210.35 449 208.7 449 207 449 C207 447.35 207 445.7 207 444 C205.35 444 203.7 444 202 444 C202 442.35 202 440.7 202 439 C200.35 439 198.7 439 197 439 C197 437.35 197 435.7 197 434 C193.7 434 190.4 434 187 434 C187 432.35 187 430.7 187 429 C185.35 429 183.7 429 182 429 C182 427.35 182 425.7 182 424 C180.02 424 178.04 424 176 424 C176 422.02 176 420.04 176 418 C174.35 418 172.7 418 171 418 C171 416.35 171 414.7 171 413 C169.35 413 167.7 413 166 413 C166 411.35 166 409.7 166 408 C164.35 408 162.7 408 161 408 C161 406.35 161 404.7 161 403 C159.35 403 157.7 403 156 403 C156 401.35 156 399.7 156 398 C154.35 398 152.7 398 151 398 C151 396.35 151 394.7 151 393 C149.35 393 147.7 393 146 393 C146 389.7 146 386.4 146 383 C144.35 383 142.7 383 141 383 C141 381.35 141 379.7 141 378 C139.35 378 137.7 378 136 378 C136 376.35 136 374.7 136 373 C134.35 373 132.7 373 131 373 C131 369.7 131 366.4 131 363 C129.35 363 127.7 363 126 363 C126 361.35 126 359.7 126 358 C124.35 358 122.7 358 121 358 C121 356.35 121 354.7 121 353 C119.35 353 117.7 353 116 353 C116 349.7 116 346.4 116 343 C114.35 343 112.7 343 111 343 C111 341.35 111 339.7 111 338 C109.35 338 107.7 338 106 338 C106 336.35 106 334.7 106 333 C104.35 333 102.7 333 101 333 C101 329.7 101 326.4 101 323 C99.35 323 97.7 323 96 323 C96 321.35 96 319.7 96 318 C94.35 318 92.7 318 91 318 C91 314.7 91 311.4 91 308 C89.35 308 87.7 308 86 308 C86 304.7 86 301.4 86 298 C84.35 298 82.7 298 81 298 C81 294.37 81 290.74 81 287 C79.35 287 77.7 287 76 287 C76 283.7 76 280.4 76 277 C74.35 277 72.7 277 71 277 C71 273.7 71 270.4 71 267 C69.35 267 67.7 267 66 267 C66 260.4 66 253.8 66 247 C64.35 247 62.7 247 61 247 C61 240.4 61 233.8 61 227 C59.02 227 57.04 227 55 227 C55 220.4 55 213.8 55 207 C53.35 207 51.7 207 50 207 C50 200.4 50 193.8 50 187 C48.35 187 46.7 187 45 187 C45 181.72 45 176.44 45 171 C43.35 171 41.7 171 40 171 C40 167.7 40 164.4 40 161 C38.35 161 36.7 161 35 161 Z " fill="#000000" transform="translate(467,7)"/>
<path d="M0 0 C5.28 0 10.56 0 16 0 C16 1.65 16 3.3 16 5 C17.65 5 19.3 5 21 5 C21 8.3 21 11.6 21 15 C22.65 15 24.3 15 26 15 C26 19.95 26 24.9 26 30 C27.65 30 29.3 30 31 30 C31 31.65 31 33.3 31 35 C32.65 35 34.3 35 36 35 C36 36.65 36 38.3 36 40 C37.65 40 39.3 40 41 40 C41 41.65 41 43.3 41 45 C42.65 45 44.3 45 46 45 C46 48.63 46 52.26 46 56 C49.3 56 52.6 56 56 56 C56 57.65 56 59.3 56 61 C57.65 61 59.3 61 61 61 C61 64.3 61 67.6 61 71 C62.65 71 64.3 71 66 71 C66 72.65 66 74.3 66 76 C67.65 76 69.3 76 71 76 C71 77.65 71 79.3 71 81 C72.65 81 74.3 81 76 81 C76 84.3 76 87.6 76 91 C77.65 91 79.3 91 81 91 C81 92.65 81 94.3 81 96 C82.65 96 84.3 96 86 96 C86 97.65 86 99.3 86 101 C87.65 101 89.3 101 91 101 C91 102.65 91 104.3 91 106 C92.65 106 94.3 106 96 106 C96 107.65 96 109.3 96 111 C97.65 111 99.3 111 101 111 C101 112.65 101 114.3 101 116 C102.65 116 104.3 116 106 116 C106 117.65 106 119.3 106 121 C109.3 121 112.6 121 116 121 C116 122.65 116 124.3 116 126 C119.3 126 122.6 126 126 126 C126 127.65 126 129.3 126 131 C127.65 131 129.3 131 131 131 C131 134.3 131 137.6 131 141 C134.63 141 138.26 141 142 141 C142 142.65 142 144.3 142 146 C145.3 146 148.6 146 152 146 C152 147.65 152 149.3 152 151 C155.3 151 158.6 151 162 151 C162 152.65 162 154.3 162 156 C168.6 156 175.2 156 182 156 C182 157.65 182 159.3 182 161 C183.65 161 185.3 161 187 161 C187 162.65 187 164.3 187 166 C190.3 166 193.6 166 197 166 C197 167.98 197 169.96 197 172 C206.9 172 216.8 172 227 172 C227 173.65 227 175.3 227 177 C230.3 177 233.6 177 237 177 C237 178.65 237 180.3 237 182 C238.65 182 240.3 182 242 182 C242 185.3 242 188.6 242 192 C240.35 192 238.7 192 237 192 C237 193.65 237 195.3 237 197 C218.85 197 200.7 197 182 197 C182 198.65 182 200.3 182 202 C180.35 202 178.7 202 177 202 C177 203.65 177 205.3 177 207 C175.35 207 173.7 207 172 207 C172 208.65 172 210.3 172 212 C168.7 212 165.4 212 162 212 C162 213.65 162 215.3 162 217 C160.35 217 158.7 217 157 217 C157 218.65 157 220.3 157 222 C155.35 222 153.7 222 152 222 C152 223.65 152 225.3 152 227 C150.35 227 148.7 227 147 227 C147 228.65 147 230.3 147 232 C145.35 232 143.7 232 142 232 C142 233.65 142 235.3 142 237 C140.35 237 138.7 237 137 237 C137 238.65 137 240.3 137 242 C135.02 242 133.04 242 131 242 C131 245.3 131 248.6 131 252 C129.35 252 127.7 252 126 252 C126 253.65 126 255.3 126 257 C124.35 257 122.7 257 121 257 C121 258.65 121 260.3 121 262 C119.35 262 117.7 262 116 262 C116 263.65 116 265.3 116 267 C114.35 267 112.7 267 111 267 C111 270.3 111 273.6 111 277 C109.35 277 107.7 277 106 277 C106 280.3 106 283.6 106 287 C104.35 287 102.7 287 101 287 C101 288.98 101 290.96 101 293 C99.35 293 97.7 293 96 293 C96 294.65 96 296.3 96 298 C94.35 298 92.7 298 91 298 C91 299.65 91 301.3 91 303 C89.35 303 87.7 303 86 303 C86 306.3 86 309.6 86 313 C84.35 313 82.7 313 81 313 C81 317.95 81 322.9 81 328 C79.35 328 77.7 328 76 328 C76 331.3 76 334.6 76 338 C74.35 338 72.7 338 71 338 C71 342.95 71 347.9 71 353 C69.35 353 67.7 353 66 353 C66 356.3 66 359.6 66 363 C64.35 363 62.7 363 61 363 C61 369.6 61 376.2 61 383 C59.35 383 57.7 383 56 383 C56 384.65 56 386.3 56 388 C52.7 388 49.4 388 46 388 C46 386.35 46 384.7 46 383 C44.35 383 42.7 383 41 383 C41 378.05 41 373.1 41 368 C39.35 368 37.7 368 36 368 C36 364.7 36 361.4 36 358 C34.35 358 32.7 358 31 358 C31 354.7 31 351.4 31 348 C29.35 348 27.7 348 26 348 C26 344.7 26 341.4 26 338 C24.35 338 22.7 338 21 338 C21 336.35 21 334.7 21 333 C19.35 333 17.7 333 16 333 C16 331.35 16 329.7 16 328 C14.02 328 12.04 328 10 328 C10 324.7 10 321.4 10 318 C8.35 318 6.7 318 5 318 C5 316.35 5 314.7 5 313 C3.35 313 1.7 313 0 313 C0 309.7 0 306.4 0 303 C-3.3 303 -6.6 303 -10 303 C-10 301.35 -10 299.7 -10 298 C-11.65 298 -13.3 298 -15 298 C-15 296.35 -15 294.7 -15 293 C-16.65 293 -18.3 293 -20 293 C-20 291.02 -20 289.04 -20 287 C-21.65 287 -23.3 287 -25 287 C-25 285.35 -25 283.7 -25 282 C-26.65 282 -28.3 282 -30 282 C-30 280.35 -30 278.7 -30 277 C-31.65 277 -33.3 277 -35 277 C-35 275.35 -35 273.7 -35 272 C-36.65 272 -38.3 272 -40 272 C-40 270.35 -40 268.7 -40 267 C-41.65 267 -43.3 267 -45 267 C-45 265.35 -45 263.7 -45 262 C-46.65 262 -48.3 262 -50 262 C-50 260.35 -50 258.7 -50 257 C-53.3 257 -56.6 257 -60 257 C-60 255.35 -60 253.7 -60 252 C-63.3 252 -66.6 252 -70 252 C-70 250.35 -70 248.7 -70 247 C-74.95 247 -79.9 247 -85 247 C-85 245.35 -85 243.7 -85 242 C-86.65 242 -88.3 242 -90 242 C-90 240.35 -90 238.7 -90 237 C-96.93 237 -103.86 237 -111 237 C-111 235.35 -111 233.7 -111 232 C-115.95 232 -120.9 232 -126 232 C-126 230.35 -126 228.7 -126 227 C-129.3 227 -132.6 227 -136 227 C-136 225.35 -136 223.7 -136 222 C-142.6 222 -149.2 222 -156 222 C-156 220.35 -156 218.7 -156 217 C-160.95 217 -165.9 217 -171 217 C-171 215.35 -171 213.7 -171 212 C-175.95 212 -180.9 212 -186 212 C-186 210.35 -186 208.7 -186 207 C-189.3 207 -192.6 207 -196 207 C-196 205.35 -196 203.7 -196 202 C-205.9 202 -215.8 202 -226 202 C-226 200.35 -226 198.7 -226 197 C-227.65 197 -229.3 197 -231 197 C-231 195.35 -231 193.7 -231 192 C-236.28 192 -241.56 192 -247 192 C-247 190.35 -247 188.7 -247 187 C-248.65 187 -250.3 187 -252 187 C-252 182.05 -252 177.1 -252 172 C-250.35 172 -248.7 172 -247 172 C-247 170.02 -247 168.04 -247 166 C-241.72 166 -236.44 166 -231 166 C-231 167.98 -231 169.96 -231 172 C-229.35 172 -227.7 172 -226 172 C-226 170.02 -226 168.04 -226 166 C-216.1 166 -206.2 166 -196 166 C-196 164.35 -196 162.7 -196 161 C-184.45 161 -172.9 161 -161 161 C-161 159.35 -161 157.7 -161 156 C-159.35 156 -157.7 156 -156 156 C-156 154.35 -156 152.7 -156 151 C-152.7 151 -149.4 151 -146 151 C-146 149.35 -146 147.7 -146 146 C-144.35 146 -142.7 146 -141 146 C-141 144.35 -141 142.7 -141 141 C-136.05 141 -131.1 141 -126 141 C-126 139.35 -126 137.7 -126 136 C-124.35 136 -122.7 136 -121 136 C-121 134.35 -121 132.7 -121 131 C-117.7 131 -114.4 131 -111 131 C-111 129.35 -111 127.7 -111 126 C-107.37 126 -103.74 126 -100 126 C-100 124.35 -100 122.7 -100 121 C-98.35 121 -96.7 121 -95 121 C-95 119.35 -95 117.7 -95 116 C-93.35 116 -91.7 116 -90 116 C-90 114.35 -90 112.7 -90 111 C-86.7 111 -83.4 111 -80 111 C-80 109.35 -80 107.7 -80 106 C-78.35 106 -76.7 106 -75 106 C-75 104.35 -75 102.7 -75 101 C-73.35 101 -71.7 101 -70 101 C-70 99.35 -70 97.7 -70 96 C-68.35 96 -66.7 96 -65 96 C-65 94.35 -65 92.7 -65 91 C-61.7 91 -58.4 91 -55 91 C-55 89.35 -55 87.7 -55 86 C-53.35 86 -51.7 86 -50 86 C-50 84.35 -50 82.7 -50 81 C-48.35 81 -46.7 81 -45 81 C-45 79.35 -45 77.7 -45 76 C-43.35 76 -41.7 76 -40 76 C-40 74.35 -40 72.7 -40 71 C-38.35 71 -36.7 71 -35 71 C-35 69.35 -35 67.7 -35 66 C-31.7 66 -28.4 66 -25 66 C-25 61.05 -25 56.1 -25 51 C-23.35 51 -21.7 51 -20 51 C-20 49.02 -20 47.04 -20 45 C-18.35 45 -16.7 45 -15 45 C-15 43.35 -15 41.7 -15 40 C-13.35 40 -11.7 40 -10 40 C-10 36.7 -10 33.4 -10 30 C-8.35 30 -6.7 30 -5 30 C-5 21.75 -5 13.5 -5 5 C-3.35 5 -1.7 5 0 5 C0 3.35 0 1.7 0 0 Z " fill="#FFFFFF" transform="translate(512,380)"/>
<path d="M0 0 C1.65 0 3.3 0 5 0 C5 1.65 5 3.3 5 5 C6.65 5 8.3 5 10 5 C10 8.3 10 11.6 10 15 C11.65 15 13.3 15 15 15 C15 16.65 15 18.3 15 20 C16.65 20 18.3 20 20 20 C20 21.65 20 23.3 20 25 C21.65 25 23.3 25 25 25 C25 26.65 25 28.3 25 30 C28.3 30 31.6 30 35 30 C35 31.65 35 33.3 35 35 C36.65 35 38.3 35 40 35 C40 36.65 40 38.3 40 40 C41.65 40 43.3 40 45 40 C45 41.98 45 43.96 45 46 C46.65 46 48.3 46 50 46 C50 47.65 50 49.3 50 51 C51.65 51 53.3 51 55 51 C55 54.3 55 57.6 55 61 C51.7 61 48.4 61 45 61 C45 62.65 45 64.3 45 66 C43.35 66 41.7 66 40 66 C40 67.65 40 69.3 40 71 C38.35 71 36.7 71 35 71 C35 72.65 35 74.3 35 76 C33.35 76 31.7 76 30 76 C30 77.65 30 79.3 30 81 C28.35 81 26.7 81 25 81 C25 82.65 25 84.3 25 86 C23.35 86 21.7 86 20 86 C20 89.3 20 92.6 20 96 C18.35 96 16.7 96 15 96 C15 97.65 15 99.3 15 101 C13.35 101 11.7 101 10 101 C10 102.65 10 104.3 10 106 C8.35 106 6.7 106 5 106 C5 107.65 5 109.3 5 111 C3.35 111 1.7 111 0 111 C0 109.35 0 107.7 0 106 C-3.63 106 -7.26 106 -11 106 C-11 104.35 -11 102.7 -11 101 C-12.65 101 -14.3 101 -16 101 C-16 99.35 -16 97.7 -16 96 C-17.65 96 -19.3 96 -21 96 C-21 94.35 -21 92.7 -21 91 C-24.3 91 -27.6 91 -31 91 C-31 89.35 -31 87.7 -31 86 C-32.65 86 -34.3 86 -36 86 C-36 84.35 -36 82.7 -36 81 C-37.65 81 -39.3 81 -41 81 C-41 79.35 -41 77.7 -41 76 C-44.3 76 -47.6 76 -51 76 C-51 74.35 -51 72.7 -51 71 C-52.65 71 -54.3 71 -56 71 C-56 69.35 -56 67.7 -56 66 C-60.95 66 -65.9 66 -71 66 C-71 62.7 -71 59.4 -71 56 C-69.35 56 -67.7 56 -66 56 C-66 54.35 -66 52.7 -66 51 C-62.7 51 -59.4 51 -56 51 C-56 49.35 -56 47.7 -56 46 C-52.7 46 -49.4 46 -46 46 C-46 44.02 -46 42.04 -46 40 C-44.35 40 -42.7 40 -41 40 C-41 38.35 -41 36.7 -41 35 C-37.7 35 -34.4 35 -31 35 C-31 33.35 -31 31.7 -31 30 C-29.35 30 -27.7 30 -26 30 C-26 28.35 -26 26.7 -26 25 C-22.7 25 -19.4 25 -16 25 C-16 23.35 -16 21.7 -16 20 C-14.35 20 -12.7 20 -11 20 C-11 18.35 -11 16.7 -11 15 C-9.02 15 -7.04 15 -5 15 C-5 13.35 -5 11.7 -5 10 C-3.35 10 -1.7 10 0 10 C0 6.7 0 3.4 0 0 Z " fill="#8FF762" transform="translate(533,506)"/>
<path d="M0 0 C3.3 0 6.6 0 10 0 C10 1.65 10 3.3 10 5 C11.65 5 13.3 5 15 5 C15 6.65 15 8.3 15 10 C16.65 10 18.3 10 20 10 C20 11.65 20 13.3 20 15 C21.65 15 23.3 15 25 15 C25 16.65 25 18.3 25 20 C26.65 20 28.3 20 30 20 C30 24.95 30 29.9 30 35 C28.35 35 26.7 35 25 35 C25 36.65 25 38.3 25 40 C23.35 40 21.7 40 20 40 C20 43.3 20 46.6 20 50 C16.7 50 13.4 50 10 50 C10 51.65 10 53.3 10 55 C8.35 55 6.7 55 5 55 C5 56.65 5 58.3 5 60 C1.7 60 -1.6 60 -5 60 C-5 61.65 -5 63.3 -5 65 C-6.65 65 -8.3 65 -10 65 C-10 66.65 -10 68.3 -10 70 C-13.3 70 -16.6 70 -20 70 C-20 71.65 -20 73.3 -20 75 C-23.3 75 -26.6 75 -30 75 C-30 76.65 -30 78.3 -30 80 C-31.65 80 -33.3 80 -35 80 C-35 81.65 -35 83.3 -35 85 C-38.3 85 -41.6 85 -45 85 C-45 86.98 -45 88.96 -45 91 C-46.65 91 -48.3 91 -50 91 C-50 92.65 -50 94.3 -50 96 C-53.3 96 -56.6 96 -60 96 C-60 94.35 -60 92.7 -60 91 C-61.65 91 -63.3 91 -65 91 C-65 89.02 -65 87.04 -65 85 C-71.6 85 -78.2 85 -85 85 C-85 83.35 -85 81.7 -85 80 C-90.28 80 -95.56 80 -101 80 C-101 78.35 -101 76.7 -101 75 C-99.35 75 -97.7 75 -96 75 C-96 73.35 -96 71.7 -96 70 C-92.37 70 -88.74 70 -85 70 C-85 68.35 -85 66.7 -85 65 C-81.7 65 -78.4 65 -75 65 C-75 63.35 -75 61.7 -75 60 C-73.35 60 -71.7 60 -70 60 C-70 58.35 -70 56.7 -70 55 C-68.35 55 -66.7 55 -65 55 C-65 53.35 -65 51.7 -65 50 C-61.7 50 -58.4 50 -55 50 C-55 48.35 -55 46.7 -55 45 C-53.35 45 -51.7 45 -50 45 C-50 43.35 -50 41.7 -50 40 C-48.35 40 -46.7 40 -45 40 C-45 38.35 -45 36.7 -45 35 C-43.35 35 -41.7 35 -40 35 C-40 33.35 -40 31.7 -40 30 C-36.7 30 -33.4 30 -30 30 C-30 28.35 -30 26.7 -30 25 C-28.35 25 -26.7 25 -25 25 C-25 23.35 -25 21.7 -25 20 C-23.35 20 -21.7 20 -20 20 C-20 18.35 -20 16.7 -20 15 C-18.35 15 -16.7 15 -15 15 C-15 13.35 -15 11.7 -15 10 C-13.35 10 -11.7 10 -10 10 C-10 8.35 -10 6.7 -10 5 C-6.7 5 -3.4 5 0 5 C0 3.35 0 1.7 0 0 Z " fill="#8FF762" transform="translate(492,461)"/>
<path d="M0 0 C3.3 0 6.6 0 10 0 C10 1.65 10 3.3 10 5 C11.65 5 13.3 5 15 5 C15 6.65 15 8.3 15 10 C18.3 10 21.6 10 25 10 C25 11.65 25 13.3 25 15 C26.65 15 28.3 15 30 15 C30 16.65 30 18.3 30 20 C33.3 20 36.6 20 40 20 C40 23.3 40 26.6 40 30 C38.35 30 36.7 30 35 30 C35 31.65 35 33.3 35 35 C33.35 35 31.7 35 30 35 C30 36.65 30 38.3 30 40 C28.35 40 26.7 40 25 40 C25 41.65 25 43.3 25 45 C23.35 45 21.7 45 20 45 C20 48.3 20 51.6 20 55 C18.35 55 16.7 55 15 55 C15 56.65 15 58.3 15 60 C13.35 60 11.7 60 10 60 C10 61.65 10 63.3 10 65 C8.35 65 6.7 65 5 65 C5 66.65 5 68.3 5 70 C3.35 70 1.7 70 0 70 C0 73.3 0 76.6 0 80 C-1.65 80 -3.3 80 -5 80 C-5 83.3 -5 86.6 -5 90 C-6.65 90 -8.3 90 -10 90 C-10 91.65 -10 93.3 -10 95 C-11.65 95 -13.3 95 -15 95 C-15 96.98 -15 98.96 -15 101 C-18.3 101 -21.6 101 -25 101 C-25 99.02 -25 97.04 -25 95 C-26.65 95 -28.3 95 -30 95 C-30 93.35 -30 91.7 -30 90 C-31.65 90 -33.3 90 -35 90 C-35 85.05 -35 80.1 -35 75 C-36.65 75 -38.3 75 -40 75 C-40 73.35 -40 71.7 -40 70 C-41.65 70 -43.3 70 -45 70 C-45 68.35 -45 66.7 -45 65 C-46.65 65 -48.3 65 -50 65 C-50 61.7 -50 58.4 -50 55 C-48.35 55 -46.7 55 -45 55 C-45 51.7 -45 48.4 -45 45 C-43.35 45 -41.7 45 -40 45 C-40 43.35 -40 41.7 -40 40 C-38.35 40 -36.7 40 -35 40 C-35 38.35 -35 36.7 -35 35 C-33.35 35 -31.7 35 -30 35 C-30 33.35 -30 31.7 -30 30 C-28.35 30 -26.7 30 -25 30 C-25 28.35 -25 26.7 -25 25 C-23.35 25 -21.7 25 -20 25 C-20 23.35 -20 21.7 -20 20 C-18.35 20 -16.7 20 -15 20 C-15 18.35 -15 16.7 -15 15 C-13.35 15 -11.7 15 -10 15 C-10 13.35 -10 11.7 -10 10 C-8.35 10 -6.7 10 -5 10 C-5 8.35 -5 6.7 -5 5 C-3.35 5 -1.7 5 0 5 C0 3.35 0 1.7 0 0 Z " fill="#8FF762" transform="translate(603,572)"/>
<path d="M0 0 C4.95 0 9.9 0 15 0 C15 1.65 15 3.3 15 5 C18.3 5 21.6 5 25 5 C25 6.65 25 8.3 25 10 C29.95 10 34.9 10 40 10 C40 11.65 40 13.3 40 15 C41.65 15 43.3 15 45 15 C45 16.65 45 18.3 45 20 C46.65 20 48.3 20 50 20 C50 21.65 50 23.3 50 25 C51.65 25 53.3 25 55 25 C55 26.65 55 28.3 55 30 C58.3 30 61.6 30 65 30 C65 31.65 65 33.3 65 35 C68.3 35 71.6 35 75 35 C75 36.65 75 38.3 75 40 C76.65 40 78.3 40 80 40 C80 41.65 80 43.3 80 45 C81.65 45 83.3 45 85 45 C85 46.65 85 48.3 85 50 C86.65 50 88.3 50 90 50 C90 53.3 90 56.6 90 60 C88.35 60 86.7 60 85 60 C85 61.65 85 63.3 85 65 C83.35 65 81.7 65 80 65 C80 66.65 80 68.3 80 70 C78.35 70 76.7 70 75 70 C75 71.65 75 73.3 75 75 C73.35 75 71.7 75 70 75 C70 73.35 70 71.7 70 70 C68.35 70 66.7 70 65 70 C65 68.35 65 66.7 65 65 C63.35 65 61.7 65 60 65 C60 63.35 60 61.7 60 60 C58.35 60 56.7 60 55 60 C55 56.7 55 53.4 55 50 C53.35 50 51.7 50 50 50 C50 48.35 50 46.7 50 45 C46.7 45 43.4 45 40 45 C40 43.35 40 41.7 40 40 C38.35 40 36.7 40 35 40 C35 38.35 35 36.7 35 35 C31.7 35 28.4 35 25 35 C25 33.35 25 31.7 25 30 C21.7 30 18.4 30 15 30 C15 28.35 15 26.7 15 25 C10.05 25 5.1 25 0 25 C0 23.35 0 21.7 0 20 C-1.65 20 -3.3 20 -5 20 C-5 18.35 -5 16.7 -5 15 C-6.65 15 -8.3 15 -10 15 C-10 13.35 -10 11.7 -10 10 C-8.35 10 -6.7 10 -5 10 C-5 8.35 -5 6.7 -5 5 C-3.35 5 -1.7 5 0 5 C0 3.35 0 1.7 0 0 Z " fill="#8FF762" transform="translate(432,582)"/>
<path d="M0 0 C3.3 0 6.6 0 10 0 C10 3.63 10 7.26 10 11 C11.65 11 13.3 11 15 11 C15 12.65 15 14.3 15 16 C16.65 16 18.3 16 20 16 C20 17.65 20 19.3 20 21 C21.65 21 23.3 21 25 21 C25 22.65 25 24.3 25 26 C26.65 26 28.3 26 30 26 C30 27.65 30 29.3 30 31 C31.65 31 33.3 31 35 31 C35 37.6 35 44.2 35 51 C33.35 51 31.7 51 30 51 C30 54.3 30 57.6 30 61 C28.35 61 26.7 61 25 61 C25 64.3 25 67.6 25 71 C23.35 71 21.7 71 20 71 C20 74.3 20 77.6 20 81 C18.35 81 16.7 81 15 81 C15 82.65 15 84.3 15 86 C11.7 86 8.4 86 5 86 C5 81.05 5 76.1 5 71 C3.35 71 1.7 71 0 71 C0 67.7 0 64.4 0 61 C-1.65 61 -3.3 61 -5 61 C-5 59.35 -5 57.7 -5 56 C-6.65 56 -8.3 56 -10 56 C-10 46.1 -10 36.2 -10 26 C-8.35 26 -6.7 26 -5 26 C-5 22.7 -5 19.4 -5 16 C-3.35 16 -1.7 16 0 16 C0 10.72 0 5.44 0 0 Z " fill="#FFFFFF" transform="translate(553,793)"/>
<path d="M0 0 C3.3 0 6.6 0 10 0 C10 1.65 10 3.3 10 5 C11.65 5 13.3 5 15 5 C15 6.65 15 8.3 15 10 C16.65 10 18.3 10 20 10 C20 11.65 20 13.3 20 15 C21.65 15 23.3 15 25 15 C25 16.65 25 18.3 25 20 C26.65 20 28.3 20 30 20 C30 21.65 30 23.3 30 25 C31.65 25 33.3 25 35 25 C35 26.65 35 28.3 35 30 C36.65 30 38.3 30 40 30 C40 31.65 40 33.3 40 35 C41.65 35 43.3 35 45 35 C45 36.65 45 38.3 45 40 C46.65 40 48.3 40 50 40 C50 41.65 50 43.3 50 45 C53.3 45 56.6 45 60 45 C60 46.65 60 48.3 60 50 C61.65 50 63.3 50 65 50 C65 51.65 65 53.3 65 55 C66.65 55 68.3 55 70 55 C70 56.65 70 58.3 70 60 C66.7 60 63.4 60 60 60 C60 61.65 60 63.3 60 65 C56.7 65 53.4 65 50 65 C50 66.65 50 68.3 50 70 C46.7 70 43.4 70 40 70 C40 68.35 40 66.7 40 65 C36.7 65 33.4 65 30 65 C30 63.35 30 61.7 30 60 C28.35 60 26.7 60 25 60 C25 58.35 25 56.7 25 55 C23.35 55 21.7 55 20 55 C20 53.35 20 51.7 20 50 C18.35 50 16.7 50 15 50 C15 48.35 15 46.7 15 45 C13.35 45 11.7 45 10 45 C10 43.35 10 41.7 10 40 C6.7 40 3.4 40 0 40 C0 36.7 0 33.4 0 30 C-1.65 30 -3.3 30 -5 30 C-5 28.35 -5 26.7 -5 25 C-6.65 25 -8.3 25 -10 25 C-10 21.7 -10 18.4 -10 15 C-8.35 15 -6.7 15 -5 15 C-5 11.7 -5 8.4 -5 5 C-3.35 5 -1.7 5 0 5 C0 3.35 0 1.7 0 0 Z " fill="#8FF762" transform="translate(563,476)"/>
<path d="M0 0 C3.3 0 6.6 0 10 0 C10 6.93 10 13.86 10 21 C11.98 21 13.96 21 16 21 C16 22.65 16 24.3 16 26 C17.65 26 19.3 26 21 26 C21 29.3 21 32.6 21 36 C22.65 36 24.3 36 26 36 C26 37.65 26 39.3 26 41 C27.65 41 29.3 41 31 41 C31 47.6 31 54.2 31 61 C29.35 61 27.7 61 26 61 C26 62.65 26 64.3 26 66 C24.35 66 22.7 66 21 66 C21 70.95 21 75.9 21 81 C19.35 81 17.7 81 16 81 C16 82.65 16 84.3 16 86 C12.37 86 8.74 86 5 86 C5 82.7 5 79.4 5 76 C3.35 76 1.7 76 0 76 C0 74.35 0 72.7 0 71 C-1.65 71 -3.3 71 -5 71 C-5 69.35 -5 67.7 -5 66 C-6.65 66 -8.3 66 -10 66 C-10 64.35 -10 62.7 -10 61 C-11.65 61 -13.3 61 -15 61 C-15 54.4 -15 47.8 -15 41 C-13.35 41 -11.7 41 -10 41 C-10 37.7 -10 34.4 -10 31 C-8.35 31 -6.7 31 -5 31 C-5 27.7 -5 24.4 -5 21 C-3.35 21 -1.7 21 0 21 C0 14.07 0 7.14 0 0 Z " fill="#FFFFFF" transform="translate(512,284)"/>
<path d="M0 0 C3.3 0 6.6 0 10 0 C10 1.65 10 3.3 10 5 C13.3 5 16.6 5 20 5 C20 6.65 20 8.3 20 10 C26.6 10 33.2 10 40 10 C40 11.65 40 13.3 40 15 C46.93 15 53.86 15 61 15 C61 16.65 61 18.3 61 20 C59.35 20 57.7 20 56 20 C56 21.65 56 23.3 56 25 C52.7 25 49.4 25 46 25 C46 26.65 46 28.3 46 30 C44.02 30 42.04 30 40 30 C40 31.65 40 33.3 40 35 C38.35 35 36.7 35 35 35 C35 36.65 35 38.3 35 40 C33.35 40 31.7 40 30 40 C30 38.35 30 36.7 30 35 C26.7 35 23.4 35 20 35 C20 33.35 20 31.7 20 30 C13.4 30 6.8 30 0 30 C0 28.35 0 26.7 0 25 C-4.95 25 -9.9 25 -15 25 C-15 23.35 -15 21.7 -15 20 C-19.95 20 -24.9 20 -30 20 C-30 18.35 -30 16.7 -30 15 C-33.3 15 -36.6 15 -40 15 C-40 13.35 -40 11.7 -40 10 C-28.45 10 -16.9 10 -5 10 C-5 8.35 -5 6.7 -5 5 C-3.35 5 -1.7 5 0 5 C0 3.35 0 1.7 0 0 Z " fill="#8FF762" transform="translate(361,552)"/>
<path d="M0 0 C3.3 0 6.6 0 10 0 C10 1.65 10 3.3 10 5 C11.65 5 13.3 5 15 5 C15 8.3 15 11.6 15 15 C16.65 15 18.3 15 20 15 C20 16.98 20 18.96 20 21 C21.65 21 23.3 21 25 21 C25 24.3 25 27.6 25 31 C26.65 31 28.3 31 30 31 C30 32.65 30 34.3 30 36 C33.3 36 36.6 36 40 36 C40 40.95 40 45.9 40 51 C38.35 51 36.7 51 35 51 C35 54.3 35 57.6 35 61 C33.35 61 31.7 61 30 61 C30 64.3 30 67.6 30 71 C28.35 71 26.7 71 25 71 C25 67.7 25 64.4 25 61 C23.35 61 21.7 61 20 61 C20 59.35 20 57.7 20 56 C18.35 56 16.7 56 15 56 C15 54.35 15 52.7 15 51 C13.35 51 11.7 51 10 51 C10 47.7 10 44.4 10 41 C8.35 41 6.7 41 5 41 C5 39.35 5 37.7 5 36 C3.35 36 1.7 36 0 36 C0 32.7 0 29.4 0 26 C-1.65 26 -3.3 26 -5 26 C-5 24.35 -5 22.7 -5 21 C-6.98 21 -8.96 21 -11 21 C-11 19.02 -11 17.04 -11 15 C-9.02 15 -7.04 15 -5 15 C-5 11.7 -5 8.4 -5 5 C-3.35 5 -1.7 5 0 5 C0 3.35 0 1.7 0 0 Z " fill="#8FF762" transform="translate(533,652)"/>
<path d="M0 0 C9.9 0 19.8 0 30 0 C30 3.63 30 7.26 30 11 C31.65 11 33.3 11 35 11 C35 12.65 35 14.3 35 16 C36.65 16 38.3 16 40 16 C40 20.95 40 25.9 40 31 C35.05 31 30.1 31 25 31 C25 32.65 25 34.3 25 36 C15.1 36 5.2 36 -5 36 C-5 32.7 -5 29.4 -5 26 C-6.65 26 -8.3 26 -10 26 C-10 21.05 -10 16.1 -10 11 C-8.35 11 -6.7 11 -5 11 C-5 9.02 -5 7.04 -5 5 C-3.35 5 -1.7 5 0 5 C0 3.35 0 1.7 0 0 Z " fill="#FFFFFF" transform="translate(215,541)"/>
<path d="M0 0 C4.95 0 9.9 0 15 0 C15 1.98 15 3.96 15 6 C18.3 6 21.6 6 25 6 C25 7.65 25 9.3 25 11 C28.3 11 31.6 11 35 11 C35 14.3 35 17.6 35 21 C31.7 21 28.4 21 25 21 C25 24.3 25 27.6 25 31 C15.1 31 5.2 31 -5 31 C-5 29.35 -5 27.7 -5 26 C-11.6 26 -18.2 26 -25 26 C-25 22.7 -25 19.4 -25 16 C-23.35 16 -21.7 16 -20 16 C-20 14.35 -20 12.7 -20 11 C-16.7 11 -13.4 11 -10 11 C-10 9.35 -10 7.7 -10 6 C-6.7 6 -3.4 6 0 6 C0 4.02 0 2.04 0 0 Z " fill="#FFFFFF" transform="translate(810,546)"/>
<path d="M0 0 C1.98 0 3.96 0 6 0 C6 1.65 6 3.3 6 5 C7.65 5 9.3 5 11 5 C11 6.98 11 8.96 11 11 C12.65 11 14.3 11 16 11 C16 14.3 16 17.6 16 21 C17.65 21 19.3 21 21 21 C21 22.65 21 24.3 21 26 C22.65 26 24.3 26 26 26 C26 27.65 26 29.3 26 31 C27.65 31 29.3 31 31 31 C31 32.65 31 34.3 31 36 C32.65 36 34.3 36 36 36 C36 37.65 36 39.3 36 41 C34.35 41 32.7 41 31 41 C31 42.65 31 44.3 31 46 C29.35 46 27.7 46 26 46 C26 47.65 26 49.3 26 51 C24.35 51 22.7 51 21 51 C21 52.65 21 54.3 21 56 C19.35 56 17.7 56 16 56 C16 54.35 16 52.7 16 51 C14.35 51 12.7 51 11 51 C11 49.35 11 47.7 11 46 C9.35 46 7.7 46 6 46 C6 44.35 6 42.7 6 41 C4.02 41 2.04 41 0 41 C0 37.7 0 34.4 0 31 C-1.65 31 -3.3 31 -5 31 C-5 27.7 -5 24.4 -5 21 C-6.65 21 -8.3 21 -10 21 C-10 17.7 -10 14.4 -10 11 C-8.35 11 -6.7 11 -5 11 C-5 9.02 -5 7.04 -5 5 C-3.35 5 -1.7 5 0 5 C0 3.35 0 1.7 0 0 Z " fill="#8FF762" transform="translate(522,420)"/>
<path d="M0 0 C5.28 0 10.56 0 16 0 C16 1.98 16 3.96 16 6 C19.3 6 22.6 6 26 6 C26 7.65 26 9.3 26 11 C32.6 11 39.2 11 46 11 C46 12.65 46 14.3 46 16 C44.35 16 42.7 16 41 16 C41 17.65 41 19.3 41 21 C39.35 21 37.7 21 36 21 C36 22.65 36 24.3 36 26 C31.05 26 26.1 26 21 26 C21 27.65 21 29.3 21 31 C16.05 31 11.1 31 6 31 C6 29.35 6 27.7 6 26 C2.37 26 -1.26 26 -5 26 C-5 24.35 -5 22.7 -5 21 C-6.65 21 -8.3 21 -10 21 C-10 19.35 -10 17.7 -10 16 C-11.65 16 -13.3 16 -15 16 C-15 14.35 -15 12.7 -15 11 C-11.7 11 -8.4 11 -5 11 C-5 9.35 -5 7.7 -5 6 C-3.35 6 -1.7 6 0 6 C0 4.02 0 2.04 0 0 Z " fill="#8FF762" transform="translate(643,546)"/>
<path d="M0 0 C3.3 0 6.6 0 10 0 C10 1.65 10 3.3 10 5 C6.7 5 3.4 5 0 5 C0 3.35 0 1.7 0 0 Z " fill="#8FF762" transform="translate(215,541)"/>
</svg>
