<?xml version="1.0" encoding="UTF-8"?>
<svg version="1.1" xmlns="http://www.w3.org/2000/svg" width="646" height="927">
<path d="M0 0 C14.85 0 29.7 0 45 0 C45 1.98 45 3.96 45 6 C56.22 6 67.44 6 79 6 C79 7.65 79 9.3 79 11 C82.63 11 86.26 11 90 11 C90 12.98 90 14.96 90 17 C93.63 17 97.26 17 101 17 C101 18.98 101 20.96 101 23 C102.65 23 104.3 23 106 23 C106 24.65 106 26.3 106 28 C107.98 28 109.96 28 112 28 C112 29.98 112 31.96 112 34 C115.63 34 119.26 34 123 34 C123 35.65 123 37.3 123 39 C124.98 39 126.96 39 129 39 C129 40.98 129 42.96 129 45 C130.65 45 132.3 45 134 45 C134 46.65 134 48.3 134 50 C137.63 50 141.26 50 145 50 C145 51.98 145 53.96 145 56 C146.98 56 148.96 56 151 56 C151 57.98 151 59.96 151 62 C152.98 62 154.96 62 157 62 C157 63.65 157 65.3 157 67 C158.65 67 160.3 67 162 67 C162 68.98 162 70.96 162 73 C165.63 73 169.26 73 173 73 C173 74.65 173 76.3 173 78 C174.98 78 176.96 78 179 78 C179 79.98 179 81.96 179 84 C180.98 84 182.96 84 185 84 C185 85.98 185 87.96 185 90 C186.65 90 188.3 90 190 90 C190 91.65 190 93.3 190 95 C193.63 95 197.26 95 201 95 C201 96.98 201 98.96 201 101 C202.98 101 204.96 101 207 101 C207 102.65 207 104.3 207 106 C208.65 106 210.3 106 212 106 C212 107.98 212 109.96 212 112 C215.96 112 219.92 112 224 112 C224 113.65 224 115.3 224 117 C225.65 117 227.3 117 229 117 C229 118.98 229 120.96 229 123 C230.98 123 232.96 123 235 123 C235 124.98 235 126.96 235 129 C236.65 129 238.3 129 240 129 C240 136.26 240 143.52 240 151 C241.98 151 243.96 151 246 151 C246 158.26 246 165.52 246 173 C247.65 173 249.3 173 251 173 C251 174.98 251 176.96 251 179 C252.98 179 254.96 179 257 179 C257 184.61 257 190.22 257 196 C258.98 196 260.96 196 263 196 C263 214.15 263 232.3 263 251 C261.02 251 259.04 251 257 251 C257 256.61 257 262.22 257 268 C255.02 268 253.04 268 251 268 C251 271.63 251 275.26 251 279 C249.35 279 247.7 279 246 279 C246 280.98 246 282.96 246 285 C244.02 285 242.04 285 240 285 C240 286.65 240 288.3 240 290 C238.35 290 236.7 290 235 290 C235 291.98 235 293.96 235 296 C216.52 296 198.04 296 179 296 C179 294.02 179 292.04 179 290 C177.02 290 175.04 290 173 290 C173 291.98 173 293.96 173 296 C171.35 296 169.7 296 168 296 C168 297.98 168 299.96 168 302 C166.02 302 164.04 302 162 302 C162 303.65 162 305.3 162 307 C160.35 307 158.7 307 157 307 C157 308.98 157 310.96 157 313 C153.04 313 149.08 313 145 313 C145 314.65 145 316.3 145 318 C143.35 318 141.7 318 140 318 C140 319.98 140 321.96 140 324 C136.37 324 132.74 324 129 324 C129 325.65 129 327.3 129 329 C127.02 329 125.04 329 123 329 C123 330.98 123 332.96 123 335 C117.39 335 111.78 335 106 335 C106 336.98 106 338.96 106 341 C95.11 341 84.22 341 73 341 C73 342.65 73 344.3 73 346 C61.78 346 50.56 346 39 346 C39 344.35 39 342.7 39 341 C24.48 341 9.96 341 -5 341 C-5 339.02 -5 337.04 -5 335 C-8.63 335 -12.26 335 -16 335 C-16 336.98 -16 338.96 -16 341 C-17.98 341 -19.96 341 -22 341 C-22 344.63 -22 348.26 -22 352 C-23.98 352 -25.96 352 -28 352 C-28 355.63 -28 359.26 -28 363 C-29.65 363 -31.3 363 -33 363 C-33 368.61 -33 374.22 -33 380 C-34.98 380 -36.96 380 -39 380 C-39 381.65 -39 383.3 -39 385 C-40.65 385 -42.3 385 -44 385 C-44 390.61 -44 396.22 -44 402 C-45.98 402 -47.96 402 -50 402 C-50 407.61 -50 413.22 -50 419 C-51.65 419 -53.3 419 -55 419 C-55 422.63 -55 426.26 -55 430 C-56.98 430 -58.96 430 -61 430 C-61 439.24 -61 448.48 -61 458 C-62.98 458 -64.96 458 -67 458 C-67 491 -67 524 -67 558 C-68.65 558 -70.3 558 -72 558 C-72 572.85 -72 587.7 -72 603 C-73.98 603 -75.96 603 -78 603 C-78 610.26 -78 617.52 -78 625 C-79.65 625 -81.3 625 -83 625 C-83 647.11 -83 669.22 -83 692 C-84.98 692 -86.96 692 -89 692 C-89 706.85 -89 721.7 -89 737 C-90.65 737 -92.3 737 -94 737 C-94 753.5 -94 770 -94 787 C-95.98 787 -97.96 787 -100 787 C-100 798.22 -100 809.44 -100 821 C-101.98 821 -103.96 821 -106 821 C-106 829.91 -106 838.82 -106 848 C-107.65 848 -109.3 848 -111 848 C-111 853.61 -111 859.22 -111 865 C-107.37 865 -103.74 865 -100 865 C-100 866.98 -100 868.96 -100 871 C-89.11 871 -78.22 871 -67 871 C-67 872.65 -67 874.3 -67 876 C-63.04 876 -59.08 876 -55 876 C-55 877.98 -55 879.96 -55 882 C-51.37 882 -47.74 882 -44 882 C-44 883.98 -44 885.96 -44 888 C-40.37 888 -36.74 888 -33 888 C-33 889.65 -33 891.3 -33 893 C-31.35 893 -29.7 893 -28 893 C-28 894.98 -28 896.96 -28 899 C-26.02 899 -24.04 899 -22 899 C-22 902.63 -22 906.26 -22 910 C-23.98 910 -25.96 910 -28 910 C-28 911.65 -28 913.3 -28 915 C-33.28 915 -38.56 915 -44 915 C-44 913.35 -44 911.7 -44 910 C-45.98 910 -47.96 910 -50 910 C-50 908.02 -50 906.04 -50 904 C-55.61 904 -61.22 904 -67 904 C-67 902.35 -67 900.7 -67 899 C-70.63 899 -74.26 899 -78 899 C-78 897.02 -78 895.04 -78 893 C-87.24 893 -96.48 893 -106 893 C-106 891.35 -106 889.7 -106 888 C-120.52 888 -135.04 888 -150 888 C-150 886.02 -150 884.04 -150 882 C-164.85 882 -179.7 882 -195 882 C-195 883.98 -195 885.96 -195 888 C-220.74 888 -246.48 888 -273 888 C-273 886.02 -273 884.04 -273 882 C-278.61 882 -284.22 882 -290 882 C-290 883.98 -290 885.96 -290 888 C-295.61 888 -301.22 888 -307 888 C-307 889.65 -307 891.3 -307 893 C-312.28 893 -317.56 893 -323 893 C-323 894.98 -323 896.96 -323 899 C-335.87 899 -348.74 899 -362 899 C-362 897.02 -362 895.04 -362 893 C-363.98 893 -365.96 893 -368 893 C-368 889.37 -368 885.74 -368 882 C-366.02 882 -364.04 882 -362 882 C-362 880.02 -362 878.04 -362 876 C-351.11 876 -340.22 876 -329 876 C-329 874.35 -329 872.7 -329 871 C-323.39 871 -317.78 871 -312 871 C-312 869.02 -312 867.04 -312 865 C-308.37 865 -304.74 865 -301 865 C-301 863.35 -301 861.7 -301 860 C-293.74 860 -286.48 860 -279 860 C-279 858.02 -279 856.04 -279 854 C-277.02 854 -275.04 854 -273 854 C-273 848.39 -273 842.78 -273 837 C-271.02 837 -269.04 837 -267 837 C-267 827.76 -267 818.52 -267 809 C-265.35 809 -263.7 809 -262 809 C-262 790.85 -262 772.7 -262 754 C-260.02 754 -258.04 754 -256 754 C-256 731.89 -256 709.78 -256 687 C-254.35 687 -252.7 687 -251 687 C-251 672.15 -251 657.3 -251 642 C-249.02 642 -247.04 642 -245 642 C-245 629.13 -245 616.26 -245 603 C-243.35 603 -241.7 603 -240 603 C-240 590.13 -240 577.26 -240 564 C-238.02 564 -236.04 564 -234 564 C-234 529.02 -234 494.04 -234 458 C-232.02 458 -230.04 458 -228 458 C-228 448.76 -228 439.52 -228 430 C-226.35 430 -224.7 430 -223 430 C-223 424.39 -223 418.78 -223 413 C-224.65 413 -226.3 413 -228 413 C-228 403.76 -228 394.52 -228 385 C-226.35 385 -224.7 385 -223 385 C-223 359.26 -223 333.52 -223 307 C-221.02 307 -219.04 307 -217 307 C-217 297.76 -217 288.52 -217 279 C-215.35 279 -213.7 279 -212 279 C-212 268.11 -212 257.22 -212 246 C-210.02 246 -208.04 246 -206 246 C-206 238.41 -206 230.82 -206 223 C-204.35 223 -202.7 223 -201 223 C-201 215.74 -201 208.48 -201 201 C-199.02 201 -197.04 201 -195 201 C-195 191.76 -195 182.52 -195 173 C-193.02 173 -191.04 173 -189 173 C-189 167.39 -189 161.78 -189 156 C-187.35 156 -185.7 156 -184 156 C-184 154.35 -184 152.7 -184 151 C-182.02 151 -180.04 151 -178 151 C-178 145.39 -178 139.78 -178 134 C-176.35 134 -174.7 134 -173 134 C-173 126.74 -173 119.48 -173 112 C-171.02 112 -169.04 112 -167 112 C-167 108.37 -167 104.74 -167 101 C-165.02 101 -163.04 101 -161 101 C-161 95.39 -161 89.78 -161 84 C-159.35 84 -157.7 84 -156 84 C-156 82.02 -156 80.04 -156 78 C-154.02 78 -152.04 78 -150 78 C-150 74.37 -150 70.74 -150 67 C-148.35 67 -146.7 67 -145 67 C-145 65.35 -145 63.7 -145 62 C-143.02 62 -141.04 62 -139 62 C-139 60.02 -139 58.04 -139 56 C-137.35 56 -135.7 56 -134 56 C-134 54.02 -134 52.04 -134 50 C-132.02 50 -130.04 50 -128 50 C-128 48.35 -128 46.7 -128 45 C-126.02 45 -124.04 45 -122 45 C-122 43.02 -122 41.04 -122 39 C-120.35 39 -118.7 39 -117 39 C-117 37.35 -117 35.7 -117 34 C-113.37 34 -109.74 34 -106 34 C-106 32.02 -106 30.04 -106 28 C-102.04 28 -98.08 28 -94 28 C-94 26.35 -94 24.7 -94 23 C-88.72 23 -83.44 23 -78 23 C-78 21.02 -78 19.04 -78 17 C-70.41 17 -62.82 17 -55 17 C-55 15.02 -55 13.04 -55 11 C-47.74 11 -40.48 11 -33 11 C-33 9.35 -33 7.7 -33 6 C-22.11 6 -11.22 6 0 6 C0 4.02 0 2.04 0 0 Z " fill="#31B34F" transform="translate(377,6)"/>
<path d="M0 0 C14.85 0 29.7 0 45 0 C45 1.98 45 3.96 45 6 C56.22 6 67.44 6 79 6 C79 7.65 79 9.3 79 11 C82.63 11 86.26 11 90 11 C90 12.98 90 14.96 90 17 C93.63 17 97.26 17 101 17 C101 18.98 101 20.96 101 23 C102.65 23 104.3 23 106 23 C106 24.65 106 26.3 106 28 C107.98 28 109.96 28 112 28 C112 29.98 112 31.96 112 34 C115.63 34 119.26 34 123 34 C123 35.65 123 37.3 123 39 C124.98 39 126.96 39 129 39 C129 40.98 129 42.96 129 45 C130.65 45 132.3 45 134 45 C134 46.65 134 48.3 134 50 C137.63 50 141.26 50 145 50 C145 51.98 145 53.96 145 56 C146.98 56 148.96 56 151 56 C151 57.98 151 59.96 151 62 C152.98 62 154.96 62 157 62 C157 63.65 157 65.3 157 67 C158.65 67 160.3 67 162 67 C162 68.98 162 70.96 162 73 C165.63 73 169.26 73 173 73 C173 74.65 173 76.3 173 78 C174.98 78 176.96 78 179 78 C179 79.98 179 81.96 179 84 C180.98 84 182.96 84 185 84 C185 85.98 185 87.96 185 90 C186.65 90 188.3 90 190 90 C190 91.65 190 93.3 190 95 C193.63 95 197.26 95 201 95 C201 96.98 201 98.96 201 101 C202.98 101 204.96 101 207 101 C207 102.65 207 104.3 207 106 C208.65 106 210.3 106 212 106 C212 107.98 212 109.96 212 112 C215.96 112 219.92 112 224 112 C224 113.65 224 115.3 224 117 C225.65 117 227.3 117 229 117 C229 118.98 229 120.96 229 123 C230.98 123 232.96 123 235 123 C235 124.98 235 126.96 235 129 C236.65 129 238.3 129 240 129 C240 136.26 240 143.52 240 151 C241.98 151 243.96 151 246 151 C246 158.26 246 165.52 246 173 C247.65 173 249.3 173 251 173 C251 174.98 251 176.96 251 179 C252.98 179 254.96 179 257 179 C257 184.61 257 190.22 257 196 C258.98 196 260.96 196 263 196 C263 214.15 263 232.3 263 251 C261.02 251 259.04 251 257 251 C257 256.61 257 262.22 257 268 C255.02 268 253.04 268 251 268 C251 271.63 251 275.26 251 279 C249.35 279 247.7 279 246 279 C246 280.98 246 282.96 246 285 C244.02 285 242.04 285 240 285 C240 286.65 240 288.3 240 290 C238.35 290 236.7 290 235 290 C235 291.98 235 293.96 235 296 C216.52 296 198.04 296 179 296 C179 294.02 179 292.04 179 290 C177.02 290 175.04 290 173 290 C173 291.98 173 293.96 173 296 C171.35 296 169.7 296 168 296 C168 297.98 168 299.96 168 302 C166.02 302 164.04 302 162 302 C162 303.65 162 305.3 162 307 C160.35 307 158.7 307 157 307 C157 308.98 157 310.96 157 313 C153.04 313 149.08 313 145 313 C145 314.65 145 316.3 145 318 C143.35 318 141.7 318 140 318 C140 319.98 140 321.96 140 324 C136.37 324 132.74 324 129 324 C129 325.65 129 327.3 129 329 C127.02 329 125.04 329 123 329 C123 330.98 123 332.96 123 335 C117.39 335 111.78 335 106 335 C106 336.98 106 338.96 106 341 C95.11 341 84.22 341 73 341 C73 342.65 73 344.3 73 346 C61.78 346 50.56 346 39 346 C39 344.35 39 342.7 39 341 C24.48 341 9.96 341 -5 341 C-5 339.02 -5 337.04 -5 335 C-8.63 335 -12.26 335 -16 335 C-16 336.98 -16 338.96 -16 341 C-17.98 341 -19.96 341 -22 341 C-22 344.63 -22 348.26 -22 352 C-23.98 352 -25.96 352 -28 352 C-28 355.63 -28 359.26 -28 363 C-29.65 363 -31.3 363 -33 363 C-33 368.61 -33 374.22 -33 380 C-34.98 380 -36.96 380 -39 380 C-39 381.65 -39 383.3 -39 385 C-40.65 385 -42.3 385 -44 385 C-44 390.61 -44 396.22 -44 402 C-45.98 402 -47.96 402 -50 402 C-50 407.61 -50 413.22 -50 419 C-51.65 419 -53.3 419 -55 419 C-55 422.63 -55 426.26 -55 430 C-56.98 430 -58.96 430 -61 430 C-61 439.24 -61 448.48 -61 458 C-62.98 458 -64.96 458 -67 458 C-67 491 -67 524 -67 558 C-68.65 558 -70.3 558 -72 558 C-72 572.85 -72 587.7 -72 603 C-73.98 603 -75.96 603 -78 603 C-78 610.26 -78 617.52 -78 625 C-79.65 625 -81.3 625 -83 625 C-83 647.11 -83 669.22 -83 692 C-84.98 692 -86.96 692 -89 692 C-89 706.85 -89 721.7 -89 737 C-90.65 737 -92.3 737 -94 737 C-94 753.5 -94 770 -94 787 C-95.98 787 -97.96 787 -100 787 C-100 798.22 -100 809.44 -100 821 C-101.98 821 -103.96 821 -106 821 C-106 829.91 -106 838.82 -106 848 C-107.65 848 -109.3 848 -111 848 C-111 853.61 -111 859.22 -111 865 C-107.37 865 -103.74 865 -100 865 C-100 866.98 -100 868.96 -100 871 C-89.11 871 -78.22 871 -67 871 C-67 872.65 -67 874.3 -67 876 C-63.04 876 -59.08 876 -55 876 C-55 877.98 -55 879.96 -55 882 C-51.37 882 -47.74 882 -44 882 C-44 883.98 -44 885.96 -44 888 C-40.37 888 -36.74 888 -33 888 C-33 889.65 -33 891.3 -33 893 C-31.35 893 -29.7 893 -28 893 C-28 894.98 -28 896.96 -28 899 C-26.02 899 -24.04 899 -22 899 C-22 902.63 -22 906.26 -22 910 C-23.98 910 -25.96 910 -28 910 C-28 911.65 -28 913.3 -28 915 C-33.28 915 -38.56 915 -44 915 C-44 913.35 -44 911.7 -44 910 C-45.98 910 -47.96 910 -50 910 C-50 908.02 -50 906.04 -50 904 C-55.61 904 -61.22 904 -67 904 C-67 902.35 -67 900.7 -67 899 C-70.63 899 -74.26 899 -78 899 C-78 897.02 -78 895.04 -78 893 C-87.24 893 -96.48 893 -106 893 C-106 891.35 -106 889.7 -106 888 C-120.52 888 -135.04 888 -150 888 C-150 886.02 -150 884.04 -150 882 C-164.85 882 -179.7 882 -195 882 C-195 883.98 -195 885.96 -195 888 C-220.74 888 -246.48 888 -273 888 C-273 886.02 -273 884.04 -273 882 C-278.61 882 -284.22 882 -290 882 C-290 883.98 -290 885.96 -290 888 C-295.61 888 -301.22 888 -307 888 C-307 889.65 -307 891.3 -307 893 C-312.28 893 -317.56 893 -323 893 C-323 894.98 -323 896.96 -323 899 C-335.87 899 -348.74 899 -362 899 C-362 897.02 -362 895.04 -362 893 C-363.98 893 -365.96 893 -368 893 C-368 889.37 -368 885.74 -368 882 C-366.02 882 -364.04 882 -362 882 C-362 880.02 -362 878.04 -362 876 C-351.11 876 -340.22 876 -329 876 C-329 874.35 -329 872.7 -329 871 C-323.39 871 -317.78 871 -312 871 C-312 869.02 -312 867.04 -312 865 C-308.37 865 -304.74 865 -301 865 C-301 863.35 -301 861.7 -301 860 C-293.74 860 -286.48 860 -279 860 C-279 858.02 -279 856.04 -279 854 C-277.02 854 -275.04 854 -273 854 C-273 848.39 -273 842.78 -273 837 C-271.02 837 -269.04 837 -267 837 C-267 827.76 -267 818.52 -267 809 C-265.35 809 -263.7 809 -262 809 C-262 790.85 -262 772.7 -262 754 C-260.02 754 -258.04 754 -256 754 C-256 731.89 -256 709.78 -256 687 C-254.35 687 -252.7 687 -251 687 C-251 672.15 -251 657.3 -251 642 C-249.02 642 -247.04 642 -245 642 C-245 629.13 -245 616.26 -245 603 C-243.35 603 -241.7 603 -240 603 C-240 590.13 -240 577.26 -240 564 C-238.02 564 -236.04 564 -234 564 C-234 529.02 -234 494.04 -234 458 C-232.02 458 -230.04 458 -228 458 C-228 448.76 -228 439.52 -228 430 C-226.35 430 -224.7 430 -223 430 C-223 424.39 -223 418.78 -223 413 C-224.65 413 -226.3 413 -228 413 C-228 403.76 -228 394.52 -228 385 C-226.35 385 -224.7 385 -223 385 C-223 359.26 -223 333.52 -223 307 C-221.02 307 -219.04 307 -217 307 C-217 297.76 -217 288.52 -217 279 C-215.35 279 -213.7 279 -212 279 C-212 268.11 -212 257.22 -212 246 C-210.02 246 -208.04 246 -206 246 C-206 238.41 -206 230.82 -206 223 C-204.35 223 -202.7 223 -201 223 C-201 215.74 -201 208.48 -201 201 C-199.02 201 -197.04 201 -195 201 C-195 191.76 -195 182.52 -195 173 C-193.02 173 -191.04 173 -189 173 C-189 167.39 -189 161.78 -189 156 C-187.35 156 -185.7 156 -184 156 C-184 154.35 -184 152.7 -184 151 C-182.02 151 -180.04 151 -178 151 C-178 145.39 -178 139.78 -178 134 C-176.35 134 -174.7 134 -173 134 C-173 126.74 -173 119.48 -173 112 C-171.02 112 -169.04 112 -167 112 C-167 108.37 -167 104.74 -167 101 C-165.02 101 -163.04 101 -161 101 C-161 95.39 -161 89.78 -161 84 C-159.35 84 -157.7 84 -156 84 C-156 82.02 -156 80.04 -156 78 C-154.02 78 -152.04 78 -150 78 C-150 74.37 -150 70.74 -150 67 C-148.35 67 -146.7 67 -145 67 C-145 65.35 -145 63.7 -145 62 C-143.02 62 -141.04 62 -139 62 C-139 60.02 -139 58.04 -139 56 C-137.35 56 -135.7 56 -134 56 C-134 54.02 -134 52.04 -134 50 C-132.02 50 -130.04 50 -128 50 C-128 48.35 -128 46.7 -128 45 C-126.02 45 -124.04 45 -122 45 C-122 43.02 -122 41.04 -122 39 C-120.35 39 -118.7 39 -117 39 C-117 37.35 -117 35.7 -117 34 C-113.37 34 -109.74 34 -106 34 C-106 32.02 -106 30.04 -106 28 C-102.04 28 -98.08 28 -94 28 C-94 26.35 -94 24.7 -94 23 C-88.72 23 -83.44 23 -78 23 C-78 21.02 -78 19.04 -78 17 C-70.41 17 -62.82 17 -55 17 C-55 15.02 -55 13.04 -55 11 C-47.74 11 -40.48 11 -33 11 C-33 9.35 -33 7.7 -33 6 C-22.11 6 -11.22 6 0 6 C0 4.02 0 2.04 0 0 Z M6 23 C6 24.65 6 26.3 6 28 C-5.22 28 -16.44 28 -28 28 C-28 29.98 -28 31.96 -28 34 C-35.26 34 -42.52 34 -50 34 C-50 35.65 -50 37.3 -50 39 C-57.26 39 -64.52 39 -72 39 C-72 40.98 -72 42.96 -72 45 C-77.61 45 -83.22 45 -89 45 C-89 46.65 -89 48.3 -89 50 C-92.63 50 -96.26 50 -100 50 C-100 51.98 -100 53.96 -100 56 C-101.98 56 -103.96 56 -106 56 C-106 57.98 -106 59.96 -106 62 C-107.65 62 -109.3 62 -111 62 C-111 63.65 -111 65.3 -111 67 C-112.98 67 -114.96 67 -117 67 C-117 68.98 -117 70.96 -117 73 C-120.63 73 -124.26 73 -128 73 C-128 76.63 -128 80.26 -128 84 C-129.98 84 -131.96 84 -134 84 C-134 85.98 -134 87.96 -134 90 C-135.65 90 -137.3 90 -139 90 C-139 95.28 -139 100.56 -139 106 C-140.98 106 -142.96 106 -145 106 C-145 109.63 -145 113.26 -145 117 C-146.65 117 -148.3 117 -150 117 C-150 124.59 -150 132.18 -150 140 C-151.98 140 -153.96 140 -156 140 C-156 145.28 -156 150.56 -156 156 C-157.65 156 -159.3 156 -161 156 C-161 157.98 -161 159.96 -161 162 C-162.98 162 -164.96 162 -167 162 C-167 167.61 -167 173.22 -167 179 C-168.98 179 -170.96 179 -173 179 C-173 188.24 -173 197.48 -173 207 C-174.65 207 -176.3 207 -178 207 C-178 214.26 -178 221.52 -178 229 C-179.98 229 -181.96 229 -184 229 C-184 236.26 -184 243.52 -184 251 C-185.65 251 -187.3 251 -189 251 C-189 262.22 -189 273.44 -189 285 C-190.98 285 -192.96 285 -195 285 C-195 294.24 -195 303.48 -195 313 C-196.98 313 -198.96 313 -201 313 C-201 338.74 -201 364.48 -201 391 C-202.65 391 -204.3 391 -206 391 C-206 392.65 -206 394.3 -206 396 C-204.35 396 -202.7 396 -201 396 C-201 409.2 -201 422.4 -201 436 C-202.65 436 -204.3 436 -206 436 C-206 444.91 -206 453.82 -206 463 C-207.98 463 -209.96 463 -212 463 C-212 497.98 -212 532.96 -212 569 C-213.65 569 -215.3 569 -217 569 C-217 581.87 -217 594.74 -217 608 C-218.98 608 -220.96 608 -223 608 C-223 622.85 -223 637.7 -223 653 C-224.65 653 -226.3 653 -228 653 C-228 665.87 -228 678.74 -228 692 C-229.98 692 -231.96 692 -234 692 C-234 714.11 -234 736.22 -234 759 C-235.98 759 -237.96 759 -240 759 C-240 777.48 -240 795.96 -240 815 C-241.65 815 -243.3 815 -245 815 C-245 824.24 -245 833.48 -245 843 C-246.98 843 -248.96 843 -251 843 C-251 848.61 -251 854.22 -251 860 C-252.65 860 -254.3 860 -256 860 C-256 861.65 -256 863.3 -256 865 C-237.85 865 -219.7 865 -201 865 C-201 863.35 -201 861.7 -201 860 C-182.52 860 -164.04 860 -145 860 C-145 861.65 -145 863.3 -145 865 C-141.37 865 -137.74 865 -134 865 C-134 857.74 -134 850.48 -134 843 C-132.02 843 -130.04 843 -128 843 C-128 833.76 -128 824.52 -128 815 C-126.02 815 -124.04 815 -122 815 C-122 803.78 -122 792.56 -122 781 C-120.35 781 -118.7 781 -117 781 C-117 764.5 -117 748 -117 731 C-115.02 731 -113.04 731 -111 731 C-111 716.48 -111 701.96 -111 687 C-109.35 687 -107.7 687 -106 687 C-106 664.89 -106 642.78 -106 620 C-104.02 620 -102.04 620 -100 620 C-100 610.76 -100 601.52 -100 592 C-98.02 592 -96.04 592 -94 592 C-94 579.13 -94 566.26 -94 553 C-92.35 553 -90.7 553 -89 553 C-89 518.02 -89 483.04 -89 447 C-87.02 447 -85.04 447 -83 447 C-83 439.41 -83 431.82 -83 424 C-81.35 424 -79.7 424 -78 424 C-78 420.37 -78 416.74 -78 413 C-76.02 413 -74.04 413 -72 413 C-72 405.74 -72 398.48 -72 391 C-70.35 391 -68.7 391 -67 391 C-67 387.37 -67 383.74 -67 380 C-65.02 380 -63.04 380 -61 380 C-61 378.02 -61 376.04 -61 374 C-59.02 374 -57.04 374 -55 374 C-55 368.39 -55 362.78 -55 357 C-53.35 357 -51.7 357 -50 357 C-50 353.37 -50 349.74 -50 346 C-48.02 346 -46.04 346 -44 346 C-44 342.37 -44 338.74 -44 335 C-42.35 335 -40.7 335 -39 335 C-39 329.39 -39 323.78 -39 318 C-37.02 318 -35.04 318 -33 318 C-33 316.35 -33 314.7 -33 313 C-31.35 313 -29.7 313 -28 313 C-28 311.02 -28 309.04 -28 307 C-26.02 307 -24.04 307 -22 307 C-22 303.37 -22 299.74 -22 296 C-20.02 296 -18.04 296 -16 296 C-16 294.02 -16 292.04 -16 290 C-14.35 290 -12.7 290 -11 290 C-11 286.37 -11 282.74 -11 279 C-9.02 279 -7.04 279 -5 279 C-5 277.35 -5 275.7 -5 274 C-3.35 274 -1.7 274 0 274 C0 272.02 0 270.04 0 268 C3.96 268 7.92 268 12 268 C12 266.35 12 264.7 12 263 C17.28 263 22.56 263 28 263 C28 261.02 28 259.04 28 257 C35.59 257 43.18 257 51 257 C51 255.02 51 253.04 51 251 C78.39 251 105.78 251 134 251 C134 252.98 134 254.96 134 257 C141.59 257 149.18 257 157 257 C157 258.98 157 260.96 157 263 C160.63 263 164.26 263 168 263 C168 264.65 168 266.3 168 268 C173.61 268 179.22 268 185 268 C185 269.98 185 271.96 185 274 C197.87 274 210.74 274 224 274 C224 272.02 224 270.04 224 268 C225.65 268 227.3 268 229 268 C229 266.35 229 264.7 229 263 C230.98 263 232.96 263 235 263 C235 257.39 235 251.78 235 246 C236.65 246 238.3 246 240 246 C240 231.15 240 216.3 240 201 C238.35 201 236.7 201 235 201 C235 195.39 235 189.78 235 184 C233.02 184 231.04 184 229 184 C229 182.35 229 180.7 229 179 C227.35 179 225.7 179 224 179 C224 171.41 224 163.82 224 156 C222.02 156 220.04 156 218 156 C218 150.72 218 145.44 218 140 C216.02 140 214.04 140 212 140 C212 138.02 212 136.04 212 134 C210.35 134 208.7 134 207 134 C207 132.35 207 130.7 207 129 C205.02 129 203.04 129 201 129 C201 127.02 201 125.04 201 123 C199.35 123 197.7 123 196 123 C196 121.02 196 119.04 196 117 C192.37 117 188.74 117 185 117 C185 115.35 185 113.7 185 112 C183.02 112 181.04 112 179 112 C179 110.02 179 108.04 179 106 C177.02 106 175.04 106 173 106 C173 104.35 173 102.7 173 101 C171.35 101 169.7 101 168 101 C168 99.02 168 97.04 168 95 C164.37 95 160.74 95 157 95 C157 93.35 157 91.7 157 90 C155.02 90 153.04 90 151 90 C151 88.02 151 86.04 151 84 C143.74 84 136.48 84 129 84 C129 82.02 129 80.04 129 78 C121.41 78 113.82 78 106 78 C106 79.98 106 81.96 106 84 C100.72 84 95.44 84 90 84 C90 80.37 90 76.74 90 73 C93.63 73 97.26 73 101 73 C101 71.02 101 69.04 101 67 C108.26 67 115.52 67 123 67 C123 65.35 123 63.7 123 62 C121.35 62 119.7 62 118 62 C118 60.02 118 58.04 118 56 C114.04 56 110.08 56 106 56 C106 54.02 106 52.04 106 50 C104.35 50 102.7 50 101 50 C101 48.35 101 46.7 101 45 C99.02 45 97.04 45 95 45 C95 43.02 95 41.04 95 39 C91.37 39 87.74 39 84 39 C84 37.35 84 35.7 84 34 C80.37 34 76.74 34 73 34 C73 32.02 73 30.04 73 28 C61.78 28 50.56 28 39 28 C39 26.35 39 24.7 39 23 C28.11 23 17.22 23 6 23 Z " fill="#000000" transform="translate(377,6)"/>
<path d="M0 0 C22.11 0 44.22 0 67 0 C67 1.65 67 3.3 67 5 C72.28 5 77.56 5 83 5 C83 8.63 83 12.26 83 16 C81.35 16 79.7 16 78 16 C78 17.98 78 19.96 78 22 C76.02 22 74.04 22 72 22 C72 23.98 72 25.96 72 28 C68.37 28 64.74 28 61 28 C61 29.65 61 31.3 61 33 C59.35 33 57.7 33 56 33 C56 34.98 56 36.96 56 39 C50.39 39 44.78 39 39 39 C39 40.65 39 42.3 39 44 C27.78 44 16.56 44 5 44 C5 45.98 5 47.96 5 50 C-2.26 50 -9.52 50 -17 50 C-17 48.02 -17 46.04 -17 44 C-31.85 44 -46.7 44 -62 44 C-62 38.72 -62 33.44 -62 28 C-60.02 28 -58.04 28 -56 28 C-56 26.02 -56 24.04 -56 22 C-54.02 22 -52.04 22 -50 22 C-50 20.02 -50 18.04 -50 16 C-46.37 16 -42.74 16 -39 16 C-39 14.35 -39 12.7 -39 11 C-35.37 11 -31.74 11 -28 11 C-28 9.02 -28 7.04 -28 5 C-18.76 5 -9.52 5 0 5 C0 3.35 0 1.7 0 0 Z " fill="#93E1A5" transform="translate(439,280)"/>
<path d="M0 0 C5.61 0 11.22 0 17 0 C17 1.98 17 3.96 17 6 C18.65 6 20.3 6 22 6 C22 7.65 22 9.3 22 11 C23.98 11 25.96 11 28 11 C28 12.98 28 14.96 28 17 C29.98 17 31.96 17 34 17 C34 26.24 34 35.48 34 45 C32.02 45 30.04 45 28 45 C28 46.65 28 48.3 28 50 C22.39 50 16.78 50 11 50 C11 51.98 11 53.96 11 56 C3.74 56 -3.52 56 -11 56 C-11 54.02 -11 52.04 -11 50 C-12.98 50 -14.96 50 -17 50 C-17 48.35 -17 46.7 -17 45 C-18.65 45 -20.3 45 -22 45 C-22 33.78 -22 22.56 -22 11 C-20.35 11 -18.7 11 -17 11 C-17 9.35 -17 7.7 -17 6 C-11.39 6 -5.78 6 0 6 C0 4.02 0 2.04 0 0 Z " fill="#000000" transform="translate(500,112)"/>
<path d="M0 0 C8.91 0 17.82 0 27 0 C27 1.98 27 3.96 27 6 C28.98 6 30.96 6 33 6 C33 7.98 33 9.96 33 12 C34.98 12 36.96 12 39 12 C39 20.91 39 29.82 39 39 C37.02 39 35.04 39 33 39 C33 40.98 33 42.96 33 45 C29.37 45 25.74 45 22 45 C22 46.98 22 48.96 22 51 C14.74 51 7.48 51 0 51 C0 49.02 0 47.04 0 45 C-1.98 45 -3.96 45 -6 45 C-6 43.02 -6 41.04 -6 39 C-7.98 39 -9.96 39 -12 39 C-12 30.09 -12 21.18 -12 12 C-10.02 12 -8.04 12 -6 12 C-6 10.02 -6 8.04 -6 6 C-4.02 6 -2.04 6 0 6 C0 4.02 0 2.04 0 0 Z " fill="#000000" transform="translate(389,123)"/>
<path d="M0 0 C12.87 0 25.74 0 39 0 C39 3.63 39 7.26 39 11 C29.76 11 20.52 11 11 11 C11 12.98 11 14.96 11 17 C7.37 17 3.74 17 0 17 C0 18.65 0 20.3 0 22 C-1.65 22 -3.3 22 -5 22 C-5 23.98 -5 25.96 -5 28 C-6.98 28 -8.96 28 -11 28 C-11 29.65 -11 31.3 -11 33 C-14.63 33 -18.26 33 -22 33 C-22 27.72 -22 22.44 -22 17 C-20.35 17 -18.7 17 -17 17 C-17 15.02 -17 13.04 -17 11 C-15.02 11 -13.04 11 -11 11 C-11 9.35 -11 7.7 -11 6 C-7.37 6 -3.74 6 0 6 C0 4.02 0 2.04 0 0 Z " fill="#000000" transform="translate(366,90)"/>
<path d="M0 0 C5.61 0 11.22 0 17 0 C17 5.61 17 11.22 17 17 C11.39 17 5.78 17 0 17 C0 11.39 0 5.78 0 0 Z " fill="#FFFFFF" transform="translate(500,129)"/>
<path d="M0 0 C5.28 0 10.56 0 16 0 C16 5.61 16 11.22 16 17 C10.72 17 5.44 17 0 17 C0 11.39 0 5.78 0 0 Z " fill="#FFFFFF" transform="translate(400,140)"/>
<path d="M0 0 C1.98 0 3.96 0 6 0 C6 1.65 6 3.3 6 5 C4.02 5 2.04 5 0 5 C0 3.35 0 1.7 0 0 Z " fill="#000000" transform="translate(405,146)"/>
<path d="M0 0 C1.65 0 3.3 0 5 0 C5 1.65 5 3.3 5 5 C3.35 5 1.7 5 0 5 C0 3.35 0 1.7 0 0 Z " fill="#000000" transform="translate(506,135)"/>
</svg>
