<?xml version="1.0" encoding="UTF-8"?>
<svg version="1.1" xmlns="http://www.w3.org/2000/svg" width="540" height="500">
<path d="M0 0 C5.28 0 10.56 0 16 0 C16 2.64 16 5.28 16 8 C18.64 8 21.28 8 24 8 C24 5.36 24 2.72 24 0 C29.28 0 34.56 0 40 0 C40 2.64 40 5.28 40 8 C42.64 8 45.28 8 48 8 C48 5.36 48 2.72 48 0 C53.28 0 58.56 0 64 0 C64 2.64 64 5.28 64 8 C66.64 8 69.28 8 72 8 C72 5.36 72 2.72 72 0 C77.28 0 82.56 0 88 0 C88 2.64 88 5.28 88 8 C90.64 8 93.28 8 96 8 C96 5.36 96 2.72 96 0 C101.28 0 106.56 0 112 0 C112 2.64 112 5.28 112 8 C114.64 8 117.28 8 120 8 C120 5.36 120 2.72 120 0 C125.28 0 130.56 0 136 0 C136 2.64 136 5.28 136 8 C141.28 8 146.56 8 152 8 C152 10.64 152 13.28 152 16 C154.64 16 157.28 16 160 16 C160 18.64 160 21.28 160 24 C162.64 24 165.28 24 168 24 C168 90 168 156 168 224 C165.36 224 162.72 224 160 224 C160 226.64 160 229.28 160 232 C157.36 232 154.72 232 152 232 C152 234.64 152 237.28 152 240 C107.12 240 62.24 240 16 240 C16 237.36 16 234.72 16 232 C13.36 232 10.72 232 8 232 C8 229.36 8 226.72 8 224 C5.36 224 2.72 224 0 224 C0 221.36 0 218.72 0 216 C-2.64 216 -5.28 216 -8 216 C-8 210.72 -8 205.44 -8 200 C-29.12 200 -50.24 200 -72 200 C-72 197.36 -72 194.72 -72 192 C-74.64 192 -77.28 192 -80 192 C-80 189.36 -80 186.72 -80 184 C-82.64 184 -85.28 184 -88 184 C-88 176.08 -88 168.16 -88 160 C-85.36 160 -82.72 160 -80 160 C-80 154.72 -80 149.44 -80 144 C-77.36 144 -74.72 144 -72 144 C-72 138.72 -72 133.44 -72 128 C-69.36 128 -66.72 128 -64 128 C-64 122.72 -64 117.44 -64 112 C-61.36 112 -58.72 112 -56 112 C-56 106.72 -56 101.44 -56 96 C-53.36 96 -50.72 96 -48 96 C-48 90.72 -48 85.44 -48 80 C-45.36 80 -42.72 80 -40 80 C-40 74.72 -40 69.44 -40 64 C-37.36 64 -34.72 64 -32 64 C-32 58.72 -32 53.44 -32 48 C-29.36 48 -26.72 48 -24 48 C-24 42.72 -24 37.44 -24 32 C-21.36 32 -18.72 32 -16 32 C-16 26.72 -16 21.44 -16 16 C-13.36 16 -10.72 16 -8 16 C-8 13.36 -8 10.72 -8 8 C-5.36 8 -2.72 8 0 8 C0 5.36 0 2.72 0 0 Z " fill="#66CCCC" transform="translate(230,130)"/>
<path d="M0 0 C5.28 0 10.56 0 16 0 C16 2.64 16 5.28 16 8 C18.64 8 21.28 8 24 8 C24 5.36 24 2.72 24 0 C29.28 0 34.56 0 40 0 C40 2.64 40 5.28 40 8 C42.64 8 45.28 8 48 8 C48 5.36 48 2.72 48 0 C53.28 0 58.56 0 64 0 C64 2.64 64 5.28 64 8 C66.64 8 69.28 8 72 8 C72 5.36 72 2.72 72 0 C77.28 0 82.56 0 88 0 C88 2.64 88 5.28 88 8 C90.64 8 93.28 8 96 8 C96 5.36 96 2.72 96 0 C101.28 0 106.56 0 112 0 C112 2.64 112 5.28 112 8 C114.64 8 117.28 8 120 8 C120 5.36 120 2.72 120 0 C125.28 0 130.56 0 136 0 C136 2.64 136 5.28 136 8 C133.36 8 130.72 8 128 8 C128 10.64 128 13.28 128 16 C130.64 16 133.28 16 136 16 C136 21.28 136 26.56 136 32 C133.36 32 130.72 32 128 32 C128 37.28 128 42.56 128 48 C125.36 48 122.72 48 120 48 C120 53.28 120 58.56 120 64 C117.36 64 114.72 64 112 64 C112 69.28 112 74.56 112 80 C109.36 80 106.72 80 104 80 C104 85.28 104 90.56 104 96 C101.36 96 98.72 96 96 96 C96 98.64 96 101.28 96 104 C90.72 104 85.44 104 80 104 C80 109.28 80 114.56 80 120 C77.36 120 74.72 120 72 120 C72 122.64 72 125.28 72 128 C69.36 128 66.72 128 64 128 C64 125.36 64 122.72 64 120 C58.72 120 53.44 120 48 120 C48 122.64 48 125.28 48 128 C42.72 128 37.44 128 32 128 C32 130.64 32 133.28 32 136 C29.36 136 26.72 136 24 136 C24 138.64 24 141.28 24 144 C21.36 144 18.72 144 16 144 C16 141.36 16 138.72 16 136 C8.08 136 0.16 136 -8 136 C-8 138.64 -8 141.28 -8 144 C-5.36 144 -2.72 144 0 144 C0 146.64 0 149.28 0 152 C-2.64 152 -5.28 152 -8 152 C-8 154.64 -8 157.28 -8 160 C-13.28 160 -18.56 160 -24 160 C-24 157.36 -24 154.72 -24 152 C-29.28 152 -34.56 152 -40 152 C-40 154.64 -40 157.28 -40 160 C-37.36 160 -34.72 160 -32 160 C-32 162.64 -32 165.28 -32 168 C-39.92 168 -47.84 168 -56 168 C-56 165.36 -56 162.72 -56 160 C-58.64 160 -61.28 160 -64 160 C-64 144.16 -64 128.32 -64 112 C-61.36 112 -58.72 112 -56 112 C-56 106.72 -56 101.44 -56 96 C-53.36 96 -50.72 96 -48 96 C-48 90.72 -48 85.44 -48 80 C-45.36 80 -42.72 80 -40 80 C-40 74.72 -40 69.44 -40 64 C-37.36 64 -34.72 64 -32 64 C-32 58.72 -32 53.44 -32 48 C-29.36 48 -26.72 48 -24 48 C-24 42.72 -24 37.44 -24 32 C-21.36 32 -18.72 32 -16 32 C-16 26.72 -16 21.44 -16 16 C-13.36 16 -10.72 16 -8 16 C-8 13.36 -8 10.72 -8 8 C-5.36 8 -2.72 8 0 8 C0 5.36 0 2.72 0 0 Z " fill="#F6F6F6" transform="translate(230,130)"/>
<path d="M0 0 C2.64 0 5.28 0 8 0 C8 66 8 132 8 200 C-42.16 200 -92.32 200 -144 200 C-144 197.36 -144 194.72 -144 192 C-146.64 192 -149.28 192 -152 192 C-152 186.72 -152 181.44 -152 176 C-117.68 176 -83.36 176 -48 176 C-48 173.36 -48 170.72 -48 168 C-58.56 168 -69.12 168 -80 168 C-80 165.36 -80 162.72 -80 160 C-77.36 160 -74.72 160 -72 160 C-72 154.72 -72 149.44 -72 144 C-69.36 144 -66.72 144 -64 144 C-64 138.72 -64 133.44 -64 128 C-61.36 128 -58.72 128 -56 128 C-56 122.72 -56 117.44 -56 112 C-53.36 112 -50.72 112 -48 112 C-48 106.72 -48 101.44 -48 96 C-45.36 96 -42.72 96 -40 96 C-40 90.72 -40 85.44 -40 80 C-37.36 80 -34.72 80 -32 80 C-32 74.72 -32 69.44 -32 64 C-29.36 64 -26.72 64 -24 64 C-24 58.72 -24 53.44 -24 48 C-21.36 48 -18.72 48 -16 48 C-16 42.72 -16 37.44 -16 32 C-13.36 32 -10.72 32 -8 32 C-8 26.72 -8 21.44 -8 16 C-5.36 16 -2.72 16 0 16 C0 10.72 0 5.44 0 0 Z " fill="#66CCCC" transform="translate(374,154)"/>
<path d="M0 0 C2.64 0 5.28 0 8 0 C8 2.64 8 5.28 8 8 C34.4 8 60.8 8 88 8 C88 10.64 88 13.28 88 16 C61.6 16 35.2 16 8 16 C8 18.64 8 21.28 8 24 C31.76 24 55.52 24 80 24 C80 26.64 80 29.28 80 32 C82.64 32 85.28 32 88 32 C88 29.36 88 26.72 88 24 C90.64 24 93.28 24 96 24 C96 29.28 96 34.56 96 40 C98.64 40 101.28 40 104 40 C104 32.08 104 24.16 104 16 C106.64 16 109.28 16 112 16 C112 18.64 112 21.28 112 24 C114.64 24 117.28 24 120 24 C120 29.28 120 34.56 120 40 C117.36 40 114.72 40 112 40 C112 42.64 112 45.28 112 48 C106.72 48 101.44 48 96 48 C96 53.28 96 58.56 96 64 C93.36 64 90.72 64 88 64 C88 66.64 88 69.28 88 72 C85.36 72 82.72 72 80 72 C80 69.36 80 66.72 80 64 C74.72 64 69.44 64 64 64 C64 66.64 64 69.28 64 72 C58.72 72 53.44 72 48 72 C48 74.64 48 77.28 48 80 C45.36 80 42.72 80 40 80 C40 82.64 40 85.28 40 88 C37.36 88 34.72 88 32 88 C32 85.36 32 82.72 32 80 C24.08 80 16.16 80 8 80 C8 82.64 8 85.28 8 88 C10.64 88 13.28 88 16 88 C16 90.64 16 93.28 16 96 C13.36 96 10.72 96 8 96 C8 98.64 8 101.28 8 104 C2.72 104 -2.56 104 -8 104 C-8 101.36 -8 98.72 -8 96 C-13.28 96 -18.56 96 -24 96 C-24 98.64 -24 101.28 -24 104 C-21.36 104 -18.72 104 -16 104 C-16 106.64 -16 109.28 -16 112 C-23.92 112 -31.84 112 -40 112 C-40 109.36 -40 106.72 -40 104 C-42.64 104 -45.28 104 -48 104 C-48 88.16 -48 72.32 -48 56 C-45.36 56 -42.72 56 -40 56 C-40 50.72 -40 45.44 -40 40 C-37.36 40 -34.72 40 -32 40 C-32 34.72 -32 29.44 -32 24 C-24.08 24 -16.16 24 -8 24 C-8 18.72 -8 13.44 -8 8 C-5.36 8 -2.72 8 0 8 C0 5.36 0 2.72 0 0 Z " fill="#A4CAED" transform="translate(214,186)"/>
<path d="M0 0 C7.92 0 15.84 0 24 0 C24 2.64 24 5.28 24 8 C26.64 8 29.28 8 32 8 C32 10.64 32 13.28 32 16 C34.64 16 37.28 16 40 16 C40 82 40 148 40 216 C37.36 216 34.72 216 32 216 C32 218.64 32 221.28 32 224 C29.36 224 26.72 224 24 224 C24 226.64 24 229.28 24 232 C-20.88 232 -65.76 232 -112 232 C-112 229.36 -112 226.72 -112 224 C-114.64 224 -117.28 224 -120 224 C-120 221.36 -120 218.72 -120 216 C-72.48 216 -24.96 216 24 216 C24 150 24 84 24 16 C21.36 16 18.72 16 16 16 C16 21.28 16 26.56 16 32 C13.36 32 10.72 32 8 32 C8 37.28 8 42.56 8 48 C5.36 48 2.72 48 0 48 C0 53.28 0 58.56 0 64 C-2.64 64 -5.28 64 -8 64 C-8 69.28 -8 74.56 -8 80 C-10.64 80 -13.28 80 -16 80 C-16 85.28 -16 90.56 -16 96 C-18.64 96 -21.28 96 -24 96 C-24 101.28 -24 106.56 -24 112 C-26.64 112 -29.28 112 -32 112 C-32 117.28 -32 122.56 -32 128 C-34.64 128 -37.28 128 -40 128 C-40 133.28 -40 138.56 -40 144 C-42.64 144 -45.28 144 -48 144 C-48 149.28 -48 154.56 -48 160 C-50.64 160 -53.28 160 -56 160 C-56 165.28 -56 170.56 -56 176 C-58.64 176 -61.28 176 -64 176 C-64 168.08 -64 160.16 -64 152 C-61.36 152 -58.72 152 -56 152 C-56 146.72 -56 141.44 -56 136 C-53.36 136 -50.72 136 -48 136 C-48 130.72 -48 125.44 -48 120 C-45.36 120 -42.72 120 -40 120 C-40 114.72 -40 109.44 -40 104 C-37.36 104 -34.72 104 -32 104 C-32 98.72 -32 93.44 -32 88 C-29.36 88 -26.72 88 -24 88 C-24 82.72 -24 77.44 -24 72 C-21.36 72 -18.72 72 -16 72 C-16 66.72 -16 61.44 -16 56 C-13.36 56 -10.72 56 -8 56 C-8 50.72 -8 45.44 -8 40 C-5.36 40 -2.72 40 0 40 C0 34.72 0 29.44 0 24 C2.64 24 5.28 24 8 24 C8 18.72 8 13.44 8 8 C5.36 8 2.72 8 0 8 C0 5.36 0 2.72 0 0 Z " fill="#868686" transform="translate(358,138)"/>
<path d="M0 0 C15.84 0 31.68 0 48 0 C48 15.84 48 31.68 48 48 C-2.16 48 -52.32 48 -104 48 C-104 45.36 -104 42.72 -104 40 C-106.64 40 -109.28 40 -112 40 C-112 34.72 -112 29.44 -112 24 C-77.68 24 -43.36 24 -8 24 C-8 18.72 -8 13.44 -8 8 C-5.36 8 -2.72 8 0 8 C0 5.36 0 2.72 0 0 Z " fill="#E0E0E0" transform="translate(334,306)"/>
<path d="M0 0 C5.28 0 10.56 0 16 0 C16 2.64 16 5.28 16 8 C18.64 8 21.28 8 24 8 C24 5.36 24 2.72 24 0 C29.28 0 34.56 0 40 0 C40 2.64 40 5.28 40 8 C37.36 8 34.72 8 32 8 C32 10.64 32 13.28 32 16 C34.64 16 37.28 16 40 16 C40 21.28 40 26.56 40 32 C37.36 32 34.72 32 32 32 C32 37.28 32 42.56 32 48 C29.36 48 26.72 48 24 48 C24 53.28 24 58.56 24 64 C21.36 64 18.72 64 16 64 C16 69.28 16 74.56 16 80 C10.72 80 5.44 80 0 80 C0 77.36 0 74.72 0 72 C-2.64 72 -5.28 72 -8 72 C-8 79.92 -8 87.84 -8 96 C-10.64 96 -13.28 96 -16 96 C-16 90.72 -16 85.44 -16 80 C-18.64 80 -21.28 80 -24 80 C-24 82.64 -24 85.28 -24 88 C-26.64 88 -29.28 88 -32 88 C-32 85.36 -32 82.72 -32 80 C-55.76 80 -79.52 80 -104 80 C-104 77.36 -104 74.72 -104 72 C-77.6 72 -51.2 72 -24 72 C-24 69.36 -24 66.72 -24 64 C-18.72 64 -13.44 64 -8 64 C-8 58.72 -8 53.44 -8 48 C-10.64 48 -13.28 48 -16 48 C-16 45.36 -16 42.72 -16 40 C-13.36 40 -10.72 40 -8 40 C-8 37.36 -8 34.72 -8 32 C-2.72 32 2.56 32 8 32 C8 24.08 8 16.16 8 8 C5.36 8 2.72 8 0 8 C0 5.36 0 2.72 0 0 Z " fill="#CCECFF" transform="translate(326,130)"/>
<path d="M0 0 C2.64 0 5.28 0 8 0 C8 2.64 8 5.28 8 8 C34.4 8 60.8 8 88 8 C88 10.64 88 13.28 88 16 C61.6 16 35.2 16 8 16 C8 18.64 8 21.28 8 24 C31.76 24 55.52 24 80 24 C80 26.64 80 29.28 80 32 C74.72 32 69.44 32 64 32 C64 34.64 64 37.28 64 40 C61.36 40 58.72 40 56 40 C56 37.36 56 34.72 56 32 C45.44 32 34.88 32 24 32 C24 34.64 24 37.28 24 40 C29.28 40 34.56 40 40 40 C40 42.64 40 45.28 40 48 C34.72 48 29.44 48 24 48 C24 50.64 24 53.28 24 56 C21.36 56 18.72 56 16 56 C16 61.28 16 66.56 16 72 C13.36 72 10.72 72 8 72 C8 64.08 8 56.16 8 48 C5.36 48 2.72 48 0 48 C0 50.64 0 53.28 0 56 C-7.92 56 -15.84 56 -24 56 C-24 45.44 -24 34.88 -24 24 C-18.72 24 -13.44 24 -8 24 C-8 18.72 -8 13.44 -8 8 C-5.36 8 -2.72 8 0 8 C0 5.36 0 2.72 0 0 Z " fill="#CCECFF" transform="translate(214,186)"/>
<path d="M0 0 C2.64 0 5.28 0 8 0 C8 2.64 8 5.28 8 8 C10.64 8 13.28 8 16 8 C16 13.28 16 18.56 16 24 C13.36 24 10.72 24 8 24 C8 26.64 8 29.28 8 32 C2.72 32 -2.56 32 -8 32 C-8 37.28 -8 42.56 -8 48 C-10.64 48 -13.28 48 -16 48 C-16 50.64 -16 53.28 -16 56 C-18.64 56 -21.28 56 -24 56 C-24 53.36 -24 50.72 -24 48 C-29.28 48 -34.56 48 -40 48 C-40 50.64 -40 53.28 -40 56 C-47.92 56 -55.84 56 -64 56 C-64 53.36 -64 50.72 -64 48 C-69.28 48 -74.56 48 -80 48 C-80 42.72 -80 37.44 -80 32 C-74.72 32 -69.44 32 -64 32 C-64 29.36 -64 26.72 -64 24 C-69.28 24 -74.56 24 -80 24 C-80 21.36 -80 18.72 -80 16 C-69.44 16 -58.88 16 -48 16 C-48 18.64 -48 21.28 -48 24 C-45.36 24 -42.72 24 -40 24 C-40 21.36 -40 18.72 -40 16 C-32.08 16 -24.16 16 -16 16 C-16 13.36 -16 10.72 -16 8 C-13.36 8 -10.72 8 -8 8 C-8 13.28 -8 18.56 -8 24 C-5.36 24 -2.72 24 0 24 C0 16.08 0 8.16 0 0 Z " fill="#A6CAF0" transform="translate(318,202)"/>
<path d="M0 0 C2.64 0 5.28 0 8 0 C8 31.68 8 63.36 8 96 C-7.84 96 -23.68 96 -40 96 C-40 90.72 -40 85.44 -40 80 C-37.36 80 -34.72 80 -32 80 C-32 74.72 -32 69.44 -32 64 C-29.36 64 -26.72 64 -24 64 C-24 58.72 -24 53.44 -24 48 C-21.36 48 -18.72 48 -16 48 C-16 42.72 -16 37.44 -16 32 C-13.36 32 -10.72 32 -8 32 C-8 26.72 -8 21.44 -8 16 C-5.36 16 -2.72 16 0 16 C0 10.72 0 5.44 0 0 Z " fill="#C0C0C0" transform="translate(374,154)"/>
<path d="M0 0 C47.52 0 95.04 0 144 0 C144 2.64 144 5.28 144 8 C154.56 8 165.12 8 176 8 C176 10.64 176 13.28 176 16 C120.56 16 65.12 16 8 16 C8 13.36 8 10.72 8 8 C5.36 8 2.72 8 0 8 C0 5.36 0 2.72 0 0 Z " fill="#008080" transform="translate(150,314)"/>
<path d="M0 0 C47.52 0 95.04 0 144 0 C144 5.28 144 10.56 144 16 C99.12 16 54.24 16 8 16 C8 13.36 8 10.72 8 8 C5.36 8 2.72 8 0 8 C0 5.36 0 2.72 0 0 Z " fill="#868686" transform="translate(238,354)"/>
<path d="M0 0 C7.92 0 15.84 0 24 0 C24 2.64 24 5.28 24 8 C26.64 8 29.28 8 32 8 C32 10.64 32 13.28 32 16 C26.72 16 21.44 16 16 16 C16 21.28 16 26.56 16 32 C13.36 32 10.72 32 8 32 C8 37.28 8 42.56 8 48 C5.36 48 2.72 48 0 48 C0 53.28 0 58.56 0 64 C-2.64 64 -5.28 64 -8 64 C-8 69.28 -8 74.56 -8 80 C-10.64 80 -13.28 80 -16 80 C-16 85.28 -16 90.56 -16 96 C-18.64 96 -21.28 96 -24 96 C-24 101.28 -24 106.56 -24 112 C-26.64 112 -29.28 112 -32 112 C-32 117.28 -32 122.56 -32 128 C-34.64 128 -37.28 128 -40 128 C-40 133.28 -40 138.56 -40 144 C-42.64 144 -45.28 144 -48 144 C-48 149.28 -48 154.56 -48 160 C-50.64 160 -53.28 160 -56 160 C-56 165.28 -56 170.56 -56 176 C-58.64 176 -61.28 176 -64 176 C-64 168.08 -64 160.16 -64 152 C-61.36 152 -58.72 152 -56 152 C-56 146.72 -56 141.44 -56 136 C-53.36 136 -50.72 136 -48 136 C-48 130.72 -48 125.44 -48 120 C-45.36 120 -42.72 120 -40 120 C-40 114.72 -40 109.44 -40 104 C-37.36 104 -34.72 104 -32 104 C-32 98.72 -32 93.44 -32 88 C-29.36 88 -26.72 88 -24 88 C-24 82.72 -24 77.44 -24 72 C-21.36 72 -18.72 72 -16 72 C-16 66.72 -16 61.44 -16 56 C-13.36 56 -10.72 56 -8 56 C-8 50.72 -8 45.44 -8 40 C-5.36 40 -2.72 40 0 40 C0 34.72 0 29.44 0 24 C2.64 24 5.28 24 8 24 C8 18.72 8 13.44 8 8 C5.36 8 2.72 8 0 8 C0 5.36 0 2.72 0 0 Z " fill="#000000" transform="translate(358,138)"/>
<path d="M0 0 C5.28 0 10.56 0 16 0 C16 2.64 16 5.28 16 8 C21.28 8 26.56 8 32 8 C32 15.92 32 23.84 32 32 C26.72 32 21.44 32 16 32 C16 34.64 16 37.28 16 40 C13.36 40 10.72 40 8 40 C8 42.64 8 45.28 8 48 C10.64 48 13.28 48 16 48 C16 53.28 16 58.56 16 64 C10.72 64 5.44 64 0 64 C0 61.36 0 58.72 0 56 C-15.84 56 -31.68 56 -48 56 C-48 53.36 -48 50.72 -48 48 C-42.72 48 -37.44 48 -32 48 C-32 45.36 -32 42.72 -32 40 C-26.72 40 -21.44 40 -16 40 C-16 42.64 -16 45.28 -16 48 C-13.36 48 -10.72 48 -8 48 C-8 45.36 -8 42.72 -8 40 C-5.36 40 -2.72 40 0 40 C0 37.36 0 34.72 0 32 C-2.64 32 -5.28 32 -8 32 C-8 29.36 -8 26.72 -8 24 C-10.64 24 -13.28 24 -16 24 C-16 21.36 -16 18.72 -16 16 C-10.72 16 -5.44 16 0 16 C0 10.72 0 5.44 0 0 Z " fill="#CCECFF" transform="translate(302,130)"/>
<path d="M0 0 C2.64 0 5.28 0 8 0 C8 66 8 132 8 200 C5.36 200 2.72 200 0 200 C0 134 0 68 0 0 Z " fill="#000000" transform="translate(390,154)"/>
<path d="M0 0 C2.64 0 5.28 0 8 0 C8 2.64 8 5.28 8 8 C10.64 8 13.28 8 16 8 C16 13.28 16 18.56 16 24 C13.36 24 10.72 24 8 24 C8 26.64 8 29.28 8 32 C2.72 32 -2.56 32 -8 32 C-8 37.28 -8 42.56 -8 48 C-10.64 48 -13.28 48 -16 48 C-16 50.64 -16 53.28 -16 56 C-18.64 56 -21.28 56 -24 56 C-24 53.36 -24 50.72 -24 48 C-26.64 48 -29.28 48 -32 48 C-32 42.72 -32 37.44 -32 32 C-26.72 32 -21.44 32 -16 32 C-16 29.36 -16 26.72 -16 24 C-23.92 24 -31.84 24 -40 24 C-40 21.36 -40 18.72 -40 16 C-32.08 16 -24.16 16 -16 16 C-16 13.36 -16 10.72 -16 8 C-13.36 8 -10.72 8 -8 8 C-8 13.28 -8 18.56 -8 24 C-5.36 24 -2.72 24 0 24 C0 16.08 0 8.16 0 0 Z " fill="#A6CAF0" transform="translate(318,202)"/>
<path d="M0 0 C2.64 0 5.28 0 8 0 C8 10.56 8 21.12 8 32 C15.92 32 23.84 32 32 32 C32 34.64 32 37.28 32 40 C29.36 40 26.72 40 24 40 C24 45.28 24 50.56 24 56 C21.36 56 18.72 56 16 56 C16 50.72 16 45.44 16 40 C13.36 40 10.72 40 8 40 C8 45.28 8 50.56 8 56 C2.72 56 -2.56 56 -8 56 C-8 53.36 -8 50.72 -8 48 C-10.64 48 -13.28 48 -16 48 C-16 42.72 -16 37.44 -16 32 C-13.36 32 -10.72 32 -8 32 C-8 26.72 -8 21.44 -8 16 C-5.36 16 -2.72 16 0 16 C0 10.72 0 5.44 0 0 Z " fill="#99FFFF" transform="translate(182,210)"/>
<path d="M0 0 C26.4 0 52.8 0 80 0 C80 2.64 80 5.28 80 8 C64.16 8 48.32 8 32 8 C32 10.64 32 13.28 32 16 C29.36 16 26.72 16 24 16 C24 18.64 24 21.28 24 24 C13.44 24 2.88 24 -8 24 C-8 21.36 -8 18.72 -8 16 C-5.36 16 -2.72 16 0 16 C0 10.72 0 5.44 0 0 Z " fill="#66CCCC" transform="translate(302,298)"/>
<path d="M0 0 C44.88 0 89.76 0 136 0 C136 2.64 136 5.28 136 8 C91.12 8 46.24 8 0 8 C0 5.36 0 2.72 0 0 Z " fill="#000000" transform="translate(246,362)"/>
<path d="M0 0 C42.24 0 84.48 0 128 0 C128 2.64 128 5.28 128 8 C85.76 8 43.52 8 0 8 C0 5.36 0 2.72 0 0 Z " fill="#000000" transform="translate(158,322)"/>
<path d="M0 0 C2.64 0 5.28 0 8 0 C8 10.56 8 21.12 8 32 C10.64 32 13.28 32 16 32 C16 34.64 16 37.28 16 40 C13.36 40 10.72 40 8 40 C8 45.28 8 50.56 8 56 C0.08 56 -7.84 56 -16 56 C-16 48.08 -16 40.16 -16 32 C-13.36 32 -10.72 32 -8 32 C-8 26.72 -8 21.44 -8 16 C-5.36 16 -2.72 16 0 16 C0 10.72 0 5.44 0 0 Z " fill="#99FFFF" transform="translate(158,258)"/>
<path d="M0 0 C2.64 0 5.28 0 8 0 C8 5.28 8 10.56 8 16 C5.36 16 2.72 16 0 16 C0 23.92 0 31.84 0 40 C-2.64 40 -5.28 40 -8 40 C-8 45.28 -8 50.56 -8 56 C-10.64 56 -13.28 56 -16 56 C-16 61.28 -16 66.56 -16 72 C-21.28 72 -26.56 72 -32 72 C-32 66.72 -32 61.44 -32 56 C-29.36 56 -26.72 56 -24 56 C-24 50.72 -24 45.44 -24 40 C-21.36 40 -18.72 40 -16 40 C-16 34.72 -16 29.44 -16 24 C-13.36 24 -10.72 24 -8 24 C-8 18.72 -8 13.44 -8 8 C-5.36 8 -2.72 8 0 8 C0 5.36 0 2.72 0 0 Z " fill="#99FFFF" transform="translate(222,138)"/>
<path d="M0 0 C2.64 0 5.28 0 8 0 C8 2.64 8 5.28 8 8 C34.4 8 60.8 8 88 8 C88 10.64 88 13.28 88 16 C61.6 16 35.2 16 8 16 C8 18.64 8 21.28 8 24 C5.36 24 2.72 24 0 24 C0 21.36 0 18.72 0 16 C-2.64 16 -5.28 16 -8 16 C-8 13.36 -8 10.72 -8 8 C-5.36 8 -2.72 8 0 8 C0 5.36 0 2.72 0 0 Z " fill="#CCECFF" transform="translate(214,186)"/>
<path d="M0 0 C15.84 0 31.68 0 48 0 C48 5.28 48 10.56 48 16 C29.52 16 11.04 16 -8 16 C-8 13.36 -8 10.72 -8 8 C-5.36 8 -2.72 8 0 8 C0 5.36 0 2.72 0 0 Z " fill="#F8F8F8" transform="translate(326,330)"/>
<path d="M0 0 C15.84 0 31.68 0 48 0 C48 5.28 48 10.56 48 16 C29.52 16 11.04 16 -8 16 C-8 13.36 -8 10.72 -8 8 C-5.36 8 -2.72 8 0 8 C0 5.36 0 2.72 0 0 Z " fill="#F8F8F8" transform="translate(334,306)"/>
<path d="M0 0 C5.28 0 10.56 0 16 0 C16 2.64 16 5.28 16 8 C18.64 8 21.28 8 24 8 C24 5.36 24 2.72 24 0 C26.64 0 29.28 0 32 0 C32 2.64 32 5.28 32 8 C37.28 8 42.56 8 48 8 C48 13.28 48 18.56 48 24 C42.72 24 37.44 24 32 24 C32 21.36 32 18.72 32 16 C16.16 16 0.32 16 -16 16 C-16 13.36 -16 10.72 -16 8 C-10.72 8 -5.44 8 0 8 C0 5.36 0 2.72 0 0 Z " fill="#CCECFF" transform="translate(270,170)"/>
<path d="M0 0 C2.64 0 5.28 0 8 0 C8 15.84 8 31.68 8 48 C0.08 48 -7.84 48 -16 48 C-16 42.72 -16 37.44 -16 32 C-13.36 32 -10.72 32 -8 32 C-8 26.72 -8 21.44 -8 16 C-5.36 16 -2.72 16 0 16 C0 10.72 0 5.44 0 0 Z " fill="#C0C0C0" transform="translate(374,154)"/>
<path d="M0 0 C13.2 0 26.4 0 40 0 C40 5.28 40 10.56 40 16 C24.16 16 8.32 16 -8 16 C-8 13.36 -8 10.72 -8 8 C-5.36 8 -2.72 8 0 8 C0 5.36 0 2.72 0 0 Z " fill="#F8F8F8" transform="translate(342,282)"/>
<path d="M0 0 C2.64 0 5.28 0 8 0 C8 2.64 8 5.28 8 8 C10.64 8 13.28 8 16 8 C16 13.28 16 18.56 16 24 C18.64 24 21.28 24 24 24 C24 26.64 24 29.28 24 32 C26.64 32 29.28 32 32 32 C32 34.64 32 37.28 32 40 C24.08 40 16.16 40 8 40 C8 37.36 8 34.72 8 32 C5.36 32 2.72 32 0 32 C0 21.44 0 10.88 0 0 Z " fill="#A6CAF0" transform="translate(166,258)"/>
<path d="M0 0 C5.28 0 10.56 0 16 0 C16 2.64 16 5.28 16 8 C18.64 8 21.28 8 24 8 C24 5.36 24 2.72 24 0 C29.28 0 34.56 0 40 0 C40 2.64 40 5.28 40 8 C37.36 8 34.72 8 32 8 C32 10.64 32 13.28 32 16 C34.64 16 37.28 16 40 16 C40 21.28 40 26.56 40 32 C37.36 32 34.72 32 32 32 C32 29.36 32 26.72 32 24 C29.36 24 26.72 24 24 24 C24 21.36 24 18.72 24 16 C18.72 16 13.44 16 8 16 C8 13.36 8 10.72 8 8 C5.36 8 2.72 8 0 8 C0 5.36 0 2.72 0 0 Z " fill="#868686" transform="translate(326,130)"/>
<path d="M0 0 C15.84 0 31.68 0 48 0 C48 2.64 48 5.28 48 8 C45.36 8 42.72 8 40 8 C40 10.64 40 13.28 40 16 C32.08 16 24.16 16 16 16 C16 13.36 16 10.72 16 8 C10.72 8 5.44 8 0 8 C0 5.36 0 2.72 0 0 Z " fill="#D7D7D7" transform="translate(278,330)"/>
<path d="M0 0 C10.56 0 21.12 0 32 0 C32 5.28 32 10.56 32 16 C18.8 16 5.6 16 -8 16 C-8 13.36 -8 10.72 -8 8 C-5.36 8 -2.72 8 0 8 C0 5.36 0 2.72 0 0 Z " fill="#F8F8F8" transform="translate(350,258)"/>
<path d="M0 0 C23.76 0 47.52 0 72 0 C72 2.64 72 5.28 72 8 C48.24 8 24.48 8 0 8 C0 5.36 0 2.72 0 0 Z " fill="#000000" transform="translate(222,202)"/>
<path d="M0 0 C23.76 0 47.52 0 72 0 C72 2.64 72 5.28 72 8 C48.24 8 24.48 8 0 8 C0 5.36 0 2.72 0 0 Z " fill="#000000" transform="translate(230,186)"/>
<path d="M0 0 C10.56 0 21.12 0 32 0 C32 2.64 32 5.28 32 8 C29.36 8 26.72 8 24 8 C24 10.64 24 13.28 24 16 C13.44 16 2.88 16 -8 16 C-8 13.36 -8 10.72 -8 8 C-5.36 8 -2.72 8 0 8 C0 5.36 0 2.72 0 0 Z " fill="#C0C0C0" transform="translate(302,306)"/>
<path d="M0 0 C2.64 0 5.28 0 8 0 C8 2.64 8 5.28 8 8 C13.28 8 18.56 8 24 8 C24 10.64 24 13.28 24 16 C26.64 16 29.28 16 32 16 C32 18.64 32 21.28 32 24 C29.36 24 26.72 24 24 24 C24 26.64 24 29.28 24 32 C21.36 32 18.72 32 16 32 C16 29.36 16 26.72 16 24 C13.36 24 10.72 24 8 24 C8 21.36 8 18.72 8 16 C5.36 16 2.72 16 0 16 C0 10.72 0 5.44 0 0 Z " fill="#99CCCC" transform="translate(230,242)"/>
<path d="M0 0 C10.56 0 21.12 0 32 0 C32 2.64 32 5.28 32 8 C26.72 8 21.44 8 16 8 C16 13.28 16 18.56 16 24 C13.36 24 10.72 24 8 24 C8 26.64 8 29.28 8 32 C5.36 32 2.72 32 0 32 C0 26.72 0 21.44 0 16 C2.64 16 5.28 16 8 16 C8 13.36 8 10.72 8 8 C5.36 8 2.72 8 0 8 C0 5.36 0 2.72 0 0 Z " fill="#A6CAF0" transform="translate(270,226)"/>
<path d="M0 0 C5.28 0 10.56 0 16 0 C16 10.56 16 21.12 16 32 C13.36 32 10.72 32 8 32 C8 26.72 8 21.44 8 16 C5.36 16 2.72 16 0 16 C0 18.64 0 21.28 0 24 C-2.64 24 -5.28 24 -8 24 C-8 18.72 -8 13.44 -8 8 C-5.36 8 -2.72 8 0 8 C0 5.36 0 2.72 0 0 Z " fill="#99FFFF" transform="translate(302,194)"/>
<path d="M0 0 C2.64 0 5.28 0 8 0 C8 5.28 8 10.56 8 16 C5.36 16 2.72 16 0 16 C0 23.92 0 31.84 0 40 C-5.28 40 -10.56 40 -16 40 C-16 34.72 -16 29.44 -16 24 C-13.36 24 -10.72 24 -8 24 C-8 18.72 -8 13.44 -8 8 C-5.36 8 -2.72 8 0 8 C0 5.36 0 2.72 0 0 Z " fill="#99FFFF" transform="translate(222,138)"/>
<path d="M0 0 C18.48 0 36.96 0 56 0 C56 2.64 56 5.28 56 8 C37.52 8 19.04 8 0 8 C0 5.36 0 2.72 0 0 Z " fill="#66CCCC" transform="translate(326,322)"/>
<path d="M0 0 C5.28 0 10.56 0 16 0 C16 5.28 16 10.56 16 16 C18.64 16 21.28 16 24 16 C24 18.64 24 21.28 24 24 C16.08 24 8.16 24 0 24 C0 16.08 0 8.16 0 0 Z " fill="#99CCCC" transform="translate(142,290)"/>
<path d="M0 0 C10.56 0 21.12 0 32 0 C32 2.64 32 5.28 32 8 C29.36 8 26.72 8 24 8 C24 10.64 24 13.28 24 16 C16.08 16 8.16 16 0 16 C0 10.72 0 5.44 0 0 Z " fill="#C0C0C0" transform="translate(310,282)"/>
<path d="M0 0 C18.48 0 36.96 0 56 0 C56 2.64 56 5.28 56 8 C37.52 8 19.04 8 0 8 C0 5.36 0 2.72 0 0 Z " fill="#66CCCC" transform="translate(326,250)"/>
<path d="M0 0 C7.92 0 15.84 0 24 0 C24 2.64 24 5.28 24 8 C21.36 8 18.72 8 16 8 C16 10.64 16 13.28 16 16 C8.08 16 0.16 16 -8 16 C-8 13.36 -8 10.72 -8 8 C-5.36 8 -2.72 8 0 8 C0 5.36 0 2.72 0 0 Z " fill="#C0C0C0" transform="translate(326,258)"/>
<path d="M0 0 C5.28 0 10.56 0 16 0 C16 2.64 16 5.28 16 8 C18.64 8 21.28 8 24 8 C24 10.64 24 13.28 24 16 C21.36 16 18.72 16 16 16 C16 18.64 16 21.28 16 24 C13.36 24 10.72 24 8 24 C8 21.36 8 18.72 8 16 C5.36 16 2.72 16 0 16 C0 10.72 0 5.44 0 0 Z " fill="#A6CAF0" transform="translate(286,234)"/>
<path d="M0 0 C7.92 0 15.84 0 24 0 C24 5.28 24 10.56 24 16 C16.08 16 8.16 16 0 16 C0 10.72 0 5.44 0 0 Z " fill="#F8F8F8" transform="translate(358,234)"/>
<path d="M0 0 C7.92 0 15.84 0 24 0 C24 5.28 24 10.56 24 16 C16.08 16 8.16 16 0 16 C0 10.72 0 5.44 0 0 Z " fill="#C0C0C0" transform="translate(334,234)"/>
<path d="M0 0 C2.64 0 5.28 0 8 0 C8 2.64 8 5.28 8 8 C10.64 8 13.28 8 16 8 C16 18.56 16 29.12 16 40 C13.36 40 10.72 40 8 40 C8 32.08 8 24.16 8 16 C5.36 16 2.72 16 0 16 C0 10.72 0 5.44 0 0 Z " fill="#CCECFF" transform="translate(214,218)"/>
<path d="M0 0 C2.64 0 5.28 0 8 0 C8 2.64 8 5.28 8 8 C13.28 8 18.56 8 24 8 C24 10.64 24 13.28 24 16 C18.72 16 13.44 16 8 16 C8 18.64 8 21.28 8 24 C5.36 24 2.72 24 0 24 C0 21.36 0 18.72 0 16 C-2.64 16 -5.28 16 -8 16 C-8 13.36 -8 10.72 -8 8 C-5.36 8 -2.72 8 0 8 C0 5.36 0 2.72 0 0 Z " fill="#CCECFF" transform="translate(214,186)"/>
<path d="M0 0 C2.64 0 5.28 0 8 0 C8 5.28 8 10.56 8 16 C5.36 16 2.72 16 0 16 C0 21.28 0 26.56 0 32 C-2.64 32 -5.28 32 -8 32 C-8 26.72 -8 21.44 -8 16 C-10.64 16 -13.28 16 -16 16 C-16 13.36 -16 10.72 -16 8 C-10.72 8 -5.44 8 0 8 C0 5.36 0 2.72 0 0 Z " fill="#A6CAF0" transform="translate(342,178)"/>
<path d="M0 0 C7.92 0 15.84 0 24 0 C24 2.64 24 5.28 24 8 C26.64 8 29.28 8 32 8 C32 10.64 32 13.28 32 16 C24.08 16 16.16 16 8 16 C8 13.36 8 10.72 8 8 C5.36 8 2.72 8 0 8 C0 5.36 0 2.72 0 0 Z " fill="#868686" transform="translate(358,138)"/>
<path d="M0 0 C13.2 0 26.4 0 40 0 C40 2.64 40 5.28 40 8 C26.8 8 13.6 8 0 8 C0 5.36 0 2.72 0 0 Z " fill="#339999" transform="translate(286,322)"/>
<path d="M0 0 C7.92 0 15.84 0 24 0 C24 2.64 24 5.28 24 8 C21.36 8 18.72 8 16 8 C16 10.64 16 13.28 16 16 C10.72 16 5.44 16 0 16 C0 10.72 0 5.44 0 0 Z " fill="#66CCCC" transform="translate(166,298)"/>
<path d="M0 0 C2.64 0 5.28 0 8 0 C8 5.28 8 10.56 8 16 C5.36 16 2.72 16 0 16 C0 21.28 0 26.56 0 32 C-2.64 32 -5.28 32 -8 32 C-8 24.08 -8 16.16 -8 8 C-5.36 8 -2.72 8 0 8 C0 5.36 0 2.72 0 0 Z " fill="#000000" transform="translate(302,282)"/>
<path d="M0 0 C5.28 0 10.56 0 16 0 C16 2.64 16 5.28 16 8 C13.36 8 10.72 8 8 8 C8 13.28 8 18.56 8 24 C2.72 24 -2.56 24 -8 24 C-8 21.36 -8 18.72 -8 16 C-5.36 16 -2.72 16 0 16 C0 10.72 0 5.44 0 0 Z " fill="#99CCCC" transform="translate(310,234)"/>
<path d="M0 0 C13.2 0 26.4 0 40 0 C40 2.64 40 5.28 40 8 C26.8 8 13.6 8 0 8 C0 5.36 0 2.72 0 0 Z " fill="#66CCCC" transform="translate(342,226)"/>
<path d="M0 0 C5.28 0 10.56 0 16 0 C16 5.28 16 10.56 16 16 C8.08 16 0.16 16 -8 16 C-8 13.36 -8 10.72 -8 8 C-5.36 8 -2.72 8 0 8 C0 5.36 0 2.72 0 0 Z " fill="#F8F8F8" transform="translate(366,210)"/>
<path d="M0 0 C2.64 0 5.28 0 8 0 C8 2.64 8 5.28 8 8 C10.64 8 13.28 8 16 8 C16 13.28 16 18.56 16 24 C10.72 24 5.44 24 0 24 C0 16.08 0 8.16 0 0 Z " fill="#A6CAF0" transform="translate(318,202)"/>
<path d="M0 0 C2.64 0 5.28 0 8 0 C8 2.64 8 5.28 8 8 C10.64 8 13.28 8 16 8 C16 10.64 16 13.28 16 16 C8.08 16 0.16 16 -8 16 C-8 13.36 -8 10.72 -8 8 C-5.36 8 -2.72 8 0 8 C0 5.36 0 2.72 0 0 Z " fill="#66CCCC" transform="translate(278,298)"/>
<path d="M0 0 C10.56 0 21.12 0 32 0 C32 2.64 32 5.28 32 8 C21.44 8 10.88 8 0 8 C0 5.36 0 2.72 0 0 Z " fill="#339999" transform="translate(302,298)"/>
<path d="M0 0 C2.64 0 5.28 0 8 0 C8 2.64 8 5.28 8 8 C10.64 8 13.28 8 16 8 C16 13.28 16 18.56 16 24 C13.36 24 10.72 24 8 24 C8 21.36 8 18.72 8 16 C5.36 16 2.72 16 0 16 C0 10.72 0 5.44 0 0 Z " fill="#99FFFF" transform="translate(166,258)"/>
<path d="M0 0 C5.28 0 10.56 0 16 0 C16 5.28 16 10.56 16 16 C10.72 16 5.44 16 0 16 C0 10.72 0 5.44 0 0 Z " fill="#99CCCC" transform="translate(254,242)"/>
<path d="M0 0 C10.56 0 21.12 0 32 0 C32 2.64 32 5.28 32 8 C21.44 8 10.88 8 0 8 C0 5.36 0 2.72 0 0 Z " fill="#66CCCC" transform="translate(350,202)"/>
<path d="M0 0 C2.64 0 5.28 0 8 0 C8 7.92 8 15.84 8 24 C2.72 24 -2.56 24 -8 24 C-8 21.36 -8 18.72 -8 16 C-5.36 16 -2.72 16 0 16 C0 10.72 0 5.44 0 0 Z " fill="#E0E0E0" transform="translate(374,178)"/>
<path d="M0 0 C2.64 0 5.28 0 8 0 C8 5.28 8 10.56 8 16 C5.36 16 2.72 16 0 16 C0 18.64 0 21.28 0 24 C-2.64 24 -5.28 24 -8 24 C-8 18.72 -8 13.44 -8 8 C-5.36 8 -2.72 8 0 8 C0 5.36 0 2.72 0 0 Z " fill="#66FFFF" transform="translate(222,138)"/>
<path d="M0 0 C5.28 0 10.56 0 16 0 C16 2.64 16 5.28 16 8 C18.64 8 21.28 8 24 8 C24 10.64 24 13.28 24 16 C18.72 16 13.44 16 8 16 C8 13.36 8 10.72 8 8 C5.36 8 2.72 8 0 8 C0 5.36 0 2.72 0 0 Z " fill="#008080" transform="translate(326,130)"/>
<path d="M0 0 C5.28 0 10.56 0 16 0 C16 2.64 16 5.28 16 8 C18.64 8 21.28 8 24 8 C24 10.64 24 13.28 24 16 C18.72 16 13.44 16 8 16 C8 13.36 8 10.72 8 8 C5.36 8 2.72 8 0 8 C0 5.36 0 2.72 0 0 Z " fill="#008080" transform="translate(302,130)"/>
<path d="M0 0 C5.28 0 10.56 0 16 0 C16 2.64 16 5.28 16 8 C18.64 8 21.28 8 24 8 C24 10.64 24 13.28 24 16 C18.72 16 13.44 16 8 16 C8 13.36 8 10.72 8 8 C5.36 8 2.72 8 0 8 C0 5.36 0 2.72 0 0 Z " fill="#008080" transform="translate(278,130)"/>
<path d="M0 0 C5.28 0 10.56 0 16 0 C16 2.64 16 5.28 16 8 C18.64 8 21.28 8 24 8 C24 10.64 24 13.28 24 16 C18.72 16 13.44 16 8 16 C8 13.36 8 10.72 8 8 C5.36 8 2.72 8 0 8 C0 5.36 0 2.72 0 0 Z " fill="#008080" transform="translate(254,130)"/>
<path d="M0 0 C5.28 0 10.56 0 16 0 C16 2.64 16 5.28 16 8 C18.64 8 21.28 8 24 8 C24 10.64 24 13.28 24 16 C18.72 16 13.44 16 8 16 C8 13.36 8 10.72 8 8 C5.36 8 2.72 8 0 8 C0 5.36 0 2.72 0 0 Z " fill="#008080" transform="translate(230,130)"/>
<path d="M0 0 C2.64 0 5.28 0 8 0 C8 5.28 8 10.56 8 16 C2.72 16 -2.56 16 -8 16 C-8 13.36 -8 10.72 -8 8 C-5.36 8 -2.72 8 0 8 C0 5.36 0 2.72 0 0 Z " fill="#66CCCC" transform="translate(262,298)"/>
<path d="M0 0 C7.92 0 15.84 0 24 0 C24 2.64 24 5.28 24 8 C16.08 8 8.16 8 0 8 C0 5.36 0 2.72 0 0 Z " fill="#99CCCC" transform="translate(174,290)"/>
<path d="M0 0 C2.64 0 5.28 0 8 0 C8 7.92 8 15.84 8 24 C5.36 24 2.72 24 0 24 C0 16.08 0 8.16 0 0 Z " fill="#008080" transform="translate(142,290)"/>
<path d="M0 0 C7.92 0 15.84 0 24 0 C24 2.64 24 5.28 24 8 C16.08 8 8.16 8 0 8 C0 5.36 0 2.72 0 0 Z " fill="#339999" transform="translate(318,274)"/>
<path d="M0 0 C7.92 0 15.84 0 24 0 C24 2.64 24 5.28 24 8 C16.08 8 8.16 8 0 8 C0 5.36 0 2.72 0 0 Z " fill="#99CCCC" transform="translate(222,266)"/>
<path d="M0 0 C5.28 0 10.56 0 16 0 C16 5.28 16 10.56 16 16 C13.36 16 10.72 16 8 16 C8 13.36 8 10.72 8 8 C5.36 8 2.72 8 0 8 C0 5.36 0 2.72 0 0 Z " fill="#66CCCC" transform="translate(262,258)"/>
<path d="M0 0 C7.92 0 15.84 0 24 0 C24 2.64 24 5.28 24 8 C16.08 8 8.16 8 0 8 C0 5.36 0 2.72 0 0 Z " fill="#339999" transform="translate(326,250)"/>
<path d="M0 0 C5.28 0 10.56 0 16 0 C16 2.64 16 5.28 16 8 C13.36 8 10.72 8 8 8 C8 10.64 8 13.28 8 16 C5.36 16 2.72 16 0 16 C0 10.72 0 5.44 0 0 Z " fill="#A6CAF0" transform="translate(270,242)"/>
<path d="M0 0 C5.28 0 10.56 0 16 0 C16 2.64 16 5.28 16 8 C13.36 8 10.72 8 8 8 C8 10.64 8 13.28 8 16 C5.36 16 2.72 16 0 16 C0 10.72 0 5.44 0 0 Z " fill="#99CCCC" transform="translate(286,234)"/>
<path d="M0 0 C7.92 0 15.84 0 24 0 C24 2.64 24 5.28 24 8 C16.08 8 8.16 8 0 8 C0 5.36 0 2.72 0 0 Z " fill="#A6CAF0" transform="translate(278,218)"/>
<path d="M0 0 C5.28 0 10.56 0 16 0 C16 5.28 16 10.56 16 16 C13.36 16 10.72 16 8 16 C8 13.36 8 10.72 8 8 C5.36 8 2.72 8 0 8 C0 5.36 0 2.72 0 0 Z " fill="#CCECFF" transform="translate(318,194)"/>
<path d="M0 0 C7.92 0 15.84 0 24 0 C24 2.64 24 5.28 24 8 C16.08 8 8.16 8 0 8 C0 5.36 0 2.72 0 0 Z " fill="#CCFFFF" transform="translate(334,170)"/>
<path d="M0 0 C5.28 0 10.56 0 16 0 C16 5.28 16 10.56 16 16 C13.36 16 10.72 16 8 16 C8 13.36 8 10.72 8 8 C5.36 8 2.72 8 0 8 C0 5.36 0 2.72 0 0 Z " fill="#99FFFF" transform="translate(286,146)"/>
<path d="M0 0 C2.64 0 5.28 0 8 0 C8 5.28 8 10.56 8 16 C5.36 16 2.72 16 0 16 C0 10.72 0 5.44 0 0 Z " fill="#E3E3E3" transform="translate(374,330)"/>
<path d="M0 0 C5.28 0 10.56 0 16 0 C16 2.64 16 5.28 16 8 C10.72 8 5.44 8 0 8 C0 5.36 0 2.72 0 0 Z " fill="#CCCCCC" transform="translate(278,330)"/>
<path d="M0 0 C2.64 0 5.28 0 8 0 C8 5.28 8 10.56 8 16 C5.36 16 2.72 16 0 16 C0 10.72 0 5.44 0 0 Z " fill="#868686" transform="translate(222,330)"/>
<path d="M0 0 C2.64 0 5.28 0 8 0 C8 5.28 8 10.56 8 16 C5.36 16 2.72 16 0 16 C0 10.72 0 5.44 0 0 Z " fill="#E3E3E3" transform="translate(374,306)"/>
<path d="M0 0 C2.64 0 5.28 0 8 0 C8 5.28 8 10.56 8 16 C5.36 16 2.72 16 0 16 C0 10.72 0 5.44 0 0 Z " fill="#000000" transform="translate(294,298)"/>
<path d="M0 0 C2.64 0 5.28 0 8 0 C8 5.28 8 10.56 8 16 C5.36 16 2.72 16 0 16 C0 10.72 0 5.44 0 0 Z " fill="#99FFFF" transform="translate(150,290)"/>
<path d="M0 0 C2.64 0 5.28 0 8 0 C8 5.28 8 10.56 8 16 C5.36 16 2.72 16 0 16 C0 10.72 0 5.44 0 0 Z " fill="#E3E3E3" transform="translate(374,282)"/>
<path d="M0 0 C5.28 0 10.56 0 16 0 C16 2.64 16 5.28 16 8 C10.72 8 5.44 8 0 8 C0 5.36 0 2.72 0 0 Z " fill="#99CCCC" transform="translate(206,282)"/>
<path d="M0 0 C5.28 0 10.56 0 16 0 C16 2.64 16 5.28 16 8 C10.72 8 5.44 8 0 8 C0 5.36 0 2.72 0 0 Z " fill="#66CCFF" transform="translate(190,282)"/>
<path d="M0 0 C2.64 0 5.28 0 8 0 C8 5.28 8 10.56 8 16 C5.36 16 2.72 16 0 16 C0 10.72 0 5.44 0 0 Z " fill="#008080" transform="translate(150,274)"/>
<path d="M0 0 C2.64 0 5.28 0 8 0 C8 5.28 8 10.56 8 16 C5.36 16 2.72 16 0 16 C0 10.72 0 5.44 0 0 Z " fill="#66CCFF" transform="translate(278,258)"/>
<path d="M0 0 C2.64 0 5.28 0 8 0 C8 5.28 8 10.56 8 16 C5.36 16 2.72 16 0 16 C0 10.72 0 5.44 0 0 Z " fill="#E3E3E3" transform="translate(374,258)"/>
<path d="M0 0 C5.28 0 10.56 0 16 0 C16 2.64 16 5.28 16 8 C10.72 8 5.44 8 0 8 C0 5.36 0 2.72 0 0 Z " fill="#66CCFF" transform="translate(294,258)"/>
<path d="M0 0 C2.64 0 5.28 0 8 0 C8 5.28 8 10.56 8 16 C5.36 16 2.72 16 0 16 C0 10.72 0 5.44 0 0 Z " fill="#008080" transform="translate(158,258)"/>
<path d="M0 0 C5.28 0 10.56 0 16 0 C16 2.64 16 5.28 16 8 C10.72 8 5.44 8 0 8 C0 5.36 0 2.72 0 0 Z " fill="#66CCCC" transform="translate(302,250)"/>
<path d="M0 0 C5.28 0 10.56 0 16 0 C16 2.64 16 5.28 16 8 C10.72 8 5.44 8 0 8 C0 5.36 0 2.72 0 0 Z " fill="#66FFFF" transform="translate(278,250)"/>
<path d="M0 0 C2.64 0 5.28 0 8 0 C8 5.28 8 10.56 8 16 C5.36 16 2.72 16 0 16 C0 10.72 0 5.44 0 0 Z " fill="#99FFFF" transform="translate(222,242)"/>
<path d="M0 0 C2.64 0 5.28 0 8 0 C8 5.28 8 10.56 8 16 C5.36 16 2.72 16 0 16 C0 10.72 0 5.44 0 0 Z " fill="#A6CAF0" transform="translate(190,250)"/>
<path d="M0 0 C5.28 0 10.56 0 16 0 C16 2.64 16 5.28 16 8 C10.72 8 5.44 8 0 8 C0 5.36 0 2.72 0 0 Z " fill="#99FFFF" transform="translate(238,242)"/>
<path d="M0 0 C2.64 0 5.28 0 8 0 C8 5.28 8 10.56 8 16 C5.36 16 2.72 16 0 16 C0 10.72 0 5.44 0 0 Z " fill="#008080" transform="translate(166,242)"/>
<path d="M0 0 C2.64 0 5.28 0 8 0 C8 5.28 8 10.56 8 16 C5.36 16 2.72 16 0 16 C0 10.72 0 5.44 0 0 Z " fill="#E3E3E3" transform="translate(374,234)"/>
<path d="M0 0 C5.28 0 10.56 0 16 0 C16 2.64 16 5.28 16 8 C10.72 8 5.44 8 0 8 C0 5.36 0 2.72 0 0 Z " fill="#99CCCC" transform="translate(262,234)"/>
<path d="M0 0 C5.28 0 10.56 0 16 0 C16 2.64 16 5.28 16 8 C10.72 8 5.44 8 0 8 C0 5.36 0 2.72 0 0 Z " fill="#99CCCC" transform="translate(238,234)"/>
<path d="M0 0 C5.28 0 10.56 0 16 0 C16 2.64 16 5.28 16 8 C10.72 8 5.44 8 0 8 C0 5.36 0 2.72 0 0 Z " fill="#339999" transform="translate(342,226)"/>
<path d="M0 0 C5.28 0 10.56 0 16 0 C16 2.64 16 5.28 16 8 C10.72 8 5.44 8 0 8 C0 5.36 0 2.72 0 0 Z " fill="#99FFFF" transform="translate(286,226)"/>
<path d="M0 0 C2.64 0 5.28 0 8 0 C8 5.28 8 10.56 8 16 C5.36 16 2.72 16 0 16 C0 10.72 0 5.44 0 0 Z " fill="#008080" transform="translate(174,226)"/>
<path d="M0 0 C2.64 0 5.28 0 8 0 C8 5.28 8 10.56 8 16 C5.36 16 2.72 16 0 16 C0 10.72 0 5.44 0 0 Z " fill="#99FFFF" transform="translate(310,210)"/>
<path d="M0 0 C2.64 0 5.28 0 8 0 C8 5.28 8 10.56 8 16 C5.36 16 2.72 16 0 16 C0 10.72 0 5.44 0 0 Z " fill="#E3E3E3" transform="translate(374,210)"/>
<path d="M0 0 C2.64 0 5.28 0 8 0 C8 5.28 8 10.56 8 16 C5.36 16 2.72 16 0 16 C0 10.72 0 5.44 0 0 Z " fill="#99FFFF" transform="translate(190,210)"/>
<path d="M0 0 C2.64 0 5.28 0 8 0 C8 5.28 8 10.56 8 16 C5.36 16 2.72 16 0 16 C0 10.72 0 5.44 0 0 Z " fill="#008080" transform="translate(182,210)"/>
<path d="M0 0 C5.28 0 10.56 0 16 0 C16 2.64 16 5.28 16 8 C10.72 8 5.44 8 0 8 C0 5.36 0 2.72 0 0 Z " fill="#339999" transform="translate(350,202)"/>
<path d="M0 0 C5.28 0 10.56 0 16 0 C16 2.64 16 5.28 16 8 C10.72 8 5.44 8 0 8 C0 5.36 0 2.72 0 0 Z " fill="#A6CAF0" transform="translate(302,194)"/>
<path d="M0 0 C2.64 0 5.28 0 8 0 C8 5.28 8 10.56 8 16 C5.36 16 2.72 16 0 16 C0 10.72 0 5.44 0 0 Z " fill="#008080" transform="translate(190,194)"/>
<path d="M0 0 C2.64 0 5.28 0 8 0 C8 5.28 8 10.56 8 16 C5.36 16 2.72 16 0 16 C0 10.72 0 5.44 0 0 Z " fill="#66CCCC" transform="translate(342,178)"/>
<path d="M0 0 C5.28 0 10.56 0 16 0 C16 2.64 16 5.28 16 8 C10.72 8 5.44 8 0 8 C0 5.36 0 2.72 0 0 Z " fill="#CCECFF" transform="translate(254,178)"/>
<path d="M0 0 C2.64 0 5.28 0 8 0 C8 5.28 8 10.56 8 16 C5.36 16 2.72 16 0 16 C0 10.72 0 5.44 0 0 Z " fill="#008080" transform="translate(198,178)"/>
<path d="M0 0 C2.64 0 5.28 0 8 0 C8 5.28 8 10.56 8 16 C5.36 16 2.72 16 0 16 C0 10.72 0 5.44 0 0 Z " fill="#008080" transform="translate(206,162)"/>
<path d="M0 0 C2.64 0 5.28 0 8 0 C8 5.28 8 10.56 8 16 C5.36 16 2.72 16 0 16 C0 10.72 0 5.44 0 0 Z " fill="#66CCCC" transform="translate(358,146)"/>
<path d="M0 0 C5.28 0 10.56 0 16 0 C16 2.64 16 5.28 16 8 C10.72 8 5.44 8 0 8 C0 5.36 0 2.72 0 0 Z " fill="#000000" transform="translate(374,146)"/>
<path d="M0 0 C5.28 0 10.56 0 16 0 C16 2.64 16 5.28 16 8 C10.72 8 5.44 8 0 8 C0 5.36 0 2.72 0 0 Z " fill="#99FFFF" transform="translate(334,146)"/>
<path d="M0 0 C2.64 0 5.28 0 8 0 C8 5.28 8 10.56 8 16 C5.36 16 2.72 16 0 16 C0 10.72 0 5.44 0 0 Z " fill="#99CCCC" transform="translate(326,138)"/>
<path d="M0 0 C5.28 0 10.56 0 16 0 C16 2.64 16 5.28 16 8 C10.72 8 5.44 8 0 8 C0 5.36 0 2.72 0 0 Z " fill="#99FFFF" transform="translate(310,146)"/>
<path d="M0 0 C2.64 0 5.28 0 8 0 C8 5.28 8 10.56 8 16 C5.36 16 2.72 16 0 16 C0 10.72 0 5.44 0 0 Z " fill="#99CCCC" transform="translate(302,138)"/>
<path d="M0 0 C2.64 0 5.28 0 8 0 C8 5.28 8 10.56 8 16 C5.36 16 2.72 16 0 16 C0 10.72 0 5.44 0 0 Z " fill="#99CCCC" transform="translate(278,138)"/>
<path d="M0 0 C5.28 0 10.56 0 16 0 C16 2.64 16 5.28 16 8 C10.72 8 5.44 8 0 8 C0 5.36 0 2.72 0 0 Z " fill="#99FFFF" transform="translate(262,146)"/>
<path d="M0 0 C2.64 0 5.28 0 8 0 C8 5.28 8 10.56 8 16 C5.36 16 2.72 16 0 16 C0 10.72 0 5.44 0 0 Z " fill="#99CCCC" transform="translate(254,138)"/>
<path d="M0 0 C5.28 0 10.56 0 16 0 C16 2.64 16 5.28 16 8 C10.72 8 5.44 8 0 8 C0 5.36 0 2.72 0 0 Z " fill="#99FFFF" transform="translate(238,146)"/>
<path d="M0 0 C2.64 0 5.28 0 8 0 C8 5.28 8 10.56 8 16 C5.36 16 2.72 16 0 16 C0 10.72 0 5.44 0 0 Z " fill="#99CCCC" transform="translate(230,138)"/>
<path d="M0 0 C2.64 0 5.28 0 8 0 C8 5.28 8 10.56 8 16 C5.36 16 2.72 16 0 16 C0 10.72 0 5.44 0 0 Z " fill="#008080" transform="translate(214,146)"/>
<path d="M0 0 C5.28 0 10.56 0 16 0 C16 2.64 16 5.28 16 8 C10.72 8 5.44 8 0 8 C0 5.36 0 2.72 0 0 Z " fill="#868686" transform="translate(326,130)"/>
<path d="M0 0 C5.28 0 10.56 0 16 0 C16 2.64 16 5.28 16 8 C10.72 8 5.44 8 0 8 C0 5.36 0 2.72 0 0 Z " fill="#868686" transform="translate(302,130)"/>
<path d="M0 0 C5.28 0 10.56 0 16 0 C16 2.64 16 5.28 16 8 C10.72 8 5.44 8 0 8 C0 5.36 0 2.72 0 0 Z " fill="#868686" transform="translate(278,130)"/>
<path d="M0 0 C5.28 0 10.56 0 16 0 C16 2.64 16 5.28 16 8 C10.72 8 5.44 8 0 8 C0 5.36 0 2.72 0 0 Z " fill="#868686" transform="translate(254,130)"/>
<path d="M0 0 C5.28 0 10.56 0 16 0 C16 2.64 16 5.28 16 8 C10.72 8 5.44 8 0 8 C0 5.36 0 2.72 0 0 Z " fill="#868686" transform="translate(230,130)"/>
<path d="M0 0 C2.64 0 5.28 0 8 0 C8 2.64 8 5.28 8 8 C5.36 8 2.72 8 0 8 C0 5.36 0 2.72 0 0 Z " fill="#000000" transform="translate(382,354)"/>
<path d="M0 0 C2.64 0 5.28 0 8 0 C8 2.64 8 5.28 8 8 C5.36 8 2.72 8 0 8 C0 5.36 0 2.72 0 0 Z " fill="#C0C0C0" transform="translate(374,346)"/>
<path d="M0 0 C2.64 0 5.28 0 8 0 C8 2.64 8 5.28 8 8 C5.36 8 2.72 8 0 8 C0 5.36 0 2.72 0 0 Z " fill="#868686" transform="translate(230,346)"/>
<path d="M0 0 C2.64 0 5.28 0 8 0 C8 2.64 8 5.28 8 8 C5.36 8 2.72 8 0 8 C0 5.36 0 2.72 0 0 Z " fill="#D7D7D7" transform="translate(278,338)"/>
<path d="M0 0 C2.64 0 5.28 0 8 0 C8 2.64 8 5.28 8 8 C5.36 8 2.72 8 0 8 C0 5.36 0 2.72 0 0 Z " fill="#CCCCCC" transform="translate(318,330)"/>
<path d="M0 0 C2.64 0 5.28 0 8 0 C8 2.64 8 5.28 8 8 C5.36 8 2.72 8 0 8 C0 5.36 0 2.72 0 0 Z " fill="#CCCCCC" transform="translate(302,330)"/>
<path d="M0 0 C2.64 0 5.28 0 8 0 C8 2.64 8 5.28 8 8 C5.36 8 2.72 8 0 8 C0 5.36 0 2.72 0 0 Z " fill="#DDDDDD" transform="translate(326,314)"/>
<path d="M0 0 C2.64 0 5.28 0 8 0 C8 2.64 8 5.28 8 8 C5.36 8 2.72 8 0 8 C0 5.36 0 2.72 0 0 Z " fill="#000000" transform="translate(286,314)"/>
<path d="M0 0 C2.64 0 5.28 0 8 0 C8 2.64 8 5.28 8 8 C5.36 8 2.72 8 0 8 C0 5.36 0 2.72 0 0 Z " fill="#CCCCCC" transform="translate(310,306)"/>
<path d="M0 0 C2.64 0 5.28 0 8 0 C8 2.64 8 5.28 8 8 C5.36 8 2.72 8 0 8 C0 5.36 0 2.72 0 0 Z " fill="#008080" transform="translate(286,306)"/>
<path d="M0 0 C2.64 0 5.28 0 8 0 C8 2.64 8 5.28 8 8 C5.36 8 2.72 8 0 8 C0 5.36 0 2.72 0 0 Z " fill="#33CCCC" transform="translate(270,306)"/>
<path d="M0 0 C2.64 0 5.28 0 8 0 C8 2.64 8 5.28 8 8 C5.36 8 2.72 8 0 8 C0 5.36 0 2.72 0 0 Z " fill="#33CCFF" transform="translate(254,306)"/>
<path d="M0 0 C2.64 0 5.28 0 8 0 C8 2.64 8 5.28 8 8 C5.36 8 2.72 8 0 8 C0 5.36 0 2.72 0 0 Z " fill="#66CCFF" transform="translate(238,306)"/>
<path d="M0 0 C2.64 0 5.28 0 8 0 C8 2.64 8 5.28 8 8 C5.36 8 2.72 8 0 8 C0 5.36 0 2.72 0 0 Z " fill="#66CCFF" transform="translate(206,306)"/>
<path d="M0 0 C2.64 0 5.28 0 8 0 C8 2.64 8 5.28 8 8 C5.36 8 2.72 8 0 8 C0 5.36 0 2.72 0 0 Z " fill="#66CCFF" transform="translate(182,306)"/>
<path d="M0 0 C2.64 0 5.28 0 8 0 C8 2.64 8 5.28 8 8 C5.36 8 2.72 8 0 8 C0 5.36 0 2.72 0 0 Z " fill="#33CCCC" transform="translate(278,298)"/>
<path d="M0 0 C2.64 0 5.28 0 8 0 C8 2.64 8 5.28 8 8 C5.36 8 2.72 8 0 8 C0 5.36 0 2.72 0 0 Z " fill="#66CCFF" transform="translate(270,298)"/>
<path d="M0 0 C2.64 0 5.28 0 8 0 C8 2.64 8 5.28 8 8 C5.36 8 2.72 8 0 8 C0 5.36 0 2.72 0 0 Z " fill="#33CCCC" transform="translate(262,298)"/>
<path d="M0 0 C2.64 0 5.28 0 8 0 C8 2.64 8 5.28 8 8 C5.36 8 2.72 8 0 8 C0 5.36 0 2.72 0 0 Z " fill="#66CCFF" transform="translate(214,298)"/>
<path d="M0 0 C2.64 0 5.28 0 8 0 C8 2.64 8 5.28 8 8 C5.36 8 2.72 8 0 8 C0 5.36 0 2.72 0 0 Z " fill="#66CCFF" transform="translate(190,298)"/>
<path d="M0 0 C2.64 0 5.28 0 8 0 C8 2.64 8 5.28 8 8 C5.36 8 2.72 8 0 8 C0 5.36 0 2.72 0 0 Z " fill="#66FFCC" transform="translate(182,298)"/>
<path d="M0 0 C2.64 0 5.28 0 8 0 C8 2.64 8 5.28 8 8 C5.36 8 2.72 8 0 8 C0 5.36 0 2.72 0 0 Z " fill="#66CCFF" transform="translate(174,298)"/>
<path d="M0 0 C2.64 0 5.28 0 8 0 C8 2.64 8 5.28 8 8 C5.36 8 2.72 8 0 8 C0 5.36 0 2.72 0 0 Z " fill="#99CCCC" transform="translate(166,298)"/>
<path d="M0 0 C2.64 0 5.28 0 8 0 C8 2.64 8 5.28 8 8 C5.36 8 2.72 8 0 8 C0 5.36 0 2.72 0 0 Z " fill="#66CCFF" transform="translate(158,298)"/>
<path d="M0 0 C2.64 0 5.28 0 8 0 C8 2.64 8 5.28 8 8 C5.36 8 2.72 8 0 8 C0 5.36 0 2.72 0 0 Z " fill="#DDDDDD" transform="translate(334,290)"/>
<path d="M0 0 C2.64 0 5.28 0 8 0 C8 2.64 8 5.28 8 8 C5.36 8 2.72 8 0 8 C0 5.36 0 2.72 0 0 Z " fill="#008080" transform="translate(294,290)"/>
<path d="M0 0 C2.64 0 5.28 0 8 0 C8 2.64 8 5.28 8 8 C5.36 8 2.72 8 0 8 C0 5.36 0 2.72 0 0 Z " fill="#66CCFF" transform="translate(246,290)"/>
<path d="M0 0 C2.64 0 5.28 0 8 0 C8 2.64 8 5.28 8 8 C5.36 8 2.72 8 0 8 C0 5.36 0 2.72 0 0 Z " fill="#66CCFF" transform="translate(230,290)"/>
<path d="M0 0 C2.64 0 5.28 0 8 0 C8 2.64 8 5.28 8 8 C5.36 8 2.72 8 0 8 C0 5.36 0 2.72 0 0 Z " fill="#66CCFF" transform="translate(206,290)"/>
<path d="M0 0 C2.64 0 5.28 0 8 0 C8 2.64 8 5.28 8 8 C5.36 8 2.72 8 0 8 C0 5.36 0 2.72 0 0 Z " fill="#A6CAF0" transform="translate(190,290)"/>
<path d="M0 0 C2.64 0 5.28 0 8 0 C8 2.64 8 5.28 8 8 C5.36 8 2.72 8 0 8 C0 5.36 0 2.72 0 0 Z " fill="#66FFFF" transform="translate(166,290)"/>
<path d="M0 0 C2.64 0 5.28 0 8 0 C8 2.64 8 5.28 8 8 C5.36 8 2.72 8 0 8 C0 5.36 0 2.72 0 0 Z " fill="#99CCCC" transform="translate(158,290)"/>
<path d="M0 0 C2.64 0 5.28 0 8 0 C8 2.64 8 5.28 8 8 C5.36 8 2.72 8 0 8 C0 5.36 0 2.72 0 0 Z " fill="#66CCFF" transform="translate(286,282)"/>
<path d="M0 0 C2.64 0 5.28 0 8 0 C8 2.64 8 5.28 8 8 C5.36 8 2.72 8 0 8 C0 5.36 0 2.72 0 0 Z " fill="#66CCFF" transform="translate(262,282)"/>
<path d="M0 0 C2.64 0 5.28 0 8 0 C8 2.64 8 5.28 8 8 C5.36 8 2.72 8 0 8 C0 5.36 0 2.72 0 0 Z " fill="#66CCFF" transform="translate(222,282)"/>
<path d="M0 0 C2.64 0 5.28 0 8 0 C8 2.64 8 5.28 8 8 C5.36 8 2.72 8 0 8 C0 5.36 0 2.72 0 0 Z " fill="#99FFCC" transform="translate(206,282)"/>
<path d="M0 0 C2.64 0 5.28 0 8 0 C8 2.64 8 5.28 8 8 C5.36 8 2.72 8 0 8 C0 5.36 0 2.72 0 0 Z " fill="#66FFCC" transform="translate(190,282)"/>
<path d="M0 0 C2.64 0 5.28 0 8 0 C8 2.64 8 5.28 8 8 C5.36 8 2.72 8 0 8 C0 5.36 0 2.72 0 0 Z " fill="#66CCFF" transform="translate(182,282)"/>
<path d="M0 0 C2.64 0 5.28 0 8 0 C8 2.64 8 5.28 8 8 C5.36 8 2.72 8 0 8 C0 5.36 0 2.72 0 0 Z " fill="#008080" transform="translate(302,274)"/>
<path d="M0 0 C2.64 0 5.28 0 8 0 C8 2.64 8 5.28 8 8 C5.36 8 2.72 8 0 8 C0 5.36 0 2.72 0 0 Z " fill="#66CCFF" transform="translate(270,274)"/>
<path d="M0 0 C2.64 0 5.28 0 8 0 C8 2.64 8 5.28 8 8 C5.36 8 2.72 8 0 8 C0 5.36 0 2.72 0 0 Z " fill="#66CCFF" transform="translate(246,274)"/>
<path d="M0 0 C2.64 0 5.28 0 8 0 C8 2.64 8 5.28 8 8 C5.36 8 2.72 8 0 8 C0 5.36 0 2.72 0 0 Z " fill="#99CCCC" transform="translate(238,274)"/>
<path d="M0 0 C2.64 0 5.28 0 8 0 C8 2.64 8 5.28 8 8 C5.36 8 2.72 8 0 8 C0 5.36 0 2.72 0 0 Z " fill="#66CCFF" transform="translate(230,274)"/>
<path d="M0 0 C2.64 0 5.28 0 8 0 C8 2.64 8 5.28 8 8 C5.36 8 2.72 8 0 8 C0 5.36 0 2.72 0 0 Z " fill="#99CCCC" transform="translate(222,274)"/>
<path d="M0 0 C2.64 0 5.28 0 8 0 C8 2.64 8 5.28 8 8 C5.36 8 2.72 8 0 8 C0 5.36 0 2.72 0 0 Z " fill="#66FFFF" transform="translate(214,274)"/>
<path d="M0 0 C2.64 0 5.28 0 8 0 C8 2.64 8 5.28 8 8 C5.36 8 2.72 8 0 8 C0 5.36 0 2.72 0 0 Z " fill="#66CCCC" transform="translate(206,274)"/>
<path d="M0 0 C2.64 0 5.28 0 8 0 C8 2.64 8 5.28 8 8 C5.36 8 2.72 8 0 8 C0 5.36 0 2.72 0 0 Z " fill="#99FFCC" transform="translate(174,274)"/>
<path d="M0 0 C2.64 0 5.28 0 8 0 C8 2.64 8 5.28 8 8 C5.36 8 2.72 8 0 8 C0 5.36 0 2.72 0 0 Z " fill="#DDDDDD" transform="translate(342,266)"/>
<path d="M0 0 C2.64 0 5.28 0 8 0 C8 2.64 8 5.28 8 8 C5.36 8 2.72 8 0 8 C0 5.36 0 2.72 0 0 Z " fill="#99CCCC" transform="translate(262,266)"/>
<path d="M0 0 C2.64 0 5.28 0 8 0 C8 2.64 8 5.28 8 8 C5.36 8 2.72 8 0 8 C0 5.36 0 2.72 0 0 Z " fill="#66CCFF" transform="translate(254,266)"/>
<path d="M0 0 C2.64 0 5.28 0 8 0 C8 2.64 8 5.28 8 8 C5.36 8 2.72 8 0 8 C0 5.36 0 2.72 0 0 Z " fill="#99CCCC" transform="translate(246,266)"/>
<path d="M0 0 C2.64 0 5.28 0 8 0 C8 2.64 8 5.28 8 8 C5.36 8 2.72 8 0 8 C0 5.36 0 2.72 0 0 Z " fill="#66FFFF" transform="translate(238,266)"/>
<path d="M0 0 C2.64 0 5.28 0 8 0 C8 2.64 8 5.28 8 8 C5.36 8 2.72 8 0 8 C0 5.36 0 2.72 0 0 Z " fill="#66CCCC" transform="translate(222,266)"/>
<path d="M0 0 C2.64 0 5.28 0 8 0 C8 2.64 8 5.28 8 8 C5.36 8 2.72 8 0 8 C0 5.36 0 2.72 0 0 Z " fill="#99FFCC" transform="translate(190,266)"/>
<path d="M0 0 C2.64 0 5.28 0 8 0 C8 2.64 8 5.28 8 8 C5.36 8 2.72 8 0 8 C0 5.36 0 2.72 0 0 Z " fill="#A6CAF0" transform="translate(182,266)"/>
<path d="M0 0 C2.64 0 5.28 0 8 0 C8 2.64 8 5.28 8 8 C5.36 8 2.72 8 0 8 C0 5.36 0 2.72 0 0 Z " fill="#008080" transform="translate(310,258)"/>
<path d="M0 0 C2.64 0 5.28 0 8 0 C8 2.64 8 5.28 8 8 C5.36 8 2.72 8 0 8 C0 5.36 0 2.72 0 0 Z " fill="#A6CAF0" transform="translate(278,258)"/>
<path d="M0 0 C2.64 0 5.28 0 8 0 C8 2.64 8 5.28 8 8 C5.36 8 2.72 8 0 8 C0 5.36 0 2.72 0 0 Z " fill="#66FFFF" transform="translate(262,258)"/>
<path d="M0 0 C2.64 0 5.28 0 8 0 C8 2.64 8 5.28 8 8 C5.36 8 2.72 8 0 8 C0 5.36 0 2.72 0 0 Z " fill="#99CCCC" transform="translate(254,258)"/>
<path d="M0 0 C2.64 0 5.28 0 8 0 C8 2.64 8 5.28 8 8 C5.36 8 2.72 8 0 8 C0 5.36 0 2.72 0 0 Z " fill="#66CCFF" transform="translate(246,258)"/>
<path d="M0 0 C2.64 0 5.28 0 8 0 C8 2.64 8 5.28 8 8 C5.36 8 2.72 8 0 8 C0 5.36 0 2.72 0 0 Z " fill="#99CCCC" transform="translate(238,258)"/>
<path d="M0 0 C2.64 0 5.28 0 8 0 C8 2.64 8 5.28 8 8 C5.36 8 2.72 8 0 8 C0 5.36 0 2.72 0 0 Z " fill="#99FFFF" transform="translate(230,258)"/>
<path d="M0 0 C2.64 0 5.28 0 8 0 C8 2.64 8 5.28 8 8 C5.36 8 2.72 8 0 8 C0 5.36 0 2.72 0 0 Z " fill="#99FFCC" transform="translate(214,258)"/>
<path d="M0 0 C2.64 0 5.28 0 8 0 C8 2.64 8 5.28 8 8 C5.36 8 2.72 8 0 8 C0 5.36 0 2.72 0 0 Z " fill="#99FFCC" transform="translate(198,258)"/>
<path d="M0 0 C2.64 0 5.28 0 8 0 C8 2.64 8 5.28 8 8 C5.36 8 2.72 8 0 8 C0 5.36 0 2.72 0 0 Z " fill="#99FFFF" transform="translate(182,258)"/>
<path d="M0 0 C2.64 0 5.28 0 8 0 C8 2.64 8 5.28 8 8 C5.36 8 2.72 8 0 8 C0 5.36 0 2.72 0 0 Z " fill="#99CCCC" transform="translate(174,258)"/>
<path d="M0 0 C2.64 0 5.28 0 8 0 C8 2.64 8 5.28 8 8 C5.36 8 2.72 8 0 8 C0 5.36 0 2.72 0 0 Z " fill="#66FFCC" transform="translate(302,250)"/>
<path d="M0 0 C2.64 0 5.28 0 8 0 C8 2.64 8 5.28 8 8 C5.36 8 2.72 8 0 8 C0 5.36 0 2.72 0 0 Z " fill="#99CCCC" transform="translate(294,250)"/>
<path d="M0 0 C2.64 0 5.28 0 8 0 C8 2.64 8 5.28 8 8 C5.36 8 2.72 8 0 8 C0 5.36 0 2.72 0 0 Z " fill="#66CCCC" transform="translate(278,250)"/>
<path d="M0 0 C2.64 0 5.28 0 8 0 C8 2.64 8 5.28 8 8 C5.36 8 2.72 8 0 8 C0 5.36 0 2.72 0 0 Z " fill="#A6CAF0" transform="translate(270,250)"/>
<path d="M0 0 C2.64 0 5.28 0 8 0 C8 2.64 8 5.28 8 8 C5.36 8 2.72 8 0 8 C0 5.36 0 2.72 0 0 Z " fill="#66CCCC" transform="translate(262,250)"/>
<path d="M0 0 C2.64 0 5.28 0 8 0 C8 2.64 8 5.28 8 8 C5.36 8 2.72 8 0 8 C0 5.36 0 2.72 0 0 Z " fill="#99FFFF" transform="translate(254,250)"/>
<path d="M0 0 C2.64 0 5.28 0 8 0 C8 2.64 8 5.28 8 8 C5.36 8 2.72 8 0 8 C0 5.36 0 2.72 0 0 Z " fill="#99CCCC" transform="translate(246,250)"/>
<path d="M0 0 C2.64 0 5.28 0 8 0 C8 2.64 8 5.28 8 8 C5.36 8 2.72 8 0 8 C0 5.36 0 2.72 0 0 Z " fill="#A6CAF0" transform="translate(238,250)"/>
<path d="M0 0 C2.64 0 5.28 0 8 0 C8 2.64 8 5.28 8 8 C5.36 8 2.72 8 0 8 C0 5.36 0 2.72 0 0 Z " fill="#99FFFF" transform="translate(198,250)"/>
<path d="M0 0 C2.64 0 5.28 0 8 0 C8 2.64 8 5.28 8 8 C5.36 8 2.72 8 0 8 C0 5.36 0 2.72 0 0 Z " fill="#CCECFF" transform="translate(182,250)"/>
<path d="M0 0 C2.64 0 5.28 0 8 0 C8 2.64 8 5.28 8 8 C5.36 8 2.72 8 0 8 C0 5.36 0 2.72 0 0 Z " fill="#DDDDDD" transform="translate(350,242)"/>
<path d="M0 0 C2.64 0 5.28 0 8 0 C8 2.64 8 5.28 8 8 C5.36 8 2.72 8 0 8 C0 5.36 0 2.72 0 0 Z " fill="#008080" transform="translate(318,242)"/>
<path d="M0 0 C2.64 0 5.28 0 8 0 C8 2.64 8 5.28 8 8 C5.36 8 2.72 8 0 8 C0 5.36 0 2.72 0 0 Z " fill="#66CCFF" transform="translate(294,242)"/>
<path d="M0 0 C2.64 0 5.28 0 8 0 C8 2.64 8 5.28 8 8 C5.36 8 2.72 8 0 8 C0 5.36 0 2.72 0 0 Z " fill="#99FFFF" transform="translate(270,242)"/>
<path d="M0 0 C2.64 0 5.28 0 8 0 C8 2.64 8 5.28 8 8 C5.36 8 2.72 8 0 8 C0 5.36 0 2.72 0 0 Z " fill="#A6CAF0" transform="translate(254,242)"/>
<path d="M0 0 C2.64 0 5.28 0 8 0 C8 2.64 8 5.28 8 8 C5.36 8 2.72 8 0 8 C0 5.36 0 2.72 0 0 Z " fill="#99FFCC" transform="translate(238,242)"/>
<path d="M0 0 C2.64 0 5.28 0 8 0 C8 2.64 8 5.28 8 8 C5.36 8 2.72 8 0 8 C0 5.36 0 2.72 0 0 Z " fill="#A6CAF0" transform="translate(230,242)"/>
<path d="M0 0 C2.64 0 5.28 0 8 0 C8 2.64 8 5.28 8 8 C5.36 8 2.72 8 0 8 C0 5.36 0 2.72 0 0 Z " fill="#99FFCC" transform="translate(222,242)"/>
<path d="M0 0 C2.64 0 5.28 0 8 0 C8 2.64 8 5.28 8 8 C5.36 8 2.72 8 0 8 C0 5.36 0 2.72 0 0 Z " fill="#99FFCC" transform="translate(206,242)"/>
<path d="M0 0 C2.64 0 5.28 0 8 0 C8 2.64 8 5.28 8 8 C5.36 8 2.72 8 0 8 C0 5.36 0 2.72 0 0 Z " fill="#A6CAF0" transform="translate(198,242)"/>
<path d="M0 0 C2.64 0 5.28 0 8 0 C8 2.64 8 5.28 8 8 C5.36 8 2.72 8 0 8 C0 5.36 0 2.72 0 0 Z " fill="#99FFCC" transform="translate(190,242)"/>
<path d="M0 0 C2.64 0 5.28 0 8 0 C8 2.64 8 5.28 8 8 C5.36 8 2.72 8 0 8 C0 5.36 0 2.72 0 0 Z " fill="#A6CAF0" transform="translate(182,242)"/>
<path d="M0 0 C2.64 0 5.28 0 8 0 C8 2.64 8 5.28 8 8 C5.36 8 2.72 8 0 8 C0 5.36 0 2.72 0 0 Z " fill="#CCCCCC" transform="translate(350,234)"/>
<path d="M0 0 C2.64 0 5.28 0 8 0 C8 2.64 8 5.28 8 8 C5.36 8 2.72 8 0 8 C0 5.36 0 2.72 0 0 Z " fill="#66CCCC" transform="translate(318,234)"/>
<path d="M0 0 C2.64 0 5.28 0 8 0 C8 2.64 8 5.28 8 8 C5.36 8 2.72 8 0 8 C0 5.36 0 2.72 0 0 Z " fill="#99FFFF" transform="translate(302,234)"/>
<path d="M0 0 C2.64 0 5.28 0 8 0 C8 2.64 8 5.28 8 8 C5.36 8 2.72 8 0 8 C0 5.36 0 2.72 0 0 Z " fill="#99FFFF" transform="translate(278,234)"/>
<path d="M0 0 C2.64 0 5.28 0 8 0 C8 2.64 8 5.28 8 8 C5.36 8 2.72 8 0 8 C0 5.36 0 2.72 0 0 Z " fill="#A6CAF0" transform="translate(262,234)"/>
<path d="M0 0 C2.64 0 5.28 0 8 0 C8 2.64 8 5.28 8 8 C5.36 8 2.72 8 0 8 C0 5.36 0 2.72 0 0 Z " fill="#99FFFF" transform="translate(254,234)"/>
<path d="M0 0 C2.64 0 5.28 0 8 0 C8 2.64 8 5.28 8 8 C5.36 8 2.72 8 0 8 C0 5.36 0 2.72 0 0 Z " fill="#A6CAF0" transform="translate(238,234)"/>
<path d="M0 0 C2.64 0 5.28 0 8 0 C8 2.64 8 5.28 8 8 C5.36 8 2.72 8 0 8 C0 5.36 0 2.72 0 0 Z " fill="#99FFFF" transform="translate(230,234)"/>
<path d="M0 0 C2.64 0 5.28 0 8 0 C8 2.64 8 5.28 8 8 C5.36 8 2.72 8 0 8 C0 5.36 0 2.72 0 0 Z " fill="#CCECFF" transform="translate(222,234)"/>
<path d="M0 0 C2.64 0 5.28 0 8 0 C8 2.64 8 5.28 8 8 C5.36 8 2.72 8 0 8 C0 5.36 0 2.72 0 0 Z " fill="#CCFFFF" transform="translate(206,234)"/>
<path d="M0 0 C2.64 0 5.28 0 8 0 C8 2.64 8 5.28 8 8 C5.36 8 2.72 8 0 8 C0 5.36 0 2.72 0 0 Z " fill="#008080" transform="translate(326,226)"/>
<path d="M0 0 C2.64 0 5.28 0 8 0 C8 2.64 8 5.28 8 8 C5.36 8 2.72 8 0 8 C0 5.36 0 2.72 0 0 Z " fill="#99FFFF" transform="translate(318,226)"/>
<path d="M0 0 C2.64 0 5.28 0 8 0 C8 2.64 8 5.28 8 8 C5.36 8 2.72 8 0 8 C0 5.36 0 2.72 0 0 Z " fill="#A6CAF0" transform="translate(310,226)"/>
<path d="M0 0 C2.64 0 5.28 0 8 0 C8 2.64 8 5.28 8 8 C5.36 8 2.72 8 0 8 C0 5.36 0 2.72 0 0 Z " fill="#99CCCC" transform="translate(302,226)"/>
<path d="M0 0 C2.64 0 5.28 0 8 0 C8 2.64 8 5.28 8 8 C5.36 8 2.72 8 0 8 C0 5.36 0 2.72 0 0 Z " fill="#99FFCC" transform="translate(262,226)"/>
<path d="M0 0 C2.64 0 5.28 0 8 0 C8 2.64 8 5.28 8 8 C5.36 8 2.72 8 0 8 C0 5.36 0 2.72 0 0 Z " fill="#A6CAF0" transform="translate(254,226)"/>
<path d="M0 0 C2.64 0 5.28 0 8 0 C8 2.64 8 5.28 8 8 C5.36 8 2.72 8 0 8 C0 5.36 0 2.72 0 0 Z " fill="#A6CAF0" transform="translate(230,226)"/>
<path d="M0 0 C2.64 0 5.28 0 8 0 C8 2.64 8 5.28 8 8 C5.36 8 2.72 8 0 8 C0 5.36 0 2.72 0 0 Z " fill="#99FFCC" transform="translate(222,226)"/>
<path d="M0 0 C2.64 0 5.28 0 8 0 C8 2.64 8 5.28 8 8 C5.36 8 2.72 8 0 8 C0 5.36 0 2.72 0 0 Z " fill="#A6CAF0" transform="translate(206,226)"/>
<path d="M0 0 C2.64 0 5.28 0 8 0 C8 2.64 8 5.28 8 8 C5.36 8 2.72 8 0 8 C0 5.36 0 2.72 0 0 Z " fill="#CCFFCC" transform="translate(198,226)"/>
<path d="M0 0 C2.64 0 5.28 0 8 0 C8 2.64 8 5.28 8 8 C5.36 8 2.72 8 0 8 C0 5.36 0 2.72 0 0 Z " fill="#DDDDDD" transform="translate(358,218)"/>
<path d="M0 0 C2.64 0 5.28 0 8 0 C8 2.64 8 5.28 8 8 C5.36 8 2.72 8 0 8 C0 5.36 0 2.72 0 0 Z " fill="#66CCCC" transform="translate(326,218)"/>
<path d="M0 0 C2.64 0 5.28 0 8 0 C8 2.64 8 5.28 8 8 C5.36 8 2.72 8 0 8 C0 5.36 0 2.72 0 0 Z " fill="#99CCCC" transform="translate(318,218)"/>
<path d="M0 0 C2.64 0 5.28 0 8 0 C8 2.64 8 5.28 8 8 C5.36 8 2.72 8 0 8 C0 5.36 0 2.72 0 0 Z " fill="#99CCCC" transform="translate(294,218)"/>
<path d="M0 0 C2.64 0 5.28 0 8 0 C8 2.64 8 5.28 8 8 C5.36 8 2.72 8 0 8 C0 5.36 0 2.72 0 0 Z " fill="#99FFCC" transform="translate(278,218)"/>
<path d="M0 0 C2.64 0 5.28 0 8 0 C8 2.64 8 5.28 8 8 C5.36 8 2.72 8 0 8 C0 5.36 0 2.72 0 0 Z " fill="#A6CAF0" transform="translate(262,218)"/>
<path d="M0 0 C2.64 0 5.28 0 8 0 C8 2.64 8 5.28 8 8 C5.36 8 2.72 8 0 8 C0 5.36 0 2.72 0 0 Z " fill="#99FFCC" transform="translate(254,218)"/>
<path d="M0 0 C2.64 0 5.28 0 8 0 C8 2.64 8 5.28 8 8 C5.36 8 2.72 8 0 8 C0 5.36 0 2.72 0 0 Z " fill="#99FFCC" transform="translate(238,218)"/>
<path d="M0 0 C2.64 0 5.28 0 8 0 C8 2.64 8 5.28 8 8 C5.36 8 2.72 8 0 8 C0 5.36 0 2.72 0 0 Z " fill="#CCFFCC" transform="translate(214,218)"/>
<path d="M0 0 C2.64 0 5.28 0 8 0 C8 2.64 8 5.28 8 8 C5.36 8 2.72 8 0 8 C0 5.36 0 2.72 0 0 Z " fill="#008080" transform="translate(334,210)"/>
<path d="M0 0 C2.64 0 5.28 0 8 0 C8 2.64 8 5.28 8 8 C5.36 8 2.72 8 0 8 C0 5.36 0 2.72 0 0 Z " fill="#99FFCC" transform="translate(310,210)"/>
<path d="M0 0 C2.64 0 5.28 0 8 0 C8 2.64 8 5.28 8 8 C5.36 8 2.72 8 0 8 C0 5.36 0 2.72 0 0 Z " fill="#E3E3E3" transform="translate(286,210)"/>
<path d="M0 0 C2.64 0 5.28 0 8 0 C8 2.64 8 5.28 8 8 C5.36 8 2.72 8 0 8 C0 5.36 0 2.72 0 0 Z " fill="#A6CAF0" transform="translate(278,210)"/>
<path d="M0 0 C2.64 0 5.28 0 8 0 C8 2.64 8 5.28 8 8 C5.36 8 2.72 8 0 8 C0 5.36 0 2.72 0 0 Z " fill="#99FFFF" transform="translate(270,210)"/>
<path d="M0 0 C2.64 0 5.28 0 8 0 C8 2.64 8 5.28 8 8 C5.36 8 2.72 8 0 8 C0 5.36 0 2.72 0 0 Z " fill="#CCFFFF" transform="translate(198,210)"/>
<path d="M0 0 C2.64 0 5.28 0 8 0 C8 2.64 8 5.28 8 8 C5.36 8 2.72 8 0 8 C0 5.36 0 2.72 0 0 Z " fill="#66CCCC" transform="translate(334,202)"/>
<path d="M0 0 C2.64 0 5.28 0 8 0 C8 2.64 8 5.28 8 8 C5.36 8 2.72 8 0 8 C0 5.36 0 2.72 0 0 Z " fill="#99FFFF" transform="translate(326,202)"/>
<path d="M0 0 C2.64 0 5.28 0 8 0 C8 2.64 8 5.28 8 8 C5.36 8 2.72 8 0 8 C0 5.36 0 2.72 0 0 Z " fill="#99CCCC" transform="translate(318,202)"/>
<path d="M0 0 C2.64 0 5.28 0 8 0 C8 2.64 8 5.28 8 8 C5.36 8 2.72 8 0 8 C0 5.36 0 2.72 0 0 Z " fill="#99FFFF" transform="translate(310,202)"/>
<path d="M0 0 C2.64 0 5.28 0 8 0 C8 2.64 8 5.28 8 8 C5.36 8 2.72 8 0 8 C0 5.36 0 2.72 0 0 Z " fill="#CCECFF" transform="translate(302,202)"/>
<path d="M0 0 C2.64 0 5.28 0 8 0 C8 2.64 8 5.28 8 8 C5.36 8 2.72 8 0 8 C0 5.36 0 2.72 0 0 Z " fill="#A6CAF0" transform="translate(294,202)"/>
<path d="M0 0 C2.64 0 5.28 0 8 0 C8 2.64 8 5.28 8 8 C5.36 8 2.72 8 0 8 C0 5.36 0 2.72 0 0 Z " fill="#F1F1F1" transform="translate(214,202)"/>
<path d="M0 0 C2.64 0 5.28 0 8 0 C8 2.64 8 5.28 8 8 C5.36 8 2.72 8 0 8 C0 5.36 0 2.72 0 0 Z " fill="#008080" transform="translate(342,194)"/>
<path d="M0 0 C2.64 0 5.28 0 8 0 C8 2.64 8 5.28 8 8 C5.36 8 2.72 8 0 8 C0 5.36 0 2.72 0 0 Z " fill="#99CCCC" transform="translate(334,194)"/>
<path d="M0 0 C2.64 0 5.28 0 8 0 C8 2.64 8 5.28 8 8 C5.36 8 2.72 8 0 8 C0 5.36 0 2.72 0 0 Z " fill="#99FFCC" transform="translate(302,194)"/>
<path d="M0 0 C2.64 0 5.28 0 8 0 C8 2.64 8 5.28 8 8 C5.36 8 2.72 8 0 8 C0 5.36 0 2.72 0 0 Z " fill="#F1F1F1" transform="translate(230,194)"/>
<path d="M0 0 C2.64 0 5.28 0 8 0 C8 2.64 8 5.28 8 8 C5.36 8 2.72 8 0 8 C0 5.36 0 2.72 0 0 Z " fill="#CCFFFF" transform="translate(222,194)"/>
<path d="M0 0 C2.64 0 5.28 0 8 0 C8 2.64 8 5.28 8 8 C5.36 8 2.72 8 0 8 C0 5.36 0 2.72 0 0 Z " fill="#F1F1F1" transform="translate(206,194)"/>
<path d="M0 0 C2.64 0 5.28 0 8 0 C8 2.64 8 5.28 8 8 C5.36 8 2.72 8 0 8 C0 5.36 0 2.72 0 0 Z " fill="#99FFCC" transform="translate(326,186)"/>
<path d="M0 0 C2.64 0 5.28 0 8 0 C8 2.64 8 5.28 8 8 C5.36 8 2.72 8 0 8 C0 5.36 0 2.72 0 0 Z " fill="#A6CAF0" transform="translate(318,186)"/>
<path d="M0 0 C2.64 0 5.28 0 8 0 C8 2.64 8 5.28 8 8 C5.36 8 2.72 8 0 8 C0 5.36 0 2.72 0 0 Z " fill="#CCFFFF" transform="translate(214,186)"/>
<path d="M0 0 C2.64 0 5.28 0 8 0 C8 2.64 8 5.28 8 8 C5.36 8 2.72 8 0 8 C0 5.36 0 2.72 0 0 Z " fill="#008080" transform="translate(350,178)"/>
<path d="M0 0 C2.64 0 5.28 0 8 0 C8 2.64 8 5.28 8 8 C5.36 8 2.72 8 0 8 C0 5.36 0 2.72 0 0 Z " fill="#99CCCC" transform="translate(342,178)"/>
<path d="M0 0 C2.64 0 5.28 0 8 0 C8 2.64 8 5.28 8 8 C5.36 8 2.72 8 0 8 C0 5.36 0 2.72 0 0 Z " fill="#CCFFCC" transform="translate(310,178)"/>
<path d="M0 0 C2.64 0 5.28 0 8 0 C8 2.64 8 5.28 8 8 C5.36 8 2.72 8 0 8 C0 5.36 0 2.72 0 0 Z " fill="#CCFFFF" transform="translate(278,178)"/>
<path d="M0 0 C2.64 0 5.28 0 8 0 C8 2.64 8 5.28 8 8 C5.36 8 2.72 8 0 8 C0 5.36 0 2.72 0 0 Z " fill="#F1F1F1" transform="translate(270,178)"/>
<path d="M0 0 C2.64 0 5.28 0 8 0 C8 2.64 8 5.28 8 8 C5.36 8 2.72 8 0 8 C0 5.36 0 2.72 0 0 Z " fill="#CCFFFF" transform="translate(254,178)"/>
<path d="M0 0 C2.64 0 5.28 0 8 0 C8 2.64 8 5.28 8 8 C5.36 8 2.72 8 0 8 C0 5.36 0 2.72 0 0 Z " fill="#CCFFFF" transform="translate(238,178)"/>
<path d="M0 0 C2.64 0 5.28 0 8 0 C8 2.64 8 5.28 8 8 C5.36 8 2.72 8 0 8 C0 5.36 0 2.72 0 0 Z " fill="#66CCCC" transform="translate(350,170)"/>
<path d="M0 0 C2.64 0 5.28 0 8 0 C8 2.64 8 5.28 8 8 C5.36 8 2.72 8 0 8 C0 5.36 0 2.72 0 0 Z " fill="#CCFFCC" transform="translate(334,170)"/>
<path d="M0 0 C2.64 0 5.28 0 8 0 C8 2.64 8 5.28 8 8 C5.36 8 2.72 8 0 8 C0 5.36 0 2.72 0 0 Z " fill="#EAEAEA" transform="translate(302,170)"/>
<path d="M0 0 C2.64 0 5.28 0 8 0 C8 2.64 8 5.28 8 8 C5.36 8 2.72 8 0 8 C0 5.36 0 2.72 0 0 Z " fill="#CCFFFF" transform="translate(270,170)"/>
<path d="M0 0 C2.64 0 5.28 0 8 0 C8 2.64 8 5.28 8 8 C5.36 8 2.72 8 0 8 C0 5.36 0 2.72 0 0 Z " fill="#CCFFFF" transform="translate(246,170)"/>
<path d="M0 0 C2.64 0 5.28 0 8 0 C8 2.64 8 5.28 8 8 C5.36 8 2.72 8 0 8 C0 5.36 0 2.72 0 0 Z " fill="#008080" transform="translate(358,162)"/>
<path d="M0 0 C2.64 0 5.28 0 8 0 C8 2.64 8 5.28 8 8 C5.36 8 2.72 8 0 8 C0 5.36 0 2.72 0 0 Z " fill="#A6CAF0" transform="translate(350,162)"/>
<path d="M0 0 C2.64 0 5.28 0 8 0 C8 2.64 8 5.28 8 8 C5.36 8 2.72 8 0 8 C0 5.36 0 2.72 0 0 Z " fill="#CCFFFF" transform="translate(318,162)"/>
<path d="M0 0 C2.64 0 5.28 0 8 0 C8 2.64 8 5.28 8 8 C5.36 8 2.72 8 0 8 C0 5.36 0 2.72 0 0 Z " fill="#F1F1F1" transform="translate(310,162)"/>
<path d="M0 0 C2.64 0 5.28 0 8 0 C8 2.64 8 5.28 8 8 C5.36 8 2.72 8 0 8 C0 5.36 0 2.72 0 0 Z " fill="#CCFFFF" transform="translate(302,162)"/>
<path d="M0 0 C2.64 0 5.28 0 8 0 C8 2.64 8 5.28 8 8 C5.36 8 2.72 8 0 8 C0 5.36 0 2.72 0 0 Z " fill="#CCFFFF" transform="translate(286,162)"/>
<path d="M0 0 C2.64 0 5.28 0 8 0 C8 2.64 8 5.28 8 8 C5.36 8 2.72 8 0 8 C0 5.36 0 2.72 0 0 Z " fill="#CCFFFF" transform="translate(262,162)"/>
<path d="M0 0 C2.64 0 5.28 0 8 0 C8 2.64 8 5.28 8 8 C5.36 8 2.72 8 0 8 C0 5.36 0 2.72 0 0 Z " fill="#EAEAEA" transform="translate(350,154)"/>
<path d="M0 0 C2.64 0 5.28 0 8 0 C8 2.64 8 5.28 8 8 C5.36 8 2.72 8 0 8 C0 5.36 0 2.72 0 0 Z " fill="#F1F1F1" transform="translate(326,154)"/>
<path d="M0 0 C2.64 0 5.28 0 8 0 C8 2.64 8 5.28 8 8 C5.36 8 2.72 8 0 8 C0 5.36 0 2.72 0 0 Z " fill="#F1F1F1" transform="translate(302,154)"/>
<path d="M0 0 C2.64 0 5.28 0 8 0 C8 2.64 8 5.28 8 8 C5.36 8 2.72 8 0 8 C0 5.36 0 2.72 0 0 Z " fill="#CCFFFF" transform="translate(294,154)"/>
<path d="M0 0 C2.64 0 5.28 0 8 0 C8 2.64 8 5.28 8 8 C5.36 8 2.72 8 0 8 C0 5.36 0 2.72 0 0 Z " fill="#F1F1F1" transform="translate(286,154)"/>
<path d="M0 0 C2.64 0 5.28 0 8 0 C8 2.64 8 5.28 8 8 C5.36 8 2.72 8 0 8 C0 5.36 0 2.72 0 0 Z " fill="#CCFFFF" transform="translate(278,154)"/>
<path d="M0 0 C2.64 0 5.28 0 8 0 C8 2.64 8 5.28 8 8 C5.36 8 2.72 8 0 8 C0 5.36 0 2.72 0 0 Z " fill="#008080" transform="translate(366,146)"/>
<path d="M0 0 C2.64 0 5.28 0 8 0 C8 2.64 8 5.28 8 8 C5.36 8 2.72 8 0 8 C0 5.36 0 2.72 0 0 Z " fill="#C0C0C0" transform="translate(358,146)"/>
<path d="M0 0 C2.64 0 5.28 0 8 0 C8 2.64 8 5.28 8 8 C5.36 8 2.72 8 0 8 C0 5.36 0 2.72 0 0 Z " fill="#008080" transform="translate(350,146)"/>
<path d="M0 0 C2.64 0 5.28 0 8 0 C8 2.64 8 5.28 8 8 C5.36 8 2.72 8 0 8 C0 5.36 0 2.72 0 0 Z " fill="#008080" transform="translate(358,138)"/>
<path d="M0 0 C2.64 0 5.28 0 8 0 C8 2.64 8 5.28 8 8 C5.36 8 2.72 8 0 8 C0 5.36 0 2.72 0 0 Z " fill="#F8F8F8" transform="translate(350,138)"/>
<path d="M0 0 C2.64 0 5.28 0 8 0 C8 2.64 8 5.28 8 8 C5.36 8 2.72 8 0 8 C0 5.36 0 2.72 0 0 Z " fill="#F8F8F8" transform="translate(326,138)"/>
<path d="M0 0 C2.64 0 5.28 0 8 0 C8 2.64 8 5.28 8 8 C5.36 8 2.72 8 0 8 C0 5.36 0 2.72 0 0 Z " fill="#F8F8F8" transform="translate(302,138)"/>
<path d="M0 0 C2.64 0 5.28 0 8 0 C8 2.64 8 5.28 8 8 C5.36 8 2.72 8 0 8 C0 5.36 0 2.72 0 0 Z " fill="#F8F8F8" transform="translate(278,138)"/>
<path d="M0 0 C2.64 0 5.28 0 8 0 C8 2.64 8 5.28 8 8 C5.36 8 2.72 8 0 8 C0 5.36 0 2.72 0 0 Z " fill="#F8F8F8" transform="translate(254,138)"/>
<path d="M0 0 C2.64 0 5.28 0 8 0 C8 2.64 8 5.28 8 8 C5.36 8 2.72 8 0 8 C0 5.36 0 2.72 0 0 Z " fill="#F8F8F8" transform="translate(230,138)"/>
<path d="M0 0 C2.64 0 5.28 0 8 0 C8 2.64 8 5.28 8 8 C5.36 8 2.72 8 0 8 C0 5.36 0 2.72 0 0 Z " fill="#008080" transform="translate(222,138)"/>
</svg>
