<?xml version="1.0" encoding="UTF-8"?>
<svg version="1.1" xmlns="http://www.w3.org/2000/svg" width="540" height="500">
<path d="M0 0 C21.12 0 42.24 0 64 0 C64 2.64 64 5.28 64 8 C100.96 8 137.92 8 176 8 C176 10.64 176 13.28 176 16 C178.64 16 181.28 16 184 16 C184 37.12 184 58.24 184 80 C181.36 80 178.72 80 176 80 C176 82.64 176 85.28 176 88 C178.64 88 181.28 88 184 88 C184 90.64 184 93.28 184 96 C186.64 96 189.28 96 192 96 C192 109.2 192 122.4 192 136 C178.8 136 165.6 136 152 136 C152 138.64 152 141.28 152 144 C157.28 144 162.56 144 168 144 C168 146.64 168 149.28 168 152 C173.28 152 178.56 152 184 152 C184 154.64 184 157.28 184 160 C186.64 160 189.28 160 192 160 C192 165.28 192 170.56 192 176 C184.08 176 176.16 176 168 176 C168 178.64 168 181.28 168 184 C173.28 184 178.56 184 184 184 C184 186.64 184 189.28 184 192 C186.64 192 189.28 192 192 192 C192 197.28 192 202.56 192 208 C160.32 208 128.64 208 96 208 C96 205.36 96 202.72 96 200 C93.36 200 90.72 200 88 200 C88 197.36 88 194.72 88 192 C109.12 192 130.24 192 152 192 C152 189.36 152 186.72 152 184 C146.72 184 141.44 184 136 184 C136 181.36 136 178.72 136 176 C130.72 176 125.44 176 120 176 C120 170.72 120 165.44 120 160 C130.56 160 141.12 160 152 160 C152 157.36 152 154.72 152 152 C146.72 152 141.44 152 136 152 C136 146.72 136 141.44 136 136 C130.72 136 125.44 136 120 136 C120 138.64 120 141.28 120 144 C117.36 144 114.72 144 112 144 C112 149.28 112 154.56 112 160 C109.36 160 106.72 160 104 160 C104 162.64 104 165.28 104 168 C101.36 168 98.72 168 96 168 C96 170.64 96 173.28 96 176 C90.72 176 85.44 176 80 176 C80 183.92 80 191.84 80 200 C77.36 200 74.72 200 72 200 C72 202.64 72 205.28 72 208 C74.64 208 77.28 208 80 208 C80 210.64 80 213.28 80 216 C82.64 216 85.28 216 88 216 C88 223.92 88 231.84 88 240 C90.64 240 93.28 240 96 240 C96 245.28 96 250.56 96 256 C59.04 256 22.08 256 -16 256 C-16 253.36 -16 250.72 -16 248 C-21.28 248 -26.56 248 -32 248 C-32 245.36 -32 242.72 -32 240 C-34.64 240 -37.28 240 -40 240 C-40 237.36 -40 234.72 -40 232 C-42.64 232 -45.28 232 -48 232 C-48 221.44 -48 210.88 -48 200 C-45.36 200 -42.72 200 -40 200 C-40 197.36 -40 194.72 -40 192 C-42.64 192 -45.28 192 -48 192 C-48 176.16 -48 160.32 -48 144 C-50.64 144 -53.28 144 -56 144 C-56 138.72 -56 133.44 -56 128 C-58.64 128 -61.28 128 -64 128 C-64 106.88 -64 85.76 -64 64 C-61.36 64 -58.72 64 -56 64 C-56 58.72 -56 53.44 -56 48 C-53.36 48 -50.72 48 -48 48 C-48 42.72 -48 37.44 -48 32 C-45.36 32 -42.72 32 -40 32 C-40 29.36 -40 26.72 -40 24 C-37.36 24 -34.72 24 -32 24 C-32 21.36 -32 18.72 -32 16 C-26.72 16 -21.44 16 -16 16 C-16 13.36 -16 10.72 -16 8 C-10.72 8 -5.44 8 0 8 C0 5.36 0 2.72 0 0 Z " fill="#0099FF" transform="translate(206,122)"/>
<path d="M0 0 C5.28 0 10.56 0 16 0 C16 2.64 16 5.28 16 8 C42.4 8 68.8 8 96 8 C96 10.64 96 13.28 96 16 C98.64 16 101.28 16 104 16 C104 18.64 104 21.28 104 24 C106.64 24 109.28 24 112 24 C112 37.2 112 50.4 112 64 C98.8 64 85.6 64 72 64 C72 66.64 72 69.28 72 72 C77.28 72 82.56 72 88 72 C88 74.64 88 77.28 88 80 C93.28 80 98.56 80 104 80 C104 82.64 104 85.28 104 88 C106.64 88 109.28 88 112 88 C112 93.28 112 98.56 112 104 C104.08 104 96.16 104 88 104 C88 106.64 88 109.28 88 112 C93.28 112 98.56 112 104 112 C104 114.64 104 117.28 104 120 C106.64 120 109.28 120 112 120 C112 125.28 112 130.56 112 136 C80.32 136 48.64 136 16 136 C16 133.36 16 130.72 16 128 C13.36 128 10.72 128 8 128 C8 125.36 8 122.72 8 120 C29.12 120 50.24 120 72 120 C72 117.36 72 114.72 72 112 C66.72 112 61.44 112 56 112 C56 109.36 56 106.72 56 104 C50.72 104 45.44 104 40 104 C40 98.72 40 93.44 40 88 C50.56 88 61.12 88 72 88 C72 85.36 72 82.72 72 80 C66.72 80 61.44 80 56 80 C56 74.72 56 69.44 56 64 C50.72 64 45.44 64 40 64 C40 66.64 40 69.28 40 72 C37.36 72 34.72 72 32 72 C32 77.28 32 82.56 32 88 C29.36 88 26.72 88 24 88 C24 90.64 24 93.28 24 96 C21.36 96 18.72 96 16 96 C16 98.64 16 101.28 16 104 C10.72 104 5.44 104 0 104 C0 111.92 0 119.84 0 128 C-2.64 128 -5.28 128 -8 128 C-8 98.96 -8 69.92 -8 40 C-15.92 40 -23.84 40 -32 40 C-32 37.36 -32 34.72 -32 32 C-34.64 32 -37.28 32 -40 32 C-40 26.72 -40 21.44 -40 16 C-32.08 16 -24.16 16 -16 16 C-16 13.36 -16 10.72 -16 8 C-10.72 8 -5.44 8 0 8 C0 5.36 0 2.72 0 0 Z " fill="#008000" transform="translate(286,194)"/>
<path d="M0 0 C36.96 0 73.92 0 112 0 C112 26.4 112 52.8 112 80 C80.32 80 48.64 80 16 80 C16 77.36 16 74.72 16 72 C13.36 72 10.72 72 8 72 C8 69.36 8 66.72 8 64 C5.36 64 2.72 64 0 64 C0 42.88 0 21.76 0 0 Z " fill="#33CCFF" transform="translate(166,242)"/>
<path d="M0 0 C34.32 0 68.64 0 104 0 C104 2.64 104 5.28 104 8 C106.64 8 109.28 8 112 8 C112 29.12 112 50.24 112 72 C82.96 72 53.92 72 24 72 C24 69.36 24 66.72 24 64 C18.72 64 13.44 64 8 64 C8 45.52 8 27.04 8 8 C5.36 8 2.72 8 0 8 C0 5.36 0 2.72 0 0 Z " fill="#F1F1F1" transform="translate(278,130)"/>
<path d="M0 0 C5.28 0 10.56 0 16 0 C16 2.64 16 5.28 16 8 C21.28 8 26.56 8 32 8 C32 10.64 32 13.28 32 16 C42.56 16 53.12 16 64 16 C64 13.36 64 10.72 64 8 C71.92 8 79.84 8 88 8 C88 10.64 88 13.28 88 16 C95.92 16 103.84 16 112 16 C112 13.36 112 10.72 112 8 C117.28 8 122.56 8 128 8 C128 10.64 128 13.28 128 16 C130.64 16 133.28 16 136 16 C136 23.92 136 31.84 136 40 C138.64 40 141.28 40 144 40 C144 45.28 144 50.56 144 56 C107.04 56 70.08 56 32 56 C32 53.36 32 50.72 32 48 C26.72 48 21.44 48 16 48 C16 45.36 16 42.72 16 40 C13.36 40 10.72 40 8 40 C8 37.36 8 34.72 8 32 C5.36 32 2.72 32 0 32 C0 21.44 0 10.88 0 0 Z " fill="#222222" transform="translate(158,322)"/>
<path d="M0 0 C5.28 0 10.56 0 16 0 C16 2.64 16 5.28 16 8 C42.4 8 68.8 8 96 8 C96 10.64 96 13.28 96 16 C98.64 16 101.28 16 104 16 C104 21.28 104 26.56 104 32 C101.36 32 98.72 32 96 32 C96 34.64 96 37.28 96 40 C98.64 40 101.28 40 104 40 C104 45.28 104 50.56 104 56 C80.24 56 56.48 56 32 56 C32 53.36 32 50.72 32 48 C29.36 48 26.72 48 24 48 C24 45.36 24 42.72 24 40 C29.28 40 34.56 40 40 40 C40 37.36 40 34.72 40 32 C32.08 32 24.16 32 16 32 C16 34.64 16 37.28 16 40 C10.72 40 5.44 40 0 40 C0 42.64 0 45.28 0 48 C-2.64 48 -5.28 48 -8 48 C-8 45.36 -8 42.72 -8 40 C-15.92 40 -23.84 40 -32 40 C-32 37.36 -32 34.72 -32 32 C-34.64 32 -37.28 32 -40 32 C-40 26.72 -40 21.44 -40 16 C-32.08 16 -24.16 16 -16 16 C-16 13.36 -16 10.72 -16 8 C-10.72 8 -5.44 8 0 8 C0 5.36 0 2.72 0 0 Z " fill="#339900" transform="translate(286,194)"/>
<path d="M0 0 C15.84 0 31.68 0 48 0 C48 2.64 48 5.28 48 8 C42.72 8 37.44 8 32 8 C32 10.64 32 13.28 32 16 C29.36 16 26.72 16 24 16 C24 18.64 24 21.28 24 24 C21.36 24 18.72 24 16 24 C16 26.64 16 29.28 16 32 C13.36 32 10.72 32 8 32 C8 42.56 8 53.12 8 64 C5.36 64 2.72 64 0 64 C0 61.36 0 58.72 0 56 C-5.28 56 -10.56 56 -16 56 C-16 58.64 -16 61.28 -16 64 C-18.64 64 -21.28 64 -24 64 C-24 69.28 -24 74.56 -24 80 C-26.64 80 -29.28 80 -32 80 C-32 82.64 -32 85.28 -32 88 C-29.36 88 -26.72 88 -24 88 C-24 90.64 -24 93.28 -24 96 C-26.64 96 -29.28 96 -32 96 C-32 98.64 -32 101.28 -32 104 C-34.64 104 -37.28 104 -40 104 C-40 101.36 -40 98.72 -40 96 C-42.64 96 -45.28 96 -48 96 C-48 82.8 -48 69.6 -48 56 C-45.36 56 -42.72 56 -40 56 C-40 50.72 -40 45.44 -40 40 C-37.36 40 -34.72 40 -32 40 C-32 34.72 -32 29.44 -32 24 C-29.36 24 -26.72 24 -24 24 C-24 21.36 -24 18.72 -24 16 C-21.36 16 -18.72 16 -16 16 C-16 13.36 -16 10.72 -16 8 C-10.72 8 -5.44 8 0 8 C0 5.36 0 2.72 0 0 Z " fill="#33FF66" transform="translate(190,130)"/>
<path d="M0 0 C36.96 0 73.92 0 112 0 C112 26.4 112 52.8 112 80 C80.32 80 48.64 80 16 80 C16 77.36 16 74.72 16 72 C13.36 72 10.72 72 8 72 C8 69.36 8 66.72 8 64 C5.36 64 2.72 64 0 64 C0 42.88 0 21.76 0 0 Z M24 8 C24 29.12 24 50.24 24 72 C50.4 72 76.8 72 104 72 C104 50.88 104 29.76 104 8 C77.6 8 51.2 8 24 8 Z " fill="#FFFDF8" transform="translate(166,242)"/>
<path d="M0 0 C21.12 0 42.24 0 64 0 C64 2.64 64 5.28 64 8 C66.64 8 69.28 8 72 8 C72 10.64 72 13.28 72 16 C74.64 16 77.28 16 80 16 C80 34.48 80 52.96 80 72 C77.36 72 74.72 72 72 72 C72 69.36 72 66.72 72 64 C69.36 64 66.72 64 64 64 C64 66.64 64 69.28 64 72 C58.72 72 53.44 72 48 72 C48 69.36 48 66.72 48 64 C45.36 64 42.72 64 40 64 C40 61.36 40 58.72 40 56 C42.64 56 45.28 56 48 56 C48 53.36 48 50.72 48 48 C50.64 48 53.28 48 56 48 C56 45.36 56 42.72 56 40 C58.64 40 61.28 40 64 40 C64 42.64 64 45.28 64 48 C66.64 48 69.28 48 72 48 C72 40.08 72 32.16 72 24 C69.36 24 66.72 24 64 24 C64 26.64 64 29.28 64 32 C58.72 32 53.44 32 48 32 C48 34.64 48 37.28 48 40 C45.36 40 42.72 40 40 40 C40 37.36 40 34.72 40 32 C34.72 32 29.44 32 24 32 C24 34.64 24 37.28 24 40 C21.36 40 18.72 40 16 40 C16 42.64 16 45.28 16 48 C13.36 48 10.72 48 8 48 C8 50.64 8 53.28 8 56 C5.36 56 2.72 56 0 56 C0 58.64 0 61.28 0 64 C-2.64 64 -5.28 64 -8 64 C-8 56.08 -8 48.16 -8 40 C-5.36 40 -2.72 40 0 40 C0 37.36 0 34.72 0 32 C2.64 32 5.28 32 8 32 C8 29.36 8 26.72 8 24 C10.64 24 13.28 24 16 24 C16 21.36 16 18.72 16 16 C21.28 16 26.56 16 32 16 C32 13.36 32 10.72 32 8 C21.44 8 10.88 8 0 8 C0 5.36 0 2.72 0 0 Z " fill="#339900" transform="translate(206,122)"/>
<path d="M0 0 C5.28 0 10.56 0 16 0 C16 2.64 16 5.28 16 8 C18.64 8 21.28 8 24 8 C24 13.28 24 18.56 24 24 C16.08 24 8.16 24 0 24 C0 26.64 0 29.28 0 32 C5.28 32 10.56 32 16 32 C16 34.64 16 37.28 16 40 C18.64 40 21.28 40 24 40 C24 45.28 24 50.56 24 56 C-7.68 56 -39.36 56 -72 56 C-72 53.36 -72 50.72 -72 48 C-74.64 48 -77.28 48 -80 48 C-80 45.36 -80 42.72 -80 40 C-58.88 40 -37.76 40 -16 40 C-16 37.36 -16 34.72 -16 32 C-21.28 32 -26.56 32 -32 32 C-32 29.36 -32 26.72 -32 24 C-37.28 24 -42.56 24 -48 24 C-48 18.72 -48 13.44 -48 8 C-32.16 8 -16.32 8 0 8 C0 5.36 0 2.72 0 0 Z " fill="#77CCEE" transform="translate(374,274)"/>
<path d="M0 0 C2.64 0 5.28 0 8 0 C8 7.92 8 15.84 8 24 C5.36 24 2.72 24 0 24 C0 21.36 0 18.72 0 16 C-2.64 16 -5.28 16 -8 16 C-8 18.64 -8 21.28 -8 24 C-10.64 24 -13.28 24 -16 24 C-16 26.64 -16 29.28 -16 32 C-18.64 32 -21.28 32 -24 32 C-24 34.64 -24 37.28 -24 40 C-29.28 40 -34.56 40 -40 40 C-40 45.28 -40 50.56 -40 56 C-37.36 56 -34.72 56 -32 56 C-32 58.64 -32 61.28 -32 64 C-34.64 64 -37.28 64 -40 64 C-40 66.64 -40 69.28 -40 72 C-42.64 72 -45.28 72 -48 72 C-48 74.64 -48 77.28 -48 80 C-50.64 80 -53.28 80 -56 80 C-56 82.64 -56 85.28 -56 88 C-61.28 88 -66.56 88 -72 88 C-72 80.08 -72 72.16 -72 64 C-77.28 64 -82.56 64 -88 64 C-88 61.36 -88 58.72 -88 56 C-93.28 56 -98.56 56 -104 56 C-104 53.36 -104 50.72 -104 48 C-101.36 48 -98.72 48 -96 48 C-96 45.36 -96 42.72 -96 40 C-90.72 40 -85.44 40 -80 40 C-80 42.64 -80 45.28 -80 48 C-77.36 48 -74.72 48 -72 48 C-72 45.36 -72 42.72 -72 40 C-69.36 40 -66.72 40 -64 40 C-64 37.36 -64 34.72 -64 32 C-61.36 32 -58.72 32 -56 32 C-56 29.36 -56 26.72 -56 24 C-53.36 24 -50.72 24 -48 24 C-48 21.36 -48 18.72 -48 16 C-45.36 16 -42.72 16 -40 16 C-40 13.36 -40 10.72 -40 8 C-34.72 8 -29.44 8 -24 8 C-24 10.64 -24 13.28 -24 16 C-21.36 16 -18.72 16 -16 16 C-16 13.36 -16 10.72 -16 8 C-10.72 8 -5.44 8 0 8 C0 5.36 0 2.72 0 0 Z " fill="#33CCFF" transform="translate(270,146)"/>
<path d="M0 0 C5.28 0 10.56 0 16 0 C16 18.48 16 36.96 16 56 C21.28 56 26.56 56 32 56 C32 53.36 32 50.72 32 48 C29.36 48 26.72 48 24 48 C24 37.44 24 26.88 24 16 C39.84 16 55.68 16 72 16 C72 26.56 72 37.12 72 48 C69.36 48 66.72 48 64 48 C64 50.64 64 53.28 64 56 C69.28 56 74.56 56 80 56 C80 58.64 80 61.28 80 64 C56.24 64 32.48 64 8 64 C8 61.36 8 58.72 8 56 C5.36 56 2.72 56 0 56 C0 37.52 0 19.04 0 0 Z " fill="#66CCFF" transform="translate(294,138)"/>
<path d="M0 0 C5.28 0 10.56 0 16 0 C16 2.64 16 5.28 16 8 C42.4 8 68.8 8 96 8 C96 10.64 96 13.28 96 16 C93.36 16 90.72 16 88 16 C88 18.64 88 21.28 88 24 C90.64 24 93.28 24 96 24 C96 29.28 96 34.56 96 40 C72.24 40 48.48 40 24 40 C24 37.36 24 34.72 24 32 C21.36 32 18.72 32 16 32 C16 29.36 16 26.72 16 24 C21.28 24 26.56 24 32 24 C32 21.36 32 18.72 32 16 C24.08 16 16.16 16 8 16 C8 13.36 8 10.72 8 8 C5.36 8 2.72 8 0 8 C0 5.36 0 2.72 0 0 Z " fill="#555555" transform="translate(294,210)"/>
<path d="M0 0 C2.64 0 5.28 0 8 0 C8 21.12 8 42.24 8 64 C10.64 64 13.28 64 16 64 C16 66.64 16 69.28 16 72 C18.64 72 21.28 72 24 72 C24 74.64 24 77.28 24 80 C55.68 80 87.36 80 120 80 C120 82.64 120 85.28 120 88 C117.36 88 114.72 88 112 88 C112 90.64 112 93.28 112 96 C104.08 96 96.16 96 88 96 C88 93.36 88 90.72 88 88 C80.08 88 72.16 88 64 88 C64 90.64 64 93.28 64 96 C53.44 96 42.88 96 32 96 C32 93.36 32 90.72 32 88 C26.72 88 21.44 88 16 88 C16 85.36 16 82.72 16 80 C13.36 80 10.72 80 8 80 C8 77.36 8 74.72 8 72 C5.36 72 2.72 72 0 72 C0 56.16 0 40.32 0 24 C-2.64 24 -5.28 24 -8 24 C-8 18.72 -8 13.44 -8 8 C-5.36 8 -2.72 8 0 8 C0 5.36 0 2.72 0 0 Z " fill="#000000" transform="translate(158,242)"/>
<path d="M0 0 C21.12 0 42.24 0 64 0 C64 21.12 64 42.24 64 64 C40.24 64 16.48 64 -8 64 C-8 61.36 -8 58.72 -8 56 C5.2 56 18.4 56 32 56 C32 53.36 32 50.72 32 48 C37.28 48 42.56 48 48 48 C48 37.44 48 26.88 48 16 C45.36 16 42.72 16 40 16 C40 13.36 40 10.72 40 8 C26.8 8 13.6 8 0 8 C0 5.36 0 2.72 0 0 Z " fill="#0099FF" transform="translate(206,250)"/>
<path d="M0 0 C2.64 0 5.28 0 8 0 C8 2.64 8 5.28 8 8 C10.64 8 13.28 8 16 8 C16 5.36 16 2.72 16 0 C31.84 0 47.68 0 64 0 C64 2.64 64 5.28 64 8 C66.64 8 69.28 8 72 8 C72 10.64 72 13.28 72 16 C74.64 16 77.28 16 80 16 C80 18.64 80 21.28 80 24 C53.6 24 27.2 24 0 24 C0 16.08 0 8.16 0 0 Z " fill="#868686" transform="translate(190,354)"/>
<path d="M0 0 C2.64 0 5.28 0 8 0 C8 13.2 8 26.4 8 40 C-5.2 40 -18.4 40 -32 40 C-32 42.64 -32 45.28 -32 48 C-26.72 48 -21.44 48 -16 48 C-16 53.28 -16 58.56 -16 64 C-21.28 64 -26.56 64 -32 64 C-32 61.36 -32 58.72 -32 56 C-37.28 56 -42.56 56 -48 56 C-48 50.72 -48 45.44 -48 40 C-55.92 40 -63.84 40 -72 40 C-72 37.36 -72 34.72 -72 32 C-48.24 32 -24.48 32 0 32 C0 26.72 0 21.44 0 16 C-2.64 16 -5.28 16 -8 16 C-8 13.36 -8 10.72 -8 8 C-5.36 8 -2.72 8 0 8 C0 5.36 0 2.72 0 0 Z " fill="#292929" transform="translate(390,218)"/>
<path d="M0 0 C5.28 0 10.56 0 16 0 C16 2.64 16 5.28 16 8 C42.4 8 68.8 8 96 8 C96 10.64 96 13.28 96 16 C98.64 16 101.28 16 104 16 C104 18.64 104 21.28 104 24 C77.6 24 51.2 24 24 24 C24 21.36 24 18.72 24 16 C18.72 16 13.44 16 8 16 C8 13.36 8 10.72 8 8 C5.36 8 2.72 8 0 8 C0 5.36 0 2.72 0 0 Z " fill="#1C1C1C" transform="translate(286,194)"/>
<path d="M0 0 C7.92 0 15.84 0 24 0 C24 2.64 24 5.28 24 8 C26.64 8 29.28 8 32 8 C32 10.64 32 13.28 32 16 C29.36 16 26.72 16 24 16 C24 18.64 24 21.28 24 24 C21.36 24 18.72 24 16 24 C16 29.28 16 34.56 16 40 C13.36 40 10.72 40 8 40 C8 42.64 8 45.28 8 48 C10.64 48 13.28 48 16 48 C16 50.64 16 53.28 16 56 C13.36 56 10.72 56 8 56 C8 58.64 8 61.28 8 64 C5.36 64 2.72 64 0 64 C0 61.36 0 58.72 0 56 C-2.64 56 -5.28 56 -8 56 C-8 42.8 -8 29.6 -8 16 C-5.36 16 -2.72 16 0 16 C0 10.72 0 5.44 0 0 Z " fill="#CCFFFF" transform="translate(150,170)"/>
<path d="M0 0 C5.28 0 10.56 0 16 0 C16 18.48 16 36.96 16 56 C37.12 56 58.24 56 80 56 C80 58.64 80 61.28 80 64 C56.24 64 32.48 64 8 64 C8 61.36 8 58.72 8 56 C5.36 56 2.72 56 0 56 C0 37.52 0 19.04 0 0 Z " fill="#FFFFFF" transform="translate(294,138)"/>
<path d="M0 0 C10.56 0 21.12 0 32 0 C32 2.64 32 5.28 32 8 C34.64 8 37.28 8 40 8 C40 15.92 40 23.84 40 32 C37.36 32 34.72 32 32 32 C32 34.64 32 37.28 32 40 C24.08 40 16.16 40 8 40 C8 37.36 8 34.72 8 32 C5.36 32 2.72 32 0 32 C0 21.44 0 10.88 0 0 Z " fill="#66FFFF" transform="translate(198,258)"/>
<path d="M0 0 C5.28 0 10.56 0 16 0 C16 2.64 16 5.28 16 8 C21.28 8 26.56 8 32 8 C32 15.92 32 23.84 32 32 C21.44 32 10.88 32 0 32 C0 34.64 0 37.28 0 40 C-2.64 40 -5.28 40 -8 40 C-8 42.64 -8 45.28 -8 48 C-13.28 48 -18.56 48 -24 48 C-24 40.08 -24 32.16 -24 24 C-21.36 24 -18.72 24 -16 24 C-16 26.64 -16 29.28 -16 32 C-13.36 32 -10.72 32 -8 32 C-8 29.36 -8 26.72 -8 24 C-5.36 24 -2.72 24 0 24 C0 21.36 0 18.72 0 16 C-2.64 16 -5.28 16 -8 16 C-8 13.36 -8 10.72 -8 8 C-5.36 8 -2.72 8 0 8 C0 5.36 0 2.72 0 0 Z " fill="#66FF99" transform="translate(166,202)"/>
<path d="M0 0 C5.28 0 10.56 0 16 0 C16 2.64 16 5.28 16 8 C26.56 8 37.12 8 48 8 C48 5.36 48 2.72 48 0 C55.92 0 63.84 0 72 0 C72 2.64 72 5.28 72 8 C79.92 8 87.84 8 96 8 C96 5.36 96 2.72 96 0 C101.28 0 106.56 0 112 0 C112 7.92 112 15.84 112 24 C109.36 24 106.72 24 104 24 C104 21.36 104 18.72 104 16 C72.32 16 40.64 16 8 16 C8 13.36 8 10.72 8 8 C5.36 8 2.72 8 0 8 C0 5.36 0 2.72 0 0 Z " fill="#EAEAEA" transform="translate(174,330)"/>
<path d="M0 0 C21.12 0 42.24 0 64 0 C64 15.84 64 31.68 64 48 C58.72 48 53.44 48 48 48 C48 45.36 48 42.72 48 40 C50.64 40 53.28 40 56 40 C56 29.44 56 18.88 56 8 C40.16 8 24.32 8 8 8 C8 18.56 8 29.12 8 40 C10.64 40 13.28 40 16 40 C16 42.64 16 45.28 16 48 C10.72 48 5.44 48 0 48 C0 32.16 0 16.32 0 0 Z " fill="#3366CC" transform="translate(310,146)"/>
<path d="M0 0 C34.32 0 68.64 0 104 0 C104 2.64 104 5.28 104 8 C74.96 8 45.92 8 16 8 C16 26.48 16 44.96 16 64 C13.36 64 10.72 64 8 64 C8 45.52 8 27.04 8 8 C5.36 8 2.72 8 0 8 C0 5.36 0 2.72 0 0 Z " fill="#666699" transform="translate(278,130)"/>
<path d="M0 0 C2.64 0 5.28 0 8 0 C8 7.92 8 15.84 8 24 C10.64 24 13.28 24 16 24 C16 29.28 16 34.56 16 40 C5.44 40 -5.12 40 -16 40 C-16 37.36 -16 34.72 -16 32 C-18.64 32 -21.28 32 -24 32 C-24 29.36 -24 26.72 -24 24 C-26.64 24 -29.28 24 -32 24 C-32 18.72 -32 13.44 -32 8 C-24.08 8 -16.16 8 -8 8 C-8 10.64 -8 13.28 -8 16 C-5.36 16 -2.72 16 0 16 C0 10.72 0 5.44 0 0 Z " fill="#666699" transform="translate(286,338)"/>
<path d="M0 0 C2.64 0 5.28 0 8 0 C8 10.56 8 21.12 8 32 C-23.68 32 -55.36 32 -88 32 C-88 29.36 -88 26.72 -88 24 C-90.64 24 -93.28 24 -96 24 C-96 21.36 -96 18.72 -96 16 C-90.72 16 -85.44 16 -80 16 C-80 18.64 -80 21.28 -80 24 C-53.6 24 -27.2 24 0 24 C0 16.08 0 8.16 0 0 Z " fill="#FFFFCC" transform="translate(270,290)"/>
<path d="M0 0 C15.84 0 31.68 0 48 0 C48 2.64 48 5.28 48 8 C37.44 8 26.88 8 16 8 C16 10.64 16 13.28 16 16 C13.36 16 10.72 16 8 16 C8 18.64 8 21.28 8 24 C5.36 24 2.72 24 0 24 C0 26.64 0 29.28 0 32 C-7.92 32 -15.84 32 -24 32 C-24 26.72 -24 21.44 -24 16 C-21.36 16 -18.72 16 -16 16 C-16 13.36 -16 10.72 -16 8 C-10.72 8 -5.44 8 0 8 C0 5.36 0 2.72 0 0 Z " fill="#BFFFBF" transform="translate(190,130)"/>
<path d="M0 0 C2.64 0 5.28 0 8 0 C8 10.56 8 21.12 8 32 C13.28 32 18.56 32 24 32 C24 39.92 24 47.84 24 56 C18.72 56 13.44 56 8 56 C8 63.92 8 71.84 8 80 C5.36 80 2.72 80 0 80 C0 53.6 0 27.2 0 0 Z " fill="#434343" transform="translate(278,242)"/>
<path d="M0 0 C36.96 0 73.92 0 112 0 C112 2.64 112 5.28 112 8 C75.04 8 38.08 8 0 8 C0 5.36 0 2.72 0 0 Z " fill="#9999CC" transform="translate(166,234)"/>
<path d="M0 0 C5.28 0 10.56 0 16 0 C16 2.64 16 5.28 16 8 C42.4 8 68.8 8 96 8 C96 10.64 96 13.28 96 16 C66.96 16 37.92 16 8 16 C8 13.36 8 10.72 8 8 C5.36 8 2.72 8 0 8 C0 5.36 0 2.72 0 0 Z " fill="#EFD6C6" transform="translate(294,210)"/>
<path d="M0 0 C5.28 0 10.56 0 16 0 C16 2.64 16 5.28 16 8 C13.36 8 10.72 8 8 8 C8 13.28 8 18.56 8 24 C5.36 24 2.72 24 0 24 C0 26.64 0 29.28 0 32 C-2.64 32 -5.28 32 -8 32 C-8 34.64 -8 37.28 -8 40 C-10.64 40 -13.28 40 -16 40 C-16 42.64 -16 45.28 -16 48 C-18.64 48 -21.28 48 -24 48 C-24 40.08 -24 32.16 -24 24 C-21.36 24 -18.72 24 -16 24 C-16 21.36 -16 18.72 -16 16 C-13.36 16 -10.72 16 -8 16 C-8 13.36 -8 10.72 -8 8 C-5.36 8 -2.72 8 0 8 C0 5.36 0 2.72 0 0 Z " fill="#339900" transform="translate(222,138)"/>
<path d="M0 0 C5.28 0 10.56 0 16 0 C16 5.28 16 10.56 16 16 C18.64 16 21.28 16 24 16 C24 23.92 24 31.84 24 40 C18.72 40 13.44 40 8 40 C8 37.36 8 34.72 8 32 C5.36 32 2.72 32 0 32 C0 21.44 0 10.88 0 0 Z " fill="#666699" transform="translate(158,322)"/>
<path d="M0 0 C31.68 0 63.36 0 96 0 C96 2.64 96 5.28 96 8 C64.32 8 32.64 8 0 8 C0 5.36 0 2.72 0 0 Z " fill="#000033" transform="translate(302,322)"/>
<path d="M0 0 C2.64 0 5.28 0 8 0 C8 2.64 8 5.28 8 8 C10.64 8 13.28 8 16 8 C16 21.2 16 34.4 16 48 C13.36 48 10.72 48 8 48 C8 50.64 8 53.28 8 56 C5.36 56 2.72 56 0 56 C0 37.52 0 19.04 0 0 Z " fill="#99CCFF" transform="translate(166,250)"/>
<path d="M0 0 C10.56 0 21.12 0 32 0 C32 7.92 32 15.84 32 24 C21.44 24 10.88 24 0 24 C0 16.08 0 8.16 0 0 Z " fill="#99FFFF" transform="translate(318,154)"/>
<path d="M0 0 C2.64 0 5.28 0 8 0 C8 7.92 8 15.84 8 24 C5.36 24 2.72 24 0 24 C0 26.64 0 29.28 0 32 C-5.28 32 -10.56 32 -16 32 C-16 29.36 -16 26.72 -16 24 C-18.64 24 -21.28 24 -24 24 C-24 18.72 -24 13.44 -24 8 C-16.08 8 -8.16 8 0 8 C0 5.36 0 2.72 0 0 Z " fill="#33CC66" transform="translate(270,202)"/>
<path d="M0 0 C5.28 0 10.56 0 16 0 C16 2.64 16 5.28 16 8 C18.64 8 21.28 8 24 8 C24 18.56 24 29.12 24 40 C18.72 40 13.44 40 8 40 C8 29.44 8 18.88 8 8 C5.36 8 2.72 8 0 8 C0 5.36 0 2.72 0 0 Z " fill="#33CCFF" transform="translate(230,258)"/>
<path d="M0 0 C2.64 0 5.28 0 8 0 C8 21.12 8 42.24 8 64 C5.36 64 2.72 64 0 64 C0 50.8 0 37.6 0 24 C-2.64 24 -5.28 24 -8 24 C-8 18.72 -8 13.44 -8 8 C-5.36 8 -2.72 8 0 8 C0 5.36 0 2.72 0 0 Z " fill="#393939" transform="translate(158,242)"/>
<path d="M0 0 C5.28 0 10.56 0 16 0 C16 2.64 16 5.28 16 8 C18.64 8 21.28 8 24 8 C24 5.36 24 2.72 24 0 C31.92 0 39.84 0 48 0 C48 5.28 48 10.56 48 16 C34.8 16 21.6 16 8 16 C8 13.36 8 10.72 8 8 C5.36 8 2.72 8 0 8 C0 5.36 0 2.72 0 0 Z " fill="#CCCCCC" transform="translate(310,234)"/>
<path d="M0 0 C2.64 0 5.28 0 8 0 C8 2.64 8 5.28 8 8 C10.64 8 13.28 8 16 8 C16 13.28 16 18.56 16 24 C13.36 24 10.72 24 8 24 C8 26.64 8 29.28 8 32 C2.72 32 -2.56 32 -8 32 C-8 29.36 -8 26.72 -8 24 C-10.64 24 -13.28 24 -16 24 C-16 21.36 -16 18.72 -16 16 C-13.36 16 -10.72 16 -8 16 C-8 13.36 -8 10.72 -8 8 C-5.36 8 -2.72 8 0 8 C0 5.36 0 2.72 0 0 Z " fill="#33CC33" transform="translate(262,162)"/>
<path d="M0 0 C21.12 0 42.24 0 64 0 C64 2.64 64 5.28 64 8 C58.72 8 53.44 8 48 8 C48 10.64 48 13.28 48 16 C42.72 16 37.44 16 32 16 C32 13.36 32 10.72 32 8 C21.44 8 10.88 8 0 8 C0 5.36 0 2.72 0 0 Z " fill="#33CC33" transform="translate(206,122)"/>
<path d="M0 0 C23.76 0 47.52 0 72 0 C72 2.64 72 5.28 72 8 C48.24 8 24.48 8 0 8 C0 5.36 0 2.72 0 0 Z " fill="#3366CC" transform="translate(198,306)"/>
<path d="M0 0 C10.56 0 21.12 0 32 0 C32 2.64 32 5.28 32 8 C29.36 8 26.72 8 24 8 C24 13.28 24 18.56 24 24 C18.72 24 13.44 24 8 24 C8 21.36 8 18.72 8 16 C5.36 16 2.72 16 0 16 C0 10.72 0 5.44 0 0 Z " fill="#99FFFF" transform="translate(198,258)"/>
<path d="M0 0 C10.56 0 21.12 0 32 0 C32 15.84 32 31.68 32 48 C29.36 48 26.72 48 24 48 C24 34.8 24 21.6 24 8 C16.08 8 8.16 8 0 8 C0 5.36 0 2.72 0 0 Z " fill="#FFFBF0" transform="translate(246,242)"/>
<path d="M0 0 C21.12 0 42.24 0 64 0 C64 2.64 64 5.28 64 8 C42.88 8 21.76 8 0 8 C0 5.36 0 2.72 0 0 Z " fill="#000033" transform="translate(206,250)"/>
<path d="M0 0 C2.64 0 5.28 0 8 0 C8 10.56 8 21.12 8 32 C13.28 32 18.56 32 24 32 C24 34.64 24 37.28 24 40 C21.36 40 18.72 40 16 40 C16 42.64 16 45.28 16 48 C13.36 48 10.72 48 8 48 C8 45.36 8 42.72 8 40 C5.36 40 2.72 40 0 40 C0 26.8 0 13.6 0 0 Z " fill="#A6CAF0" transform="translate(142,186)"/>
<path d="M0 0 C5.28 0 10.56 0 16 0 C16 2.64 16 5.28 16 8 C13.36 8 10.72 8 8 8 C8 18.56 8 29.12 8 40 C10.64 40 13.28 40 16 40 C16 42.64 16 45.28 16 48 C10.72 48 5.44 48 0 48 C0 32.16 0 16.32 0 0 Z " fill="#6666CC" transform="translate(310,146)"/>
<path d="M0 0 C5.28 0 10.56 0 16 0 C16 2.64 16 5.28 16 8 C13.36 8 10.72 8 8 8 C8 10.64 8 13.28 8 16 C5.36 16 2.72 16 0 16 C0 18.64 0 21.28 0 24 C-2.64 24 -5.28 24 -8 24 C-8 29.28 -8 34.56 -8 40 C-10.64 40 -13.28 40 -16 40 C-16 32.08 -16 24.16 -16 16 C-13.36 16 -10.72 16 -8 16 C-8 13.36 -8 10.72 -8 8 C-5.36 8 -2.72 8 0 8 C0 5.36 0 2.72 0 0 Z " fill="#33CC33" transform="translate(206,138)"/>
<path d="M0 0 C2.64 0 5.28 0 8 0 C8 21.12 8 42.24 8 64 C5.36 64 2.72 64 0 64 C0 42.88 0 21.76 0 0 Z " fill="#1C1C1C" transform="translate(382,138)"/>
<path d="M0 0 C7.92 0 15.84 0 24 0 C24 5.28 24 10.56 24 16 C21.36 16 18.72 16 16 16 C16 18.64 16 21.28 16 24 C13.36 24 10.72 24 8 24 C8 21.36 8 18.72 8 16 C5.36 16 2.72 16 0 16 C0 10.72 0 5.44 0 0 Z " fill="#996666" transform="translate(254,346)"/>
<path d="M0 0 C5.28 0 10.56 0 16 0 C16 2.64 16 5.28 16 8 C13.36 8 10.72 8 8 8 C8 21.2 8 34.4 8 48 C5.36 48 2.72 48 0 48 C0 32.16 0 16.32 0 0 Z " fill="#6666CC" transform="translate(190,250)"/>
<path d="M0 0 C18.48 0 36.96 0 56 0 C56 2.64 56 5.28 56 8 C37.52 8 19.04 8 0 8 C0 5.36 0 2.72 0 0 Z " fill="#F1F1F1" transform="translate(318,194)"/>
<path d="M0 0 C2.64 0 5.28 0 8 0 C8 18.48 8 36.96 8 56 C5.36 56 2.72 56 0 56 C0 37.52 0 19.04 0 0 Z " fill="#969696" transform="translate(286,138)"/>
<path d="M0 0 C2.64 0 5.28 0 8 0 C8 18.48 8 36.96 8 56 C5.36 56 2.72 56 0 56 C0 37.52 0 19.04 0 0 Z " fill="#393939" transform="translate(278,138)"/>
<path d="M0 0 C5.28 0 10.56 0 16 0 C16 2.64 16 5.28 16 8 C23.92 8 31.84 8 40 8 C40 10.64 40 13.28 40 16 C29.44 16 18.88 16 8 16 C8 13.36 8 10.72 8 8 C5.36 8 2.72 8 0 8 C0 5.36 0 2.72 0 0 Z " fill="#CC99CC" transform="translate(174,330)"/>
<path d="M0 0 C5.28 0 10.56 0 16 0 C16 2.64 16 5.28 16 8 C13.36 8 10.72 8 8 8 C8 13.28 8 18.56 8 24 C5.36 24 2.72 24 0 24 C0 26.64 0 29.28 0 32 C-2.64 32 -5.28 32 -8 32 C-8 26.72 -8 21.44 -8 16 C-5.36 16 -2.72 16 0 16 C0 10.72 0 5.44 0 0 Z " fill="#000000" transform="translate(310,258)"/>
<path d="M0 0 C2.64 0 5.28 0 8 0 C8 5.28 8 10.56 8 16 C5.36 16 2.72 16 0 16 C0 21.28 0 26.56 0 32 C-2.64 32 -5.28 32 -8 32 C-8 29.36 -8 26.72 -8 24 C-10.64 24 -13.28 24 -16 24 C-16 21.36 -16 18.72 -16 16 C-13.36 16 -10.72 16 -8 16 C-8 13.36 -8 10.72 -8 8 C-5.36 8 -2.72 8 0 8 C0 5.36 0 2.72 0 0 Z " fill="#336600" transform="translate(310,242)"/>
<path d="M0 0 C15.84 0 31.68 0 48 0 C48 2.64 48 5.28 48 8 C32.16 8 16.32 8 0 8 C0 5.36 0 2.72 0 0 Z " fill="#FFFFCC" transform="translate(198,242)"/>
<path d="M0 0 C2.64 0 5.28 0 8 0 C8 2.64 8 5.28 8 8 C13.28 8 18.56 8 24 8 C24 10.64 24 13.28 24 16 C21.36 16 18.72 16 16 16 C16 18.64 16 21.28 16 24 C10.72 24 5.44 24 0 24 C0 16.08 0 8.16 0 0 Z " fill="#66FF99" transform="translate(142,226)"/>
<path d="M0 0 C2.64 0 5.28 0 8 0 C8 15.84 8 31.68 8 48 C5.36 48 2.72 48 0 48 C0 32.16 0 16.32 0 0 Z " fill="#FBFBFB" transform="translate(374,154)"/>
<path d="M0 0 C2.64 0 5.28 0 8 0 C8 15.84 8 31.68 8 48 C5.36 48 2.72 48 0 48 C0 32.16 0 16.32 0 0 Z " fill="#CCCCFF" transform="translate(294,146)"/>
<path d="M0 0 C15.84 0 31.68 0 48 0 C48 2.64 48 5.28 48 8 C32.16 8 16.32 8 0 8 C0 5.36 0 2.72 0 0 Z " fill="#393939" transform="translate(326,146)"/>
<path d="M0 0 C10.56 0 21.12 0 32 0 C32 2.64 32 5.28 32 8 C29.36 8 26.72 8 24 8 C24 10.64 24 13.28 24 16 C21.36 16 18.72 16 16 16 C16 13.36 16 10.72 16 8 C10.72 8 5.44 8 0 8 C0 5.36 0 2.72 0 0 Z " fill="#C0C0C0" transform="translate(222,354)"/>
<path d="M0 0 C5.28 0 10.56 0 16 0 C16 2.64 16 5.28 16 8 C21.28 8 26.56 8 32 8 C32 10.64 32 13.28 32 16 C24.08 16 16.16 16 8 16 C8 13.36 8 10.72 8 8 C5.36 8 2.72 8 0 8 C0 5.36 0 2.72 0 0 Z " fill="#FFFFCC" transform="translate(174,306)"/>
<path d="M0 0 C13.2 0 26.4 0 40 0 C40 2.64 40 5.28 40 8 C26.8 8 13.6 8 0 8 C0 5.36 0 2.72 0 0 Z " fill="#000033" transform="translate(358,290)"/>
<path d="M0 0 C5.28 0 10.56 0 16 0 C16 2.64 16 5.28 16 8 C18.64 8 21.28 8 24 8 C24 10.64 24 13.28 24 16 C16.08 16 8.16 16 0 16 C0 10.72 0 5.44 0 0 Z " fill="#99CCCC" transform="translate(374,274)"/>
<path d="M0 0 C7.92 0 15.84 0 24 0 C24 2.64 24 5.28 24 8 C18.72 8 13.44 8 8 8 C8 10.64 8 13.28 8 16 C2.72 16 -2.56 16 -8 16 C-8 13.36 -8 10.72 -8 8 C-5.36 8 -2.72 8 0 8 C0 5.36 0 2.72 0 0 Z " fill="#1C1C1C" transform="translate(302,226)"/>
<path d="M0 0 C2.64 0 5.28 0 8 0 C8 10.56 8 21.12 8 32 C5.36 32 2.72 32 0 32 C0 26.72 0 21.44 0 16 C-2.64 16 -5.28 16 -8 16 C-8 13.36 -8 10.72 -8 8 C-5.36 8 -2.72 8 0 8 C0 5.36 0 2.72 0 0 Z " fill="#333366" transform="translate(390,218)"/>
<path d="M0 0 C2.64 0 5.28 0 8 0 C8 5.28 8 10.56 8 16 C10.64 16 13.28 16 16 16 C16 21.28 16 26.56 16 32 C13.36 32 10.72 32 8 32 C8 29.36 8 26.72 8 24 C5.36 24 2.72 24 0 24 C0 16.08 0 8.16 0 0 Z " fill="#777777" transform="translate(286,202)"/>
<path d="M0 0 C2.64 0 5.28 0 8 0 C8 2.64 8 5.28 8 8 C10.64 8 13.28 8 16 8 C16 10.64 16 13.28 16 16 C10.72 16 5.44 16 0 16 C0 18.64 0 21.28 0 24 C-2.64 24 -5.28 24 -8 24 C-8 18.72 -8 13.44 -8 8 C-5.36 8 -2.72 8 0 8 C0 5.36 0 2.72 0 0 Z " fill="#3366FF" transform="translate(270,186)"/>
<path d="M0 0 C2.64 0 5.28 0 8 0 C8 7.92 8 15.84 8 24 C5.36 24 2.72 24 0 24 C0 21.36 0 18.72 0 16 C-5.28 16 -10.56 16 -16 16 C-16 13.36 -16 10.72 -16 8 C-10.72 8 -5.44 8 0 8 C0 5.36 0 2.72 0 0 Z " fill="#0099FF" transform="translate(270,146)"/>
<path d="M0 0 C2.64 0 5.28 0 8 0 C8 7.92 8 15.84 8 24 C2.72 24 -2.56 24 -8 24 C-8 21.36 -8 18.72 -8 16 C-5.36 16 -2.72 16 0 16 C0 10.72 0 5.44 0 0 Z " fill="#808080" transform="translate(286,338)"/>
<path d="M0 0 C10.56 0 21.12 0 32 0 C32 2.64 32 5.28 32 8 C21.44 8 10.88 8 0 8 C0 5.36 0 2.72 0 0 Z " fill="#663333" transform="translate(190,330)"/>
<path d="M0 0 C2.64 0 5.28 0 8 0 C8 10.56 8 21.12 8 32 C5.36 32 2.72 32 0 32 C0 21.44 0 10.88 0 0 Z " fill="#333300" transform="translate(158,322)"/>
<path d="M0 0 C5.28 0 10.56 0 16 0 C16 2.64 16 5.28 16 8 C18.64 8 21.28 8 24 8 C24 10.64 24 13.28 24 16 C18.72 16 13.44 16 8 16 C8 13.36 8 10.72 8 8 C5.36 8 2.72 8 0 8 C0 5.36 0 2.72 0 0 Z " fill="#333300" transform="translate(158,306)"/>
<path d="M0 0 C2.64 0 5.28 0 8 0 C8 2.64 8 5.28 8 8 C10.64 8 13.28 8 16 8 C16 10.64 16 13.28 16 16 C13.36 16 10.72 16 8 16 C8 18.64 8 21.28 8 24 C5.36 24 2.72 24 0 24 C0 16.08 0 8.16 0 0 Z " fill="#B2B2B2" transform="translate(166,282)"/>
<path d="M0 0 C5.28 0 10.56 0 16 0 C16 5.28 16 10.56 16 16 C10.72 16 5.44 16 0 16 C0 10.72 0 5.44 0 0 Z " fill="#0033CC" transform="translate(286,274)"/>
<path d="M0 0 C2.64 0 5.28 0 8 0 C8 10.56 8 21.12 8 32 C5.36 32 2.72 32 0 32 C0 21.44 0 10.88 0 0 Z " fill="#CCFFFF" transform="translate(270,258)"/>
<path d="M0 0 C2.64 0 5.28 0 8 0 C8 10.56 8 21.12 8 32 C5.36 32 2.72 32 0 32 C0 21.44 0 10.88 0 0 Z " fill="#3366CC" transform="translate(262,266)"/>
<path d="M0 0 C7.92 0 15.84 0 24 0 C24 2.64 24 5.28 24 8 C21.36 8 18.72 8 16 8 C16 10.64 16 13.28 16 16 C13.36 16 10.72 16 8 16 C8 13.36 8 10.72 8 8 C5.36 8 2.72 8 0 8 C0 5.36 0 2.72 0 0 Z " fill="#3399FF" transform="translate(246,258)"/>
<path d="M0 0 C5.28 0 10.56 0 16 0 C16 7.92 16 15.84 16 24 C13.36 24 10.72 24 8 24 C8 18.72 8 13.44 8 8 C5.36 8 2.72 8 0 8 C0 5.36 0 2.72 0 0 Z " fill="#66CCFF" transform="translate(230,258)"/>
<path d="M0 0 C5.28 0 10.56 0 16 0 C16 5.28 16 10.56 16 16 C10.72 16 5.44 16 0 16 C0 10.72 0 5.44 0 0 Z " fill="#969696" transform="translate(358,234)"/>
<path d="M0 0 C5.28 0 10.56 0 16 0 C16 2.64 16 5.28 16 8 C18.64 8 21.28 8 24 8 C24 10.64 24 13.28 24 16 C18.72 16 13.44 16 8 16 C8 13.36 8 10.72 8 8 C5.36 8 2.72 8 0 8 C0 5.36 0 2.72 0 0 Z " fill="#CCCC99" transform="translate(310,234)"/>
<path d="M0 0 C10.56 0 21.12 0 32 0 C32 2.64 32 5.28 32 8 C21.44 8 10.88 8 0 8 C0 5.36 0 2.72 0 0 Z " fill="#D7D7D7" transform="translate(358,218)"/>
<path d="M0 0 C5.28 0 10.56 0 16 0 C16 7.92 16 15.84 16 24 C13.36 24 10.72 24 8 24 C8 18.72 8 13.44 8 8 C5.36 8 2.72 8 0 8 C0 5.36 0 2.72 0 0 Z " fill="#006600" transform="translate(182,210)"/>
<path d="M0 0 C5.28 0 10.56 0 16 0 C16 2.64 16 5.28 16 8 C13.36 8 10.72 8 8 8 C8 10.64 8 13.28 8 16 C2.72 16 -2.56 16 -8 16 C-8 13.36 -8 10.72 -8 8 C-5.36 8 -2.72 8 0 8 C0 5.36 0 2.72 0 0 Z " fill="#CCFF99" transform="translate(166,202)"/>
<path d="M0 0 C10.56 0 21.12 0 32 0 C32 2.64 32 5.28 32 8 C21.44 8 10.88 8 0 8 C0 5.36 0 2.72 0 0 Z " fill="#6699FF" transform="translate(326,186)"/>
<path d="M0 0 C5.28 0 10.56 0 16 0 C16 5.28 16 10.56 16 16 C10.72 16 5.44 16 0 16 C0 10.72 0 5.44 0 0 Z " fill="#336600" transform="translate(230,186)"/>
<path d="M0 0 C5.28 0 10.56 0 16 0 C16 2.64 16 5.28 16 8 C13.36 8 10.72 8 8 8 C8 10.64 8 13.28 8 16 C2.72 16 -2.56 16 -8 16 C-8 13.36 -8 10.72 -8 8 C-5.36 8 -2.72 8 0 8 C0 5.36 0 2.72 0 0 Z " fill="#33FFFF" transform="translate(174,186)"/>
<path d="M0 0 C5.28 0 10.56 0 16 0 C16 2.64 16 5.28 16 8 C13.36 8 10.72 8 8 8 C8 10.64 8 13.28 8 16 C2.72 16 -2.56 16 -8 16 C-8 13.36 -8 10.72 -8 8 C-5.36 8 -2.72 8 0 8 C0 5.36 0 2.72 0 0 Z " fill="#336600" transform="translate(262,178)"/>
<path d="M0 0 C5.28 0 10.56 0 16 0 C16 5.28 16 10.56 16 16 C10.72 16 5.44 16 0 16 C0 10.72 0 5.44 0 0 Z " fill="#FFFFFF" transform="translate(150,170)"/>
<path d="M0 0 C5.28 0 10.56 0 16 0 C16 2.64 16 5.28 16 8 C13.36 8 10.72 8 8 8 C8 13.28 8 18.56 8 24 C5.36 24 2.72 24 0 24 C0 16.08 0 8.16 0 0 Z " fill="#66CCFF" transform="translate(350,154)"/>
<path d="M0 0 C5.28 0 10.56 0 16 0 C16 2.64 16 5.28 16 8 C13.36 8 10.72 8 8 8 C8 10.64 8 13.28 8 16 C2.72 16 -2.56 16 -8 16 C-8 13.36 -8 10.72 -8 8 C-5.36 8 -2.72 8 0 8 C0 5.36 0 2.72 0 0 Z " fill="#339900" transform="translate(222,138)"/>
<path d="M0 0 C5.28 0 10.56 0 16 0 C16 2.64 16 5.28 16 8 C13.36 8 10.72 8 8 8 C8 10.64 8 13.28 8 16 C2.72 16 -2.56 16 -8 16 C-8 13.36 -8 10.72 -8 8 C-5.36 8 -2.72 8 0 8 C0 5.36 0 2.72 0 0 Z " fill="#33CC33" transform="translate(206,138)"/>
<path d="M0 0 C5.28 0 10.56 0 16 0 C16 2.64 16 5.28 16 8 C13.36 8 10.72 8 8 8 C8 10.64 8 13.28 8 16 C2.72 16 -2.56 16 -8 16 C-8 13.36 -8 10.72 -8 8 C-5.36 8 -2.72 8 0 8 C0 5.36 0 2.72 0 0 Z " fill="#FFFFFF" transform="translate(174,138)"/>
<path d="M0 0 C2.64 0 5.28 0 8 0 C8 2.64 8 5.28 8 8 C10.64 8 13.28 8 16 8 C16 10.64 16 13.28 16 16 C10.72 16 5.44 16 0 16 C0 10.72 0 5.44 0 0 Z " fill="#777777" transform="translate(254,362)"/>
<path d="M0 0 C7.92 0 15.84 0 24 0 C24 2.64 24 5.28 24 8 C16.08 8 8.16 8 0 8 C0 5.36 0 2.72 0 0 Z " fill="#B2B2B2" transform="translate(214,362)"/>
<path d="M0 0 C5.28 0 10.56 0 16 0 C16 2.64 16 5.28 16 8 C13.36 8 10.72 8 8 8 C8 10.64 8 13.28 8 16 C5.36 16 2.72 16 0 16 C0 10.72 0 5.44 0 0 Z " fill="#4D4D4D" transform="translate(254,346)"/>
<path d="M0 0 C5.28 0 10.56 0 16 0 C16 2.64 16 5.28 16 8 C13.36 8 10.72 8 8 8 C8 10.64 8 13.28 8 16 C5.36 16 2.72 16 0 16 C0 10.72 0 5.44 0 0 Z " fill="#666633" transform="translate(206,354)"/>
<path d="M0 0 C2.64 0 5.28 0 8 0 C8 5.28 8 10.56 8 16 C2.72 16 -2.56 16 -8 16 C-8 13.36 -8 10.72 -8 8 C-5.36 8 -2.72 8 0 8 C0 5.36 0 2.72 0 0 Z " fill="#222222" transform="translate(182,354)"/>
<path d="M0 0 C7.92 0 15.84 0 24 0 C24 2.64 24 5.28 24 8 C16.08 8 8.16 8 0 8 C0 5.36 0 2.72 0 0 Z " fill="#161616" transform="translate(246,330)"/>
<path d="M0 0 C7.92 0 15.84 0 24 0 C24 2.64 24 5.28 24 8 C16.08 8 8.16 8 0 8 C0 5.36 0 2.72 0 0 Z " fill="#ADA990" transform="translate(222,330)"/>
<path d="M0 0 C2.64 0 5.28 0 8 0 C8 7.92 8 15.84 8 24 C5.36 24 2.72 24 0 24 C0 16.08 0 8.16 0 0 Z " fill="#FAFAFA" transform="translate(270,290)"/>
<path d="M0 0 C2.64 0 5.28 0 8 0 C8 5.28 8 10.56 8 16 C2.72 16 -2.56 16 -8 16 C-8 13.36 -8 10.72 -8 8 C-5.36 8 -2.72 8 0 8 C0 5.36 0 2.72 0 0 Z " fill="#FFFFFF" transform="translate(182,290)"/>
<path d="M0 0 C2.64 0 5.28 0 8 0 C8 7.92 8 15.84 8 24 C5.36 24 2.72 24 0 24 C0 16.08 0 8.16 0 0 Z " fill="#6699CC" transform="translate(190,274)"/>
<path d="M0 0 C5.28 0 10.56 0 16 0 C16 2.64 16 5.28 16 8 C13.36 8 10.72 8 8 8 C8 10.64 8 13.28 8 16 C5.36 16 2.72 16 0 16 C0 10.72 0 5.44 0 0 Z " fill="#666633" transform="translate(326,226)"/>
<path d="M0 0 C2.64 0 5.28 0 8 0 C8 7.92 8 15.84 8 24 C5.36 24 2.72 24 0 24 C0 16.08 0 8.16 0 0 Z " fill="#33CC33" transform="translate(142,226)"/>
<path d="M0 0 C7.92 0 15.84 0 24 0 C24 2.64 24 5.28 24 8 C16.08 8 8.16 8 0 8 C0 5.36 0 2.72 0 0 Z " fill="#777777" transform="translate(334,210)"/>
<path d="M0 0 C5.28 0 10.56 0 16 0 C16 5.28 16 10.56 16 16 C13.36 16 10.72 16 8 16 C8 13.36 8 10.72 8 8 C5.36 8 2.72 8 0 8 C0 5.36 0 2.72 0 0 Z " fill="#CC99CC" transform="translate(294,210)"/>
<path d="M0 0 C2.64 0 5.28 0 8 0 C8 7.92 8 15.84 8 24 C5.36 24 2.72 24 0 24 C0 16.08 0 8.16 0 0 Z " fill="#333333" transform="translate(278,202)"/>
<path d="M0 0 C2.64 0 5.28 0 8 0 C8 5.28 8 10.56 8 16 C2.72 16 -2.56 16 -8 16 C-8 13.36 -8 10.72 -8 8 C-5.36 8 -2.72 8 0 8 C0 5.36 0 2.72 0 0 Z " fill="#339900" transform="translate(270,202)"/>
<path d="M0 0 C2.64 0 5.28 0 8 0 C8 5.28 8 10.56 8 16 C2.72 16 -2.56 16 -8 16 C-8 13.36 -8 10.72 -8 8 C-5.36 8 -2.72 8 0 8 C0 5.36 0 2.72 0 0 Z " fill="#99FF99" transform="translate(174,210)"/>
<path d="M0 0 C5.28 0 10.56 0 16 0 C16 5.28 16 10.56 16 16 C13.36 16 10.72 16 8 16 C8 13.36 8 10.72 8 8 C5.36 8 2.72 8 0 8 C0 5.36 0 2.72 0 0 Z " fill="#333300" transform="translate(286,194)"/>
<path d="M0 0 C2.64 0 5.28 0 8 0 C8 2.64 8 5.28 8 8 C10.64 8 13.28 8 16 8 C16 10.64 16 13.28 16 16 C10.72 16 5.44 16 0 16 C0 10.72 0 5.44 0 0 Z " fill="#66FFFF" transform="translate(334,162)"/>
<path d="M0 0 C2.64 0 5.28 0 8 0 C8 2.64 8 5.28 8 8 C10.64 8 13.28 8 16 8 C16 10.64 16 13.28 16 16 C10.72 16 5.44 16 0 16 C0 10.72 0 5.44 0 0 Z " fill="#A6CAF0" transform="translate(158,154)"/>
<path d="M0 0 C2.64 0 5.28 0 8 0 C8 5.28 8 10.56 8 16 C5.36 16 2.72 16 0 16 C0 10.72 0 5.44 0 0 Z " fill="#666699" transform="translate(270,362)"/>
<path d="M0 0 C2.64 0 5.28 0 8 0 C8 5.28 8 10.56 8 16 C5.36 16 2.72 16 0 16 C0 10.72 0 5.44 0 0 Z " fill="#424242" transform="translate(294,362)"/>
<path d="M0 0 C5.28 0 10.56 0 16 0 C16 2.64 16 5.28 16 8 C10.72 8 5.44 8 0 8 C0 5.36 0 2.72 0 0 Z " fill="#9999CC" transform="translate(278,362)"/>
<path d="M0 0 C2.64 0 5.28 0 8 0 C8 5.28 8 10.56 8 16 C5.36 16 2.72 16 0 16 C0 10.72 0 5.44 0 0 Z " fill="#9999CC" transform="translate(246,362)"/>
<path d="M0 0 C5.28 0 10.56 0 16 0 C16 2.64 16 5.28 16 8 C10.72 8 5.44 8 0 8 C0 5.36 0 2.72 0 0 Z " fill="#E3E3E3" transform="translate(222,354)"/>
<path d="M0 0 C2.64 0 5.28 0 8 0 C8 5.28 8 10.56 8 16 C5.36 16 2.72 16 0 16 C0 10.72 0 5.44 0 0 Z " fill="#333366" transform="translate(286,338)"/>
<path d="M0 0 C5.28 0 10.56 0 16 0 C16 2.64 16 5.28 16 8 C10.72 8 5.44 8 0 8 C0 5.36 0 2.72 0 0 Z " fill="#C0C0C0" transform="translate(270,330)"/>
<path d="M0 0 C2.64 0 5.28 0 8 0 C8 5.28 8 10.56 8 16 C5.36 16 2.72 16 0 16 C0 10.72 0 5.44 0 0 Z " fill="#808000" transform="translate(166,322)"/>
<path d="M0 0 C2.64 0 5.28 0 8 0 C8 5.28 8 10.56 8 16 C5.36 16 2.72 16 0 16 C0 10.72 0 5.44 0 0 Z " fill="#161616" transform="translate(278,306)"/>
<path d="M0 0 C5.28 0 10.56 0 16 0 C16 2.64 16 5.28 16 8 C10.72 8 5.44 8 0 8 C0 5.36 0 2.72 0 0 Z " fill="#DDDDDD" transform="translate(190,314)"/>
<path d="M0 0 C5.28 0 10.56 0 16 0 C16 2.64 16 5.28 16 8 C10.72 8 5.44 8 0 8 C0 5.36 0 2.72 0 0 Z " fill="#000033" transform="translate(358,306)"/>
<path d="M0 0 C5.28 0 10.56 0 16 0 C16 2.64 16 5.28 16 8 C10.72 8 5.44 8 0 8 C0 5.36 0 2.72 0 0 Z " fill="#99CCCC" transform="translate(358,298)"/>
<path d="M0 0 C5.28 0 10.56 0 16 0 C16 2.64 16 5.28 16 8 C10.72 8 5.44 8 0 8 C0 5.36 0 2.72 0 0 Z " fill="#000033" transform="translate(342,298)"/>
<path d="M0 0 C5.28 0 10.56 0 16 0 C16 2.64 16 5.28 16 8 C10.72 8 5.44 8 0 8 C0 5.36 0 2.72 0 0 Z " fill="#000033" transform="translate(326,290)"/>
<path d="M0 0 C5.28 0 10.56 0 16 0 C16 2.64 16 5.28 16 8 C10.72 8 5.44 8 0 8 C0 5.36 0 2.72 0 0 Z " fill="#000000" transform="translate(286,290)"/>
<path d="M0 0 C5.28 0 10.56 0 16 0 C16 2.64 16 5.28 16 8 C10.72 8 5.44 8 0 8 C0 5.36 0 2.72 0 0 Z " fill="#000033" transform="translate(358,274)"/>
<path d="M0 0 C5.28 0 10.56 0 16 0 C16 2.64 16 5.28 16 8 C10.72 8 5.44 8 0 8 C0 5.36 0 2.72 0 0 Z " fill="#99CCCC" transform="translate(358,266)"/>
<path d="M0 0 C5.28 0 10.56 0 16 0 C16 2.64 16 5.28 16 8 C10.72 8 5.44 8 0 8 C0 5.36 0 2.72 0 0 Z " fill="#000033" transform="translate(342,266)"/>
<path d="M0 0 C5.28 0 10.56 0 16 0 C16 2.64 16 5.28 16 8 C10.72 8 5.44 8 0 8 C0 5.36 0 2.72 0 0 Z " fill="#003300" transform="translate(286,266)"/>
<path d="M0 0 C2.64 0 5.28 0 8 0 C8 5.28 8 10.56 8 16 C5.36 16 2.72 16 0 16 C0 10.72 0 5.44 0 0 Z " fill="#99FFFF" transform="translate(270,258)"/>
<path d="M0 0 C5.28 0 10.56 0 16 0 C16 2.64 16 5.28 16 8 C10.72 8 5.44 8 0 8 C0 5.36 0 2.72 0 0 Z " fill="#99CCCC" transform="translate(342,258)"/>
<path d="M0 0 C2.64 0 5.28 0 8 0 C8 5.28 8 10.56 8 16 C5.36 16 2.72 16 0 16 C0 10.72 0 5.44 0 0 Z " fill="#CCCCFF" transform="translate(174,258)"/>
<path d="M0 0 C2.64 0 5.28 0 8 0 C8 5.28 8 10.56 8 16 C5.36 16 2.72 16 0 16 C0 10.72 0 5.44 0 0 Z " fill="#CCECFF" transform="translate(270,242)"/>
<path d="M0 0 C5.28 0 10.56 0 16 0 C16 2.64 16 5.28 16 8 C10.72 8 5.44 8 0 8 C0 5.36 0 2.72 0 0 Z " fill="#6666CC" transform="translate(190,250)"/>
<path d="M0 0 C2.64 0 5.28 0 8 0 C8 5.28 8 10.56 8 16 C5.36 16 2.72 16 0 16 C0 10.72 0 5.44 0 0 Z " fill="#33CC33" transform="translate(150,250)"/>
<path d="M0 0 C2.64 0 5.28 0 8 0 C8 5.28 8 10.56 8 16 C5.36 16 2.72 16 0 16 C0 10.72 0 5.44 0 0 Z " fill="#868686" transform="translate(382,234)"/>
<path d="M0 0 C2.64 0 5.28 0 8 0 C8 5.28 8 10.56 8 16 C5.36 16 2.72 16 0 16 C0 10.72 0 5.44 0 0 Z " fill="#868686" transform="translate(358,234)"/>
<path d="M0 0 C5.28 0 10.56 0 16 0 C16 2.64 16 5.28 16 8 C10.72 8 5.44 8 0 8 C0 5.36 0 2.72 0 0 Z " fill="#EFD6C6" transform="translate(342,218)"/>
<path d="M0 0 C2.64 0 5.28 0 8 0 C8 5.28 8 10.56 8 16 C5.36 16 2.72 16 0 16 C0 10.72 0 5.44 0 0 Z " fill="#33FF66" transform="translate(182,218)"/>
<path d="M0 0 C5.28 0 10.56 0 16 0 C16 2.64 16 5.28 16 8 C10.72 8 5.44 8 0 8 C0 5.36 0 2.72 0 0 Z " fill="#333366" transform="translate(374,210)"/>
<path d="M0 0 C5.28 0 10.56 0 16 0 C16 2.64 16 5.28 16 8 C10.72 8 5.44 8 0 8 C0 5.36 0 2.72 0 0 Z " fill="#000000" transform="translate(358,210)"/>
<path d="M0 0 C5.28 0 10.56 0 16 0 C16 2.64 16 5.28 16 8 C10.72 8 5.44 8 0 8 C0 5.36 0 2.72 0 0 Z " fill="#080808" transform="translate(318,210)"/>
<path d="M0 0 C2.64 0 5.28 0 8 0 C8 5.28 8 10.56 8 16 C5.36 16 2.72 16 0 16 C0 10.72 0 5.44 0 0 Z " fill="#008000" transform="translate(246,210)"/>
<path d="M0 0 C5.28 0 10.56 0 16 0 C16 2.64 16 5.28 16 8 C10.72 8 5.44 8 0 8 C0 5.36 0 2.72 0 0 Z " fill="#33CC33" transform="translate(166,202)"/>
<path d="M0 0 C5.28 0 10.56 0 16 0 C16 2.64 16 5.28 16 8 C10.72 8 5.44 8 0 8 C0 5.36 0 2.72 0 0 Z " fill="#F1F1F1" transform="translate(302,194)"/>
<path d="M0 0 C5.28 0 10.56 0 16 0 C16 2.64 16 5.28 16 8 C10.72 8 5.44 8 0 8 C0 5.36 0 2.72 0 0 Z " fill="#3366CC" transform="translate(310,186)"/>
<path d="M0 0 C2.64 0 5.28 0 8 0 C8 5.28 8 10.56 8 16 C5.36 16 2.72 16 0 16 C0 10.72 0 5.44 0 0 Z " fill="#008000" transform="translate(230,186)"/>
<path d="M0 0 C2.64 0 5.28 0 8 0 C8 5.28 8 10.56 8 16 C5.36 16 2.72 16 0 16 C0 10.72 0 5.44 0 0 Z " fill="#FFFFFF" transform="translate(150,186)"/>
<path d="M0 0 C5.28 0 10.56 0 16 0 C16 2.64 16 5.28 16 8 C10.72 8 5.44 8 0 8 C0 5.36 0 2.72 0 0 Z " fill="#33CC33" transform="translate(246,178)"/>
<path d="M0 0 C2.64 0 5.28 0 8 0 C8 5.28 8 10.56 8 16 C5.36 16 2.72 16 0 16 C0 10.72 0 5.44 0 0 Z " fill="#A6CAF0" transform="translate(150,170)"/>
<path d="M0 0 C2.64 0 5.28 0 8 0 C8 5.28 8 10.56 8 16 C5.36 16 2.72 16 0 16 C0 10.72 0 5.44 0 0 Z " fill="#99FFFF" transform="translate(374,154)"/>
<path d="M0 0 C2.64 0 5.28 0 8 0 C8 5.28 8 10.56 8 16 C5.36 16 2.72 16 0 16 C0 10.72 0 5.44 0 0 Z " fill="#33CCFF" transform="translate(358,162)"/>
<path d="M0 0 C5.28 0 10.56 0 16 0 C16 2.64 16 5.28 16 8 C10.72 8 5.44 8 0 8 C0 5.36 0 2.72 0 0 Z " fill="#3366FF" transform="translate(254,154)"/>
<path d="M0 0 C5.28 0 10.56 0 16 0 C16 2.64 16 5.28 16 8 C10.72 8 5.44 8 0 8 C0 5.36 0 2.72 0 0 Z " fill="#CCFFCC" transform="translate(166,154)"/>
<path d="M0 0 C2.64 0 5.28 0 8 0 C8 5.28 8 10.56 8 16 C5.36 16 2.72 16 0 16 C0 10.72 0 5.44 0 0 Z " fill="#CCECFF" transform="translate(374,138)"/>
<path d="M0 0 C5.28 0 10.56 0 16 0 C16 2.64 16 5.28 16 8 C10.72 8 5.44 8 0 8 C0 5.36 0 2.72 0 0 Z " fill="#4D4D4D" transform="translate(358,146)"/>
<path d="M0 0 C5.28 0 10.56 0 16 0 C16 2.64 16 5.28 16 8 C10.72 8 5.44 8 0 8 C0 5.36 0 2.72 0 0 Z " fill="#336600" transform="translate(254,146)"/>
<path d="M0 0 C5.28 0 10.56 0 16 0 C16 2.64 16 5.28 16 8 C10.72 8 5.44 8 0 8 C0 5.36 0 2.72 0 0 Z " fill="#336600" transform="translate(230,146)"/>
<path d="M0 0 C5.28 0 10.56 0 16 0 C16 2.64 16 5.28 16 8 C10.72 8 5.44 8 0 8 C0 5.36 0 2.72 0 0 Z " fill="#33CC33" transform="translate(222,138)"/>
<path d="M0 0 C5.28 0 10.56 0 16 0 C16 2.64 16 5.28 16 8 C10.72 8 5.44 8 0 8 C0 5.36 0 2.72 0 0 Z " fill="#33FF66" transform="translate(206,138)"/>
<path d="M0 0 C5.28 0 10.56 0 16 0 C16 2.64 16 5.28 16 8 C10.72 8 5.44 8 0 8 C0 5.36 0 2.72 0 0 Z " fill="#CCFFCC" transform="translate(190,138)"/>
<path d="M0 0 C5.28 0 10.56 0 16 0 C16 2.64 16 5.28 16 8 C10.72 8 5.44 8 0 8 C0 5.36 0 2.72 0 0 Z " fill="#33CC33" transform="translate(174,138)"/>
<path d="M0 0 C5.28 0 10.56 0 16 0 C16 2.64 16 5.28 16 8 C10.72 8 5.44 8 0 8 C0 5.36 0 2.72 0 0 Z " fill="#33CC33" transform="translate(190,130)"/>
<path d="M0 0 C2.64 0 5.28 0 8 0 C8 2.64 8 5.28 8 8 C5.36 8 2.72 8 0 8 C0 5.36 0 2.72 0 0 Z " fill="#808080" transform="translate(278,370)"/>
<path d="M0 0 C2.64 0 5.28 0 8 0 C8 2.64 8 5.28 8 8 C5.36 8 2.72 8 0 8 C0 5.36 0 2.72 0 0 Z " fill="#9999CC" transform="translate(262,370)"/>
<path d="M0 0 C2.64 0 5.28 0 8 0 C8 2.64 8 5.28 8 8 C5.36 8 2.72 8 0 8 C0 5.36 0 2.72 0 0 Z " fill="#868686" transform="translate(238,370)"/>
<path d="M0 0 C2.64 0 5.28 0 8 0 C8 2.64 8 5.28 8 8 C5.36 8 2.72 8 0 8 C0 5.36 0 2.72 0 0 Z " fill="#9999CC" transform="translate(230,370)"/>
<path d="M0 0 C2.64 0 5.28 0 8 0 C8 2.64 8 5.28 8 8 C5.36 8 2.72 8 0 8 C0 5.36 0 2.72 0 0 Z " fill="#868686" transform="translate(222,370)"/>
<path d="M0 0 C2.64 0 5.28 0 8 0 C8 2.64 8 5.28 8 8 C5.36 8 2.72 8 0 8 C0 5.36 0 2.72 0 0 Z " fill="#9999CC" transform="translate(214,370)"/>
<path d="M0 0 C2.64 0 5.28 0 8 0 C8 2.64 8 5.28 8 8 C5.36 8 2.72 8 0 8 C0 5.36 0 2.72 0 0 Z " fill="#868686" transform="translate(206,370)"/>
<path d="M0 0 C2.64 0 5.28 0 8 0 C8 2.64 8 5.28 8 8 C5.36 8 2.72 8 0 8 C0 5.36 0 2.72 0 0 Z " fill="#9999FF" transform="translate(198,370)"/>
<path d="M0 0 C2.64 0 5.28 0 8 0 C8 2.64 8 5.28 8 8 C5.36 8 2.72 8 0 8 C0 5.36 0 2.72 0 0 Z " fill="#222222" transform="translate(190,370)"/>
<path d="M0 0 C2.64 0 5.28 0 8 0 C8 2.64 8 5.28 8 8 C5.36 8 2.72 8 0 8 C0 5.36 0 2.72 0 0 Z " fill="#CCCC99" transform="translate(278,362)"/>
<path d="M0 0 C2.64 0 5.28 0 8 0 C8 2.64 8 5.28 8 8 C5.36 8 2.72 8 0 8 C0 5.36 0 2.72 0 0 Z " fill="#4D4D4D" transform="translate(270,362)"/>
<path d="M0 0 C2.64 0 5.28 0 8 0 C8 2.64 8 5.28 8 8 C5.36 8 2.72 8 0 8 C0 5.36 0 2.72 0 0 Z " fill="#996633" transform="translate(262,362)"/>
<path d="M0 0 C2.64 0 5.28 0 8 0 C8 2.64 8 5.28 8 8 C5.36 8 2.72 8 0 8 C0 5.36 0 2.72 0 0 Z " fill="#999966" transform="translate(254,362)"/>
<path d="M0 0 C2.64 0 5.28 0 8 0 C8 2.64 8 5.28 8 8 C5.36 8 2.72 8 0 8 C0 5.36 0 2.72 0 0 Z " fill="#CBCBCB" transform="translate(238,362)"/>
<path d="M0 0 C2.64 0 5.28 0 8 0 C8 2.64 8 5.28 8 8 C5.36 8 2.72 8 0 8 C0 5.36 0 2.72 0 0 Z " fill="#ADA990" transform="translate(230,362)"/>
<path d="M0 0 C2.64 0 5.28 0 8 0 C8 2.64 8 5.28 8 8 C5.36 8 2.72 8 0 8 C0 5.36 0 2.72 0 0 Z " fill="#666633" transform="translate(206,362)"/>
<path d="M0 0 C2.64 0 5.28 0 8 0 C8 2.64 8 5.28 8 8 C5.36 8 2.72 8 0 8 C0 5.36 0 2.72 0 0 Z " fill="#D7D7D7" transform="translate(198,362)"/>
<path d="M0 0 C2.64 0 5.28 0 8 0 C8 2.64 8 5.28 8 8 C5.36 8 2.72 8 0 8 C0 5.36 0 2.72 0 0 Z " fill="#B2B2B2" transform="translate(262,354)"/>
<path d="M0 0 C2.64 0 5.28 0 8 0 C8 2.64 8 5.28 8 8 C5.36 8 2.72 8 0 8 C0 5.36 0 2.72 0 0 Z " fill="#9999CC" transform="translate(238,354)"/>
<path d="M0 0 C2.64 0 5.28 0 8 0 C8 2.64 8 5.28 8 8 C5.36 8 2.72 8 0 8 C0 5.36 0 2.72 0 0 Z " fill="#B2B2B2" transform="translate(206,354)"/>
<path d="M0 0 C2.64 0 5.28 0 8 0 C8 2.64 8 5.28 8 8 C5.36 8 2.72 8 0 8 C0 5.36 0 2.72 0 0 Z " fill="#996633" transform="translate(198,354)"/>
<path d="M0 0 C2.64 0 5.28 0 8 0 C8 2.64 8 5.28 8 8 C5.36 8 2.72 8 0 8 C0 5.36 0 2.72 0 0 Z " fill="#C0C0C0" transform="translate(190,354)"/>
<path d="M0 0 C2.64 0 5.28 0 8 0 C8 2.64 8 5.28 8 8 C5.36 8 2.72 8 0 8 C0 5.36 0 2.72 0 0 Z " fill="#222222" transform="translate(166,354)"/>
<path d="M0 0 C2.64 0 5.28 0 8 0 C8 2.64 8 5.28 8 8 C5.36 8 2.72 8 0 8 C0 5.36 0 2.72 0 0 Z " fill="#CCCC99" transform="translate(278,346)"/>
<path d="M0 0 C2.64 0 5.28 0 8 0 C8 2.64 8 5.28 8 8 C5.36 8 2.72 8 0 8 C0 5.36 0 2.72 0 0 Z " fill="#996633" transform="translate(270,346)"/>
<path d="M0 0 C2.64 0 5.28 0 8 0 C8 2.64 8 5.28 8 8 C5.36 8 2.72 8 0 8 C0 5.36 0 2.72 0 0 Z " fill="#666699" transform="translate(262,346)"/>
<path d="M0 0 C2.64 0 5.28 0 8 0 C8 2.64 8 5.28 8 8 C5.36 8 2.72 8 0 8 C0 5.36 0 2.72 0 0 Z " fill="#996633" transform="translate(254,346)"/>
<path d="M0 0 C2.64 0 5.28 0 8 0 C8 2.64 8 5.28 8 8 C5.36 8 2.72 8 0 8 C0 5.36 0 2.72 0 0 Z " fill="#222222" transform="translate(246,346)"/>
<path d="M0 0 C2.64 0 5.28 0 8 0 C8 2.64 8 5.28 8 8 C5.36 8 2.72 8 0 8 C0 5.36 0 2.72 0 0 Z " fill="#666633" transform="translate(238,346)"/>
<path d="M0 0 C2.64 0 5.28 0 8 0 C8 2.64 8 5.28 8 8 C5.36 8 2.72 8 0 8 C0 5.36 0 2.72 0 0 Z " fill="#222222" transform="translate(230,346)"/>
<path d="M0 0 C2.64 0 5.28 0 8 0 C8 2.64 8 5.28 8 8 C5.36 8 2.72 8 0 8 C0 5.36 0 2.72 0 0 Z " fill="#666633" transform="translate(222,346)"/>
<path d="M0 0 C2.64 0 5.28 0 8 0 C8 2.64 8 5.28 8 8 C5.36 8 2.72 8 0 8 C0 5.36 0 2.72 0 0 Z " fill="#222222" transform="translate(214,346)"/>
<path d="M0 0 C2.64 0 5.28 0 8 0 C8 2.64 8 5.28 8 8 C5.36 8 2.72 8 0 8 C0 5.36 0 2.72 0 0 Z " fill="#666633" transform="translate(206,346)"/>
<path d="M0 0 C2.64 0 5.28 0 8 0 C8 2.64 8 5.28 8 8 C5.36 8 2.72 8 0 8 C0 5.36 0 2.72 0 0 Z " fill="#393939" transform="translate(182,346)"/>
<path d="M0 0 C2.64 0 5.28 0 8 0 C8 2.64 8 5.28 8 8 C5.36 8 2.72 8 0 8 C0 5.36 0 2.72 0 0 Z " fill="#F8F8F8" transform="translate(278,338)"/>
<path d="M0 0 C2.64 0 5.28 0 8 0 C8 2.64 8 5.28 8 8 C5.36 8 2.72 8 0 8 C0 5.36 0 2.72 0 0 Z " fill="#CCCCFF" transform="translate(270,338)"/>
<path d="M0 0 C2.64 0 5.28 0 8 0 C8 2.64 8 5.28 8 8 C5.36 8 2.72 8 0 8 C0 5.36 0 2.72 0 0 Z " fill="#EFD6C6" transform="translate(262,338)"/>
<path d="M0 0 C2.64 0 5.28 0 8 0 C8 2.64 8 5.28 8 8 C5.36 8 2.72 8 0 8 C0 5.36 0 2.72 0 0 Z " fill="#CCCCFF" transform="translate(254,338)"/>
<path d="M0 0 C2.64 0 5.28 0 8 0 C8 2.64 8 5.28 8 8 C5.36 8 2.72 8 0 8 C0 5.36 0 2.72 0 0 Z " fill="#EFD6C6" transform="translate(246,338)"/>
<path d="M0 0 C2.64 0 5.28 0 8 0 C8 2.64 8 5.28 8 8 C5.36 8 2.72 8 0 8 C0 5.36 0 2.72 0 0 Z " fill="#EAEAEA" transform="translate(238,338)"/>
<path d="M0 0 C2.64 0 5.28 0 8 0 C8 2.64 8 5.28 8 8 C5.36 8 2.72 8 0 8 C0 5.36 0 2.72 0 0 Z " fill="#FFFFCC" transform="translate(230,338)"/>
<path d="M0 0 C2.64 0 5.28 0 8 0 C8 2.64 8 5.28 8 8 C5.36 8 2.72 8 0 8 C0 5.36 0 2.72 0 0 Z " fill="#EFD6C6" transform="translate(206,338)"/>
<path d="M0 0 C2.64 0 5.28 0 8 0 C8 2.64 8 5.28 8 8 C5.36 8 2.72 8 0 8 C0 5.36 0 2.72 0 0 Z " fill="#CCCCFF" transform="translate(198,338)"/>
<path d="M0 0 C2.64 0 5.28 0 8 0 C8 2.64 8 5.28 8 8 C5.36 8 2.72 8 0 8 C0 5.36 0 2.72 0 0 Z " fill="#EFD6C6" transform="translate(190,338)"/>
<path d="M0 0 C2.64 0 5.28 0 8 0 C8 2.64 8 5.28 8 8 C5.36 8 2.72 8 0 8 C0 5.36 0 2.72 0 0 Z " fill="#C0C0C0" transform="translate(182,338)"/>
<path d="M0 0 C2.64 0 5.28 0 8 0 C8 2.64 8 5.28 8 8 C5.36 8 2.72 8 0 8 C0 5.36 0 2.72 0 0 Z " fill="#808000" transform="translate(174,338)"/>
<path d="M0 0 C2.64 0 5.28 0 8 0 C8 2.64 8 5.28 8 8 C5.36 8 2.72 8 0 8 C0 5.36 0 2.72 0 0 Z " fill="#ADA990" transform="translate(270,330)"/>
<path d="M0 0 C2.64 0 5.28 0 8 0 C8 2.64 8 5.28 8 8 C5.36 8 2.72 8 0 8 C0 5.36 0 2.72 0 0 Z " fill="#393939" transform="translate(262,330)"/>
<path d="M0 0 C2.64 0 5.28 0 8 0 C8 2.64 8 5.28 8 8 C5.36 8 2.72 8 0 8 C0 5.36 0 2.72 0 0 Z " fill="#663333" transform="translate(246,330)"/>
<path d="M0 0 C2.64 0 5.28 0 8 0 C8 2.64 8 5.28 8 8 C5.36 8 2.72 8 0 8 C0 5.36 0 2.72 0 0 Z " fill="#868686" transform="translate(238,330)"/>
<path d="M0 0 C2.64 0 5.28 0 8 0 C8 2.64 8 5.28 8 8 C5.36 8 2.72 8 0 8 C0 5.36 0 2.72 0 0 Z " fill="#666633" transform="translate(214,330)"/>
<path d="M0 0 C2.64 0 5.28 0 8 0 C8 2.64 8 5.28 8 8 C5.36 8 2.72 8 0 8 C0 5.36 0 2.72 0 0 Z " fill="#393939" transform="translate(206,330)"/>
<path d="M0 0 C2.64 0 5.28 0 8 0 C8 2.64 8 5.28 8 8 C5.36 8 2.72 8 0 8 C0 5.36 0 2.72 0 0 Z " fill="#666666" transform="translate(190,330)"/>
<path d="M0 0 C2.64 0 5.28 0 8 0 C8 2.64 8 5.28 8 8 C5.36 8 2.72 8 0 8 C0 5.36 0 2.72 0 0 Z " fill="#EFD6C6" transform="translate(174,330)"/>
<path d="M0 0 C2.64 0 5.28 0 8 0 C8 2.64 8 5.28 8 8 C5.36 8 2.72 8 0 8 C0 5.36 0 2.72 0 0 Z " fill="#111111" transform="translate(270,322)"/>
<path d="M0 0 C2.64 0 5.28 0 8 0 C8 2.64 8 5.28 8 8 C5.36 8 2.72 8 0 8 C0 5.36 0 2.72 0 0 Z " fill="#080808" transform="translate(262,322)"/>
<path d="M0 0 C2.64 0 5.28 0 8 0 C8 2.64 8 5.28 8 8 C5.36 8 2.72 8 0 8 C0 5.36 0 2.72 0 0 Z " fill="#0C0C0C" transform="translate(174,322)"/>
<path d="M0 0 C2.64 0 5.28 0 8 0 C8 2.64 8 5.28 8 8 C5.36 8 2.72 8 0 8 C0 5.36 0 2.72 0 0 Z " fill="#CC9999" transform="translate(166,322)"/>
<path d="M0 0 C2.64 0 5.28 0 8 0 C8 2.64 8 5.28 8 8 C5.36 8 2.72 8 0 8 C0 5.36 0 2.72 0 0 Z " fill="#99CCCC" transform="translate(390,314)"/>
<path d="M0 0 C2.64 0 5.28 0 8 0 C8 2.64 8 5.28 8 8 C5.36 8 2.72 8 0 8 C0 5.36 0 2.72 0 0 Z " fill="#66CCFF" transform="translate(382,314)"/>
<path d="M0 0 C2.64 0 5.28 0 8 0 C8 2.64 8 5.28 8 8 C5.36 8 2.72 8 0 8 C0 5.36 0 2.72 0 0 Z " fill="#99CCCC" transform="translate(374,314)"/>
<path d="M0 0 C2.64 0 5.28 0 8 0 C8 2.64 8 5.28 8 8 C5.36 8 2.72 8 0 8 C0 5.36 0 2.72 0 0 Z " fill="#66CCFF" transform="translate(366,314)"/>
<path d="M0 0 C2.64 0 5.28 0 8 0 C8 2.64 8 5.28 8 8 C5.36 8 2.72 8 0 8 C0 5.36 0 2.72 0 0 Z " fill="#99CCCC" transform="translate(358,314)"/>
<path d="M0 0 C2.64 0 5.28 0 8 0 C8 2.64 8 5.28 8 8 C5.36 8 2.72 8 0 8 C0 5.36 0 2.72 0 0 Z " fill="#66CCFF" transform="translate(350,314)"/>
<path d="M0 0 C2.64 0 5.28 0 8 0 C8 2.64 8 5.28 8 8 C5.36 8 2.72 8 0 8 C0 5.36 0 2.72 0 0 Z " fill="#99CCCC" transform="translate(342,314)"/>
<path d="M0 0 C2.64 0 5.28 0 8 0 C8 2.64 8 5.28 8 8 C5.36 8 2.72 8 0 8 C0 5.36 0 2.72 0 0 Z " fill="#66CCFF" transform="translate(334,314)"/>
<path d="M0 0 C2.64 0 5.28 0 8 0 C8 2.64 8 5.28 8 8 C5.36 8 2.72 8 0 8 C0 5.36 0 2.72 0 0 Z " fill="#99CCCC" transform="translate(326,314)"/>
<path d="M0 0 C2.64 0 5.28 0 8 0 C8 2.64 8 5.28 8 8 C5.36 8 2.72 8 0 8 C0 5.36 0 2.72 0 0 Z " fill="#66CCFF" transform="translate(318,314)"/>
<path d="M0 0 C2.64 0 5.28 0 8 0 C8 2.64 8 5.28 8 8 C5.36 8 2.72 8 0 8 C0 5.36 0 2.72 0 0 Z " fill="#99CCCC" transform="translate(310,314)"/>
<path d="M0 0 C2.64 0 5.28 0 8 0 C8 2.64 8 5.28 8 8 C5.36 8 2.72 8 0 8 C0 5.36 0 2.72 0 0 Z " fill="#99CCCC" transform="translate(294,314)"/>
<path d="M0 0 C2.64 0 5.28 0 8 0 C8 2.64 8 5.28 8 8 C5.36 8 2.72 8 0 8 C0 5.36 0 2.72 0 0 Z " fill="#9999CC" transform="translate(270,314)"/>
<path d="M0 0 C2.64 0 5.28 0 8 0 C8 2.64 8 5.28 8 8 C5.36 8 2.72 8 0 8 C0 5.36 0 2.72 0 0 Z " fill="#DDDDDD" transform="translate(262,314)"/>
<path d="M0 0 C2.64 0 5.28 0 8 0 C8 2.64 8 5.28 8 8 C5.36 8 2.72 8 0 8 C0 5.36 0 2.72 0 0 Z " fill="#CCCCFF" transform="translate(190,314)"/>
<path d="M0 0 C2.64 0 5.28 0 8 0 C8 2.64 8 5.28 8 8 C5.36 8 2.72 8 0 8 C0 5.36 0 2.72 0 0 Z " fill="#ADA990" transform="translate(182,314)"/>
<path d="M0 0 C2.64 0 5.28 0 8 0 C8 2.64 8 5.28 8 8 C5.36 8 2.72 8 0 8 C0 5.36 0 2.72 0 0 Z " fill="#66CCFF" transform="translate(374,306)"/>
<path d="M0 0 C2.64 0 5.28 0 8 0 C8 2.64 8 5.28 8 8 C5.36 8 2.72 8 0 8 C0 5.36 0 2.72 0 0 Z " fill="#292929" transform="translate(278,306)"/>
<path d="M0 0 C2.64 0 5.28 0 8 0 C8 2.64 8 5.28 8 8 C5.36 8 2.72 8 0 8 C0 5.36 0 2.72 0 0 Z " fill="#66CCFF" transform="translate(190,306)"/>
<path d="M0 0 C2.64 0 5.28 0 8 0 C8 2.64 8 5.28 8 8 C5.36 8 2.72 8 0 8 C0 5.36 0 2.72 0 0 Z " fill="#B2B2B2" transform="translate(174,306)"/>
<path d="M0 0 C2.64 0 5.28 0 8 0 C8 2.64 8 5.28 8 8 C5.36 8 2.72 8 0 8 C0 5.36 0 2.72 0 0 Z " fill="#66CCFF" transform="translate(358,298)"/>
<path d="M0 0 C2.64 0 5.28 0 8 0 C8 2.64 8 5.28 8 8 C5.36 8 2.72 8 0 8 C0 5.36 0 2.72 0 0 Z " fill="#0066FF" transform="translate(262,298)"/>
<path d="M0 0 C2.64 0 5.28 0 8 0 C8 2.64 8 5.28 8 8 C5.36 8 2.72 8 0 8 C0 5.36 0 2.72 0 0 Z " fill="#3399FF" transform="translate(190,298)"/>
<path d="M0 0 C2.64 0 5.28 0 8 0 C8 2.64 8 5.28 8 8 C5.36 8 2.72 8 0 8 C0 5.36 0 2.72 0 0 Z " fill="#CCCCFF" transform="translate(174,298)"/>
<path d="M0 0 C2.64 0 5.28 0 8 0 C8 2.64 8 5.28 8 8 C5.36 8 2.72 8 0 8 C0 5.36 0 2.72 0 0 Z " fill="#99CCCC" transform="translate(350,290)"/>
<path d="M0 0 C2.64 0 5.28 0 8 0 C8 2.64 8 5.28 8 8 C5.36 8 2.72 8 0 8 C0 5.36 0 2.72 0 0 Z " fill="#66CCFF" transform="translate(342,290)"/>
<path d="M0 0 C2.64 0 5.28 0 8 0 C8 2.64 8 5.28 8 8 C5.36 8 2.72 8 0 8 C0 5.36 0 2.72 0 0 Z " fill="#6699FF" transform="translate(246,290)"/>
<path d="M0 0 C2.64 0 5.28 0 8 0 C8 2.64 8 5.28 8 8 C5.36 8 2.72 8 0 8 C0 5.36 0 2.72 0 0 Z " fill="#66CCFF" transform="translate(230,290)"/>
<path d="M0 0 C2.64 0 5.28 0 8 0 C8 2.64 8 5.28 8 8 C5.36 8 2.72 8 0 8 C0 5.36 0 2.72 0 0 Z " fill="#99FFFF" transform="translate(206,290)"/>
<path d="M0 0 C2.64 0 5.28 0 8 0 C8 2.64 8 5.28 8 8 C5.36 8 2.72 8 0 8 C0 5.36 0 2.72 0 0 Z " fill="#66CCFF" transform="translate(198,290)"/>
<path d="M0 0 C2.64 0 5.28 0 8 0 C8 2.64 8 5.28 8 8 C5.36 8 2.72 8 0 8 C0 5.36 0 2.72 0 0 Z " fill="#99CCCC" transform="translate(390,282)"/>
<path d="M0 0 C2.64 0 5.28 0 8 0 C8 2.64 8 5.28 8 8 C5.36 8 2.72 8 0 8 C0 5.36 0 2.72 0 0 Z " fill="#66CCFF" transform="translate(382,282)"/>
<path d="M0 0 C2.64 0 5.28 0 8 0 C8 2.64 8 5.28 8 8 C5.36 8 2.72 8 0 8 C0 5.36 0 2.72 0 0 Z " fill="#99CCCC" transform="translate(374,282)"/>
<path d="M0 0 C2.64 0 5.28 0 8 0 C8 2.64 8 5.28 8 8 C5.36 8 2.72 8 0 8 C0 5.36 0 2.72 0 0 Z " fill="#66CCFF" transform="translate(366,282)"/>
<path d="M0 0 C2.64 0 5.28 0 8 0 C8 2.64 8 5.28 8 8 C5.36 8 2.72 8 0 8 C0 5.36 0 2.72 0 0 Z " fill="#99CCCC" transform="translate(358,282)"/>
<path d="M0 0 C2.64 0 5.28 0 8 0 C8 2.64 8 5.28 8 8 C5.36 8 2.72 8 0 8 C0 5.36 0 2.72 0 0 Z " fill="#66CCFF" transform="translate(350,282)"/>
<path d="M0 0 C2.64 0 5.28 0 8 0 C8 2.64 8 5.28 8 8 C5.36 8 2.72 8 0 8 C0 5.36 0 2.72 0 0 Z " fill="#99CCCC" transform="translate(342,282)"/>
<path d="M0 0 C2.64 0 5.28 0 8 0 C8 2.64 8 5.28 8 8 C5.36 8 2.72 8 0 8 C0 5.36 0 2.72 0 0 Z " fill="#99CCCC" transform="translate(326,282)"/>
<path d="M0 0 C2.64 0 5.28 0 8 0 C8 2.64 8 5.28 8 8 C5.36 8 2.72 8 0 8 C0 5.36 0 2.72 0 0 Z " fill="#000000" transform="translate(302,282)"/>
<path d="M0 0 C2.64 0 5.28 0 8 0 C8 2.64 8 5.28 8 8 C5.36 8 2.72 8 0 8 C0 5.36 0 2.72 0 0 Z " fill="#99FFFF" transform="translate(230,282)"/>
<path d="M0 0 C2.64 0 5.28 0 8 0 C8 2.64 8 5.28 8 8 C5.36 8 2.72 8 0 8 C0 5.36 0 2.72 0 0 Z " fill="#CCCCFF" transform="translate(174,282)"/>
<path d="M0 0 C2.64 0 5.28 0 8 0 C8 2.64 8 5.28 8 8 C5.36 8 2.72 8 0 8 C0 5.36 0 2.72 0 0 Z " fill="#66CCFF" transform="translate(374,274)"/>
<path d="M0 0 C2.64 0 5.28 0 8 0 C8 2.64 8 5.28 8 8 C5.36 8 2.72 8 0 8 C0 5.36 0 2.72 0 0 Z " fill="#003300" transform="translate(302,274)"/>
<path d="M0 0 C2.64 0 5.28 0 8 0 C8 2.64 8 5.28 8 8 C5.36 8 2.72 8 0 8 C0 5.36 0 2.72 0 0 Z " fill="#B2B2B2" transform="translate(174,274)"/>
<path d="M0 0 C2.64 0 5.28 0 8 0 C8 2.64 8 5.28 8 8 C5.36 8 2.72 8 0 8 C0 5.36 0 2.72 0 0 Z " fill="#CCCCFF" transform="translate(166,274)"/>
<path d="M0 0 C2.64 0 5.28 0 8 0 C8 2.64 8 5.28 8 8 C5.36 8 2.72 8 0 8 C0 5.36 0 2.72 0 0 Z " fill="#66CCFF" transform="translate(358,266)"/>
<path d="M0 0 C2.64 0 5.28 0 8 0 C8 2.64 8 5.28 8 8 C5.36 8 2.72 8 0 8 C0 5.36 0 2.72 0 0 Z " fill="#99FFFF" transform="translate(230,266)"/>
<path d="M0 0 C2.64 0 5.28 0 8 0 C8 2.64 8 5.28 8 8 C5.36 8 2.72 8 0 8 C0 5.36 0 2.72 0 0 Z " fill="#B2B2B2" transform="translate(166,266)"/>
<path d="M0 0 C2.64 0 5.28 0 8 0 C8 2.64 8 5.28 8 8 C5.36 8 2.72 8 0 8 C0 5.36 0 2.72 0 0 Z " fill="#66CCFF" transform="translate(342,258)"/>
<path d="M0 0 C2.64 0 5.28 0 8 0 C8 2.64 8 5.28 8 8 C5.36 8 2.72 8 0 8 C0 5.36 0 2.72 0 0 Z " fill="#003300" transform="translate(310,258)"/>
<path d="M0 0 C2.64 0 5.28 0 8 0 C8 2.64 8 5.28 8 8 C5.36 8 2.72 8 0 8 C0 5.36 0 2.72 0 0 Z " fill="#008000" transform="translate(286,258)"/>
<path d="M0 0 C2.64 0 5.28 0 8 0 C8 2.64 8 5.28 8 8 C5.36 8 2.72 8 0 8 C0 5.36 0 2.72 0 0 Z " fill="#66FFFF" transform="translate(270,258)"/>
<path d="M0 0 C2.64 0 5.28 0 8 0 C8 2.64 8 5.28 8 8 C5.36 8 2.72 8 0 8 C0 5.36 0 2.72 0 0 Z " fill="#0066FF" transform="translate(262,258)"/>
<path d="M0 0 C2.64 0 5.28 0 8 0 C8 2.64 8 5.28 8 8 C5.36 8 2.72 8 0 8 C0 5.36 0 2.72 0 0 Z " fill="#66FFFF" transform="translate(198,258)"/>
<path d="M0 0 C2.64 0 5.28 0 8 0 C8 2.64 8 5.28 8 8 C5.36 8 2.72 8 0 8 C0 5.36 0 2.72 0 0 Z " fill="#F1F1F1" transform="translate(182,258)"/>
<path d="M0 0 C2.64 0 5.28 0 8 0 C8 2.64 8 5.28 8 8 C5.36 8 2.72 8 0 8 C0 5.36 0 2.72 0 0 Z " fill="#008000" transform="translate(294,250)"/>
<path d="M0 0 C2.64 0 5.28 0 8 0 C8 2.64 8 5.28 8 8 C5.36 8 2.72 8 0 8 C0 5.36 0 2.72 0 0 Z " fill="#336600" transform="translate(286,250)"/>
<path d="M0 0 C2.64 0 5.28 0 8 0 C8 2.64 8 5.28 8 8 C5.36 8 2.72 8 0 8 C0 5.36 0 2.72 0 0 Z " fill="#003366" transform="translate(262,250)"/>
<path d="M0 0 C2.64 0 5.28 0 8 0 C8 2.64 8 5.28 8 8 C5.36 8 2.72 8 0 8 C0 5.36 0 2.72 0 0 Z " fill="#9999CC" transform="translate(190,250)"/>
<path d="M0 0 C2.64 0 5.28 0 8 0 C8 2.64 8 5.28 8 8 C5.36 8 2.72 8 0 8 C0 5.36 0 2.72 0 0 Z " fill="#FFFFCC" transform="translate(182,250)"/>
<path d="M0 0 C2.64 0 5.28 0 8 0 C8 2.64 8 5.28 8 8 C5.36 8 2.72 8 0 8 C0 5.36 0 2.72 0 0 Z " fill="#F1F1F1" transform="translate(174,250)"/>
<path d="M0 0 C2.64 0 5.28 0 8 0 C8 2.64 8 5.28 8 8 C5.36 8 2.72 8 0 8 C0 5.36 0 2.72 0 0 Z " fill="#CCCCFF" transform="translate(166,250)"/>
<path d="M0 0 C2.64 0 5.28 0 8 0 C8 2.64 8 5.28 8 8 C5.36 8 2.72 8 0 8 C0 5.36 0 2.72 0 0 Z " fill="#666666" transform="translate(390,242)"/>
<path d="M0 0 C2.64 0 5.28 0 8 0 C8 2.64 8 5.28 8 8 C5.36 8 2.72 8 0 8 C0 5.36 0 2.72 0 0 Z " fill="#666699" transform="translate(374,242)"/>
<path d="M0 0 C2.64 0 5.28 0 8 0 C8 2.64 8 5.28 8 8 C5.36 8 2.72 8 0 8 C0 5.36 0 2.72 0 0 Z " fill="#DDDDDD" transform="translate(350,242)"/>
<path d="M0 0 C2.64 0 5.28 0 8 0 C8 2.64 8 5.28 8 8 C5.36 8 2.72 8 0 8 C0 5.36 0 2.72 0 0 Z " fill="#868686" transform="translate(342,242)"/>
<path d="M0 0 C2.64 0 5.28 0 8 0 C8 2.64 8 5.28 8 8 C5.36 8 2.72 8 0 8 C0 5.36 0 2.72 0 0 Z " fill="#D7D7D7" transform="translate(334,242)"/>
<path d="M0 0 C2.64 0 5.28 0 8 0 C8 2.64 8 5.28 8 8 C5.36 8 2.72 8 0 8 C0 5.36 0 2.72 0 0 Z " fill="#C0C0C0" transform="translate(326,242)"/>
<path d="M0 0 C2.64 0 5.28 0 8 0 C8 2.64 8 5.28 8 8 C5.36 8 2.72 8 0 8 C0 5.36 0 2.72 0 0 Z " fill="#B2B2B2" transform="translate(318,242)"/>
<path d="M0 0 C2.64 0 5.28 0 8 0 C8 2.64 8 5.28 8 8 C5.36 8 2.72 8 0 8 C0 5.36 0 2.72 0 0 Z " fill="#292929" transform="translate(310,242)"/>
<path d="M0 0 C2.64 0 5.28 0 8 0 C8 2.64 8 5.28 8 8 C5.36 8 2.72 8 0 8 C0 5.36 0 2.72 0 0 Z " fill="#008000" transform="translate(302,242)"/>
<path d="M0 0 C2.64 0 5.28 0 8 0 C8 2.64 8 5.28 8 8 C5.36 8 2.72 8 0 8 C0 5.36 0 2.72 0 0 Z " fill="#336600" transform="translate(294,242)"/>
<path d="M0 0 C2.64 0 5.28 0 8 0 C8 2.64 8 5.28 8 8 C5.36 8 2.72 8 0 8 C0 5.36 0 2.72 0 0 Z " fill="#424242" transform="translate(278,242)"/>
<path d="M0 0 C2.64 0 5.28 0 8 0 C8 2.64 8 5.28 8 8 C5.36 8 2.72 8 0 8 C0 5.36 0 2.72 0 0 Z " fill="#CCCCFF" transform="translate(270,242)"/>
<path d="M0 0 C2.64 0 5.28 0 8 0 C8 2.64 8 5.28 8 8 C5.36 8 2.72 8 0 8 C0 5.36 0 2.72 0 0 Z " fill="#FFFFFF" transform="translate(262,242)"/>
<path d="M0 0 C2.64 0 5.28 0 8 0 C8 2.64 8 5.28 8 8 C5.36 8 2.72 8 0 8 C0 5.36 0 2.72 0 0 Z " fill="#66FF66" transform="translate(150,242)"/>
<path d="M0 0 C2.64 0 5.28 0 8 0 C8 2.64 8 5.28 8 8 C5.36 8 2.72 8 0 8 C0 5.36 0 2.72 0 0 Z " fill="#C0C0C0" transform="translate(382,234)"/>
<path d="M0 0 C2.64 0 5.28 0 8 0 C8 2.64 8 5.28 8 8 C5.36 8 2.72 8 0 8 C0 5.36 0 2.72 0 0 Z " fill="#4D4D4D" transform="translate(374,234)"/>
<path d="M0 0 C2.64 0 5.28 0 8 0 C8 2.64 8 5.28 8 8 C5.36 8 2.72 8 0 8 C0 5.36 0 2.72 0 0 Z " fill="#999933" transform="translate(366,234)"/>
<path d="M0 0 C2.64 0 5.28 0 8 0 C8 2.64 8 5.28 8 8 C5.36 8 2.72 8 0 8 C0 5.36 0 2.72 0 0 Z " fill="#969696" transform="translate(358,234)"/>
<path d="M0 0 C2.64 0 5.28 0 8 0 C8 2.64 8 5.28 8 8 C5.36 8 2.72 8 0 8 C0 5.36 0 2.72 0 0 Z " fill="#CCCCFF" transform="translate(350,234)"/>
<path d="M0 0 C2.64 0 5.28 0 8 0 C8 2.64 8 5.28 8 8 C5.36 8 2.72 8 0 8 C0 5.36 0 2.72 0 0 Z " fill="#666633" transform="translate(326,234)"/>
<path d="M0 0 C2.64 0 5.28 0 8 0 C8 2.64 8 5.28 8 8 C5.36 8 2.72 8 0 8 C0 5.36 0 2.72 0 0 Z " fill="#969696" transform="translate(310,234)"/>
<path d="M0 0 C2.64 0 5.28 0 8 0 C8 2.64 8 5.28 8 8 C5.36 8 2.72 8 0 8 C0 5.36 0 2.72 0 0 Z " fill="#666699" transform="translate(270,234)"/>
<path d="M0 0 C2.64 0 5.28 0 8 0 C8 2.64 8 5.28 8 8 C5.36 8 2.72 8 0 8 C0 5.36 0 2.72 0 0 Z " fill="#999966" transform="translate(262,234)"/>
<path d="M0 0 C2.64 0 5.28 0 8 0 C8 2.64 8 5.28 8 8 C5.36 8 2.72 8 0 8 C0 5.36 0 2.72 0 0 Z " fill="#868686" transform="translate(166,234)"/>
<path d="M0 0 C2.64 0 5.28 0 8 0 C8 2.64 8 5.28 8 8 C5.36 8 2.72 8 0 8 C0 5.36 0 2.72 0 0 Z " fill="#99FF99" transform="translate(150,234)"/>
<path d="M0 0 C2.64 0 5.28 0 8 0 C8 2.64 8 5.28 8 8 C5.36 8 2.72 8 0 8 C0 5.36 0 2.72 0 0 Z " fill="#1C1C1C" transform="translate(382,226)"/>
<path d="M0 0 C2.64 0 5.28 0 8 0 C8 2.64 8 5.28 8 8 C5.36 8 2.72 8 0 8 C0 5.36 0 2.72 0 0 Z " fill="#996633" transform="translate(374,226)"/>
<path d="M0 0 C2.64 0 5.28 0 8 0 C8 2.64 8 5.28 8 8 C5.36 8 2.72 8 0 8 C0 5.36 0 2.72 0 0 Z " fill="#666666" transform="translate(366,226)"/>
<path d="M0 0 C2.64 0 5.28 0 8 0 C8 2.64 8 5.28 8 8 C5.36 8 2.72 8 0 8 C0 5.36 0 2.72 0 0 Z " fill="#663300" transform="translate(358,226)"/>
<path d="M0 0 C2.64 0 5.28 0 8 0 C8 2.64 8 5.28 8 8 C5.36 8 2.72 8 0 8 C0 5.36 0 2.72 0 0 Z " fill="#5F5F5F" transform="translate(342,226)"/>
<path d="M0 0 C2.64 0 5.28 0 8 0 C8 2.64 8 5.28 8 8 C5.36 8 2.72 8 0 8 C0 5.36 0 2.72 0 0 Z " fill="#424242" transform="translate(326,226)"/>
<path d="M0 0 C2.64 0 5.28 0 8 0 C8 2.64 8 5.28 8 8 C5.36 8 2.72 8 0 8 C0 5.36 0 2.72 0 0 Z " fill="#333300" transform="translate(318,226)"/>
<path d="M0 0 C2.64 0 5.28 0 8 0 C8 2.64 8 5.28 8 8 C5.36 8 2.72 8 0 8 C0 5.36 0 2.72 0 0 Z " fill="#666699" transform="translate(294,226)"/>
<path d="M0 0 C2.64 0 5.28 0 8 0 C8 2.64 8 5.28 8 8 C5.36 8 2.72 8 0 8 C0 5.36 0 2.72 0 0 Z " fill="#333333" transform="translate(286,226)"/>
<path d="M0 0 C2.64 0 5.28 0 8 0 C8 2.64 8 5.28 8 8 C5.36 8 2.72 8 0 8 C0 5.36 0 2.72 0 0 Z " fill="#336600" transform="translate(254,226)"/>
<path d="M0 0 C2.64 0 5.28 0 8 0 C8 2.64 8 5.28 8 8 C5.36 8 2.72 8 0 8 C0 5.36 0 2.72 0 0 Z " fill="#3366FF" transform="translate(246,226)"/>
<path d="M0 0 C2.64 0 5.28 0 8 0 C8 2.64 8 5.28 8 8 C5.36 8 2.72 8 0 8 C0 5.36 0 2.72 0 0 Z " fill="#33CCFF" transform="translate(206,226)"/>
<path d="M0 0 C2.64 0 5.28 0 8 0 C8 2.64 8 5.28 8 8 C5.36 8 2.72 8 0 8 C0 5.36 0 2.72 0 0 Z " fill="#0099FF" transform="translate(198,226)"/>
<path d="M0 0 C2.64 0 5.28 0 8 0 C8 2.64 8 5.28 8 8 C5.36 8 2.72 8 0 8 C0 5.36 0 2.72 0 0 Z " fill="#99FF99" transform="translate(158,226)"/>
<path d="M0 0 C2.64 0 5.28 0 8 0 C8 2.64 8 5.28 8 8 C5.36 8 2.72 8 0 8 C0 5.36 0 2.72 0 0 Z " fill="#F1F1F1" transform="translate(150,226)"/>
<path d="M0 0 C2.64 0 5.28 0 8 0 C8 2.64 8 5.28 8 8 C5.36 8 2.72 8 0 8 C0 5.36 0 2.72 0 0 Z " fill="#CCCCCC" transform="translate(382,218)"/>
<path d="M0 0 C2.64 0 5.28 0 8 0 C8 2.64 8 5.28 8 8 C5.36 8 2.72 8 0 8 C0 5.36 0 2.72 0 0 Z " fill="#F8F8F8" transform="translate(374,218)"/>
<path d="M0 0 C2.64 0 5.28 0 8 0 C8 2.64 8 5.28 8 8 C5.36 8 2.72 8 0 8 C0 5.36 0 2.72 0 0 Z " fill="#CBCBCB" transform="translate(358,218)"/>
<path d="M0 0 C2.64 0 5.28 0 8 0 C8 2.64 8 5.28 8 8 C5.36 8 2.72 8 0 8 C0 5.36 0 2.72 0 0 Z " fill="#FFFFCC" transform="translate(342,218)"/>
<path d="M0 0 C2.64 0 5.28 0 8 0 C8 2.64 8 5.28 8 8 C5.36 8 2.72 8 0 8 C0 5.36 0 2.72 0 0 Z " fill="#E7E7D6" transform="translate(334,218)"/>
<path d="M0 0 C2.64 0 5.28 0 8 0 C8 2.64 8 5.28 8 8 C5.36 8 2.72 8 0 8 C0 5.36 0 2.72 0 0 Z " fill="#CCCCCC" transform="translate(310,218)"/>
<path d="M0 0 C2.64 0 5.28 0 8 0 C8 2.64 8 5.28 8 8 C5.36 8 2.72 8 0 8 C0 5.36 0 2.72 0 0 Z " fill="#ADA990" transform="translate(302,218)"/>
<path d="M0 0 C2.64 0 5.28 0 8 0 C8 2.64 8 5.28 8 8 C5.36 8 2.72 8 0 8 C0 5.36 0 2.72 0 0 Z " fill="#777777" transform="translate(294,218)"/>
<path d="M0 0 C2.64 0 5.28 0 8 0 C8 2.64 8 5.28 8 8 C5.36 8 2.72 8 0 8 C0 5.36 0 2.72 0 0 Z " fill="#666699" transform="translate(286,218)"/>
<path d="M0 0 C2.64 0 5.28 0 8 0 C8 2.64 8 5.28 8 8 C5.36 8 2.72 8 0 8 C0 5.36 0 2.72 0 0 Z " fill="#33CCFF" transform="translate(214,218)"/>
<path d="M0 0 C2.64 0 5.28 0 8 0 C8 2.64 8 5.28 8 8 C5.36 8 2.72 8 0 8 C0 5.36 0 2.72 0 0 Z " fill="#0099FF" transform="translate(206,218)"/>
<path d="M0 0 C2.64 0 5.28 0 8 0 C8 2.64 8 5.28 8 8 C5.36 8 2.72 8 0 8 C0 5.36 0 2.72 0 0 Z " fill="#33CCFF" transform="translate(198,218)"/>
<path d="M0 0 C2.64 0 5.28 0 8 0 C8 2.64 8 5.28 8 8 C5.36 8 2.72 8 0 8 C0 5.36 0 2.72 0 0 Z " fill="#DDDDDD" transform="translate(158,218)"/>
<path d="M0 0 C2.64 0 5.28 0 8 0 C8 2.64 8 5.28 8 8 C5.36 8 2.72 8 0 8 C0 5.36 0 2.72 0 0 Z " fill="#33CC33" transform="translate(150,218)"/>
<path d="M0 0 C2.64 0 5.28 0 8 0 C8 2.64 8 5.28 8 8 C5.36 8 2.72 8 0 8 C0 5.36 0 2.72 0 0 Z " fill="#999966" transform="translate(374,210)"/>
<path d="M0 0 C2.64 0 5.28 0 8 0 C8 2.64 8 5.28 8 8 C5.36 8 2.72 8 0 8 C0 5.36 0 2.72 0 0 Z " fill="#424242" transform="translate(350,210)"/>
<path d="M0 0 C2.64 0 5.28 0 8 0 C8 2.64 8 5.28 8 8 C5.36 8 2.72 8 0 8 C0 5.36 0 2.72 0 0 Z " fill="#666633" transform="translate(334,210)"/>
<path d="M0 0 C2.64 0 5.28 0 8 0 C8 2.64 8 5.28 8 8 C5.36 8 2.72 8 0 8 C0 5.36 0 2.72 0 0 Z " fill="#330000" transform="translate(318,210)"/>
<path d="M0 0 C2.64 0 5.28 0 8 0 C8 2.64 8 5.28 8 8 C5.36 8 2.72 8 0 8 C0 5.36 0 2.72 0 0 Z " fill="#393939" transform="translate(310,210)"/>
<path d="M0 0 C2.64 0 5.28 0 8 0 C8 2.64 8 5.28 8 8 C5.36 8 2.72 8 0 8 C0 5.36 0 2.72 0 0 Z " fill="#CCCC66" transform="translate(294,210)"/>
<path d="M0 0 C2.64 0 5.28 0 8 0 C8 2.64 8 5.28 8 8 C5.36 8 2.72 8 0 8 C0 5.36 0 2.72 0 0 Z " fill="#008000" transform="translate(262,210)"/>
<path d="M0 0 C2.64 0 5.28 0 8 0 C8 2.64 8 5.28 8 8 C5.36 8 2.72 8 0 8 C0 5.36 0 2.72 0 0 Z " fill="#CCFFCC" transform="translate(254,210)"/>
<path d="M0 0 C2.64 0 5.28 0 8 0 C8 2.64 8 5.28 8 8 C5.36 8 2.72 8 0 8 C0 5.36 0 2.72 0 0 Z " fill="#33CCFF" transform="translate(222,210)"/>
<path d="M0 0 C2.64 0 5.28 0 8 0 C8 2.64 8 5.28 8 8 C5.36 8 2.72 8 0 8 C0 5.36 0 2.72 0 0 Z " fill="#0099FF" transform="translate(214,210)"/>
<path d="M0 0 C2.64 0 5.28 0 8 0 C8 2.64 8 5.28 8 8 C5.36 8 2.72 8 0 8 C0 5.36 0 2.72 0 0 Z " fill="#33CCFF" transform="translate(206,210)"/>
<path d="M0 0 C2.64 0 5.28 0 8 0 C8 2.64 8 5.28 8 8 C5.36 8 2.72 8 0 8 C0 5.36 0 2.72 0 0 Z " fill="#0099FF" transform="translate(198,210)"/>
<path d="M0 0 C2.64 0 5.28 0 8 0 C8 2.64 8 5.28 8 8 C5.36 8 2.72 8 0 8 C0 5.36 0 2.72 0 0 Z " fill="#33CC33" transform="translate(158,210)"/>
<path d="M0 0 C2.64 0 5.28 0 8 0 C8 2.64 8 5.28 8 8 C5.36 8 2.72 8 0 8 C0 5.36 0 2.72 0 0 Z " fill="#040404" transform="translate(302,202)"/>
<path d="M0 0 C2.64 0 5.28 0 8 0 C8 2.64 8 5.28 8 8 C5.36 8 2.72 8 0 8 C0 5.36 0 2.72 0 0 Z " fill="#663333" transform="translate(294,202)"/>
<path d="M0 0 C2.64 0 5.28 0 8 0 C8 2.64 8 5.28 8 8 C5.36 8 2.72 8 0 8 C0 5.36 0 2.72 0 0 Z " fill="#4D4D4D" transform="translate(278,202)"/>
<path d="M0 0 C2.64 0 5.28 0 8 0 C8 2.64 8 5.28 8 8 C5.36 8 2.72 8 0 8 C0 5.36 0 2.72 0 0 Z " fill="#008000" transform="translate(270,202)"/>
<path d="M0 0 C2.64 0 5.28 0 8 0 C8 2.64 8 5.28 8 8 C5.36 8 2.72 8 0 8 C0 5.36 0 2.72 0 0 Z " fill="#008000" transform="translate(254,202)"/>
<path d="M0 0 C2.64 0 5.28 0 8 0 C8 2.64 8 5.28 8 8 C5.36 8 2.72 8 0 8 C0 5.36 0 2.72 0 0 Z " fill="#33CCFF" transform="translate(230,202)"/>
<path d="M0 0 C2.64 0 5.28 0 8 0 C8 2.64 8 5.28 8 8 C5.36 8 2.72 8 0 8 C0 5.36 0 2.72 0 0 Z " fill="#0099FF" transform="translate(222,202)"/>
<path d="M0 0 C2.64 0 5.28 0 8 0 C8 2.64 8 5.28 8 8 C5.36 8 2.72 8 0 8 C0 5.36 0 2.72 0 0 Z " fill="#33CCFF" transform="translate(214,202)"/>
<path d="M0 0 C2.64 0 5.28 0 8 0 C8 2.64 8 5.28 8 8 C5.36 8 2.72 8 0 8 C0 5.36 0 2.72 0 0 Z " fill="#0099FF" transform="translate(206,202)"/>
<path d="M0 0 C2.64 0 5.28 0 8 0 C8 2.64 8 5.28 8 8 C5.36 8 2.72 8 0 8 C0 5.36 0 2.72 0 0 Z " fill="#33CCCC" transform="translate(182,202)"/>
<path d="M0 0 C2.64 0 5.28 0 8 0 C8 2.64 8 5.28 8 8 C5.36 8 2.72 8 0 8 C0 5.36 0 2.72 0 0 Z " fill="#CCCCFF" transform="translate(374,194)"/>
<path d="M0 0 C2.64 0 5.28 0 8 0 C8 2.64 8 5.28 8 8 C5.36 8 2.72 8 0 8 C0 5.36 0 2.72 0 0 Z " fill="#FFFFCC" transform="translate(366,194)"/>
<path d="M0 0 C2.64 0 5.28 0 8 0 C8 2.64 8 5.28 8 8 C5.36 8 2.72 8 0 8 C0 5.36 0 2.72 0 0 Z " fill="#F1F1F1" transform="translate(358,194)"/>
<path d="M0 0 C2.64 0 5.28 0 8 0 C8 2.64 8 5.28 8 8 C5.36 8 2.72 8 0 8 C0 5.36 0 2.72 0 0 Z " fill="#FFFFCC" transform="translate(350,194)"/>
<path d="M0 0 C2.64 0 5.28 0 8 0 C8 2.64 8 5.28 8 8 C5.36 8 2.72 8 0 8 C0 5.36 0 2.72 0 0 Z " fill="#F1F1F1" transform="translate(342,194)"/>
<path d="M0 0 C2.64 0 5.28 0 8 0 C8 2.64 8 5.28 8 8 C5.36 8 2.72 8 0 8 C0 5.36 0 2.72 0 0 Z " fill="#FFFFCC" transform="translate(334,194)"/>
<path d="M0 0 C2.64 0 5.28 0 8 0 C8 2.64 8 5.28 8 8 C5.36 8 2.72 8 0 8 C0 5.36 0 2.72 0 0 Z " fill="#FFFFCC" transform="translate(318,194)"/>
<path d="M0 0 C2.64 0 5.28 0 8 0 C8 2.64 8 5.28 8 8 C5.36 8 2.72 8 0 8 C0 5.36 0 2.72 0 0 Z " fill="#CCCCFF" transform="translate(302,194)"/>
<path d="M0 0 C2.64 0 5.28 0 8 0 C8 2.64 8 5.28 8 8 C5.36 8 2.72 8 0 8 C0 5.36 0 2.72 0 0 Z " fill="#393939" transform="translate(286,194)"/>
<path d="M0 0 C2.64 0 5.28 0 8 0 C8 2.64 8 5.28 8 8 C5.36 8 2.72 8 0 8 C0 5.36 0 2.72 0 0 Z " fill="#0099FF" transform="translate(214,194)"/>
<path d="M0 0 C2.64 0 5.28 0 8 0 C8 2.64 8 5.28 8 8 C5.36 8 2.72 8 0 8 C0 5.36 0 2.72 0 0 Z " fill="#3399FF" transform="translate(350,186)"/>
<path d="M0 0 C2.64 0 5.28 0 8 0 C8 2.64 8 5.28 8 8 C5.36 8 2.72 8 0 8 C0 5.36 0 2.72 0 0 Z " fill="#3399FF" transform="translate(326,186)"/>
<path d="M0 0 C2.64 0 5.28 0 8 0 C8 2.64 8 5.28 8 8 C5.36 8 2.72 8 0 8 C0 5.36 0 2.72 0 0 Z " fill="#CCCCFF" transform="translate(294,186)"/>
<path d="M0 0 C2.64 0 5.28 0 8 0 C8 2.64 8 5.28 8 8 C5.36 8 2.72 8 0 8 C0 5.36 0 2.72 0 0 Z " fill="#666699" transform="translate(286,186)"/>
<path d="M0 0 C2.64 0 5.28 0 8 0 C8 2.64 8 5.28 8 8 C5.36 8 2.72 8 0 8 C0 5.36 0 2.72 0 0 Z " fill="#008000" transform="translate(254,186)"/>
<path d="M0 0 C2.64 0 5.28 0 8 0 C8 2.64 8 5.28 8 8 C5.36 8 2.72 8 0 8 C0 5.36 0 2.72 0 0 Z " fill="#0099FF" transform="translate(198,186)"/>
<path d="M0 0 C2.64 0 5.28 0 8 0 C8 2.64 8 5.28 8 8 C5.36 8 2.72 8 0 8 C0 5.36 0 2.72 0 0 Z " fill="#336600" transform="translate(190,186)"/>
<path d="M0 0 C2.64 0 5.28 0 8 0 C8 2.64 8 5.28 8 8 C5.36 8 2.72 8 0 8 C0 5.36 0 2.72 0 0 Z " fill="#0066CC" transform="translate(366,178)"/>
<path d="M0 0 C2.64 0 5.28 0 8 0 C8 2.64 8 5.28 8 8 C5.36 8 2.72 8 0 8 C0 5.36 0 2.72 0 0 Z " fill="#6699FF" transform="translate(358,178)"/>
<path d="M0 0 C2.64 0 5.28 0 8 0 C8 2.64 8 5.28 8 8 C5.36 8 2.72 8 0 8 C0 5.36 0 2.72 0 0 Z " fill="#33CCFF" transform="translate(350,178)"/>
<path d="M0 0 C2.64 0 5.28 0 8 0 C8 2.64 8 5.28 8 8 C5.36 8 2.72 8 0 8 C0 5.36 0 2.72 0 0 Z " fill="#CCCCCC" transform="translate(294,178)"/>
<path d="M0 0 C2.64 0 5.28 0 8 0 C8 2.64 8 5.28 8 8 C5.36 8 2.72 8 0 8 C0 5.36 0 2.72 0 0 Z " fill="#969696" transform="translate(286,178)"/>
<path d="M0 0 C2.64 0 5.28 0 8 0 C8 2.64 8 5.28 8 8 C5.36 8 2.72 8 0 8 C0 5.36 0 2.72 0 0 Z " fill="#008000" transform="translate(246,178)"/>
<path d="M0 0 C2.64 0 5.28 0 8 0 C8 2.64 8 5.28 8 8 C5.36 8 2.72 8 0 8 C0 5.36 0 2.72 0 0 Z " fill="#33CCFF" transform="translate(238,178)"/>
<path d="M0 0 C2.64 0 5.28 0 8 0 C8 2.64 8 5.28 8 8 C5.36 8 2.72 8 0 8 C0 5.36 0 2.72 0 0 Z " fill="#0099FF" transform="translate(230,178)"/>
<path d="M0 0 C2.64 0 5.28 0 8 0 C8 2.64 8 5.28 8 8 C5.36 8 2.72 8 0 8 C0 5.36 0 2.72 0 0 Z " fill="#0099FF" transform="translate(206,178)"/>
<path d="M0 0 C2.64 0 5.28 0 8 0 C8 2.64 8 5.28 8 8 C5.36 8 2.72 8 0 8 C0 5.36 0 2.72 0 0 Z " fill="#336600" transform="translate(198,178)"/>
<path d="M0 0 C2.64 0 5.28 0 8 0 C8 2.64 8 5.28 8 8 C5.36 8 2.72 8 0 8 C0 5.36 0 2.72 0 0 Z " fill="#CCFFCC" transform="translate(190,178)"/>
<path d="M0 0 C2.64 0 5.28 0 8 0 C8 2.64 8 5.28 8 8 C5.36 8 2.72 8 0 8 C0 5.36 0 2.72 0 0 Z " fill="#336600" transform="translate(182,178)"/>
<path d="M0 0 C2.64 0 5.28 0 8 0 C8 2.64 8 5.28 8 8 C5.36 8 2.72 8 0 8 C0 5.36 0 2.72 0 0 Z " fill="#99FFFF" transform="translate(174,178)"/>
<path d="M0 0 C2.64 0 5.28 0 8 0 C8 2.64 8 5.28 8 8 C5.36 8 2.72 8 0 8 C0 5.36 0 2.72 0 0 Z " fill="#CCFFFF" transform="translate(374,170)"/>
<path d="M0 0 C2.64 0 5.28 0 8 0 C8 2.64 8 5.28 8 8 C5.36 8 2.72 8 0 8 C0 5.36 0 2.72 0 0 Z " fill="#66FFFF" transform="translate(318,170)"/>
<path d="M0 0 C2.64 0 5.28 0 8 0 C8 2.64 8 5.28 8 8 C5.36 8 2.72 8 0 8 C0 5.36 0 2.72 0 0 Z " fill="#FFFBF0" transform="translate(302,170)"/>
<path d="M0 0 C2.64 0 5.28 0 8 0 C8 2.64 8 5.28 8 8 C5.36 8 2.72 8 0 8 C0 5.36 0 2.72 0 0 Z " fill="#CCCCFF" transform="translate(294,170)"/>
<path d="M0 0 C2.64 0 5.28 0 8 0 C8 2.64 8 5.28 8 8 C5.36 8 2.72 8 0 8 C0 5.36 0 2.72 0 0 Z " fill="#868686" transform="translate(286,170)"/>
<path d="M0 0 C2.64 0 5.28 0 8 0 C8 2.64 8 5.28 8 8 C5.36 8 2.72 8 0 8 C0 5.36 0 2.72 0 0 Z " fill="#008000" transform="translate(270,170)"/>
<path d="M0 0 C2.64 0 5.28 0 8 0 C8 2.64 8 5.28 8 8 C5.36 8 2.72 8 0 8 C0 5.36 0 2.72 0 0 Z " fill="#008000" transform="translate(254,170)"/>
<path d="M0 0 C2.64 0 5.28 0 8 0 C8 2.64 8 5.28 8 8 C5.36 8 2.72 8 0 8 C0 5.36 0 2.72 0 0 Z " fill="#33CCFF" transform="translate(246,170)"/>
<path d="M0 0 C2.64 0 5.28 0 8 0 C8 2.64 8 5.28 8 8 C5.36 8 2.72 8 0 8 C0 5.36 0 2.72 0 0 Z " fill="#0099FF" transform="translate(238,170)"/>
<path d="M0 0 C2.64 0 5.28 0 8 0 C8 2.64 8 5.28 8 8 C5.36 8 2.72 8 0 8 C0 5.36 0 2.72 0 0 Z " fill="#0099FF" transform="translate(214,170)"/>
<path d="M0 0 C2.64 0 5.28 0 8 0 C8 2.64 8 5.28 8 8 C5.36 8 2.72 8 0 8 C0 5.36 0 2.72 0 0 Z " fill="#336633" transform="translate(206,170)"/>
<path d="M0 0 C2.64 0 5.28 0 8 0 C8 2.64 8 5.28 8 8 C5.36 8 2.72 8 0 8 C0 5.36 0 2.72 0 0 Z " fill="#CCFFCC" transform="translate(182,170)"/>
<path d="M0 0 C2.64 0 5.28 0 8 0 C8 2.64 8 5.28 8 8 C5.36 8 2.72 8 0 8 C0 5.36 0 2.72 0 0 Z " fill="#336600" transform="translate(174,170)"/>
<path d="M0 0 C2.64 0 5.28 0 8 0 C8 2.64 8 5.28 8 8 C5.36 8 2.72 8 0 8 C0 5.36 0 2.72 0 0 Z " fill="#C0DCC0" transform="translate(166,170)"/>
<path d="M0 0 C2.64 0 5.28 0 8 0 C8 2.64 8 5.28 8 8 C5.36 8 2.72 8 0 8 C0 5.36 0 2.72 0 0 Z " fill="#CCCCCC" transform="translate(294,162)"/>
<path d="M0 0 C2.64 0 5.28 0 8 0 C8 2.64 8 5.28 8 8 C5.36 8 2.72 8 0 8 C0 5.36 0 2.72 0 0 Z " fill="#969696" transform="translate(286,162)"/>
<path d="M0 0 C2.64 0 5.28 0 8 0 C8 2.64 8 5.28 8 8 C5.36 8 2.72 8 0 8 C0 5.36 0 2.72 0 0 Z " fill="#008000" transform="translate(262,162)"/>
<path d="M0 0 C2.64 0 5.28 0 8 0 C8 2.64 8 5.28 8 8 C5.36 8 2.72 8 0 8 C0 5.36 0 2.72 0 0 Z " fill="#0099FF" transform="translate(246,162)"/>
<path d="M0 0 C2.64 0 5.28 0 8 0 C8 2.64 8 5.28 8 8 C5.36 8 2.72 8 0 8 C0 5.36 0 2.72 0 0 Z " fill="#0099FF" transform="translate(222,162)"/>
<path d="M0 0 C2.64 0 5.28 0 8 0 C8 2.64 8 5.28 8 8 C5.36 8 2.72 8 0 8 C0 5.36 0 2.72 0 0 Z " fill="#336633" transform="translate(214,162)"/>
<path d="M0 0 C2.64 0 5.28 0 8 0 C8 2.64 8 5.28 8 8 C5.36 8 2.72 8 0 8 C0 5.36 0 2.72 0 0 Z " fill="#66FF66" transform="translate(174,162)"/>
<path d="M0 0 C2.64 0 5.28 0 8 0 C8 2.64 8 5.28 8 8 C5.36 8 2.72 8 0 8 C0 5.36 0 2.72 0 0 Z " fill="#336600" transform="translate(166,162)"/>
<path d="M0 0 C2.64 0 5.28 0 8 0 C8 2.64 8 5.28 8 8 C5.36 8 2.72 8 0 8 C0 5.36 0 2.72 0 0 Z " fill="#66FFFF" transform="translate(374,154)"/>
<path d="M0 0 C2.64 0 5.28 0 8 0 C8 2.64 8 5.28 8 8 C5.36 8 2.72 8 0 8 C0 5.36 0 2.72 0 0 Z " fill="#6699FF" transform="translate(358,154)"/>
<path d="M0 0 C2.64 0 5.28 0 8 0 C8 2.64 8 5.28 8 8 C5.36 8 2.72 8 0 8 C0 5.36 0 2.72 0 0 Z " fill="#66FFFF" transform="translate(342,154)"/>
<path d="M0 0 C2.64 0 5.28 0 8 0 C8 2.64 8 5.28 8 8 C5.36 8 2.72 8 0 8 C0 5.36 0 2.72 0 0 Z " fill="#868686" transform="translate(286,154)"/>
<path d="M0 0 C2.64 0 5.28 0 8 0 C8 2.64 8 5.28 8 8 C5.36 8 2.72 8 0 8 C0 5.36 0 2.72 0 0 Z " fill="#336600" transform="translate(246,154)"/>
<path d="M0 0 C2.64 0 5.28 0 8 0 C8 2.64 8 5.28 8 8 C5.36 8 2.72 8 0 8 C0 5.36 0 2.72 0 0 Z " fill="#0099FF" transform="translate(230,154)"/>
<path d="M0 0 C2.64 0 5.28 0 8 0 C8 2.64 8 5.28 8 8 C5.36 8 2.72 8 0 8 C0 5.36 0 2.72 0 0 Z " fill="#336633" transform="translate(222,154)"/>
<path d="M0 0 C2.64 0 5.28 0 8 0 C8 2.64 8 5.28 8 8 C5.36 8 2.72 8 0 8 C0 5.36 0 2.72 0 0 Z " fill="#99FF99" transform="translate(182,154)"/>
<path d="M0 0 C2.64 0 5.28 0 8 0 C8 2.64 8 5.28 8 8 C5.36 8 2.72 8 0 8 C0 5.36 0 2.72 0 0 Z " fill="#FFFFFF" transform="translate(166,154)"/>
<path d="M0 0 C2.64 0 5.28 0 8 0 C8 2.64 8 5.28 8 8 C5.36 8 2.72 8 0 8 C0 5.36 0 2.72 0 0 Z " fill="#33CC33" transform="translate(158,154)"/>
<path d="M0 0 C2.64 0 5.28 0 8 0 C8 2.64 8 5.28 8 8 C5.36 8 2.72 8 0 8 C0 5.36 0 2.72 0 0 Z " fill="#424242" transform="translate(350,146)"/>
<path d="M0 0 C2.64 0 5.28 0 8 0 C8 2.64 8 5.28 8 8 C5.36 8 2.72 8 0 8 C0 5.36 0 2.72 0 0 Z " fill="#333333" transform="translate(326,146)"/>
<path d="M0 0 C2.64 0 5.28 0 8 0 C8 2.64 8 5.28 8 8 C5.36 8 2.72 8 0 8 C0 5.36 0 2.72 0 0 Z " fill="#996699" transform="translate(318,146)"/>
<path d="M0 0 C2.64 0 5.28 0 8 0 C8 2.64 8 5.28 8 8 C5.36 8 2.72 8 0 8 C0 5.36 0 2.72 0 0 Z " fill="#6699CC" transform="translate(310,146)"/>
<path d="M0 0 C2.64 0 5.28 0 8 0 C8 2.64 8 5.28 8 8 C5.36 8 2.72 8 0 8 C0 5.36 0 2.72 0 0 Z " fill="#CCCCCC" transform="translate(294,146)"/>
<path d="M0 0 C2.64 0 5.28 0 8 0 C8 2.64 8 5.28 8 8 C5.36 8 2.72 8 0 8 C0 5.36 0 2.72 0 0 Z " fill="#3366FF" transform="translate(270,146)"/>
<path d="M0 0 C2.64 0 5.28 0 8 0 C8 2.64 8 5.28 8 8 C5.36 8 2.72 8 0 8 C0 5.36 0 2.72 0 0 Z " fill="#33CC00" transform="translate(214,146)"/>
<path d="M0 0 C2.64 0 5.28 0 8 0 C8 2.64 8 5.28 8 8 C5.36 8 2.72 8 0 8 C0 5.36 0 2.72 0 0 Z " fill="#33FF66" transform="translate(198,146)"/>
<path d="M0 0 C2.64 0 5.28 0 8 0 C8 2.64 8 5.28 8 8 C5.36 8 2.72 8 0 8 C0 5.36 0 2.72 0 0 Z " fill="#CCFFCC" transform="translate(182,146)"/>
<path d="M0 0 C2.64 0 5.28 0 8 0 C8 2.64 8 5.28 8 8 C5.36 8 2.72 8 0 8 C0 5.36 0 2.72 0 0 Z " fill="#33CC33" transform="translate(166,146)"/>
<path d="M0 0 C2.64 0 5.28 0 8 0 C8 2.64 8 5.28 8 8 C5.36 8 2.72 8 0 8 C0 5.36 0 2.72 0 0 Z " fill="#CCCCFF" transform="translate(374,138)"/>
<path d="M0 0 C2.64 0 5.28 0 8 0 C8 2.64 8 5.28 8 8 C5.36 8 2.72 8 0 8 C0 5.36 0 2.72 0 0 Z " fill="#FFFFCC" transform="translate(366,138)"/>
<path d="M0 0 C2.64 0 5.28 0 8 0 C8 2.64 8 5.28 8 8 C5.36 8 2.72 8 0 8 C0 5.36 0 2.72 0 0 Z " fill="#868686" transform="translate(286,138)"/>
<path d="M0 0 C2.64 0 5.28 0 8 0 C8 2.64 8 5.28 8 8 C5.36 8 2.72 8 0 8 C0 5.36 0 2.72 0 0 Z " fill="#336600" transform="translate(270,138)"/>
<path d="M0 0 C2.64 0 5.28 0 8 0 C8 2.64 8 5.28 8 8 C5.36 8 2.72 8 0 8 C0 5.36 0 2.72 0 0 Z " fill="#66FF99" transform="translate(206,138)"/>
<path d="M0 0 C2.64 0 5.28 0 8 0 C8 2.64 8 5.28 8 8 C5.36 8 2.72 8 0 8 C0 5.36 0 2.72 0 0 Z " fill="#FFFFFF" transform="translate(190,138)"/>
<path d="M0 0 C2.64 0 5.28 0 8 0 C8 2.64 8 5.28 8 8 C5.36 8 2.72 8 0 8 C0 5.36 0 2.72 0 0 Z " fill="#3366FF" transform="translate(278,130)"/>
<path d="M0 0 C2.64 0 5.28 0 8 0 C8 2.64 8 5.28 8 8 C5.36 8 2.72 8 0 8 C0 5.36 0 2.72 0 0 Z " fill="#33FF66" transform="translate(238,130)"/>
<path d="M0 0 C2.64 0 5.28 0 8 0 C8 2.64 8 5.28 8 8 C5.36 8 2.72 8 0 8 C0 5.36 0 2.72 0 0 Z " fill="#FFFFFF" transform="translate(206,130)"/>
</svg>
