<?xml version="1.0" encoding="UTF-8"?>
<svg version="1.1" xmlns="http://www.w3.org/2000/svg" width="1221" height="881">
<path d="M0 0 C37.29 0 74.58 0 113 0 C113 0.99 113 1.98 113 3 C116.3 3 119.6 3 123 3 C123 4.32 123 5.64 123 7 C128.28 7 133.56 7 139 7 C139 7.99 139 8.98 139 10 C146.92 10 154.84 10 163 10 C163 10.99 163 11.98 163 13 C169.6 13 176.2 13 183 13 C183 14.32 183 15.64 183 17 C187.29 17 191.58 17 196 17 C196 17.99 196 18.98 196 20 C199.3 20 202.6 20 206 20 C206 20.99 206 21.98 206 23 C210.29 23 214.58 23 219 23 C219 24.32 219 25.64 219 27 C222.3 27 225.6 27 229 27 C229 27.99 229 28.98 229 30 C233.29 30 237.58 30 242 30 C242 30.99 242 31.98 242 33 C244.31 33 246.62 33 249 33 C249 34.32 249 35.64 249 37 C251.31 37 253.62 37 256 37 C256 37.99 256 38.98 256 40 C257.98 40 259.96 40 262 40 C262 40.99 262 41.98 262 43 C265.3 43 268.6 43 272 43 C272 44.32 272 45.64 272 47 C274.31 47 276.62 47 279 47 C279 47.99 279 48.98 279 50 C282.3 50 285.6 50 289 50 C289 50.99 289 51.98 289 53 C291.31 53 293.62 53 296 53 C296 54.32 296 55.64 296 57 C297.98 57 299.96 57 302 57 C302 57.99 302 58.98 302 60 C304.31 60 306.62 60 309 60 C309 60.99 309 61.98 309 63 C311.31 63 313.62 63 316 63 C316 64.32 316 65.64 316 67 C317.98 67 319.96 67 322 67 C322 67.99 322 68.98 322 70 C324.31 70 326.62 70 329 70 C329 70.99 329 71.98 329 73 C331.31 73 333.62 73 336 73 C336 74.32 336 75.64 336 77 C338.97 77 341.94 77 345 77 C345 77.99 345 78.98 345 80 C348.3 80 351.6 80 355 80 C355 80.99 355 81.98 355 83 C357.31 83 359.62 83 362 83 C362 84.32 362 85.64 362 87 C364.31 87 366.62 87 369 87 C369 87.99 369 88.98 369 90 C370.98 90 372.96 90 375 90 C375 90.99 375 91.98 375 93 C377.31 93 379.62 93 382 93 C382 94.32 382 95.64 382 97 C384.31 97 386.62 97 389 97 C389 97.99 389 98.98 389 100 C389.99 100 390.98 100 392 100 C392 100.99 392 101.98 392 103 C394.31 103 396.62 103 399 103 C399 103.99 399 104.98 399 106 C399.99 106 400.98 106 402 106 C402 107.32 402 108.64 402 110 C404.31 110 406.62 110 409 110 C409 110.99 409 111.98 409 113 C410.98 113 412.96 113 415 113 C415 113.99 415 114.98 415 116 C416.32 116 417.64 116 419 116 C419 117.32 419 118.64 419 120 C420.98 120 422.96 120 425 120 C425 120.99 425 121.98 425 123 C427.31 123 429.62 123 432 123 C432 123.99 432 124.98 432 126 C432.99 126 433.98 126 435 126 C435 127.32 435 128.64 435 130 C436.32 130 437.64 130 439 130 C439 130.99 439 131.98 439 133 C439.99 133 440.98 133 442 133 C442 133.99 442 134.98 442 136 C442.99 136 443.98 136 445 136 C445 137.32 445 138.64 445 140 C446.32 140 447.64 140 449 140 C449 140.99 449 141.98 449 143 C449.99 143 450.98 143 452 143 C452 143.99 452 144.98 452 146 C454.31 146 456.62 146 459 146 C459 147.32 459 148.64 459 150 C459.99 150 460.98 150 462 150 C462 150.99 462 151.98 462 153 C462.99 153 463.98 153 465 153 C465 153.99 465 154.98 465 156 C466.32 156 467.64 156 469 156 C469 157.32 469 158.64 469 160 C469.99 160 470.98 160 472 160 C472 160.99 472 161.98 472 163 C472.99 163 473.98 163 475 163 C475 163.99 475 164.98 475 166 C476.32 166 477.64 166 479 166 C479 167.32 479 168.64 479 170 C479.99 170 480.98 170 482 170 C482 170.99 482 171.98 482 173 C482.99 173 483.98 173 485 173 C485 173.99 485 174.98 485 176 C486.32 176 487.64 176 489 176 C489 177.32 489 178.64 489 180 C489.99 180 490.98 180 492 180 C492 180.99 492 181.98 492 183 C492.99 183 493.98 183 495 183 C495 185.31 495 187.62 495 190 C495.99 190 496.98 190 498 190 C498 190.99 498 191.98 498 193 C499.32 193 500.64 193 502 193 C502 195.31 502 197.62 502 200 C502.99 200 503.98 200 505 200 C505 200.99 505 201.98 505 203 C505.99 203 506.98 203 508 203 C508 205.31 508 207.62 508 210 C509.32 210 510.64 210 512 210 C512 210.99 512 211.98 512 213 C512.99 213 513.98 213 515 213 C515 215.31 515 217.62 515 220 C515.99 220 516.98 220 518 220 C518 221.98 518 223.96 518 226 C519.32 226 520.64 226 522 226 C522 229.3 522 232.6 522 236 C522.99 236 523.98 236 525 236 C525 238.31 525 240.62 525 243 C525.99 243 526.98 243 528 243 C528 246.3 528 249.6 528 253 C529.32 253 530.64 253 532 253 C532 254.98 532 256.96 532 259 C532.99 259 533.98 259 535 259 C535 262.3 535 265.6 535 269 C535.99 269 536.98 269 538 269 C538 274.61 538 280.22 538 286 C539.32 286 540.64 286 542 286 C542 290.29 542 294.58 542 299 C542.99 299 543.98 299 545 299 C545 324.41 545 349.82 545 376 C544.01 376 543.02 376 542 376 C542 381.61 542 387.22 542 393 C540.68 393 539.36 393 538 393 C538 395.97 538 398.94 538 402 C537.01 402 536.02 402 535 402 C535 404.31 535 406.62 535 409 C534.01 409 533.02 409 532 409 C532 413.29 532 417.58 532 422 C530.68 422 529.36 422 528 422 C528 424.31 528 426.62 528 429 C527.01 429 526.02 429 525 429 C525 431.31 525 433.62 525 436 C524.01 436 523.02 436 522 436 C522 436.99 522 437.98 522 439 C520.68 439 519.36 439 518 439 C518 441.31 518 443.62 518 446 C517.01 446 516.02 446 515 446 C515 447.98 515 449.96 515 452 C514.01 452 513.02 452 512 452 C512 454.31 512 456.62 512 459 C510.68 459 509.36 459 508 459 C508 459.99 508 460.98 508 462 C507.01 462 506.02 462 505 462 C505 463.32 505 464.64 505 466 C504.01 466 503.02 466 502 466 C502 467.98 502 469.96 502 472 C500.68 472 499.36 472 498 472 C498 474.31 498 476.62 498 479 C497.01 479 496.02 479 495 479 C495 479.99 495 480.98 495 482 C494.01 482 493.02 482 492 482 C492 484.31 492 486.62 492 489 C491.01 489 490.02 489 489 489 C489 489.99 489 490.98 489 492 C487.68 492 486.36 492 485 492 C485 493.32 485 494.64 485 496 C484.01 496 483.02 496 482 496 C482 496.99 482 497.98 482 499 C481.01 499 480.02 499 479 499 C479 499.99 479 500.98 479 502 C477.68 502 476.36 502 475 502 C475 503.32 475 504.64 475 506 C474.01 506 473.02 506 472 506 C472 506.99 472 507.98 472 509 C471.01 509 470.02 509 469 509 C469 509.99 469 510.98 469 512 C467.68 512 466.36 512 465 512 C465 514.31 465 516.62 465 519 C464.01 519 463.02 519 462 519 C462 519.99 462 520.98 462 522 C461.01 522 460.02 522 459 522 C459 523.32 459 524.64 459 526 C457.68 526 456.36 526 455 526 C455 526.99 455 527.98 455 529 C454.01 529 453.02 529 452 529 C452 529.99 452 530.98 452 532 C451.01 532 450.02 532 449 532 C449 533.32 449 534.64 449 536 C447.68 536 446.36 536 445 536 C445 536.99 445 537.98 445 539 C444.01 539 443.02 539 442 539 C442 539.99 442 540.98 442 542 C441.01 542 440.02 542 439 542 C439 542.99 439 543.98 439 545 C437.68 545 436.36 545 435 545 C435 546.32 435 547.64 435 549 C434.01 549 433.02 549 432 549 C432 549.99 432 550.98 432 552 C431.01 552 430.02 552 429 552 C429 552.99 429 553.98 429 555 C427.68 555 426.36 555 425 555 C425 556.32 425 557.64 425 559 C424.01 559 423.02 559 422 559 C422 559.99 422 560.98 422 562 C421.01 562 420.02 562 419 562 C419 562.99 419 563.98 419 565 C417.68 565 416.36 565 415 565 C415 566.32 415 567.64 415 569 C414.01 569 413.02 569 412 569 C412 569.99 412 570.98 412 572 C411.01 572 410.02 572 409 572 C409 572.99 409 573.98 409 575 C407.68 575 406.36 575 405 575 C405 576.32 405 577.64 405 579 C404.01 579 403.02 579 402 579 C402 579.99 402 580.98 402 582 C401.01 582 400.02 582 399 582 C399 582.99 399 583.98 399 585 C397.68 585 396.36 585 395 585 C395 586.32 395 587.64 395 589 C394.01 589 393.02 589 392 589 C392 589.99 392 590.98 392 592 C391.01 592 390.02 592 389 592 C389 592.99 389 593.98 389 595 C387.68 595 386.36 595 385 595 C385 596.32 385 597.64 385 599 C383.02 599 381.04 599 379 599 C379 599.99 379 600.98 379 602 C377.68 602 376.36 602 375 602 C375 602.99 375 603.98 375 605 C373.02 605 371.04 605 369 605 C369 606.32 369 607.64 369 609 C367.68 609 366.36 609 365 609 C365 609.99 365 610.98 365 612 C363.02 612 361.04 612 359 612 C359 612.99 359 613.98 359 615 C356.69 615 354.38 615 352 615 C352 616.32 352 617.64 352 619 C351.01 619 350.02 619 349 619 C349 619.99 349 620.98 349 622 C346.69 622 344.38 622 342 622 C342 622.99 342 623.98 342 625 C341.01 625 340.02 625 339 625 C339 626.32 339 627.64 339 629 C336.69 629 334.38 629 332 629 C332 629.99 332 630.98 332 632 C330.02 632 328.04 632 326 632 C326 632.99 326 633.98 326 635 C323.69 635 321.38 635 319 635 C319 636.32 319 637.64 319 639 C316.69 639 314.38 639 312 639 C312 639.99 312 640.98 312 642 C310.02 642 308.04 642 306 642 C306 642.99 306 643.98 306 645 C303.69 645 301.38 645 299 645 C299 646.32 299 647.64 299 649 C298.01 649 297.02 649 296 649 C296 649.99 296 650.98 296 652 C293.69 652 291.38 652 289 652 C289 652.99 289 653.98 289 655 C286.69 655 284.38 655 282 655 C282 656.32 282 657.64 282 659 C280.02 659 278.04 659 276 659 C276 659.99 276 660.98 276 662 C273.69 662 271.38 662 269 662 C269 662.99 269 663.98 269 665 C268.01 665 267.02 665 266 665 C266 666.32 266 667.64 266 669 C263.69 669 261.38 669 259 669 C259 669.99 259 670.98 259 672 C258.01 672 257.02 672 256 672 C256 672.99 256 673.98 256 675 C254.68 675 253.36 675 252 675 C252 676.32 252 677.64 252 679 C250.02 679 248.04 679 246 679 C246 679.99 246 680.98 246 682 C244.68 682 243.36 682 242 682 C242 682.99 242 683.98 242 685 C240.02 685 238.04 685 236 685 C236 685.99 236 686.98 236 688 C233.69 688 231.38 688 229 688 C229 689.32 229 690.64 229 692 C228.01 692 227.02 692 226 692 C226 692.99 226 693.98 226 695 C223.69 695 221.38 695 219 695 C219 695.99 219 696.98 219 698 C218.01 698 217.02 698 216 698 C216 699.32 216 700.64 216 702 C214.68 702 213.36 702 212 702 C212 702.99 212 703.98 212 705 C210.02 705 208.04 705 206 705 C206 705.99 206 706.98 206 708 C204.68 708 203.36 708 202 708 C202 709.32 202 710.64 202 712 C201.01 712 200.02 712 199 712 C199 712.99 199 713.98 199 715 C198.01 715 197.02 715 196 715 C196 715.99 196 716.98 196 718 C195.01 718 194.02 718 193 718 C193 719.32 193 720.64 193 722 C191.68 722 190.36 722 189 722 C189 722.99 189 723.98 189 725 C188.01 725 187.02 725 186 725 C186 725.99 186 726.98 186 728 C183.69 728 181.38 728 179 728 C179 729.32 179 730.64 179 732 C178.01 732 177.02 732 176 732 C176 732.99 176 733.98 176 735 C175.01 735 174.02 735 173 735 C173 735.99 173 736.98 173 738 C171.68 738 170.36 738 169 738 C169 740.31 169 742.62 169 745 C168.01 745 167.02 745 166 745 C166 747.31 166 749.62 166 752 C165.01 752 164.02 752 163 752 C163 752.99 163 753.98 163 755 C161.68 755 160.36 755 159 755 C159 757.31 159 759.62 159 762 C158.01 762 157.02 762 156 762 C156 765.3 156 768.6 156 772 C155.01 772 154.02 772 153 772 C153 776.29 153 780.58 153 785 C151.68 785 150.36 785 149 785 C149 787.31 149 789.62 149 792 C148.01 792 147.02 792 146 792 C146 810.48 146 828.96 146 848 C145.01 848 144.02 848 143 848 C143 848.99 143 849.98 143 851 C140.69 851 138.38 851 136 851 C136 853.31 136 855.62 136 858 C135.01 858 134.02 858 133 858 C133 858.99 133 859.98 133 861 C104.29 861 75.58 861 46 861 C46 862.32 46 863.64 46 865 C42.7 865 39.4 865 36 865 C36 865.99 36 866.98 36 868 C21.81 868 7.62 868 -7 868 C-7 867.01 -7 866.02 -7 865 C-15.91 865 -24.82 865 -34 865 C-34 863.68 -34 862.36 -34 861 C-39.28 861 -44.56 861 -50 861 C-50 860.01 -50 859.02 -50 858 C-54.62 858 -59.24 858 -64 858 C-64 857.01 -64 856.02 -64 855 C-69.28 855 -74.56 855 -80 855 C-80 853.68 -80 852.36 -80 851 C-84.62 851 -89.24 851 -94 851 C-94 850.01 -94 849.02 -94 848 C-103.57 848 -113.14 848 -123 848 C-123 847.01 -123 846.02 -123 845 C-126.3 845 -129.6 845 -133 845 C-133 843.68 -133 842.36 -133 841 C-140.92 841 -148.84 841 -157 841 C-157 840.01 -157 839.02 -157 838 C-162.28 838 -167.56 838 -173 838 C-173 837.01 -173 836.02 -173 835 C-180.92 835 -188.84 835 -197 835 C-197 834.01 -197 833.02 -197 832 C-201.29 832 -205.58 832 -210 832 C-210 830.68 -210 829.36 -210 828 C-216.6 828 -223.2 828 -230 828 C-230 827.01 -230 826.02 -230 825 C-233.3 825 -236.6 825 -240 825 C-240 824.01 -240 823.02 -240 822 C-240.99 822 -241.98 822 -243 822 C-243 809.79 -243 797.58 -243 785 C-242.01 785 -241.02 785 -240 785 C-240 775.1 -240 765.2 -240 755 C-239.01 755 -238.02 755 -237 755 C-237 746.09 -237 737.18 -237 728 C-237.99 728 -238.98 728 -240 728 C-240 726.02 -240 724.04 -240 722 C-240.99 722 -241.98 722 -243 722 C-243 716.39 -243 710.78 -243 705 C-243.99 705 -244.98 705 -246 705 C-246 699.39 -246 693.78 -246 688 C-247.32 688 -248.64 688 -250 688 C-250 682.72 -250 677.44 -250 672 C-250.99 672 -251.98 672 -253 672 C-253 669.69 -253 667.38 -253 665 C-253.99 665 -254.98 665 -256 665 C-256 659.72 -256 654.44 -256 649 C-257.32 649 -258.64 649 -260 649 C-260 646.69 -260 644.38 -260 642 C-260.99 642 -261.98 642 -263 642 C-263 641.01 -263 640.02 -263 639 C-263.99 639 -264.98 639 -266 639 C-266 637.68 -266 636.36 -266 635 C-267.32 635 -268.64 635 -270 635 C-270 633.02 -270 631.04 -270 629 C-270.99 629 -271.98 629 -273 629 C-273 627.68 -273 626.36 -273 625 C-273.99 625 -274.98 625 -276 625 C-276 623.02 -276 621.04 -276 619 C-277.32 619 -278.64 619 -280 619 C-280 617.68 -280 616.36 -280 615 C-280.99 615 -281.98 615 -283 615 C-283 614.01 -283 613.02 -283 612 C-285.31 612 -287.62 612 -290 612 C-290 611.01 -290 610.02 -290 609 C-290.99 609 -291.98 609 -293 609 C-293 607.68 -293 606.36 -293 605 C-293.99 605 -294.98 605 -296 605 C-296 604.01 -296 603.02 -296 602 C-297.32 602 -298.64 602 -300 602 C-300 601.01 -300 600.02 -300 599 C-300.99 599 -301.98 599 -303 599 C-303 597.68 -303 596.36 -303 595 C-303.99 595 -304.98 595 -306 595 C-306 594.01 -306 593.02 -306 592 C-307.32 592 -308.64 592 -310 592 C-310 591.01 -310 590.02 -310 589 C-310.99 589 -311.98 589 -313 589 C-313 587.68 -313 586.36 -313 585 C-315.31 585 -317.62 585 -320 585 C-320 584.01 -320 583.02 -320 582 C-320.99 582 -321.98 582 -323 582 C-323 581.01 -323 580.02 -323 579 C-323.99 579 -324.98 579 -326 579 C-326 577.68 -326 576.36 -326 575 C-327.32 575 -328.64 575 -330 575 C-330 574.01 -330 573.02 -330 572 C-331.98 572 -333.96 572 -336 572 C-336 571.01 -336 570.02 -336 569 C-338.31 569 -340.62 569 -343 569 C-343 567.68 -343 566.36 -343 565 C-343.99 565 -344.98 565 -346 565 C-346 564.01 -346 563.02 -346 562 C-348.31 562 -350.62 562 -353 562 C-353 561.01 -353 560.02 -353 559 C-355.31 559 -357.62 559 -360 559 C-360 557.68 -360 556.36 -360 555 C-361.98 555 -363.96 555 -366 555 C-366 554.01 -366 553.02 -366 552 C-367.32 552 -368.64 552 -370 552 C-370 551.01 -370 550.02 -370 549 C-371.98 549 -373.96 549 -376 549 C-376 547.68 -376 546.36 -376 545 C-378.31 545 -380.62 545 -383 545 C-383 544.01 -383 543.02 -383 542 C-385.31 542 -387.62 542 -390 542 C-390 541.01 -390 540.02 -390 539 C-390.99 539 -391.98 539 -393 539 C-393 538.01 -393 537.02 -393 536 C-394.98 536 -396.96 536 -399 536 C-399 534.68 -399 533.36 -399 532 C-400.32 532 -401.64 532 -403 532 C-403 531.01 -403 530.02 -403 529 C-404.98 529 -406.96 529 -409 529 C-409 528.01 -409 527.02 -409 526 C-411.31 526 -413.62 526 -416 526 C-416 524.68 -416 523.36 -416 522 C-418.31 522 -420.62 522 -423 522 C-423 521.01 -423 520.02 -423 519 C-424.98 519 -426.96 519 -429 519 C-429 518.01 -429 517.02 -429 516 C-432.3 516 -435.6 516 -439 516 C-439 514.68 -439 513.36 -439 512 C-441.31 512 -443.62 512 -446 512 C-446 511.01 -446 510.02 -446 509 C-449.3 509 -452.6 509 -456 509 C-456 508.01 -456 507.02 -456 506 C-458.31 506 -460.62 506 -463 506 C-463 504.68 -463 503.36 -463 502 C-464.98 502 -466.96 502 -469 502 C-469 501.01 -469 500.02 -469 499 C-471.31 499 -473.62 499 -476 499 C-476 498.01 -476 497.02 -476 496 C-480.29 496 -484.58 496 -489 496 C-489 494.68 -489 493.36 -489 492 C-491.31 492 -493.62 492 -496 492 C-496 491.01 -496 490.02 -496 489 C-496.99 489 -497.98 489 -499 489 C-499 488.01 -499 487.02 -499 486 C-501.31 486 -503.62 486 -506 486 C-506 484.68 -506 483.36 -506 482 C-508.31 482 -510.62 482 -513 482 C-513 481.01 -513 480.02 -513 479 C-514.98 479 -516.96 479 -519 479 C-519 478.01 -519 477.02 -519 476 C-520.32 476 -521.64 476 -523 476 C-523 474.68 -523 473.36 -523 472 C-524.98 472 -526.96 472 -529 472 C-529 471.01 -529 470.02 -529 469 C-530.32 469 -531.64 469 -533 469 C-533 468.01 -533 467.02 -533 466 C-534.98 466 -536.96 466 -539 466 C-539 464.68 -539 463.36 -539 462 C-539.99 462 -540.98 462 -542 462 C-542 461.01 -542 460.02 -542 459 C-543.32 459 -544.64 459 -546 459 C-546 458.01 -546 457.02 -546 456 C-546.99 456 -547.98 456 -549 456 C-549 454.68 -549 453.36 -549 452 C-551.31 452 -553.62 452 -556 452 C-556 451.01 -556 450.02 -556 449 C-556.99 449 -557.98 449 -559 449 C-559 448.01 -559 447.02 -559 446 C-561.31 446 -563.62 446 -566 446 C-566 444.68 -566 443.36 -566 442 C-566.99 442 -567.98 442 -569 442 C-569 441.01 -569 440.02 -569 439 C-571.31 439 -573.62 439 -576 439 C-576 438.01 -576 437.02 -576 436 C-576.99 436 -577.98 436 -579 436 C-579 434.68 -579 433.36 -579 432 C-581.31 432 -583.62 432 -586 432 C-586 431.01 -586 430.02 -586 429 C-586.99 429 -587.98 429 -589 429 C-589 428.01 -589 427.02 -589 426 C-589.99 426 -590.98 426 -592 426 C-592 424.68 -592 423.36 -592 422 C-593.32 422 -594.64 422 -596 422 C-596 421.01 -596 420.02 -596 419 C-596.99 419 -597.98 419 -599 419 C-599 418.01 -599 417.02 -599 416 C-599.99 416 -600.98 416 -602 416 C-602 414.68 -602 413.36 -602 412 C-603.32 412 -604.64 412 -606 412 C-606 411.01 -606 410.02 -606 409 C-606.99 409 -607.98 409 -609 409 C-609 408.01 -609 407.02 -609 406 C-609.99 406 -610.98 406 -612 406 C-612 404.68 -612 403.36 -612 402 C-613.32 402 -614.64 402 -616 402 C-616 401.01 -616 400.02 -616 399 C-616.99 399 -617.98 399 -619 399 C-619 398.01 -619 397.02 -619 396 C-619.99 396 -620.98 396 -622 396 C-622 395.01 -622 394.02 -622 393 C-623.32 393 -624.64 393 -626 393 C-626 391.68 -626 390.36 -626 389 C-626.99 389 -627.98 389 -629 389 C-629 387.02 -629 385.04 -629 383 C-629.99 383 -630.98 383 -632 383 C-632 380.69 -632 378.38 -632 376 C-633.32 376 -634.64 376 -636 376 C-636 373.69 -636 371.38 -636 369 C-636.99 369 -637.98 369 -639 369 C-639 367.02 -639 365.04 -639 363 C-639.99 363 -640.98 363 -642 363 C-642 360.69 -642 358.38 -642 356 C-643.32 356 -644.64 356 -646 356 C-646 352.7 -646 349.4 -646 346 C-646.99 346 -647.98 346 -649 346 C-649 342.7 -649 339.4 -649 336 C-649.99 336 -650.98 336 -652 336 C-652 332.7 -652 329.4 -652 326 C-653.32 326 -654.64 326 -656 326 C-656 322.7 -656 319.4 -656 316 C-656.99 316 -657.98 316 -659 316 C-659 296.2 -659 276.4 -659 256 C-658.01 256 -657.02 256 -656 256 C-656 253.69 -656 251.38 -656 249 C-654.68 249 -653.36 249 -652 249 C-652 247.02 -652 245.04 -652 243 C-651.01 243 -650.02 243 -649 243 C-649 240.69 -649 238.38 -649 236 C-648.01 236 -647.02 236 -646 236 C-646 234.02 -646 232.04 -646 230 C-644.68 230 -643.36 230 -642 230 C-642 227.69 -642 225.38 -642 223 C-641.01 223 -640.02 223 -639 223 C-639 222.01 -639 221.02 -639 220 C-638.01 220 -637.02 220 -636 220 C-636 218.68 -636 217.36 -636 216 C-634.68 216 -633.36 216 -632 216 C-632 215.01 -632 214.02 -632 213 C-631.01 213 -630.02 213 -629 213 C-629 210.69 -629 208.38 -629 206 C-628.01 206 -627.02 206 -626 206 C-626 205.01 -626 204.02 -626 203 C-624.68 203 -623.36 203 -622 203 C-622 202.01 -622 201.02 -622 200 C-621.01 200 -620.02 200 -619 200 C-619 198.68 -619 197.36 -619 196 C-616.69 196 -614.38 196 -612 196 C-612 195.01 -612 194.02 -612 193 C-611.01 193 -610.02 193 -609 193 C-609 192.01 -609 191.02 -609 190 C-606.69 190 -604.38 190 -602 190 C-602 188.68 -602 187.36 -602 186 C-600.02 186 -598.04 186 -596 186 C-596 185.01 -596 184.02 -596 183 C-593.69 183 -591.38 183 -589 183 C-589 182.01 -589 181.02 -589 180 C-588.01 180 -587.02 180 -586 180 C-586 178.68 -586 177.36 -586 176 C-583.69 176 -581.38 176 -579 176 C-579 175.01 -579 174.02 -579 173 C-578.01 173 -577.02 173 -576 173 C-576 172.01 -576 171.02 -576 170 C-574.68 170 -573.36 170 -572 170 C-572 168.68 -572 167.36 -572 166 C-570.02 166 -568.04 166 -566 166 C-566 165.01 -566 164.02 -566 163 C-564.68 163 -563.36 163 -562 163 C-562 162.01 -562 161.02 -562 160 C-560.02 160 -558.04 160 -556 160 C-556 158.68 -556 157.36 -556 156 C-553.69 156 -551.38 156 -549 156 C-549 155.01 -549 154.02 -549 153 C-546.69 153 -544.38 153 -542 153 C-542 152.01 -542 151.02 -542 150 C-539.03 150 -536.06 150 -533 150 C-533 148.68 -533 147.36 -533 146 C-530.69 146 -528.38 146 -526 146 C-526 145.01 -526 144.02 -526 143 C-523.69 143 -521.38 143 -519 143 C-519 142.01 -519 141.02 -519 140 C-517.02 140 -515.04 140 -513 140 C-513 138.68 -513 137.36 -513 136 C-510.69 136 -508.38 136 -506 136 C-506 135.01 -506 134.02 -506 133 C-503.69 133 -501.38 133 -499 133 C-499 132.01 -499 131.02 -499 130 C-495.7 130 -492.4 130 -489 130 C-489 128.68 -489 127.36 -489 126 C-487.02 126 -485.04 126 -483 126 C-483 125.01 -483 124.02 -483 123 C-479.7 123 -476.4 123 -473 123 C-473 122.01 -473 121.02 -473 120 C-470.69 120 -468.38 120 -466 120 C-466 118.68 -466 117.36 -466 116 C-462.7 116 -459.4 116 -456 116 C-456 115.01 -456 114.02 -456 113 C-451.71 113 -447.42 113 -443 113 C-443 112.01 -443 111.02 -443 110 C-440.69 110 -438.38 110 -436 110 C-436 108.68 -436 107.36 -436 106 C-432.7 106 -429.4 106 -426 106 C-426 105.01 -426 104.02 -426 103 C-421.71 103 -417.42 103 -413 103 C-413 102.01 -413 101.02 -413 100 C-410.69 100 -408.38 100 -406 100 C-406 99.01 -406 98.02 -406 97 C-402.7 97 -399.4 97 -396 97 C-396 95.68 -396 94.36 -396 93 C-390.72 93 -385.44 93 -380 93 C-380 92.01 -380 91.02 -380 90 C-376.7 90 -373.4 90 -370 90 C-370 89.01 -370 88.02 -370 87 C-367.69 87 -365.38 87 -363 87 C-363 85.68 -363 84.36 -363 83 C-358.71 83 -354.42 83 -350 83 C-350 82.01 -350 81.02 -350 80 C-344.39 80 -338.78 80 -333 80 C-333 79.01 -333 78.02 -333 77 C-327.39 77 -321.78 77 -316 77 C-316 75.68 -316 74.36 -316 73 C-311.71 73 -307.42 73 -303 73 C-303 72.01 -303 71.02 -303 70 C-299.7 70 -296.4 70 -293 70 C-293 69.01 -293 68.02 -293 67 C-288.71 67 -284.42 67 -280 67 C-280 65.68 -280 64.36 -280 63 C-274.39 63 -268.78 63 -263 63 C-263 62.01 -263 61.02 -263 60 C-257.39 60 -251.78 60 -246 60 C-246 59.01 -246 58.02 -246 57 C-241.71 57 -237.42 57 -233 57 C-233 55.68 -233 54.36 -233 53 C-229.7 53 -226.4 53 -223 53 C-223 52.01 -223 51.02 -223 50 C-219.7 50 -216.4 50 -213 50 C-213 49.01 -213 48.02 -213 47 C-209.7 47 -206.4 47 -203 47 C-203 45.68 -203 44.36 -203 43 C-198.71 43 -194.42 43 -190 43 C-190 42.01 -190 41.02 -190 40 C-185.71 40 -181.42 40 -177 40 C-177 39.01 -177 38.02 -177 37 C-170.4 37 -163.8 37 -157 37 C-157 35.68 -157 34.36 -157 33 C-151.39 33 -145.78 33 -140 33 C-140 32.01 -140 31.02 -140 30 C-133.4 30 -126.8 30 -120 30 C-120 29.01 -120 28.02 -120 27 C-114.39 27 -108.78 27 -103 27 C-103 25.68 -103 24.36 -103 23 C-98.71 23 -94.42 23 -90 23 C-90 22.01 -90 21.02 -90 20 C-86.7 20 -83.4 20 -80 20 C-80 19.01 -80 18.02 -80 17 C-75.71 17 -71.42 17 -67 17 C-67 15.68 -67 14.36 -67 13 C-61.39 13 -55.78 13 -50 13 C-50 12.01 -50 11.02 -50 10 C-44.72 10 -39.44 10 -34 10 C-34 9.01 -34 8.02 -34 7 C-28.39 7 -22.78 7 -17 7 C-17 5.68 -17 4.36 -17 3 C-11.39 3 -5.78 3 0 3 C0 2.01 0 1.02 0 0 Z " fill="#F4ECD4" transform="translate(667,8)"/>
<path d="M0 0 C37.29 0 74.58 0 113 0 C113 0.99 113 1.98 113 3 C116.3 3 119.6 3 123 3 C123 4.32 123 5.64 123 7 C128.28 7 133.56 7 139 7 C139 7.99 139 8.98 139 10 C146.92 10 154.84 10 163 10 C163 10.99 163 11.98 163 13 C169.6 13 176.2 13 183 13 C183 14.32 183 15.64 183 17 C187.29 17 191.58 17 196 17 C196 17.99 196 18.98 196 20 C199.3 20 202.6 20 206 20 C206 20.99 206 21.98 206 23 C210.29 23 214.58 23 219 23 C219 24.32 219 25.64 219 27 C222.3 27 225.6 27 229 27 C229 27.99 229 28.98 229 30 C233.29 30 237.58 30 242 30 C242 30.99 242 31.98 242 33 C244.31 33 246.62 33 249 33 C249 34.32 249 35.64 249 37 C251.31 37 253.62 37 256 37 C256 37.99 256 38.98 256 40 C257.98 40 259.96 40 262 40 C262 40.99 262 41.98 262 43 C265.3 43 268.6 43 272 43 C272 44.32 272 45.64 272 47 C274.31 47 276.62 47 279 47 C279 47.99 279 48.98 279 50 C282.3 50 285.6 50 289 50 C289 50.99 289 51.98 289 53 C291.31 53 293.62 53 296 53 C296 54.32 296 55.64 296 57 C297.98 57 299.96 57 302 57 C302 57.99 302 58.98 302 60 C304.31 60 306.62 60 309 60 C309 60.99 309 61.98 309 63 C311.31 63 313.62 63 316 63 C316 64.32 316 65.64 316 67 C317.98 67 319.96 67 322 67 C322 67.99 322 68.98 322 70 C324.31 70 326.62 70 329 70 C329 70.99 329 71.98 329 73 C331.31 73 333.62 73 336 73 C336 74.32 336 75.64 336 77 C338.97 77 341.94 77 345 77 C345 77.99 345 78.98 345 80 C348.3 80 351.6 80 355 80 C355 80.99 355 81.98 355 83 C357.31 83 359.62 83 362 83 C362 84.32 362 85.64 362 87 C364.31 87 366.62 87 369 87 C369 87.99 369 88.98 369 90 C370.98 90 372.96 90 375 90 C375 90.99 375 91.98 375 93 C377.31 93 379.62 93 382 93 C382 94.32 382 95.64 382 97 C384.31 97 386.62 97 389 97 C389 97.99 389 98.98 389 100 C389.99 100 390.98 100 392 100 C392 100.99 392 101.98 392 103 C394.31 103 396.62 103 399 103 C399 103.99 399 104.98 399 106 C399.99 106 400.98 106 402 106 C402 107.32 402 108.64 402 110 C404.31 110 406.62 110 409 110 C409 110.99 409 111.98 409 113 C410.98 113 412.96 113 415 113 C415 113.99 415 114.98 415 116 C416.32 116 417.64 116 419 116 C419 117.32 419 118.64 419 120 C420.98 120 422.96 120 425 120 C425 120.99 425 121.98 425 123 C427.31 123 429.62 123 432 123 C432 123.99 432 124.98 432 126 C432.99 126 433.98 126 435 126 C435 127.32 435 128.64 435 130 C436.32 130 437.64 130 439 130 C439 130.99 439 131.98 439 133 C439.99 133 440.98 133 442 133 C442 133.99 442 134.98 442 136 C442.99 136 443.98 136 445 136 C445 137.32 445 138.64 445 140 C446.32 140 447.64 140 449 140 C449 140.99 449 141.98 449 143 C449.99 143 450.98 143 452 143 C452 143.99 452 144.98 452 146 C454.31 146 456.62 146 459 146 C459 147.32 459 148.64 459 150 C459.99 150 460.98 150 462 150 C462 150.99 462 151.98 462 153 C462.99 153 463.98 153 465 153 C465 153.99 465 154.98 465 156 C466.32 156 467.64 156 469 156 C469 157.32 469 158.64 469 160 C469.99 160 470.98 160 472 160 C472 160.99 472 161.98 472 163 C472.99 163 473.98 163 475 163 C475 163.99 475 164.98 475 166 C476.32 166 477.64 166 479 166 C479 167.32 479 168.64 479 170 C479.99 170 480.98 170 482 170 C482 170.99 482 171.98 482 173 C482.99 173 483.98 173 485 173 C485 173.99 485 174.98 485 176 C486.32 176 487.64 176 489 176 C489 177.32 489 178.64 489 180 C489.99 180 490.98 180 492 180 C492 180.99 492 181.98 492 183 C492.99 183 493.98 183 495 183 C495 185.31 495 187.62 495 190 C495.99 190 496.98 190 498 190 C498 190.99 498 191.98 498 193 C499.32 193 500.64 193 502 193 C502 195.31 502 197.62 502 200 C502.99 200 503.98 200 505 200 C505 200.99 505 201.98 505 203 C505.99 203 506.98 203 508 203 C508 205.31 508 207.62 508 210 C509.32 210 510.64 210 512 210 C512 210.99 512 211.98 512 213 C512.99 213 513.98 213 515 213 C515 215.31 515 217.62 515 220 C515.99 220 516.98 220 518 220 C518 221.98 518 223.96 518 226 C519.32 226 520.64 226 522 226 C522 229.3 522 232.6 522 236 C522.99 236 523.98 236 525 236 C525 238.31 525 240.62 525 243 C525.99 243 526.98 243 528 243 C528 246.3 528 249.6 528 253 C529.32 253 530.64 253 532 253 C532 254.98 532 256.96 532 259 C532.99 259 533.98 259 535 259 C535 262.3 535 265.6 535 269 C535.99 269 536.98 269 538 269 C538 274.61 538 280.22 538 286 C539.32 286 540.64 286 542 286 C542 290.29 542 294.58 542 299 C542.99 299 543.98 299 545 299 C545 324.41 545 349.82 545 376 C544.01 376 543.02 376 542 376 C542 381.61 542 387.22 542 393 C540.68 393 539.36 393 538 393 C538 395.97 538 398.94 538 402 C537.01 402 536.02 402 535 402 C535 404.31 535 406.62 535 409 C534.01 409 533.02 409 532 409 C532 413.29 532 417.58 532 422 C530.68 422 529.36 422 528 422 C528 424.31 528 426.62 528 429 C527.01 429 526.02 429 525 429 C525 431.31 525 433.62 525 436 C524.01 436 523.02 436 522 436 C522 436.99 522 437.98 522 439 C520.68 439 519.36 439 518 439 C518 441.31 518 443.62 518 446 C517.01 446 516.02 446 515 446 C515 447.98 515 449.96 515 452 C514.01 452 513.02 452 512 452 C512 454.31 512 456.62 512 459 C510.68 459 509.36 459 508 459 C508 459.99 508 460.98 508 462 C507.01 462 506.02 462 505 462 C505 463.32 505 464.64 505 466 C504.01 466 503.02 466 502 466 C502 467.98 502 469.96 502 472 C500.68 472 499.36 472 498 472 C498 474.31 498 476.62 498 479 C497.01 479 496.02 479 495 479 C495 479.99 495 480.98 495 482 C494.01 482 493.02 482 492 482 C492 484.31 492 486.62 492 489 C491.01 489 490.02 489 489 489 C489 489.99 489 490.98 489 492 C487.68 492 486.36 492 485 492 C485 493.32 485 494.64 485 496 C484.01 496 483.02 496 482 496 C482 496.99 482 497.98 482 499 C481.01 499 480.02 499 479 499 C479 499.99 479 500.98 479 502 C477.68 502 476.36 502 475 502 C475 503.32 475 504.64 475 506 C474.01 506 473.02 506 472 506 C472 506.99 472 507.98 472 509 C471.01 509 470.02 509 469 509 C469 509.99 469 510.98 469 512 C467.68 512 466.36 512 465 512 C465 514.31 465 516.62 465 519 C464.01 519 463.02 519 462 519 C462 519.99 462 520.98 462 522 C461.01 522 460.02 522 459 522 C459 523.32 459 524.64 459 526 C457.68 526 456.36 526 455 526 C455 526.99 455 527.98 455 529 C454.01 529 453.02 529 452 529 C452 529.99 452 530.98 452 532 C451.01 532 450.02 532 449 532 C449 533.32 449 534.64 449 536 C447.68 536 446.36 536 445 536 C445 536.99 445 537.98 445 539 C444.01 539 443.02 539 442 539 C442 539.99 442 540.98 442 542 C441.01 542 440.02 542 439 542 C439 542.99 439 543.98 439 545 C437.68 545 436.36 545 435 545 C435 546.32 435 547.64 435 549 C434.01 549 433.02 549 432 549 C432 549.99 432 550.98 432 552 C431.01 552 430.02 552 429 552 C429 552.99 429 553.98 429 555 C427.68 555 426.36 555 425 555 C425 556.32 425 557.64 425 559 C424.01 559 423.02 559 422 559 C422 559.99 422 560.98 422 562 C421.01 562 420.02 562 419 562 C419 562.99 419 563.98 419 565 C417.68 565 416.36 565 415 565 C415 566.32 415 567.64 415 569 C414.01 569 413.02 569 412 569 C412 569.99 412 570.98 412 572 C411.01 572 410.02 572 409 572 C409 572.99 409 573.98 409 575 C407.68 575 406.36 575 405 575 C405 576.32 405 577.64 405 579 C404.01 579 403.02 579 402 579 C402 579.99 402 580.98 402 582 C401.01 582 400.02 582 399 582 C399 582.99 399 583.98 399 585 C397.68 585 396.36 585 395 585 C395 586.32 395 587.64 395 589 C394.01 589 393.02 589 392 589 C392 589.99 392 590.98 392 592 C391.01 592 390.02 592 389 592 C389 592.99 389 593.98 389 595 C387.68 595 386.36 595 385 595 C385 596.32 385 597.64 385 599 C383.02 599 381.04 599 379 599 C379 599.99 379 600.98 379 602 C377.68 602 376.36 602 375 602 C375 602.99 375 603.98 375 605 C373.02 605 371.04 605 369 605 C369 606.32 369 607.64 369 609 C367.68 609 366.36 609 365 609 C365 609.99 365 610.98 365 612 C363.02 612 361.04 612 359 612 C359 612.99 359 613.98 359 615 C356.69 615 354.38 615 352 615 C352 616.32 352 617.64 352 619 C351.01 619 350.02 619 349 619 C349 619.99 349 620.98 349 622 C346.69 622 344.38 622 342 622 C342 622.99 342 623.98 342 625 C341.01 625 340.02 625 339 625 C339 626.32 339 627.64 339 629 C336.69 629 334.38 629 332 629 C332 629.99 332 630.98 332 632 C330.02 632 328.04 632 326 632 C326 632.99 326 633.98 326 635 C323.69 635 321.38 635 319 635 C319 636.32 319 637.64 319 639 C316.69 639 314.38 639 312 639 C312 639.99 312 640.98 312 642 C310.02 642 308.04 642 306 642 C306 642.99 306 643.98 306 645 C303.69 645 301.38 645 299 645 C299 646.32 299 647.64 299 649 C298.01 649 297.02 649 296 649 C296 649.99 296 650.98 296 652 C293.69 652 291.38 652 289 652 C289 652.99 289 653.98 289 655 C286.69 655 284.38 655 282 655 C282 656.32 282 657.64 282 659 C280.02 659 278.04 659 276 659 C276 659.99 276 660.98 276 662 C273.69 662 271.38 662 269 662 C269 662.99 269 663.98 269 665 C268.01 665 267.02 665 266 665 C266 666.32 266 667.64 266 669 C263.69 669 261.38 669 259 669 C259 669.99 259 670.98 259 672 C258.01 672 257.02 672 256 672 C256 672.99 256 673.98 256 675 C254.68 675 253.36 675 252 675 C252 676.32 252 677.64 252 679 C250.02 679 248.04 679 246 679 C246 679.99 246 680.98 246 682 C244.68 682 243.36 682 242 682 C242 682.99 242 683.98 242 685 C240.02 685 238.04 685 236 685 C236 685.99 236 686.98 236 688 C233.69 688 231.38 688 229 688 C229 689.32 229 690.64 229 692 C228.01 692 227.02 692 226 692 C226 692.99 226 693.98 226 695 C223.69 695 221.38 695 219 695 C219 695.99 219 696.98 219 698 C218.01 698 217.02 698 216 698 C216 699.32 216 700.64 216 702 C214.68 702 213.36 702 212 702 C212 702.99 212 703.98 212 705 C210.02 705 208.04 705 206 705 C206 705.99 206 706.98 206 708 C204.68 708 203.36 708 202 708 C202 709.32 202 710.64 202 712 C201.01 712 200.02 712 199 712 C199 712.99 199 713.98 199 715 C198.01 715 197.02 715 196 715 C196 715.99 196 716.98 196 718 C195.01 718 194.02 718 193 718 C193 719.32 193 720.64 193 722 C191.68 722 190.36 722 189 722 C189 722.99 189 723.98 189 725 C188.01 725 187.02 725 186 725 C186 725.99 186 726.98 186 728 C183.69 728 181.38 728 179 728 C179 729.32 179 730.64 179 732 C178.01 732 177.02 732 176 732 C176 732.99 176 733.98 176 735 C175.01 735 174.02 735 173 735 C173 735.99 173 736.98 173 738 C171.68 738 170.36 738 169 738 C169 740.31 169 742.62 169 745 C168.01 745 167.02 745 166 745 C166 747.31 166 749.62 166 752 C165.01 752 164.02 752 163 752 C163 752.99 163 753.98 163 755 C161.68 755 160.36 755 159 755 C159 757.31 159 759.62 159 762 C158.01 762 157.02 762 156 762 C156 765.3 156 768.6 156 772 C155.01 772 154.02 772 153 772 C153 776.29 153 780.58 153 785 C151.68 785 150.36 785 149 785 C149 787.31 149 789.62 149 792 C148.01 792 147.02 792 146 792 C146 810.48 146 828.96 146 848 C145.01 848 144.02 848 143 848 C143 848.99 143 849.98 143 851 C140.69 851 138.38 851 136 851 C136 850.01 136 849.02 136 848 C135.01 848 134.02 848 133 848 C133 828.2 133 808.4 133 788 C133.99 788 134.98 788 136 788 C136 786.02 136 784.04 136 782 C136.99 782 137.98 782 139 782 C139 777.38 139 772.76 139 768 C140.32 768 141.64 768 143 768 C143 764.7 143 761.4 143 758 C143.99 758 144.98 758 146 758 C146 756.02 146 754.04 146 752 C146.99 752 147.98 752 149 752 C149 750.68 149 749.36 149 748 C150.32 748 151.64 748 153 748 C153 746.02 153 744.04 153 742 C153.99 742 154.98 742 156 742 C156 739.69 156 737.38 156 735 C156.99 735 157.98 735 159 735 C159 734.01 159 733.02 159 732 C160.32 732 161.64 732 163 732 C163 730.68 163 729.36 163 728 C163.99 728 164.98 728 166 728 C166 727.01 166 726.02 166 725 C166.99 725 167.98 725 169 725 C169 724.01 169 723.02 169 722 C170.32 722 171.64 722 173 722 C173 720.68 173 719.36 173 718 C173.99 718 174.98 718 176 718 C176 717.01 176 716.02 176 715 C178.31 715 180.62 715 183 715 C183 714.01 183 713.02 183 712 C183.99 712 184.98 712 186 712 C186 710.68 186 709.36 186 708 C186.99 708 187.98 708 189 708 C189 707.01 189 706.02 189 705 C190.32 705 191.64 705 193 705 C193 704.01 193 703.02 193 702 C193.99 702 194.98 702 196 702 C196 700.68 196 699.36 196 698 C196.99 698 197.98 698 199 698 C199 697.01 199 696.02 199 695 C199.99 695 200.98 695 202 695 C202 694.01 202 693.02 202 692 C204.31 692 206.62 692 209 692 C209 690.68 209 689.36 209 688 C209.99 688 210.98 688 212 688 C212 687.01 212 686.02 212 685 C213.32 685 214.64 685 216 685 C216 684.01 216 683.02 216 682 C217.98 682 219.96 682 222 682 C222 681.01 222 680.02 222 679 C223.32 679 224.64 679 226 679 C226 677.68 226 676.36 226 675 C227.98 675 229.96 675 232 675 C232 674.01 232 673.02 232 672 C234.31 672 236.62 672 239 672 C239 671.01 239 670.02 239 669 C239.99 669 240.98 669 242 669 C242 667.68 242 666.36 242 665 C244.31 665 246.62 665 249 665 C249 664.01 249 663.02 249 662 C249.99 662 250.98 662 252 662 C252 661.01 252 660.02 252 659 C253.32 659 254.64 659 256 659 C256 657.68 256 656.36 256 655 C257.98 655 259.96 655 262 655 C262 654.01 262 653.02 262 652 C263.32 652 264.64 652 266 652 C266 651.01 266 650.02 266 649 C267.98 649 269.96 649 272 649 C272 647.68 272 646.36 272 645 C274.31 645 276.62 645 279 645 C279 644.01 279 643.02 279 642 C281.31 642 283.62 642 286 642 C286 641.01 286 640.02 286 639 C287.98 639 289.96 639 292 639 C292 637.68 292 636.36 292 635 C293.32 635 294.64 635 296 635 C296 634.01 296 633.02 296 632 C297.98 632 299.96 632 302 632 C302 631.01 302 630.02 302 629 C304.31 629 306.62 629 309 629 C309 627.68 309 626.36 309 625 C311.31 625 313.62 625 316 625 C316 624.01 316 623.02 316 622 C317.98 622 319.96 622 322 622 C322 621.01 322 620.02 322 619 C324.31 619 326.62 619 329 619 C329 617.68 329 616.36 329 615 C331.31 615 333.62 615 336 615 C336 614.01 336 613.02 336 612 C336.99 612 337.98 612 339 612 C339 611.01 339 610.02 339 609 C340.98 609 342.96 609 345 609 C345 607.68 345 606.36 345 605 C346.32 605 347.64 605 349 605 C349 604.01 349 603.02 349 602 C350.98 602 352.96 602 355 602 C355 601.01 355 600.02 355 599 C357.31 599 359.62 599 362 599 C362 597.68 362 596.36 362 595 C362.99 595 363.98 595 365 595 C365 594.01 365 593.02 365 592 C367.31 592 369.62 592 372 592 C372 591.01 372 590.02 372 589 C372.99 589 373.98 589 375 589 C375 587.68 375 586.36 375 585 C377.31 585 379.62 585 382 585 C382 584.01 382 583.02 382 582 C382.99 582 383.98 582 385 582 C385 581.01 385 580.02 385 579 C386.32 579 387.64 579 389 579 C389 577.68 389 576.36 389 575 C389.99 575 390.98 575 392 575 C392 574.01 392 573.02 392 572 C392.99 572 393.98 572 395 572 C395 571.01 395 570.02 395 569 C396.32 569 397.64 569 399 569 C399 567.68 399 566.36 399 565 C399.99 565 400.98 565 402 565 C402 564.01 402 563.02 402 562 C402.99 562 403.98 562 405 562 C405 561.01 405 560.02 405 559 C406.32 559 407.64 559 409 559 C409 557.68 409 556.36 409 555 C409.99 555 410.98 555 412 555 C412 554.01 412 553.02 412 552 C412.99 552 413.98 552 415 552 C415 551.01 415 550.02 415 549 C416.32 549 417.64 549 419 549 C419 547.68 419 546.36 419 545 C419.99 545 420.98 545 422 545 C422 544.01 422 543.02 422 542 C422.99 542 423.98 542 425 542 C425 541.01 425 540.02 425 539 C426.32 539 427.64 539 429 539 C429 538.01 429 537.02 429 536 C429.99 536 430.98 536 432 536 C432 534.68 432 533.36 432 532 C432.99 532 433.98 532 435 532 C435 531.01 435 530.02 435 529 C436.32 529 437.64 529 439 529 C439 528.01 439 527.02 439 526 C439.99 526 440.98 526 442 526 C442 524.68 442 523.36 442 522 C442.99 522 443.98 522 445 522 C445 521.01 445 520.02 445 519 C446.32 519 447.64 519 449 519 C449 518.01 449 517.02 449 516 C449.99 516 450.98 516 452 516 C452 513.69 452 511.38 452 509 C452.99 509 453.98 509 455 509 C455 508.01 455 507.02 455 506 C456.32 506 457.64 506 459 506 C459 504.68 459 503.36 459 502 C459.99 502 460.98 502 462 502 C462 501.01 462 500.02 462 499 C462.99 499 463.98 499 465 499 C465 498.01 465 497.02 465 496 C466.32 496 467.64 496 469 496 C469 494.68 469 493.36 469 492 C469.99 492 470.98 492 472 492 C472 491.01 472 490.02 472 489 C472.99 489 473.98 489 475 489 C475 488.01 475 487.02 475 486 C476.32 486 477.64 486 479 486 C479 483.69 479 481.38 479 479 C479.99 479 480.98 479 482 479 C482 478.01 482 477.02 482 476 C482.99 476 483.98 476 485 476 C485 473.69 485 471.38 485 469 C486.32 469 487.64 469 489 469 C489 466.69 489 464.38 489 462 C489.99 462 490.98 462 492 462 C492 461.01 492 460.02 492 459 C492.99 459 493.98 459 495 459 C495 458.01 495 457.02 495 456 C495.99 456 496.98 456 498 456 C498 453.69 498 451.38 498 449 C499.32 449 500.64 449 502 449 C502 446.69 502 444.38 502 442 C502.99 442 503.98 442 505 442 C505 440.02 505 438.04 505 436 C505.99 436 506.98 436 508 436 C508 434.68 508 433.36 508 432 C509.32 432 510.64 432 512 432 C512 430.02 512 428.04 512 426 C512.99 426 513.98 426 515 426 C515 423.69 515 421.38 515 419 C515.99 419 516.98 419 518 419 C518 414.71 518 410.42 518 406 C519.32 406 520.64 406 522 406 C522 403.69 522 401.38 522 399 C522.99 399 523.98 399 525 399 C525 395.7 525 392.4 525 389 C525.99 389 526.98 389 528 389 C528 383.72 528 378.44 528 373 C529.32 373 530.64 373 532 373 C532 349.9 532 326.8 532 303 C530.68 303 529.36 303 528 303 C528 298.38 528 293.76 528 289 C527.01 289 526.02 289 525 289 C525 283.72 525 278.44 525 273 C524.01 273 523.02 273 522 273 C522 269.7 522 266.4 522 263 C520.68 263 519.36 263 518 263 C518 260.69 518 258.38 518 256 C517.01 256 516.02 256 515 256 C515 252.7 515 249.4 515 246 C514.01 246 513.02 246 512 246 C512 244.02 512 242.04 512 240 C510.68 240 509.36 240 508 240 C508 236.7 508 233.4 508 230 C507.01 230 506.02 230 505 230 C505 227.69 505 225.38 505 223 C504.01 223 503.02 223 502 223 C502 220.69 502 218.38 502 216 C500.68 216 499.36 216 498 216 C498 215.01 498 214.02 498 213 C497.01 213 496.02 213 495 213 C495 210.69 495 208.38 495 206 C494.01 206 493.02 206 492 206 C492 205.01 492 204.02 492 203 C491.01 203 490.02 203 489 203 C489 200.69 489 198.38 489 196 C487.68 196 486.36 196 485 196 C485 195.01 485 194.02 485 193 C484.01 193 483.02 193 482 193 C482 190.69 482 188.38 482 186 C481.01 186 480.02 186 479 186 C479 185.01 479 184.02 479 183 C477.68 183 476.36 183 475 183 C475 182.01 475 181.02 475 180 C474.01 180 473.02 180 472 180 C472 178.68 472 177.36 472 176 C471.01 176 470.02 176 469 176 C469 175.01 469 174.02 469 173 C467.68 173 466.36 173 465 173 C465 172.01 465 171.02 465 170 C464.01 170 463.02 170 462 170 C462 168.68 462 167.36 462 166 C461.01 166 460.02 166 459 166 C459 165.01 459 164.02 459 163 C457.68 163 456.36 163 455 163 C455 162.01 455 161.02 455 160 C453.02 160 451.04 160 449 160 C449 158.68 449 157.36 449 156 C447.68 156 446.36 156 445 156 C445 155.01 445 154.02 445 153 C444.01 153 443.02 153 442 153 C442 152.01 442 151.02 442 150 C441.01 150 440.02 150 439 150 C439 148.68 439 147.36 439 146 C437.68 146 436.36 146 435 146 C435 145.01 435 144.02 435 143 C434.01 143 433.02 143 432 143 C432 142.01 432 141.02 432 140 C431.01 140 430.02 140 429 140 C429 138.68 429 137.36 429 136 C426.69 136 424.38 136 422 136 C422 135.01 422 134.02 422 133 C419.69 133 417.38 133 415 133 C415 132.01 415 131.02 415 130 C414.01 130 413.02 130 412 130 C412 128.68 412 127.36 412 126 C409.69 126 407.38 126 405 126 C405 125.01 405 124.02 405 123 C403.02 123 401.04 123 399 123 C399 122.01 399 121.02 399 120 C397.68 120 396.36 120 395 120 C395 118.68 395 117.36 395 116 C393.02 116 391.04 116 389 116 C389 115.01 389 114.02 389 113 C387.68 113 386.36 113 385 113 C385 112.01 385 111.02 385 110 C383.02 110 381.04 110 379 110 C379 108.68 379 107.36 379 106 C376.69 106 374.38 106 372 106 C372 105.01 372 104.02 372 103 C369.69 103 367.38 103 365 103 C365 102.01 365 101.02 365 100 C363.02 100 361.04 100 359 100 C359 99.01 359 98.02 359 97 C356.69 97 354.38 97 352 97 C352 95.68 352 94.36 352 93 C348.7 93 345.4 93 342 93 C342 92.01 342 91.02 342 90 C338.7 90 335.4 90 332 90 C332 89.01 332 88.02 332 87 C330.02 87 328.04 87 326 87 C326 85.68 326 84.36 326 83 C323.69 83 321.38 83 319 83 C319 82.01 319 81.02 319 80 C316.69 80 314.38 80 312 80 C312 79.01 312 78.02 312 77 C310.02 77 308.04 77 306 77 C306 75.68 306 74.36 306 73 C303.69 73 301.38 73 299 73 C299 72.01 299 71.02 299 70 C296.69 70 294.38 70 292 70 C292 69.01 292 68.02 292 67 C290.02 67 288.04 67 286 67 C286 65.68 286 64.36 286 63 C282.7 63 279.4 63 276 63 C276 62.01 276 61.02 276 60 C273.69 60 271.38 60 269 60 C269 59.01 269 58.02 269 57 C265.7 57 262.4 57 259 57 C259 55.68 259 54.36 259 53 C256.69 53 254.38 53 252 53 C252 52.01 252 51.02 252 50 C250.02 50 248.04 50 246 50 C246 49.01 246 48.02 246 47 C243.69 47 241.38 47 239 47 C239 45.68 239 44.36 239 43 C234.71 43 230.42 43 226 43 C226 42.01 226 41.02 226 40 C222.7 40 219.4 40 216 40 C216 39.01 216 38.02 216 37 C211.38 37 206.76 37 202 37 C202 35.68 202 34.36 202 33 C199.03 33 196.06 33 193 33 C193 32.01 193 31.02 193 30 C188.38 30 183.76 30 179 30 C179 29.01 179 28.02 179 27 C172.4 27 165.8 27 159 27 C159 25.68 159 24.36 159 23 C151.41 23 143.82 23 136 23 C136 22.01 136 21.02 136 20 C130.39 20 124.78 20 119 20 C119 19.01 119 18.02 119 17 C115.7 17 112.4 17 109 17 C109 15.68 109 14.36 109 13 C74.02 13 39.04 13 3 13 C3 14.32 3 15.64 3 17 C-2.61 17 -8.22 17 -14 17 C-14 17.99 -14 18.98 -14 20 C-19.28 20 -24.56 20 -30 20 C-30 20.99 -30 21.98 -30 23 C-35.61 23 -41.22 23 -47 23 C-47 24.32 -47 25.64 -47 27 C-52.61 27 -58.22 27 -64 27 C-64 27.99 -64 28.98 -64 30 C-68.29 30 -72.58 30 -77 30 C-77 30.99 -77 31.98 -77 33 C-80.3 33 -83.6 33 -87 33 C-87 34.32 -87 35.64 -87 37 C-91.29 37 -95.58 37 -100 37 C-100 37.99 -100 38.98 -100 40 C-105.61 40 -111.22 40 -117 40 C-117 40.99 -117 41.98 -117 43 C-123.6 43 -130.2 43 -137 43 C-137 44.32 -137 45.64 -137 47 C-142.28 47 -147.56 47 -153 47 C-153 47.99 -153 48.98 -153 50 C-159.6 50 -166.2 50 -173 50 C-173 50.99 -173 51.98 -173 53 C-177.62 53 -182.24 53 -187 53 C-187 54.32 -187 55.64 -187 57 C-191.29 57 -195.58 57 -200 57 C-200 57.99 -200 58.98 -200 60 C-203.3 60 -206.6 60 -210 60 C-210 60.99 -210 61.98 -210 63 C-213.3 63 -216.6 63 -220 63 C-220 64.32 -220 65.64 -220 67 C-223.3 67 -226.6 67 -230 67 C-230 67.99 -230 68.98 -230 70 C-234.29 70 -238.58 70 -243 70 C-243 70.99 -243 71.98 -243 73 C-248.61 73 -254.22 73 -260 73 C-260 74.32 -260 75.64 -260 77 C-265.28 77 -270.56 77 -276 77 C-276 77.99 -276 78.98 -276 80 C-280.62 80 -285.24 80 -290 80 C-290 80.99 -290 81.98 -290 83 C-293.3 83 -296.6 83 -300 83 C-300 84.32 -300 85.64 -300 87 C-304.29 87 -308.58 87 -313 87 C-313 87.99 -313 88.98 -313 90 C-318.61 90 -324.22 90 -330 90 C-330 90.99 -330 91.98 -330 93 C-335.28 93 -340.56 93 -346 93 C-346 94.32 -346 95.64 -346 97 C-350.62 97 -355.24 97 -360 97 C-360 97.99 -360 98.98 -360 100 C-361.98 100 -363.96 100 -366 100 C-366 100.99 -366 101.98 -366 103 C-369.3 103 -372.6 103 -376 103 C-376 103.99 -376 104.98 -376 106 C-381.61 106 -387.22 106 -393 106 C-393 107.32 -393 108.64 -393 110 C-396.3 110 -399.6 110 -403 110 C-403 110.99 -403 111.98 -403 113 C-404.98 113 -406.96 113 -409 113 C-409 113.99 -409 114.98 -409 116 C-413.62 116 -418.24 116 -423 116 C-423 117.32 -423 118.64 -423 120 C-426.3 120 -429.6 120 -433 120 C-433 120.99 -433 121.98 -433 123 C-434.98 123 -436.96 123 -439 123 C-439 123.99 -439 124.98 -439 126 C-443.62 126 -448.24 126 -453 126 C-453 127.32 -453 128.64 -453 130 C-456.3 130 -459.6 130 -463 130 C-463 130.99 -463 131.98 -463 133 C-464.98 133 -466.96 133 -469 133 C-469 133.99 -469 134.98 -469 136 C-472.3 136 -475.6 136 -479 136 C-479 137.32 -479 138.64 -479 140 C-481.31 140 -483.62 140 -486 140 C-486 140.99 -486 141.98 -486 143 C-489.3 143 -492.6 143 -496 143 C-496 143.99 -496 144.98 -496 146 C-498.31 146 -500.62 146 -503 146 C-503 147.32 -503 148.64 -503 150 C-504.98 150 -506.96 150 -509 150 C-509 150.99 -509 151.98 -509 153 C-511.31 153 -513.62 153 -516 153 C-516 153.99 -516 154.98 -516 156 C-518.31 156 -520.62 156 -523 156 C-523 157.32 -523 158.64 -523 160 C-524.98 160 -526.96 160 -529 160 C-529 160.99 -529 161.98 -529 163 C-532.3 163 -535.6 163 -539 163 C-539 163.99 -539 164.98 -539 166 C-541.31 166 -543.62 166 -546 166 C-546 167.32 -546 168.64 -546 170 C-547.98 170 -549.96 170 -552 170 C-552 170.99 -552 171.98 -552 173 C-554.31 173 -556.62 173 -559 173 C-559 173.99 -559 174.98 -559 176 C-559.99 176 -560.98 176 -562 176 C-562 177.32 -562 178.64 -562 180 C-564.31 180 -566.62 180 -569 180 C-569 180.99 -569 181.98 -569 183 C-569.99 183 -570.98 183 -572 183 C-572 183.99 -572 184.98 -572 186 C-573.32 186 -574.64 186 -576 186 C-576 187.32 -576 188.64 -576 190 C-577.98 190 -579.96 190 -582 190 C-582 190.99 -582 191.98 -582 193 C-583.32 193 -584.64 193 -586 193 C-586 193.99 -586 194.98 -586 196 C-587.98 196 -589.96 196 -592 196 C-592 197.32 -592 198.64 -592 200 C-594.31 200 -596.62 200 -599 200 C-599 200.99 -599 201.98 -599 203 C-601.31 203 -603.62 203 -606 203 C-606 203.99 -606 204.98 -606 206 C-606.99 206 -607.98 206 -609 206 C-609 207.32 -609 208.64 -609 210 C-611.31 210 -613.62 210 -616 210 C-616 211.98 -616 213.96 -616 216 C-616.99 216 -617.98 216 -619 216 C-619 217.32 -619 218.64 -619 220 C-619.99 220 -620.98 220 -622 220 C-622 220.99 -622 221.98 -622 223 C-623.32 223 -624.64 223 -626 223 C-626 223.99 -626 224.98 -626 226 C-626.99 226 -627.98 226 -629 226 C-629 228.31 -629 230.62 -629 233 C-629.99 233 -630.98 233 -632 233 C-632 235.31 -632 237.62 -632 240 C-633.32 240 -634.64 240 -636 240 C-636 241.98 -636 243.96 -636 246 C-636.99 246 -637.98 246 -639 246 C-639 248.31 -639 250.62 -639 253 C-639.99 253 -640.98 253 -642 253 C-642 254.98 -642 256.96 -642 259 C-643.32 259 -644.64 259 -646 259 C-646 276.82 -646 294.64 -646 313 C-644.68 313 -643.36 313 -642 313 C-642 316.3 -642 319.6 -642 323 C-641.01 323 -640.02 323 -639 323 C-639 326.3 -639 329.6 -639 333 C-638.01 333 -637.02 333 -636 333 C-636 336.3 -636 339.6 -636 343 C-634.68 343 -633.36 343 -632 343 C-632 346.3 -632 349.6 -632 353 C-631.01 353 -630.02 353 -629 353 C-629 354.98 -629 356.96 -629 359 C-628.01 359 -627.02 359 -626 359 C-626 361.31 -626 363.62 -626 366 C-624.68 366 -623.36 366 -622 366 C-622 368.31 -622 370.62 -622 373 C-621.01 373 -620.02 373 -619 373 C-619 374.98 -619 376.96 -619 379 C-618.01 379 -617.02 379 -616 379 C-616 381.31 -616 383.62 -616 386 C-614.68 386 -613.36 386 -612 386 C-612 386.99 -612 387.98 -612 389 C-611.01 389 -610.02 389 -609 389 C-609 390.32 -609 391.64 -609 393 C-608.01 393 -607.02 393 -606 393 C-606 393.99 -606 394.98 -606 396 C-604.68 396 -603.36 396 -602 396 C-602 396.99 -602 397.98 -602 399 C-601.01 399 -600.02 399 -599 399 C-599 399.99 -599 400.98 -599 402 C-598.01 402 -597.02 402 -596 402 C-596 403.32 -596 404.64 -596 406 C-594.68 406 -593.36 406 -592 406 C-592 406.99 -592 407.98 -592 409 C-591.01 409 -590.02 409 -589 409 C-589 409.99 -589 410.98 -589 412 C-588.01 412 -587.02 412 -586 412 C-586 413.32 -586 414.64 -586 416 C-584.68 416 -583.36 416 -582 416 C-582 416.99 -582 417.98 -582 419 C-580.02 419 -578.04 419 -576 419 C-576 419.99 -576 420.98 -576 422 C-574.68 422 -573.36 422 -572 422 C-572 423.32 -572 424.64 -572 426 C-570.02 426 -568.04 426 -566 426 C-566 426.99 -566 427.98 -566 429 C-564.68 429 -563.36 429 -562 429 C-562 429.99 -562 430.98 -562 432 C-560.02 432 -558.04 432 -556 432 C-556 433.32 -556 434.64 -556 436 C-554.68 436 -553.36 436 -552 436 C-552 436.99 -552 437.98 -552 439 C-550.02 439 -548.04 439 -546 439 C-546 439.99 -546 440.98 -546 442 C-544.68 442 -543.36 442 -542 442 C-542 443.32 -542 444.64 -542 446 C-541.01 446 -540.02 446 -539 446 C-539 446.99 -539 447.98 -539 449 C-538.01 449 -537.02 449 -536 449 C-536 449.99 -536 450.98 -536 452 C-533.69 452 -531.38 452 -529 452 C-529 453.32 -529 454.64 -529 456 C-528.01 456 -527.02 456 -526 456 C-526 456.99 -526 457.98 -526 459 C-523.69 459 -521.38 459 -519 459 C-519 459.99 -519 460.98 -519 462 C-518.01 462 -517.02 462 -516 462 C-516 463.32 -516 464.64 -516 466 C-513.69 466 -511.38 466 -509 466 C-509 466.99 -509 467.98 -509 469 C-507.02 469 -505.04 469 -503 469 C-503 469.99 -503 470.98 -503 472 C-500.69 472 -498.38 472 -496 472 C-496 473.32 -496 474.64 -496 476 C-495.01 476 -494.02 476 -493 476 C-493 476.99 -493 477.98 -493 479 C-490.69 479 -488.38 479 -486 479 C-486 479.99 -486 480.98 -486 482 C-481.71 482 -477.42 482 -473 482 C-473 483.32 -473 484.64 -473 486 C-470.69 486 -468.38 486 -466 486 C-466 486.99 -466 487.98 -466 489 C-463.69 489 -461.38 489 -459 489 C-459 489.99 -459 490.98 -459 492 C-457.02 492 -455.04 492 -453 492 C-453 493.32 -453 494.64 -453 496 C-449.7 496 -446.4 496 -443 496 C-443 496.99 -443 497.98 -443 499 C-440.69 499 -438.38 499 -436 499 C-436 499.99 -436 500.98 -436 502 C-432.7 502 -429.4 502 -426 502 C-426 503.32 -426 504.64 -426 506 C-423.69 506 -421.38 506 -419 506 C-419 506.99 -419 507.98 -419 509 C-417.02 509 -415.04 509 -413 509 C-413 509.99 -413 510.98 -413 512 C-410.69 512 -408.38 512 -406 512 C-406 513.32 -406 514.64 -406 516 C-403.69 516 -401.38 516 -399 516 C-399 516.99 -399 517.98 -399 519 C-398.01 519 -397.02 519 -396 519 C-396 519.99 -396 520.98 -396 522 C-394.02 522 -392.04 522 -390 522 C-390 523.32 -390 524.64 -390 526 C-388.68 526 -387.36 526 -386 526 C-386 526.99 -386 527.98 -386 529 C-384.02 529 -382.04 529 -380 529 C-380 529.99 -380 530.98 -380 532 C-377.69 532 -375.38 532 -373 532 C-373 533.32 -373 534.64 -373 536 C-370.69 536 -368.38 536 -366 536 C-366 536.99 -366 537.98 -366 539 C-365.01 539 -364.02 539 -363 539 C-363 539.99 -363 540.98 -363 542 C-360.69 542 -358.38 542 -356 542 C-356 542.99 -356 543.98 -356 545 C-354.02 545 -352.04 545 -350 545 C-350 546.32 -350 547.64 -350 549 C-347.69 549 -345.38 549 -343 549 C-343 549.99 -343 550.98 -343 552 C-342.01 552 -341.02 552 -340 552 C-340 552.99 -340 553.98 -340 555 C-337.69 555 -335.38 555 -333 555 C-333 556.32 -333 557.64 -333 559 C-330.69 559 -328.38 559 -326 559 C-326 559.99 -326 560.98 -326 562 C-325.01 562 -324.02 562 -323 562 C-323 562.99 -323 563.98 -323 565 C-322.01 565 -321.02 565 -320 565 C-320 566.32 -320 567.64 -320 569 C-318.68 569 -317.36 569 -316 569 C-316 569.99 -316 570.98 -316 572 C-314.02 572 -312.04 572 -310 572 C-310 572.99 -310 573.98 -310 575 C-308.68 575 -307.36 575 -306 575 C-306 576.32 -306 577.64 -306 579 C-305.01 579 -304.02 579 -303 579 C-303 579.99 -303 580.98 -303 582 C-302.01 582 -301.02 582 -300 582 C-300 582.99 -300 583.98 -300 585 C-298.68 585 -297.36 585 -296 585 C-296 586.32 -296 587.64 -296 589 C-295.01 589 -294.02 589 -293 589 C-293 589.99 -293 590.98 -293 592 C-292.01 592 -291.02 592 -290 592 C-290 592.99 -290 593.98 -290 595 C-288.68 595 -287.36 595 -286 595 C-286 596.32 -286 597.64 -286 599 C-284.02 599 -282.04 599 -280 599 C-280 599.99 -280 600.98 -280 602 C-278.68 602 -277.36 602 -276 602 C-276 602.99 -276 603.98 -276 605 C-275.01 605 -274.02 605 -273 605 C-273 606.32 -273 607.64 -273 609 C-272.01 609 -271.02 609 -270 609 C-270 609.99 -270 610.98 -270 612 C-268.68 612 -267.36 612 -266 612 C-266 612.99 -266 613.98 -266 615 C-265.01 615 -264.02 615 -263 615 C-263 617.31 -263 619.62 -263 622 C-262.01 622 -261.02 622 -260 622 C-260 622.99 -260 623.98 -260 625 C-258.68 625 -257.36 625 -256 625 C-256 627.31 -256 629.62 -256 632 C-255.01 632 -254.02 632 -253 632 C-253 632.99 -253 633.98 -253 635 C-252.01 635 -251.02 635 -250 635 C-250 636.32 -250 637.64 -250 639 C-248.68 639 -247.36 639 -246 639 C-246 640.98 -246 642.96 -246 645 C-245.01 645 -244.02 645 -243 645 C-243 650.61 -243 656.22 -243 662 C-242.01 662 -241.02 662 -240 662 C-240 664.31 -240 666.62 -240 669 C-239.01 669 -238.02 669 -237 669 C-237 674.28 -237 679.56 -237 685 C-235.68 685 -234.36 685 -233 685 C-233 690.61 -233 696.22 -233 702 C-232.01 702 -231.02 702 -230 702 C-230 707.28 -230 712.56 -230 718 C-229.01 718 -228.02 718 -227 718 C-227 720.31 -227 722.62 -227 725 C-225.68 725 -224.36 725 -223 725 C-223 735.89 -223 746.78 -223 758 C-224.32 758 -225.64 758 -227 758 C-227 767.9 -227 777.8 -227 788 C-227.99 788 -228.98 788 -230 788 C-230 797.9 -230 807.8 -230 818 C-230.99 818 -231.98 818 -233 818 C-233 820.31 -233 822.62 -233 825 C-235.31 825 -237.62 825 -240 825 C-240 824.01 -240 823.02 -240 822 C-240.99 822 -241.98 822 -243 822 C-243 809.79 -243 797.58 -243 785 C-242.01 785 -241.02 785 -240 785 C-240 775.1 -240 765.2 -240 755 C-239.01 755 -238.02 755 -237 755 C-237 746.09 -237 737.18 -237 728 C-237.99 728 -238.98 728 -240 728 C-240 726.02 -240 724.04 -240 722 C-240.99 722 -241.98 722 -243 722 C-243 716.39 -243 710.78 -243 705 C-243.99 705 -244.98 705 -246 705 C-246 699.39 -246 693.78 -246 688 C-247.32 688 -248.64 688 -250 688 C-250 682.72 -250 677.44 -250 672 C-250.99 672 -251.98 672 -253 672 C-253 669.69 -253 667.38 -253 665 C-253.99 665 -254.98 665 -256 665 C-256 659.72 -256 654.44 -256 649 C-257.32 649 -258.64 649 -260 649 C-260 646.69 -260 644.38 -260 642 C-260.99 642 -261.98 642 -263 642 C-263 641.01 -263 640.02 -263 639 C-263.99 639 -264.98 639 -266 639 C-266 637.68 -266 636.36 -266 635 C-267.32 635 -268.64 635 -270 635 C-270 633.02 -270 631.04 -270 629 C-270.99 629 -271.98 629 -273 629 C-273 627.68 -273 626.36 -273 625 C-273.99 625 -274.98 625 -276 625 C-276 623.02 -276 621.04 -276 619 C-277.32 619 -278.64 619 -280 619 C-280 617.68 -280 616.36 -280 615 C-280.99 615 -281.98 615 -283 615 C-283 614.01 -283 613.02 -283 612 C-285.31 612 -287.62 612 -290 612 C-290 611.01 -290 610.02 -290 609 C-290.99 609 -291.98 609 -293 609 C-293 607.68 -293 606.36 -293 605 C-293.99 605 -294.98 605 -296 605 C-296 604.01 -296 603.02 -296 602 C-297.32 602 -298.64 602 -300 602 C-300 601.01 -300 600.02 -300 599 C-300.99 599 -301.98 599 -303 599 C-303 597.68 -303 596.36 -303 595 C-303.99 595 -304.98 595 -306 595 C-306 594.01 -306 593.02 -306 592 C-307.32 592 -308.64 592 -310 592 C-310 591.01 -310 590.02 -310 589 C-310.99 589 -311.98 589 -313 589 C-313 587.68 -313 586.36 -313 585 C-315.31 585 -317.62 585 -320 585 C-320 584.01 -320 583.02 -320 582 C-320.99 582 -321.98 582 -323 582 C-323 581.01 -323 580.02 -323 579 C-323.99 579 -324.98 579 -326 579 C-326 577.68 -326 576.36 -326 575 C-327.32 575 -328.64 575 -330 575 C-330 574.01 -330 573.02 -330 572 C-331.98 572 -333.96 572 -336 572 C-336 571.01 -336 570.02 -336 569 C-338.31 569 -340.62 569 -343 569 C-343 567.68 -343 566.36 -343 565 C-343.99 565 -344.98 565 -346 565 C-346 564.01 -346 563.02 -346 562 C-348.31 562 -350.62 562 -353 562 C-353 561.01 -353 560.02 -353 559 C-355.31 559 -357.62 559 -360 559 C-360 557.68 -360 556.36 -360 555 C-361.98 555 -363.96 555 -366 555 C-366 554.01 -366 553.02 -366 552 C-367.32 552 -368.64 552 -370 552 C-370 551.01 -370 550.02 -370 549 C-371.98 549 -373.96 549 -376 549 C-376 547.68 -376 546.36 -376 545 C-378.31 545 -380.62 545 -383 545 C-383 544.01 -383 543.02 -383 542 C-385.31 542 -387.62 542 -390 542 C-390 541.01 -390 540.02 -390 539 C-390.99 539 -391.98 539 -393 539 C-393 538.01 -393 537.02 -393 536 C-394.98 536 -396.96 536 -399 536 C-399 534.68 -399 533.36 -399 532 C-400.32 532 -401.64 532 -403 532 C-403 531.01 -403 530.02 -403 529 C-404.98 529 -406.96 529 -409 529 C-409 528.01 -409 527.02 -409 526 C-411.31 526 -413.62 526 -416 526 C-416 524.68 -416 523.36 -416 522 C-418.31 522 -420.62 522 -423 522 C-423 521.01 -423 520.02 -423 519 C-424.98 519 -426.96 519 -429 519 C-429 518.01 -429 517.02 -429 516 C-432.3 516 -435.6 516 -439 516 C-439 514.68 -439 513.36 -439 512 C-441.31 512 -443.62 512 -446 512 C-446 511.01 -446 510.02 -446 509 C-449.3 509 -452.6 509 -456 509 C-456 508.01 -456 507.02 -456 506 C-458.31 506 -460.62 506 -463 506 C-463 504.68 -463 503.36 -463 502 C-464.98 502 -466.96 502 -469 502 C-469 501.01 -469 500.02 -469 499 C-471.31 499 -473.62 499 -476 499 C-476 498.01 -476 497.02 -476 496 C-480.29 496 -484.58 496 -489 496 C-489 494.68 -489 493.36 -489 492 C-491.31 492 -493.62 492 -496 492 C-496 491.01 -496 490.02 -496 489 C-496.99 489 -497.98 489 -499 489 C-499 488.01 -499 487.02 -499 486 C-501.31 486 -503.62 486 -506 486 C-506 484.68 -506 483.36 -506 482 C-508.31 482 -510.62 482 -513 482 C-513 481.01 -513 480.02 -513 479 C-514.98 479 -516.96 479 -519 479 C-519 478.01 -519 477.02 -519 476 C-520.32 476 -521.64 476 -523 476 C-523 474.68 -523 473.36 -523 472 C-524.98 472 -526.96 472 -529 472 C-529 471.01 -529 470.02 -529 469 C-530.32 469 -531.64 469 -533 469 C-533 468.01 -533 467.02 -533 466 C-534.98 466 -536.96 466 -539 466 C-539 464.68 -539 463.36 -539 462 C-539.99 462 -540.98 462 -542 462 C-542 461.01 -542 460.02 -542 459 C-543.32 459 -544.64 459 -546 459 C-546 458.01 -546 457.02 -546 456 C-546.99 456 -547.98 456 -549 456 C-549 454.68 -549 453.36 -549 452 C-551.31 452 -553.62 452 -556 452 C-556 451.01 -556 450.02 -556 449 C-556.99 449 -557.98 449 -559 449 C-559 448.01 -559 447.02 -559 446 C-561.31 446 -563.62 446 -566 446 C-566 444.68 -566 443.36 -566 442 C-566.99 442 -567.98 442 -569 442 C-569 441.01 -569 440.02 -569 439 C-571.31 439 -573.62 439 -576 439 C-576 438.01 -576 437.02 -576 436 C-576.99 436 -577.98 436 -579 436 C-579 434.68 -579 433.36 -579 432 C-581.31 432 -583.62 432 -586 432 C-586 431.01 -586 430.02 -586 429 C-586.99 429 -587.98 429 -589 429 C-589 428.01 -589 427.02 -589 426 C-589.99 426 -590.98 426 -592 426 C-592 424.68 -592 423.36 -592 422 C-593.32 422 -594.64 422 -596 422 C-596 421.01 -596 420.02 -596 419 C-596.99 419 -597.98 419 -599 419 C-599 418.01 -599 417.02 -599 416 C-599.99 416 -600.98 416 -602 416 C-602 414.68 -602 413.36 -602 412 C-603.32 412 -604.64 412 -606 412 C-606 411.01 -606 410.02 -606 409 C-606.99 409 -607.98 409 -609 409 C-609 408.01 -609 407.02 -609 406 C-609.99 406 -610.98 406 -612 406 C-612 404.68 -612 403.36 -612 402 C-613.32 402 -614.64 402 -616 402 C-616 401.01 -616 400.02 -616 399 C-616.99 399 -617.98 399 -619 399 C-619 398.01 -619 397.02 -619 396 C-619.99 396 -620.98 396 -622 396 C-622 395.01 -622 394.02 -622 393 C-623.32 393 -624.64 393 -626 393 C-626 391.68 -626 390.36 -626 389 C-626.99 389 -627.98 389 -629 389 C-629 387.02 -629 385.04 -629 383 C-629.99 383 -630.98 383 -632 383 C-632 380.69 -632 378.38 -632 376 C-633.32 376 -634.64 376 -636 376 C-636 373.69 -636 371.38 -636 369 C-636.99 369 -637.98 369 -639 369 C-639 367.02 -639 365.04 -639 363 C-639.99 363 -640.98 363 -642 363 C-642 360.69 -642 358.38 -642 356 C-643.32 356 -644.64 356 -646 356 C-646 352.7 -646 349.4 -646 346 C-646.99 346 -647.98 346 -649 346 C-649 342.7 -649 339.4 -649 336 C-649.99 336 -650.98 336 -652 336 C-652 332.7 -652 329.4 -652 326 C-653.32 326 -654.64 326 -656 326 C-656 322.7 -656 319.4 -656 316 C-656.99 316 -657.98 316 -659 316 C-659 296.2 -659 276.4 -659 256 C-658.01 256 -657.02 256 -656 256 C-656 253.69 -656 251.38 -656 249 C-654.68 249 -653.36 249 -652 249 C-652 247.02 -652 245.04 -652 243 C-651.01 243 -650.02 243 -649 243 C-649 240.69 -649 238.38 -649 236 C-648.01 236 -647.02 236 -646 236 C-646 234.02 -646 232.04 -646 230 C-644.68 230 -643.36 230 -642 230 C-642 227.69 -642 225.38 -642 223 C-641.01 223 -640.02 223 -639 223 C-639 222.01 -639 221.02 -639 220 C-638.01 220 -637.02 220 -636 220 C-636 218.68 -636 217.36 -636 216 C-634.68 216 -633.36 216 -632 216 C-632 215.01 -632 214.02 -632 213 C-631.01 213 -630.02 213 -629 213 C-629 210.69 -629 208.38 -629 206 C-628.01 206 -627.02 206 -626 206 C-626 205.01 -626 204.02 -626 203 C-624.68 203 -623.36 203 -622 203 C-622 202.01 -622 201.02 -622 200 C-621.01 200 -620.02 200 -619 200 C-619 198.68 -619 197.36 -619 196 C-616.69 196 -614.38 196 -612 196 C-612 195.01 -612 194.02 -612 193 C-611.01 193 -610.02 193 -609 193 C-609 192.01 -609 191.02 -609 190 C-606.69 190 -604.38 190 -602 190 C-602 188.68 -602 187.36 -602 186 C-600.02 186 -598.04 186 -596 186 C-596 185.01 -596 184.02 -596 183 C-593.69 183 -591.38 183 -589 183 C-589 182.01 -589 181.02 -589 180 C-588.01 180 -587.02 180 -586 180 C-586 178.68 -586 177.36 -586 176 C-583.69 176 -581.38 176 -579 176 C-579 175.01 -579 174.02 -579 173 C-578.01 173 -577.02 173 -576 173 C-576 172.01 -576 171.02 -576 170 C-574.68 170 -573.36 170 -572 170 C-572 168.68 -572 167.36 -572 166 C-570.02 166 -568.04 166 -566 166 C-566 165.01 -566 164.02 -566 163 C-564.68 163 -563.36 163 -562 163 C-562 162.01 -562 161.02 -562 160 C-560.02 160 -558.04 160 -556 160 C-556 158.68 -556 157.36 -556 156 C-553.69 156 -551.38 156 -549 156 C-549 155.01 -549 154.02 -549 153 C-546.69 153 -544.38 153 -542 153 C-542 152.01 -542 151.02 -542 150 C-539.03 150 -536.06 150 -533 150 C-533 148.68 -533 147.36 -533 146 C-530.69 146 -528.38 146 -526 146 C-526 145.01 -526 144.02 -526 143 C-523.69 143 -521.38 143 -519 143 C-519 142.01 -519 141.02 -519 140 C-517.02 140 -515.04 140 -513 140 C-513 138.68 -513 137.36 -513 136 C-510.69 136 -508.38 136 -506 136 C-506 135.01 -506 134.02 -506 133 C-503.69 133 -501.38 133 -499 133 C-499 132.01 -499 131.02 -499 130 C-495.7 130 -492.4 130 -489 130 C-489 128.68 -489 127.36 -489 126 C-487.02 126 -485.04 126 -483 126 C-483 125.01 -483 124.02 -483 123 C-479.7 123 -476.4 123 -473 123 C-473 122.01 -473 121.02 -473 120 C-470.69 120 -468.38 120 -466 120 C-466 118.68 -466 117.36 -466 116 C-462.7 116 -459.4 116 -456 116 C-456 115.01 -456 114.02 -456 113 C-451.71 113 -447.42 113 -443 113 C-443 112.01 -443 111.02 -443 110 C-440.69 110 -438.38 110 -436 110 C-436 108.68 -436 107.36 -436 106 C-432.7 106 -429.4 106 -426 106 C-426 105.01 -426 104.02 -426 103 C-421.71 103 -417.42 103 -413 103 C-413 102.01 -413 101.02 -413 100 C-410.69 100 -408.38 100 -406 100 C-406 99.01 -406 98.02 -406 97 C-402.7 97 -399.4 97 -396 97 C-396 95.68 -396 94.36 -396 93 C-390.72 93 -385.44 93 -380 93 C-380 92.01 -380 91.02 -380 90 C-376.7 90 -373.4 90 -370 90 C-370 89.01 -370 88.02 -370 87 C-367.69 87 -365.38 87 -363 87 C-363 85.68 -363 84.36 -363 83 C-358.71 83 -354.42 83 -350 83 C-350 82.01 -350 81.02 -350 80 C-344.39 80 -338.78 80 -333 80 C-333 79.01 -333 78.02 -333 77 C-327.39 77 -321.78 77 -316 77 C-316 75.68 -316 74.36 -316 73 C-311.71 73 -307.42 73 -303 73 C-303 72.01 -303 71.02 -303 70 C-299.7 70 -296.4 70 -293 70 C-293 69.01 -293 68.02 -293 67 C-288.71 67 -284.42 67 -280 67 C-280 65.68 -280 64.36 -280 63 C-274.39 63 -268.78 63 -263 63 C-263 62.01 -263 61.02 -263 60 C-257.39 60 -251.78 60 -246 60 C-246 59.01 -246 58.02 -246 57 C-241.71 57 -237.42 57 -233 57 C-233 55.68 -233 54.36 -233 53 C-229.7 53 -226.4 53 -223 53 C-223 52.01 -223 51.02 -223 50 C-219.7 50 -216.4 50 -213 50 C-213 49.01 -213 48.02 -213 47 C-209.7 47 -206.4 47 -203 47 C-203 45.68 -203 44.36 -203 43 C-198.71 43 -194.42 43 -190 43 C-190 42.01 -190 41.02 -190 40 C-185.71 40 -181.42 40 -177 40 C-177 39.01 -177 38.02 -177 37 C-170.4 37 -163.8 37 -157 37 C-157 35.68 -157 34.36 -157 33 C-151.39 33 -145.78 33 -140 33 C-140 32.01 -140 31.02 -140 30 C-133.4 30 -126.8 30 -120 30 C-120 29.01 -120 28.02 -120 27 C-114.39 27 -108.78 27 -103 27 C-103 25.68 -103 24.36 -103 23 C-98.71 23 -94.42 23 -90 23 C-90 22.01 -90 21.02 -90 20 C-86.7 20 -83.4 20 -80 20 C-80 19.01 -80 18.02 -80 17 C-75.71 17 -71.42 17 -67 17 C-67 15.68 -67 14.36 -67 13 C-61.39 13 -55.78 13 -50 13 C-50 12.01 -50 11.02 -50 10 C-44.72 10 -39.44 10 -34 10 C-34 9.01 -34 8.02 -34 7 C-28.39 7 -22.78 7 -17 7 C-17 5.68 -17 4.36 -17 3 C-11.39 3 -5.78 3 0 3 C0 2.01 0 1.02 0 0 Z " fill="#000000" transform="translate(667,8)"/>
<path d="M0 0 C5.28 0 10.56 0 16 0 C16 0.99 16 1.98 16 3 C21.61 3 27.22 3 33 3 C33 4.32 33 5.64 33 7 C36.3 7 39.6 7 43 7 C43 7.99 43 8.98 43 10 C46.3 10 49.6 10 53 10 C53 10.99 53 11.98 53 13 C53.99 13 54.98 13 56 13 C56 14.32 56 15.64 56 17 C57.32 17 58.64 17 60 17 C60 17.99 60 18.98 60 20 C60.99 20 61.98 20 63 20 C63 23.3 63 26.6 63 30 C63.99 30 64.98 30 66 30 C66 33.3 66 36.6 66 40 C67.32 40 68.64 40 70 40 C70 47.59 70 55.18 70 63 C68.68 63 67.36 63 66 63 C66 65.31 66 67.62 66 70 C65.01 70 64.02 70 63 70 C63 71.98 63 73.96 63 76 C62.01 76 61.02 76 60 76 C60 77.32 60 78.64 60 80 C58.68 80 57.36 80 56 80 C56 80.99 56 81.98 56 83 C55.01 83 54.02 83 53 83 C53 83.99 53 84.98 53 86 C52.01 86 51.02 86 50 86 C50 87.32 50 88.64 50 90 C48.68 90 47.36 90 46 90 C46 90.99 46 91.98 46 93 C44.02 93 42.04 93 40 93 C40 93.99 40 94.98 40 96 C36.7 96 33.4 96 30 96 C30 97.32 30 98.64 30 100 C21.09 100 12.18 100 3 100 C3 98.68 3 97.36 3 96 C-0.3 96 -3.6 96 -7 96 C-7 95.01 -7 94.02 -7 93 C-9.31 93 -11.62 93 -14 93 C-14 92.01 -14 91.02 -14 90 C-14.99 90 -15.98 90 -17 90 C-17 88.68 -17 87.36 -17 86 C-17.99 86 -18.98 86 -20 86 C-20 85.01 -20 84.02 -20 83 C-21.32 83 -22.64 83 -24 83 C-24 79.7 -24 76.4 -24 73 C-24.99 73 -25.98 73 -27 73 C-27 59.8 -27 46.6 -27 33 C-26.01 33 -25.02 33 -24 33 C-24 31.02 -24 29.04 -24 27 C-22.68 27 -21.36 27 -20 27 C-20 24.69 -20 22.38 -20 20 C-19.01 20 -18.02 20 -17 20 C-17 17.69 -17 15.38 -17 13 C-16.01 13 -15.02 13 -14 13 C-14 12.01 -14 11.02 -14 10 C-12.68 10 -11.36 10 -10 10 C-10 9.01 -10 8.02 -10 7 C-8.02 7 -6.04 7 -4 7 C-4 5.68 -4 4.36 -4 3 C-2.68 3 -1.36 3 0 3 C0 2.01 0 1.02 0 0 Z " fill="#FFFFFF" transform="translate(903,191)"/>
<path d="M0 0 C6.6 0 13.2 0 20 0 C20 1.32 20 2.64 20 4 C20.99 4 21.98 4 23 4 C23 5.98 23 7.96 23 10 C22.01 10 21.02 10 20 10 C20 11.32 20 12.64 20 14 C14.39 14 8.78 14 3 14 C3 14.99 3 15.98 3 17 C2.01 17 1.02 17 0 17 C0 17.99 0 18.98 0 20 C-2.31 20 -4.62 20 -7 20 C-7 21.32 -7 22.64 -7 24 C-9.31 24 -11.62 24 -14 24 C-14 24.99 -14 25.98 -14 27 C-14.99 27 -15.98 27 -17 27 C-17 27.99 -17 28.98 -17 30 C-17.99 30 -18.98 30 -20 30 C-20 31.32 -20 32.64 -20 34 C-22.31 34 -24.62 34 -27 34 C-27 34.99 -27 35.98 -27 37 C-30.3 37 -33.6 37 -37 37 C-37 37.99 -37 38.98 -37 40 C-37.99 40 -38.98 40 -40 40 C-40 41.32 -40 42.64 -40 44 C-43.3 44 -46.6 44 -50 44 C-50 44.99 -50 45.98 -50 47 C-52.31 47 -54.62 47 -57 47 C-57 47.99 -57 48.98 -57 50 C-57.99 50 -58.98 50 -60 50 C-60 51.32 -60 52.64 -60 54 C-62.31 54 -64.62 54 -67 54 C-67 54.99 -67 55.98 -67 57 C-70.3 57 -73.6 57 -77 57 C-77 57.99 -77 58.98 -77 60 C-77.99 60 -78.98 60 -80 60 C-80 60.99 -80 61.98 -80 63 C-83.3 63 -86.6 63 -90 63 C-90 64.32 -90 65.64 -90 67 C-90.99 67 -91.98 67 -93 67 C-93 67.99 -93 68.98 -93 70 C-95.31 70 -97.62 70 -100 70 C-100 70.99 -100 71.98 -100 73 C-103.3 73 -106.6 73 -110 73 C-110 74.32 -110 75.64 -110 77 C-110.99 77 -111.98 77 -113 77 C-113 77.99 -113 78.98 -113 80 C-115.31 80 -117.62 80 -120 80 C-120 80.99 -120 81.98 -120 83 C-120.99 83 -121.98 83 -123 83 C-123 84.32 -123 85.64 -123 87 C-124.32 87 -125.64 87 -127 87 C-127 87.99 -127 88.98 -127 90 C-130.3 90 -133.6 90 -137 90 C-137 90.99 -137 91.98 -137 93 C-137.99 93 -138.98 93 -140 93 C-140 94.32 -140 95.64 -140 97 C-140.99 97 -141.98 97 -143 97 C-143 97.99 -143 98.98 -143 100 C-144.32 100 -145.64 100 -147 100 C-147 103.3 -147 106.6 -147 110 C-147.99 110 -148.98 110 -150 110 C-150 110.99 -150 111.98 -150 113 C-150.99 113 -151.98 113 -153 113 C-153 114.32 -153 115.64 -153 117 C-154.32 117 -155.64 117 -157 117 C-157 118.98 -157 120.96 -157 123 C-157.99 123 -158.98 123 -160 123 C-160 124.32 -160 125.64 -160 127 C-160.99 127 -161.98 127 -163 127 C-163 142.18 -163 157.36 -163 173 C-162.01 173 -161.02 173 -160 173 C-160 174.32 -160 175.64 -160 177 C-156.7 177 -153.4 177 -150 177 C-150 177.99 -150 178.98 -150 180 C-149.01 180 -148.02 180 -147 180 C-147 179.01 -147 178.02 -147 177 C-145.68 177 -144.36 177 -143 177 C-143 172.38 -143 167.76 -143 163 C-142.01 163 -141.02 163 -140 163 C-140 159.7 -140 156.4 -140 153 C-139.01 153 -138.02 153 -137 153 C-137 152.01 -137 151.02 -137 150 C-135.68 150 -134.36 150 -133 150 C-133 149.01 -133 148.02 -133 147 C-132.01 147 -131.02 147 -130 147 C-130 144.69 -130 142.38 -130 140 C-129.01 140 -128.02 140 -127 140 C-127 137.69 -127 135.38 -127 133 C-125.68 133 -124.36 133 -123 133 C-123 132.01 -123 131.02 -123 130 C-122.01 130 -121.02 130 -120 130 C-120 129.01 -120 128.02 -120 127 C-119.01 127 -118.02 127 -117 127 C-117 125.68 -117 124.36 -117 123 C-115.68 123 -114.36 123 -113 123 C-113 122.01 -113 121.02 -113 120 C-112.01 120 -111.02 120 -110 120 C-110 119.01 -110 118.02 -110 117 C-107.69 117 -105.38 117 -103 117 C-103 115.68 -103 114.36 -103 113 C-101.02 113 -99.04 113 -97 113 C-97 112.01 -97 111.02 -97 110 C-95.68 110 -94.36 110 -93 110 C-93 109.01 -93 108.02 -93 107 C-92.01 107 -91.02 107 -90 107 C-90 105.68 -90 104.36 -90 103 C-87.69 103 -85.38 103 -83 103 C-83 102.01 -83 101.02 -83 100 C-82.01 100 -81.02 100 -80 100 C-80 99.01 -80 98.02 -80 97 C-77.69 97 -75.38 97 -73 97 C-73 95.68 -73 94.36 -73 93 C-71.02 93 -69.04 93 -67 93 C-67 92.01 -67 91.02 -67 90 C-64.69 90 -62.38 90 -60 90 C-60 89.01 -60 88.02 -60 87 C-57.69 87 -55.38 87 -53 87 C-53 85.68 -53 84.36 -53 83 C-51.02 83 -49.04 83 -47 83 C-47 82.01 -47 81.02 -47 80 C-44.69 80 -42.38 80 -40 80 C-40 79.01 -40 78.02 -40 77 C-39.01 77 -38.02 77 -37 77 C-37 75.68 -37 74.36 -37 73 C-34.69 73 -32.38 73 -30 73 C-30 72.01 -30 71.02 -30 70 C-28.02 70 -26.04 70 -24 70 C-24 69.01 -24 68.02 -24 67 C-20.7 67 -17.4 67 -14 67 C-14 65.68 -14 64.36 -14 63 C-12.68 63 -11.36 63 -10 63 C-10 62.01 -10 61.02 -10 60 C-8.02 60 -6.04 60 -4 60 C-4 59.01 -4 58.02 -4 57 C-1.69 57 0.62 57 3 57 C3 56.01 3 55.02 3 54 C5.31 54 7.62 54 10 54 C10 52.68 10 51.36 10 50 C11.98 50 13.96 50 16 50 C16 49.01 16 48.02 16 47 C17.32 47 18.64 47 20 47 C20 46.01 20 45.02 20 44 C23.3 44 26.6 44 30 44 C30 44.99 30 45.98 30 47 C30.99 47 31.98 47 33 47 C33 49.31 33 51.62 33 54 C32.01 54 31.02 54 30 54 C30 54.99 30 55.98 30 57 C28.68 57 27.36 57 26 57 C26 57.99 26 58.98 26 60 C25.01 60 24.02 60 23 60 C23 60.99 23 61.98 23 63 C19.7 63 16.4 63 13 63 C13 64.32 13 65.64 13 67 C10.69 67 8.38 67 6 67 C6 67.99 6 68.98 6 70 C4.02 70 2.04 70 0 70 C0 70.99 0 71.98 0 73 C-2.31 73 -4.62 73 -7 73 C-7 74.32 -7 75.64 -7 77 C-7.99 77 -8.98 77 -10 77 C-10 77.99 -10 78.98 -10 80 C-13.3 80 -16.6 80 -20 80 C-20 80.99 -20 81.98 -20 83 C-22.31 83 -24.62 83 -27 83 C-27 84.32 -27 85.64 -27 87 C-28.98 87 -30.96 87 -33 87 C-33 87.99 -33 88.98 -33 90 C-34.32 90 -35.64 90 -37 90 C-37 90.99 -37 91.98 -37 93 C-38.98 93 -40.96 93 -43 93 C-43 94.32 -43 95.64 -43 97 C-45.31 97 -47.62 97 -50 97 C-50 97.99 -50 98.98 -50 100 C-52.31 100 -54.62 100 -57 100 C-57 100.99 -57 101.98 -57 103 C-58.98 103 -60.96 103 -63 103 C-63 104.32 -63 105.64 -63 107 C-65.31 107 -67.62 107 -70 107 C-70 107.99 -70 108.98 -70 110 C-72.31 110 -74.62 110 -77 110 C-77 110.99 -77 111.98 -77 113 C-77.99 113 -78.98 113 -80 113 C-80 114.32 -80 115.64 -80 117 C-82.31 117 -84.62 117 -87 117 C-87 117.99 -87 118.98 -87 120 C-87.99 120 -88.98 120 -90 120 C-90 120.99 -90 121.98 -90 123 C-90.99 123 -91.98 123 -93 123 C-93 124.32 -93 125.64 -93 127 C-95.31 127 -97.62 127 -100 127 C-100 127.99 -100 128.98 -100 130 C-102.31 130 -104.62 130 -107 130 C-107 130.99 -107 131.98 -107 133 C-107.99 133 -108.98 133 -110 133 C-110 135.31 -110 137.62 -110 140 C-110.99 140 -111.98 140 -113 140 C-113 140.99 -113 141.98 -113 143 C-114.32 143 -115.64 143 -117 143 C-117 145.31 -117 147.62 -117 150 C-117.99 150 -118.98 150 -120 150 C-120 150.99 -120 151.98 -120 153 C-120.99 153 -121.98 153 -123 153 C-123 155.31 -123 157.62 -123 160 C-124.32 160 -125.64 160 -127 160 C-127 162.31 -127 164.62 -127 167 C-127.99 167 -128.98 167 -130 167 C-130 172.28 -130 177.56 -130 183 C-130.99 183 -131.98 183 -133 183 C-133 184.32 -133 185.64 -133 187 C-134.32 187 -135.64 187 -137 187 C-137 187.99 -137 188.98 -137 190 C-137.99 190 -138.98 190 -140 190 C-140 190.99 -140 191.98 -140 193 C-144.29 193 -148.58 193 -153 193 C-153 192.01 -153 191.02 -153 190 C-156.3 190 -159.6 190 -163 190 C-163 189.01 -163 188.02 -163 187 C-165.31 187 -167.62 187 -170 187 C-170 185.68 -170 184.36 -170 183 C-170.99 183 -171.98 183 -173 183 C-173 181.02 -173 179.04 -173 177 C-173.99 177 -174.98 177 -176 177 C-176 159.18 -176 141.36 -176 123 C-175.01 123 -174.02 123 -173 123 C-173 122.01 -173 121.02 -173 120 C-172.01 120 -171.02 120 -170 120 C-170 117.69 -170 115.38 -170 113 C-169.01 113 -168.02 113 -167 113 C-167 112.01 -167 111.02 -167 110 C-165.68 110 -164.36 110 -163 110 C-163 107.69 -163 105.38 -163 103 C-162.01 103 -161.02 103 -160 103 C-160 101.02 -160 99.04 -160 97 C-159.01 97 -158.02 97 -157 97 C-157 95.68 -157 94.36 -157 93 C-155.68 93 -154.36 93 -153 93 C-153 92.01 -153 91.02 -153 90 C-152.01 90 -151.02 90 -150 90 C-150 89.01 -150 88.02 -150 87 C-149.01 87 -148.02 87 -147 87 C-147 85.68 -147 84.36 -147 83 C-145.68 83 -144.36 83 -143 83 C-143 82.01 -143 81.02 -143 80 C-142.01 80 -141.02 80 -140 80 C-140 79.01 -140 78.02 -140 77 C-136.7 77 -133.4 77 -130 77 C-130 75.68 -130 74.36 -130 73 C-129.01 73 -128.02 73 -127 73 C-127 72.01 -127 71.02 -127 70 C-125.68 70 -124.36 70 -123 70 C-123 69.01 -123 68.02 -123 67 C-121.02 67 -119.04 67 -117 67 C-117 65.68 -117 64.36 -117 63 C-115.68 63 -114.36 63 -113 63 C-113 62.01 -113 61.02 -113 60 C-109.7 60 -106.4 60 -103 60 C-103 59.01 -103 58.02 -103 57 C-101.02 57 -99.04 57 -97 57 C-97 56.01 -97 55.02 -97 54 C-95.68 54 -94.36 54 -93 54 C-93 52.68 -93 51.36 -93 50 C-89.7 50 -86.4 50 -83 50 C-83 49.01 -83 48.02 -83 47 C-82.01 47 -81.02 47 -80 47 C-80 46.01 -80 45.02 -80 44 C-76.7 44 -73.4 44 -70 44 C-70 42.68 -70 41.36 -70 40 C-67.69 40 -65.38 40 -63 40 C-63 39.01 -63 38.02 -63 37 C-62.01 37 -61.02 37 -60 37 C-60 36.01 -60 35.02 -60 34 C-57.69 34 -55.38 34 -53 34 C-53 32.68 -53 31.36 -53 30 C-49.7 30 -46.4 30 -43 30 C-43 29.01 -43 28.02 -43 27 C-42.01 27 -41.02 27 -40 27 C-40 26.01 -40 25.02 -40 24 C-36.7 24 -33.4 24 -30 24 C-30 22.68 -30 21.36 -30 20 C-29.01 20 -28.02 20 -27 20 C-27 19.01 -27 18.02 -27 17 C-26.01 17 -25.02 17 -24 17 C-24 16.01 -24 15.02 -24 14 C-22.68 14 -21.36 14 -20 14 C-20 12.68 -20 11.36 -20 10 C-16.7 10 -13.4 10 -10 10 C-10 9.01 -10 8.02 -10 7 C-8.02 7 -6.04 7 -4 7 C-4 6.01 -4 5.02 -4 4 C-2.68 4 -1.36 4 0 4 C0 2.68 0 1.36 0 0 Z " fill="#000000" transform="translate(597,347)"/>
<path d="M0 0 C5.28 0 10.56 0 16 0 C16 0.99 16 1.98 16 3 C18.31 3 20.62 3 23 3 C23 4.32 23 5.64 23 7 C24.98 7 26.96 7 29 7 C29 7.99 29 8.98 29 10 C30.32 10 31.64 10 33 10 C33 10.99 33 11.98 33 13 C33.99 13 34.98 13 36 13 C36 14.32 36 15.64 36 17 C36.99 17 37.98 17 39 17 C39 17.99 39 18.98 39 20 C40.32 20 41.64 20 43 20 C43 20.99 43 21.98 43 23 C43.99 23 44.98 23 46 23 C46 24.32 46 25.64 46 27 C46.99 27 47.98 27 49 27 C49 28.98 49 30.96 49 33 C50.32 33 51.64 33 53 33 C53 38.61 53 44.22 53 50 C51.68 50 50.36 50 49 50 C49 53.3 49 56.6 49 60 C48.01 60 47.02 60 46 60 C46 61.98 46 63.96 46 66 C45.01 66 44.02 66 43 66 C43 67.32 43 68.64 43 70 C41.68 70 40.36 70 39 70 C39 70.99 39 71.98 39 73 C38.01 73 37.02 73 36 73 C36 73.99 36 74.98 36 76 C35.01 76 34.02 76 33 76 C33 77.32 33 78.64 33 80 C25.41 80 17.82 80 10 80 C10 78.68 10 77.36 10 76 C4.39 76 -1.22 76 -7 76 C-7 75.01 -7 74.02 -7 73 C-7.99 73 -8.98 73 -10 73 C-10 72.01 -10 71.02 -10 70 C-11.32 70 -12.64 70 -14 70 C-14 68.68 -14 67.36 -14 66 C-14.99 66 -15.98 66 -17 66 C-17 65.01 -17 64.02 -17 63 C-17.99 63 -18.98 63 -20 63 C-20 59.7 -20 56.4 -20 53 C-21.32 53 -22.64 53 -24 53 C-24 45.41 -24 37.82 -24 30 C-22.68 30 -21.36 30 -20 30 C-20 26.7 -20 23.4 -20 20 C-19.01 20 -18.02 20 -17 20 C-17 17.69 -17 15.38 -17 13 C-16.01 13 -15.02 13 -14 13 C-14 12.01 -14 11.02 -14 10 C-12.68 10 -11.36 10 -10 10 C-10 9.01 -10 8.02 -10 7 C-8.02 7 -6.04 7 -4 7 C-4 5.68 -4 4.36 -4 3 C-2.68 3 -1.36 3 0 3 C0 2.01 0 1.02 0 0 Z " fill="#010101" transform="translate(258,221)"/>
<path d="M0 0 C5.28 0 10.56 0 16 0 C16 0.99 16 1.98 16 3 C21.61 3 27.22 3 33 3 C33 4.32 33 5.64 33 7 C36.3 7 39.6 7 43 7 C43 7.99 43 8.98 43 10 C46.3 10 49.6 10 53 10 C53 10.99 53 11.98 53 13 C53.99 13 54.98 13 56 13 C56 14.32 56 15.64 56 17 C57.32 17 58.64 17 60 17 C60 17.99 60 18.98 60 20 C60.99 20 61.98 20 63 20 C63 23.3 63 26.6 63 30 C63.99 30 64.98 30 66 30 C66 33.3 66 36.6 66 40 C67.32 40 68.64 40 70 40 C70 47.59 70 55.18 70 63 C68.68 63 67.36 63 66 63 C66 65.31 66 67.62 66 70 C65.01 70 64.02 70 63 70 C63 71.98 63 73.96 63 76 C62.01 76 61.02 76 60 76 C60 77.32 60 78.64 60 80 C58.68 80 57.36 80 56 80 C56 80.99 56 81.98 56 83 C55.01 83 54.02 83 53 83 C53 83.99 53 84.98 53 86 C52.01 86 51.02 86 50 86 C50 87.32 50 88.64 50 90 C48.68 90 47.36 90 46 90 C46 90.99 46 91.98 46 93 C44.02 93 42.04 93 40 93 C40 93.99 40 94.98 40 96 C36.7 96 33.4 96 30 96 C30 97.32 30 98.64 30 100 C21.09 100 12.18 100 3 100 C3 98.68 3 97.36 3 96 C-0.3 96 -3.6 96 -7 96 C-7 95.01 -7 94.02 -7 93 C-9.31 93 -11.62 93 -14 93 C-14 92.01 -14 91.02 -14 90 C-14.99 90 -15.98 90 -17 90 C-17 88.68 -17 87.36 -17 86 C-17.99 86 -18.98 86 -20 86 C-20 85.01 -20 84.02 -20 83 C-21.32 83 -22.64 83 -24 83 C-24 79.7 -24 76.4 -24 73 C-24.99 73 -25.98 73 -27 73 C-27 59.8 -27 46.6 -27 33 C-26.01 33 -25.02 33 -24 33 C-24 31.02 -24 29.04 -24 27 C-22.68 27 -21.36 27 -20 27 C-20 24.69 -20 22.38 -20 20 C-19.01 20 -18.02 20 -17 20 C-17 17.69 -17 15.38 -17 13 C-16.01 13 -15.02 13 -14 13 C-14 12.01 -14 11.02 -14 10 C-12.68 10 -11.36 10 -10 10 C-10 9.01 -10 8.02 -10 7 C-8.02 7 -6.04 7 -4 7 C-4 5.68 -4 4.36 -4 3 C-2.68 3 -1.36 3 0 3 C0 2.01 0 1.02 0 0 Z M10 17 C10 17.99 10 18.98 10 20 C5.38 20 0.76 20 -4 20 C-4 20.99 -4 21.98 -4 23 C-4.99 23 -5.98 23 -7 23 C-7 25.31 -7 27.62 -7 30 C-7.99 30 -8.98 30 -10 30 C-10 32.31 -10 34.62 -10 37 C-11.32 37 -12.64 37 -14 37 C-14 47.89 -14 58.78 -14 70 C-12.68 70 -11.36 70 -10 70 C-10 73.3 -10 76.6 -10 80 C-8.02 80 -6.04 80 -4 80 C-4 80.99 -4 81.98 -4 83 C-0.7 83 2.6 83 6 83 C6 83.99 6 84.98 6 86 C12.6 86 19.2 86 26 86 C26 85.01 26 84.02 26 83 C29.3 83 32.6 83 36 83 C36 82.01 36 81.02 36 80 C38.31 80 40.62 80 43 80 C43 77.69 43 75.38 43 73 C43.99 73 44.98 73 46 73 C46 72.01 46 71.02 46 70 C47.32 70 48.64 70 50 70 C50 68.68 50 67.36 50 66 C50.99 66 51.98 66 53 66 C53 64.02 53 62.04 53 60 C53.99 60 54.98 60 56 60 C56 54.39 56 48.78 56 43 C55.01 43 54.02 43 53 43 C53 39.7 53 36.4 53 33 C52.01 33 51.02 33 50 33 C50 29.7 50 26.4 50 23 C46.7 23 43.4 23 40 23 C40 22.01 40 21.02 40 20 C36.7 20 33.4 20 30 20 C30 19.01 30 18.02 30 17 C23.4 17 16.8 17 10 17 Z " fill="#000000" transform="translate(903,191)"/>
<path d="M0 0 C13.2 0 26.4 0 40 0 C40 0.99 40 1.98 40 3 C56.5 3 73 3 90 3 C90 4.32 90 5.64 90 7 C90.99 7 91.98 7 93 7 C93 7.99 93 8.98 93 10 C94.32 10 95.64 10 97 10 C97 10.99 97 11.98 97 13 C98.98 13 100.96 13 103 13 C103 14.32 103 15.64 103 17 C104.32 17 105.64 17 107 17 C107 18.98 107 20.96 107 23 C105.68 23 104.36 23 103 23 C103 24.32 103 25.64 103 27 C99.7 27 96.4 27 93 27 C93 25.68 93 24.36 93 23 C92.01 23 91.02 23 90 23 C90 22.01 90 21.02 90 20 C89.01 20 88.02 20 87 20 C87 19.01 87 18.02 87 17 C84.69 17 82.38 17 80 17 C80 21.29 80 25.58 80 30 C79.01 30 78.02 30 77 30 C77 30.99 77 31.98 77 33 C75.68 33 74.36 33 73 33 C73 34.32 73 35.64 73 37 C53.53 37 34.06 37 14 37 C14 35.68 14 34.36 14 33 C11.69 33 9.38 33 7 33 C7 32.01 7 31.02 7 30 C6.01 30 5.02 30 4 30 C4 29.01 4 28.02 4 27 C2.68 27 1.36 27 0 27 C0 25.68 0 24.36 0 23 C-0.99 23 -1.98 23 -3 23 C-3 22.01 -3 21.02 -3 20 C-3.99 20 -4.98 20 -6 20 C-6 19.01 -6 18.02 -6 17 C-7.32 17 -8.64 17 -10 17 C-10 17.99 -10 18.98 -10 20 C-16.6 20 -23.2 20 -30 20 C-30 19.01 -30 18.02 -30 17 C-30.99 17 -31.98 17 -33 17 C-33 14.69 -33 12.38 -33 10 C-32.01 10 -31.02 10 -30 10 C-30 9.01 -30 8.02 -30 7 C-24.39 7 -18.78 7 -13 7 C-13 5.68 -13 4.36 -13 3 C-8.71 3 -4.42 3 0 3 C0 2.01 0 1.02 0 0 Z " fill="#000000" transform="translate(520,487)"/>
<path d="M0 0 C15.18 0 30.36 0 46 0 C46 0.99 46 1.98 46 3 C52.6 3 59.2 3 66 3 C66 3.99 66 4.98 66 6 C74.91 6 83.82 6 93 6 C93 7.32 93 8.64 93 10 C96.3 10 99.6 10 103 10 C103 10.99 103 11.98 103 13 C105.31 13 107.62 13 110 13 C110 13.99 110 14.98 110 16 C115.28 16 120.56 16 126 16 C126 18.31 126 20.62 126 23 C119.4 23 112.8 23 106 23 C106 22.01 106 21.02 106 20 C104.02 20 102.04 20 100 20 C100 18.68 100 17.36 100 16 C96.7 16 93.4 16 90 16 C90 15.01 90 14.02 90 13 C81.09 13 72.18 13 63 13 C63 12.01 63 11.02 63 10 C56.4 10 49.8 10 43 10 C43 8.68 43 7.36 43 6 C29.8 6 16.6 6 3 6 C3 7.32 3 8.64 3 10 C-0.3 10 -3.6 10 -7 10 C-7 10.99 -7 11.98 -7 13 C-8.98 13 -10.96 13 -13 13 C-13 13.99 -13 14.98 -13 16 C-16.3 16 -19.6 16 -23 16 C-23 17.32 -23 18.64 -23 20 C-28.61 20 -34.22 20 -40 20 C-40 20.99 -40 21.98 -40 23 C-57.49 23 -74.98 23 -93 23 C-93 20.69 -93 18.38 -93 16 C-76.5 16 -60 16 -43 16 C-43 15.01 -43 14.02 -43 13 C-37.72 13 -32.44 13 -27 13 C-27 12.01 -27 11.02 -27 10 C-23.7 10 -20.4 10 -17 10 C-17 8.68 -17 7.36 -17 6 C-14.69 6 -12.38 6 -10 6 C-10 5.01 -10 4.02 -10 3 C-6.7 3 -3.4 3 0 3 C0 2.01 0 1.02 0 0 Z " fill="#000000" transform="translate(537,128)"/>
<path d="M0 0 C14.19 0 28.38 0 43 0 C43 0.99 43 1.98 43 3 C44.32 3 45.64 3 47 3 C47 5.31 47 7.62 47 10 C45.68 10 44.36 10 43 10 C43 10.99 43 11.98 43 13 C29.8 13 16.6 13 3 13 C3 14.32 3 15.64 3 17 C-1.29 17 -5.58 17 -10 17 C-10 17.99 -10 18.98 -10 20 C-17.59 20 -25.18 20 -33 20 C-33 20.99 -33 21.98 -33 23 C-37.29 23 -41.58 23 -46 23 C-46 24.32 -46 25.64 -46 27 C-48.31 27 -50.62 27 -53 27 C-53 27.99 -53 28.98 -53 30 C-53.99 30 -54.98 30 -56 30 C-56 30.99 -56 31.98 -56 33 C-59.3 33 -62.6 33 -66 33 C-66 32.01 -66 31.02 -66 30 C-67.32 30 -68.64 30 -70 30 C-70 27.69 -70 25.38 -70 23 C-68.68 23 -67.36 23 -66 23 C-66 22.01 -66 21.02 -66 20 C-65.01 20 -64.02 20 -63 20 C-63 19.01 -63 18.02 -63 17 C-60.69 17 -58.38 17 -56 17 C-56 15.68 -56 14.36 -56 13 C-54.02 13 -52.04 13 -50 13 C-50 12.01 -50 11.02 -50 10 C-45.38 10 -40.76 10 -36 10 C-36 9.01 -36 8.02 -36 7 C-28.41 7 -20.82 7 -13 7 C-13 5.68 -13 4.36 -13 3 C-8.71 3 -4.42 3 0 3 C0 2.01 0 1.02 0 0 Z " fill="#000000" transform="translate(274,171)"/>
<path d="M0 0 C10.89 0 21.78 0 33 0 C33 0.99 33 1.98 33 3 C40.59 3 48.18 3 56 3 C56 4.32 56 5.64 56 7 C60.62 7 65.24 7 70 7 C70 7.99 70 8.98 70 10 C73.3 10 76.6 10 80 10 C80 10.99 80 11.98 80 13 C81.98 13 83.96 13 86 13 C86 14.32 86 15.64 86 17 C89.3 17 92.6 17 96 17 C96 17.99 96 18.98 96 20 C101.61 20 107.22 20 113 20 C113 20.99 113 21.98 113 23 C127.19 23 141.38 23 156 23 C156 22.01 156 21.02 156 20 C159.3 20 162.6 20 166 20 C166 19.01 166 18.02 166 17 C168.31 17 170.62 17 173 17 C173 15.68 173 14.36 173 13 C175.31 13 177.62 13 180 13 C180 15.31 180 17.62 180 20 C178.68 20 177.36 20 176 20 C176 20.99 176 21.98 176 23 C174.02 23 172.04 23 170 23 C170 24.32 170 25.64 170 27 C166.7 27 163.4 27 160 27 C160 27.99 160 28.98 160 30 C143.5 30 127 30 110 30 C110 29.01 110 28.02 110 27 C104.39 27 98.78 27 93 27 C93 25.68 93 24.36 93 23 C89.7 23 86.4 23 83 23 C83 22.01 83 21.02 83 20 C80.69 20 78.38 20 76 20 C76 19.01 76 18.02 76 17 C72.7 17 69.4 17 66 17 C66 15.68 66 14.36 66 13 C61.71 13 57.42 13 53 13 C53 12.01 53 11.02 53 10 C45.41 10 37.82 10 30 10 C30 9.01 30 8.02 30 7 C21.09 7 12.18 7 3 7 C3 7.99 3 8.98 3 10 C-0.3 10 -3.6 10 -7 10 C-7 10.99 -7 11.98 -7 13 C-8.98 13 -10.96 13 -13 13 C-13 14.32 -13 15.64 -13 17 C-17.62 17 -22.24 17 -27 17 C-27 14.69 -27 12.38 -27 10 C-23.7 10 -20.4 10 -17 10 C-17 9.01 -17 8.02 -17 7 C-14.69 7 -12.38 7 -10 7 C-10 5.68 -10 4.36 -10 3 C-6.7 3 -3.4 3 0 3 C0 2.01 0 1.02 0 0 Z " fill="#000000" transform="translate(537,171)"/>
<path d="M0 0 C10.89 0 21.78 0 33 0 C33 1.32 33 2.64 33 4 C36.3 4 39.6 4 43 4 C43 4.99 43 5.98 43 7 C44.32 7 45.64 7 47 7 C47 7.99 47 8.98 47 10 C47.99 10 48.98 10 50 10 C50 11.32 50 12.64 50 14 C52.31 14 54.62 14 57 14 C57 14.99 57 15.98 57 17 C57.99 17 58.98 17 60 17 C60 17.99 60 18.98 60 20 C63.3 20 66.6 20 70 20 C70 21.32 70 22.64 70 24 C72.31 24 74.62 24 77 24 C77 24.99 77 25.98 77 27 C78.98 27 80.96 27 83 27 C83 27.99 83 28.98 83 30 C85.31 30 87.62 30 90 30 C90 31.32 90 32.64 90 34 C94.29 34 98.58 34 103 34 C103 34.99 103 35.98 103 37 C104.32 37 105.64 37 107 37 C107 39.31 107 41.62 107 44 C105.68 44 104.36 44 103 44 C103 44.99 103 45.98 103 47 C97.72 47 92.44 47 87 47 C87 46.01 87 45.02 87 44 C84.69 44 82.38 44 80 44 C80 42.68 80 41.36 80 40 C77.69 40 75.38 40 73 40 C73 39.01 73 38.02 73 37 C71.02 37 69.04 37 67 37 C67 36.01 67 35.02 67 34 C63.7 34 60.4 34 57 34 C57 32.68 57 31.36 57 30 C55.68 30 54.36 30 53 30 C53 29.01 53 28.02 53 27 C51.02 27 49.04 27 47 27 C47 26.01 47 25.02 47 24 C45.68 24 44.36 24 43 24 C43 22.68 43 21.36 43 20 C42.01 20 41.02 20 40 20 C40 19.01 40 18.02 40 17 C36.7 17 33.4 17 30 17 C30 16.01 30 15.02 30 14 C20.1 14 10.2 14 0 14 C0 12.68 0 11.36 0 10 C-0.99 10 -1.98 10 -3 10 C-3 8.02 -3 6.04 -3 4 C-2.01 4 -1.02 4 0 4 C0 2.68 0 1.36 0 0 Z " fill="#000000" transform="translate(896,144)"/>
<path d="M0 0 C5.61 0 11.22 0 17 0 C17 1.32 17 2.64 17 4 C18.98 4 20.96 4 23 4 C23 4.99 23 5.98 23 7 C24.32 7 25.64 7 27 7 C27 7.99 27 8.98 27 10 C27.99 10 28.98 10 30 10 C30 13.3 30 16.6 30 20 C29.01 20 28.02 20 27 20 C27 22.31 27 24.62 27 27 C25.68 27 24.36 27 23 27 C23 27.99 23 28.98 23 30 C22.01 30 21.02 30 20 30 C20 30.99 20 31.98 20 33 C19.01 33 18.02 33 17 33 C17 34.32 17 35.64 17 37 C15.68 37 14.36 37 13 37 C13 37.99 13 38.98 13 40 C6.4 40 -0.2 40 -7 40 C-7 39.01 -7 38.02 -7 37 C-7.99 37 -8.98 37 -10 37 C-10 34.69 -10 32.38 -10 30 C-10.99 30 -11.98 30 -13 30 C-13 24.72 -13 19.44 -13 14 C-12.01 14 -11.02 14 -10 14 C-10 11.69 -10 9.38 -10 7 C-9.01 7 -8.02 7 -7 7 C-7 6.01 -7 5.02 -7 4 C-4.69 4 -2.38 4 0 4 C0 2.68 0 1.36 0 0 Z " fill="#000000" transform="translate(906,224)"/>
<path d="M0 0 C9.9 0 19.8 0 30 0 C30 1.32 30 2.64 30 4 C33.3 4 36.6 4 40 4 C40 4.99 40 5.98 40 7 C44.62 7 49.24 7 54 7 C54 7.99 54 8.98 54 10 C57.3 10 60.6 10 64 10 C64 11.32 64 12.64 64 14 C73.9 14 83.8 14 94 14 C94 12.68 94 11.36 94 10 C95.98 10 97.96 10 100 10 C100 9.01 100 8.02 100 7 C104.29 7 108.58 7 113 7 C113 6.01 113 5.02 113 4 C116.3 4 119.6 4 123 4 C123 2.68 123 1.36 123 0 C125.31 0 127.62 0 130 0 C130 2.31 130 4.62 130 7 C129.01 7 128.02 7 127 7 C127 7.99 127 8.98 127 10 C123.7 10 120.4 10 117 10 C117 11.32 117 12.64 117 14 C112.71 14 108.42 14 104 14 C104 14.99 104 15.98 104 17 C101.69 17 99.38 17 97 17 C97 17.99 97 18.98 97 20 C84.79 20 72.58 20 60 20 C60 19.01 60 18.02 60 17 C56.7 17 53.4 17 50 17 C50 16.01 50 15.02 50 14 C45.71 14 41.42 14 37 14 C37 12.68 37 11.36 37 10 C33.7 10 30.4 10 27 10 C27 9.01 27 8.02 27 7 C18.09 7 9.18 7 0 7 C0 4.69 0 2.38 0 0 Z " fill="#000000" transform="translate(613,91)"/>
<path d="M0 0 C4.29 0 8.58 0 13 0 C13 0.99 13 1.98 13 3 C14.32 3 15.64 3 17 3 C17 3.99 17 4.98 17 6 C17.99 6 18.98 6 20 6 C20 7.32 20 8.64 20 10 C20.99 10 21.98 10 23 10 C23 10.99 23 11.98 23 13 C24.32 13 25.64 13 27 13 C27 13.99 27 14.98 27 16 C27.99 16 28.98 16 30 16 C30 16.99 30 17.98 30 19 C30.99 19 31.98 19 33 19 C33 21.31 33 23.62 33 26 C32.01 26 31.02 26 30 26 C30 30.29 30 34.58 30 39 C29.01 39 28.02 39 27 39 C27 40.32 27 41.64 27 43 C25.68 43 24.36 43 23 43 C23 43.99 23 44.98 23 46 C22.01 46 21.02 46 20 46 C20 46.99 20 47.98 20 49 C15.71 49 11.42 49 7 49 C7 48.01 7 47.02 7 46 C2.71 46 -1.58 46 -6 46 C-6 45.01 -6 44.02 -6 43 C-0.72 43 4.56 43 10 43 C10 41.68 10 40.36 10 39 C10.99 39 11.98 39 13 39 C13 38.01 13 37.02 13 36 C14.32 36 15.64 36 17 36 C17 29.4 17 22.8 17 16 C15.68 16 14.36 16 13 16 C13 15.01 13 14.02 13 13 C12.01 13 11.02 13 10 13 C10 12.01 10 11.02 10 10 C8.02 10 6.04 10 4 10 C4 10.99 4 11.98 4 13 C2.68 13 1.36 13 0 13 C0 12.01 0 11.02 0 10 C-1.98 10 -3.96 10 -6 10 C-6 10.99 -6 11.98 -6 13 C-7.32 13 -8.64 13 -10 13 C-10 13.99 -10 14.98 -10 16 C-10.99 16 -11.98 16 -13 16 C-13 12.7 -13 9.4 -13 6 C-12.01 6 -11.02 6 -10 6 C-10 5.01 -10 4.02 -10 3 C-6.7 3 -3.4 3 0 3 C0 2.01 0 1.02 0 0 Z " fill="#FFFFFF" transform="translate(264,238)"/>
<path d="M0 0 C1.98 0 3.96 0 6 0 C6 2.31 6 4.62 6 7 C9.3 7 12.6 7 16 7 C16 7.99 16 8.98 16 10 C17.32 10 18.64 10 20 10 C20 10.99 20 11.98 20 13 C20.99 13 21.98 13 23 13 C23 14.32 23 15.64 23 17 C31.91 17 40.82 17 50 17 C50 15.68 50 14.36 50 13 C51.98 13 53.96 13 56 13 C56 12.01 56 11.02 56 10 C59.3 10 62.6 10 66 10 C66 9.01 66 8.02 66 7 C71.61 7 77.22 7 83 7 C83 4.69 83 2.38 83 0 C84.98 0 86.96 0 89 0 C89 3.3 89 6.6 89 10 C88.01 10 87.02 10 86 10 C86 10.99 86 11.98 86 13 C80.39 13 74.78 13 69 13 C69 14.32 69 15.64 69 17 C66.03 17 63.06 17 60 17 C60 17.99 60 18.98 60 20 C57.69 20 55.38 20 53 20 C53 20.99 53 21.98 53 23 C42.11 23 31.22 23 20 23 C20 22.01 20 21.02 20 20 C18.68 20 17.36 20 16 20 C16 19.01 16 18.02 16 17 C15.01 17 14.02 17 13 17 C13 15.68 13 14.36 13 13 C9.7 13 6.4 13 3 13 C3 12.01 3 11.02 3 10 C2.01 10 1.02 10 0 10 C0 6.7 0 3.4 0 0 Z " fill="#000000" transform="translate(504,743)"/>
<path d="M0 0 C7.59 0 15.18 0 23 0 C23 1.32 23 2.64 23 4 C33.89 4 44.78 4 56 4 C56 4.99 56 5.98 56 7 C55.01 7 54.02 7 53 7 C53 7.99 53 8.98 53 10 C36.5 10 20 10 3 10 C3 9.01 3 8.02 3 7 C2.01 7 1.02 7 0 7 C0 4.69 0 2.38 0 0 Z " fill="#FFFFFF" transform="translate(534,500)"/>
<path d="M0 0 C5.61 0 11.22 0 17 0 C17 1.32 17 2.64 17 4 C24.59 4 32.18 4 40 4 C40 4.99 40 5.98 40 7 C42.31 7 44.62 7 47 7 C47 7.99 47 8.98 47 10 C43.7 10 40.4 10 37 10 C37 9.01 37 8.02 37 7 C29.08 7 21.16 7 13 7 C13 6.01 13 5.02 13 4 C8.71 4 4.42 4 0 4 C0 2.68 0 1.36 0 0 Z " fill="#000000" transform="translate(866,327)"/>
<path d="M0 0 C0.99 0 1.98 0 3 0 C3 0.99 3 1.98 3 3 C3.99 3 4.98 3 6 3 C6 3.99 6 4.98 6 6 C5.01 6 4.02 6 3 6 C3 7.32 3 8.64 3 10 C2.01 10 1.02 10 0 10 C0 10.99 0 11.98 0 13 C-2.31 13 -4.62 13 -7 13 C-7 9.7 -7 6.4 -7 3 C-4.69 3 -2.38 3 0 3 C0 2.01 0 1.02 0 0 Z " fill="#FFFFFF" transform="translate(913,238)"/>
<path d="M0 0 C4.62 0 9.24 0 14 0 C14 0.99 14 1.98 14 3 C10.7 3 7.4 3 4 3 C4 3.99 4 4.98 4 6 C1.69 6 -0.62 6 -3 6 C-3 5.01 -3 4.02 -3 3 C-2.01 3 -1.02 3 0 3 C0 2.01 0 1.02 0 0 Z " fill="#000000" transform="translate(254,331)"/>
<path d="M0 0 C4.29 0 8.58 0 13 0 C13 1.32 13 2.64 13 4 C8.71 4 4.42 4 0 4 C0 2.68 0 1.36 0 0 Z " fill="#000000" transform="translate(913,337)"/>
<path d="M0 0 C2.31 0 4.62 0 7 0 C7 0.99 7 1.98 7 3 C8.98 3 10.96 3 13 3 C13 3.99 13 4.98 13 6 C9.7 6 6.4 6 3 6 C3 5.01 3 4.02 3 3 C2.01 3 1.02 3 0 3 C0 2.01 0 1.02 0 0 Z " fill="#000000" transform="translate(926,341)"/>
<path d="M0 0 C0.99 0 1.98 0 3 0 C3 0.99 3 1.98 3 3 C5.31 3 7.62 3 10 3 C10 4.32 10 5.64 10 7 C6.7 7 3.4 7 0 7 C0 4.69 0 2.38 0 0 Z " fill="#000000" transform="translate(850,314)"/>
<path d="M0 0 C4.62 0 9.24 0 14 0 C14 0.99 14 1.98 14 3 C9.38 3 4.76 3 0 3 C0 2.01 0 1.02 0 0 Z " fill="#000000" transform="translate(234,341)"/>
<path d="M0 0 C3.3 0 6.6 0 10 0 C10 1.32 10 2.64 10 4 C6.7 4 3.4 4 0 4 C0 2.68 0 1.36 0 0 Z " fill="#000000" transform="translate(939,347)"/>
<path d="M0 0 C4.29 0 8.58 0 13 0 C13 0.99 13 1.98 13 3 C8.71 3 4.42 3 0 3 C0 2.01 0 1.02 0 0 Z " fill="#000000" transform="translate(271,324)"/>
<path d="M0 0 C2.31 0 4.62 0 7 0 C7 0.99 7 1.98 7 3 C5.68 3 4.36 3 3 3 C3 4.32 3 5.64 3 7 C2.01 7 1.02 7 0 7 C0 4.69 0 2.38 0 0 Z " fill="#000000" transform="translate(334,294)"/>
<path d="M0 0 C3.3 0 6.6 0 10 0 C10 0.99 10 1.98 10 3 C6.7 3 3.4 3 0 3 C0 2.01 0 1.02 0 0 Z " fill="#000000" transform="translate(297,314)"/>
<path d="M0 0 C3.3 0 6.6 0 10 0 C10 0.99 10 1.98 10 3 C6.7 3 3.4 3 0 3 C0 2.01 0 1.02 0 0 Z " fill="#000000" transform="translate(307,311)"/>
<path d="M0 0 C0.99 0 1.98 0 3 0 C3 3.3 3 6.6 3 10 C2.01 10 1.02 10 0 10 C0 6.7 0 3.4 0 0 Z " fill="#FFFFFF" transform="translate(248,257)"/>
<path d="M0 0 C0.99 0 1.98 0 3 0 C3 0.99 3 1.98 3 3 C3.99 3 4.98 3 6 3 C6 3.99 6 4.98 6 6 C4.02 6 2.04 6 0 6 C0 4.02 0 2.04 0 0 Z " fill="#000000" transform="translate(860,321)"/>
<path d="M0 0 C1.98 0 3.96 0 6 0 C6 1.32 6 2.64 6 4 C4.02 4 2.04 4 0 4 C0 2.68 0 1.36 0 0 Z " fill="#000000" transform="translate(291,317)"/>
<path d="M0 0 C1.32 0 2.64 0 4 0 C4 1.98 4 3.96 4 6 C2.68 6 1.36 6 0 6 C0 4.02 0 2.04 0 0 Z " fill="#FFFFFF" transform="translate(264,261)"/>
<path d="M0 0 C2.31 0 4.62 0 7 0 C7 0.99 7 1.98 7 3 C4.69 3 2.38 3 0 3 C0 2.01 0 1.02 0 0 Z " fill="#000000" transform="translate(284,321)"/>
<path d="M0 0 C2.31 0 4.62 0 7 0 C7 0.99 7 1.98 7 3 C4.69 3 2.38 3 0 3 C0 2.01 0 1.02 0 0 Z " fill="#000000" transform="translate(327,301)"/>
<path d="M0 0 C1.98 0 3.96 0 6 0 C6 0.99 6 1.98 6 3 C4.02 3 2.04 3 0 3 C0 2.01 0 1.02 0 0 Z " fill="#000000" transform="translate(321,304)"/>
</svg>
