<?xml version="1.0" encoding="UTF-8"?>
<svg version="1.1" xmlns="http://www.w3.org/2000/svg" width="540" height="500">
<path d="M0 0 C71.28 0 142.56 0 216 0 C216 81.84 216 163.68 216 248 C144.72 248 73.44 248 0 248 C0 166.16 0 84.32 0 0 Z M128 88 C128 90.64 128 93.28 128 96 C130.64 96 133.28 96 136 96 C136 93.36 136 90.72 136 88 C133.36 88 130.72 88 128 88 Z " fill="#C0C0C0" transform="translate(158,122)"/>
<path d="M0 0 C50.16 0 100.32 0 152 0 C152 2.64 152 5.28 152 8 C130.88 8 109.76 8 88 8 C88 10.64 88 13.28 88 16 C106.48 16 124.96 16 144 16 C144 18.64 144 21.28 144 24 C138.72 24 133.44 24 128 24 C128 26.64 128 29.28 128 32 C122.72 32 117.44 32 112 32 C112 29.36 112 26.72 112 24 C109.36 24 106.72 24 104 24 C104 26.64 104 29.28 104 32 C101.36 32 98.72 32 96 32 C96 34.64 96 37.28 96 40 C93.36 40 90.72 40 88 40 C88 45.28 88 50.56 88 56 C90.64 56 93.28 56 96 56 C96 58.64 96 61.28 96 64 C103.92 64 111.84 64 120 64 C120 66.64 120 69.28 120 72 C127.92 72 135.84 72 144 72 C144 106.32 144 140.64 144 176 C120.24 176 96.48 176 72 176 C72 162.8 72 149.6 72 136 C69.36 136 66.72 136 64 136 C64 133.36 64 130.72 64 128 C58.72 128 53.44 128 48 128 C48 125.36 48 122.72 48 120 C42.72 120 37.44 120 32 120 C32 117.36 32 114.72 32 112 C29.36 112 26.72 112 24 112 C24 109.36 24 106.72 24 104 C18.72 104 13.44 104 8 104 C8 130.4 8 156.8 8 184 C5.36 184 2.72 184 0 184 C0 123.28 0 62.56 0 0 Z " fill="#808000" transform="translate(190,154)"/>
<path d="M0 0 C71.28 0 142.56 0 216 0 C216 81.84 216 163.68 216 248 C144.72 248 73.44 248 0 248 C0 166.16 0 84.32 0 0 Z M8 8 C8 81.92 8 155.84 8 232 C71.36 232 134.72 232 200 232 C200 158.08 200 84.16 200 8 C136.64 8 73.28 8 8 8 Z " fill="#808080" transform="translate(158,122)"/>
<path d="M0 0 C21.12 0 42.24 0 64 0 C64 58.08 64 116.16 64 176 C16.48 176 -31.04 176 -80 176 C-80 149.6 -80 123.2 -80 96 C-74.72 96 -69.44 96 -64 96 C-64 98.64 -64 101.28 -64 104 C-61.36 104 -58.72 104 -56 104 C-56 106.64 -56 109.28 -56 112 C-50.72 112 -45.44 112 -40 112 C-40 114.64 -40 117.28 -40 120 C-34.72 120 -29.44 120 -24 120 C-24 122.64 -24 125.28 -24 128 C-21.36 128 -18.72 128 -16 128 C-16 141.2 -16 154.4 -16 168 C7.76 168 31.52 168 56 168 C56 133.68 56 99.36 56 64 C48.08 64 40.16 64 32 64 C32 61.36 32 58.72 32 56 C26.72 56 21.44 56 16 56 C16 53.36 16 50.72 16 48 C10.72 48 5.44 48 0 48 C0 42.72 0 37.44 0 32 C2.64 32 5.28 32 8 32 C8 29.36 8 26.72 8 24 C10.64 24 13.28 24 16 24 C16 21.36 16 18.72 16 16 C18.64 16 21.28 16 24 16 C24 18.64 24 21.28 24 24 C29.28 24 34.56 24 40 24 C40 21.36 40 18.72 40 16 C45.28 16 50.56 16 56 16 C56 13.36 56 10.72 56 8 C37.52 8 19.04 8 0 8 C0 5.36 0 2.72 0 0 Z " fill="#808080" transform="translate(278,162)"/>
<path d="M0 0 C50.16 0 100.32 0 152 0 C152 2.64 152 5.28 152 8 C130.88 8 109.76 8 88 8 C88 10.64 88 13.28 88 16 C106.48 16 124.96 16 144 16 C144 18.64 144 21.28 144 24 C138.72 24 133.44 24 128 24 C128 26.64 128 29.28 128 32 C122.72 32 117.44 32 112 32 C112 29.36 112 26.72 112 24 C109.36 24 106.72 24 104 24 C104 26.64 104 29.28 104 32 C101.36 32 98.72 32 96 32 C96 34.64 96 37.28 96 40 C93.36 40 90.72 40 88 40 C88 45.28 88 50.56 88 56 C90.64 56 93.28 56 96 56 C96 58.64 96 61.28 96 64 C103.92 64 111.84 64 120 64 C120 66.64 120 69.28 120 72 C127.92 72 135.84 72 144 72 C144 77.28 144 82.56 144 88 C122.88 88 101.76 88 80 88 C80 61.6 80 35.2 80 8 C56.24 8 32.48 8 8 8 C8 37.04 8 66.08 8 96 C29.12 96 50.24 96 72 96 C72 109.2 72 122.4 72 136 C69.36 136 66.72 136 64 136 C64 133.36 64 130.72 64 128 C58.72 128 53.44 128 48 128 C48 125.36 48 122.72 48 120 C42.72 120 37.44 120 32 120 C32 117.36 32 114.72 32 112 C29.36 112 26.72 112 24 112 C24 109.36 24 106.72 24 104 C18.72 104 13.44 104 8 104 C8 130.4 8 156.8 8 184 C5.36 184 2.72 184 0 184 C0 123.28 0 62.56 0 0 Z " fill="#000000" transform="translate(190,154)"/>
<path d="M0 0 C21.12 0 42.24 0 64 0 C64 26.4 64 52.8 64 80 C42.88 80 21.76 80 0 80 C0 53.6 0 27.2 0 0 Z " fill="#0000FF" transform="translate(270,250)"/>
<path d="M0 0 C18.48 0 36.96 0 56 0 C56 7.92 56 15.84 56 24 C50.72 24 45.44 24 40 24 C40 26.64 40 29.28 40 32 C37.36 32 34.72 32 32 32 C32 34.64 32 37.28 32 40 C37.28 40 42.56 40 48 40 C48 42.64 48 45.28 48 48 C50.64 48 53.28 48 56 48 C56 55.92 56 63.84 56 72 C37.52 72 19.04 72 0 72 C0 48.24 0 24.48 0 0 Z " fill="#0000FF" transform="translate(206,170)"/>
<path d="M0 0 C2.64 0 5.28 0 8 0 C8 81.84 8 163.68 8 248 C-63.28 248 -134.56 248 -208 248 C-208 245.36 -208 242.72 -208 240 C-139.36 240 -70.72 240 0 240 C0 160.8 0 81.6 0 0 Z " fill="#000000" transform="translate(366,122)"/>
<path d="M0 0 C63.36 0 126.72 0 192 0 C192 2.64 192 5.28 192 8 C131.28 8 70.56 8 8 8 C8 79.28 8 150.56 8 224 C5.36 224 2.72 224 0 224 C0 150.08 0 76.16 0 0 Z " fill="#FFFFFF" transform="translate(166,130)"/>
<path d="M0 0 C2.64 0 5.28 0 8 0 C8 66 8 132 8 200 C-44.8 200 -97.6 200 -152 200 C-152 197.36 -152 194.72 -152 192 C-101.84 192 -51.68 192 0 192 C0 128.64 0 65.28 0 0 Z " fill="#FFFFFF" transform="translate(342,146)"/>
<path d="M0 0 C52.8 0 105.6 0 160 0 C160 2.64 160 5.28 160 8 C109.84 8 59.68 8 8 8 C8 71.36 8 134.72 8 200 C5.36 200 2.72 200 0 200 C0 134 0 68 0 0 Z " fill="#808080" transform="translate(182,146)"/>
<path d="M0 0 C2.64 0 5.28 0 8 0 C8 2.64 8 5.28 8 8 C13.28 8 18.56 8 24 8 C24 5.36 24 2.72 24 0 C29.28 0 34.56 0 40 0 C40 15.84 40 31.68 40 48 C32.08 48 24.16 48 16 48 C16 45.36 16 42.72 16 40 C10.72 40 5.44 40 0 40 C0 37.36 0 34.72 0 32 C-5.28 32 -10.56 32 -16 32 C-16 26.72 -16 21.44 -16 16 C-13.36 16 -10.72 16 -8 16 C-8 13.36 -8 10.72 -8 8 C-5.36 8 -2.72 8 0 8 C0 5.36 0 2.72 0 0 Z " fill="#FFFFFF" transform="translate(294,178)"/>
<path d="M0 0 C2.64 0 5.28 0 8 0 C8 2.64 8 5.28 8 8 C10.64 8 13.28 8 16 8 C16 10.64 16 13.28 16 16 C21.28 16 26.56 16 32 16 C32 18.64 32 21.28 32 24 C37.28 24 42.56 24 48 24 C48 26.64 48 29.28 48 32 C50.64 32 53.28 32 56 32 C56 34.64 56 37.28 56 40 C50.72 40 45.44 40 40 40 C40 42.64 40 45.28 40 48 C29.44 48 18.88 48 8 48 C8 50.64 8 53.28 8 56 C5.36 56 2.72 56 0 56 C0 37.52 0 19.04 0 0 Z " fill="#C0C0C0" transform="translate(206,258)"/>
<path d="M0 0 C5.28 0 10.56 0 16 0 C16 10.56 16 21.12 16 32 C-2.48 32 -20.96 32 -40 32 C-40 26.72 -40 21.44 -40 16 C-37.36 16 -34.72 16 -32 16 C-32 13.36 -32 10.72 -32 8 C-21.44 8 -10.88 8 0 8 C0 5.36 0 2.72 0 0 Z " fill="#0000FF" transform="translate(246,298)"/>
<path d="M0 0 C2.64 0 5.28 0 8 0 C8 2.64 8 5.28 8 8 C15.92 8 23.84 8 32 8 C32 10.64 32 13.28 32 16 C39.92 16 47.84 16 56 16 C56 21.28 56 26.56 56 32 C37.52 32 19.04 32 0 32 C0 21.44 0 10.88 0 0 Z " fill="#0000FF" transform="translate(278,210)"/>
<path d="M0 0 C21.12 0 42.24 0 64 0 C64 2.64 64 5.28 64 8 C45.52 8 27.04 8 8 8 C8 31.76 8 55.52 8 80 C5.36 80 2.72 80 0 80 C0 53.6 0 27.2 0 0 Z " fill="#000000" transform="translate(270,250)"/>
<path d="M0 0 C21.12 0 42.24 0 64 0 C64 2.64 64 5.28 64 8 C45.52 8 27.04 8 8 8 C8 31.76 8 55.52 8 80 C5.36 80 2.72 80 0 80 C0 53.6 0 27.2 0 0 Z " fill="#808080" transform="translate(198,162)"/>
<path d="M0 0 C15.84 0 31.68 0 48 0 C48 10.56 48 21.12 48 32 C45.36 32 42.72 32 40 32 C40 29.36 40 26.72 40 24 C34.72 24 29.44 24 24 24 C24 21.36 24 18.72 24 16 C18.72 16 13.44 16 8 16 C8 13.36 8 10.72 8 8 C5.36 8 2.72 8 0 8 C0 5.36 0 2.72 0 0 Z " fill="#0000FF" transform="translate(214,258)"/>
<path d="M0 0 C2.64 0 5.28 0 8 0 C8 2.64 8 5.28 8 8 C10.64 8 13.28 8 16 8 C16 10.64 16 13.28 16 16 C21.28 16 26.56 16 32 16 C32 18.64 32 21.28 32 24 C26.72 24 21.44 24 16 24 C16 29.28 16 34.56 16 40 C13.36 40 10.72 40 8 40 C8 45.28 8 50.56 8 56 C5.36 56 2.72 56 0 56 C0 37.52 0 19.04 0 0 Z " fill="#FFFFFF" transform="translate(206,258)"/>
<path d="M0 0 C18.48 0 36.96 0 56 0 C56 2.64 56 5.28 56 8 C50.72 8 45.44 8 40 8 C40 10.64 40 13.28 40 16 C34.72 16 29.44 16 24 16 C24 13.36 24 10.72 24 8 C21.36 8 18.72 8 16 8 C16 10.64 16 13.28 16 16 C13.36 16 10.72 16 8 16 C8 18.64 8 21.28 8 24 C5.36 24 2.72 24 0 24 C0 16.08 0 8.16 0 0 Z " fill="#0000FF" transform="translate(278,170)"/>
<path d="M0 0 C5.28 0 10.56 0 16 0 C16 7.92 16 15.84 16 24 C13.36 24 10.72 24 8 24 C8 21.36 8 18.72 8 16 C2.72 16 -2.56 16 -8 16 C-8 13.36 -8 10.72 -8 8 C-5.36 8 -2.72 8 0 8 C0 5.36 0 2.72 0 0 Z " fill="#FFFFFF" transform="translate(246,194)"/>
<path d="M0 0 C5.28 0 10.56 0 16 0 C16 2.64 16 5.28 16 8 C13.36 8 10.72 8 8 8 C8 13.28 8 18.56 8 24 C2.72 24 -2.56 24 -8 24 C-8 21.36 -8 18.72 -8 16 C-5.36 16 -2.72 16 0 16 C0 10.72 0 5.44 0 0 Z " fill="#C0C0C0" transform="translate(222,282)"/>
<path d="M0 0 C7.92 0 15.84 0 24 0 C24 5.28 24 10.56 24 16 C21.36 16 18.72 16 16 16 C16 13.36 16 10.72 16 8 C10.72 8 5.44 8 0 8 C0 5.36 0 2.72 0 0 Z " fill="#808080" transform="translate(294,210)"/>
<path d="M0 0 C5.28 0 10.56 0 16 0 C16 2.64 16 5.28 16 8 C10.72 8 5.44 8 0 8 C0 5.36 0 2.72 0 0 Z " fill="#808080" transform="translate(214,298)"/>
<path d="M0 0 C2.64 0 5.28 0 8 0 C8 5.28 8 10.56 8 16 C5.36 16 2.72 16 0 16 C0 10.72 0 5.44 0 0 Z " fill="#FFFFFF" transform="translate(206,298)"/>
<path d="M0 0 C5.28 0 10.56 0 16 0 C16 2.64 16 5.28 16 8 C10.72 8 5.44 8 0 8 C0 5.36 0 2.72 0 0 Z " fill="#FFFFFF" transform="translate(238,282)"/>
<path d="M0 0 C5.28 0 10.56 0 16 0 C16 2.64 16 5.28 16 8 C10.72 8 5.44 8 0 8 C0 5.36 0 2.72 0 0 Z " fill="#C0C0C0" transform="translate(286,202)"/>
<path d="M0 0 C2.64 0 5.28 0 8 0 C8 2.64 8 5.28 8 8 C5.36 8 2.72 8 0 8 C0 5.36 0 2.72 0 0 Z " fill="#FFFFFF" transform="translate(278,290)"/>
<path d="M0 0 C2.64 0 5.28 0 8 0 C8 2.64 8 5.28 8 8 C5.36 8 2.72 8 0 8 C0 5.36 0 2.72 0 0 Z " fill="#FFFFFF" transform="translate(254,290)"/>
<path d="M0 0 C2.64 0 5.28 0 8 0 C8 2.64 8 5.28 8 8 C5.36 8 2.72 8 0 8 C0 5.36 0 2.72 0 0 Z " fill="#FFFFFF" transform="translate(230,290)"/>
<path d="M0 0 C2.64 0 5.28 0 8 0 C8 2.64 8 5.28 8 8 C5.36 8 2.72 8 0 8 C0 5.36 0 2.72 0 0 Z " fill="#C0C0C0" transform="translate(206,290)"/>
<path d="M0 0 C2.64 0 5.28 0 8 0 C8 2.64 8 5.28 8 8 C5.36 8 2.72 8 0 8 C0 5.36 0 2.72 0 0 Z " fill="#0000FF" transform="translate(230,282)"/>
<path d="M0 0 C2.64 0 5.28 0 8 0 C8 2.64 8 5.28 8 8 C5.36 8 2.72 8 0 8 C0 5.36 0 2.72 0 0 Z " fill="#C0C0C0" transform="translate(254,210)"/>
<path d="M0 0 C2.64 0 5.28 0 8 0 C8 2.64 8 5.28 8 8 C5.36 8 2.72 8 0 8 C0 5.36 0 2.72 0 0 Z " fill="#FFFFFF" transform="translate(222,202)"/>
<path d="M0 0 C2.64 0 5.28 0 8 0 C8 2.64 8 5.28 8 8 C5.36 8 2.72 8 0 8 C0 5.36 0 2.72 0 0 Z " fill="#0000FF" transform="translate(310,194)"/>
<path d="M0 0 C2.64 0 5.28 0 8 0 C8 2.64 8 5.28 8 8 C5.36 8 2.72 8 0 8 C0 5.36 0 2.72 0 0 Z " fill="#C0C0C0" transform="translate(302,194)"/>
</svg>
